<?xml version="1.0" encoding="UTF-8" standalone="no"?>
<!DOCTYPE svg PUBLIC "-//W3C//DTD SVG 1.1//EN"
 "http://www.w3.org/Graphics/SVG/1.1/DTD/svg11.dtd">
<!-- Generated by graphviz version 2.50.0 (20211204.2007)
 -->
<!-- Title: G Pages: 1 -->
<svg width="3700pt" height="117pt"
 viewBox="0.00 0.00 3700.00 117.00" xmlns="http://www.w3.org/2000/svg" xmlns:xlink="http://www.w3.org/1999/xlink">
<g id="graph0" class="graph" transform="scale(1 1) rotate(0) translate(4 113)">
<title>G</title>
<polygon fill="white" stroke="transparent" points="-4,4 -4,-113 3696,-113 3696,4 -4,4"/>
<g id="clust1" class="cluster">
<title>cluster1878</title>
<polygon fill="none" stroke="black" points="8,-8 8,-101 95,-101 95,-8 8,-8"/>
<text text-anchor="middle" x="51.5" y="-85.8" font-family="Times,serif" font-size="14.00">1878</text>
</g>
<g id="clust2" class="cluster">
<title>cluster1879</title>
<polygon fill="none" stroke="black" points="131,-8 131,-101 218,-101 218,-8 131,-8"/>
<text text-anchor="middle" x="174.5" y="-85.8" font-family="Times,serif" font-size="14.00">1879</text>
</g>
<g id="clust3" class="cluster">
<title>cluster1880</title>
<polygon fill="none" stroke="black" points="254,-8 254,-101 342,-101 342,-8 254,-8"/>
<text text-anchor="middle" x="298" y="-85.8" font-family="Times,serif" font-size="14.00">1880</text>
</g>
<g id="clust4" class="cluster">
<title>cluster1881</title>
<polygon fill="none" stroke="black" points="378,-8 378,-101 465,-101 465,-8 378,-8"/>
<text text-anchor="middle" x="421.5" y="-85.8" font-family="Times,serif" font-size="14.00">1881</text>
</g>
<g id="clust5" class="cluster">
<title>cluster1882</title>
<polygon fill="none" stroke="black" points="501,-8 501,-101 589,-101 589,-8 501,-8"/>
<text text-anchor="middle" x="545" y="-85.8" font-family="Times,serif" font-size="14.00">1882</text>
</g>
<g id="clust6" class="cluster">
<title>cluster1883</title>
<polygon fill="none" stroke="black" points="625,-8 625,-101 712,-101 712,-8 625,-8"/>
<text text-anchor="middle" x="668.5" y="-85.8" font-family="Times,serif" font-size="14.00">1883</text>
</g>
<g id="clust7" class="cluster">
<title>cluster1884</title>
<polygon fill="none" stroke="black" points="748,-8 748,-101 836,-101 836,-8 748,-8"/>
<text text-anchor="middle" x="792" y="-85.8" font-family="Times,serif" font-size="14.00">1884</text>
</g>
<g id="clust8" class="cluster">
<title>cluster1885</title>
<polygon fill="none" stroke="black" points="872,-8 872,-101 960,-101 960,-8 872,-8"/>
<text text-anchor="middle" x="916" y="-85.8" font-family="Times,serif" font-size="14.00">1885</text>
</g>
<g id="clust9" class="cluster">
<title>cluster1886</title>
<polygon fill="none" stroke="black" points="996,-8 996,-101 1083,-101 1083,-8 996,-8"/>
<text text-anchor="middle" x="1039.5" y="-85.8" font-family="Times,serif" font-size="14.00">1886</text>
</g>
<g id="clust10" class="cluster">
<title>cluster1887</title>
<polygon fill="none" stroke="black" points="1119,-8 1119,-101 1206,-101 1206,-8 1119,-8"/>
<text text-anchor="middle" x="1162.5" y="-85.8" font-family="Times,serif" font-size="14.00">1887</text>
</g>
<g id="clust11" class="cluster">
<title>cluster1888</title>
<polygon fill="none" stroke="black" points="1242,-8 1242,-101 1330,-101 1330,-8 1242,-8"/>
<text text-anchor="middle" x="1286" y="-85.8" font-family="Times,serif" font-size="14.00">1888</text>
</g>
<g id="clust12" class="cluster">
<title>cluster1889</title>
<polygon fill="none" stroke="black" points="1366,-8 1366,-101 1454,-101 1454,-8 1366,-8"/>
<text text-anchor="middle" x="1410" y="-85.8" font-family="Times,serif" font-size="14.00">1889</text>
</g>
<g id="clust13" class="cluster">
<title>cluster1890</title>
<polygon fill="none" stroke="black" points="1490,-8 1490,-101 1578,-101 1578,-8 1490,-8"/>
<text text-anchor="middle" x="1534" y="-85.8" font-family="Times,serif" font-size="14.00">1890</text>
</g>
<g id="clust14" class="cluster">
<title>cluster1891</title>
<polygon fill="none" stroke="black" points="1614,-8 1614,-101 1702,-101 1702,-8 1614,-8"/>
<text text-anchor="middle" x="1658" y="-85.8" font-family="Times,serif" font-size="14.00">1891</text>
</g>
<g id="clust15" class="cluster">
<title>cluster1892</title>
<polygon fill="none" stroke="black" points="1738,-8 1738,-101 1826,-101 1826,-8 1738,-8"/>
<text text-anchor="middle" x="1782" y="-85.8" font-family="Times,serif" font-size="14.00">1892</text>
</g>
<g id="clust16" class="cluster">
<title>cluster1893</title>
<polygon fill="none" stroke="black" points="1862,-8 1862,-101 1950,-101 1950,-8 1862,-8"/>
<text text-anchor="middle" x="1906" y="-85.8" font-family="Times,serif" font-size="14.00">1893</text>
</g>
<g id="clust17" class="cluster">
<title>cluster1894</title>
<polygon fill="none" stroke="black" points="1986,-8 1986,-101 2074,-101 2074,-8 1986,-8"/>
<text text-anchor="middle" x="2030" y="-85.8" font-family="Times,serif" font-size="14.00">1894</text>
</g>
<g id="clust18" class="cluster">
<title>cluster1895</title>
<polygon fill="none" stroke="black" points="2110,-8 2110,-101 2198,-101 2198,-8 2110,-8"/>
<text text-anchor="middle" x="2154" y="-85.8" font-family="Times,serif" font-size="14.00">1895</text>
</g>
<g id="clust19" class="cluster">
<title>cluster1896</title>
<polygon fill="none" stroke="black" points="2234,-8 2234,-101 2322,-101 2322,-8 2234,-8"/>
<text text-anchor="middle" x="2278" y="-85.8" font-family="Times,serif" font-size="14.00">1896</text>
</g>
<g id="clust20" class="cluster">
<title>cluster1897</title>
<polygon fill="none" stroke="black" points="2358,-8 2358,-101 2446,-101 2446,-8 2358,-8"/>
<text text-anchor="middle" x="2402" y="-85.8" font-family="Times,serif" font-size="14.00">1897</text>
</g>
<g id="clust21" class="cluster">
<title>cluster1898</title>
<polygon fill="none" stroke="black" points="2482,-8 2482,-101 2569,-101 2569,-8 2482,-8"/>
<text text-anchor="middle" x="2525.5" y="-85.8" font-family="Times,serif" font-size="14.00">1898</text>
</g>
<g id="clust22" class="cluster">
<title>cluster1899</title>
<polygon fill="none" stroke="black" points="2605,-8 2605,-101 2693,-101 2693,-8 2605,-8"/>
<text text-anchor="middle" x="2649" y="-85.8" font-family="Times,serif" font-size="14.00">1899</text>
</g>
<g id="clust23" class="cluster">
<title>cluster1900</title>
<polygon fill="none" stroke="black" points="2729,-8 2729,-101 2816,-101 2816,-8 2729,-8"/>
<text text-anchor="middle" x="2772.5" y="-85.8" font-family="Times,serif" font-size="14.00">1900</text>
</g>
<g id="clust24" class="cluster">
<title>cluster1901</title>
<polygon fill="none" stroke="black" points="2852,-8 2852,-101 2940,-101 2940,-8 2852,-8"/>
<text text-anchor="middle" x="2896" y="-85.8" font-family="Times,serif" font-size="14.00">1901</text>
</g>
<g id="clust25" class="cluster">
<title>cluster1902</title>
<polygon fill="none" stroke="black" points="2976,-8 2976,-101 3064,-101 3064,-8 2976,-8"/>
<text text-anchor="middle" x="3020" y="-85.8" font-family="Times,serif" font-size="14.00">1902</text>
</g>
<g id="clust26" class="cluster">
<title>cluster1903</title>
<polygon fill="none" stroke="black" points="3100,-8 3100,-101 3188,-101 3188,-8 3100,-8"/>
<text text-anchor="middle" x="3144" y="-85.8" font-family="Times,serif" font-size="14.00">1903</text>
</g>
<g id="clust27" class="cluster">
<title>cluster1904</title>
<polygon fill="none" stroke="black" points="3224,-8 3224,-101 3312,-101 3312,-8 3224,-8"/>
<text text-anchor="middle" x="3268" y="-85.8" font-family="Times,serif" font-size="14.00">1904</text>
</g>
<g id="clust28" class="cluster">
<title>cluster1905</title>
<polygon fill="none" stroke="black" points="3348,-8 3348,-101 3436,-101 3436,-8 3348,-8"/>
<text text-anchor="middle" x="3392" y="-85.8" font-family="Times,serif" font-size="14.00">1905</text>
</g>
<g id="clust29" class="cluster">
<title>cluster1906</title>
<polygon fill="none" stroke="black" points="3472,-8 3472,-101 3560,-101 3560,-8 3472,-8"/>
<text text-anchor="middle" x="3516" y="-85.8" font-family="Times,serif" font-size="14.00">1906</text>
</g>
<g id="clust30" class="cluster">
<title>cluster1907</title>
<polygon fill="none" stroke="black" points="3596,-8 3596,-101 3684,-101 3684,-8 3596,-8"/>
<text text-anchor="middle" x="3640" y="-85.8" font-family="Times,serif" font-size="14.00">1907</text>
</g>
<!-- Node0x600001e60cf0 -->
<g id="node1" class="node">
<title>Node0x600001e60cf0</title>
<polygon fill="none" stroke="black" points="8,-9 8,-77 95,-77 95,-9 8,-9"/>
<text text-anchor="middle" x="51.5" y="-66.6" font-family="Times,serif" font-size="8.00">word: Mantua</text>
<polyline fill="none" stroke="black" points="8,-60 95,-60 "/>
<text text-anchor="middle" x="51.5" y="-49.6" font-family="Times,serif" font-size="8.00">size: 16</text>
<polyline fill="none" stroke="black" points="8,-43 95,-43 "/>
<text text-anchor="middle" x="51.5" y="-32.6" font-family="Times,serif" font-size="8.00">next: 0x600001e613e0</text>
<polyline fill="none" stroke="black" points="8,-26 95,-26 "/>
<text text-anchor="middle" x="51.5" y="-15.6" font-family="Times,serif" font-size="8.00">prev: 0x0</text>
</g>
<!-- Node0x600001e613e0 -->
<g id="node2" class="node">
<title>Node0x600001e613e0</title>
<polygon fill="none" stroke="black" points="131,-9 131,-77 218,-77 218,-9 131,-9"/>
<text text-anchor="middle" x="174.5" y="-66.6" font-family="Times,serif" font-size="8.00">word: Two</text>
<polyline fill="none" stroke="black" points="131,-60 218,-60 "/>
<text text-anchor="middle" x="174.5" y="-49.6" font-family="Times,serif" font-size="8.00">size: 5</text>
<polyline fill="none" stroke="black" points="131,-43 218,-43 "/>
<text text-anchor="middle" x="174.5" y="-32.6" font-family="Times,serif" font-size="8.00">next: 0x600001e636f0</text>
<polyline fill="none" stroke="black" points="131,-26 218,-26 "/>
<text text-anchor="middle" x="174.5" y="-15.6" font-family="Times,serif" font-size="8.00">prev: 0x600001e60cf0</text>
</g>
<!-- Node0x600001e60cf0&#45;&gt;Node0x600001e613e0 -->
<g id="edge1" class="edge">
<title>Node0x600001e60cf0:n&#45;&gt;Node0x600001e613e0:n</title>
<path fill="none" stroke="red" d="M95,-34C107,-34 112.25,-34 120.88,-34"/>
<polygon fill="red" stroke="red" points="121,-37.5 131,-34 121,-30.5 121,-37.5"/>
</g>
<!-- Node0x600001e636f0 -->
<g id="node3" class="node">
<title>Node0x600001e636f0</title>
<polygon fill="none" stroke="black" points="254,-9 254,-77 342,-77 342,-9 254,-9"/>
<text text-anchor="middle" x="298" y="-66.6" font-family="Times,serif" font-size="8.00">word: able</text>
<polyline fill="none" stroke="black" points="254,-60 342,-60 "/>
<text text-anchor="middle" x="298" y="-49.6" font-family="Times,serif" font-size="8.00">size: 2</text>
<polyline fill="none" stroke="black" points="254,-43 342,-43 "/>
<text text-anchor="middle" x="298" y="-32.6" font-family="Times,serif" font-size="8.00">next: 0x600001e63a20</text>
<polyline fill="none" stroke="black" points="254,-26 342,-26 "/>
<text text-anchor="middle" x="298" y="-15.6" font-family="Times,serif" font-size="8.00">prev: 0x600001e613e0</text>
</g>
<!-- Node0x600001e613e0&#45;&gt;Node0x600001e636f0 -->
<g id="edge2" class="edge">
<title>Node0x600001e613e0:n&#45;&gt;Node0x600001e636f0:n</title>
<path fill="none" stroke="red" d="M218,-34C230,-34 235.25,-34 243.88,-34"/>
<polygon fill="red" stroke="red" points="244,-37.5 254,-34 244,-30.5 244,-37.5"/>
</g>
<!-- Node0x600001e63a20 -->
<g id="node4" class="node">
<title>Node0x600001e63a20</title>
<polygon fill="none" stroke="black" points="378,-9 378,-77 465,-77 465,-9 378,-9"/>
<text text-anchor="middle" x="421.5" y="-66.6" font-family="Times,serif" font-size="8.00">word: Montagues</text>
<polyline fill="none" stroke="black" points="378,-60 465,-60 "/>
<text text-anchor="middle" x="421.5" y="-49.6" font-family="Times,serif" font-size="8.00">size: 5</text>
<polyline fill="none" stroke="black" points="378,-43 465,-43 "/>
<text text-anchor="middle" x="421.5" y="-32.6" font-family="Times,serif" font-size="8.00">next: 0x600001e63cf0</text>
<polyline fill="none" stroke="black" points="378,-26 465,-26 "/>
<text text-anchor="middle" x="421.5" y="-15.6" font-family="Times,serif" font-size="8.00">prev: 0x600001e636f0</text>
</g>
<!-- Node0x600001e636f0&#45;&gt;Node0x600001e63a20 -->
<g id="edge3" class="edge">
<title>Node0x600001e636f0:n&#45;&gt;Node0x600001e63a20:n</title>
<path fill="none" stroke="red" d="M342,-34C354,-34 359.25,-34 367.88,-34"/>
<polygon fill="red" stroke="red" points="368,-37.5 378,-34 368,-30.5 368,-37.5"/>
</g>
<!-- Node0x600001e63cf0 -->
<g id="node5" class="node">
<title>Node0x600001e63cf0</title>
<polygon fill="none" stroke="black" points="501,-9 501,-77 589,-77 589,-9 501,-9"/>
<text text-anchor="middle" x="545" y="-66.6" font-family="Times,serif" font-size="8.00">word: law</text>
<polyline fill="none" stroke="black" points="501,-60 589,-60 "/>
<text text-anchor="middle" x="545" y="-49.6" font-family="Times,serif" font-size="8.00">size: 12</text>
<polyline fill="none" stroke="black" points="501,-43 589,-43 "/>
<text text-anchor="middle" x="545" y="-32.6" font-family="Times,serif" font-size="8.00">next: 0x600001e63e10</text>
<polyline fill="none" stroke="black" points="501,-26 589,-26 "/>
<text text-anchor="middle" x="545" y="-15.6" font-family="Times,serif" font-size="8.00">prev: 0x600001e63a20</text>
</g>
<!-- Node0x600001e63a20&#45;&gt;Node0x600001e63cf0 -->
<g id="edge4" class="edge">
<title>Node0x600001e63a20:n&#45;&gt;Node0x600001e63cf0:n</title>
<path fill="none" stroke="red" d="M465,-34C477,-34 482.25,-34 490.88,-34"/>
<polygon fill="red" stroke="red" points="491,-37.5 501,-34 491,-30.5 491,-37.5"/>
</g>
<!-- Node0x600001e63e10 -->
<g id="node6" class="node">
<title>Node0x600001e63e10</title>
<polygon fill="none" stroke="black" points="625,-9 625,-77 712,-77 712,-9 625,-9"/>
<text text-anchor="middle" x="668.5" y="-66.6" font-family="Times,serif" font-size="8.00">word: as</text>
<polyline fill="none" stroke="black" points="625,-60 712,-60 "/>
<text text-anchor="middle" x="668.5" y="-49.6" font-family="Times,serif" font-size="8.00">size: 121</text>
<polyline fill="none" stroke="black" points="625,-43 712,-43 "/>
<text text-anchor="middle" x="668.5" y="-32.6" font-family="Times,serif" font-size="8.00">next: 0x600001e68d20</text>
<polyline fill="none" stroke="black" points="625,-26 712,-26 "/>
<text text-anchor="middle" x="668.5" y="-15.6" font-family="Times,serif" font-size="8.00">prev: 0x600001e63cf0</text>
</g>
<!-- Node0x600001e63cf0&#45;&gt;Node0x600001e63e10 -->
<g id="edge5" class="edge">
<title>Node0x600001e63cf0:n&#45;&gt;Node0x600001e63e10:n</title>
<path fill="none" stroke="red" d="M589,-34C601,-34 606.25,-34 614.88,-34"/>
<polygon fill="red" stroke="red" points="615,-37.5 625,-34 615,-30.5 615,-37.5"/>
</g>
<!-- Node0x600001e68d20 -->
<g id="node7" class="node">
<title>Node0x600001e68d20</title>
<polygon fill="none" stroke="black" points="748,-9 748,-77 836,-77 836,-9 748,-9"/>
<text text-anchor="middle" x="792" y="-66.6" font-family="Times,serif" font-size="8.00">word: this</text>
<polyline fill="none" stroke="black" points="748,-60 836,-60 "/>
<text text-anchor="middle" x="792" y="-49.6" font-family="Times,serif" font-size="8.00">size: 185</text>
<polyline fill="none" stroke="black" points="748,-43 836,-43 "/>
<text text-anchor="middle" x="792" y="-32.6" font-family="Times,serif" font-size="8.00">next: 0x600001e6c0f0</text>
<polyline fill="none" stroke="black" points="748,-26 836,-26 "/>
<text text-anchor="middle" x="792" y="-15.6" font-family="Times,serif" font-size="8.00">prev: 0x600001e63e10</text>
</g>
<!-- Node0x600001e63e10&#45;&gt;Node0x600001e68d20 -->
<g id="edge6" class="edge">
<title>Node0x600001e63e10:n&#45;&gt;Node0x600001e68d20:n</title>
<path fill="none" stroke="red" d="M712,-34C724,-34 729.25,-34 737.88,-34"/>
<polygon fill="red" stroke="red" points="738,-37.5 748,-34 738,-30.5 738,-37.5"/>
</g>
<!-- Node0x600001e6c0f0 -->
<g id="node8" class="node">
<title>Node0x600001e6c0f0</title>
<polygon fill="none" stroke="black" points="872,-9 872,-77 960,-77 960,-9 872,-9"/>
<text text-anchor="middle" x="916" y="-66.6" font-family="Times,serif" font-size="8.00">word: madam</text>
<polyline fill="none" stroke="black" points="872,-60 960,-60 "/>
<text text-anchor="middle" x="916" y="-49.6" font-family="Times,serif" font-size="8.00">size: 11</text>
<polyline fill="none" stroke="black" points="872,-43 960,-43 "/>
<text text-anchor="middle" x="916" y="-32.6" font-family="Times,serif" font-size="8.00">next: 0x600001e6f1e0</text>
<polyline fill="none" stroke="black" points="872,-26 960,-26 "/>
<text text-anchor="middle" x="916" y="-15.6" font-family="Times,serif" font-size="8.00">prev: 0x600001e68d20</text>
</g>
<!-- Node0x600001e68d20&#45;&gt;Node0x600001e6c0f0 -->
<g id="edge7" class="edge">
<title>Node0x600001e68d20:n&#45;&gt;Node0x600001e6c0f0:n</title>
<path fill="none" stroke="red" d="M836,-34C848,-34 853.25,-34 861.88,-34"/>
<polygon fill="red" stroke="red" points="862,-37.5 872,-34 862,-30.5 862,-37.5"/>
</g>
<!-- Node0x600001e6f1e0 -->
<g id="node9" class="node">
<title>Node0x600001e6f1e0</title>
<polygon fill="none" stroke="black" points="996,-9 996,-77 1083,-77 1083,-9 996,-9"/>
<text text-anchor="middle" x="1039.5" y="-66.6" font-family="Times,serif" font-size="8.00">word: Whereto</text>
<polyline fill="none" stroke="black" points="996,-60 1083,-60 "/>
<text text-anchor="middle" x="1039.5" y="-49.6" font-family="Times,serif" font-size="8.00">size: 1</text>
<polyline fill="none" stroke="black" points="996,-43 1083,-43 "/>
<text text-anchor="middle" x="1039.5" y="-32.6" font-family="Times,serif" font-size="8.00">next: 0x600001e70750</text>
<polyline fill="none" stroke="black" points="996,-26 1083,-26 "/>
<text text-anchor="middle" x="1039.5" y="-15.6" font-family="Times,serif" font-size="8.00">prev: 0x600001e6c0f0</text>
</g>
<!-- Node0x600001e6c0f0&#45;&gt;Node0x600001e6f1e0 -->
<g id="edge8" class="edge">
<title>Node0x600001e6c0f0:n&#45;&gt;Node0x600001e6f1e0:n</title>
<path fill="none" stroke="red" d="M960,-34C972,-34 977.25,-34 985.88,-34"/>
<polygon fill="red" stroke="red" points="986,-37.5 996,-34 986,-30.5 986,-37.5"/>
</g>
<!-- Node0x600001e70750 -->
<g id="node10" class="node">
<title>Node0x600001e70750</title>
<polygon fill="none" stroke="black" points="1119,-9 1119,-77 1206,-77 1206,-9 1119,-9"/>
<text text-anchor="middle" x="1162.5" y="-66.6" font-family="Times,serif" font-size="8.00">word: language</text>
<polyline fill="none" stroke="black" points="1119,-60 1206,-60 "/>
<text text-anchor="middle" x="1162.5" y="-49.6" font-family="Times,serif" font-size="8.00">size: 1</text>
<polyline fill="none" stroke="black" points="1119,-43 1206,-43 "/>
<text text-anchor="middle" x="1162.5" y="-32.6" font-family="Times,serif" font-size="8.00">next: 0x600001e70c30</text>
<polyline fill="none" stroke="black" points="1119,-26 1206,-26 "/>
<text text-anchor="middle" x="1162.5" y="-15.6" font-family="Times,serif" font-size="8.00">prev: 0x600001e6f1e0</text>
</g>
<!-- Node0x600001e6f1e0&#45;&gt;Node0x600001e70750 -->
<g id="edge9" class="edge">
<title>Node0x600001e6f1e0:n&#45;&gt;Node0x600001e70750:n</title>
<path fill="none" stroke="red" d="M1083,-34C1095,-34 1100.25,-34 1108.88,-34"/>
<polygon fill="red" stroke="red" points="1109,-37.5 1119,-34 1109,-30.5 1109,-37.5"/>
</g>
<!-- Node0x600001e70c30 -->
<g id="node11" class="node">
<title>Node0x600001e70c30</title>
<polygon fill="none" stroke="black" points="1242,-9 1242,-77 1330,-77 1330,-9 1242,-9"/>
<text text-anchor="middle" x="1286" y="-66.6" font-family="Times,serif" font-size="8.00">word: Livia</text>
<polyline fill="none" stroke="black" points="1242,-60 1330,-60 "/>
<text text-anchor="middle" x="1286" y="-49.6" font-family="Times,serif" font-size="8.00">size: 1</text>
<polyline fill="none" stroke="black" points="1242,-43 1330,-43 "/>
<text text-anchor="middle" x="1286" y="-32.6" font-family="Times,serif" font-size="8.00">next: 0x600001e64ed0</text>
<polyline fill="none" stroke="black" points="1242,-26 1330,-26 "/>
<text text-anchor="middle" x="1286" y="-15.6" font-family="Times,serif" font-size="8.00">prev: 0x600001e70750</text>
</g>
<!-- Node0x600001e70750&#45;&gt;Node0x600001e70c30 -->
<g id="edge10" class="edge">
<title>Node0x600001e70750:n&#45;&gt;Node0x600001e70c30:n</title>
<path fill="none" stroke="red" d="M1206,-34C1218,-34 1223.25,-34 1231.88,-34"/>
<polygon fill="red" stroke="red" points="1232,-37.5 1242,-34 1232,-30.5 1232,-37.5"/>
</g>
<!-- Node0x600001e64ed0 -->
<g id="node12" class="node">
<title>Node0x600001e64ed0</title>
<polygon fill="none" stroke="black" points="1366,-9 1366,-77 1454,-77 1454,-9 1366,-9"/>
<text text-anchor="middle" x="1410" y="-66.6" font-family="Times,serif" font-size="8.00">word: wean</text>
<polyline fill="none" stroke="black" points="1366,-60 1454,-60 "/>
<text text-anchor="middle" x="1410" y="-49.6" font-family="Times,serif" font-size="8.00">size: 1</text>
<polyline fill="none" stroke="black" points="1366,-43 1454,-43 "/>
<text text-anchor="middle" x="1410" y="-32.6" font-family="Times,serif" font-size="8.00">next: 0x600001e65140</text>
<polyline fill="none" stroke="black" points="1366,-26 1454,-26 "/>
<text text-anchor="middle" x="1410" y="-15.6" font-family="Times,serif" font-size="8.00">prev: 0x600001e70c30</text>
</g>
<!-- Node0x600001e70c30&#45;&gt;Node0x600001e64ed0 -->
<g id="edge11" class="edge">
<title>Node0x600001e70c30:n&#45;&gt;Node0x600001e64ed0:n</title>
<path fill="none" stroke="red" d="M1330,-34C1342,-34 1347.25,-34 1355.88,-34"/>
<polygon fill="red" stroke="red" points="1356,-37.5 1366,-34 1356,-30.5 1356,-37.5"/>
</g>
<!-- Node0x600001e65140 -->
<g id="node13" class="node">
<title>Node0x600001e65140</title>
<polygon fill="none" stroke="black" points="1490,-9 1490,-77 1578,-77 1578,-9 1490,-9"/>
<text text-anchor="middle" x="1534" y="-66.6" font-family="Times,serif" font-size="8.00">word: fool</text>
<polyline fill="none" stroke="black" points="1490,-60 1578,-60 "/>
<text text-anchor="middle" x="1534" y="-49.6" font-family="Times,serif" font-size="8.00">size: 7</text>
<polyline fill="none" stroke="black" points="1490,-43 1578,-43 "/>
<text text-anchor="middle" x="1534" y="-32.6" font-family="Times,serif" font-size="8.00">next: 0x600001e677b0</text>
<polyline fill="none" stroke="black" points="1490,-26 1578,-26 "/>
<text text-anchor="middle" x="1534" y="-15.6" font-family="Times,serif" font-size="8.00">prev: 0x600001e64ed0</text>
</g>
<!-- Node0x600001e64ed0&#45;&gt;Node0x600001e65140 -->
<g id="edge12" class="edge">
<title>Node0x600001e64ed0:n&#45;&gt;Node0x600001e65140:n</title>
<path fill="none" stroke="red" d="M1454,-34C1466,-34 1471.25,-34 1479.88,-34"/>
<polygon fill="red" stroke="red" points="1480,-37.5 1490,-34 1480,-30.5 1480,-37.5"/>
</g>
<!-- Node0x600001e677b0 -->
<g id="node14" class="node">
<title>Node0x600001e677b0</title>
<polygon fill="none" stroke="black" points="1614,-9 1614,-77 1702,-77 1702,-9 1614,-9"/>
<text text-anchor="middle" x="1658" y="-66.6" font-family="Times,serif" font-size="8.00">word: candle</text>
<polyline fill="none" stroke="black" points="1614,-60 1702,-60 "/>
<text text-anchor="middle" x="1658" y="-49.6" font-family="Times,serif" font-size="8.00">size: 1</text>
<polyline fill="none" stroke="black" points="1614,-43 1702,-43 "/>
<text text-anchor="middle" x="1658" y="-32.6" font-family="Times,serif" font-size="8.00">next: 0x600001e76670</text>
<polyline fill="none" stroke="black" points="1614,-26 1702,-26 "/>
<text text-anchor="middle" x="1658" y="-15.6" font-family="Times,serif" font-size="8.00">prev: 0x600001e65140</text>
</g>
<!-- Node0x600001e65140&#45;&gt;Node0x600001e677b0 -->
<g id="edge13" class="edge">
<title>Node0x600001e65140:n&#45;&gt;Node0x600001e677b0:n</title>
<path fill="none" stroke="red" d="M1578,-34C1590,-34 1595.25,-34 1603.88,-34"/>
<polygon fill="red" stroke="red" points="1604,-37.5 1614,-34 1604,-30.5 1604,-37.5"/>
</g>
<!-- Node0x600001e76670 -->
<g id="node15" class="node">
<title>Node0x600001e76670</title>
<polygon fill="none" stroke="black" points="1738,-9 1738,-77 1826,-77 1826,-9 1738,-9"/>
<text text-anchor="middle" x="1782" y="-66.6" font-family="Times,serif" font-size="8.00">word: thirty</text>
<polyline fill="none" stroke="black" points="1738,-60 1826,-60 "/>
<text text-anchor="middle" x="1782" y="-49.6" font-family="Times,serif" font-size="8.00">size: 2</text>
<polyline fill="none" stroke="black" points="1738,-43 1826,-43 "/>
<text text-anchor="middle" x="1782" y="-32.6" font-family="Times,serif" font-size="8.00">next: 0x600001e76d90</text>
<polyline fill="none" stroke="black" points="1738,-26 1826,-26 "/>
<text text-anchor="middle" x="1782" y="-15.6" font-family="Times,serif" font-size="8.00">prev: 0x600001e677b0</text>
</g>
<!-- Node0x600001e677b0&#45;&gt;Node0x600001e76670 -->
<g id="edge14" class="edge">
<title>Node0x600001e677b0:n&#45;&gt;Node0x600001e76670:n</title>
<path fill="none" stroke="red" d="M1702,-34C1714,-34 1719.25,-34 1727.88,-34"/>
<polygon fill="red" stroke="red" points="1728,-37.5 1738,-34 1728,-30.5 1728,-37.5"/>
</g>
<!-- Node0x600001e76d90 -->
<g id="node16" class="node">
<title>Node0x600001e76d90</title>
<polygon fill="none" stroke="black" points="1862,-9 1862,-77 1950,-77 1950,-9 1862,-9"/>
<text text-anchor="middle" x="1906" y="-66.6" font-family="Times,serif" font-size="8.00">word: solemnity</text>
<polyline fill="none" stroke="black" points="1862,-60 1950,-60 "/>
<text text-anchor="middle" x="1906" y="-49.6" font-family="Times,serif" font-size="8.00">size: 3</text>
<polyline fill="none" stroke="black" points="1862,-43 1950,-43 "/>
<text text-anchor="middle" x="1906" y="-32.6" font-family="Times,serif" font-size="8.00">next: 0x600001e77a20</text>
<polyline fill="none" stroke="black" points="1862,-26 1950,-26 "/>
<text text-anchor="middle" x="1906" y="-15.6" font-family="Times,serif" font-size="8.00">prev: 0x600001e76670</text>
</g>
<!-- Node0x600001e76670&#45;&gt;Node0x600001e76d90 -->
<g id="edge15" class="edge">
<title>Node0x600001e76670:n&#45;&gt;Node0x600001e76d90:n</title>
<path fill="none" stroke="red" d="M1826,-34C1838,-34 1843.25,-34 1851.88,-34"/>
<polygon fill="red" stroke="red" points="1852,-37.5 1862,-34 1852,-30.5 1852,-37.5"/>
</g>
<!-- Node0x600001e77a20 -->
<g id="node17" class="node">
<title>Node0x600001e77a20</title>
<polygon fill="none" stroke="black" points="1986,-9 1986,-77 2074,-77 2074,-9 1986,-9"/>
<text text-anchor="middle" x="2030" y="-66.6" font-family="Times,serif" font-size="8.00">word: Saints</text>
<polyline fill="none" stroke="black" points="1986,-60 2074,-60 "/>
<text text-anchor="middle" x="2030" y="-49.6" font-family="Times,serif" font-size="8.00">size: 1</text>
<polyline fill="none" stroke="black" points="1986,-43 2074,-43 "/>
<text text-anchor="middle" x="2030" y="-32.6" font-family="Times,serif" font-size="8.00">next: 0x600001e7cd80</text>
<polyline fill="none" stroke="black" points="1986,-26 2074,-26 "/>
<text text-anchor="middle" x="2030" y="-15.6" font-family="Times,serif" font-size="8.00">prev: 0x600001e76d90</text>
</g>
<!-- Node0x600001e76d90&#45;&gt;Node0x600001e77a20 -->
<g id="edge16" class="edge">
<title>Node0x600001e76d90:n&#45;&gt;Node0x600001e77a20:n</title>
<path fill="none" stroke="red" d="M1950,-34C1962,-34 1967.25,-34 1975.88,-34"/>
<polygon fill="red" stroke="red" points="1976,-37.5 1986,-34 1976,-30.5 1976,-37.5"/>
</g>
<!-- Node0x600001e7cd80 -->
<g id="node18" class="node">
<title>Node0x600001e7cd80</title>
<polygon fill="none" stroke="black" points="2110,-9 2110,-77 2198,-77 2198,-9 2110,-9"/>
<text text-anchor="middle" x="2154" y="-66.6" font-family="Times,serif" font-size="8.00">word: bold</text>
<polyline fill="none" stroke="black" points="2110,-60 2198,-60 "/>
<text text-anchor="middle" x="2154" y="-49.6" font-family="Times,serif" font-size="8.00">size: 4</text>
<polyline fill="none" stroke="black" points="2110,-43 2198,-43 "/>
<text text-anchor="middle" x="2154" y="-32.6" font-family="Times,serif" font-size="8.00">next: 0x600001e7cdb0</text>
<polyline fill="none" stroke="black" points="2110,-26 2198,-26 "/>
<text text-anchor="middle" x="2154" y="-15.6" font-family="Times,serif" font-size="8.00">prev: 0x600001e77a20</text>
</g>
<!-- Node0x600001e77a20&#45;&gt;Node0x600001e7cd80 -->
<g id="edge17" class="edge">
<title>Node0x600001e77a20:n&#45;&gt;Node0x600001e7cd80:n</title>
<path fill="none" stroke="red" d="M2074,-34C2086,-34 2091.25,-34 2099.88,-34"/>
<polygon fill="red" stroke="red" points="2100,-37.5 2110,-34 2100,-30.5 2100,-37.5"/>
</g>
<!-- Node0x600001e7cdb0 -->
<g id="node19" class="node">
<title>Node0x600001e7cdb0</title>
<polygon fill="none" stroke="black" points="2234,-9 2234,-77 2322,-77 2322,-9 2234,-9"/>
<text text-anchor="middle" x="2278" y="-66.6" font-family="Times,serif" font-size="8.00">word: fairest</text>
<polyline fill="none" stroke="black" points="2234,-60 2322,-60 "/>
<text text-anchor="middle" x="2278" y="-49.6" font-family="Times,serif" font-size="8.00">size: 1</text>
<polyline fill="none" stroke="black" points="2234,-43 2322,-43 "/>
<text text-anchor="middle" x="2278" y="-32.6" font-family="Times,serif" font-size="8.00">next: 0x600001e41f50</text>
<polyline fill="none" stroke="black" points="2234,-26 2322,-26 "/>
<text text-anchor="middle" x="2278" y="-15.6" font-family="Times,serif" font-size="8.00">prev: 0x600001e7cd80</text>
</g>
<!-- Node0x600001e7cd80&#45;&gt;Node0x600001e7cdb0 -->
<g id="edge18" class="edge">
<title>Node0x600001e7cd80:n&#45;&gt;Node0x600001e7cdb0:n</title>
<path fill="none" stroke="red" d="M2198,-34C2210,-34 2215.25,-34 2223.88,-34"/>
<polygon fill="red" stroke="red" points="2224,-37.5 2234,-34 2224,-30.5 2224,-37.5"/>
</g>
<!-- Node0x600001e41f50 -->
<g id="node20" class="node">
<title>Node0x600001e41f50</title>
<polygon fill="none" stroke="black" points="2358,-9 2358,-77 2446,-77 2446,-9 2358,-9"/>
<text text-anchor="middle" x="2402" y="-66.6" font-family="Times,serif" font-size="8.00">word: Petrarch</text>
<polyline fill="none" stroke="black" points="2358,-60 2446,-60 "/>
<text text-anchor="middle" x="2402" y="-49.6" font-family="Times,serif" font-size="8.00">size: 1</text>
<polyline fill="none" stroke="black" points="2358,-43 2446,-43 "/>
<text text-anchor="middle" x="2402" y="-32.6" font-family="Times,serif" font-size="8.00">next: 0x600001e45740</text>
<polyline fill="none" stroke="black" points="2358,-26 2446,-26 "/>
<text text-anchor="middle" x="2402" y="-15.6" font-family="Times,serif" font-size="8.00">prev: 0x600001e7cdb0</text>
</g>
<!-- Node0x600001e7cdb0&#45;&gt;Node0x600001e41f50 -->
<g id="edge19" class="edge">
<title>Node0x600001e7cdb0:n&#45;&gt;Node0x600001e41f50:n</title>
<path fill="none" stroke="red" d="M2322,-34C2334,-34 2339.25,-34 2347.88,-34"/>
<polygon fill="red" stroke="red" points="2348,-37.5 2358,-34 2348,-30.5 2348,-37.5"/>
</g>
<!-- Node0x600001e45740 -->
<g id="node21" class="node">
<title>Node0x600001e45740</title>
<polygon fill="none" stroke="black" points="2482,-9 2482,-77 2569,-77 2569,-9 2482,-9"/>
<text text-anchor="middle" x="2525.5" y="-66.6" font-family="Times,serif" font-size="8.00">word: confessor</text>
<polyline fill="none" stroke="black" points="2482,-60 2569,-60 "/>
<text text-anchor="middle" x="2525.5" y="-49.6" font-family="Times,serif" font-size="8.00">size: 2</text>
<polyline fill="none" stroke="black" points="2482,-43 2569,-43 "/>
<text text-anchor="middle" x="2525.5" y="-32.6" font-family="Times,serif" font-size="8.00">next: 0x600001e47fc0</text>
<polyline fill="none" stroke="black" points="2482,-26 2569,-26 "/>
<text text-anchor="middle" x="2525.5" y="-15.6" font-family="Times,serif" font-size="8.00">prev: 0x600001e41f50</text>
</g>
<!-- Node0x600001e41f50&#45;&gt;Node0x600001e45740 -->
<g id="edge20" class="edge">
<title>Node0x600001e41f50:n&#45;&gt;Node0x600001e45740:n</title>
<path fill="none" stroke="red" d="M2446,-34C2458,-34 2463.25,-34 2471.88,-34"/>
<polygon fill="red" stroke="red" points="2472,-37.5 2482,-34 2472,-30.5 2472,-37.5"/>
</g>
<!-- Node0x600001e47fc0 -->
<g id="node22" class="node">
<title>Node0x600001e47fc0</title>
<polygon fill="none" stroke="black" points="2605,-9 2605,-77 2693,-77 2693,-9 2605,-9"/>
<text text-anchor="middle" x="2649" y="-66.6" font-family="Times,serif" font-size="8.00">word: excuses</text>
<polyline fill="none" stroke="black" points="2605,-60 2693,-60 "/>
<text text-anchor="middle" x="2649" y="-49.6" font-family="Times,serif" font-size="8.00">size: 1</text>
<polyline fill="none" stroke="black" points="2605,-43 2693,-43 "/>
<text text-anchor="middle" x="2649" y="-32.6" font-family="Times,serif" font-size="8.00">next: 0x600001e787b0</text>
<polyline fill="none" stroke="black" points="2605,-26 2693,-26 "/>
<text text-anchor="middle" x="2649" y="-15.6" font-family="Times,serif" font-size="8.00">prev: 0x600001e45740</text>
</g>
<!-- Node0x600001e45740&#45;&gt;Node0x600001e47fc0 -->
<g id="edge21" class="edge">
<title>Node0x600001e45740:n&#45;&gt;Node0x600001e47fc0:n</title>
<path fill="none" stroke="red" d="M2569,-34C2581,-34 2586.25,-34 2594.88,-34"/>
<polygon fill="red" stroke="red" points="2595,-37.5 2605,-34 2595,-30.5 2595,-37.5"/>
</g>
<!-- Node0x600001e787b0 -->
<g id="node23" class="node">
<title>Node0x600001e787b0</title>
<polygon fill="none" stroke="black" points="2729,-9 2729,-77 2816,-77 2816,-9 2729,-9"/>
<text text-anchor="middle" x="2772.5" y="-66.6" font-family="Times,serif" font-size="8.00">word: comforted</text>
<polyline fill="none" stroke="black" points="2729,-60 2816,-60 "/>
<text text-anchor="middle" x="2772.5" y="-49.6" font-family="Times,serif" font-size="8.00">size: 1</text>
<polyline fill="none" stroke="black" points="2729,-43 2816,-43 "/>
<text text-anchor="middle" x="2772.5" y="-32.6" font-family="Times,serif" font-size="8.00">next: 0x600001e7ac70</text>
<polyline fill="none" stroke="black" points="2729,-26 2816,-26 "/>
<text text-anchor="middle" x="2772.5" y="-15.6" font-family="Times,serif" font-size="8.00">prev: 0x600001e47fc0</text>
</g>
<!-- Node0x600001e47fc0&#45;&gt;Node0x600001e787b0 -->
<g id="edge22" class="edge">
<title>Node0x600001e47fc0:n&#45;&gt;Node0x600001e787b0:n</title>
<path fill="none" stroke="red" d="M2693,-34C2705,-34 2710.25,-34 2718.88,-34"/>
<polygon fill="red" stroke="red" points="2719,-37.5 2729,-34 2719,-30.5 2719,-37.5"/>
</g>
<!-- Node0x600001e7ac70 -->
<g id="node24" class="node">
<title>Node0x600001e7ac70</title>
<polygon fill="none" stroke="black" points="2852,-9 2852,-77 2940,-77 2940,-9 2852,-9"/>
<text text-anchor="middle" x="2896" y="-66.6" font-family="Times,serif" font-size="8.00">word: shrieks</text>
<polyline fill="none" stroke="black" points="2852,-60 2940,-60 "/>
<text text-anchor="middle" x="2896" y="-49.6" font-family="Times,serif" font-size="8.00">size: 1</text>
<polyline fill="none" stroke="black" points="2852,-43 2940,-43 "/>
<text text-anchor="middle" x="2896" y="-32.6" font-family="Times,serif" font-size="8.00">next: 0x600001e7b1b0</text>
<polyline fill="none" stroke="black" points="2852,-26 2940,-26 "/>
<text text-anchor="middle" x="2896" y="-15.6" font-family="Times,serif" font-size="8.00">prev: 0x600001e787b0</text>
</g>
<!-- Node0x600001e787b0&#45;&gt;Node0x600001e7ac70 -->
<g id="edge23" class="edge">
<title>Node0x600001e787b0:n&#45;&gt;Node0x600001e7ac70:n</title>
<path fill="none" stroke="red" d="M2816,-34C2828,-34 2833.25,-34 2841.88,-34"/>
<polygon fill="red" stroke="red" points="2842,-37.5 2852,-34 2842,-30.5 2842,-37.5"/>
</g>
<!-- Node0x600001e7b1b0 -->
<g id="node25" class="node">
<title>Node0x600001e7b1b0</title>
<polygon fill="none" stroke="black" points="2976,-9 2976,-77 3064,-77 3064,-9 2976,-9"/>
<text text-anchor="middle" x="3020" y="-66.6" font-family="Times,serif" font-size="8.00">word: cost</text>
<polyline fill="none" stroke="black" points="2976,-60 3064,-60 "/>
<text text-anchor="middle" x="3020" y="-49.6" font-family="Times,serif" font-size="8.00">size: 1</text>
<polyline fill="none" stroke="black" points="2976,-43 3064,-43 "/>
<text text-anchor="middle" x="3020" y="-32.6" font-family="Times,serif" font-size="8.00">next: 0x600001e72d90</text>
<polyline fill="none" stroke="black" points="2976,-26 3064,-26 "/>
<text text-anchor="middle" x="3020" y="-15.6" font-family="Times,serif" font-size="8.00">prev: 0x600001e7ac70</text>
</g>
<!-- Node0x600001e7ac70&#45;&gt;Node0x600001e7b1b0 -->
<g id="edge24" class="edge">
<title>Node0x600001e7ac70:n&#45;&gt;Node0x600001e7b1b0:n</title>
<path fill="none" stroke="red" d="M2940,-34C2952,-34 2957.25,-34 2965.88,-34"/>
<polygon fill="red" stroke="red" points="2966,-37.5 2976,-34 2966,-30.5 2966,-37.5"/>
</g>
<!-- Node0x600001e72d90 -->
<g id="node26" class="node">
<title>Node0x600001e72d90</title>
<polygon fill="none" stroke="black" points="3100,-9 3100,-77 3188,-77 3188,-9 3100,-9"/>
<text text-anchor="middle" x="3144" y="-66.6" font-family="Times,serif" font-size="8.00">word: bells</text>
<polyline fill="none" stroke="black" points="3100,-60 3188,-60 "/>
<text text-anchor="middle" x="3144" y="-49.6" font-family="Times,serif" font-size="8.00">size: 1</text>
<polyline fill="none" stroke="black" points="3100,-43 3188,-43 "/>
<text text-anchor="middle" x="3144" y="-32.6" font-family="Times,serif" font-size="8.00">next: 0x600001e73b70</text>
<polyline fill="none" stroke="black" points="3100,-26 3188,-26 "/>
<text text-anchor="middle" x="3144" y="-15.6" font-family="Times,serif" font-size="8.00">prev: 0x600001e7b1b0</text>
</g>
<!-- Node0x600001e7b1b0&#45;&gt;Node0x600001e72d90 -->
<g id="edge25" class="edge">
<title>Node0x600001e7b1b0:n&#45;&gt;Node0x600001e72d90:n</title>
<path fill="none" stroke="red" d="M3064,-34C3076,-34 3081.25,-34 3089.88,-34"/>
<polygon fill="red" stroke="red" points="3090,-37.5 3100,-34 3090,-30.5 3090,-37.5"/>
</g>
<!-- Node0x600001e73b70 -->
<g id="node27" class="node">
<title>Node0x600001e73b70</title>
<polygon fill="none" stroke="black" points="3224,-9 3224,-77 3312,-77 3312,-9 3224,-9"/>
<text text-anchor="middle" x="3268" y="-66.6" font-family="Times,serif" font-size="8.00">word: Culling</text>
<polyline fill="none" stroke="black" points="3224,-60 3312,-60 "/>
<text text-anchor="middle" x="3268" y="-49.6" font-family="Times,serif" font-size="8.00">size: 1</text>
<polyline fill="none" stroke="black" points="3224,-43 3312,-43 "/>
<text text-anchor="middle" x="3268" y="-32.6" font-family="Times,serif" font-size="8.00">next: 0x600001e549c0</text>
<polyline fill="none" stroke="black" points="3224,-26 3312,-26 "/>
<text text-anchor="middle" x="3268" y="-15.6" font-family="Times,serif" font-size="8.00">prev: 0x600001e72d90</text>
</g>
<!-- Node0x600001e72d90&#45;&gt;Node0x600001e73b70 -->
<g id="edge26" class="edge">
<title>Node0x600001e72d90:n&#45;&gt;Node0x600001e73b70:n</title>
<path fill="none" stroke="red" d="M3188,-34C3200,-34 3205.25,-34 3213.88,-34"/>
<polygon fill="red" stroke="red" points="3214,-37.5 3224,-34 3214,-30.5 3214,-37.5"/>
</g>
<!-- Node0x600001e549c0 -->
<g id="node28" class="node">
<title>Node0x600001e549c0</title>
<polygon fill="none" stroke="black" points="3348,-9 3348,-77 3436,-77 3436,-9 3348,-9"/>
<text text-anchor="middle" x="3392" y="-66.6" font-family="Times,serif" font-size="8.00">word: ensign</text>
<polyline fill="none" stroke="black" points="3348,-60 3436,-60 "/>
<text text-anchor="middle" x="3392" y="-49.6" font-family="Times,serif" font-size="8.00">size: 1</text>
<polyline fill="none" stroke="black" points="3348,-43 3436,-43 "/>
<text text-anchor="middle" x="3392" y="-32.6" font-family="Times,serif" font-size="8.00">next: 0x600001e55140</text>
<polyline fill="none" stroke="black" points="3348,-26 3436,-26 "/>
<text text-anchor="middle" x="3392" y="-15.6" font-family="Times,serif" font-size="8.00">prev: 0x600001e73b70</text>
</g>
<!-- Node0x600001e73b70&#45;&gt;Node0x600001e549c0 -->
<g id="edge27" class="edge">
<title>Node0x600001e73b70:n&#45;&gt;Node0x600001e549c0:n</title>
<path fill="none" stroke="red" d="M3312,-34C3324,-34 3329.25,-34 3337.88,-34"/>
<polygon fill="red" stroke="red" points="3338,-37.5 3348,-34 3338,-30.5 3338,-37.5"/>
</g>
<!-- Node0x600001e55140 -->
<g id="node29" class="node">
<title>Node0x600001e55140</title>
<polygon fill="none" stroke="black" points="3472,-9 3472,-77 3560,-77 3560,-9 3472,-9"/>
<text text-anchor="middle" x="3516" y="-66.6" font-family="Times,serif" font-size="8.00">word: discern</text>
<polyline fill="none" stroke="black" points="3472,-60 3560,-60 "/>
<text text-anchor="middle" x="3516" y="-49.6" font-family="Times,serif" font-size="8.00">size: 1</text>
<polyline fill="none" stroke="black" points="3472,-43 3560,-43 "/>
<text text-anchor="middle" x="3516" y="-32.6" font-family="Times,serif" font-size="8.00">next: 0x600001e55e60</text>
<polyline fill="none" stroke="black" points="3472,-26 3560,-26 "/>
<text text-anchor="middle" x="3516" y="-15.6" font-family="Times,serif" font-size="8.00">prev: 0x600001e549c0</text>
</g>
<!-- Node0x600001e549c0&#45;&gt;Node0x600001e55140 -->
<g id="edge28" class="edge">
<title>Node0x600001e549c0:n&#45;&gt;Node0x600001e55140:n</title>
<path fill="none" stroke="red" d="M3436,-34C3448,-34 3453.25,-34 3461.88,-34"/>
<polygon fill="red" stroke="red" points="3462,-37.5 3472,-34 3462,-30.5 3462,-37.5"/>
</g>
<!-- Node0x600001e55e60 -->
<g id="node30" class="node">
<title>Node0x600001e55e60</title>
<polygon fill="none" stroke="black" points="3596,-9 3596,-77 3684,-77 3684,-9 3596,-9"/>
<text text-anchor="middle" x="3640" y="-66.6" font-family="Times,serif" font-size="8.00">word: Meantime</text>
<polyline fill="none" stroke="black" points="3596,-60 3684,-60 "/>
<text text-anchor="middle" x="3640" y="-49.6" font-family="Times,serif" font-size="8.00">size: 2</text>
<polyline fill="none" stroke="black" points="3596,-43 3684,-43 "/>
<text text-anchor="middle" x="3640" y="-32.6" font-family="Times,serif" font-size="8.00">next: 0x0</text>
<polyline fill="none" stroke="black" points="3596,-26 3684,-26 "/>
<text text-anchor="middle" x="3640" y="-15.6" font-family="Times,serif" font-size="8.00">prev: 0x600001e55140</text>
</g>
<!-- Node0x600001e55140&#45;&gt;Node0x600001e55e60 -->
<g id="edge29" class="edge">
<title>Node0x600001e55140:n&#45;&gt;Node0x600001e55e60:n</title>
<path fill="none" stroke="red" d="M3560,-34C3572,-34 3577.25,-34 3585.88,-34"/>
<polygon fill="red" stroke="red" points="3586,-37.5 3596,-34 3586,-30.5 3586,-37.5"/>
</g>
</g>
</svg>
