<?xml version="1.0" encoding="UTF-8" standalone="no"?>
<!DOCTYPE svg PUBLIC "-//W3C//DTD SVG 1.1//EN"
 "http://www.w3.org/Graphics/SVG/1.1/DTD/svg11.dtd">
<!-- Generated by graphviz version 2.50.0 (20211204.2007)
 -->
<!-- Title: G Pages: 1 -->
<svg width="3827pt" height="117pt"
 viewBox="0.00 0.00 3827.00 117.00" xmlns="http://www.w3.org/2000/svg" xmlns:xlink="http://www.w3.org/1999/xlink">
<g id="graph0" class="graph" transform="scale(1 1) rotate(0) translate(4 113)">
<title>G</title>
<polygon fill="white" stroke="transparent" points="-4,4 -4,-113 3823,-113 3823,4 -4,4"/>
<g id="clust29" class="cluster">
<title>cluster821</title>
<polygon fill="none" stroke="black" points="3475,-8 3475,-101 3563,-101 3563,-8 3475,-8"/>
<text text-anchor="middle" x="3519" y="-85.8" font-family="Times,serif" font-size="14.00">821</text>
</g>
<g id="clust30" class="cluster">
<title>cluster822</title>
<polygon fill="none" stroke="black" points="3599,-8 3599,-101 3687,-101 3687,-8 3599,-8"/>
<text text-anchor="middle" x="3643" y="-85.8" font-family="Times,serif" font-size="14.00">822</text>
</g>
<g id="clust31" class="cluster">
<title>cluster823</title>
<polygon fill="none" stroke="black" points="3723,-8 3723,-101 3811,-101 3811,-8 3723,-8"/>
<text text-anchor="middle" x="3767" y="-85.8" font-family="Times,serif" font-size="14.00">823</text>
</g>
<g id="clust1" class="cluster">
<title>cluster793</title>
<polygon fill="none" stroke="black" points="8,-8 8,-101 95,-101 95,-8 8,-8"/>
<text text-anchor="middle" x="51.5" y="-85.8" font-family="Times,serif" font-size="14.00">793</text>
</g>
<g id="clust2" class="cluster">
<title>cluster794</title>
<polygon fill="none" stroke="black" points="131,-8 131,-101 219,-101 219,-8 131,-8"/>
<text text-anchor="middle" x="175" y="-85.8" font-family="Times,serif" font-size="14.00">794</text>
</g>
<g id="clust3" class="cluster">
<title>cluster795</title>
<polygon fill="none" stroke="black" points="255,-8 255,-101 343,-101 343,-8 255,-8"/>
<text text-anchor="middle" x="299" y="-85.8" font-family="Times,serif" font-size="14.00">795</text>
</g>
<g id="clust4" class="cluster">
<title>cluster796</title>
<polygon fill="none" stroke="black" points="379,-8 379,-101 467,-101 467,-8 379,-8"/>
<text text-anchor="middle" x="423" y="-85.8" font-family="Times,serif" font-size="14.00">796</text>
</g>
<g id="clust5" class="cluster">
<title>cluster797</title>
<polygon fill="none" stroke="black" points="503,-8 503,-101 591,-101 591,-8 503,-8"/>
<text text-anchor="middle" x="547" y="-85.8" font-family="Times,serif" font-size="14.00">797</text>
</g>
<g id="clust6" class="cluster">
<title>cluster798</title>
<polygon fill="none" stroke="black" points="627,-8 627,-101 715,-101 715,-8 627,-8"/>
<text text-anchor="middle" x="671" y="-85.8" font-family="Times,serif" font-size="14.00">798</text>
</g>
<g id="clust7" class="cluster">
<title>cluster799</title>
<polygon fill="none" stroke="black" points="751,-8 751,-101 839,-101 839,-8 751,-8"/>
<text text-anchor="middle" x="795" y="-85.8" font-family="Times,serif" font-size="14.00">799</text>
</g>
<g id="clust8" class="cluster">
<title>cluster800</title>
<polygon fill="none" stroke="black" points="875,-8 875,-101 962,-101 962,-8 875,-8"/>
<text text-anchor="middle" x="918.5" y="-85.8" font-family="Times,serif" font-size="14.00">800</text>
</g>
<g id="clust9" class="cluster">
<title>cluster801</title>
<polygon fill="none" stroke="black" points="998,-8 998,-101 1086,-101 1086,-8 998,-8"/>
<text text-anchor="middle" x="1042" y="-85.8" font-family="Times,serif" font-size="14.00">801</text>
</g>
<g id="clust10" class="cluster">
<title>cluster802</title>
<polygon fill="none" stroke="black" points="1122,-8 1122,-101 1209,-101 1209,-8 1122,-8"/>
<text text-anchor="middle" x="1165.5" y="-85.8" font-family="Times,serif" font-size="14.00">802</text>
</g>
<g id="clust11" class="cluster">
<title>cluster803</title>
<polygon fill="none" stroke="black" points="1245,-8 1245,-101 1332,-101 1332,-8 1245,-8"/>
<text text-anchor="middle" x="1288.5" y="-85.8" font-family="Times,serif" font-size="14.00">803</text>
</g>
<g id="clust12" class="cluster">
<title>cluster804</title>
<polygon fill="none" stroke="black" points="1368,-8 1368,-101 1456,-101 1456,-8 1368,-8"/>
<text text-anchor="middle" x="1412" y="-85.8" font-family="Times,serif" font-size="14.00">804</text>
</g>
<g id="clust13" class="cluster">
<title>cluster805</title>
<polygon fill="none" stroke="black" points="1492,-8 1492,-101 1580,-101 1580,-8 1492,-8"/>
<text text-anchor="middle" x="1536" y="-85.8" font-family="Times,serif" font-size="14.00">805</text>
</g>
<g id="clust14" class="cluster">
<title>cluster806</title>
<polygon fill="none" stroke="black" points="1616,-8 1616,-101 1704,-101 1704,-8 1616,-8"/>
<text text-anchor="middle" x="1660" y="-85.8" font-family="Times,serif" font-size="14.00">806</text>
</g>
<g id="clust15" class="cluster">
<title>cluster807</title>
<polygon fill="none" stroke="black" points="1740,-8 1740,-101 1828,-101 1828,-8 1740,-8"/>
<text text-anchor="middle" x="1784" y="-85.8" font-family="Times,serif" font-size="14.00">807</text>
</g>
<g id="clust16" class="cluster">
<title>cluster808</title>
<polygon fill="none" stroke="black" points="1864,-8 1864,-101 1952,-101 1952,-8 1864,-8"/>
<text text-anchor="middle" x="1908" y="-85.8" font-family="Times,serif" font-size="14.00">808</text>
</g>
<g id="clust17" class="cluster">
<title>cluster809</title>
<polygon fill="none" stroke="black" points="1988,-8 1988,-101 2076,-101 2076,-8 1988,-8"/>
<text text-anchor="middle" x="2032" y="-85.8" font-family="Times,serif" font-size="14.00">809</text>
</g>
<g id="clust18" class="cluster">
<title>cluster810</title>
<polygon fill="none" stroke="black" points="2112,-8 2112,-101 2200,-101 2200,-8 2112,-8"/>
<text text-anchor="middle" x="2156" y="-85.8" font-family="Times,serif" font-size="14.00">810</text>
</g>
<g id="clust19" class="cluster">
<title>cluster811</title>
<polygon fill="none" stroke="black" points="2236,-8 2236,-101 2324,-101 2324,-8 2236,-8"/>
<text text-anchor="middle" x="2280" y="-85.8" font-family="Times,serif" font-size="14.00">811</text>
</g>
<g id="clust20" class="cluster">
<title>cluster812</title>
<polygon fill="none" stroke="black" points="2360,-8 2360,-101 2447,-101 2447,-8 2360,-8"/>
<text text-anchor="middle" x="2403.5" y="-85.8" font-family="Times,serif" font-size="14.00">812</text>
</g>
<g id="clust21" class="cluster">
<title>cluster813</title>
<polygon fill="none" stroke="black" points="2483,-8 2483,-101 2571,-101 2571,-8 2483,-8"/>
<text text-anchor="middle" x="2527" y="-85.8" font-family="Times,serif" font-size="14.00">813</text>
</g>
<g id="clust22" class="cluster">
<title>cluster814</title>
<polygon fill="none" stroke="black" points="2607,-8 2607,-101 2695,-101 2695,-8 2607,-8"/>
<text text-anchor="middle" x="2651" y="-85.8" font-family="Times,serif" font-size="14.00">814</text>
</g>
<g id="clust23" class="cluster">
<title>cluster815</title>
<polygon fill="none" stroke="black" points="2731,-8 2731,-101 2819,-101 2819,-8 2731,-8"/>
<text text-anchor="middle" x="2775" y="-85.8" font-family="Times,serif" font-size="14.00">815</text>
</g>
<g id="clust24" class="cluster">
<title>cluster816</title>
<polygon fill="none" stroke="black" points="2855,-8 2855,-101 2943,-101 2943,-8 2855,-8"/>
<text text-anchor="middle" x="2899" y="-85.8" font-family="Times,serif" font-size="14.00">816</text>
</g>
<g id="clust25" class="cluster">
<title>cluster817</title>
<polygon fill="none" stroke="black" points="2979,-8 2979,-101 3067,-101 3067,-8 2979,-8"/>
<text text-anchor="middle" x="3023" y="-85.8" font-family="Times,serif" font-size="14.00">817</text>
</g>
<g id="clust26" class="cluster">
<title>cluster818</title>
<polygon fill="none" stroke="black" points="3103,-8 3103,-101 3191,-101 3191,-8 3103,-8"/>
<text text-anchor="middle" x="3147" y="-85.8" font-family="Times,serif" font-size="14.00">818</text>
</g>
<g id="clust27" class="cluster">
<title>cluster819</title>
<polygon fill="none" stroke="black" points="3227,-8 3227,-101 3315,-101 3315,-8 3227,-8"/>
<text text-anchor="middle" x="3271" y="-85.8" font-family="Times,serif" font-size="14.00">819</text>
</g>
<g id="clust28" class="cluster">
<title>cluster820</title>
<polygon fill="none" stroke="black" points="3351,-8 3351,-101 3439,-101 3439,-8 3351,-8"/>
<text text-anchor="middle" x="3395" y="-85.8" font-family="Times,serif" font-size="14.00">820</text>
</g>
<!-- Node0x600001e61500 -->
<g id="node1" class="node">
<title>Node0x600001e61500</title>
<polygon fill="none" stroke="black" points="8,-9 8,-77 95,-77 95,-9 8,-9"/>
<text text-anchor="middle" x="51.5" y="-66.6" font-family="Times,serif" font-size="8.00">word: where</text>
<polyline fill="none" stroke="black" points="8,-60 95,-60 "/>
<text text-anchor="middle" x="51.5" y="-49.6" font-family="Times,serif" font-size="8.00">size: 26</text>
<polyline fill="none" stroke="black" points="8,-43 95,-43 "/>
<text text-anchor="middle" x="51.5" y="-32.6" font-family="Times,serif" font-size="8.00">next: 0x600001e68120</text>
<polyline fill="none" stroke="black" points="8,-26 95,-26 "/>
<text text-anchor="middle" x="51.5" y="-15.6" font-family="Times,serif" font-size="8.00">prev: 0x0</text>
</g>
<!-- Node0x600001e68120 -->
<g id="node2" class="node">
<title>Node0x600001e68120</title>
<polygon fill="none" stroke="black" points="131,-9 131,-77 219,-77 219,-9 131,-9"/>
<text text-anchor="middle" x="175" y="-66.6" font-family="Times,serif" font-size="8.00">word: better</text>
<polyline fill="none" stroke="black" points="131,-60 219,-60 "/>
<text text-anchor="middle" x="175" y="-49.6" font-family="Times,serif" font-size="8.00">size: 12</text>
<polyline fill="none" stroke="black" points="131,-43 219,-43 "/>
<text text-anchor="middle" x="175" y="-32.6" font-family="Times,serif" font-size="8.00">next: 0x600001e68a20</text>
<polyline fill="none" stroke="black" points="131,-26 219,-26 "/>
<text text-anchor="middle" x="175" y="-15.6" font-family="Times,serif" font-size="8.00">prev: 0x600001e61500</text>
</g>
<!-- Node0x600001e61500&#45;&gt;Node0x600001e68120 -->
<g id="edge1" class="edge">
<title>Node0x600001e61500:n&#45;&gt;Node0x600001e68120:n</title>
<path fill="none" stroke="red" d="M95,-34C107,-34 112.25,-34 120.88,-34"/>
<polygon fill="red" stroke="red" points="121,-37.5 131,-34 121,-30.5 121,-37.5"/>
</g>
<!-- Node0x600001e68a20 -->
<g id="node3" class="node">
<title>Node0x600001e68a20</title>
<polygon fill="none" stroke="black" points="255,-9 255,-77 343,-77 343,-9 255,-9"/>
<text text-anchor="middle" x="299" y="-66.6" font-family="Times,serif" font-size="8.00">word: enter</text>
<polyline fill="none" stroke="black" points="255,-60 343,-60 "/>
<text text-anchor="middle" x="299" y="-49.6" font-family="Times,serif" font-size="8.00">size: 3</text>
<polyline fill="none" stroke="black" points="255,-43 343,-43 "/>
<text text-anchor="middle" x="299" y="-32.6" font-family="Times,serif" font-size="8.00">next: 0x600001e69c80</text>
<polyline fill="none" stroke="black" points="255,-26 343,-26 "/>
<text text-anchor="middle" x="299" y="-15.6" font-family="Times,serif" font-size="8.00">prev: 0x600001e68120</text>
</g>
<!-- Node0x600001e68120&#45;&gt;Node0x600001e68a20 -->
<g id="edge2" class="edge">
<title>Node0x600001e68120:n&#45;&gt;Node0x600001e68a20:n</title>
<path fill="none" stroke="red" d="M219,-34C231,-34 236.25,-34 244.88,-34"/>
<polygon fill="red" stroke="red" points="245,-37.5 255,-34 245,-30.5 245,-37.5"/>
</g>
<!-- Node0x600001e69c80 -->
<g id="node4" class="node">
<title>Node0x600001e69c80</title>
<polygon fill="none" stroke="black" points="379,-9 379,-77 467,-77 467,-9 379,-9"/>
<text text-anchor="middle" x="423" y="-66.6" font-family="Times,serif" font-size="8.00">word: case</text>
<polyline fill="none" stroke="black" points="379,-60 467,-60 "/>
<text text-anchor="middle" x="423" y="-49.6" font-family="Times,serif" font-size="8.00">size: 9</text>
<polyline fill="none" stroke="black" points="379,-43 467,-43 "/>
<text text-anchor="middle" x="423" y="-32.6" font-family="Times,serif" font-size="8.00">next: 0x600001e6a010</text>
<polyline fill="none" stroke="black" points="379,-26 467,-26 "/>
<text text-anchor="middle" x="423" y="-15.6" font-family="Times,serif" font-size="8.00">prev: 0x600001e68a20</text>
</g>
<!-- Node0x600001e68a20&#45;&gt;Node0x600001e69c80 -->
<g id="edge3" class="edge">
<title>Node0x600001e68a20:n&#45;&gt;Node0x600001e69c80:n</title>
<path fill="none" stroke="red" d="M343,-34C355,-34 360.25,-34 368.88,-34"/>
<polygon fill="red" stroke="red" points="369,-37.5 379,-34 369,-30.5 369,-37.5"/>
</g>
<!-- Node0x600001e6a010 -->
<g id="node5" class="node">
<title>Node0x600001e6a010</title>
<polygon fill="none" stroke="black" points="503,-9 503,-77 591,-77 591,-9 503,-9"/>
<text text-anchor="middle" x="547" y="-66.6" font-family="Times,serif" font-size="8.00">word: ere</text>
<polyline fill="none" stroke="black" points="503,-60 591,-60 "/>
<text text-anchor="middle" x="547" y="-49.6" font-family="Times,serif" font-size="8.00">size: 15</text>
<polyline fill="none" stroke="black" points="503,-43 591,-43 "/>
<text text-anchor="middle" x="547" y="-32.6" font-family="Times,serif" font-size="8.00">next: 0x600001e6a6a0</text>
<polyline fill="none" stroke="black" points="503,-26 591,-26 "/>
<text text-anchor="middle" x="547" y="-15.6" font-family="Times,serif" font-size="8.00">prev: 0x600001e69c80</text>
</g>
<!-- Node0x600001e69c80&#45;&gt;Node0x600001e6a010 -->
<g id="edge4" class="edge">
<title>Node0x600001e69c80:n&#45;&gt;Node0x600001e6a010:n</title>
<path fill="none" stroke="red" d="M467,-34C479,-34 484.25,-34 492.88,-34"/>
<polygon fill="red" stroke="red" points="493,-37.5 503,-34 493,-30.5 493,-37.5"/>
</g>
<!-- Node0x600001e6a6a0 -->
<g id="node6" class="node">
<title>Node0x600001e6a6a0</title>
<polygon fill="none" stroke="black" points="627,-9 627,-77 715,-77 715,-9 627,-9"/>
<text text-anchor="middle" x="671" y="-66.6" font-family="Times,serif" font-size="8.00">word: was</text>
<polyline fill="none" stroke="black" points="627,-60 715,-60 "/>
<text text-anchor="middle" x="671" y="-49.6" font-family="Times,serif" font-size="8.00">size: 43</text>
<polyline fill="none" stroke="black" points="627,-43 715,-43 "/>
<text text-anchor="middle" x="671" y="-32.6" font-family="Times,serif" font-size="8.00">next: 0x600001e6afd0</text>
<polyline fill="none" stroke="black" points="627,-26 715,-26 "/>
<text text-anchor="middle" x="671" y="-15.6" font-family="Times,serif" font-size="8.00">prev: 0x600001e6a010</text>
</g>
<!-- Node0x600001e6a010&#45;&gt;Node0x600001e6a6a0 -->
<g id="edge5" class="edge">
<title>Node0x600001e6a010:n&#45;&gt;Node0x600001e6a6a0:n</title>
<path fill="none" stroke="red" d="M591,-34C603,-34 608.25,-34 616.88,-34"/>
<polygon fill="red" stroke="red" points="617,-37.5 627,-34 617,-30.5 617,-37.5"/>
</g>
<!-- Node0x600001e6afd0 -->
<g id="node7" class="node">
<title>Node0x600001e6afd0</title>
<polygon fill="none" stroke="black" points="751,-9 751,-77 839,-77 839,-9 751,-9"/>
<text text-anchor="middle" x="795" y="-66.6" font-family="Times,serif" font-size="8.00">word: Many</text>
<polyline fill="none" stroke="black" points="751,-60 839,-60 "/>
<text text-anchor="middle" x="795" y="-49.6" font-family="Times,serif" font-size="8.00">size: 2</text>
<polyline fill="none" stroke="black" points="751,-43 839,-43 "/>
<text text-anchor="middle" x="795" y="-32.6" font-family="Times,serif" font-size="8.00">next: 0x600001e6db60</text>
<polyline fill="none" stroke="black" points="751,-26 839,-26 "/>
<text text-anchor="middle" x="795" y="-15.6" font-family="Times,serif" font-size="8.00">prev: 0x600001e6a6a0</text>
</g>
<!-- Node0x600001e6a6a0&#45;&gt;Node0x600001e6afd0 -->
<g id="edge6" class="edge">
<title>Node0x600001e6a6a0:n&#45;&gt;Node0x600001e6afd0:n</title>
<path fill="none" stroke="red" d="M715,-34C727,-34 732.25,-34 740.88,-34"/>
<polygon fill="red" stroke="red" points="741,-37.5 751,-34 741,-30.5 741,-37.5"/>
</g>
<!-- Node0x600001e6db60 -->
<g id="node8" class="node">
<title>Node0x600001e6db60</title>
<polygon fill="none" stroke="black" points="875,-9 875,-77 962,-77 962,-9 875,-9"/>
<text text-anchor="middle" x="918.5" y="-66.6" font-family="Times,serif" font-size="8.00">word: assailing</text>
<polyline fill="none" stroke="black" points="875,-60 962,-60 "/>
<text text-anchor="middle" x="918.5" y="-49.6" font-family="Times,serif" font-size="8.00">size: 1</text>
<polyline fill="none" stroke="black" points="875,-43 962,-43 "/>
<text text-anchor="middle" x="918.5" y="-32.6" font-family="Times,serif" font-size="8.00">next: 0x600001e6dfb0</text>
<polyline fill="none" stroke="black" points="875,-26 962,-26 "/>
<text text-anchor="middle" x="918.5" y="-15.6" font-family="Times,serif" font-size="8.00">prev: 0x600001e6afd0</text>
</g>
<!-- Node0x600001e6afd0&#45;&gt;Node0x600001e6db60 -->
<g id="edge7" class="edge">
<title>Node0x600001e6afd0:n&#45;&gt;Node0x600001e6db60:n</title>
<path fill="none" stroke="red" d="M839,-34C851,-34 856.25,-34 864.88,-34"/>
<polygon fill="red" stroke="red" points="865,-37.5 875,-34 865,-30.5 865,-37.5"/>
</g>
<!-- Node0x600001e6dfb0 -->
<g id="node9" class="node">
<title>Node0x600001e6dfb0</title>
<polygon fill="none" stroke="black" points="998,-9 998,-77 1086,-77 1086,-9 998,-9"/>
<text text-anchor="middle" x="1042" y="-66.6" font-family="Times,serif" font-size="8.00">word: merit</text>
<polyline fill="none" stroke="black" points="998,-60 1086,-60 "/>
<text text-anchor="middle" x="1042" y="-49.6" font-family="Times,serif" font-size="8.00">size: 2</text>
<polyline fill="none" stroke="black" points="998,-43 1086,-43 "/>
<text text-anchor="middle" x="1042" y="-32.6" font-family="Times,serif" font-size="8.00">next: 0x600001e6f090</text>
<polyline fill="none" stroke="black" points="998,-26 1086,-26 "/>
<text text-anchor="middle" x="1042" y="-15.6" font-family="Times,serif" font-size="8.00">prev: 0x600001e6db60</text>
</g>
<!-- Node0x600001e6db60&#45;&gt;Node0x600001e6dfb0 -->
<g id="edge8" class="edge">
<title>Node0x600001e6db60:n&#45;&gt;Node0x600001e6dfb0:n</title>
<path fill="none" stroke="red" d="M962,-34C974,-34 979.25,-34 987.88,-34"/>
<polygon fill="red" stroke="red" points="988,-37.5 998,-34 988,-30.5 988,-37.5"/>
</g>
<!-- Node0x600001e6f090 -->
<g id="node10" class="node">
<title>Node0x600001e6f090</title>
<polygon fill="none" stroke="black" points="1122,-9 1122,-77 1209,-77 1209,-9 1122,-9"/>
<text text-anchor="middle" x="1165.5" y="-66.6" font-family="Times,serif" font-size="8.00">word: choice</text>
<polyline fill="none" stroke="black" points="1122,-60 1209,-60 "/>
<text text-anchor="middle" x="1165.5" y="-49.6" font-family="Times,serif" font-size="8.00">size: 2</text>
<polyline fill="none" stroke="black" points="1122,-43 1209,-43 "/>
<text text-anchor="middle" x="1165.5" y="-32.6" font-family="Times,serif" font-size="8.00">next: 0x600001e70ae0</text>
<polyline fill="none" stroke="black" points="1122,-26 1209,-26 "/>
<text text-anchor="middle" x="1165.5" y="-15.6" font-family="Times,serif" font-size="8.00">prev: 0x600001e6dfb0</text>
</g>
<!-- Node0x600001e6dfb0&#45;&gt;Node0x600001e6f090 -->
<g id="edge9" class="edge">
<title>Node0x600001e6dfb0:n&#45;&gt;Node0x600001e6f090:n</title>
<path fill="none" stroke="red" d="M1086,-34C1098,-34 1103.25,-34 1111.88,-34"/>
<polygon fill="red" stroke="red" points="1112,-37.5 1122,-34 1112,-30.5 1112,-37.5"/>
</g>
<!-- Node0x600001e70ae0 -->
<g id="node11" class="node">
<title>Node0x600001e70ae0</title>
<polygon fill="none" stroke="black" points="1245,-9 1245,-77 1332,-77 1332,-9 1245,-9"/>
<text text-anchor="middle" x="1288.5" y="-66.6" font-family="Times,serif" font-size="8.00">word: nieces</text>
<polyline fill="none" stroke="black" points="1245,-60 1332,-60 "/>
<text text-anchor="middle" x="1288.5" y="-49.6" font-family="Times,serif" font-size="8.00">size: 1</text>
<polyline fill="none" stroke="black" points="1245,-43 1332,-43 "/>
<text text-anchor="middle" x="1288.5" y="-32.6" font-family="Times,serif" font-size="8.00">next: 0x600001e64180</text>
<polyline fill="none" stroke="black" points="1245,-26 1332,-26 "/>
<text text-anchor="middle" x="1288.5" y="-15.6" font-family="Times,serif" font-size="8.00">prev: 0x600001e6f090</text>
</g>
<!-- Node0x600001e6f090&#45;&gt;Node0x600001e70ae0 -->
<g id="edge10" class="edge">
<title>Node0x600001e6f090:n&#45;&gt;Node0x600001e70ae0:n</title>
<path fill="none" stroke="red" d="M1209,-34C1221,-34 1226.25,-34 1234.88,-34"/>
<polygon fill="red" stroke="red" points="1235,-37.5 1245,-34 1235,-30.5 1235,-37.5"/>
</g>
<!-- Node0x600001e64180 -->
<g id="node12" class="node">
<title>Node0x600001e64180</title>
<polygon fill="none" stroke="black" points="1368,-9 1368,-77 1456,-77 1456,-9 1368,-9"/>
<text text-anchor="middle" x="1412" y="-66.6" font-family="Times,serif" font-size="8.00">word: face</text>
<polyline fill="none" stroke="black" points="1368,-60 1456,-60 "/>
<text text-anchor="middle" x="1412" y="-49.6" font-family="Times,serif" font-size="8.00">size: 23</text>
<polyline fill="none" stroke="black" points="1368,-43 1456,-43 "/>
<text text-anchor="middle" x="1412" y="-32.6" font-family="Times,serif" font-size="8.00">next: 0x600001e67b40</text>
<polyline fill="none" stroke="black" points="1368,-26 1456,-26 "/>
<text text-anchor="middle" x="1412" y="-15.6" font-family="Times,serif" font-size="8.00">prev: 0x600001e70ae0</text>
</g>
<!-- Node0x600001e70ae0&#45;&gt;Node0x600001e64180 -->
<g id="edge11" class="edge">
<title>Node0x600001e70ae0:n&#45;&gt;Node0x600001e64180:n</title>
<path fill="none" stroke="red" d="M1332,-34C1344,-34 1349.25,-34 1357.88,-34"/>
<polygon fill="red" stroke="red" points="1358,-37.5 1368,-34 1358,-30.5 1358,-37.5"/>
</g>
<!-- Node0x600001e67b40 -->
<g id="node13" class="node">
<title>Node0x600001e67b40</title>
<polygon fill="none" stroke="black" points="1492,-9 1492,-77 1580,-77 1580,-9 1492,-9"/>
<text text-anchor="middle" x="1536" y="-66.6" font-family="Times,serif" font-size="8.00">word: Five</text>
<polyline fill="none" stroke="black" points="1492,-60 1580,-60 "/>
<text text-anchor="middle" x="1536" y="-49.6" font-family="Times,serif" font-size="8.00">size: 1</text>
<polyline fill="none" stroke="black" points="1492,-43 1580,-43 "/>
<text text-anchor="middle" x="1536" y="-32.6" font-family="Times,serif" font-size="8.00">next: 0x600001e747e0</text>
<polyline fill="none" stroke="black" points="1492,-26 1580,-26 "/>
<text text-anchor="middle" x="1536" y="-15.6" font-family="Times,serif" font-size="8.00">prev: 0x600001e64180</text>
</g>
<!-- Node0x600001e64180&#45;&gt;Node0x600001e67b40 -->
<g id="edge12" class="edge">
<title>Node0x600001e64180:n&#45;&gt;Node0x600001e67b40:n</title>
<path fill="none" stroke="red" d="M1456,-34C1468,-34 1473.25,-34 1481.88,-34"/>
<polygon fill="red" stroke="red" points="1482,-37.5 1492,-34 1482,-30.5 1482,-37.5"/>
</g>
<!-- Node0x600001e747e0 -->
<g id="node14" class="node">
<title>Node0x600001e747e0</title>
<polygon fill="none" stroke="black" points="1616,-9 1616,-77 1704,-77 1704,-9 1616,-9"/>
<text text-anchor="middle" x="1660" y="-66.6" font-family="Times,serif" font-size="8.00">word: fingers</text>
<polyline fill="none" stroke="black" points="1616,-60 1704,-60 "/>
<text text-anchor="middle" x="1660" y="-49.6" font-family="Times,serif" font-size="8.00">size: 5</text>
<polyline fill="none" stroke="black" points="1616,-43 1704,-43 "/>
<text text-anchor="middle" x="1660" y="-32.6" font-family="Times,serif" font-size="8.00">next: 0x600001e75110</text>
<polyline fill="none" stroke="black" points="1616,-26 1704,-26 "/>
<text text-anchor="middle" x="1660" y="-15.6" font-family="Times,serif" font-size="8.00">prev: 0x600001e67b40</text>
</g>
<!-- Node0x600001e67b40&#45;&gt;Node0x600001e747e0 -->
<g id="edge13" class="edge">
<title>Node0x600001e67b40:n&#45;&gt;Node0x600001e747e0:n</title>
<path fill="none" stroke="red" d="M1580,-34C1592,-34 1597.25,-34 1605.88,-34"/>
<polygon fill="red" stroke="red" points="1606,-37.5 1616,-34 1606,-30.5 1606,-37.5"/>
</g>
<!-- Node0x600001e75110 -->
<g id="node15" class="node">
<title>Node0x600001e75110</title>
<polygon fill="none" stroke="black" points="1740,-9 1740,-77 1828,-77 1828,-9 1740,-9"/>
<text text-anchor="middle" x="1784" y="-66.6" font-family="Times,serif" font-size="8.00">word: bakes</text>
<polyline fill="none" stroke="black" points="1740,-60 1828,-60 "/>
<text text-anchor="middle" x="1784" y="-49.6" font-family="Times,serif" font-size="8.00">size: 1</text>
<polyline fill="none" stroke="black" points="1740,-43 1828,-43 "/>
<text text-anchor="middle" x="1784" y="-32.6" font-family="Times,serif" font-size="8.00">next: 0x600001e77120</text>
<polyline fill="none" stroke="black" points="1740,-26 1828,-26 "/>
<text text-anchor="middle" x="1784" y="-15.6" font-family="Times,serif" font-size="8.00">prev: 0x600001e747e0</text>
</g>
<!-- Node0x600001e747e0&#45;&gt;Node0x600001e75110 -->
<g id="edge14" class="edge">
<title>Node0x600001e747e0:n&#45;&gt;Node0x600001e75110:n</title>
<path fill="none" stroke="red" d="M1704,-34C1716,-34 1721.25,-34 1729.88,-34"/>
<polygon fill="red" stroke="red" points="1730,-37.5 1740,-34 1730,-30.5 1730,-37.5"/>
</g>
<!-- Node0x600001e77120 -->
<g id="node16" class="node">
<title>Node0x600001e77120</title>
<polygon fill="none" stroke="black" points="1864,-9 1864,-77 1952,-77 1952,-9 1864,-9"/>
<text text-anchor="middle" x="1908" y="-66.6" font-family="Times,serif" font-size="8.00">word: disparagement</text>
<polyline fill="none" stroke="black" points="1864,-60 1952,-60 "/>
<text text-anchor="middle" x="1908" y="-49.6" font-family="Times,serif" font-size="8.00">size: 1</text>
<polyline fill="none" stroke="black" points="1864,-43 1952,-43 "/>
<text text-anchor="middle" x="1908" y="-32.6" font-family="Times,serif" font-size="8.00">next: 0x600001e77a80</text>
<polyline fill="none" stroke="black" points="1864,-26 1952,-26 "/>
<text text-anchor="middle" x="1908" y="-15.6" font-family="Times,serif" font-size="8.00">prev: 0x600001e75110</text>
</g>
<!-- Node0x600001e75110&#45;&gt;Node0x600001e77120 -->
<g id="edge15" class="edge">
<title>Node0x600001e75110:n&#45;&gt;Node0x600001e77120:n</title>
<path fill="none" stroke="red" d="M1828,-34C1840,-34 1845.25,-34 1853.88,-34"/>
<polygon fill="red" stroke="red" points="1854,-37.5 1864,-34 1854,-30.5 1854,-37.5"/>
</g>
<!-- Node0x600001e77a80 -->
<g id="node17" class="node">
<title>Node0x600001e77a80</title>
<polygon fill="none" stroke="black" points="1988,-9 1988,-77 2076,-77 2076,-9 1988,-9"/>
<text text-anchor="middle" x="2032" y="-66.6" font-family="Times,serif" font-size="8.00">word: sake</text>
<polyline fill="none" stroke="black" points="1988,-60 2076,-60 "/>
<text text-anchor="middle" x="2032" y="-49.6" font-family="Times,serif" font-size="8.00">size: 4</text>
<polyline fill="none" stroke="black" points="1988,-43 2076,-43 "/>
<text text-anchor="middle" x="2032" y="-32.6" font-family="Times,serif" font-size="8.00">next: 0x600001e7c120</text>
<polyline fill="none" stroke="black" points="1988,-26 2076,-26 "/>
<text text-anchor="middle" x="2032" y="-15.6" font-family="Times,serif" font-size="8.00">prev: 0x600001e77120</text>
</g>
<!-- Node0x600001e77120&#45;&gt;Node0x600001e77a80 -->
<g id="edge16" class="edge">
<title>Node0x600001e77120:n&#45;&gt;Node0x600001e77a80:n</title>
<path fill="none" stroke="red" d="M1952,-34C1964,-34 1969.25,-34 1977.88,-34"/>
<polygon fill="red" stroke="red" points="1978,-37.5 1988,-34 1978,-30.5 1978,-37.5"/>
</g>
<!-- Node0x600001e7c120 -->
<g id="node18" class="node">
<title>Node0x600001e7c120</title>
<polygon fill="none" stroke="black" points="2112,-9 2112,-77 2200,-77 2200,-9 2112,-9"/>
<text text-anchor="middle" x="2156" y="-66.6" font-family="Times,serif" font-size="8.00">word: shot</text>
<polyline fill="none" stroke="black" points="2112,-60 2200,-60 "/>
<text text-anchor="middle" x="2156" y="-49.6" font-family="Times,serif" font-size="8.00">size: 2</text>
<polyline fill="none" stroke="black" points="2112,-43 2200,-43 "/>
<text text-anchor="middle" x="2156" y="-32.6" font-family="Times,serif" font-size="8.00">next: 0x600001e7cfc0</text>
<polyline fill="none" stroke="black" points="2112,-26 2200,-26 "/>
<text text-anchor="middle" x="2156" y="-15.6" font-family="Times,serif" font-size="8.00">prev: 0x600001e77a80</text>
</g>
<!-- Node0x600001e77a80&#45;&gt;Node0x600001e7c120 -->
<g id="edge17" class="edge">
<title>Node0x600001e77a80:n&#45;&gt;Node0x600001e7c120:n</title>
<path fill="none" stroke="red" d="M2076,-34C2088,-34 2093.25,-34 2101.88,-34"/>
<polygon fill="red" stroke="red" points="2102,-37.5 2112,-34 2102,-30.5 2102,-37.5"/>
</g>
<!-- Node0x600001e7cfc0 -->
<g id="node19" class="node">
<title>Node0x600001e7cfc0</title>
<polygon fill="none" stroke="black" points="2236,-9 2236,-77 2324,-77 2324,-9 2236,-9"/>
<text text-anchor="middle" x="2280" y="-66.6" font-family="Times,serif" font-size="8.00">word: stream</text>
<polyline fill="none" stroke="black" points="2236,-60 2324,-60 "/>
<text text-anchor="middle" x="2280" y="-49.6" font-family="Times,serif" font-size="8.00">size: 1</text>
<polyline fill="none" stroke="black" points="2236,-43 2324,-43 "/>
<text text-anchor="middle" x="2280" y="-32.6" font-family="Times,serif" font-size="8.00">next: 0x600001e444e0</text>
<polyline fill="none" stroke="black" points="2236,-26 2324,-26 "/>
<text text-anchor="middle" x="2280" y="-15.6" font-family="Times,serif" font-size="8.00">prev: 0x600001e7c120</text>
</g>
<!-- Node0x600001e7c120&#45;&gt;Node0x600001e7cfc0 -->
<g id="edge18" class="edge">
<title>Node0x600001e7c120:n&#45;&gt;Node0x600001e7cfc0:n</title>
<path fill="none" stroke="red" d="M2200,-34C2212,-34 2217.25,-34 2225.88,-34"/>
<polygon fill="red" stroke="red" points="2226,-37.5 2236,-34 2226,-30.5 2226,-37.5"/>
</g>
<!-- Node0x600001e444e0 -->
<g id="node20" class="node">
<title>Node0x600001e444e0</title>
<polygon fill="none" stroke="black" points="2360,-9 2360,-77 2447,-77 2447,-9 2360,-9"/>
<text text-anchor="middle" x="2403.5" y="-66.6" font-family="Times,serif" font-size="8.00">word: faster</text>
<polyline fill="none" stroke="black" points="2360,-60 2447,-60 "/>
<text text-anchor="middle" x="2403.5" y="-49.6" font-family="Times,serif" font-size="8.00">size: 1</text>
<polyline fill="none" stroke="black" points="2360,-43 2447,-43 "/>
<text text-anchor="middle" x="2403.5" y="-32.6" font-family="Times,serif" font-size="8.00">next: 0x600001e446c0</text>
<polyline fill="none" stroke="black" points="2360,-26 2447,-26 "/>
<text text-anchor="middle" x="2403.5" y="-15.6" font-family="Times,serif" font-size="8.00">prev: 0x600001e7cfc0</text>
</g>
<!-- Node0x600001e7cfc0&#45;&gt;Node0x600001e444e0 -->
<g id="edge19" class="edge">
<title>Node0x600001e7cfc0:n&#45;&gt;Node0x600001e444e0:n</title>
<path fill="none" stroke="red" d="M2324,-34C2336,-34 2341.25,-34 2349.88,-34"/>
<polygon fill="red" stroke="red" points="2350,-37.5 2360,-34 2350,-30.5 2350,-37.5"/>
</g>
<!-- Node0x600001e446c0 -->
<g id="node21" class="node">
<title>Node0x600001e446c0</title>
<polygon fill="none" stroke="black" points="2483,-9 2483,-77 2571,-77 2571,-9 2483,-9"/>
<text text-anchor="middle" x="2527" y="-66.6" font-family="Times,serif" font-size="8.00">word: highmost</text>
<polyline fill="none" stroke="black" points="2483,-60 2571,-60 "/>
<text text-anchor="middle" x="2527" y="-49.6" font-family="Times,serif" font-size="8.00">size: 1</text>
<polyline fill="none" stroke="black" points="2483,-43 2571,-43 "/>
<text text-anchor="middle" x="2527" y="-32.6" font-family="Times,serif" font-size="8.00">next: 0x600001e454a0</text>
<polyline fill="none" stroke="black" points="2483,-26 2571,-26 "/>
<text text-anchor="middle" x="2527" y="-15.6" font-family="Times,serif" font-size="8.00">prev: 0x600001e444e0</text>
</g>
<!-- Node0x600001e444e0&#45;&gt;Node0x600001e446c0 -->
<g id="edge20" class="edge">
<title>Node0x600001e444e0:n&#45;&gt;Node0x600001e446c0:n</title>
<path fill="none" stroke="red" d="M2447,-34C2459,-34 2464.25,-34 2472.88,-34"/>
<polygon fill="red" stroke="red" points="2473,-37.5 2483,-34 2473,-30.5 2473,-37.5"/>
</g>
<!-- Node0x600001e454a0 -->
<g id="node22" class="node">
<title>Node0x600001e454a0</title>
<polygon fill="none" stroke="black" points="2607,-9 2607,-77 2695,-77 2695,-9 2607,-9"/>
<text text-anchor="middle" x="2651" y="-66.6" font-family="Times,serif" font-size="8.00">word: loathsome</text>
<polyline fill="none" stroke="black" points="2607,-60 2695,-60 "/>
<text text-anchor="middle" x="2651" y="-49.6" font-family="Times,serif" font-size="8.00">size: 3</text>
<polyline fill="none" stroke="black" points="2607,-43 2695,-43 "/>
<text text-anchor="middle" x="2651" y="-32.6" font-family="Times,serif" font-size="8.00">next: 0x600001e494a0</text>
<polyline fill="none" stroke="black" points="2607,-26 2695,-26 "/>
<text text-anchor="middle" x="2651" y="-15.6" font-family="Times,serif" font-size="8.00">prev: 0x600001e446c0</text>
</g>
<!-- Node0x600001e446c0&#45;&gt;Node0x600001e454a0 -->
<g id="edge21" class="edge">
<title>Node0x600001e446c0:n&#45;&gt;Node0x600001e454a0:n</title>
<path fill="none" stroke="red" d="M2571,-34C2583,-34 2588.25,-34 2596.88,-34"/>
<polygon fill="red" stroke="red" points="2597,-37.5 2607,-34 2597,-30.5 2597,-37.5"/>
</g>
<!-- Node0x600001e494a0 -->
<g id="node23" class="node">
<title>Node0x600001e494a0</title>
<polygon fill="none" stroke="black" points="2731,-9 2731,-77 2819,-77 2819,-9 2731,-9"/>
<text text-anchor="middle" x="2775" y="-66.6" font-family="Times,serif" font-size="8.00">word: containing</text>
<polyline fill="none" stroke="black" points="2731,-60 2819,-60 "/>
<text text-anchor="middle" x="2775" y="-49.6" font-family="Times,serif" font-size="8.00">size: 1</text>
<polyline fill="none" stroke="black" points="2731,-43 2819,-43 "/>
<text text-anchor="middle" x="2775" y="-32.6" font-family="Times,serif" font-size="8.00">next: 0x600001e717d0</text>
<polyline fill="none" stroke="black" points="2731,-26 2819,-26 "/>
<text text-anchor="middle" x="2775" y="-15.6" font-family="Times,serif" font-size="8.00">prev: 0x600001e454a0</text>
</g>
<!-- Node0x600001e454a0&#45;&gt;Node0x600001e494a0 -->
<g id="edge22" class="edge">
<title>Node0x600001e454a0:n&#45;&gt;Node0x600001e494a0:n</title>
<path fill="none" stroke="red" d="M2695,-34C2707,-34 2712.25,-34 2720.88,-34"/>
<polygon fill="red" stroke="red" points="2721,-37.5 2731,-34 2721,-30.5 2721,-37.5"/>
</g>
<!-- Node0x600001e717d0 -->
<g id="node24" class="node">
<title>Node0x600001e717d0</title>
<polygon fill="none" stroke="black" points="2855,-9 2855,-77 2943,-77 2943,-9 2855,-9"/>
<text text-anchor="middle" x="2899" y="-66.6" font-family="Times,serif" font-size="8.00">word: knocks</text>
<polyline fill="none" stroke="black" points="2855,-60 2943,-60 "/>
<text text-anchor="middle" x="2899" y="-49.6" font-family="Times,serif" font-size="8.00">size: 2</text>
<polyline fill="none" stroke="black" points="2855,-43 2943,-43 "/>
<text text-anchor="middle" x="2899" y="-32.6" font-family="Times,serif" font-size="8.00">next: 0x600001e4a8e0</text>
<polyline fill="none" stroke="black" points="2855,-26 2943,-26 "/>
<text text-anchor="middle" x="2899" y="-15.6" font-family="Times,serif" font-size="8.00">prev: 0x600001e494a0</text>
</g>
<!-- Node0x600001e494a0&#45;&gt;Node0x600001e717d0 -->
<g id="edge23" class="edge">
<title>Node0x600001e494a0:n&#45;&gt;Node0x600001e717d0:n</title>
<path fill="none" stroke="red" d="M2819,-34C2831,-34 2836.25,-34 2844.88,-34"/>
<polygon fill="red" stroke="red" points="2845,-37.5 2855,-34 2845,-30.5 2845,-37.5"/>
</g>
<!-- Node0x600001e4a8e0 -->
<g id="node25" class="node">
<title>Node0x600001e4a8e0</title>
<polygon fill="none" stroke="black" points="2979,-9 2979,-77 3067,-77 3067,-9 2979,-9"/>
<text text-anchor="middle" x="3023" y="-66.6" font-family="Times,serif" font-size="8.00">word: rises</text>
<polyline fill="none" stroke="black" points="2979,-60 3067,-60 "/>
<text text-anchor="middle" x="3023" y="-49.6" font-family="Times,serif" font-size="8.00">size: 2</text>
<polyline fill="none" stroke="black" points="2979,-43 3067,-43 "/>
<text text-anchor="middle" x="3023" y="-32.6" font-family="Times,serif" font-size="8.00">next: 0x600001e4cb10</text>
<polyline fill="none" stroke="black" points="2979,-26 3067,-26 "/>
<text text-anchor="middle" x="3023" y="-15.6" font-family="Times,serif" font-size="8.00">prev: 0x600001e717d0</text>
</g>
<!-- Node0x600001e717d0&#45;&gt;Node0x600001e4a8e0 -->
<g id="edge24" class="edge">
<title>Node0x600001e717d0:n&#45;&gt;Node0x600001e4a8e0:n</title>
<path fill="none" stroke="red" d="M2943,-34C2955,-34 2960.25,-34 2968.88,-34"/>
<polygon fill="red" stroke="red" points="2969,-37.5 2979,-34 2969,-30.5 2969,-37.5"/>
</g>
<!-- Node0x600001e4cb10 -->
<g id="node26" class="node">
<title>Node0x600001e4cb10</title>
<polygon fill="none" stroke="black" points="3103,-9 3103,-77 3191,-77 3191,-9 3103,-9"/>
<text text-anchor="middle" x="3147" y="-66.6" font-family="Times,serif" font-size="8.00">word: happily</text>
<polyline fill="none" stroke="black" points="3103,-60 3191,-60 "/>
<text text-anchor="middle" x="3147" y="-49.6" font-family="Times,serif" font-size="8.00">size: 1</text>
<polyline fill="none" stroke="black" points="3103,-43 3191,-43 "/>
<text text-anchor="middle" x="3147" y="-32.6" font-family="Times,serif" font-size="8.00">next: 0x600001e7b270</text>
<polyline fill="none" stroke="black" points="3103,-26 3191,-26 "/>
<text text-anchor="middle" x="3147" y="-15.6" font-family="Times,serif" font-size="8.00">prev: 0x600001e4a8e0</text>
</g>
<!-- Node0x600001e4a8e0&#45;&gt;Node0x600001e4cb10 -->
<g id="edge25" class="edge">
<title>Node0x600001e4a8e0:n&#45;&gt;Node0x600001e4cb10:n</title>
<path fill="none" stroke="red" d="M3067,-34C3079,-34 3084.25,-34 3092.88,-34"/>
<polygon fill="red" stroke="red" points="3093,-37.5 3103,-34 3093,-30.5 3093,-37.5"/>
</g>
<!-- Node0x600001e7b270 -->
<g id="node27" class="node">
<title>Node0x600001e7b270</title>
<polygon fill="none" stroke="black" points="3227,-9 3227,-77 3315,-77 3315,-9 3227,-9"/>
<text text-anchor="middle" x="3271" y="-66.6" font-family="Times,serif" font-size="8.00">word: whit</text>
<polyline fill="none" stroke="black" points="3227,-60 3315,-60 "/>
<text text-anchor="middle" x="3271" y="-49.6" font-family="Times,serif" font-size="8.00">size: 1</text>
<polyline fill="none" stroke="black" points="3227,-43 3315,-43 "/>
<text text-anchor="middle" x="3271" y="-32.6" font-family="Times,serif" font-size="8.00">next: 0x600001e7bb40</text>
<polyline fill="none" stroke="black" points="3227,-26 3315,-26 "/>
<text text-anchor="middle" x="3271" y="-15.6" font-family="Times,serif" font-size="8.00">prev: 0x600001e4cb10</text>
</g>
<!-- Node0x600001e4cb10&#45;&gt;Node0x600001e7b270 -->
<g id="edge26" class="edge">
<title>Node0x600001e4cb10:n&#45;&gt;Node0x600001e7b270:n</title>
<path fill="none" stroke="red" d="M3191,-34C3203,-34 3208.25,-34 3216.88,-34"/>
<polygon fill="red" stroke="red" points="3217,-37.5 3227,-34 3217,-30.5 3217,-37.5"/>
</g>
<!-- Node0x600001e7bb40 -->
<g id="node28" class="node">
<title>Node0x600001e7bb40</title>
<polygon fill="none" stroke="black" points="3351,-9 3351,-77 3439,-77 3439,-9 3351,-9"/>
<text text-anchor="middle" x="3395" y="-66.6" font-family="Times,serif" font-size="8.00">word: detestable</text>
<polyline fill="none" stroke="black" points="3351,-60 3439,-60 "/>
<text text-anchor="middle" x="3395" y="-49.6" font-family="Times,serif" font-size="8.00">size: 2</text>
<polyline fill="none" stroke="black" points="3351,-43 3439,-43 "/>
<text text-anchor="middle" x="3395" y="-32.6" font-family="Times,serif" font-size="8.00">next: 0x600001e7bcc0</text>
<polyline fill="none" stroke="black" points="3351,-26 3439,-26 "/>
<text text-anchor="middle" x="3395" y="-15.6" font-family="Times,serif" font-size="8.00">prev: 0x600001e7b270</text>
</g>
<!-- Node0x600001e7b270&#45;&gt;Node0x600001e7bb40 -->
<g id="edge27" class="edge">
<title>Node0x600001e7b270:n&#45;&gt;Node0x600001e7bb40:n</title>
<path fill="none" stroke="red" d="M3315,-34C3327,-34 3332.25,-34 3340.88,-34"/>
<polygon fill="red" stroke="red" points="3341,-37.5 3351,-34 3341,-30.5 3341,-37.5"/>
</g>
<!-- Node0x600001e7bcc0 -->
<g id="node29" class="node">
<title>Node0x600001e7bcc0</title>
<polygon fill="none" stroke="black" points="3475,-9 3475,-77 3563,-77 3563,-9 3475,-9"/>
<text text-anchor="middle" x="3519" y="-66.6" font-family="Times,serif" font-size="8.00">word: joys</text>
<polyline fill="none" stroke="black" points="3475,-60 3563,-60 "/>
<text text-anchor="middle" x="3519" y="-49.6" font-family="Times,serif" font-size="8.00">size: 2</text>
<polyline fill="none" stroke="black" points="3475,-43 3563,-43 "/>
<text text-anchor="middle" x="3519" y="-32.6" font-family="Times,serif" font-size="8.00">next: 0x600001e734e0</text>
<polyline fill="none" stroke="black" points="3475,-26 3563,-26 "/>
<text text-anchor="middle" x="3519" y="-15.6" font-family="Times,serif" font-size="8.00">prev: 0x600001e7bb40</text>
</g>
<!-- Node0x600001e7bb40&#45;&gt;Node0x600001e7bcc0 -->
<g id="edge28" class="edge">
<title>Node0x600001e7bb40:n&#45;&gt;Node0x600001e7bcc0:n</title>
<path fill="none" stroke="red" d="M3439,-34C3451,-34 3456.25,-34 3464.88,-34"/>
<polygon fill="red" stroke="red" points="3465,-37.5 3475,-34 3465,-30.5 3465,-37.5"/>
</g>
<!-- Node0x600001e734e0 -->
<g id="node30" class="node">
<title>Node0x600001e734e0</title>
<polygon fill="none" stroke="black" points="3599,-9 3599,-77 3687,-77 3687,-9 3599,-9"/>
<text text-anchor="middle" x="3643" y="-66.6" font-family="Times,serif" font-size="8.00">word: speedy</text>
<polyline fill="none" stroke="black" points="3599,-60 3687,-60 "/>
<text text-anchor="middle" x="3643" y="-49.6" font-family="Times,serif" font-size="8.00">size: 1</text>
<polyline fill="none" stroke="black" points="3599,-43 3687,-43 "/>
<text text-anchor="middle" x="3643" y="-32.6" font-family="Times,serif" font-size="8.00">next: 0x600001e54f60</text>
<polyline fill="none" stroke="black" points="3599,-26 3687,-26 "/>
<text text-anchor="middle" x="3643" y="-15.6" font-family="Times,serif" font-size="8.00">prev: 0x600001e7bcc0</text>
</g>
<!-- Node0x600001e7bcc0&#45;&gt;Node0x600001e734e0 -->
<g id="edge29" class="edge">
<title>Node0x600001e7bcc0:n&#45;&gt;Node0x600001e734e0:n</title>
<path fill="none" stroke="red" d="M3563,-34C3575,-34 3580.25,-34 3588.88,-34"/>
<polygon fill="red" stroke="red" points="3589,-37.5 3599,-34 3589,-30.5 3589,-37.5"/>
</g>
<!-- Node0x600001e54f60 -->
<g id="node31" class="node">
<title>Node0x600001e54f60</title>
<polygon fill="none" stroke="black" points="3723,-9 3723,-77 3811,-77 3811,-9 3723,-9"/>
<text text-anchor="middle" x="3767" y="-66.6" font-family="Times,serif" font-size="8.00">word: rocks</text>
<polyline fill="none" stroke="black" points="3723,-60 3811,-60 "/>
<text text-anchor="middle" x="3767" y="-49.6" font-family="Times,serif" font-size="8.00">size: 1</text>
<polyline fill="none" stroke="black" points="3723,-43 3811,-43 "/>
<text text-anchor="middle" x="3767" y="-32.6" font-family="Times,serif" font-size="8.00">next: 0x0</text>
<polyline fill="none" stroke="black" points="3723,-26 3811,-26 "/>
<text text-anchor="middle" x="3767" y="-15.6" font-family="Times,serif" font-size="8.00">prev: 0x600001e734e0</text>
</g>
<!-- Node0x600001e734e0&#45;&gt;Node0x600001e54f60 -->
<g id="edge30" class="edge">
<title>Node0x600001e734e0:n&#45;&gt;Node0x600001e54f60:n</title>
<path fill="none" stroke="red" d="M3687,-34C3699,-34 3704.25,-34 3712.88,-34"/>
<polygon fill="red" stroke="red" points="3713,-37.5 3723,-34 3713,-30.5 3713,-37.5"/>
</g>
</g>
</svg>
