<?xml version="1.0" encoding="UTF-8" standalone="no"?>
<!DOCTYPE svg PUBLIC "-//W3C//DTD SVG 1.1//EN"
 "http://www.w3.org/Graphics/SVG/1.1/DTD/svg11.dtd">
<!-- Generated by graphviz version 2.50.0 (20211204.2007)
 -->
<!-- Title: G Pages: 1 -->
<svg width="4197pt" height="117pt"
 viewBox="0.00 0.00 4197.00 117.00" xmlns="http://www.w3.org/2000/svg" xmlns:xlink="http://www.w3.org/1999/xlink">
<g id="graph0" class="graph" transform="scale(1 1) rotate(0) translate(4 113)">
<title>G</title>
<polygon fill="white" stroke="transparent" points="-4,4 -4,-113 4193,-113 4193,4 -4,4"/>
<g id="clust1" class="cluster">
<title>cluster162</title>
<polygon fill="none" stroke="black" points="8,-8 8,-101 95,-101 95,-8 8,-8"/>
<text text-anchor="middle" x="51.5" y="-85.8" font-family="Times,serif" font-size="14.00">162</text>
</g>
<g id="clust2" class="cluster">
<title>cluster163</title>
<polygon fill="none" stroke="black" points="131,-8 131,-101 219,-101 219,-8 131,-8"/>
<text text-anchor="middle" x="175" y="-85.8" font-family="Times,serif" font-size="14.00">163</text>
</g>
<g id="clust3" class="cluster">
<title>cluster164</title>
<polygon fill="none" stroke="black" points="255,-8 255,-101 343,-101 343,-8 255,-8"/>
<text text-anchor="middle" x="299" y="-85.8" font-family="Times,serif" font-size="14.00">164</text>
</g>
<g id="clust4" class="cluster">
<title>cluster165</title>
<polygon fill="none" stroke="black" points="379,-8 379,-101 466,-101 466,-8 379,-8"/>
<text text-anchor="middle" x="422.5" y="-85.8" font-family="Times,serif" font-size="14.00">165</text>
</g>
<g id="clust5" class="cluster">
<title>cluster166</title>
<polygon fill="none" stroke="black" points="502,-8 502,-101 590,-101 590,-8 502,-8"/>
<text text-anchor="middle" x="546" y="-85.8" font-family="Times,serif" font-size="14.00">166</text>
</g>
<g id="clust6" class="cluster">
<title>cluster167</title>
<polygon fill="none" stroke="black" points="626,-8 626,-101 714,-101 714,-8 626,-8"/>
<text text-anchor="middle" x="670" y="-85.8" font-family="Times,serif" font-size="14.00">167</text>
</g>
<g id="clust7" class="cluster">
<title>cluster168</title>
<polygon fill="none" stroke="black" points="750,-8 750,-101 838,-101 838,-8 750,-8"/>
<text text-anchor="middle" x="794" y="-85.8" font-family="Times,serif" font-size="14.00">168</text>
</g>
<g id="clust8" class="cluster">
<title>cluster169</title>
<polygon fill="none" stroke="black" points="874,-8 874,-101 962,-101 962,-8 874,-8"/>
<text text-anchor="middle" x="918" y="-85.8" font-family="Times,serif" font-size="14.00">169</text>
</g>
<g id="clust9" class="cluster">
<title>cluster170</title>
<polygon fill="none" stroke="black" points="998,-8 998,-101 1086,-101 1086,-8 998,-8"/>
<text text-anchor="middle" x="1042" y="-85.8" font-family="Times,serif" font-size="14.00">170</text>
</g>
<g id="clust10" class="cluster">
<title>cluster171</title>
<polygon fill="none" stroke="black" points="1122,-8 1122,-101 1210,-101 1210,-8 1122,-8"/>
<text text-anchor="middle" x="1166" y="-85.8" font-family="Times,serif" font-size="14.00">171</text>
</g>
<g id="clust11" class="cluster">
<title>cluster172</title>
<polygon fill="none" stroke="black" points="1246,-8 1246,-101 1334,-101 1334,-8 1246,-8"/>
<text text-anchor="middle" x="1290" y="-85.8" font-family="Times,serif" font-size="14.00">172</text>
</g>
<g id="clust12" class="cluster">
<title>cluster173</title>
<polygon fill="none" stroke="black" points="1370,-8 1370,-101 1457,-101 1457,-8 1370,-8"/>
<text text-anchor="middle" x="1413.5" y="-85.8" font-family="Times,serif" font-size="14.00">173</text>
</g>
<g id="clust13" class="cluster">
<title>cluster174</title>
<polygon fill="none" stroke="black" points="1493,-8 1493,-101 1580,-101 1580,-8 1493,-8"/>
<text text-anchor="middle" x="1536.5" y="-85.8" font-family="Times,serif" font-size="14.00">174</text>
</g>
<g id="clust14" class="cluster">
<title>cluster175</title>
<polygon fill="none" stroke="black" points="1616,-8 1616,-101 1704,-101 1704,-8 1616,-8"/>
<text text-anchor="middle" x="1660" y="-85.8" font-family="Times,serif" font-size="14.00">175</text>
</g>
<g id="clust15" class="cluster">
<title>cluster176</title>
<polygon fill="none" stroke="black" points="1740,-8 1740,-101 1828,-101 1828,-8 1740,-8"/>
<text text-anchor="middle" x="1784" y="-85.8" font-family="Times,serif" font-size="14.00">176</text>
</g>
<g id="clust16" class="cluster">
<title>cluster177</title>
<polygon fill="none" stroke="black" points="1864,-8 1864,-101 1952,-101 1952,-8 1864,-8"/>
<text text-anchor="middle" x="1908" y="-85.8" font-family="Times,serif" font-size="14.00">177</text>
</g>
<g id="clust17" class="cluster">
<title>cluster178</title>
<polygon fill="none" stroke="black" points="1988,-8 1988,-101 2076,-101 2076,-8 1988,-8"/>
<text text-anchor="middle" x="2032" y="-85.8" font-family="Times,serif" font-size="14.00">178</text>
</g>
<g id="clust18" class="cluster">
<title>cluster179</title>
<polygon fill="none" stroke="black" points="2112,-8 2112,-101 2200,-101 2200,-8 2112,-8"/>
<text text-anchor="middle" x="2156" y="-85.8" font-family="Times,serif" font-size="14.00">179</text>
</g>
<g id="clust19" class="cluster">
<title>cluster180</title>
<polygon fill="none" stroke="black" points="2236,-8 2236,-101 2324,-101 2324,-8 2236,-8"/>
<text text-anchor="middle" x="2280" y="-85.8" font-family="Times,serif" font-size="14.00">180</text>
</g>
<g id="clust20" class="cluster">
<title>cluster181</title>
<polygon fill="none" stroke="black" points="2360,-8 2360,-101 2448,-101 2448,-8 2360,-8"/>
<text text-anchor="middle" x="2404" y="-85.8" font-family="Times,serif" font-size="14.00">181</text>
</g>
<g id="clust21" class="cluster">
<title>cluster182</title>
<polygon fill="none" stroke="black" points="2484,-8 2484,-101 2571,-101 2571,-8 2484,-8"/>
<text text-anchor="middle" x="2527.5" y="-85.8" font-family="Times,serif" font-size="14.00">182</text>
</g>
<g id="clust22" class="cluster">
<title>cluster183</title>
<polygon fill="none" stroke="black" points="2607,-8 2607,-101 2695,-101 2695,-8 2607,-8"/>
<text text-anchor="middle" x="2651" y="-85.8" font-family="Times,serif" font-size="14.00">183</text>
</g>
<g id="clust23" class="cluster">
<title>cluster184</title>
<polygon fill="none" stroke="black" points="2731,-8 2731,-101 2819,-101 2819,-8 2731,-8"/>
<text text-anchor="middle" x="2775" y="-85.8" font-family="Times,serif" font-size="14.00">184</text>
</g>
<g id="clust24" class="cluster">
<title>cluster185</title>
<polygon fill="none" stroke="black" points="2855,-8 2855,-101 2943,-101 2943,-8 2855,-8"/>
<text text-anchor="middle" x="2899" y="-85.8" font-family="Times,serif" font-size="14.00">185</text>
</g>
<g id="clust25" class="cluster">
<title>cluster186</title>
<polygon fill="none" stroke="black" points="2979,-8 2979,-101 3067,-101 3067,-8 2979,-8"/>
<text text-anchor="middle" x="3023" y="-85.8" font-family="Times,serif" font-size="14.00">186</text>
</g>
<g id="clust26" class="cluster">
<title>cluster187</title>
<polygon fill="none" stroke="black" points="3103,-8 3103,-101 3191,-101 3191,-8 3103,-8"/>
<text text-anchor="middle" x="3147" y="-85.8" font-family="Times,serif" font-size="14.00">187</text>
</g>
<g id="clust27" class="cluster">
<title>cluster188</title>
<polygon fill="none" stroke="black" points="3227,-8 3227,-101 3315,-101 3315,-8 3227,-8"/>
<text text-anchor="middle" x="3271" y="-85.8" font-family="Times,serif" font-size="14.00">188</text>
</g>
<g id="clust28" class="cluster">
<title>cluster189</title>
<polygon fill="none" stroke="black" points="3351,-8 3351,-101 3439,-101 3439,-8 3351,-8"/>
<text text-anchor="middle" x="3395" y="-85.8" font-family="Times,serif" font-size="14.00">189</text>
</g>
<g id="clust29" class="cluster">
<title>cluster190</title>
<polygon fill="none" stroke="black" points="3475,-8 3475,-101 3563,-101 3563,-8 3475,-8"/>
<text text-anchor="middle" x="3519" y="-85.8" font-family="Times,serif" font-size="14.00">190</text>
</g>
<g id="clust30" class="cluster">
<title>cluster191</title>
<polygon fill="none" stroke="black" points="3599,-8 3599,-101 3686,-101 3686,-8 3599,-8"/>
<text text-anchor="middle" x="3642.5" y="-85.8" font-family="Times,serif" font-size="14.00">191</text>
</g>
<g id="clust31" class="cluster">
<title>cluster192</title>
<polygon fill="none" stroke="black" points="3722,-8 3722,-101 3809,-101 3809,-8 3722,-8"/>
<text text-anchor="middle" x="3765.5" y="-85.8" font-family="Times,serif" font-size="14.00">192</text>
</g>
<g id="clust32" class="cluster">
<title>cluster193</title>
<polygon fill="none" stroke="black" points="3845,-8 3845,-101 3933,-101 3933,-8 3845,-8"/>
<text text-anchor="middle" x="3889" y="-85.8" font-family="Times,serif" font-size="14.00">193</text>
</g>
<g id="clust33" class="cluster">
<title>cluster194</title>
<polygon fill="none" stroke="black" points="3969,-8 3969,-101 4057,-101 4057,-8 3969,-8"/>
<text text-anchor="middle" x="4013" y="-85.8" font-family="Times,serif" font-size="14.00">194</text>
</g>
<g id="clust34" class="cluster">
<title>cluster195</title>
<polygon fill="none" stroke="black" points="4093,-8 4093,-101 4181,-101 4181,-8 4093,-8"/>
<text text-anchor="middle" x="4137" y="-85.8" font-family="Times,serif" font-size="14.00">195</text>
</g>
<!-- Node0x600000710e40 -->
<g id="node1" class="node">
<title>Node0x600000710e40</title>
<polygon fill="none" stroke="black" points="8,-9 8,-77 95,-77 95,-9 8,-9"/>
<text text-anchor="middle" x="51.5" y="-66.6" font-family="Times,serif" font-size="8.00">word: OFFICER</text>
<polyline fill="none" stroke="black" points="8,-60 95,-60 "/>
<text text-anchor="middle" x="51.5" y="-49.6" font-family="Times,serif" font-size="8.00">size: 1</text>
<polyline fill="none" stroke="black" points="8,-43 95,-43 "/>
<text text-anchor="middle" x="51.5" y="-32.6" font-family="Times,serif" font-size="8.00">next: 0x6000007115c0</text>
<polyline fill="none" stroke="black" points="8,-26 95,-26 "/>
<text text-anchor="middle" x="51.5" y="-15.6" font-family="Times,serif" font-size="8.00">prev: 0x0</text>
</g>
<!-- Node0x6000007115c0 -->
<g id="node2" class="node">
<title>Node0x6000007115c0</title>
<polygon fill="none" stroke="black" points="131,-9 131,-77 219,-77 219,-9 131,-9"/>
<text text-anchor="middle" x="175" y="-66.6" font-family="Times,serif" font-size="8.00">word: scene</text>
<polyline fill="none" stroke="black" points="131,-60 219,-60 "/>
<text text-anchor="middle" x="175" y="-49.6" font-family="Times,serif" font-size="8.00">size: 2</text>
<polyline fill="none" stroke="black" points="131,-43 219,-43 "/>
<text text-anchor="middle" x="175" y="-32.6" font-family="Times,serif" font-size="8.00">next: 0x600000712df0</text>
<polyline fill="none" stroke="black" points="131,-26 219,-26 "/>
<text text-anchor="middle" x="175" y="-15.6" font-family="Times,serif" font-size="8.00">prev: 0x600000710e40</text>
</g>
<!-- Node0x600000710e40&#45;&gt;Node0x6000007115c0 -->
<g id="edge1" class="edge">
<title>Node0x600000710e40:n&#45;&gt;Node0x6000007115c0:n</title>
<path fill="none" stroke="red" d="M95,-34C107,-34 112.25,-34 120.88,-34"/>
<polygon fill="red" stroke="red" points="121,-37.5 131,-34 121,-30.5 121,-37.5"/>
</g>
<!-- Node0x600000712df0 -->
<g id="node3" class="node">
<title>Node0x600000712df0</title>
<polygon fill="none" stroke="black" points="255,-9 255,-77 343,-77 343,-9 255,-9"/>
<text text-anchor="middle" x="299" y="-66.6" font-family="Times,serif" font-size="8.00">word: shows</text>
<polyline fill="none" stroke="black" points="255,-60 343,-60 "/>
<text text-anchor="middle" x="299" y="-49.6" font-family="Times,serif" font-size="8.00">size: 6</text>
<polyline fill="none" stroke="black" points="255,-43 343,-43 "/>
<text text-anchor="middle" x="299" y="-32.6" font-family="Times,serif" font-size="8.00">next: 0x6000007179c0</text>
<polyline fill="none" stroke="black" points="255,-26 343,-26 "/>
<text text-anchor="middle" x="299" y="-15.6" font-family="Times,serif" font-size="8.00">prev: 0x6000007115c0</text>
</g>
<!-- Node0x6000007115c0&#45;&gt;Node0x600000712df0 -->
<g id="edge2" class="edge">
<title>Node0x6000007115c0:n&#45;&gt;Node0x600000712df0:n</title>
<path fill="none" stroke="red" d="M219,-34C231,-34 236.25,-34 244.88,-34"/>
<polygon fill="red" stroke="red" points="245,-37.5 255,-34 245,-30.5 245,-37.5"/>
</g>
<!-- Node0x6000007179c0 -->
<g id="node4" class="node">
<title>Node0x6000007179c0</title>
<polygon fill="none" stroke="black" points="379,-9 379,-77 466,-77 466,-9 379,-9"/>
<text text-anchor="middle" x="422.5" y="-66.6" font-family="Times,serif" font-size="8.00">word: nor</text>
<polyline fill="none" stroke="black" points="379,-60 466,-60 "/>
<text text-anchor="middle" x="422.5" y="-49.6" font-family="Times,serif" font-size="8.00">size: 11</text>
<polyline fill="none" stroke="black" points="379,-43 466,-43 "/>
<text text-anchor="middle" x="422.5" y="-32.6" font-family="Times,serif" font-size="8.00">next: 0x600000718450</text>
<polyline fill="none" stroke="black" points="379,-26 466,-26 "/>
<text text-anchor="middle" x="422.5" y="-15.6" font-family="Times,serif" font-size="8.00">prev: 0x600000712df0</text>
</g>
<!-- Node0x600000712df0&#45;&gt;Node0x6000007179c0 -->
<g id="edge3" class="edge">
<title>Node0x600000712df0:n&#45;&gt;Node0x6000007179c0:n</title>
<path fill="none" stroke="red" d="M343,-34C355,-34 360.25,-34 368.88,-34"/>
<polygon fill="red" stroke="red" points="369,-37.5 379,-34 369,-30.5 369,-37.5"/>
</g>
<!-- Node0x600000718450 -->
<g id="node5" class="node">
<title>Node0x600000718450</title>
<polygon fill="none" stroke="black" points="502,-9 502,-77 590,-77 590,-9 502,-9"/>
<text text-anchor="middle" x="546" y="-66.6" font-family="Times,serif" font-size="8.00">word: It</text>
<polyline fill="none" stroke="black" points="502,-60 590,-60 "/>
<text text-anchor="middle" x="546" y="-49.6" font-family="Times,serif" font-size="8.00">size: 38</text>
<polyline fill="none" stroke="black" points="502,-43 590,-43 "/>
<text text-anchor="middle" x="546" y="-32.6" font-family="Times,serif" font-size="8.00">next: 0x600000718e40</text>
<polyline fill="none" stroke="black" points="502,-26 590,-26 "/>
<text text-anchor="middle" x="546" y="-15.6" font-family="Times,serif" font-size="8.00">prev: 0x6000007179c0</text>
</g>
<!-- Node0x6000007179c0&#45;&gt;Node0x600000718450 -->
<g id="edge4" class="edge">
<title>Node0x6000007179c0:n&#45;&gt;Node0x600000718450:n</title>
<path fill="none" stroke="red" d="M466,-34C478,-34 483.25,-34 491.88,-34"/>
<polygon fill="red" stroke="red" points="492,-37.5 502,-34 492,-30.5 492,-37.5"/>
</g>
<!-- Node0x600000718e40 -->
<g id="node6" class="node">
<title>Node0x600000718e40</title>
<polygon fill="none" stroke="black" points="626,-9 626,-77 714,-77 714,-9 626,-9"/>
<text text-anchor="middle" x="670" y="-66.6" font-family="Times,serif" font-size="8.00">word: rather</text>
<polyline fill="none" stroke="black" points="626,-60 714,-60 "/>
<text text-anchor="middle" x="670" y="-49.6" font-family="Times,serif" font-size="8.00">size: 3</text>
<polyline fill="none" stroke="black" points="626,-43 714,-43 "/>
<text text-anchor="middle" x="670" y="-32.6" font-family="Times,serif" font-size="8.00">next: 0x60000071a160</text>
<polyline fill="none" stroke="black" points="626,-26 714,-26 "/>
<text text-anchor="middle" x="670" y="-15.6" font-family="Times,serif" font-size="8.00">prev: 0x600000718450</text>
</g>
<!-- Node0x600000718450&#45;&gt;Node0x600000718e40 -->
<g id="edge5" class="edge">
<title>Node0x600000718450:n&#45;&gt;Node0x600000718e40:n</title>
<path fill="none" stroke="red" d="M590,-34C602,-34 607.25,-34 615.88,-34"/>
<polygon fill="red" stroke="red" points="616,-37.5 626,-34 616,-30.5 616,-37.5"/>
</g>
<!-- Node0x60000071a160 -->
<g id="node7" class="node">
<title>Node0x60000071a160</title>
<polygon fill="none" stroke="black" points="750,-9 750,-77 838,-77 838,-9 750,-9"/>
<text text-anchor="middle" x="794" y="-66.6" font-family="Times,serif" font-size="8.00">word: forsworn</text>
<polyline fill="none" stroke="black" points="750,-60 838,-60 "/>
<text text-anchor="middle" x="794" y="-49.6" font-family="Times,serif" font-size="8.00">size: 4</text>
<polyline fill="none" stroke="black" points="750,-43 838,-43 "/>
<text text-anchor="middle" x="794" y="-32.6" font-family="Times,serif" font-size="8.00">next: 0x600000708ba0</text>
<polyline fill="none" stroke="black" points="750,-26 838,-26 "/>
<text text-anchor="middle" x="794" y="-15.6" font-family="Times,serif" font-size="8.00">prev: 0x600000718e40</text>
</g>
<!-- Node0x600000718e40&#45;&gt;Node0x60000071a160 -->
<g id="edge6" class="edge">
<title>Node0x600000718e40:n&#45;&gt;Node0x60000071a160:n</title>
<path fill="none" stroke="red" d="M714,-34C726,-34 731.25,-34 739.88,-34"/>
<polygon fill="red" stroke="red" points="740,-37.5 750,-34 740,-30.5 740,-37.5"/>
</g>
<!-- Node0x600000708ba0 -->
<g id="node8" class="node">
<title>Node0x600000708ba0</title>
<polygon fill="none" stroke="black" points="874,-9 874,-77 962,-77 962,-9 874,-9"/>
<text text-anchor="middle" x="918" y="-66.6" font-family="Times,serif" font-size="8.00">word: Twas</text>
<polyline fill="none" stroke="black" points="874,-60 962,-60 "/>
<text text-anchor="middle" x="918" y="-49.6" font-family="Times,serif" font-size="8.00">size: 1</text>
<polyline fill="none" stroke="black" points="874,-43 962,-43 "/>
<text text-anchor="middle" x="918" y="-32.6" font-family="Times,serif" font-size="8.00">next: 0x60000071e730</text>
<polyline fill="none" stroke="black" points="874,-26 962,-26 "/>
<text text-anchor="middle" x="918" y="-15.6" font-family="Times,serif" font-size="8.00">prev: 0x60000071a160</text>
</g>
<!-- Node0x60000071a160&#45;&gt;Node0x600000708ba0 -->
<g id="edge7" class="edge">
<title>Node0x60000071a160:n&#45;&gt;Node0x600000708ba0:n</title>
<path fill="none" stroke="red" d="M838,-34C850,-34 855.25,-34 863.88,-34"/>
<polygon fill="red" stroke="red" points="864,-37.5 874,-34 864,-30.5 864,-37.5"/>
</g>
<!-- Node0x60000071e730 -->
<g id="node9" class="node">
<title>Node0x60000071e730</title>
<polygon fill="none" stroke="black" points="998,-9 998,-77 1086,-77 1086,-9 998,-9"/>
<text text-anchor="middle" x="1042" y="-66.6" font-family="Times,serif" font-size="8.00">word: expire</text>
<polyline fill="none" stroke="black" points="998,-60 1086,-60 "/>
<text text-anchor="middle" x="1042" y="-49.6" font-family="Times,serif" font-size="8.00">size: 1</text>
<polyline fill="none" stroke="black" points="998,-43 1086,-43 "/>
<text text-anchor="middle" x="1042" y="-32.6" font-family="Times,serif" font-size="8.00">next: 0x60000071ea30</text>
<polyline fill="none" stroke="black" points="998,-26 1086,-26 "/>
<text text-anchor="middle" x="1042" y="-15.6" font-family="Times,serif" font-size="8.00">prev: 0x600000708ba0</text>
</g>
<!-- Node0x600000708ba0&#45;&gt;Node0x60000071e730 -->
<g id="edge8" class="edge">
<title>Node0x600000708ba0:n&#45;&gt;Node0x60000071e730:n</title>
<path fill="none" stroke="red" d="M962,-34C974,-34 979.25,-34 987.88,-34"/>
<polygon fill="red" stroke="red" points="988,-37.5 998,-34 988,-30.5 988,-37.5"/>
</g>
<!-- Node0x60000071ea30 -->
<g id="node10" class="node">
<title>Node0x60000071ea30</title>
<polygon fill="none" stroke="black" points="1122,-9 1122,-77 1210,-77 1210,-9 1122,-9"/>
<text text-anchor="middle" x="1166" y="-66.6" font-family="Times,serif" font-size="8.00">word: napkins</text>
<polyline fill="none" stroke="black" points="1122,-60 1210,-60 "/>
<text text-anchor="middle" x="1166" y="-49.6" font-family="Times,serif" font-size="8.00">size: 1</text>
<polyline fill="none" stroke="black" points="1122,-43 1210,-43 "/>
<text text-anchor="middle" x="1166" y="-32.6" font-family="Times,serif" font-size="8.00">next: 0x60000071f810</text>
<polyline fill="none" stroke="black" points="1122,-26 1210,-26 "/>
<text text-anchor="middle" x="1166" y="-15.6" font-family="Times,serif" font-size="8.00">prev: 0x60000071e730</text>
</g>
<!-- Node0x60000071e730&#45;&gt;Node0x60000071ea30 -->
<g id="edge9" class="edge">
<title>Node0x60000071e730:n&#45;&gt;Node0x60000071ea30:n</title>
<path fill="none" stroke="red" d="M1086,-34C1098,-34 1103.25,-34 1111.88,-34"/>
<polygon fill="red" stroke="red" points="1112,-37.5 1122,-34 1112,-30.5 1112,-37.5"/>
</g>
<!-- Node0x60000071f810 -->
<g id="node11" class="node">
<title>Node0x60000071f810</title>
<polygon fill="none" stroke="black" points="1246,-9 1246,-77 1334,-77 1334,-9 1246,-9"/>
<text text-anchor="middle" x="1290" y="-66.6" font-family="Times,serif" font-size="8.00">word: elder</text>
<polyline fill="none" stroke="black" points="1246,-60 1334,-60 "/>
<text text-anchor="middle" x="1290" y="-49.6" font-family="Times,serif" font-size="8.00">size: 1</text>
<polyline fill="none" stroke="black" points="1246,-43 1334,-43 "/>
<text text-anchor="middle" x="1290" y="-32.6" font-family="Times,serif" font-size="8.00">next: 0x60000071fa80</text>
<polyline fill="none" stroke="black" points="1246,-26 1334,-26 "/>
<text text-anchor="middle" x="1290" y="-15.6" font-family="Times,serif" font-size="8.00">prev: 0x60000071ea30</text>
</g>
<!-- Node0x60000071ea30&#45;&gt;Node0x60000071f810 -->
<g id="edge10" class="edge">
<title>Node0x60000071ea30:n&#45;&gt;Node0x60000071f810:n</title>
<path fill="none" stroke="red" d="M1210,-34C1222,-34 1227.25,-34 1235.88,-34"/>
<polygon fill="red" stroke="red" points="1236,-37.5 1246,-34 1236,-30.5 1236,-37.5"/>
</g>
<!-- Node0x60000071fa80 -->
<g id="node12" class="node">
<title>Node0x60000071fa80</title>
<polygon fill="none" stroke="black" points="1370,-9 1370,-77 1457,-77 1457,-9 1370,-9"/>
<text text-anchor="middle" x="1413.5" y="-66.6" font-family="Times,serif" font-size="8.00">word: Beauty</text>
<polyline fill="none" stroke="black" points="1370,-60 1457,-60 "/>
<text text-anchor="middle" x="1413.5" y="-49.6" font-family="Times,serif" font-size="8.00">size: 2</text>
<polyline fill="none" stroke="black" points="1370,-43 1457,-43 "/>
<text text-anchor="middle" x="1413.5" y="-32.6" font-family="Times,serif" font-size="8.00">next: 0x600000700c30</text>
<polyline fill="none" stroke="black" points="1370,-26 1457,-26 "/>
<text text-anchor="middle" x="1413.5" y="-15.6" font-family="Times,serif" font-size="8.00">prev: 0x60000071f810</text>
</g>
<!-- Node0x60000071f810&#45;&gt;Node0x60000071fa80 -->
<g id="edge11" class="edge">
<title>Node0x60000071f810:n&#45;&gt;Node0x60000071fa80:n</title>
<path fill="none" stroke="red" d="M1334,-34C1346,-34 1351.25,-34 1359.88,-34"/>
<polygon fill="red" stroke="red" points="1360,-37.5 1370,-34 1360,-30.5 1360,-37.5"/>
</g>
<!-- Node0x600000700c30 -->
<g id="node13" class="node">
<title>Node0x600000700c30</title>
<polygon fill="none" stroke="black" points="1493,-9 1493,-77 1580,-77 1580,-9 1493,-9"/>
<text text-anchor="middle" x="1536.5" y="-66.6" font-family="Times,serif" font-size="8.00">word: prepare</text>
<polyline fill="none" stroke="black" points="1493,-60 1580,-60 "/>
<text text-anchor="middle" x="1536.5" y="-49.6" font-family="Times,serif" font-size="8.00">size: 4</text>
<polyline fill="none" stroke="black" points="1493,-43 1580,-43 "/>
<text text-anchor="middle" x="1536.5" y="-32.6" font-family="Times,serif" font-size="8.00">next: 0x6000007037b0</text>
<polyline fill="none" stroke="black" points="1493,-26 1580,-26 "/>
<text text-anchor="middle" x="1536.5" y="-15.6" font-family="Times,serif" font-size="8.00">prev: 0x60000071fa80</text>
</g>
<!-- Node0x60000071fa80&#45;&gt;Node0x600000700c30 -->
<g id="edge12" class="edge">
<title>Node0x60000071fa80:n&#45;&gt;Node0x600000700c30:n</title>
<path fill="none" stroke="red" d="M1457,-34C1469,-34 1474.25,-34 1482.88,-34"/>
<polygon fill="red" stroke="red" points="1483,-37.5 1493,-34 1483,-30.5 1483,-37.5"/>
</g>
<!-- Node0x6000007037b0 -->
<g id="node14" class="node">
<title>Node0x6000007037b0</title>
<polygon fill="none" stroke="black" points="1616,-9 1616,-77 1704,-77 1704,-9 1616,-9"/>
<text text-anchor="middle" x="1660" y="-66.6" font-family="Times,serif" font-size="8.00">word: merchandise</text>
<polyline fill="none" stroke="black" points="1616,-60 1704,-60 "/>
<text text-anchor="middle" x="1660" y="-49.6" font-family="Times,serif" font-size="8.00">size: 1</text>
<polyline fill="none" stroke="black" points="1616,-43 1704,-43 "/>
<text text-anchor="middle" x="1660" y="-32.6" font-family="Times,serif" font-size="8.00">next: 0x600000732220</text>
<polyline fill="none" stroke="black" points="1616,-26 1704,-26 "/>
<text text-anchor="middle" x="1660" y="-15.6" font-family="Times,serif" font-size="8.00">prev: 0x600000700c30</text>
</g>
<!-- Node0x600000700c30&#45;&gt;Node0x6000007037b0 -->
<g id="edge13" class="edge">
<title>Node0x600000700c30:n&#45;&gt;Node0x6000007037b0:n</title>
<path fill="none" stroke="red" d="M1580,-34C1592,-34 1597.25,-34 1605.88,-34"/>
<polygon fill="red" stroke="red" points="1606,-37.5 1616,-34 1606,-30.5 1606,-37.5"/>
</g>
<!-- Node0x600000732220 -->
<g id="node15" class="node">
<title>Node0x600000732220</title>
<polygon fill="none" stroke="black" points="1740,-9 1740,-77 1828,-77 1828,-9 1740,-9"/>
<text text-anchor="middle" x="1784" y="-66.6" font-family="Times,serif" font-size="8.00">word: uprous</text>
<polyline fill="none" stroke="black" points="1740,-60 1828,-60 "/>
<text text-anchor="middle" x="1784" y="-49.6" font-family="Times,serif" font-size="8.00">size: 1</text>
<polyline fill="none" stroke="black" points="1740,-43 1828,-43 "/>
<text text-anchor="middle" x="1784" y="-32.6" font-family="Times,serif" font-size="8.00">next: 0x600000732d30</text>
<polyline fill="none" stroke="black" points="1740,-26 1828,-26 "/>
<text text-anchor="middle" x="1784" y="-15.6" font-family="Times,serif" font-size="8.00">prev: 0x6000007037b0</text>
</g>
<!-- Node0x6000007037b0&#45;&gt;Node0x600000732220 -->
<g id="edge14" class="edge">
<title>Node0x6000007037b0:n&#45;&gt;Node0x600000732220:n</title>
<path fill="none" stroke="red" d="M1704,-34C1716,-34 1721.25,-34 1729.88,-34"/>
<polygon fill="red" stroke="red" points="1730,-37.5 1740,-34 1730,-30.5 1730,-37.5"/>
</g>
<!-- Node0x600000732d30 -->
<g id="node16" class="node">
<title>Node0x600000732d30</title>
<polygon fill="none" stroke="black" points="1864,-9 1864,-77 1952,-77 1952,-9 1864,-9"/>
<text text-anchor="middle" x="1908" y="-66.6" font-family="Times,serif" font-size="8.00">word: pure</text>
<polyline fill="none" stroke="black" points="1864,-60 1952,-60 "/>
<text text-anchor="middle" x="1908" y="-49.6" font-family="Times,serif" font-size="8.00">size: 3</text>
<polyline fill="none" stroke="black" points="1864,-43 1952,-43 "/>
<text text-anchor="middle" x="1908" y="-32.6" font-family="Times,serif" font-size="8.00">next: 0x600000733540</text>
<polyline fill="none" stroke="black" points="1864,-26 1952,-26 "/>
<text text-anchor="middle" x="1908" y="-15.6" font-family="Times,serif" font-size="8.00">prev: 0x600000732220</text>
</g>
<!-- Node0x600000732220&#45;&gt;Node0x600000732d30 -->
<g id="edge15" class="edge">
<title>Node0x600000732220:n&#45;&gt;Node0x600000732d30:n</title>
<path fill="none" stroke="red" d="M1828,-34C1840,-34 1845.25,-34 1853.88,-34"/>
<polygon fill="red" stroke="red" points="1854,-37.5 1864,-34 1854,-30.5 1854,-37.5"/>
</g>
<!-- Node0x600000733540 -->
<g id="node17" class="node">
<title>Node0x600000733540</title>
<polygon fill="none" stroke="black" points="1988,-9 1988,-77 2076,-77 2076,-9 1988,-9"/>
<text text-anchor="middle" x="2032" y="-66.6" font-family="Times,serif" font-size="8.00">word: fantasticoes</text>
<polyline fill="none" stroke="black" points="1988,-60 2076,-60 "/>
<text text-anchor="middle" x="2032" y="-49.6" font-family="Times,serif" font-size="8.00">size: 1</text>
<polyline fill="none" stroke="black" points="1988,-43 2076,-43 "/>
<text text-anchor="middle" x="2032" y="-32.6" font-family="Times,serif" font-size="8.00">next: 0x600000734120</text>
<polyline fill="none" stroke="black" points="1988,-26 2076,-26 "/>
<text text-anchor="middle" x="2032" y="-15.6" font-family="Times,serif" font-size="8.00">prev: 0x600000732d30</text>
</g>
<!-- Node0x600000732d30&#45;&gt;Node0x600000733540 -->
<g id="edge16" class="edge">
<title>Node0x600000732d30:n&#45;&gt;Node0x600000733540:n</title>
<path fill="none" stroke="red" d="M1952,-34C1964,-34 1969.25,-34 1977.88,-34"/>
<polygon fill="red" stroke="red" points="1978,-37.5 1988,-34 1978,-30.5 1978,-37.5"/>
</g>
<!-- Node0x600000734120 -->
<g id="node18" class="node">
<title>Node0x600000734120</title>
<polygon fill="none" stroke="black" points="2112,-9 2112,-77 2200,-77 2200,-9 2112,-9"/>
<text text-anchor="middle" x="2156" y="-66.6" font-family="Times,serif" font-size="8.00">word: solely</text>
<polyline fill="none" stroke="black" points="2112,-60 2200,-60 "/>
<text text-anchor="middle" x="2156" y="-49.6" font-family="Times,serif" font-size="8.00">size: 2</text>
<polyline fill="none" stroke="black" points="2112,-43 2200,-43 "/>
<text text-anchor="middle" x="2156" y="-32.6" font-family="Times,serif" font-size="8.00">next: 0x600000734330</text>
<polyline fill="none" stroke="black" points="2112,-26 2200,-26 "/>
<text text-anchor="middle" x="2156" y="-15.6" font-family="Times,serif" font-size="8.00">prev: 0x600000733540</text>
</g>
<!-- Node0x600000733540&#45;&gt;Node0x600000734120 -->
<g id="edge17" class="edge">
<title>Node0x600000733540:n&#45;&gt;Node0x600000734120:n</title>
<path fill="none" stroke="red" d="M2076,-34C2088,-34 2093.25,-34 2101.88,-34"/>
<polygon fill="red" stroke="red" points="2102,-37.5 2112,-34 2102,-30.5 2102,-37.5"/>
</g>
<!-- Node0x600000734330 -->
<g id="node19" class="node">
<title>Node0x600000734330</title>
<polygon fill="none" stroke="black" points="2236,-9 2236,-77 2324,-77 2324,-9 2236,-9"/>
<text text-anchor="middle" x="2280" y="-66.6" font-family="Times,serif" font-size="8.00">word: chase</text>
<polyline fill="none" stroke="black" points="2236,-60 2324,-60 "/>
<text text-anchor="middle" x="2280" y="-49.6" font-family="Times,serif" font-size="8.00">size: 1</text>
<polyline fill="none" stroke="black" points="2236,-43 2324,-43 "/>
<text text-anchor="middle" x="2280" y="-32.6" font-family="Times,serif" font-size="8.00">next: 0x600000735f80</text>
<polyline fill="none" stroke="black" points="2236,-26 2324,-26 "/>
<text text-anchor="middle" x="2280" y="-15.6" font-family="Times,serif" font-size="8.00">prev: 0x600000734120</text>
</g>
<!-- Node0x600000734120&#45;&gt;Node0x600000734330 -->
<g id="edge18" class="edge">
<title>Node0x600000734120:n&#45;&gt;Node0x600000734330:n</title>
<path fill="none" stroke="red" d="M2200,-34C2212,-34 2217.25,-34 2225.88,-34"/>
<polygon fill="red" stroke="red" points="2226,-37.5 2236,-34 2226,-30.5 2226,-37.5"/>
</g>
<!-- Node0x600000735f80 -->
<g id="node20" class="node">
<title>Node0x600000735f80</title>
<polygon fill="none" stroke="black" points="2360,-9 2360,-77 2448,-77 2448,-9 2360,-9"/>
<text text-anchor="middle" x="2404" y="-66.6" font-family="Times,serif" font-size="8.00">word: over</text>
<polyline fill="none" stroke="black" points="2360,-60 2448,-60 "/>
<text text-anchor="middle" x="2404" y="-49.6" font-family="Times,serif" font-size="8.00">size: 2</text>
<polyline fill="none" stroke="black" points="2360,-43 2448,-43 "/>
<text text-anchor="middle" x="2404" y="-32.6" font-family="Times,serif" font-size="8.00">next: 0x600000738a50</text>
<polyline fill="none" stroke="black" points="2360,-26 2448,-26 "/>
<text text-anchor="middle" x="2404" y="-15.6" font-family="Times,serif" font-size="8.00">prev: 0x600000734330</text>
</g>
<!-- Node0x600000734330&#45;&gt;Node0x600000735f80 -->
<g id="edge19" class="edge">
<title>Node0x600000734330:n&#45;&gt;Node0x600000735f80:n</title>
<path fill="none" stroke="red" d="M2324,-34C2336,-34 2341.25,-34 2349.88,-34"/>
<polygon fill="red" stroke="red" points="2350,-37.5 2360,-34 2350,-30.5 2350,-37.5"/>
</g>
<!-- Node0x600000738a50 -->
<g id="node21" class="node">
<title>Node0x600000738a50</title>
<polygon fill="none" stroke="black" points="2484,-9 2484,-77 2571,-77 2571,-9 2484,-9"/>
<text text-anchor="middle" x="2527.5" y="-66.6" font-family="Times,serif" font-size="8.00">word: brave</text>
<polyline fill="none" stroke="black" points="2484,-60 2571,-60 "/>
<text text-anchor="middle" x="2527.5" y="-49.6" font-family="Times,serif" font-size="8.00">size: 2</text>
<polyline fill="none" stroke="black" points="2484,-43 2571,-43 "/>
<text text-anchor="middle" x="2527.5" y="-32.6" font-family="Times,serif" font-size="8.00">next: 0x600000738ba0</text>
<polyline fill="none" stroke="black" points="2484,-26 2571,-26 "/>
<text text-anchor="middle" x="2527.5" y="-15.6" font-family="Times,serif" font-size="8.00">prev: 0x600000735f80</text>
</g>
<!-- Node0x600000735f80&#45;&gt;Node0x600000738a50 -->
<g id="edge20" class="edge">
<title>Node0x600000735f80:n&#45;&gt;Node0x600000738a50:n</title>
<path fill="none" stroke="red" d="M2448,-34C2460,-34 2465.25,-34 2473.88,-34"/>
<polygon fill="red" stroke="red" points="2474,-37.5 2484,-34 2474,-30.5 2474,-37.5"/>
</g>
<!-- Node0x600000738ba0 -->
<g id="node22" class="node">
<title>Node0x600000738ba0</title>
<polygon fill="none" stroke="black" points="2607,-9 2607,-77 2695,-77 2695,-9 2607,-9"/>
<text text-anchor="middle" x="2651" y="-66.6" font-family="Times,serif" font-size="8.00">word: Alive</text>
<polyline fill="none" stroke="black" points="2607,-60 2695,-60 "/>
<text text-anchor="middle" x="2651" y="-49.6" font-family="Times,serif" font-size="8.00">size: 1</text>
<polyline fill="none" stroke="black" points="2607,-43 2695,-43 "/>
<text text-anchor="middle" x="2651" y="-32.6" font-family="Times,serif" font-size="8.00">next: 0x600000738c90</text>
<polyline fill="none" stroke="black" points="2607,-26 2695,-26 "/>
<text text-anchor="middle" x="2651" y="-15.6" font-family="Times,serif" font-size="8.00">prev: 0x600000738a50</text>
</g>
<!-- Node0x600000738a50&#45;&gt;Node0x600000738ba0 -->
<g id="edge21" class="edge">
<title>Node0x600000738a50:n&#45;&gt;Node0x600000738ba0:n</title>
<path fill="none" stroke="red" d="M2571,-34C2583,-34 2588.25,-34 2596.88,-34"/>
<polygon fill="red" stroke="red" points="2597,-37.5 2607,-34 2597,-30.5 2597,-37.5"/>
</g>
<!-- Node0x600000738c90 -->
<g id="node23" class="node">
<title>Node0x600000738c90</title>
<polygon fill="none" stroke="black" points="2731,-9 2731,-77 2819,-77 2819,-9 2731,-9"/>
<text text-anchor="middle" x="2775" y="-66.6" font-family="Times,serif" font-size="8.00">word: conduct</text>
<polyline fill="none" stroke="black" points="2731,-60 2819,-60 "/>
<text text-anchor="middle" x="2775" y="-49.6" font-family="Times,serif" font-size="8.00">size: 3</text>
<polyline fill="none" stroke="black" points="2731,-43 2819,-43 "/>
<text text-anchor="middle" x="2775" y="-32.6" font-family="Times,serif" font-size="8.00">next: 0x600000739260</text>
<polyline fill="none" stroke="black" points="2731,-26 2819,-26 "/>
<text text-anchor="middle" x="2775" y="-15.6" font-family="Times,serif" font-size="8.00">prev: 0x600000738ba0</text>
</g>
<!-- Node0x600000738ba0&#45;&gt;Node0x600000738c90 -->
<g id="edge22" class="edge">
<title>Node0x600000738ba0:n&#45;&gt;Node0x600000738c90:n</title>
<path fill="none" stroke="red" d="M2695,-34C2707,-34 2712.25,-34 2720.88,-34"/>
<polygon fill="red" stroke="red" points="2721,-37.5 2731,-34 2721,-30.5 2721,-37.5"/>
</g>
<!-- Node0x600000739260 -->
<g id="node24" class="node">
<title>Node0x600000739260</title>
<polygon fill="none" stroke="black" points="2855,-9 2855,-77 2943,-77 2943,-9 2855,-9"/>
<text text-anchor="middle" x="2899" y="-66.6" font-family="Times,serif" font-size="8.00">word: unruly</text>
<polyline fill="none" stroke="black" points="2855,-60 2943,-60 "/>
<text text-anchor="middle" x="2899" y="-49.6" font-family="Times,serif" font-size="8.00">size: 1</text>
<polyline fill="none" stroke="black" points="2855,-43 2943,-43 "/>
<text text-anchor="middle" x="2899" y="-32.6" font-family="Times,serif" font-size="8.00">next: 0x600000739a10</text>
<polyline fill="none" stroke="black" points="2855,-26 2943,-26 "/>
<text text-anchor="middle" x="2899" y="-15.6" font-family="Times,serif" font-size="8.00">prev: 0x600000738c90</text>
</g>
<!-- Node0x600000738c90&#45;&gt;Node0x600000739260 -->
<g id="edge23" class="edge">
<title>Node0x600000738c90:n&#45;&gt;Node0x600000739260:n</title>
<path fill="none" stroke="red" d="M2819,-34C2831,-34 2836.25,-34 2844.88,-34"/>
<polygon fill="red" stroke="red" points="2845,-37.5 2855,-34 2845,-30.5 2845,-37.5"/>
</g>
<!-- Node0x600000739a10 -->
<g id="node25" class="node">
<title>Node0x600000739a10</title>
<polygon fill="none" stroke="black" points="2979,-9 2979,-77 3067,-77 3067,-9 2979,-9"/>
<text text-anchor="middle" x="3023" y="-66.6" font-family="Times,serif" font-size="8.00">word: abuses</text>
<polyline fill="none" stroke="black" points="2979,-60 3067,-60 "/>
<text text-anchor="middle" x="3023" y="-49.6" font-family="Times,serif" font-size="8.00">size: 1</text>
<polyline fill="none" stroke="black" points="2979,-43 3067,-43 "/>
<text text-anchor="middle" x="3023" y="-32.6" font-family="Times,serif" font-size="8.00">next: 0x60000073ac40</text>
<polyline fill="none" stroke="black" points="2979,-26 3067,-26 "/>
<text text-anchor="middle" x="3023" y="-15.6" font-family="Times,serif" font-size="8.00">prev: 0x600000739260</text>
</g>
<!-- Node0x600000739260&#45;&gt;Node0x600000739a10 -->
<g id="edge24" class="edge">
<title>Node0x600000739260:n&#45;&gt;Node0x600000739a10:n</title>
<path fill="none" stroke="red" d="M2943,-34C2955,-34 2960.25,-34 2968.88,-34"/>
<polygon fill="red" stroke="red" points="2969,-37.5 2979,-34 2969,-30.5 2969,-37.5"/>
</g>
<!-- Node0x60000073ac40 -->
<g id="node26" class="node">
<title>Node0x60000073ac40</title>
<polygon fill="none" stroke="black" points="3103,-9 3103,-77 3191,-77 3191,-9 3103,-9"/>
<text text-anchor="middle" x="3147" y="-66.6" font-family="Times,serif" font-size="8.00">word: angelical</text>
<polyline fill="none" stroke="black" points="3103,-60 3191,-60 "/>
<text text-anchor="middle" x="3147" y="-49.6" font-family="Times,serif" font-size="8.00">size: 1</text>
<polyline fill="none" stroke="black" points="3103,-43 3191,-43 "/>
<text text-anchor="middle" x="3147" y="-32.6" font-family="Times,serif" font-size="8.00">next: 0x60000073d6b0</text>
<polyline fill="none" stroke="black" points="3103,-26 3191,-26 "/>
<text text-anchor="middle" x="3147" y="-15.6" font-family="Times,serif" font-size="8.00">prev: 0x600000739a10</text>
</g>
<!-- Node0x600000739a10&#45;&gt;Node0x60000073ac40 -->
<g id="edge25" class="edge">
<title>Node0x600000739a10:n&#45;&gt;Node0x60000073ac40:n</title>
<path fill="none" stroke="red" d="M3067,-34C3079,-34 3084.25,-34 3092.88,-34"/>
<polygon fill="red" stroke="red" points="3093,-37.5 3103,-34 3093,-30.5 3093,-37.5"/>
</g>
<!-- Node0x60000073d6b0 -->
<g id="node27" class="node">
<title>Node0x60000073d6b0</title>
<polygon fill="none" stroke="black" points="3227,-9 3227,-77 3315,-77 3315,-9 3227,-9"/>
<text text-anchor="middle" x="3271" y="-66.6" font-family="Times,serif" font-size="8.00">word: promise</text>
<polyline fill="none" stroke="black" points="3227,-60 3315,-60 "/>
<text text-anchor="middle" x="3271" y="-49.6" font-family="Times,serif" font-size="8.00">size: 1</text>
<polyline fill="none" stroke="black" points="3227,-43 3315,-43 "/>
<text text-anchor="middle" x="3271" y="-32.6" font-family="Times,serif" font-size="8.00">next: 0x60000073ea60</text>
<polyline fill="none" stroke="black" points="3227,-26 3315,-26 "/>
<text text-anchor="middle" x="3271" y="-15.6" font-family="Times,serif" font-size="8.00">prev: 0x60000073ac40</text>
</g>
<!-- Node0x60000073ac40&#45;&gt;Node0x60000073d6b0 -->
<g id="edge26" class="edge">
<title>Node0x60000073ac40:n&#45;&gt;Node0x60000073d6b0:n</title>
<path fill="none" stroke="red" d="M3191,-34C3203,-34 3208.25,-34 3216.88,-34"/>
<polygon fill="red" stroke="red" points="3217,-37.5 3227,-34 3217,-30.5 3217,-37.5"/>
</g>
<!-- Node0x60000073ea60 -->
<g id="node28" class="node">
<title>Node0x60000073ea60</title>
<polygon fill="none" stroke="black" points="3351,-9 3351,-77 3439,-77 3439,-9 3351,-9"/>
<text text-anchor="middle" x="3395" y="-66.6" font-family="Times,serif" font-size="8.00">word: needy</text>
<polyline fill="none" stroke="black" points="3351,-60 3439,-60 "/>
<text text-anchor="middle" x="3395" y="-49.6" font-family="Times,serif" font-size="8.00">size: 3</text>
<polyline fill="none" stroke="black" points="3351,-43 3439,-43 "/>
<text text-anchor="middle" x="3395" y="-32.6" font-family="Times,serif" font-size="8.00">next: 0x60000073f4b0</text>
<polyline fill="none" stroke="black" points="3351,-26 3439,-26 "/>
<text text-anchor="middle" x="3395" y="-15.6" font-family="Times,serif" font-size="8.00">prev: 0x60000073d6b0</text>
</g>
<!-- Node0x60000073d6b0&#45;&gt;Node0x60000073ea60 -->
<g id="edge27" class="edge">
<title>Node0x60000073d6b0:n&#45;&gt;Node0x60000073ea60:n</title>
<path fill="none" stroke="red" d="M3315,-34C3327,-34 3332.25,-34 3340.88,-34"/>
<polygon fill="red" stroke="red" points="3341,-37.5 3351,-34 3341,-30.5 3341,-37.5"/>
</g>
<!-- Node0x60000073f4b0 -->
<g id="node29" class="node">
<title>Node0x60000073f4b0</title>
<polygon fill="none" stroke="black" points="3475,-9 3475,-77 3563,-77 3563,-9 3475,-9"/>
<text text-anchor="middle" x="3519" y="-66.6" font-family="Times,serif" font-size="8.00">word: blame</text>
<polyline fill="none" stroke="black" points="3475,-60 3563,-60 "/>
<text text-anchor="middle" x="3519" y="-49.6" font-family="Times,serif" font-size="8.00">size: 1</text>
<polyline fill="none" stroke="black" points="3475,-43 3563,-43 "/>
<text text-anchor="middle" x="3519" y="-32.6" font-family="Times,serif" font-size="8.00">next: 0x60000073fa50</text>
<polyline fill="none" stroke="black" points="3475,-26 3563,-26 "/>
<text text-anchor="middle" x="3519" y="-15.6" font-family="Times,serif" font-size="8.00">prev: 0x60000073ea60</text>
</g>
<!-- Node0x60000073ea60&#45;&gt;Node0x60000073f4b0 -->
<g id="edge28" class="edge">
<title>Node0x60000073ea60:n&#45;&gt;Node0x60000073f4b0:n</title>
<path fill="none" stroke="red" d="M3439,-34C3451,-34 3456.25,-34 3464.88,-34"/>
<polygon fill="red" stroke="red" points="3465,-37.5 3475,-34 3465,-30.5 3465,-37.5"/>
</g>
<!-- Node0x60000073fa50 -->
<g id="node30" class="node">
<title>Node0x60000073fa50</title>
<polygon fill="none" stroke="black" points="3599,-9 3599,-77 3686,-77 3686,-9 3599,-9"/>
<text text-anchor="middle" x="3642.5" y="-66.6" font-family="Times,serif" font-size="8.00">word: Bethink</text>
<polyline fill="none" stroke="black" points="3599,-60 3686,-60 "/>
<text text-anchor="middle" x="3642.5" y="-49.6" font-family="Times,serif" font-size="8.00">size: 1</text>
<polyline fill="none" stroke="black" points="3599,-43 3686,-43 "/>
<text text-anchor="middle" x="3642.5" y="-32.6" font-family="Times,serif" font-size="8.00">next: 0x6000007216e0</text>
<polyline fill="none" stroke="black" points="3599,-26 3686,-26 "/>
<text text-anchor="middle" x="3642.5" y="-15.6" font-family="Times,serif" font-size="8.00">prev: 0x60000073f4b0</text>
</g>
<!-- Node0x60000073f4b0&#45;&gt;Node0x60000073fa50 -->
<g id="edge29" class="edge">
<title>Node0x60000073f4b0:n&#45;&gt;Node0x60000073fa50:n</title>
<path fill="none" stroke="red" d="M3563,-34C3575,-34 3580.25,-34 3588.88,-34"/>
<polygon fill="red" stroke="red" points="3589,-37.5 3599,-34 3589,-30.5 3589,-37.5"/>
</g>
<!-- Node0x6000007216e0 -->
<g id="node31" class="node">
<title>Node0x6000007216e0</title>
<polygon fill="none" stroke="black" points="3722,-9 3722,-77 3809,-77 3809,-9 3722,-9"/>
<text text-anchor="middle" x="3765.5" y="-66.6" font-family="Times,serif" font-size="8.00">word: dishonour</text>
<polyline fill="none" stroke="black" points="3722,-60 3809,-60 "/>
<text text-anchor="middle" x="3765.5" y="-49.6" font-family="Times,serif" font-size="8.00">size: 1</text>
<polyline fill="none" stroke="black" points="3722,-43 3809,-43 "/>
<text text-anchor="middle" x="3765.5" y="-32.6" font-family="Times,serif" font-size="8.00">next: 0x60000070bae0</text>
<polyline fill="none" stroke="black" points="3722,-26 3809,-26 "/>
<text text-anchor="middle" x="3765.5" y="-15.6" font-family="Times,serif" font-size="8.00">prev: 0x60000073fa50</text>
</g>
<!-- Node0x60000073fa50&#45;&gt;Node0x6000007216e0 -->
<g id="edge30" class="edge">
<title>Node0x60000073fa50:n&#45;&gt;Node0x6000007216e0:n</title>
<path fill="none" stroke="red" d="M3686,-34C3698,-34 3703.25,-34 3711.88,-34"/>
<polygon fill="red" stroke="red" points="3712,-37.5 3722,-34 3712,-30.5 3712,-37.5"/>
</g>
<!-- Node0x60000070bae0 -->
<g id="node32" class="node">
<title>Node0x60000070bae0</title>
<polygon fill="none" stroke="black" points="3845,-9 3845,-77 3933,-77 3933,-9 3845,-9"/>
<text text-anchor="middle" x="3889" y="-66.6" font-family="Times,serif" font-size="8.00">word: noted</text>
<polyline fill="none" stroke="black" points="3845,-60 3933,-60 "/>
<text text-anchor="middle" x="3889" y="-49.6" font-family="Times,serif" font-size="8.00">size: 1</text>
<polyline fill="none" stroke="black" points="3845,-43 3933,-43 "/>
<text text-anchor="middle" x="3889" y="-32.6" font-family="Times,serif" font-size="8.00">next: 0x60000070bdb0</text>
<polyline fill="none" stroke="black" points="3845,-26 3933,-26 "/>
<text text-anchor="middle" x="3889" y="-15.6" font-family="Times,serif" font-size="8.00">prev: 0x6000007216e0</text>
</g>
<!-- Node0x6000007216e0&#45;&gt;Node0x60000070bae0 -->
<g id="edge31" class="edge">
<title>Node0x6000007216e0:n&#45;&gt;Node0x60000070bae0:n</title>
<path fill="none" stroke="red" d="M3809,-34C3821,-34 3826.25,-34 3834.88,-34"/>
<polygon fill="red" stroke="red" points="3835,-37.5 3845,-34 3835,-30.5 3835,-37.5"/>
</g>
<!-- Node0x60000070bdb0 -->
<g id="node33" class="node">
<title>Node0x60000070bdb0</title>
<polygon fill="none" stroke="black" points="3969,-9 3969,-77 4057,-77 4057,-9 3969,-9"/>
<text text-anchor="middle" x="4013" y="-66.6" font-family="Times,serif" font-size="8.00">word: shelves</text>
<polyline fill="none" stroke="black" points="3969,-60 4057,-60 "/>
<text text-anchor="middle" x="4013" y="-49.6" font-family="Times,serif" font-size="8.00">size: 1</text>
<polyline fill="none" stroke="black" points="3969,-43 4057,-43 "/>
<text text-anchor="middle" x="4013" y="-32.6" font-family="Times,serif" font-size="8.00">next: 0x6000007265b0</text>
<polyline fill="none" stroke="black" points="3969,-26 4057,-26 "/>
<text text-anchor="middle" x="4013" y="-15.6" font-family="Times,serif" font-size="8.00">prev: 0x60000070bae0</text>
</g>
<!-- Node0x60000070bae0&#45;&gt;Node0x60000070bdb0 -->
<g id="edge32" class="edge">
<title>Node0x60000070bae0:n&#45;&gt;Node0x60000070bdb0:n</title>
<path fill="none" stroke="red" d="M3933,-34C3945,-34 3950.25,-34 3958.88,-34"/>
<polygon fill="red" stroke="red" points="3959,-37.5 3969,-34 3959,-30.5 3959,-37.5"/>
</g>
<!-- Node0x6000007265b0 -->
<g id="node34" class="node">
<title>Node0x6000007265b0</title>
<polygon fill="none" stroke="black" points="4093,-9 4093,-77 4181,-77 4181,-9 4093,-9"/>
<text text-anchor="middle" x="4137" y="-66.6" font-family="Times,serif" font-size="8.00">word: comfortable</text>
<polyline fill="none" stroke="black" points="4093,-60 4181,-60 "/>
<text text-anchor="middle" x="4137" y="-49.6" font-family="Times,serif" font-size="8.00">size: 1</text>
<polyline fill="none" stroke="black" points="4093,-43 4181,-43 "/>
<text text-anchor="middle" x="4137" y="-32.6" font-family="Times,serif" font-size="8.00">next: 0x0</text>
<polyline fill="none" stroke="black" points="4093,-26 4181,-26 "/>
<text text-anchor="middle" x="4137" y="-15.6" font-family="Times,serif" font-size="8.00">prev: 0x60000070bdb0</text>
</g>
<!-- Node0x60000070bdb0&#45;&gt;Node0x6000007265b0 -->
<g id="edge33" class="edge">
<title>Node0x60000070bdb0:n&#45;&gt;Node0x6000007265b0:n</title>
<path fill="none" stroke="red" d="M4057,-34C4069,-34 4074.25,-34 4082.88,-34"/>
<polygon fill="red" stroke="red" points="4083,-37.5 4093,-34 4083,-30.5 4083,-37.5"/>
</g>
</g>
</svg>
