<?xml version="1.0" encoding="UTF-8" standalone="no"?>
<!DOCTYPE svg PUBLIC "-//W3C//DTD SVG 1.1//EN"
 "http://www.w3.org/Graphics/SVG/1.1/DTD/svg11.dtd">
<!-- Generated by graphviz version 2.50.0 (20211204.2007)
 -->
<!-- Title: G Pages: 1 -->
<svg width="4321pt" height="117pt"
 viewBox="0.00 0.00 4321.00 117.00" xmlns="http://www.w3.org/2000/svg" xmlns:xlink="http://www.w3.org/1999/xlink">
<g id="graph0" class="graph" transform="scale(1 1) rotate(0) translate(4 113)">
<title>G</title>
<polygon fill="white" stroke="transparent" points="-4,4 -4,-113 4317,-113 4317,4 -4,4"/>
<g id="clust4" class="cluster">
<title>cluster1098</title>
<polygon fill="none" stroke="black" points="379,-8 379,-101 467,-101 467,-8 379,-8"/>
<text text-anchor="middle" x="423" y="-85.8" font-family="Times,serif" font-size="14.00">1098</text>
</g>
<g id="clust14" class="cluster">
<title>cluster1108</title>
<polygon fill="none" stroke="black" points="1618,-8 1618,-101 1705,-101 1705,-8 1618,-8"/>
<text text-anchor="middle" x="1661.5" y="-85.8" font-family="Times,serif" font-size="14.00">1108</text>
</g>
<g id="clust17" class="cluster">
<title>cluster1111</title>
<polygon fill="none" stroke="black" points="1989,-8 1989,-101 2077,-101 2077,-8 1989,-8"/>
<text text-anchor="middle" x="2033" y="-85.8" font-family="Times,serif" font-size="14.00">1111</text>
</g>
<g id="clust18" class="cluster">
<title>cluster1112</title>
<polygon fill="none" stroke="black" points="2113,-8 2113,-101 2201,-101 2201,-8 2113,-8"/>
<text text-anchor="middle" x="2157" y="-85.8" font-family="Times,serif" font-size="14.00">1112</text>
</g>
<g id="clust16" class="cluster">
<title>cluster1110</title>
<polygon fill="none" stroke="black" points="1865,-8 1865,-101 1953,-101 1953,-8 1865,-8"/>
<text text-anchor="middle" x="1909" y="-85.8" font-family="Times,serif" font-size="14.00">1110</text>
</g>
<g id="clust15" class="cluster">
<title>cluster1109</title>
<polygon fill="none" stroke="black" points="1741,-8 1741,-101 1829,-101 1829,-8 1741,-8"/>
<text text-anchor="middle" x="1785" y="-85.8" font-family="Times,serif" font-size="14.00">1109</text>
</g>
<g id="clust1" class="cluster">
<title>cluster1095</title>
<polygon fill="none" stroke="black" points="8,-8 8,-101 95,-101 95,-8 8,-8"/>
<text text-anchor="middle" x="51.5" y="-85.8" font-family="Times,serif" font-size="14.00">1095</text>
</g>
<g id="clust2" class="cluster">
<title>cluster1096</title>
<polygon fill="none" stroke="black" points="131,-8 131,-101 219,-101 219,-8 131,-8"/>
<text text-anchor="middle" x="175" y="-85.8" font-family="Times,serif" font-size="14.00">1096</text>
</g>
<g id="clust3" class="cluster">
<title>cluster1097</title>
<polygon fill="none" stroke="black" points="255,-8 255,-101 343,-101 343,-8 255,-8"/>
<text text-anchor="middle" x="299" y="-85.8" font-family="Times,serif" font-size="14.00">1097</text>
</g>
<g id="clust5" class="cluster">
<title>cluster1099</title>
<polygon fill="none" stroke="black" points="503,-8 503,-101 591,-101 591,-8 503,-8"/>
<text text-anchor="middle" x="547" y="-85.8" font-family="Times,serif" font-size="14.00">1099</text>
</g>
<g id="clust6" class="cluster">
<title>cluster1100</title>
<polygon fill="none" stroke="black" points="627,-8 627,-101 715,-101 715,-8 627,-8"/>
<text text-anchor="middle" x="671" y="-85.8" font-family="Times,serif" font-size="14.00">1100</text>
</g>
<g id="clust7" class="cluster">
<title>cluster1101</title>
<polygon fill="none" stroke="black" points="751,-8 751,-101 839,-101 839,-8 751,-8"/>
<text text-anchor="middle" x="795" y="-85.8" font-family="Times,serif" font-size="14.00">1101</text>
</g>
<g id="clust8" class="cluster">
<title>cluster1102</title>
<polygon fill="none" stroke="black" points="875,-8 875,-101 963,-101 963,-8 875,-8"/>
<text text-anchor="middle" x="919" y="-85.8" font-family="Times,serif" font-size="14.00">1102</text>
</g>
<g id="clust9" class="cluster">
<title>cluster1103</title>
<polygon fill="none" stroke="black" points="999,-8 999,-101 1087,-101 1087,-8 999,-8"/>
<text text-anchor="middle" x="1043" y="-85.8" font-family="Times,serif" font-size="14.00">1103</text>
</g>
<g id="clust10" class="cluster">
<title>cluster1104</title>
<polygon fill="none" stroke="black" points="1123,-8 1123,-101 1211,-101 1211,-8 1123,-8"/>
<text text-anchor="middle" x="1167" y="-85.8" font-family="Times,serif" font-size="14.00">1104</text>
</g>
<g id="clust11" class="cluster">
<title>cluster1105</title>
<polygon fill="none" stroke="black" points="1247,-8 1247,-101 1334,-101 1334,-8 1247,-8"/>
<text text-anchor="middle" x="1290.5" y="-85.8" font-family="Times,serif" font-size="14.00">1105</text>
</g>
<g id="clust12" class="cluster">
<title>cluster1106</title>
<polygon fill="none" stroke="black" points="1370,-8 1370,-101 1458,-101 1458,-8 1370,-8"/>
<text text-anchor="middle" x="1414" y="-85.8" font-family="Times,serif" font-size="14.00">1106</text>
</g>
<g id="clust13" class="cluster">
<title>cluster1107</title>
<polygon fill="none" stroke="black" points="1494,-8 1494,-101 1582,-101 1582,-8 1494,-8"/>
<text text-anchor="middle" x="1538" y="-85.8" font-family="Times,serif" font-size="14.00">1107</text>
</g>
<g id="clust19" class="cluster">
<title>cluster1113</title>
<polygon fill="none" stroke="black" points="2237,-8 2237,-101 2325,-101 2325,-8 2237,-8"/>
<text text-anchor="middle" x="2281" y="-85.8" font-family="Times,serif" font-size="14.00">1113</text>
</g>
<g id="clust20" class="cluster">
<title>cluster1114</title>
<polygon fill="none" stroke="black" points="2361,-8 2361,-101 2449,-101 2449,-8 2361,-8"/>
<text text-anchor="middle" x="2405" y="-85.8" font-family="Times,serif" font-size="14.00">1114</text>
</g>
<g id="clust21" class="cluster">
<title>cluster1115</title>
<polygon fill="none" stroke="black" points="2485,-8 2485,-101 2572,-101 2572,-8 2485,-8"/>
<text text-anchor="middle" x="2528.5" y="-85.8" font-family="Times,serif" font-size="14.00">1115</text>
</g>
<g id="clust22" class="cluster">
<title>cluster1116</title>
<polygon fill="none" stroke="black" points="2608,-8 2608,-101 2696,-101 2696,-8 2608,-8"/>
<text text-anchor="middle" x="2652" y="-85.8" font-family="Times,serif" font-size="14.00">1116</text>
</g>
<g id="clust23" class="cluster">
<title>cluster1117</title>
<polygon fill="none" stroke="black" points="2732,-8 2732,-101 2820,-101 2820,-8 2732,-8"/>
<text text-anchor="middle" x="2776" y="-85.8" font-family="Times,serif" font-size="14.00">1117</text>
</g>
<g id="clust24" class="cluster">
<title>cluster1118</title>
<polygon fill="none" stroke="black" points="2856,-8 2856,-101 2944,-101 2944,-8 2856,-8"/>
<text text-anchor="middle" x="2900" y="-85.8" font-family="Times,serif" font-size="14.00">1118</text>
</g>
<g id="clust25" class="cluster">
<title>cluster1119</title>
<polygon fill="none" stroke="black" points="2980,-8 2980,-101 3068,-101 3068,-8 2980,-8"/>
<text text-anchor="middle" x="3024" y="-85.8" font-family="Times,serif" font-size="14.00">1119</text>
</g>
<g id="clust26" class="cluster">
<title>cluster1120</title>
<polygon fill="none" stroke="black" points="3104,-8 3104,-101 3192,-101 3192,-8 3104,-8"/>
<text text-anchor="middle" x="3148" y="-85.8" font-family="Times,serif" font-size="14.00">1120</text>
</g>
<g id="clust27" class="cluster">
<title>cluster1121</title>
<polygon fill="none" stroke="black" points="3228,-8 3228,-101 3316,-101 3316,-8 3228,-8"/>
<text text-anchor="middle" x="3272" y="-85.8" font-family="Times,serif" font-size="14.00">1121</text>
</g>
<g id="clust28" class="cluster">
<title>cluster1122</title>
<polygon fill="none" stroke="black" points="3352,-8 3352,-101 3440,-101 3440,-8 3352,-8"/>
<text text-anchor="middle" x="3396" y="-85.8" font-family="Times,serif" font-size="14.00">1122</text>
</g>
<g id="clust29" class="cluster">
<title>cluster1123</title>
<polygon fill="none" stroke="black" points="3476,-8 3476,-101 3563,-101 3563,-8 3476,-8"/>
<text text-anchor="middle" x="3519.5" y="-85.8" font-family="Times,serif" font-size="14.00">1123</text>
</g>
<g id="clust30" class="cluster">
<title>cluster1124</title>
<polygon fill="none" stroke="black" points="3599,-8 3599,-101 3687,-101 3687,-8 3599,-8"/>
<text text-anchor="middle" x="3643" y="-85.8" font-family="Times,serif" font-size="14.00">1124</text>
</g>
<g id="clust31" class="cluster">
<title>cluster1125</title>
<polygon fill="none" stroke="black" points="3723,-8 3723,-101 3811,-101 3811,-8 3723,-8"/>
<text text-anchor="middle" x="3767" y="-85.8" font-family="Times,serif" font-size="14.00">1125</text>
</g>
<g id="clust32" class="cluster">
<title>cluster1126</title>
<polygon fill="none" stroke="black" points="3847,-8 3847,-101 3935,-101 3935,-8 3847,-8"/>
<text text-anchor="middle" x="3891" y="-85.8" font-family="Times,serif" font-size="14.00">1126</text>
</g>
<g id="clust33" class="cluster">
<title>cluster1127</title>
<polygon fill="none" stroke="black" points="3971,-8 3971,-101 4058,-101 4058,-8 3971,-8"/>
<text text-anchor="middle" x="4014.5" y="-85.8" font-family="Times,serif" font-size="14.00">1127</text>
</g>
<g id="clust34" class="cluster">
<title>cluster1128</title>
<polygon fill="none" stroke="black" points="4094,-8 4094,-101 4182,-101 4182,-8 4094,-8"/>
<text text-anchor="middle" x="4138" y="-85.8" font-family="Times,serif" font-size="14.00">1128</text>
</g>
<g id="clust35" class="cluster">
<title>cluster1129</title>
<polygon fill="none" stroke="black" points="4218,-8 4218,-101 4305,-101 4305,-8 4218,-8"/>
<text text-anchor="middle" x="4261.5" y="-85.8" font-family="Times,serif" font-size="14.00">1129</text>
</g>
<!-- Node0x600000713bd0 -->
<g id="node1" class="node">
<title>Node0x600000713bd0</title>
<polygon fill="none" stroke="black" points="8,-9 8,-77 95,-77 95,-9 8,-9"/>
<text text-anchor="middle" x="51.5" y="-66.6" font-family="Times,serif" font-size="8.00">word: turn</text>
<polyline fill="none" stroke="black" points="8,-60 95,-60 "/>
<text text-anchor="middle" x="51.5" y="-49.6" font-family="Times,serif" font-size="8.00">size: 8</text>
<polyline fill="none" stroke="black" points="8,-43 95,-43 "/>
<text text-anchor="middle" x="51.5" y="-32.6" font-family="Times,serif" font-size="8.00">next: 0x600000715050</text>
<polyline fill="none" stroke="black" points="8,-26 95,-26 "/>
<text text-anchor="middle" x="51.5" y="-15.6" font-family="Times,serif" font-size="8.00">prev: 0x0</text>
</g>
<!-- Node0x600000715050 -->
<g id="node2" class="node">
<title>Node0x600000715050</title>
<polygon fill="none" stroke="black" points="131,-9 131,-77 219,-77 219,-9 131,-9"/>
<text text-anchor="middle" x="175" y="-66.6" font-family="Times,serif" font-size="8.00">word: Mont</text>
<polyline fill="none" stroke="black" points="131,-60 219,-60 "/>
<text text-anchor="middle" x="175" y="-49.6" font-family="Times,serif" font-size="8.00">size: 12</text>
<polyline fill="none" stroke="black" points="131,-43 219,-43 "/>
<text text-anchor="middle" x="175" y="-32.6" font-family="Times,serif" font-size="8.00">next: 0x600000715770</text>
<polyline fill="none" stroke="black" points="131,-26 219,-26 "/>
<text text-anchor="middle" x="175" y="-15.6" font-family="Times,serif" font-size="8.00">prev: 0x600000713bd0</text>
</g>
<!-- Node0x600000713bd0&#45;&gt;Node0x600000715050 -->
<g id="edge1" class="edge">
<title>Node0x600000713bd0:n&#45;&gt;Node0x600000715050:n</title>
<path fill="none" stroke="red" d="M95,-34C107,-34 112.25,-34 120.88,-34"/>
<polygon fill="red" stroke="red" points="121,-37.5 131,-34 121,-30.5 121,-37.5"/>
</g>
<!-- Node0x600000715770 -->
<g id="node3" class="node">
<title>Node0x600000715770</title>
<polygon fill="none" stroke="black" points="255,-9 255,-77 343,-77 343,-9 255,-9"/>
<text text-anchor="middle" x="299" y="-66.6" font-family="Times,serif" font-size="8.00">word: Three</text>
<polyline fill="none" stroke="black" points="255,-60 343,-60 "/>
<text text-anchor="middle" x="299" y="-49.6" font-family="Times,serif" font-size="8.00">size: 2</text>
<polyline fill="none" stroke="black" points="255,-43 343,-43 "/>
<text text-anchor="middle" x="299" y="-32.6" font-family="Times,serif" font-size="8.00">next: 0x600000716b20</text>
<polyline fill="none" stroke="black" points="255,-26 343,-26 "/>
<text text-anchor="middle" x="299" y="-15.6" font-family="Times,serif" font-size="8.00">prev: 0x600000715050</text>
</g>
<!-- Node0x600000715050&#45;&gt;Node0x600000715770 -->
<g id="edge2" class="edge">
<title>Node0x600000715050:n&#45;&gt;Node0x600000715770:n</title>
<path fill="none" stroke="red" d="M219,-34C231,-34 236.25,-34 244.88,-34"/>
<polygon fill="red" stroke="red" points="245,-37.5 255,-34 245,-30.5 245,-37.5"/>
</g>
<!-- Node0x600000716b20 -->
<g id="node4" class="node">
<title>Node0x600000716b20</title>
<polygon fill="none" stroke="black" points="379,-9 379,-77 467,-77 467,-9 379,-9"/>
<text text-anchor="middle" x="423" y="-66.6" font-family="Times,serif" font-size="8.00">word: rooteth</text>
<polyline fill="none" stroke="black" points="379,-60 467,-60 "/>
<text text-anchor="middle" x="423" y="-49.6" font-family="Times,serif" font-size="8.00">size: 1</text>
<polyline fill="none" stroke="black" points="379,-43 467,-43 "/>
<text text-anchor="middle" x="423" y="-32.6" font-family="Times,serif" font-size="8.00">next: 0x60000071aa90</text>
<polyline fill="none" stroke="black" points="379,-26 467,-26 "/>
<text text-anchor="middle" x="423" y="-15.6" font-family="Times,serif" font-size="8.00">prev: 0x600000715770</text>
</g>
<!-- Node0x600000715770&#45;&gt;Node0x600000716b20 -->
<g id="edge3" class="edge">
<title>Node0x600000715770:n&#45;&gt;Node0x600000716b20:n</title>
<path fill="none" stroke="red" d="M343,-34C355,-34 360.25,-34 368.88,-34"/>
<polygon fill="red" stroke="red" points="369,-37.5 379,-34 369,-30.5 369,-37.5"/>
</g>
<!-- Node0x60000071aa90 -->
<g id="node5" class="node">
<title>Node0x60000071aa90</title>
<polygon fill="none" stroke="black" points="503,-9 503,-77 591,-77 591,-9 503,-9"/>
<text text-anchor="middle" x="547" y="-66.6" font-family="Times,serif" font-size="8.00">word: reckoning</text>
<polyline fill="none" stroke="black" points="503,-60 591,-60 "/>
<text text-anchor="middle" x="547" y="-49.6" font-family="Times,serif" font-size="8.00">size: 1</text>
<polyline fill="none" stroke="black" points="503,-43 591,-43 "/>
<text text-anchor="middle" x="547" y="-32.6" font-family="Times,serif" font-size="8.00">next: 0x600000708300</text>
<polyline fill="none" stroke="black" points="503,-26 591,-26 "/>
<text text-anchor="middle" x="547" y="-15.6" font-family="Times,serif" font-size="8.00">prev: 0x600000716b20</text>
</g>
<!-- Node0x600000716b20&#45;&gt;Node0x60000071aa90 -->
<g id="edge4" class="edge">
<title>Node0x600000716b20:n&#45;&gt;Node0x60000071aa90:n</title>
<path fill="none" stroke="red" d="M467,-34C479,-34 484.25,-34 492.88,-34"/>
<polygon fill="red" stroke="red" points="493,-37.5 503,-34 493,-30.5 493,-37.5"/>
</g>
<!-- Node0x600000708300 -->
<g id="node6" class="node">
<title>Node0x600000708300</title>
<polygon fill="none" stroke="black" points="627,-9 627,-77 715,-77 715,-9 627,-9"/>
<text text-anchor="middle" x="671" y="-66.6" font-family="Times,serif" font-size="8.00">word: lamb</text>
<polyline fill="none" stroke="black" points="627,-60 715,-60 "/>
<text text-anchor="middle" x="671" y="-49.6" font-family="Times,serif" font-size="8.00">size: 4</text>
<polyline fill="none" stroke="black" points="627,-43 715,-43 "/>
<text text-anchor="middle" x="671" y="-32.6" font-family="Times,serif" font-size="8.00">next: 0x6000007096b0</text>
<polyline fill="none" stroke="black" points="627,-26 715,-26 "/>
<text text-anchor="middle" x="671" y="-15.6" font-family="Times,serif" font-size="8.00">prev: 0x60000071aa90</text>
</g>
<!-- Node0x60000071aa90&#45;&gt;Node0x600000708300 -->
<g id="edge5" class="edge">
<title>Node0x60000071aa90:n&#45;&gt;Node0x600000708300:n</title>
<path fill="none" stroke="red" d="M591,-34C603,-34 608.25,-34 616.88,-34"/>
<polygon fill="red" stroke="red" points="617,-37.5 627,-34 617,-30.5 617,-37.5"/>
</g>
<!-- Node0x6000007096b0 -->
<g id="node7" class="node">
<title>Node0x6000007096b0</title>
<polygon fill="none" stroke="black" points="751,-9 751,-77 839,-77 839,-9 751,-9"/>
<text text-anchor="middle" x="795" y="-66.6" font-family="Times,serif" font-size="8.00">word: wisdom</text>
<polyline fill="none" stroke="black" points="751,-60 839,-60 "/>
<text text-anchor="middle" x="795" y="-49.6" font-family="Times,serif" font-size="8.00">size: 3</text>
<polyline fill="none" stroke="black" points="751,-43 839,-43 "/>
<text text-anchor="middle" x="795" y="-32.6" font-family="Times,serif" font-size="8.00">next: 0x600000704ed0</text>
<polyline fill="none" stroke="black" points="751,-26 839,-26 "/>
<text text-anchor="middle" x="795" y="-15.6" font-family="Times,serif" font-size="8.00">prev: 0x600000708300</text>
</g>
<!-- Node0x600000708300&#45;&gt;Node0x6000007096b0 -->
<g id="edge6" class="edge">
<title>Node0x600000708300:n&#45;&gt;Node0x6000007096b0:n</title>
<path fill="none" stroke="red" d="M715,-34C727,-34 732.25,-34 740.88,-34"/>
<polygon fill="red" stroke="red" points="741,-37.5 751,-34 741,-30.5 741,-37.5"/>
</g>
<!-- Node0x600000704ed0 -->
<g id="node8" class="node">
<title>Node0x600000704ed0</title>
<polygon fill="none" stroke="black" points="875,-9 875,-77 963,-77 963,-9 875,-9"/>
<text text-anchor="middle" x="919" y="-66.6" font-family="Times,serif" font-size="8.00">word: enpierced</text>
<polyline fill="none" stroke="black" points="875,-60 963,-60 "/>
<text text-anchor="middle" x="919" y="-49.6" font-family="Times,serif" font-size="8.00">size: 1</text>
<polyline fill="none" stroke="black" points="875,-43 963,-43 "/>
<text text-anchor="middle" x="919" y="-32.6" font-family="Times,serif" font-size="8.00">next: 0x60000071d410</text>
<polyline fill="none" stroke="black" points="875,-26 963,-26 "/>
<text text-anchor="middle" x="919" y="-15.6" font-family="Times,serif" font-size="8.00">prev: 0x6000007096b0</text>
</g>
<!-- Node0x6000007096b0&#45;&gt;Node0x600000704ed0 -->
<g id="edge7" class="edge">
<title>Node0x6000007096b0:n&#45;&gt;Node0x600000704ed0:n</title>
<path fill="none" stroke="red" d="M839,-34C851,-34 856.25,-34 864.88,-34"/>
<polygon fill="red" stroke="red" points="865,-37.5 875,-34 865,-30.5 865,-37.5"/>
</g>
<!-- Node0x60000071d410 -->
<g id="node9" class="node">
<title>Node0x60000071d410</title>
<polygon fill="none" stroke="black" points="999,-9 999,-77 1087,-77 1087,-9 999,-9"/>
<text text-anchor="middle" x="1043" y="-66.6" font-family="Times,serif" font-size="8.00">word: smallest</text>
<polyline fill="none" stroke="black" points="999,-60 1087,-60 "/>
<text text-anchor="middle" x="1043" y="-49.6" font-family="Times,serif" font-size="8.00">size: 1</text>
<polyline fill="none" stroke="black" points="999,-43 1087,-43 "/>
<text text-anchor="middle" x="1043" y="-32.6" font-family="Times,serif" font-size="8.00">next: 0x60000071f630</text>
<polyline fill="none" stroke="black" points="999,-26 1087,-26 "/>
<text text-anchor="middle" x="1043" y="-15.6" font-family="Times,serif" font-size="8.00">prev: 0x600000704ed0</text>
</g>
<!-- Node0x600000704ed0&#45;&gt;Node0x60000071d410 -->
<g id="edge8" class="edge">
<title>Node0x600000704ed0:n&#45;&gt;Node0x60000071d410:n</title>
<path fill="none" stroke="red" d="M963,-34C975,-34 980.25,-34 988.88,-34"/>
<polygon fill="red" stroke="red" points="989,-37.5 999,-34 989,-30.5 989,-37.5"/>
</g>
<!-- Node0x60000071f630 -->
<g id="node10" class="node">
<title>Node0x60000071f630</title>
<polygon fill="none" stroke="black" points="1123,-9 1123,-77 1211,-77 1211,-9 1123,-9"/>
<text text-anchor="middle" x="1167" y="-66.6" font-family="Times,serif" font-size="8.00">word: sit</text>
<polyline fill="none" stroke="black" points="1123,-60 1211,-60 "/>
<text text-anchor="middle" x="1167" y="-49.6" font-family="Times,serif" font-size="8.00">size: 7</text>
<polyline fill="none" stroke="black" points="1123,-43 1211,-43 "/>
<text text-anchor="middle" x="1167" y="-32.6" font-family="Times,serif" font-size="8.00">next: 0x600000700540</text>
<polyline fill="none" stroke="black" points="1123,-26 1211,-26 "/>
<text text-anchor="middle" x="1167" y="-15.6" font-family="Times,serif" font-size="8.00">prev: 0x60000071d410</text>
</g>
<!-- Node0x60000071d410&#45;&gt;Node0x60000071f630 -->
<g id="edge9" class="edge">
<title>Node0x60000071d410:n&#45;&gt;Node0x60000071f630:n</title>
<path fill="none" stroke="red" d="M1087,-34C1099,-34 1104.25,-34 1112.88,-34"/>
<polygon fill="red" stroke="red" points="1113,-37.5 1123,-34 1113,-30.5 1113,-37.5"/>
</g>
<!-- Node0x600000700540 -->
<g id="node11" class="node">
<title>Node0x600000700540</title>
<polygon fill="none" stroke="black" points="1247,-9 1247,-77 1334,-77 1334,-9 1247,-9"/>
<text text-anchor="middle" x="1290.5" y="-66.6" font-family="Times,serif" font-size="8.00">word: different</text>
<polyline fill="none" stroke="black" points="1247,-60 1334,-60 "/>
<text text-anchor="middle" x="1290.5" y="-49.6" font-family="Times,serif" font-size="8.00">size: 2</text>
<polyline fill="none" stroke="black" points="1247,-43 1334,-43 "/>
<text text-anchor="middle" x="1290.5" y="-32.6" font-family="Times,serif" font-size="8.00">next: 0x6000007011d0</text>
<polyline fill="none" stroke="black" points="1247,-26 1334,-26 "/>
<text text-anchor="middle" x="1290.5" y="-15.6" font-family="Times,serif" font-size="8.00">prev: 0x60000071f630</text>
</g>
<!-- Node0x60000071f630&#45;&gt;Node0x600000700540 -->
<g id="edge10" class="edge">
<title>Node0x60000071f630:n&#45;&gt;Node0x600000700540:n</title>
<path fill="none" stroke="red" d="M1211,-34C1223,-34 1228.25,-34 1236.88,-34"/>
<polygon fill="red" stroke="red" points="1237,-37.5 1247,-34 1237,-30.5 1237,-37.5"/>
</g>
<!-- Node0x6000007011d0 -->
<g id="node12" class="node">
<title>Node0x6000007011d0</title>
<polygon fill="none" stroke="black" points="1370,-9 1370,-77 1458,-77 1458,-9 1370,-9"/>
<text text-anchor="middle" x="1414" y="-66.6" font-family="Times,serif" font-size="8.00">word: strangers</text>
<polyline fill="none" stroke="black" points="1370,-60 1458,-60 "/>
<text text-anchor="middle" x="1414" y="-49.6" font-family="Times,serif" font-size="8.00">size: 1</text>
<polyline fill="none" stroke="black" points="1370,-43 1458,-43 "/>
<text text-anchor="middle" x="1414" y="-32.6" font-family="Times,serif" font-size="8.00">next: 0x600000703f30</text>
<polyline fill="none" stroke="black" points="1370,-26 1458,-26 "/>
<text text-anchor="middle" x="1414" y="-15.6" font-family="Times,serif" font-size="8.00">prev: 0x600000700540</text>
</g>
<!-- Node0x600000700540&#45;&gt;Node0x6000007011d0 -->
<g id="edge11" class="edge">
<title>Node0x600000700540:n&#45;&gt;Node0x6000007011d0:n</title>
<path fill="none" stroke="red" d="M1334,-34C1346,-34 1351.25,-34 1359.88,-34"/>
<polygon fill="red" stroke="red" points="1360,-37.5 1370,-34 1360,-30.5 1360,-37.5"/>
</g>
<!-- Node0x600000703f30 -->
<g id="node13" class="node">
<title>Node0x600000703f30</title>
<polygon fill="none" stroke="black" points="1494,-9 1494,-77 1582,-77 1582,-9 1494,-9"/>
<text text-anchor="middle" x="1538" y="-66.6" font-family="Times,serif" font-size="8.00">word: god</text>
<polyline fill="none" stroke="black" points="1494,-60 1582,-60 "/>
<text text-anchor="middle" x="1538" y="-49.6" font-family="Times,serif" font-size="8.00">size: 2</text>
<polyline fill="none" stroke="black" points="1494,-43 1582,-43 "/>
<text text-anchor="middle" x="1538" y="-32.6" font-family="Times,serif" font-size="8.00">next: 0x6000007304b0</text>
<polyline fill="none" stroke="black" points="1494,-26 1582,-26 "/>
<text text-anchor="middle" x="1538" y="-15.6" font-family="Times,serif" font-size="8.00">prev: 0x6000007011d0</text>
</g>
<!-- Node0x6000007011d0&#45;&gt;Node0x600000703f30 -->
<g id="edge12" class="edge">
<title>Node0x6000007011d0:n&#45;&gt;Node0x600000703f30:n</title>
<path fill="none" stroke="red" d="M1458,-34C1470,-34 1475.25,-34 1483.88,-34"/>
<polygon fill="red" stroke="red" points="1484,-37.5 1494,-34 1484,-30.5 1484,-37.5"/>
</g>
<!-- Node0x6000007304b0 -->
<g id="node14" class="node">
<title>Node0x6000007304b0</title>
<polygon fill="none" stroke="black" points="1618,-9 1618,-77 1705,-77 1705,-9 1618,-9"/>
<text text-anchor="middle" x="1661.5" y="-66.6" font-family="Times,serif" font-size="8.00">word: Dear</text>
<polyline fill="none" stroke="black" points="1618,-60 1705,-60 "/>
<text text-anchor="middle" x="1661.5" y="-49.6" font-family="Times,serif" font-size="8.00">size: 1</text>
<polyline fill="none" stroke="black" points="1618,-43 1705,-43 "/>
<text text-anchor="middle" x="1661.5" y="-32.6" font-family="Times,serif" font-size="8.00">next: 0x600000730c30</text>
<polyline fill="none" stroke="black" points="1618,-26 1705,-26 "/>
<text text-anchor="middle" x="1661.5" y="-15.6" font-family="Times,serif" font-size="8.00">prev: 0x600000703f30</text>
</g>
<!-- Node0x600000703f30&#45;&gt;Node0x6000007304b0 -->
<g id="edge13" class="edge">
<title>Node0x600000703f30:n&#45;&gt;Node0x6000007304b0:n</title>
<path fill="none" stroke="red" d="M1582,-34C1594,-34 1599.25,-34 1607.88,-34"/>
<polygon fill="red" stroke="red" points="1608,-37.5 1618,-34 1608,-30.5 1608,-37.5"/>
</g>
<!-- Node0x600000730c30 -->
<g id="node15" class="node">
<title>Node0x600000730c30</title>
<polygon fill="none" stroke="black" points="1741,-9 1741,-77 1829,-77 1829,-9 1741,-9"/>
<text text-anchor="middle" x="1785" y="-66.6" font-family="Times,serif" font-size="8.00">word: forgot</text>
<polyline fill="none" stroke="black" points="1741,-60 1829,-60 "/>
<text text-anchor="middle" x="1785" y="-49.6" font-family="Times,serif" font-size="8.00">size: 2</text>
<polyline fill="none" stroke="black" points="1741,-43 1829,-43 "/>
<text text-anchor="middle" x="1785" y="-32.6" font-family="Times,serif" font-size="8.00">next: 0x600000732c70</text>
<polyline fill="none" stroke="black" points="1741,-26 1829,-26 "/>
<text text-anchor="middle" x="1785" y="-15.6" font-family="Times,serif" font-size="8.00">prev: 0x6000007304b0</text>
</g>
<!-- Node0x6000007304b0&#45;&gt;Node0x600000730c30 -->
<g id="edge14" class="edge">
<title>Node0x6000007304b0:n&#45;&gt;Node0x600000730c30:n</title>
<path fill="none" stroke="red" d="M1705,-34C1717,-34 1722.25,-34 1730.88,-34"/>
<polygon fill="red" stroke="red" points="1731,-37.5 1741,-34 1731,-30.5 1731,-37.5"/>
</g>
<!-- Node0x600000732c70 -->
<g id="node16" class="node">
<title>Node0x600000732c70</title>
<polygon fill="none" stroke="black" points="1865,-9 1865,-77 1953,-77 1953,-9 1865,-9"/>
<text text-anchor="middle" x="1909" y="-66.6" font-family="Times,serif" font-size="8.00">word: waverer</text>
<polyline fill="none" stroke="black" points="1865,-60 1953,-60 "/>
<text text-anchor="middle" x="1909" y="-49.6" font-family="Times,serif" font-size="8.00">size: 1</text>
<polyline fill="none" stroke="black" points="1865,-43 1953,-43 "/>
<text text-anchor="middle" x="1909" y="-32.6" font-family="Times,serif" font-size="8.00">next: 0x600000734ea0</text>
<polyline fill="none" stroke="black" points="1865,-26 1953,-26 "/>
<text text-anchor="middle" x="1909" y="-15.6" font-family="Times,serif" font-size="8.00">prev: 0x600000730c30</text>
</g>
<!-- Node0x600000730c30&#45;&gt;Node0x600000732c70 -->
<g id="edge15" class="edge">
<title>Node0x600000730c30:n&#45;&gt;Node0x600000732c70:n</title>
<path fill="none" stroke="red" d="M1829,-34C1841,-34 1846.25,-34 1854.88,-34"/>
<polygon fill="red" stroke="red" points="1855,-37.5 1865,-34 1855,-30.5 1855,-37.5"/>
</g>
<!-- Node0x600000734ea0 -->
<g id="node17" class="node">
<title>Node0x600000734ea0</title>
<polygon fill="none" stroke="black" points="1989,-9 1989,-77 2077,-77 2077,-9 1989,-9"/>
<text text-anchor="middle" x="2033" y="-66.6" font-family="Times,serif" font-size="8.00">word: something</text>
<polyline fill="none" stroke="black" points="1989,-60 2077,-60 "/>
<text text-anchor="middle" x="2033" y="-49.6" font-family="Times,serif" font-size="8.00">size: 4</text>
<polyline fill="none" stroke="black" points="1989,-43 2077,-43 "/>
<text text-anchor="middle" x="2033" y="-32.6" font-family="Times,serif" font-size="8.00">next: 0x6000007368e0</text>
<polyline fill="none" stroke="black" points="1989,-26 2077,-26 "/>
<text text-anchor="middle" x="2033" y="-15.6" font-family="Times,serif" font-size="8.00">prev: 0x600000732c70</text>
</g>
<!-- Node0x600000732c70&#45;&gt;Node0x600000734ea0 -->
<g id="edge16" class="edge">
<title>Node0x600000732c70:n&#45;&gt;Node0x600000734ea0:n</title>
<path fill="none" stroke="red" d="M1953,-34C1965,-34 1970.25,-34 1978.88,-34"/>
<polygon fill="red" stroke="red" points="1979,-37.5 1989,-34 1979,-30.5 1979,-37.5"/>
</g>
<!-- Node0x6000007368e0 -->
<g id="node18" class="node">
<title>Node0x6000007368e0</title>
<polygon fill="none" stroke="black" points="2113,-9 2113,-77 2201,-77 2201,-9 2113,-9"/>
<text text-anchor="middle" x="2157" y="-66.6" font-family="Times,serif" font-size="8.00">word: repliest</text>
<polyline fill="none" stroke="black" points="2113,-60 2201,-60 "/>
<text text-anchor="middle" x="2157" y="-49.6" font-family="Times,serif" font-size="8.00">size: 1</text>
<polyline fill="none" stroke="black" points="2113,-43 2201,-43 "/>
<text text-anchor="middle" x="2157" y="-32.6" font-family="Times,serif" font-size="8.00">next: 0x600000737240</text>
<polyline fill="none" stroke="black" points="2113,-26 2201,-26 "/>
<text text-anchor="middle" x="2157" y="-15.6" font-family="Times,serif" font-size="8.00">prev: 0x600000734ea0</text>
</g>
<!-- Node0x600000734ea0&#45;&gt;Node0x6000007368e0 -->
<g id="edge17" class="edge">
<title>Node0x600000734ea0:n&#45;&gt;Node0x6000007368e0:n</title>
<path fill="none" stroke="red" d="M2077,-34C2089,-34 2094.25,-34 2102.88,-34"/>
<polygon fill="red" stroke="red" points="2103,-37.5 2113,-34 2103,-30.5 2103,-37.5"/>
</g>
<!-- Node0x600000737240 -->
<g id="node19" class="node">
<title>Node0x600000737240</title>
<polygon fill="none" stroke="black" points="2237,-9 2237,-77 2325,-77 2325,-9 2237,-9"/>
<text text-anchor="middle" x="2281" y="-66.6" font-family="Times,serif" font-size="8.00">word: Unfold</text>
<polyline fill="none" stroke="black" points="2237,-60 2325,-60 "/>
<text text-anchor="middle" x="2281" y="-49.6" font-family="Times,serif" font-size="8.00">size: 1</text>
<polyline fill="none" stroke="black" points="2237,-43 2325,-43 "/>
<text text-anchor="middle" x="2281" y="-32.6" font-family="Times,serif" font-size="8.00">next: 0x6000007379f0</text>
<polyline fill="none" stroke="black" points="2237,-26 2325,-26 "/>
<text text-anchor="middle" x="2281" y="-15.6" font-family="Times,serif" font-size="8.00">prev: 0x6000007368e0</text>
</g>
<!-- Node0x6000007368e0&#45;&gt;Node0x600000737240 -->
<g id="edge18" class="edge">
<title>Node0x6000007368e0:n&#45;&gt;Node0x600000737240:n</title>
<path fill="none" stroke="red" d="M2201,-34C2213,-34 2218.25,-34 2226.88,-34"/>
<polygon fill="red" stroke="red" points="2227,-37.5 2237,-34 2227,-30.5 2227,-37.5"/>
</g>
<!-- Node0x6000007379f0 -->
<g id="node20" class="node">
<title>Node0x6000007379f0</title>
<polygon fill="none" stroke="black" points="2361,-9 2361,-77 2449,-77 2449,-9 2361,-9"/>
<text text-anchor="middle" x="2405" y="-66.6" font-family="Times,serif" font-size="8.00">word: addle</text>
<polyline fill="none" stroke="black" points="2361,-60 2449,-60 "/>
<text text-anchor="middle" x="2405" y="-49.6" font-family="Times,serif" font-size="8.00">size: 1</text>
<polyline fill="none" stroke="black" points="2361,-43 2449,-43 "/>
<text text-anchor="middle" x="2405" y="-32.6" font-family="Times,serif" font-size="8.00">next: 0x600000738270</text>
<polyline fill="none" stroke="black" points="2361,-26 2449,-26 "/>
<text text-anchor="middle" x="2405" y="-15.6" font-family="Times,serif" font-size="8.00">prev: 0x600000737240</text>
</g>
<!-- Node0x600000737240&#45;&gt;Node0x6000007379f0 -->
<g id="edge19" class="edge">
<title>Node0x600000737240:n&#45;&gt;Node0x6000007379f0:n</title>
<path fill="none" stroke="red" d="M2325,-34C2337,-34 2342.25,-34 2350.88,-34"/>
<polygon fill="red" stroke="red" points="2351,-37.5 2361,-34 2351,-30.5 2351,-37.5"/>
</g>
<!-- Node0x600000738270 -->
<g id="node21" class="node">
<title>Node0x600000738270</title>
<polygon fill="none" stroke="black" points="2485,-9 2485,-77 2572,-77 2572,-9 2485,-9"/>
<text text-anchor="middle" x="2528.5" y="-66.6" font-family="Times,serif" font-size="8.00">word: carries</text>
<polyline fill="none" stroke="black" points="2485,-60 2572,-60 "/>
<text text-anchor="middle" x="2528.5" y="-49.6" font-family="Times,serif" font-size="8.00">size: 1</text>
<polyline fill="none" stroke="black" points="2485,-43 2572,-43 "/>
<text text-anchor="middle" x="2528.5" y="-32.6" font-family="Times,serif" font-size="8.00">next: 0x6000007387e0</text>
<polyline fill="none" stroke="black" points="2485,-26 2572,-26 "/>
<text text-anchor="middle" x="2528.5" y="-15.6" font-family="Times,serif" font-size="8.00">prev: 0x6000007379f0</text>
</g>
<!-- Node0x6000007379f0&#45;&gt;Node0x600000738270 -->
<g id="edge20" class="edge">
<title>Node0x6000007379f0:n&#45;&gt;Node0x600000738270:n</title>
<path fill="none" stroke="red" d="M2449,-34C2461,-34 2466.25,-34 2474.88,-34"/>
<polygon fill="red" stroke="red" points="2475,-37.5 2485,-34 2475,-30.5 2475,-37.5"/>
</g>
<!-- Node0x6000007387e0 -->
<g id="node22" class="node">
<title>Node0x6000007387e0</title>
<polygon fill="none" stroke="black" points="2608,-9 2608,-77 2696,-77 2696,-9 2608,-9"/>
<text text-anchor="middle" x="2652" y="-66.6" font-family="Times,serif" font-size="8.00">word: thought</text>
<polyline fill="none" stroke="black" points="2608,-60 2696,-60 "/>
<text text-anchor="middle" x="2652" y="-49.6" font-family="Times,serif" font-size="8.00">size: 9</text>
<polyline fill="none" stroke="black" points="2608,-43 2696,-43 "/>
<text text-anchor="middle" x="2652" y="-32.6" font-family="Times,serif" font-size="8.00">next: 0x600000739080</text>
<polyline fill="none" stroke="black" points="2608,-26 2696,-26 "/>
<text text-anchor="middle" x="2652" y="-15.6" font-family="Times,serif" font-size="8.00">prev: 0x600000738270</text>
</g>
<!-- Node0x600000738270&#45;&gt;Node0x6000007387e0 -->
<g id="edge21" class="edge">
<title>Node0x600000738270:n&#45;&gt;Node0x6000007387e0:n</title>
<path fill="none" stroke="red" d="M2572,-34C2584,-34 2589.25,-34 2597.88,-34"/>
<polygon fill="red" stroke="red" points="2598,-37.5 2608,-34 2598,-30.5 2598,-37.5"/>
</g>
<!-- Node0x600000739080 -->
<g id="node23" class="node">
<title>Node0x600000739080</title>
<polygon fill="none" stroke="black" points="2732,-9 2732,-77 2820,-77 2820,-9 2732,-9"/>
<text text-anchor="middle" x="2776" y="-66.6" font-family="Times,serif" font-size="8.00">word: slew</text>
<polyline fill="none" stroke="black" points="2732,-60 2820,-60 "/>
<text text-anchor="middle" x="2776" y="-49.6" font-family="Times,serif" font-size="8.00">size: 5</text>
<polyline fill="none" stroke="black" points="2732,-43 2820,-43 "/>
<text text-anchor="middle" x="2776" y="-32.6" font-family="Times,serif" font-size="8.00">next: 0x60000073a970</text>
<polyline fill="none" stroke="black" points="2732,-26 2820,-26 "/>
<text text-anchor="middle" x="2776" y="-15.6" font-family="Times,serif" font-size="8.00">prev: 0x6000007387e0</text>
</g>
<!-- Node0x6000007387e0&#45;&gt;Node0x600000739080 -->
<g id="edge22" class="edge">
<title>Node0x6000007387e0:n&#45;&gt;Node0x600000739080:n</title>
<path fill="none" stroke="red" d="M2696,-34C2708,-34 2713.25,-34 2721.88,-34"/>
<polygon fill="red" stroke="red" points="2722,-37.5 2732,-34 2722,-30.5 2722,-37.5"/>
</g>
<!-- Node0x60000073a970 -->
<g id="node24" class="node">
<title>Node0x60000073a970</title>
<polygon fill="none" stroke="black" points="2856,-9 2856,-77 2944,-77 2944,-9 2856,-9"/>
<text text-anchor="middle" x="2900" y="-66.6" font-family="Times,serif" font-size="8.00">word: resign</text>
<polyline fill="none" stroke="black" points="2856,-60 2944,-60 "/>
<text text-anchor="middle" x="2900" y="-49.6" font-family="Times,serif" font-size="8.00">size: 1</text>
<polyline fill="none" stroke="black" points="2856,-43 2944,-43 "/>
<text text-anchor="middle" x="2900" y="-32.6" font-family="Times,serif" font-size="8.00">next: 0x60000073b5d0</text>
<polyline fill="none" stroke="black" points="2856,-26 2944,-26 "/>
<text text-anchor="middle" x="2900" y="-15.6" font-family="Times,serif" font-size="8.00">prev: 0x600000739080</text>
</g>
<!-- Node0x600000739080&#45;&gt;Node0x60000073a970 -->
<g id="edge23" class="edge">
<title>Node0x600000739080:n&#45;&gt;Node0x60000073a970:n</title>
<path fill="none" stroke="red" d="M2820,-34C2832,-34 2837.25,-34 2845.88,-34"/>
<polygon fill="red" stroke="red" points="2846,-37.5 2856,-34 2846,-30.5 2846,-37.5"/>
</g>
<!-- Node0x60000073b5d0 -->
<g id="node25" class="node">
<title>Node0x60000073b5d0</title>
<polygon fill="none" stroke="black" points="2980,-9 2980,-77 3068,-77 3068,-9 2980,-9"/>
<text text-anchor="middle" x="3024" y="-66.6" font-family="Times,serif" font-size="8.00">word: modern</text>
<polyline fill="none" stroke="black" points="2980,-60 3068,-60 "/>
<text text-anchor="middle" x="3024" y="-49.6" font-family="Times,serif" font-size="8.00">size: 1</text>
<polyline fill="none" stroke="black" points="2980,-43 3068,-43 "/>
<text text-anchor="middle" x="3024" y="-32.6" font-family="Times,serif" font-size="8.00">next: 0x60000073c720</text>
<polyline fill="none" stroke="black" points="2980,-26 3068,-26 "/>
<text text-anchor="middle" x="3024" y="-15.6" font-family="Times,serif" font-size="8.00">prev: 0x60000073a970</text>
</g>
<!-- Node0x60000073a970&#45;&gt;Node0x60000073b5d0 -->
<g id="edge24" class="edge">
<title>Node0x60000073a970:n&#45;&gt;Node0x60000073b5d0:n</title>
<path fill="none" stroke="red" d="M2944,-34C2956,-34 2961.25,-34 2969.88,-34"/>
<polygon fill="red" stroke="red" points="2970,-37.5 2980,-34 2970,-30.5 2970,-37.5"/>
</g>
<!-- Node0x60000073c720 -->
<g id="node26" class="node">
<title>Node0x60000073c720</title>
<polygon fill="none" stroke="black" points="3104,-9 3104,-77 3192,-77 3192,-9 3104,-9"/>
<text text-anchor="middle" x="3148" y="-66.6" font-family="Times,serif" font-size="8.00">word: simpleness</text>
<polyline fill="none" stroke="black" points="3104,-60 3192,-60 "/>
<text text-anchor="middle" x="3148" y="-49.6" font-family="Times,serif" font-size="8.00">size: 1</text>
<polyline fill="none" stroke="black" points="3104,-43 3192,-43 "/>
<text text-anchor="middle" x="3148" y="-32.6" font-family="Times,serif" font-size="8.00">next: 0x60000073c8a0</text>
<polyline fill="none" stroke="black" points="3104,-26 3192,-26 "/>
<text text-anchor="middle" x="3148" y="-15.6" font-family="Times,serif" font-size="8.00">prev: 0x60000073b5d0</text>
</g>
<!-- Node0x60000073b5d0&#45;&gt;Node0x60000073c720 -->
<g id="edge25" class="edge">
<title>Node0x60000073b5d0:n&#45;&gt;Node0x60000073c720:n</title>
<path fill="none" stroke="red" d="M3068,-34C3080,-34 3085.25,-34 3093.88,-34"/>
<polygon fill="red" stroke="red" points="3094,-37.5 3104,-34 3094,-30.5 3094,-37.5"/>
</g>
<!-- Node0x60000073c8a0 -->
<g id="node27" class="node">
<title>Node0x60000073c8a0</title>
<polygon fill="none" stroke="black" points="3228,-9 3228,-77 3316,-77 3316,-9 3228,-9"/>
<text text-anchor="middle" x="3272" y="-66.6" font-family="Times,serif" font-size="8.00">word: weeping</text>
<polyline fill="none" stroke="black" points="3228,-60 3316,-60 "/>
<text text-anchor="middle" x="3272" y="-49.6" font-family="Times,serif" font-size="8.00">size: 3</text>
<polyline fill="none" stroke="black" points="3228,-43 3316,-43 "/>
<text text-anchor="middle" x="3272" y="-32.6" font-family="Times,serif" font-size="8.00">next: 0x60000073efd0</text>
<polyline fill="none" stroke="black" points="3228,-26 3316,-26 "/>
<text text-anchor="middle" x="3272" y="-15.6" font-family="Times,serif" font-size="8.00">prev: 0x60000073c720</text>
</g>
<!-- Node0x60000073c720&#45;&gt;Node0x60000073c8a0 -->
<g id="edge26" class="edge">
<title>Node0x60000073c720:n&#45;&gt;Node0x60000073c8a0:n</title>
<path fill="none" stroke="red" d="M3192,-34C3204,-34 3209.25,-34 3217.88,-34"/>
<polygon fill="red" stroke="red" points="3218,-37.5 3228,-34 3218,-30.5 3218,-37.5"/>
</g>
<!-- Node0x60000073efd0 -->
<g id="node28" class="node">
<title>Node0x60000073efd0</title>
<polygon fill="none" stroke="black" points="3352,-9 3352,-77 3440,-77 3440,-9 3352,-9"/>
<text text-anchor="middle" x="3396" y="-66.6" font-family="Times,serif" font-size="8.00">word: worthy</text>
<polyline fill="none" stroke="black" points="3352,-60 3440,-60 "/>
<text text-anchor="middle" x="3396" y="-49.6" font-family="Times,serif" font-size="8.00">size: 1</text>
<polyline fill="none" stroke="black" points="3352,-43 3440,-43 "/>
<text text-anchor="middle" x="3396" y="-32.6" font-family="Times,serif" font-size="8.00">next: 0x6000007204e0</text>
<polyline fill="none" stroke="black" points="3352,-26 3440,-26 "/>
<text text-anchor="middle" x="3396" y="-15.6" font-family="Times,serif" font-size="8.00">prev: 0x60000073c8a0</text>
</g>
<!-- Node0x60000073c8a0&#45;&gt;Node0x60000073efd0 -->
<g id="edge27" class="edge">
<title>Node0x60000073c8a0:n&#45;&gt;Node0x60000073efd0:n</title>
<path fill="none" stroke="red" d="M3316,-34C3328,-34 3333.25,-34 3341.88,-34"/>
<polygon fill="red" stroke="red" points="3342,-37.5 3352,-34 3342,-30.5 3342,-37.5"/>
</g>
<!-- Node0x6000007204e0 -->
<g id="node29" class="node">
<title>Node0x6000007204e0</title>
<polygon fill="none" stroke="black" points="3476,-9 3476,-77 3563,-77 3563,-9 3476,-9"/>
<text text-anchor="middle" x="3519.5" y="-66.6" font-family="Times,serif" font-size="8.00">word: serves</text>
<polyline fill="none" stroke="black" points="3476,-60 3563,-60 "/>
<text text-anchor="middle" x="3519.5" y="-49.6" font-family="Times,serif" font-size="8.00">size: 1</text>
<polyline fill="none" stroke="black" points="3476,-43 3563,-43 "/>
<text text-anchor="middle" x="3519.5" y="-32.6" font-family="Times,serif" font-size="8.00">next: 0x600000720b70</text>
<polyline fill="none" stroke="black" points="3476,-26 3563,-26 "/>
<text text-anchor="middle" x="3519.5" y="-15.6" font-family="Times,serif" font-size="8.00">prev: 0x60000073efd0</text>
</g>
<!-- Node0x60000073efd0&#45;&gt;Node0x6000007204e0 -->
<g id="edge28" class="edge">
<title>Node0x60000073efd0:n&#45;&gt;Node0x6000007204e0:n</title>
<path fill="none" stroke="red" d="M3440,-34C3452,-34 3457.25,-34 3465.88,-34"/>
<polygon fill="red" stroke="red" points="3466,-37.5 3476,-34 3466,-30.5 3466,-37.5"/>
</g>
<!-- Node0x600000720b70 -->
<g id="node30" class="node">
<title>Node0x600000720b70</title>
<polygon fill="none" stroke="black" points="3599,-9 3599,-77 3687,-77 3687,-9 3599,-9"/>
<text text-anchor="middle" x="3643" y="-66.6" font-family="Times,serif" font-size="8.00">word: ercover</text>
<polyline fill="none" stroke="black" points="3599,-60 3687,-60 "/>
<text text-anchor="middle" x="3643" y="-49.6" font-family="Times,serif" font-size="8.00">size: 1</text>
<polyline fill="none" stroke="black" points="3599,-43 3687,-43 "/>
<text text-anchor="middle" x="3643" y="-32.6" font-family="Times,serif" font-size="8.00">next: 0x60000070a3a0</text>
<polyline fill="none" stroke="black" points="3599,-26 3687,-26 "/>
<text text-anchor="middle" x="3643" y="-15.6" font-family="Times,serif" font-size="8.00">prev: 0x6000007204e0</text>
</g>
<!-- Node0x6000007204e0&#45;&gt;Node0x600000720b70 -->
<g id="edge29" class="edge">
<title>Node0x6000007204e0:n&#45;&gt;Node0x600000720b70:n</title>
<path fill="none" stroke="red" d="M3563,-34C3575,-34 3580.25,-34 3588.88,-34"/>
<polygon fill="red" stroke="red" points="3589,-37.5 3599,-34 3589,-30.5 3589,-37.5"/>
</g>
<!-- Node0x60000070a3a0 -->
<g id="node31" class="node">
<title>Node0x60000070a3a0</title>
<polygon fill="none" stroke="black" points="3723,-9 3723,-77 3811,-77 3811,-9 3723,-9"/>
<text text-anchor="middle" x="3767" y="-66.6" font-family="Times,serif" font-size="8.00">word: fright</text>
<polyline fill="none" stroke="black" points="3723,-60 3811,-60 "/>
<text text-anchor="middle" x="3767" y="-49.6" font-family="Times,serif" font-size="8.00">size: 1</text>
<polyline fill="none" stroke="black" points="3723,-43 3811,-43 "/>
<text text-anchor="middle" x="3767" y="-32.6" font-family="Times,serif" font-size="8.00">next: 0x60000070afd0</text>
<polyline fill="none" stroke="black" points="3723,-26 3811,-26 "/>
<text text-anchor="middle" x="3767" y="-15.6" font-family="Times,serif" font-size="8.00">prev: 0x600000720b70</text>
</g>
<!-- Node0x600000720b70&#45;&gt;Node0x60000070a3a0 -->
<g id="edge30" class="edge">
<title>Node0x600000720b70:n&#45;&gt;Node0x60000070a3a0:n</title>
<path fill="none" stroke="red" d="M3687,-34C3699,-34 3704.25,-34 3712.88,-34"/>
<polygon fill="red" stroke="red" points="3713,-37.5 3723,-34 3713,-30.5 3713,-37.5"/>
</g>
<!-- Node0x60000070afd0 -->
<g id="node32" class="node">
<title>Node0x60000070afd0</title>
<polygon fill="none" stroke="black" points="3847,-9 3847,-77 3935,-77 3935,-9 3847,-9"/>
<text text-anchor="middle" x="3891" y="-66.6" font-family="Times,serif" font-size="8.00">word: amended</text>
<polyline fill="none" stroke="black" points="3847,-60 3935,-60 "/>
<text text-anchor="middle" x="3891" y="-49.6" font-family="Times,serif" font-size="8.00">size: 1</text>
<polyline fill="none" stroke="black" points="3847,-43 3935,-43 "/>
<text text-anchor="middle" x="3891" y="-32.6" font-family="Times,serif" font-size="8.00">next: 0x60000070b360</text>
<polyline fill="none" stroke="black" points="3847,-26 3935,-26 "/>
<text text-anchor="middle" x="3891" y="-15.6" font-family="Times,serif" font-size="8.00">prev: 0x60000070a3a0</text>
</g>
<!-- Node0x60000070a3a0&#45;&gt;Node0x60000070afd0 -->
<g id="edge31" class="edge">
<title>Node0x60000070a3a0:n&#45;&gt;Node0x60000070afd0:n</title>
<path fill="none" stroke="red" d="M3811,-34C3823,-34 3828.25,-34 3836.88,-34"/>
<polygon fill="red" stroke="red" points="3837,-37.5 3847,-34 3837,-30.5 3837,-37.5"/>
</g>
<!-- Node0x60000070b360 -->
<g id="node33" class="node">
<title>Node0x60000070b360</title>
<polygon fill="none" stroke="black" points="3971,-9 3971,-77 4058,-77 4058,-9 3971,-9"/>
<text text-anchor="middle" x="4014.5" y="-66.6" font-family="Times,serif" font-size="8.00">word: Simon</text>
<polyline fill="none" stroke="black" points="3971,-60 4058,-60 "/>
<text text-anchor="middle" x="4014.5" y="-49.6" font-family="Times,serif" font-size="8.00">size: 1</text>
<polyline fill="none" stroke="black" points="3971,-43 4058,-43 "/>
<text text-anchor="middle" x="4014.5" y="-32.6" font-family="Times,serif" font-size="8.00">next: 0x60000070bcf0</text>
<polyline fill="none" stroke="black" points="3971,-26 4058,-26 "/>
<text text-anchor="middle" x="4014.5" y="-15.6" font-family="Times,serif" font-size="8.00">prev: 0x60000070afd0</text>
</g>
<!-- Node0x60000070afd0&#45;&gt;Node0x60000070b360 -->
<g id="edge32" class="edge">
<title>Node0x60000070afd0:n&#45;&gt;Node0x60000070b360:n</title>
<path fill="none" stroke="red" d="M3935,-34C3947,-34 3952.25,-34 3960.88,-34"/>
<polygon fill="red" stroke="red" points="3961,-37.5 3971,-34 3961,-30.5 3961,-37.5"/>
</g>
<!-- Node0x60000070bcf0 -->
<g id="node34" class="node">
<title>Node0x60000070bcf0</title>
<polygon fill="none" stroke="black" points="4094,-9 4094,-77 4182,-77 4182,-9 4094,-9"/>
<text text-anchor="middle" x="4138" y="-66.6" font-family="Times,serif" font-size="8.00">word: stuff</text>
<polyline fill="none" stroke="black" points="4094,-60 4182,-60 "/>
<text text-anchor="middle" x="4138" y="-49.6" font-family="Times,serif" font-size="8.00">size: 1</text>
<polyline fill="none" stroke="black" points="4094,-43 4182,-43 "/>
<text text-anchor="middle" x="4138" y="-32.6" font-family="Times,serif" font-size="8.00">next: 0x60000070be70</text>
<polyline fill="none" stroke="black" points="4094,-26 4182,-26 "/>
<text text-anchor="middle" x="4138" y="-15.6" font-family="Times,serif" font-size="8.00">prev: 0x60000070b360</text>
</g>
<!-- Node0x60000070b360&#45;&gt;Node0x60000070bcf0 -->
<g id="edge33" class="edge">
<title>Node0x60000070b360:n&#45;&gt;Node0x60000070bcf0:n</title>
<path fill="none" stroke="red" d="M4058,-34C4070,-34 4075.25,-34 4083.88,-34"/>
<polygon fill="red" stroke="red" points="4084,-37.5 4094,-34 4084,-30.5 4084,-37.5"/>
</g>
<!-- Node0x60000070be70 -->
<g id="node35" class="node">
<title>Node0x60000070be70</title>
<polygon fill="none" stroke="black" points="4218,-9 4218,-77 4305,-77 4305,-9 4218,-9"/>
<text text-anchor="middle" x="4261.5" y="-66.6" font-family="Times,serif" font-size="8.00">word: earthen</text>
<polyline fill="none" stroke="black" points="4218,-60 4305,-60 "/>
<text text-anchor="middle" x="4261.5" y="-49.6" font-family="Times,serif" font-size="8.00">size: 1</text>
<polyline fill="none" stroke="black" points="4218,-43 4305,-43 "/>
<text text-anchor="middle" x="4261.5" y="-32.6" font-family="Times,serif" font-size="8.00">next: 0x0</text>
<polyline fill="none" stroke="black" points="4218,-26 4305,-26 "/>
<text text-anchor="middle" x="4261.5" y="-15.6" font-family="Times,serif" font-size="8.00">prev: 0x60000070bcf0</text>
</g>
<!-- Node0x60000070bcf0&#45;&gt;Node0x60000070be70 -->
<g id="edge34" class="edge">
<title>Node0x60000070bcf0:n&#45;&gt;Node0x60000070be70:n</title>
<path fill="none" stroke="red" d="M4182,-34C4194,-34 4199.25,-34 4207.88,-34"/>
<polygon fill="red" stroke="red" points="4208,-37.5 4218,-34 4208,-30.5 4208,-37.5"/>
</g>
</g>
</svg>
