<?xml version="1.0" encoding="UTF-8" standalone="no"?>
<!DOCTYPE svg PUBLIC "-//W3C//DTD SVG 1.1//EN"
 "http://www.w3.org/Graphics/SVG/1.1/DTD/svg11.dtd">
<!-- Generated by graphviz version 2.50.0 (20211204.2007)
 -->
<!-- Title: G Pages: 1 -->
<svg width="3829pt" height="117pt"
 viewBox="0.00 0.00 3829.00 117.00" xmlns="http://www.w3.org/2000/svg" xmlns:xlink="http://www.w3.org/1999/xlink">
<g id="graph0" class="graph" transform="scale(1 1) rotate(0) translate(4 113)">
<title>G</title>
<polygon fill="white" stroke="transparent" points="-4,4 -4,-113 3825,-113 3825,4 -4,4"/>
<g id="clust5" class="cluster">
<title>cluster797</title>
<polygon fill="none" stroke="black" points="503,-8 503,-101 591,-101 591,-8 503,-8"/>
<text text-anchor="middle" x="547" y="-85.8" font-family="Times,serif" font-size="14.00">797</text>
</g>
<g id="clust6" class="cluster">
<title>cluster798</title>
<polygon fill="none" stroke="black" points="627,-8 627,-101 715,-101 715,-8 627,-8"/>
<text text-anchor="middle" x="671" y="-85.8" font-family="Times,serif" font-size="14.00">798</text>
</g>
<g id="clust7" class="cluster">
<title>cluster799</title>
<polygon fill="none" stroke="black" points="751,-8 751,-101 839,-101 839,-8 751,-8"/>
<text text-anchor="middle" x="795" y="-85.8" font-family="Times,serif" font-size="14.00">799</text>
</g>
<g id="clust8" class="cluster">
<title>cluster800</title>
<polygon fill="none" stroke="black" points="875,-8 875,-101 963,-101 963,-8 875,-8"/>
<text text-anchor="middle" x="919" y="-85.8" font-family="Times,serif" font-size="14.00">800</text>
</g>
<g id="clust9" class="cluster">
<title>cluster801</title>
<polygon fill="none" stroke="black" points="999,-8 999,-101 1087,-101 1087,-8 999,-8"/>
<text text-anchor="middle" x="1043" y="-85.8" font-family="Times,serif" font-size="14.00">801</text>
</g>
<g id="clust10" class="cluster">
<title>cluster802</title>
<polygon fill="none" stroke="black" points="1123,-8 1123,-101 1211,-101 1211,-8 1123,-8"/>
<text text-anchor="middle" x="1167" y="-85.8" font-family="Times,serif" font-size="14.00">802</text>
</g>
<g id="clust11" class="cluster">
<title>cluster803</title>
<polygon fill="none" stroke="black" points="1247,-8 1247,-101 1335,-101 1335,-8 1247,-8"/>
<text text-anchor="middle" x="1291" y="-85.8" font-family="Times,serif" font-size="14.00">803</text>
</g>
<g id="clust12" class="cluster">
<title>cluster804</title>
<polygon fill="none" stroke="black" points="1371,-8 1371,-101 1459,-101 1459,-8 1371,-8"/>
<text text-anchor="middle" x="1415" y="-85.8" font-family="Times,serif" font-size="14.00">804</text>
</g>
<g id="clust13" class="cluster">
<title>cluster805</title>
<polygon fill="none" stroke="black" points="1495,-8 1495,-101 1583,-101 1583,-8 1495,-8"/>
<text text-anchor="middle" x="1539" y="-85.8" font-family="Times,serif" font-size="14.00">805</text>
</g>
<g id="clust14" class="cluster">
<title>cluster806</title>
<polygon fill="none" stroke="black" points="1619,-8 1619,-101 1707,-101 1707,-8 1619,-8"/>
<text text-anchor="middle" x="1663" y="-85.8" font-family="Times,serif" font-size="14.00">806</text>
</g>
<g id="clust15" class="cluster">
<title>cluster807</title>
<polygon fill="none" stroke="black" points="1743,-8 1743,-101 1831,-101 1831,-8 1743,-8"/>
<text text-anchor="middle" x="1787" y="-85.8" font-family="Times,serif" font-size="14.00">807</text>
</g>
<g id="clust16" class="cluster">
<title>cluster808</title>
<polygon fill="none" stroke="black" points="1867,-8 1867,-101 1954,-101 1954,-8 1867,-8"/>
<text text-anchor="middle" x="1910.5" y="-85.8" font-family="Times,serif" font-size="14.00">808</text>
</g>
<g id="clust17" class="cluster">
<title>cluster809</title>
<polygon fill="none" stroke="black" points="1990,-8 1990,-101 2078,-101 2078,-8 1990,-8"/>
<text text-anchor="middle" x="2034" y="-85.8" font-family="Times,serif" font-size="14.00">809</text>
</g>
<g id="clust18" class="cluster">
<title>cluster810</title>
<polygon fill="none" stroke="black" points="2114,-8 2114,-101 2201,-101 2201,-8 2114,-8"/>
<text text-anchor="middle" x="2157.5" y="-85.8" font-family="Times,serif" font-size="14.00">810</text>
</g>
<g id="clust19" class="cluster">
<title>cluster811</title>
<polygon fill="none" stroke="black" points="2237,-8 2237,-101 2325,-101 2325,-8 2237,-8"/>
<text text-anchor="middle" x="2281" y="-85.8" font-family="Times,serif" font-size="14.00">811</text>
</g>
<g id="clust20" class="cluster">
<title>cluster812</title>
<polygon fill="none" stroke="black" points="2361,-8 2361,-101 2449,-101 2449,-8 2361,-8"/>
<text text-anchor="middle" x="2405" y="-85.8" font-family="Times,serif" font-size="14.00">812</text>
</g>
<g id="clust21" class="cluster">
<title>cluster813</title>
<polygon fill="none" stroke="black" points="2485,-8 2485,-101 2573,-101 2573,-8 2485,-8"/>
<text text-anchor="middle" x="2529" y="-85.8" font-family="Times,serif" font-size="14.00">813</text>
</g>
<g id="clust22" class="cluster">
<title>cluster814</title>
<polygon fill="none" stroke="black" points="2609,-8 2609,-101 2697,-101 2697,-8 2609,-8"/>
<text text-anchor="middle" x="2653" y="-85.8" font-family="Times,serif" font-size="14.00">814</text>
</g>
<g id="clust23" class="cluster">
<title>cluster815</title>
<polygon fill="none" stroke="black" points="2733,-8 2733,-101 2821,-101 2821,-8 2733,-8"/>
<text text-anchor="middle" x="2777" y="-85.8" font-family="Times,serif" font-size="14.00">815</text>
</g>
<g id="clust24" class="cluster">
<title>cluster816</title>
<polygon fill="none" stroke="black" points="2857,-8 2857,-101 2945,-101 2945,-8 2857,-8"/>
<text text-anchor="middle" x="2901" y="-85.8" font-family="Times,serif" font-size="14.00">816</text>
</g>
<g id="clust25" class="cluster">
<title>cluster817</title>
<polygon fill="none" stroke="black" points="2981,-8 2981,-101 3069,-101 3069,-8 2981,-8"/>
<text text-anchor="middle" x="3025" y="-85.8" font-family="Times,serif" font-size="14.00">817</text>
</g>
<g id="clust26" class="cluster">
<title>cluster818</title>
<polygon fill="none" stroke="black" points="3105,-8 3105,-101 3193,-101 3193,-8 3105,-8"/>
<text text-anchor="middle" x="3149" y="-85.8" font-family="Times,serif" font-size="14.00">818</text>
</g>
<g id="clust27" class="cluster">
<title>cluster819</title>
<polygon fill="none" stroke="black" points="3229,-8 3229,-101 3317,-101 3317,-8 3229,-8"/>
<text text-anchor="middle" x="3273" y="-85.8" font-family="Times,serif" font-size="14.00">819</text>
</g>
<g id="clust28" class="cluster">
<title>cluster820</title>
<polygon fill="none" stroke="black" points="3353,-8 3353,-101 3441,-101 3441,-8 3353,-8"/>
<text text-anchor="middle" x="3397" y="-85.8" font-family="Times,serif" font-size="14.00">820</text>
</g>
<g id="clust29" class="cluster">
<title>cluster821</title>
<polygon fill="none" stroke="black" points="3477,-8 3477,-101 3565,-101 3565,-8 3477,-8"/>
<text text-anchor="middle" x="3521" y="-85.8" font-family="Times,serif" font-size="14.00">821</text>
</g>
<g id="clust30" class="cluster">
<title>cluster822</title>
<polygon fill="none" stroke="black" points="3601,-8 3601,-101 3689,-101 3689,-8 3601,-8"/>
<text text-anchor="middle" x="3645" y="-85.8" font-family="Times,serif" font-size="14.00">822</text>
</g>
<g id="clust31" class="cluster">
<title>cluster823</title>
<polygon fill="none" stroke="black" points="3725,-8 3725,-101 3813,-101 3813,-8 3725,-8"/>
<text text-anchor="middle" x="3769" y="-85.8" font-family="Times,serif" font-size="14.00">823</text>
</g>
<g id="clust1" class="cluster">
<title>cluster793</title>
<polygon fill="none" stroke="black" points="8,-8 8,-101 95,-101 95,-8 8,-8"/>
<text text-anchor="middle" x="51.5" y="-85.8" font-family="Times,serif" font-size="14.00">793</text>
</g>
<g id="clust2" class="cluster">
<title>cluster794</title>
<polygon fill="none" stroke="black" points="131,-8 131,-101 219,-101 219,-8 131,-8"/>
<text text-anchor="middle" x="175" y="-85.8" font-family="Times,serif" font-size="14.00">794</text>
</g>
<g id="clust3" class="cluster">
<title>cluster795</title>
<polygon fill="none" stroke="black" points="255,-8 255,-101 343,-101 343,-8 255,-8"/>
<text text-anchor="middle" x="299" y="-85.8" font-family="Times,serif" font-size="14.00">795</text>
</g>
<g id="clust4" class="cluster">
<title>cluster796</title>
<polygon fill="none" stroke="black" points="379,-8 379,-101 467,-101 467,-8 379,-8"/>
<text text-anchor="middle" x="423" y="-85.8" font-family="Times,serif" font-size="14.00">796</text>
</g>
<!-- Node0x600000711500 -->
<g id="node1" class="node">
<title>Node0x600000711500</title>
<polygon fill="none" stroke="black" points="8,-9 8,-77 95,-77 95,-9 8,-9"/>
<text text-anchor="middle" x="51.5" y="-66.6" font-family="Times,serif" font-size="8.00">word: where</text>
<polyline fill="none" stroke="black" points="8,-60 95,-60 "/>
<text text-anchor="middle" x="51.5" y="-49.6" font-family="Times,serif" font-size="8.00">size: 26</text>
<polyline fill="none" stroke="black" points="8,-43 95,-43 "/>
<text text-anchor="middle" x="51.5" y="-32.6" font-family="Times,serif" font-size="8.00">next: 0x600000714210</text>
<polyline fill="none" stroke="black" points="8,-26 95,-26 "/>
<text text-anchor="middle" x="51.5" y="-15.6" font-family="Times,serif" font-size="8.00">prev: 0x0</text>
</g>
<!-- Node0x600000714210 -->
<g id="node2" class="node">
<title>Node0x600000714210</title>
<polygon fill="none" stroke="black" points="131,-9 131,-77 219,-77 219,-9 131,-9"/>
<text text-anchor="middle" x="175" y="-66.6" font-family="Times,serif" font-size="8.00">word: better</text>
<polyline fill="none" stroke="black" points="131,-60 219,-60 "/>
<text text-anchor="middle" x="175" y="-49.6" font-family="Times,serif" font-size="8.00">size: 12</text>
<polyline fill="none" stroke="black" points="131,-43 219,-43 "/>
<text text-anchor="middle" x="175" y="-32.6" font-family="Times,serif" font-size="8.00">next: 0x600000714b10</text>
<polyline fill="none" stroke="black" points="131,-26 219,-26 "/>
<text text-anchor="middle" x="175" y="-15.6" font-family="Times,serif" font-size="8.00">prev: 0x600000711500</text>
</g>
<!-- Node0x600000711500&#45;&gt;Node0x600000714210 -->
<g id="edge1" class="edge">
<title>Node0x600000711500:n&#45;&gt;Node0x600000714210:n</title>
<path fill="none" stroke="red" d="M95,-34C107,-34 112.25,-34 120.88,-34"/>
<polygon fill="red" stroke="red" points="121,-37.5 131,-34 121,-30.5 121,-37.5"/>
</g>
<!-- Node0x600000714b10 -->
<g id="node3" class="node">
<title>Node0x600000714b10</title>
<polygon fill="none" stroke="black" points="255,-9 255,-77 343,-77 343,-9 255,-9"/>
<text text-anchor="middle" x="299" y="-66.6" font-family="Times,serif" font-size="8.00">word: enter</text>
<polyline fill="none" stroke="black" points="255,-60 343,-60 "/>
<text text-anchor="middle" x="299" y="-49.6" font-family="Times,serif" font-size="8.00">size: 3</text>
<polyline fill="none" stroke="black" points="255,-43 343,-43 "/>
<text text-anchor="middle" x="299" y="-32.6" font-family="Times,serif" font-size="8.00">next: 0x600000715d70</text>
<polyline fill="none" stroke="black" points="255,-26 343,-26 "/>
<text text-anchor="middle" x="299" y="-15.6" font-family="Times,serif" font-size="8.00">prev: 0x600000714210</text>
</g>
<!-- Node0x600000714210&#45;&gt;Node0x600000714b10 -->
<g id="edge2" class="edge">
<title>Node0x600000714210:n&#45;&gt;Node0x600000714b10:n</title>
<path fill="none" stroke="red" d="M219,-34C231,-34 236.25,-34 244.88,-34"/>
<polygon fill="red" stroke="red" points="245,-37.5 255,-34 245,-30.5 245,-37.5"/>
</g>
<!-- Node0x600000715d70 -->
<g id="node4" class="node">
<title>Node0x600000715d70</title>
<polygon fill="none" stroke="black" points="379,-9 379,-77 467,-77 467,-9 379,-9"/>
<text text-anchor="middle" x="423" y="-66.6" font-family="Times,serif" font-size="8.00">word: case</text>
<polyline fill="none" stroke="black" points="379,-60 467,-60 "/>
<text text-anchor="middle" x="423" y="-49.6" font-family="Times,serif" font-size="8.00">size: 9</text>
<polyline fill="none" stroke="black" points="379,-43 467,-43 "/>
<text text-anchor="middle" x="423" y="-32.6" font-family="Times,serif" font-size="8.00">next: 0x600000716100</text>
<polyline fill="none" stroke="black" points="379,-26 467,-26 "/>
<text text-anchor="middle" x="423" y="-15.6" font-family="Times,serif" font-size="8.00">prev: 0x600000714b10</text>
</g>
<!-- Node0x600000714b10&#45;&gt;Node0x600000715d70 -->
<g id="edge3" class="edge">
<title>Node0x600000714b10:n&#45;&gt;Node0x600000715d70:n</title>
<path fill="none" stroke="red" d="M343,-34C355,-34 360.25,-34 368.88,-34"/>
<polygon fill="red" stroke="red" points="369,-37.5 379,-34 369,-30.5 369,-37.5"/>
</g>
<!-- Node0x600000716100 -->
<g id="node5" class="node">
<title>Node0x600000716100</title>
<polygon fill="none" stroke="black" points="503,-9 503,-77 591,-77 591,-9 503,-9"/>
<text text-anchor="middle" x="547" y="-66.6" font-family="Times,serif" font-size="8.00">word: ere</text>
<polyline fill="none" stroke="black" points="503,-60 591,-60 "/>
<text text-anchor="middle" x="547" y="-49.6" font-family="Times,serif" font-size="8.00">size: 15</text>
<polyline fill="none" stroke="black" points="503,-43 591,-43 "/>
<text text-anchor="middle" x="547" y="-32.6" font-family="Times,serif" font-size="8.00">next: 0x600000716790</text>
<polyline fill="none" stroke="black" points="503,-26 591,-26 "/>
<text text-anchor="middle" x="547" y="-15.6" font-family="Times,serif" font-size="8.00">prev: 0x600000715d70</text>
</g>
<!-- Node0x600000715d70&#45;&gt;Node0x600000716100 -->
<g id="edge4" class="edge">
<title>Node0x600000715d70:n&#45;&gt;Node0x600000716100:n</title>
<path fill="none" stroke="red" d="M467,-34C479,-34 484.25,-34 492.88,-34"/>
<polygon fill="red" stroke="red" points="493,-37.5 503,-34 493,-30.5 493,-37.5"/>
</g>
<!-- Node0x600000716790 -->
<g id="node6" class="node">
<title>Node0x600000716790</title>
<polygon fill="none" stroke="black" points="627,-9 627,-77 715,-77 715,-9 627,-9"/>
<text text-anchor="middle" x="671" y="-66.6" font-family="Times,serif" font-size="8.00">word: was</text>
<polyline fill="none" stroke="black" points="627,-60 715,-60 "/>
<text text-anchor="middle" x="671" y="-49.6" font-family="Times,serif" font-size="8.00">size: 43</text>
<polyline fill="none" stroke="black" points="627,-43 715,-43 "/>
<text text-anchor="middle" x="671" y="-32.6" font-family="Times,serif" font-size="8.00">next: 0x6000007170c0</text>
<polyline fill="none" stroke="black" points="627,-26 715,-26 "/>
<text text-anchor="middle" x="671" y="-15.6" font-family="Times,serif" font-size="8.00">prev: 0x600000716100</text>
</g>
<!-- Node0x600000716100&#45;&gt;Node0x600000716790 -->
<g id="edge5" class="edge">
<title>Node0x600000716100:n&#45;&gt;Node0x600000716790:n</title>
<path fill="none" stroke="red" d="M591,-34C603,-34 608.25,-34 616.88,-34"/>
<polygon fill="red" stroke="red" points="617,-37.5 627,-34 617,-30.5 617,-37.5"/>
</g>
<!-- Node0x6000007170c0 -->
<g id="node7" class="node">
<title>Node0x6000007170c0</title>
<polygon fill="none" stroke="black" points="751,-9 751,-77 839,-77 839,-9 751,-9"/>
<text text-anchor="middle" x="795" y="-66.6" font-family="Times,serif" font-size="8.00">word: Many</text>
<polyline fill="none" stroke="black" points="751,-60 839,-60 "/>
<text text-anchor="middle" x="795" y="-49.6" font-family="Times,serif" font-size="8.00">size: 2</text>
<polyline fill="none" stroke="black" points="751,-43 839,-43 "/>
<text text-anchor="middle" x="795" y="-32.6" font-family="Times,serif" font-size="8.00">next: 0x600000719c50</text>
<polyline fill="none" stroke="black" points="751,-26 839,-26 "/>
<text text-anchor="middle" x="795" y="-15.6" font-family="Times,serif" font-size="8.00">prev: 0x600000716790</text>
</g>
<!-- Node0x600000716790&#45;&gt;Node0x6000007170c0 -->
<g id="edge6" class="edge">
<title>Node0x600000716790:n&#45;&gt;Node0x6000007170c0:n</title>
<path fill="none" stroke="red" d="M715,-34C727,-34 732.25,-34 740.88,-34"/>
<polygon fill="red" stroke="red" points="741,-37.5 751,-34 741,-30.5 741,-37.5"/>
</g>
<!-- Node0x600000719c50 -->
<g id="node8" class="node">
<title>Node0x600000719c50</title>
<polygon fill="none" stroke="black" points="875,-9 875,-77 963,-77 963,-9 875,-9"/>
<text text-anchor="middle" x="919" y="-66.6" font-family="Times,serif" font-size="8.00">word: assailing</text>
<polyline fill="none" stroke="black" points="875,-60 963,-60 "/>
<text text-anchor="middle" x="919" y="-49.6" font-family="Times,serif" font-size="8.00">size: 1</text>
<polyline fill="none" stroke="black" points="875,-43 963,-43 "/>
<text text-anchor="middle" x="919" y="-32.6" font-family="Times,serif" font-size="8.00">next: 0x60000071a0a0</text>
<polyline fill="none" stroke="black" points="875,-26 963,-26 "/>
<text text-anchor="middle" x="919" y="-15.6" font-family="Times,serif" font-size="8.00">prev: 0x6000007170c0</text>
</g>
<!-- Node0x6000007170c0&#45;&gt;Node0x600000719c50 -->
<g id="edge7" class="edge">
<title>Node0x6000007170c0:n&#45;&gt;Node0x600000719c50:n</title>
<path fill="none" stroke="red" d="M839,-34C851,-34 856.25,-34 864.88,-34"/>
<polygon fill="red" stroke="red" points="865,-37.5 875,-34 865,-30.5 865,-37.5"/>
</g>
<!-- Node0x60000071a0a0 -->
<g id="node9" class="node">
<title>Node0x60000071a0a0</title>
<polygon fill="none" stroke="black" points="999,-9 999,-77 1087,-77 1087,-9 999,-9"/>
<text text-anchor="middle" x="1043" y="-66.6" font-family="Times,serif" font-size="8.00">word: merit</text>
<polyline fill="none" stroke="black" points="999,-60 1087,-60 "/>
<text text-anchor="middle" x="1043" y="-49.6" font-family="Times,serif" font-size="8.00">size: 2</text>
<polyline fill="none" stroke="black" points="999,-43 1087,-43 "/>
<text text-anchor="middle" x="1043" y="-32.6" font-family="Times,serif" font-size="8.00">next: 0x60000071c240</text>
<polyline fill="none" stroke="black" points="999,-26 1087,-26 "/>
<text text-anchor="middle" x="1043" y="-15.6" font-family="Times,serif" font-size="8.00">prev: 0x600000719c50</text>
</g>
<!-- Node0x600000719c50&#45;&gt;Node0x60000071a0a0 -->
<g id="edge8" class="edge">
<title>Node0x600000719c50:n&#45;&gt;Node0x60000071a0a0:n</title>
<path fill="none" stroke="red" d="M963,-34C975,-34 980.25,-34 988.88,-34"/>
<polygon fill="red" stroke="red" points="989,-37.5 999,-34 989,-30.5 989,-37.5"/>
</g>
<!-- Node0x60000071c240 -->
<g id="node10" class="node">
<title>Node0x60000071c240</title>
<polygon fill="none" stroke="black" points="1123,-9 1123,-77 1211,-77 1211,-9 1123,-9"/>
<text text-anchor="middle" x="1167" y="-66.6" font-family="Times,serif" font-size="8.00">word: choice</text>
<polyline fill="none" stroke="black" points="1123,-60 1211,-60 "/>
<text text-anchor="middle" x="1167" y="-49.6" font-family="Times,serif" font-size="8.00">size: 2</text>
<polyline fill="none" stroke="black" points="1123,-43 1211,-43 "/>
<text text-anchor="middle" x="1167" y="-32.6" font-family="Times,serif" font-size="8.00">next: 0x60000071c570</text>
<polyline fill="none" stroke="black" points="1123,-26 1211,-26 "/>
<text text-anchor="middle" x="1167" y="-15.6" font-family="Times,serif" font-size="8.00">prev: 0x60000071a0a0</text>
</g>
<!-- Node0x60000071a0a0&#45;&gt;Node0x60000071c240 -->
<g id="edge9" class="edge">
<title>Node0x60000071a0a0:n&#45;&gt;Node0x60000071c240:n</title>
<path fill="none" stroke="red" d="M1087,-34C1099,-34 1104.25,-34 1112.88,-34"/>
<polygon fill="red" stroke="red" points="1113,-37.5 1123,-34 1113,-30.5 1113,-37.5"/>
</g>
<!-- Node0x60000071c570 -->
<g id="node11" class="node">
<title>Node0x60000071c570</title>
<polygon fill="none" stroke="black" points="1247,-9 1247,-77 1335,-77 1335,-9 1247,-9"/>
<text text-anchor="middle" x="1291" y="-66.6" font-family="Times,serif" font-size="8.00">word: nieces</text>
<polyline fill="none" stroke="black" points="1247,-60 1335,-60 "/>
<text text-anchor="middle" x="1291" y="-49.6" font-family="Times,serif" font-size="8.00">size: 1</text>
<polyline fill="none" stroke="black" points="1247,-43 1335,-43 "/>
<text text-anchor="middle" x="1291" y="-32.6" font-family="Times,serif" font-size="8.00">next: 0x60000071cb40</text>
<polyline fill="none" stroke="black" points="1247,-26 1335,-26 "/>
<text text-anchor="middle" x="1291" y="-15.6" font-family="Times,serif" font-size="8.00">prev: 0x60000071c240</text>
</g>
<!-- Node0x60000071c240&#45;&gt;Node0x60000071c570 -->
<g id="edge10" class="edge">
<title>Node0x60000071c240:n&#45;&gt;Node0x60000071c570:n</title>
<path fill="none" stroke="red" d="M1211,-34C1223,-34 1228.25,-34 1236.88,-34"/>
<polygon fill="red" stroke="red" points="1237,-37.5 1247,-34 1237,-30.5 1237,-37.5"/>
</g>
<!-- Node0x60000071cb40 -->
<g id="node12" class="node">
<title>Node0x60000071cb40</title>
<polygon fill="none" stroke="black" points="1371,-9 1371,-77 1459,-77 1459,-9 1371,-9"/>
<text text-anchor="middle" x="1415" y="-66.6" font-family="Times,serif" font-size="8.00">word: face</text>
<polyline fill="none" stroke="black" points="1371,-60 1459,-60 "/>
<text text-anchor="middle" x="1415" y="-49.6" font-family="Times,serif" font-size="8.00">size: 23</text>
<polyline fill="none" stroke="black" points="1371,-43 1459,-43 "/>
<text text-anchor="middle" x="1415" y="-32.6" font-family="Times,serif" font-size="8.00">next: 0x6000007059b0</text>
<polyline fill="none" stroke="black" points="1371,-26 1459,-26 "/>
<text text-anchor="middle" x="1415" y="-15.6" font-family="Times,serif" font-size="8.00">prev: 0x60000071c570</text>
</g>
<!-- Node0x60000071c570&#45;&gt;Node0x60000071cb40 -->
<g id="edge11" class="edge">
<title>Node0x60000071c570:n&#45;&gt;Node0x60000071cb40:n</title>
<path fill="none" stroke="red" d="M1335,-34C1347,-34 1352.25,-34 1360.88,-34"/>
<polygon fill="red" stroke="red" points="1361,-37.5 1371,-34 1361,-30.5 1361,-37.5"/>
</g>
<!-- Node0x6000007059b0 -->
<g id="node13" class="node">
<title>Node0x6000007059b0</title>
<polygon fill="none" stroke="black" points="1495,-9 1495,-77 1583,-77 1583,-9 1495,-9"/>
<text text-anchor="middle" x="1539" y="-66.6" font-family="Times,serif" font-size="8.00">word: Five</text>
<polyline fill="none" stroke="black" points="1495,-60 1583,-60 "/>
<text text-anchor="middle" x="1539" y="-49.6" font-family="Times,serif" font-size="8.00">size: 1</text>
<polyline fill="none" stroke="black" points="1495,-43 1583,-43 "/>
<text text-anchor="middle" x="1539" y="-32.6" font-family="Times,serif" font-size="8.00">next: 0x60000070a0d0</text>
<polyline fill="none" stroke="black" points="1495,-26 1583,-26 "/>
<text text-anchor="middle" x="1539" y="-15.6" font-family="Times,serif" font-size="8.00">prev: 0x60000071cb40</text>
</g>
<!-- Node0x60000071cb40&#45;&gt;Node0x6000007059b0 -->
<g id="edge12" class="edge">
<title>Node0x60000071cb40:n&#45;&gt;Node0x6000007059b0:n</title>
<path fill="none" stroke="red" d="M1459,-34C1471,-34 1476.25,-34 1484.88,-34"/>
<polygon fill="red" stroke="red" points="1485,-37.5 1495,-34 1485,-30.5 1485,-37.5"/>
</g>
<!-- Node0x60000070a0d0 -->
<g id="node14" class="node">
<title>Node0x60000070a0d0</title>
<polygon fill="none" stroke="black" points="1619,-9 1619,-77 1707,-77 1707,-9 1619,-9"/>
<text text-anchor="middle" x="1663" y="-66.6" font-family="Times,serif" font-size="8.00">word: fingers</text>
<polyline fill="none" stroke="black" points="1619,-60 1707,-60 "/>
<text text-anchor="middle" x="1663" y="-49.6" font-family="Times,serif" font-size="8.00">size: 5</text>
<polyline fill="none" stroke="black" points="1619,-43 1707,-43 "/>
<text text-anchor="middle" x="1663" y="-32.6" font-family="Times,serif" font-size="8.00">next: 0x60000071df80</text>
<polyline fill="none" stroke="black" points="1619,-26 1707,-26 "/>
<text text-anchor="middle" x="1663" y="-15.6" font-family="Times,serif" font-size="8.00">prev: 0x6000007059b0</text>
</g>
<!-- Node0x6000007059b0&#45;&gt;Node0x60000070a0d0 -->
<g id="edge13" class="edge">
<title>Node0x6000007059b0:n&#45;&gt;Node0x60000070a0d0:n</title>
<path fill="none" stroke="red" d="M1583,-34C1595,-34 1600.25,-34 1608.88,-34"/>
<polygon fill="red" stroke="red" points="1609,-37.5 1619,-34 1609,-30.5 1609,-37.5"/>
</g>
<!-- Node0x60000071df80 -->
<g id="node15" class="node">
<title>Node0x60000071df80</title>
<polygon fill="none" stroke="black" points="1743,-9 1743,-77 1831,-77 1831,-9 1743,-9"/>
<text text-anchor="middle" x="1787" y="-66.6" font-family="Times,serif" font-size="8.00">word: bakes</text>
<polyline fill="none" stroke="black" points="1743,-60 1831,-60 "/>
<text text-anchor="middle" x="1787" y="-49.6" font-family="Times,serif" font-size="8.00">size: 1</text>
<polyline fill="none" stroke="black" points="1743,-43 1831,-43 "/>
<text text-anchor="middle" x="1787" y="-32.6" font-family="Times,serif" font-size="8.00">next: 0x600000700090</text>
<polyline fill="none" stroke="black" points="1743,-26 1831,-26 "/>
<text text-anchor="middle" x="1787" y="-15.6" font-family="Times,serif" font-size="8.00">prev: 0x60000070a0d0</text>
</g>
<!-- Node0x60000070a0d0&#45;&gt;Node0x60000071df80 -->
<g id="edge14" class="edge">
<title>Node0x60000070a0d0:n&#45;&gt;Node0x60000071df80:n</title>
<path fill="none" stroke="red" d="M1707,-34C1719,-34 1724.25,-34 1732.88,-34"/>
<polygon fill="red" stroke="red" points="1733,-37.5 1743,-34 1733,-30.5 1733,-37.5"/>
</g>
<!-- Node0x600000700090 -->
<g id="node16" class="node">
<title>Node0x600000700090</title>
<polygon fill="none" stroke="black" points="1867,-9 1867,-77 1954,-77 1954,-9 1867,-9"/>
<text text-anchor="middle" x="1910.5" y="-66.6" font-family="Times,serif" font-size="8.00">word: disparagement</text>
<polyline fill="none" stroke="black" points="1867,-60 1954,-60 "/>
<text text-anchor="middle" x="1910.5" y="-49.6" font-family="Times,serif" font-size="8.00">size: 1</text>
<polyline fill="none" stroke="black" points="1867,-43 1954,-43 "/>
<text text-anchor="middle" x="1910.5" y="-32.6" font-family="Times,serif" font-size="8.00">next: 0x6000007009f0</text>
<polyline fill="none" stroke="black" points="1867,-26 1954,-26 "/>
<text text-anchor="middle" x="1910.5" y="-15.6" font-family="Times,serif" font-size="8.00">prev: 0x60000071df80</text>
</g>
<!-- Node0x60000071df80&#45;&gt;Node0x600000700090 -->
<g id="edge15" class="edge">
<title>Node0x60000071df80:n&#45;&gt;Node0x600000700090:n</title>
<path fill="none" stroke="red" d="M1831,-34C1843,-34 1848.25,-34 1856.88,-34"/>
<polygon fill="red" stroke="red" points="1857,-37.5 1867,-34 1857,-30.5 1857,-37.5"/>
</g>
<!-- Node0x6000007009f0 -->
<g id="node17" class="node">
<title>Node0x6000007009f0</title>
<polygon fill="none" stroke="black" points="1990,-9 1990,-77 2078,-77 2078,-9 1990,-9"/>
<text text-anchor="middle" x="2034" y="-66.6" font-family="Times,serif" font-size="8.00">word: sake</text>
<polyline fill="none" stroke="black" points="1990,-60 2078,-60 "/>
<text text-anchor="middle" x="2034" y="-49.6" font-family="Times,serif" font-size="8.00">size: 4</text>
<polyline fill="none" stroke="black" points="1990,-43 2078,-43 "/>
<text text-anchor="middle" x="2034" y="-32.6" font-family="Times,serif" font-size="8.00">next: 0x600000701b00</text>
<polyline fill="none" stroke="black" points="1990,-26 2078,-26 "/>
<text text-anchor="middle" x="2034" y="-15.6" font-family="Times,serif" font-size="8.00">prev: 0x600000700090</text>
</g>
<!-- Node0x600000700090&#45;&gt;Node0x6000007009f0 -->
<g id="edge16" class="edge">
<title>Node0x600000700090:n&#45;&gt;Node0x6000007009f0:n</title>
<path fill="none" stroke="red" d="M1954,-34C1966,-34 1971.25,-34 1979.88,-34"/>
<polygon fill="red" stroke="red" points="1980,-37.5 1990,-34 1980,-30.5 1980,-37.5"/>
</g>
<!-- Node0x600000701b00 -->
<g id="node18" class="node">
<title>Node0x600000701b00</title>
<polygon fill="none" stroke="black" points="2114,-9 2114,-77 2201,-77 2201,-9 2114,-9"/>
<text text-anchor="middle" x="2157.5" y="-66.6" font-family="Times,serif" font-size="8.00">word: shot</text>
<polyline fill="none" stroke="black" points="2114,-60 2201,-60 "/>
<text text-anchor="middle" x="2157.5" y="-49.6" font-family="Times,serif" font-size="8.00">size: 2</text>
<polyline fill="none" stroke="black" points="2114,-43 2201,-43 "/>
<text text-anchor="middle" x="2157.5" y="-32.6" font-family="Times,serif" font-size="8.00">next: 0x6000007029a0</text>
<polyline fill="none" stroke="black" points="2114,-26 2201,-26 "/>
<text text-anchor="middle" x="2157.5" y="-15.6" font-family="Times,serif" font-size="8.00">prev: 0x6000007009f0</text>
</g>
<!-- Node0x6000007009f0&#45;&gt;Node0x600000701b00 -->
<g id="edge17" class="edge">
<title>Node0x6000007009f0:n&#45;&gt;Node0x600000701b00:n</title>
<path fill="none" stroke="red" d="M2078,-34C2090,-34 2095.25,-34 2103.88,-34"/>
<polygon fill="red" stroke="red" points="2104,-37.5 2114,-34 2104,-30.5 2104,-37.5"/>
</g>
<!-- Node0x6000007029a0 -->
<g id="node19" class="node">
<title>Node0x6000007029a0</title>
<polygon fill="none" stroke="black" points="2237,-9 2237,-77 2325,-77 2325,-9 2237,-9"/>
<text text-anchor="middle" x="2281" y="-66.6" font-family="Times,serif" font-size="8.00">word: stream</text>
<polyline fill="none" stroke="black" points="2237,-60 2325,-60 "/>
<text text-anchor="middle" x="2281" y="-49.6" font-family="Times,serif" font-size="8.00">size: 1</text>
<polyline fill="none" stroke="black" points="2237,-43 2325,-43 "/>
<text text-anchor="middle" x="2281" y="-32.6" font-family="Times,serif" font-size="8.00">next: 0x600000735ec0</text>
<polyline fill="none" stroke="black" points="2237,-26 2325,-26 "/>
<text text-anchor="middle" x="2281" y="-15.6" font-family="Times,serif" font-size="8.00">prev: 0x600000701b00</text>
</g>
<!-- Node0x600000701b00&#45;&gt;Node0x6000007029a0 -->
<g id="edge18" class="edge">
<title>Node0x600000701b00:n&#45;&gt;Node0x6000007029a0:n</title>
<path fill="none" stroke="red" d="M2201,-34C2213,-34 2218.25,-34 2226.88,-34"/>
<polygon fill="red" stroke="red" points="2227,-37.5 2237,-34 2227,-30.5 2227,-37.5"/>
</g>
<!-- Node0x600000735ec0 -->
<g id="node20" class="node">
<title>Node0x600000735ec0</title>
<polygon fill="none" stroke="black" points="2361,-9 2361,-77 2449,-77 2449,-9 2361,-9"/>
<text text-anchor="middle" x="2405" y="-66.6" font-family="Times,serif" font-size="8.00">word: faster</text>
<polyline fill="none" stroke="black" points="2361,-60 2449,-60 "/>
<text text-anchor="middle" x="2405" y="-49.6" font-family="Times,serif" font-size="8.00">size: 1</text>
<polyline fill="none" stroke="black" points="2361,-43 2449,-43 "/>
<text text-anchor="middle" x="2405" y="-32.6" font-family="Times,serif" font-size="8.00">next: 0x6000007360a0</text>
<polyline fill="none" stroke="black" points="2361,-26 2449,-26 "/>
<text text-anchor="middle" x="2405" y="-15.6" font-family="Times,serif" font-size="8.00">prev: 0x6000007029a0</text>
</g>
<!-- Node0x6000007029a0&#45;&gt;Node0x600000735ec0 -->
<g id="edge19" class="edge">
<title>Node0x6000007029a0:n&#45;&gt;Node0x600000735ec0:n</title>
<path fill="none" stroke="red" d="M2325,-34C2337,-34 2342.25,-34 2350.88,-34"/>
<polygon fill="red" stroke="red" points="2351,-37.5 2361,-34 2351,-30.5 2351,-37.5"/>
</g>
<!-- Node0x6000007360a0 -->
<g id="node21" class="node">
<title>Node0x6000007360a0</title>
<polygon fill="none" stroke="black" points="2485,-9 2485,-77 2573,-77 2573,-9 2485,-9"/>
<text text-anchor="middle" x="2529" y="-66.6" font-family="Times,serif" font-size="8.00">word: highmost</text>
<polyline fill="none" stroke="black" points="2485,-60 2573,-60 "/>
<text text-anchor="middle" x="2529" y="-49.6" font-family="Times,serif" font-size="8.00">size: 1</text>
<polyline fill="none" stroke="black" points="2485,-43 2573,-43 "/>
<text text-anchor="middle" x="2529" y="-32.6" font-family="Times,serif" font-size="8.00">next: 0x600000736e80</text>
<polyline fill="none" stroke="black" points="2485,-26 2573,-26 "/>
<text text-anchor="middle" x="2529" y="-15.6" font-family="Times,serif" font-size="8.00">prev: 0x600000735ec0</text>
</g>
<!-- Node0x600000735ec0&#45;&gt;Node0x6000007360a0 -->
<g id="edge20" class="edge">
<title>Node0x600000735ec0:n&#45;&gt;Node0x6000007360a0:n</title>
<path fill="none" stroke="red" d="M2449,-34C2461,-34 2466.25,-34 2474.88,-34"/>
<polygon fill="red" stroke="red" points="2475,-37.5 2485,-34 2475,-30.5 2475,-37.5"/>
</g>
<!-- Node0x600000736e80 -->
<g id="node22" class="node">
<title>Node0x600000736e80</title>
<polygon fill="none" stroke="black" points="2609,-9 2609,-77 2697,-77 2697,-9 2609,-9"/>
<text text-anchor="middle" x="2653" y="-66.6" font-family="Times,serif" font-size="8.00">word: loathsome</text>
<polyline fill="none" stroke="black" points="2609,-60 2697,-60 "/>
<text text-anchor="middle" x="2653" y="-49.6" font-family="Times,serif" font-size="8.00">size: 3</text>
<polyline fill="none" stroke="black" points="2609,-43 2697,-43 "/>
<text text-anchor="middle" x="2653" y="-32.6" font-family="Times,serif" font-size="8.00">next: 0x60000073ae80</text>
<polyline fill="none" stroke="black" points="2609,-26 2697,-26 "/>
<text text-anchor="middle" x="2653" y="-15.6" font-family="Times,serif" font-size="8.00">prev: 0x6000007360a0</text>
</g>
<!-- Node0x6000007360a0&#45;&gt;Node0x600000736e80 -->
<g id="edge21" class="edge">
<title>Node0x6000007360a0:n&#45;&gt;Node0x600000736e80:n</title>
<path fill="none" stroke="red" d="M2573,-34C2585,-34 2590.25,-34 2598.88,-34"/>
<polygon fill="red" stroke="red" points="2599,-37.5 2609,-34 2599,-30.5 2599,-37.5"/>
</g>
<!-- Node0x60000073ae80 -->
<g id="node23" class="node">
<title>Node0x60000073ae80</title>
<polygon fill="none" stroke="black" points="2733,-9 2733,-77 2821,-77 2821,-9 2733,-9"/>
<text text-anchor="middle" x="2777" y="-66.6" font-family="Times,serif" font-size="8.00">word: containing</text>
<polyline fill="none" stroke="black" points="2733,-60 2821,-60 "/>
<text text-anchor="middle" x="2777" y="-49.6" font-family="Times,serif" font-size="8.00">size: 1</text>
<polyline fill="none" stroke="black" points="2733,-43 2821,-43 "/>
<text text-anchor="middle" x="2777" y="-32.6" font-family="Times,serif" font-size="8.00">next: 0x60000073c5a0</text>
<polyline fill="none" stroke="black" points="2733,-26 2821,-26 "/>
<text text-anchor="middle" x="2777" y="-15.6" font-family="Times,serif" font-size="8.00">prev: 0x600000736e80</text>
</g>
<!-- Node0x600000736e80&#45;&gt;Node0x60000073ae80 -->
<g id="edge22" class="edge">
<title>Node0x600000736e80:n&#45;&gt;Node0x60000073ae80:n</title>
<path fill="none" stroke="red" d="M2697,-34C2709,-34 2714.25,-34 2722.88,-34"/>
<polygon fill="red" stroke="red" points="2723,-37.5 2733,-34 2723,-30.5 2723,-37.5"/>
</g>
<!-- Node0x60000073c5a0 -->
<g id="node24" class="node">
<title>Node0x60000073c5a0</title>
<polygon fill="none" stroke="black" points="2857,-9 2857,-77 2945,-77 2945,-9 2857,-9"/>
<text text-anchor="middle" x="2901" y="-66.6" font-family="Times,serif" font-size="8.00">word: knocks</text>
<polyline fill="none" stroke="black" points="2857,-60 2945,-60 "/>
<text text-anchor="middle" x="2901" y="-49.6" font-family="Times,serif" font-size="8.00">size: 2</text>
<polyline fill="none" stroke="black" points="2857,-43 2945,-43 "/>
<text text-anchor="middle" x="2901" y="-32.6" font-family="Times,serif" font-size="8.00">next: 0x60000073c930</text>
<polyline fill="none" stroke="black" points="2857,-26 2945,-26 "/>
<text text-anchor="middle" x="2901" y="-15.6" font-family="Times,serif" font-size="8.00">prev: 0x60000073ae80</text>
</g>
<!-- Node0x60000073ae80&#45;&gt;Node0x60000073c5a0 -->
<g id="edge23" class="edge">
<title>Node0x60000073ae80:n&#45;&gt;Node0x60000073c5a0:n</title>
<path fill="none" stroke="red" d="M2821,-34C2833,-34 2838.25,-34 2846.88,-34"/>
<polygon fill="red" stroke="red" points="2847,-37.5 2857,-34 2847,-30.5 2847,-37.5"/>
</g>
<!-- Node0x60000073c930 -->
<g id="node25" class="node">
<title>Node0x60000073c930</title>
<polygon fill="none" stroke="black" points="2981,-9 2981,-77 3069,-77 3069,-9 2981,-9"/>
<text text-anchor="middle" x="3025" y="-66.6" font-family="Times,serif" font-size="8.00">word: rises</text>
<polyline fill="none" stroke="black" points="2981,-60 3069,-60 "/>
<text text-anchor="middle" x="3025" y="-49.6" font-family="Times,serif" font-size="8.00">size: 2</text>
<polyline fill="none" stroke="black" points="2981,-43 3069,-43 "/>
<text text-anchor="middle" x="3025" y="-32.6" font-family="Times,serif" font-size="8.00">next: 0x60000073eb50</text>
<polyline fill="none" stroke="black" points="2981,-26 3069,-26 "/>
<text text-anchor="middle" x="3025" y="-15.6" font-family="Times,serif" font-size="8.00">prev: 0x60000073c5a0</text>
</g>
<!-- Node0x60000073c5a0&#45;&gt;Node0x60000073c930 -->
<g id="edge24" class="edge">
<title>Node0x60000073c5a0:n&#45;&gt;Node0x60000073c930:n</title>
<path fill="none" stroke="red" d="M2945,-34C2957,-34 2962.25,-34 2970.88,-34"/>
<polygon fill="red" stroke="red" points="2971,-37.5 2981,-34 2971,-30.5 2971,-37.5"/>
</g>
<!-- Node0x60000073eb50 -->
<g id="node26" class="node">
<title>Node0x60000073eb50</title>
<polygon fill="none" stroke="black" points="3105,-9 3105,-77 3193,-77 3193,-9 3105,-9"/>
<text text-anchor="middle" x="3149" y="-66.6" font-family="Times,serif" font-size="8.00">word: happily</text>
<polyline fill="none" stroke="black" points="3105,-60 3193,-60 "/>
<text text-anchor="middle" x="3149" y="-49.6" font-family="Times,serif" font-size="8.00">size: 1</text>
<polyline fill="none" stroke="black" points="3105,-43 3193,-43 "/>
<text text-anchor="middle" x="3149" y="-32.6" font-family="Times,serif" font-size="8.00">next: 0x60000070c6c0</text>
<polyline fill="none" stroke="black" points="3105,-26 3193,-26 "/>
<text text-anchor="middle" x="3149" y="-15.6" font-family="Times,serif" font-size="8.00">prev: 0x60000073c930</text>
</g>
<!-- Node0x60000073c930&#45;&gt;Node0x60000073eb50 -->
<g id="edge25" class="edge">
<title>Node0x60000073c930:n&#45;&gt;Node0x60000073eb50:n</title>
<path fill="none" stroke="red" d="M3069,-34C3081,-34 3086.25,-34 3094.88,-34"/>
<polygon fill="red" stroke="red" points="3095,-37.5 3105,-34 3095,-30.5 3095,-37.5"/>
</g>
<!-- Node0x60000070c6c0 -->
<g id="node27" class="node">
<title>Node0x60000070c6c0</title>
<polygon fill="none" stroke="black" points="3229,-9 3229,-77 3317,-77 3317,-9 3229,-9"/>
<text text-anchor="middle" x="3273" y="-66.6" font-family="Times,serif" font-size="8.00">word: whit</text>
<polyline fill="none" stroke="black" points="3229,-60 3317,-60 "/>
<text text-anchor="middle" x="3273" y="-49.6" font-family="Times,serif" font-size="8.00">size: 1</text>
<polyline fill="none" stroke="black" points="3229,-43 3317,-43 "/>
<text text-anchor="middle" x="3273" y="-32.6" font-family="Times,serif" font-size="8.00">next: 0x60000070a910</text>
<polyline fill="none" stroke="black" points="3229,-26 3317,-26 "/>
<text text-anchor="middle" x="3273" y="-15.6" font-family="Times,serif" font-size="8.00">prev: 0x60000073eb50</text>
</g>
<!-- Node0x60000073eb50&#45;&gt;Node0x60000070c6c0 -->
<g id="edge26" class="edge">
<title>Node0x60000073eb50:n&#45;&gt;Node0x60000070c6c0:n</title>
<path fill="none" stroke="red" d="M3193,-34C3205,-34 3210.25,-34 3218.88,-34"/>
<polygon fill="red" stroke="red" points="3219,-37.5 3229,-34 3219,-30.5 3219,-37.5"/>
</g>
<!-- Node0x60000070a910 -->
<g id="node28" class="node">
<title>Node0x60000070a910</title>
<polygon fill="none" stroke="black" points="3353,-9 3353,-77 3441,-77 3441,-9 3353,-9"/>
<text text-anchor="middle" x="3397" y="-66.6" font-family="Times,serif" font-size="8.00">word: detestable</text>
<polyline fill="none" stroke="black" points="3353,-60 3441,-60 "/>
<text text-anchor="middle" x="3397" y="-49.6" font-family="Times,serif" font-size="8.00">size: 2</text>
<polyline fill="none" stroke="black" points="3353,-43 3441,-43 "/>
<text text-anchor="middle" x="3397" y="-32.6" font-family="Times,serif" font-size="8.00">next: 0x60000070aa90</text>
<polyline fill="none" stroke="black" points="3353,-26 3441,-26 "/>
<text text-anchor="middle" x="3397" y="-15.6" font-family="Times,serif" font-size="8.00">prev: 0x60000070c6c0</text>
</g>
<!-- Node0x60000070c6c0&#45;&gt;Node0x60000070a910 -->
<g id="edge27" class="edge">
<title>Node0x60000070c6c0:n&#45;&gt;Node0x60000070a910:n</title>
<path fill="none" stroke="red" d="M3317,-34C3329,-34 3334.25,-34 3342.88,-34"/>
<polygon fill="red" stroke="red" points="3343,-37.5 3353,-34 3343,-30.5 3343,-37.5"/>
</g>
<!-- Node0x60000070aa90 -->
<g id="node29" class="node">
<title>Node0x60000070aa90</title>
<polygon fill="none" stroke="black" points="3477,-9 3477,-77 3565,-77 3565,-9 3477,-9"/>
<text text-anchor="middle" x="3521" y="-66.6" font-family="Times,serif" font-size="8.00">word: joys</text>
<polyline fill="none" stroke="black" points="3477,-60 3565,-60 "/>
<text text-anchor="middle" x="3521" y="-49.6" font-family="Times,serif" font-size="8.00">size: 2</text>
<polyline fill="none" stroke="black" points="3477,-43 3565,-43 "/>
<text text-anchor="middle" x="3521" y="-32.6" font-family="Times,serif" font-size="8.00">next: 0x60000070b4e0</text>
<polyline fill="none" stroke="black" points="3477,-26 3565,-26 "/>
<text text-anchor="middle" x="3521" y="-15.6" font-family="Times,serif" font-size="8.00">prev: 0x60000070a910</text>
</g>
<!-- Node0x60000070a910&#45;&gt;Node0x60000070aa90 -->
<g id="edge28" class="edge">
<title>Node0x60000070a910:n&#45;&gt;Node0x60000070aa90:n</title>
<path fill="none" stroke="red" d="M3441,-34C3453,-34 3458.25,-34 3466.88,-34"/>
<polygon fill="red" stroke="red" points="3467,-37.5 3477,-34 3467,-30.5 3467,-37.5"/>
</g>
<!-- Node0x60000070b4e0 -->
<g id="node30" class="node">
<title>Node0x60000070b4e0</title>
<polygon fill="none" stroke="black" points="3601,-9 3601,-77 3689,-77 3689,-9 3601,-9"/>
<text text-anchor="middle" x="3645" y="-66.6" font-family="Times,serif" font-size="8.00">word: speedy</text>
<polyline fill="none" stroke="black" points="3601,-60 3689,-60 "/>
<text text-anchor="middle" x="3645" y="-49.6" font-family="Times,serif" font-size="8.00">size: 1</text>
<polyline fill="none" stroke="black" points="3601,-43 3689,-43 "/>
<text text-anchor="middle" x="3645" y="-32.6" font-family="Times,serif" font-size="8.00">next: 0x600000726100</text>
<polyline fill="none" stroke="black" points="3601,-26 3689,-26 "/>
<text text-anchor="middle" x="3645" y="-15.6" font-family="Times,serif" font-size="8.00">prev: 0x60000070aa90</text>
</g>
<!-- Node0x60000070aa90&#45;&gt;Node0x60000070b4e0 -->
<g id="edge29" class="edge">
<title>Node0x60000070aa90:n&#45;&gt;Node0x60000070b4e0:n</title>
<path fill="none" stroke="red" d="M3565,-34C3577,-34 3582.25,-34 3590.88,-34"/>
<polygon fill="red" stroke="red" points="3591,-37.5 3601,-34 3591,-30.5 3591,-37.5"/>
</g>
<!-- Node0x600000726100 -->
<g id="node31" class="node">
<title>Node0x600000726100</title>
<polygon fill="none" stroke="black" points="3725,-9 3725,-77 3813,-77 3813,-9 3725,-9"/>
<text text-anchor="middle" x="3769" y="-66.6" font-family="Times,serif" font-size="8.00">word: rocks</text>
<polyline fill="none" stroke="black" points="3725,-60 3813,-60 "/>
<text text-anchor="middle" x="3769" y="-49.6" font-family="Times,serif" font-size="8.00">size: 1</text>
<polyline fill="none" stroke="black" points="3725,-43 3813,-43 "/>
<text text-anchor="middle" x="3769" y="-32.6" font-family="Times,serif" font-size="8.00">next: 0x0</text>
<polyline fill="none" stroke="black" points="3725,-26 3813,-26 "/>
<text text-anchor="middle" x="3769" y="-15.6" font-family="Times,serif" font-size="8.00">prev: 0x60000070b4e0</text>
</g>
<!-- Node0x60000070b4e0&#45;&gt;Node0x600000726100 -->
<g id="edge30" class="edge">
<title>Node0x60000070b4e0:n&#45;&gt;Node0x600000726100:n</title>
<path fill="none" stroke="red" d="M3689,-34C3701,-34 3706.25,-34 3714.88,-34"/>
<polygon fill="red" stroke="red" points="3715,-37.5 3725,-34 3715,-30.5 3715,-37.5"/>
</g>
</g>
</svg>
