<?xml version="1.0" encoding="UTF-8" standalone="no"?>
<!DOCTYPE svg PUBLIC "-//W3C//DTD SVG 1.1//EN"
 "http://www.w3.org/Graphics/SVG/1.1/DTD/svg11.dtd">
<!-- Generated by graphviz version 2.50.0 (20211204.2007)
 -->
<!-- Title: G Pages: 1 -->
<svg width="4198pt" height="117pt"
 viewBox="0.00 0.00 4198.00 117.00" xmlns="http://www.w3.org/2000/svg" xmlns:xlink="http://www.w3.org/1999/xlink">
<g id="graph0" class="graph" transform="scale(1 1) rotate(0) translate(4 113)">
<title>G</title>
<polygon fill="white" stroke="transparent" points="-4,4 -4,-113 4194,-113 4194,4 -4,4"/>
<g id="clust1" class="cluster">
<title>cluster442</title>
<polygon fill="none" stroke="black" points="8,-8 8,-101 95,-101 95,-8 8,-8"/>
<text text-anchor="middle" x="51.5" y="-85.8" font-family="Times,serif" font-size="14.00">442</text>
</g>
<g id="clust2" class="cluster">
<title>cluster443</title>
<polygon fill="none" stroke="black" points="131,-8 131,-101 219,-101 219,-8 131,-8"/>
<text text-anchor="middle" x="175" y="-85.8" font-family="Times,serif" font-size="14.00">443</text>
</g>
<g id="clust3" class="cluster">
<title>cluster444</title>
<polygon fill="none" stroke="black" points="255,-8 255,-101 343,-101 343,-8 255,-8"/>
<text text-anchor="middle" x="299" y="-85.8" font-family="Times,serif" font-size="14.00">444</text>
</g>
<g id="clust4" class="cluster">
<title>cluster445</title>
<polygon fill="none" stroke="black" points="379,-8 379,-101 467,-101 467,-8 379,-8"/>
<text text-anchor="middle" x="423" y="-85.8" font-family="Times,serif" font-size="14.00">445</text>
</g>
<g id="clust5" class="cluster">
<title>cluster446</title>
<polygon fill="none" stroke="black" points="503,-8 503,-101 591,-101 591,-8 503,-8"/>
<text text-anchor="middle" x="547" y="-85.8" font-family="Times,serif" font-size="14.00">446</text>
</g>
<g id="clust6" class="cluster">
<title>cluster447</title>
<polygon fill="none" stroke="black" points="627,-8 627,-101 715,-101 715,-8 627,-8"/>
<text text-anchor="middle" x="671" y="-85.8" font-family="Times,serif" font-size="14.00">447</text>
</g>
<g id="clust7" class="cluster">
<title>cluster448</title>
<polygon fill="none" stroke="black" points="751,-8 751,-101 839,-101 839,-8 751,-8"/>
<text text-anchor="middle" x="795" y="-85.8" font-family="Times,serif" font-size="14.00">448</text>
</g>
<g id="clust8" class="cluster">
<title>cluster449</title>
<polygon fill="none" stroke="black" points="875,-8 875,-101 963,-101 963,-8 875,-8"/>
<text text-anchor="middle" x="919" y="-85.8" font-family="Times,serif" font-size="14.00">449</text>
</g>
<g id="clust9" class="cluster">
<title>cluster450</title>
<polygon fill="none" stroke="black" points="999,-8 999,-101 1087,-101 1087,-8 999,-8"/>
<text text-anchor="middle" x="1043" y="-85.8" font-family="Times,serif" font-size="14.00">450</text>
</g>
<g id="clust10" class="cluster">
<title>cluster451</title>
<polygon fill="none" stroke="black" points="1123,-8 1123,-101 1211,-101 1211,-8 1123,-8"/>
<text text-anchor="middle" x="1167" y="-85.8" font-family="Times,serif" font-size="14.00">451</text>
</g>
<g id="clust11" class="cluster">
<title>cluster452</title>
<polygon fill="none" stroke="black" points="1247,-8 1247,-101 1335,-101 1335,-8 1247,-8"/>
<text text-anchor="middle" x="1291" y="-85.8" font-family="Times,serif" font-size="14.00">452</text>
</g>
<g id="clust12" class="cluster">
<title>cluster453</title>
<polygon fill="none" stroke="black" points="1371,-8 1371,-101 1458,-101 1458,-8 1371,-8"/>
<text text-anchor="middle" x="1414.5" y="-85.8" font-family="Times,serif" font-size="14.00">453</text>
</g>
<g id="clust13" class="cluster">
<title>cluster454</title>
<polygon fill="none" stroke="black" points="1494,-8 1494,-101 1582,-101 1582,-8 1494,-8"/>
<text text-anchor="middle" x="1538" y="-85.8" font-family="Times,serif" font-size="14.00">454</text>
</g>
<g id="clust14" class="cluster">
<title>cluster455</title>
<polygon fill="none" stroke="black" points="1618,-8 1618,-101 1706,-101 1706,-8 1618,-8"/>
<text text-anchor="middle" x="1662" y="-85.8" font-family="Times,serif" font-size="14.00">455</text>
</g>
<g id="clust15" class="cluster">
<title>cluster456</title>
<polygon fill="none" stroke="black" points="1742,-8 1742,-101 1830,-101 1830,-8 1742,-8"/>
<text text-anchor="middle" x="1786" y="-85.8" font-family="Times,serif" font-size="14.00">456</text>
</g>
<g id="clust16" class="cluster">
<title>cluster457</title>
<polygon fill="none" stroke="black" points="1866,-8 1866,-101 1954,-101 1954,-8 1866,-8"/>
<text text-anchor="middle" x="1910" y="-85.8" font-family="Times,serif" font-size="14.00">457</text>
</g>
<g id="clust17" class="cluster">
<title>cluster458</title>
<polygon fill="none" stroke="black" points="1990,-8 1990,-101 2078,-101 2078,-8 1990,-8"/>
<text text-anchor="middle" x="2034" y="-85.8" font-family="Times,serif" font-size="14.00">458</text>
</g>
<g id="clust18" class="cluster">
<title>cluster459</title>
<polygon fill="none" stroke="black" points="2114,-8 2114,-101 2202,-101 2202,-8 2114,-8"/>
<text text-anchor="middle" x="2158" y="-85.8" font-family="Times,serif" font-size="14.00">459</text>
</g>
<g id="clust19" class="cluster">
<title>cluster460</title>
<polygon fill="none" stroke="black" points="2238,-8 2238,-101 2326,-101 2326,-8 2238,-8"/>
<text text-anchor="middle" x="2282" y="-85.8" font-family="Times,serif" font-size="14.00">460</text>
</g>
<g id="clust20" class="cluster">
<title>cluster461</title>
<polygon fill="none" stroke="black" points="2362,-8 2362,-101 2450,-101 2450,-8 2362,-8"/>
<text text-anchor="middle" x="2406" y="-85.8" font-family="Times,serif" font-size="14.00">461</text>
</g>
<g id="clust21" class="cluster">
<title>cluster462</title>
<polygon fill="none" stroke="black" points="2486,-8 2486,-101 2573,-101 2573,-8 2486,-8"/>
<text text-anchor="middle" x="2529.5" y="-85.8" font-family="Times,serif" font-size="14.00">462</text>
</g>
<g id="clust22" class="cluster">
<title>cluster463</title>
<polygon fill="none" stroke="black" points="2609,-8 2609,-101 2697,-101 2697,-8 2609,-8"/>
<text text-anchor="middle" x="2653" y="-85.8" font-family="Times,serif" font-size="14.00">463</text>
</g>
<g id="clust23" class="cluster">
<title>cluster464</title>
<polygon fill="none" stroke="black" points="2733,-8 2733,-101 2819,-101 2819,-8 2733,-8"/>
<text text-anchor="middle" x="2776" y="-85.8" font-family="Times,serif" font-size="14.00">464</text>
</g>
<g id="clust24" class="cluster">
<title>cluster465</title>
<polygon fill="none" stroke="black" points="2855,-8 2855,-101 2943,-101 2943,-8 2855,-8"/>
<text text-anchor="middle" x="2899" y="-85.8" font-family="Times,serif" font-size="14.00">465</text>
</g>
<g id="clust25" class="cluster">
<title>cluster466</title>
<polygon fill="none" stroke="black" points="2979,-8 2979,-101 3066,-101 3066,-8 2979,-8"/>
<text text-anchor="middle" x="3022.5" y="-85.8" font-family="Times,serif" font-size="14.00">466</text>
</g>
<g id="clust26" class="cluster">
<title>cluster467</title>
<polygon fill="none" stroke="black" points="3102,-8 3102,-101 3190,-101 3190,-8 3102,-8"/>
<text text-anchor="middle" x="3146" y="-85.8" font-family="Times,serif" font-size="14.00">467</text>
</g>
<g id="clust27" class="cluster">
<title>cluster468</title>
<polygon fill="none" stroke="black" points="3226,-8 3226,-101 3314,-101 3314,-8 3226,-8"/>
<text text-anchor="middle" x="3270" y="-85.8" font-family="Times,serif" font-size="14.00">468</text>
</g>
<g id="clust28" class="cluster">
<title>cluster469</title>
<polygon fill="none" stroke="black" points="3350,-8 3350,-101 3438,-101 3438,-8 3350,-8"/>
<text text-anchor="middle" x="3394" y="-85.8" font-family="Times,serif" font-size="14.00">469</text>
</g>
<g id="clust29" class="cluster">
<title>cluster470</title>
<polygon fill="none" stroke="black" points="3474,-8 3474,-101 3562,-101 3562,-8 3474,-8"/>
<text text-anchor="middle" x="3518" y="-85.8" font-family="Times,serif" font-size="14.00">470</text>
</g>
<g id="clust30" class="cluster">
<title>cluster471</title>
<polygon fill="none" stroke="black" points="3598,-8 3598,-101 3686,-101 3686,-8 3598,-8"/>
<text text-anchor="middle" x="3642" y="-85.8" font-family="Times,serif" font-size="14.00">471</text>
</g>
<g id="clust31" class="cluster">
<title>cluster472</title>
<polygon fill="none" stroke="black" points="3722,-8 3722,-101 3810,-101 3810,-8 3722,-8"/>
<text text-anchor="middle" x="3766" y="-85.8" font-family="Times,serif" font-size="14.00">472</text>
</g>
<g id="clust32" class="cluster">
<title>cluster473</title>
<polygon fill="none" stroke="black" points="3846,-8 3846,-101 3934,-101 3934,-8 3846,-8"/>
<text text-anchor="middle" x="3890" y="-85.8" font-family="Times,serif" font-size="14.00">473</text>
</g>
<g id="clust33" class="cluster">
<title>cluster474</title>
<polygon fill="none" stroke="black" points="3970,-8 3970,-101 4058,-101 4058,-8 3970,-8"/>
<text text-anchor="middle" x="4014" y="-85.8" font-family="Times,serif" font-size="14.00">474</text>
</g>
<g id="clust34" class="cluster">
<title>cluster475</title>
<polygon fill="none" stroke="black" points="4094,-8 4094,-101 4182,-101 4182,-8 4094,-8"/>
<text text-anchor="middle" x="4138" y="-85.8" font-family="Times,serif" font-size="14.00">475</text>
</g>
<!-- Node0x600001e607b0 -->
<g id="node1" class="node">
<title>Node0x600001e607b0</title>
<polygon fill="none" stroke="black" points="8,-9 8,-77 95,-77 95,-9 8,-9"/>
<text text-anchor="middle" x="51.5" y="-66.6" font-family="Times,serif" font-size="8.00">word: OLD</text>
<polyline fill="none" stroke="black" points="8,-60 95,-60 "/>
<text text-anchor="middle" x="51.5" y="-49.6" font-family="Times,serif" font-size="8.00">size: 1</text>
<polyline fill="none" stroke="black" points="8,-43 95,-43 "/>
<text text-anchor="middle" x="51.5" y="-32.6" font-family="Times,serif" font-size="8.00">next: 0x600001e608d0</text>
<polyline fill="none" stroke="black" points="8,-26 95,-26 "/>
<text text-anchor="middle" x="51.5" y="-15.6" font-family="Times,serif" font-size="8.00">prev: 0x0</text>
</g>
<!-- Node0x600001e608d0 -->
<g id="node2" class="node">
<title>Node0x600001e608d0</title>
<polygon fill="none" stroke="black" points="131,-9 131,-77 219,-77 219,-9 131,-9"/>
<text text-anchor="middle" x="175" y="-66.6" font-family="Times,serif" font-size="8.00">word: Montague</text>
<polyline fill="none" stroke="black" points="131,-60 219,-60 "/>
<text text-anchor="middle" x="175" y="-49.6" font-family="Times,serif" font-size="8.00">size: 26</text>
<polyline fill="none" stroke="black" points="131,-43 219,-43 "/>
<text text-anchor="middle" x="175" y="-32.6" font-family="Times,serif" font-size="8.00">next: 0x600001e60c00</text>
<polyline fill="none" stroke="black" points="131,-26 219,-26 "/>
<text text-anchor="middle" x="175" y="-15.6" font-family="Times,serif" font-size="8.00">prev: 0x600001e607b0</text>
</g>
<!-- Node0x600001e607b0&#45;&gt;Node0x600001e608d0 -->
<g id="edge1" class="edge">
<title>Node0x600001e607b0:n&#45;&gt;Node0x600001e608d0:n</title>
<path fill="none" stroke="red" d="M95,-34C107,-34 112.25,-34 120.88,-34"/>
<polygon fill="red" stroke="red" points="121,-37.5 131,-34 121,-30.5 121,-37.5"/>
</g>
<!-- Node0x600001e60c00 -->
<g id="node3" class="node">
<title>Node0x600001e60c00</title>
<polygon fill="none" stroke="black" points="255,-9 255,-77 343,-77 343,-9 255,-9"/>
<text text-anchor="middle" x="299" y="-66.6" font-family="Times,serif" font-size="8.00">word: GREGORY</text>
<polyline fill="none" stroke="black" points="255,-60 343,-60 "/>
<text text-anchor="middle" x="299" y="-49.6" font-family="Times,serif" font-size="8.00">size: 3</text>
<polyline fill="none" stroke="black" points="255,-43 343,-43 "/>
<text text-anchor="middle" x="299" y="-32.6" font-family="Times,serif" font-size="8.00">next: 0x600001e64090</text>
<polyline fill="none" stroke="black" points="255,-26 343,-26 "/>
<text text-anchor="middle" x="299" y="-15.6" font-family="Times,serif" font-size="8.00">prev: 0x600001e608d0</text>
</g>
<!-- Node0x600001e608d0&#45;&gt;Node0x600001e60c00 -->
<g id="edge2" class="edge">
<title>Node0x600001e608d0:n&#45;&gt;Node0x600001e60c00:n</title>
<path fill="none" stroke="red" d="M219,-34C231,-34 236.25,-34 244.88,-34"/>
<polygon fill="red" stroke="red" points="245,-37.5 255,-34 245,-30.5 245,-37.5"/>
</g>
<!-- Node0x600001e64090 -->
<g id="node4" class="node">
<title>Node0x600001e64090</title>
<polygon fill="none" stroke="black" points="379,-9 379,-77 467,-77 467,-9 379,-9"/>
<text text-anchor="middle" x="423" y="-66.6" font-family="Times,serif" font-size="8.00">word: do</text>
<polyline fill="none" stroke="black" points="379,-60 467,-60 "/>
<text text-anchor="middle" x="423" y="-49.6" font-family="Times,serif" font-size="8.00">size: 72</text>
<polyline fill="none" stroke="black" points="379,-43 467,-43 "/>
<text text-anchor="middle" x="423" y="-32.6" font-family="Times,serif" font-size="8.00">next: 0x600001e68750</text>
<polyline fill="none" stroke="black" points="379,-26 467,-26 "/>
<text text-anchor="middle" x="423" y="-15.6" font-family="Times,serif" font-size="8.00">prev: 0x600001e60c00</text>
</g>
<!-- Node0x600001e60c00&#45;&gt;Node0x600001e64090 -->
<g id="edge3" class="edge">
<title>Node0x600001e60c00:n&#45;&gt;Node0x600001e64090:n</title>
<path fill="none" stroke="red" d="M343,-34C355,-34 360.25,-34 368.88,-34"/>
<polygon fill="red" stroke="red" points="369,-37.5 379,-34 369,-30.5 369,-37.5"/>
</g>
<!-- Node0x600001e68750 -->
<g id="node5" class="node">
<title>Node0x600001e68750</title>
<polygon fill="none" stroke="black" points="503,-9 503,-77 591,-77 591,-9 503,-9"/>
<text text-anchor="middle" x="547" y="-66.6" font-family="Times,serif" font-size="8.00">word: sword</text>
<polyline fill="none" stroke="black" points="503,-60 591,-60 "/>
<text text-anchor="middle" x="547" y="-49.6" font-family="Times,serif" font-size="8.00">size: 7</text>
<polyline fill="none" stroke="black" points="503,-43 591,-43 "/>
<text text-anchor="middle" x="547" y="-32.6" font-family="Times,serif" font-size="8.00">next: 0x600001e68b40</text>
<polyline fill="none" stroke="black" points="503,-26 591,-26 "/>
<text text-anchor="middle" x="547" y="-15.6" font-family="Times,serif" font-size="8.00">prev: 0x600001e64090</text>
</g>
<!-- Node0x600001e64090&#45;&gt;Node0x600001e68750 -->
<g id="edge4" class="edge">
<title>Node0x600001e64090:n&#45;&gt;Node0x600001e68750:n</title>
<path fill="none" stroke="red" d="M467,-34C479,-34 484.25,-34 492.88,-34"/>
<polygon fill="red" stroke="red" points="493,-37.5 503,-34 493,-30.5 493,-37.5"/>
</g>
<!-- Node0x600001e68b40 -->
<g id="node6" class="node">
<title>Node0x600001e68b40</title>
<polygon fill="none" stroke="black" points="627,-9 627,-77 715,-77 715,-9 627,-9"/>
<text text-anchor="middle" x="671" y="-66.6" font-family="Times,serif" font-size="8.00">word: bills</text>
<polyline fill="none" stroke="black" points="627,-60 715,-60 "/>
<text text-anchor="middle" x="671" y="-49.6" font-family="Times,serif" font-size="8.00">size: 1</text>
<polyline fill="none" stroke="black" points="627,-43 715,-43 "/>
<text text-anchor="middle" x="671" y="-32.6" font-family="Times,serif" font-size="8.00">next: 0x600001e69a10</text>
<polyline fill="none" stroke="black" points="627,-26 715,-26 "/>
<text text-anchor="middle" x="671" y="-15.6" font-family="Times,serif" font-size="8.00">prev: 0x600001e68750</text>
</g>
<!-- Node0x600001e68750&#45;&gt;Node0x600001e68b40 -->
<g id="edge5" class="edge">
<title>Node0x600001e68750:n&#45;&gt;Node0x600001e68b40:n</title>
<path fill="none" stroke="red" d="M591,-34C603,-34 608.25,-34 616.88,-34"/>
<polygon fill="red" stroke="red" points="617,-37.5 627,-34 617,-30.5 617,-37.5"/>
</g>
<!-- Node0x600001e69a10 -->
<g id="node7" class="node">
<title>Node0x600001e69a10</title>
<polygon fill="none" stroke="black" points="751,-9 751,-77 839,-77 839,-9 751,-9"/>
<text text-anchor="middle" x="795" y="-66.6" font-family="Times,serif" font-size="8.00">word: again</text>
<polyline fill="none" stroke="black" points="751,-60 839,-60 "/>
<text text-anchor="middle" x="795" y="-49.6" font-family="Times,serif" font-size="8.00">size: 27</text>
<polyline fill="none" stroke="black" points="751,-43 839,-43 "/>
<text text-anchor="middle" x="795" y="-32.6" font-family="Times,serif" font-size="8.00">next: 0x600001e6c150</text>
<polyline fill="none" stroke="black" points="751,-26 839,-26 "/>
<text text-anchor="middle" x="795" y="-15.6" font-family="Times,serif" font-size="8.00">prev: 0x600001e68b40</text>
</g>
<!-- Node0x600001e68b40&#45;&gt;Node0x600001e69a10 -->
<g id="edge6" class="edge">
<title>Node0x600001e68b40:n&#45;&gt;Node0x600001e69a10:n</title>
<path fill="none" stroke="red" d="M715,-34C727,-34 732.25,-34 740.88,-34"/>
<polygon fill="red" stroke="red" points="741,-37.5 751,-34 741,-30.5 741,-37.5"/>
</g>
<!-- Node0x600001e6c150 -->
<g id="node8" class="node">
<title>Node0x600001e6c150</title>
<polygon fill="none" stroke="black" points="875,-9 875,-77 963,-77 963,-9 875,-9"/>
<text text-anchor="middle" x="919" y="-66.6" font-family="Times,serif" font-size="8.00">word: morrow</text>
<polyline fill="none" stroke="black" points="875,-60 963,-60 "/>
<text text-anchor="middle" x="919" y="-49.6" font-family="Times,serif" font-size="8.00">size: 16</text>
<polyline fill="none" stroke="black" points="875,-43 963,-43 "/>
<text text-anchor="middle" x="919" y="-32.6" font-family="Times,serif" font-size="8.00">next: 0x600001e6d1d0</text>
<polyline fill="none" stroke="black" points="875,-26 963,-26 "/>
<text text-anchor="middle" x="919" y="-15.6" font-family="Times,serif" font-size="8.00">prev: 0x600001e69a10</text>
</g>
<!-- Node0x600001e69a10&#45;&gt;Node0x600001e6c150 -->
<g id="edge7" class="edge">
<title>Node0x600001e69a10:n&#45;&gt;Node0x600001e6c150:n</title>
<path fill="none" stroke="red" d="M839,-34C851,-34 856.25,-34 864.88,-34"/>
<polygon fill="red" stroke="red" points="865,-37.5 875,-34 865,-30.5 865,-37.5"/>
</g>
<!-- Node0x600001e6d1d0 -->
<g id="node9" class="node">
<title>Node0x600001e6d1d0</title>
<polygon fill="none" stroke="black" points="999,-9 999,-77 1087,-77 1087,-9 999,-9"/>
<text text-anchor="middle" x="1043" y="-66.6" font-family="Times,serif" font-size="8.00">word: nourish</text>
<polyline fill="none" stroke="black" points="999,-60 1087,-60 "/>
<text text-anchor="middle" x="1043" y="-49.6" font-family="Times,serif" font-size="8.00">size: 1</text>
<polyline fill="none" stroke="black" points="999,-43 1087,-43 "/>
<text text-anchor="middle" x="1043" y="-32.6" font-family="Times,serif" font-size="8.00">next: 0x600001e6e640</text>
<polyline fill="none" stroke="black" points="999,-26 1087,-26 "/>
<text text-anchor="middle" x="1043" y="-15.6" font-family="Times,serif" font-size="8.00">prev: 0x600001e6c150</text>
</g>
<!-- Node0x600001e6c150&#45;&gt;Node0x600001e6d1d0 -->
<g id="edge8" class="edge">
<title>Node0x600001e6c150:n&#45;&gt;Node0x600001e6d1d0:n</title>
<path fill="none" stroke="red" d="M963,-34C975,-34 980.25,-34 988.88,-34"/>
<polygon fill="red" stroke="red" points="989,-37.5 999,-34 989,-30.5 989,-37.5"/>
</g>
<!-- Node0x600001e6e640 -->
<g id="node10" class="node">
<title>Node0x600001e6e640</title>
<polygon fill="none" stroke="black" points="1123,-9 1123,-77 1211,-77 1211,-9 1123,-9"/>
<text text-anchor="middle" x="1167" y="-66.6" font-family="Times,serif" font-size="8.00">word: Show</text>
<polyline fill="none" stroke="black" points="1123,-60 1211,-60 "/>
<text text-anchor="middle" x="1167" y="-49.6" font-family="Times,serif" font-size="8.00">size: 2</text>
<polyline fill="none" stroke="black" points="1123,-43 1211,-43 "/>
<text text-anchor="middle" x="1167" y="-32.6" font-family="Times,serif" font-size="8.00">next: 0x600001e6eaf0</text>
<polyline fill="none" stroke="black" points="1123,-26 1211,-26 "/>
<text text-anchor="middle" x="1167" y="-15.6" font-family="Times,serif" font-size="8.00">prev: 0x600001e6d1d0</text>
</g>
<!-- Node0x600001e6d1d0&#45;&gt;Node0x600001e6e640 -->
<g id="edge9" class="edge">
<title>Node0x600001e6d1d0:n&#45;&gt;Node0x600001e6e640:n</title>
<path fill="none" stroke="red" d="M1087,-34C1099,-34 1104.25,-34 1112.88,-34"/>
<polygon fill="red" stroke="red" points="1113,-37.5 1123,-34 1113,-30.5 1113,-37.5"/>
</g>
<!-- Node0x600001e6eaf0 -->
<g id="node11" class="node">
<title>Node0x600001e6eaf0</title>
<polygon fill="none" stroke="black" points="1247,-9 1247,-77 1335,-77 1335,-9 1247,-9"/>
<text text-anchor="middle" x="1291" y="-66.6" font-family="Times,serif" font-size="8.00">word: o</text>
<polyline fill="none" stroke="black" points="1247,-60 1335,-60 "/>
<text text-anchor="middle" x="1291" y="-49.6" font-family="Times,serif" font-size="8.00">size: 16</text>
<polyline fill="none" stroke="black" points="1247,-43 1335,-43 "/>
<text text-anchor="middle" x="1291" y="-32.6" font-family="Times,serif" font-size="8.00">next: 0x600001e645d0</text>
<polyline fill="none" stroke="black" points="1247,-26 1335,-26 "/>
<text text-anchor="middle" x="1291" y="-15.6" font-family="Times,serif" font-size="8.00">prev: 0x600001e6e640</text>
</g>
<!-- Node0x600001e6e640&#45;&gt;Node0x600001e6eaf0 -->
<g id="edge10" class="edge">
<title>Node0x600001e6e640:n&#45;&gt;Node0x600001e6eaf0:n</title>
<path fill="none" stroke="red" d="M1211,-34C1223,-34 1228.25,-34 1236.88,-34"/>
<polygon fill="red" stroke="red" points="1237,-37.5 1247,-34 1237,-30.5 1237,-37.5"/>
</g>
<!-- Node0x600001e645d0 -->
<g id="node12" class="node">
<title>Node0x600001e645d0</title>
<polygon fill="none" stroke="black" points="1371,-9 1371,-77 1458,-77 1458,-9 1371,-9"/>
<text text-anchor="middle" x="1414.5" y="-66.6" font-family="Times,serif" font-size="8.00">word: herself</text>
<polyline fill="none" stroke="black" points="1371,-60 1458,-60 "/>
<text text-anchor="middle" x="1414.5" y="-49.6" font-family="Times,serif" font-size="8.00">size: 5</text>
<polyline fill="none" stroke="black" points="1371,-43 1458,-43 "/>
<text text-anchor="middle" x="1414.5" y="-32.6" font-family="Times,serif" font-size="8.00">next: 0x600001e65500</text>
<polyline fill="none" stroke="black" points="1371,-26 1458,-26 "/>
<text text-anchor="middle" x="1414.5" y="-15.6" font-family="Times,serif" font-size="8.00">prev: 0x600001e6eaf0</text>
</g>
<!-- Node0x600001e6eaf0&#45;&gt;Node0x600001e645d0 -->
<g id="edge11" class="edge">
<title>Node0x600001e6eaf0:n&#45;&gt;Node0x600001e645d0:n</title>
<path fill="none" stroke="red" d="M1335,-34C1347,-34 1352.25,-34 1360.88,-34"/>
<polygon fill="red" stroke="red" points="1361,-37.5 1371,-34 1361,-30.5 1361,-37.5"/>
</g>
<!-- Node0x600001e65500 -->
<g id="node13" class="node">
<title>Node0x600001e65500</title>
<polygon fill="none" stroke="black" points="1494,-9 1494,-77 1582,-77 1582,-9 1494,-9"/>
<text text-anchor="middle" x="1538" y="-66.6" font-family="Times,serif" font-size="8.00">word: dost</text>
<polyline fill="none" stroke="black" points="1494,-60 1582,-60 "/>
<text text-anchor="middle" x="1538" y="-49.6" font-family="Times,serif" font-size="8.00">size: 13</text>
<polyline fill="none" stroke="black" points="1494,-43 1582,-43 "/>
<text text-anchor="middle" x="1538" y="-32.6" font-family="Times,serif" font-size="8.00">next: 0x600001e664c0</text>
<polyline fill="none" stroke="black" points="1494,-26 1582,-26 "/>
<text text-anchor="middle" x="1538" y="-15.6" font-family="Times,serif" font-size="8.00">prev: 0x600001e645d0</text>
</g>
<!-- Node0x600001e645d0&#45;&gt;Node0x600001e65500 -->
<g id="edge12" class="edge">
<title>Node0x600001e645d0:n&#45;&gt;Node0x600001e65500:n</title>
<path fill="none" stroke="red" d="M1458,-34C1470,-34 1475.25,-34 1483.88,-34"/>
<polygon fill="red" stroke="red" points="1484,-37.5 1494,-34 1484,-30.5 1484,-37.5"/>
</g>
<!-- Node0x600001e664c0 -->
<g id="node14" class="node">
<title>Node0x600001e664c0</title>
<polygon fill="none" stroke="black" points="1618,-9 1618,-77 1706,-77 1706,-9 1618,-9"/>
<text text-anchor="middle" x="1662" y="-66.6" font-family="Times,serif" font-size="8.00">word: Women</text>
<polyline fill="none" stroke="black" points="1618,-60 1706,-60 "/>
<text text-anchor="middle" x="1662" y="-49.6" font-family="Times,serif" font-size="8.00">size: 2</text>
<polyline fill="none" stroke="black" points="1618,-43 1706,-43 "/>
<text text-anchor="middle" x="1662" y="-32.6" font-family="Times,serif" font-size="8.00">next: 0x600001e66820</text>
<polyline fill="none" stroke="black" points="1618,-26 1706,-26 "/>
<text text-anchor="middle" x="1662" y="-15.6" font-family="Times,serif" font-size="8.00">prev: 0x600001e65500</text>
</g>
<!-- Node0x600001e65500&#45;&gt;Node0x600001e664c0 -->
<g id="edge13" class="edge">
<title>Node0x600001e65500:n&#45;&gt;Node0x600001e664c0:n</title>
<path fill="none" stroke="red" d="M1582,-34C1594,-34 1599.25,-34 1607.88,-34"/>
<polygon fill="red" stroke="red" points="1608,-37.5 1618,-34 1608,-30.5 1608,-37.5"/>
</g>
<!-- Node0x600001e66820 -->
<g id="node15" class="node">
<title>Node0x600001e66820</title>
<polygon fill="none" stroke="black" points="1742,-9 1742,-77 1830,-77 1830,-9 1742,-9"/>
<text text-anchor="middle" x="1786" y="-66.6" font-family="Times,serif" font-size="8.00">word: beseech</text>
<polyline fill="none" stroke="black" points="1742,-60 1830,-60 "/>
<text text-anchor="middle" x="1786" y="-49.6" font-family="Times,serif" font-size="8.00">size: 7</text>
<polyline fill="none" stroke="black" points="1742,-43 1830,-43 "/>
<text text-anchor="middle" x="1786" y="-32.6" font-family="Times,serif" font-size="8.00">next: 0x600001e67540</text>
<polyline fill="none" stroke="black" points="1742,-26 1830,-26 "/>
<text text-anchor="middle" x="1786" y="-15.6" font-family="Times,serif" font-size="8.00">prev: 0x600001e664c0</text>
</g>
<!-- Node0x600001e664c0&#45;&gt;Node0x600001e66820 -->
<g id="edge14" class="edge">
<title>Node0x600001e664c0:n&#45;&gt;Node0x600001e66820:n</title>
<path fill="none" stroke="red" d="M1706,-34C1718,-34 1723.25,-34 1731.88,-34"/>
<polygon fill="red" stroke="red" points="1732,-37.5 1742,-34 1732,-30.5 1732,-37.5"/>
</g>
<!-- Node0x600001e67540 -->
<g id="node16" class="node">
<title>Node0x600001e67540</title>
<polygon fill="none" stroke="black" points="1866,-9 1866,-77 1954,-77 1954,-9 1866,-9"/>
<text text-anchor="middle" x="1910" y="-66.6" font-family="Times,serif" font-size="8.00">word: beetle</text>
<polyline fill="none" stroke="black" points="1866,-60 1954,-60 "/>
<text text-anchor="middle" x="1910" y="-49.6" font-family="Times,serif" font-size="8.00">size: 1</text>
<polyline fill="none" stroke="black" points="1866,-43 1954,-43 "/>
<text text-anchor="middle" x="1910" y="-32.6" font-family="Times,serif" font-size="8.00">next: 0x600001e74420</text>
<polyline fill="none" stroke="black" points="1866,-26 1954,-26 "/>
<text text-anchor="middle" x="1910" y="-15.6" font-family="Times,serif" font-size="8.00">prev: 0x600001e66820</text>
</g>
<!-- Node0x600001e66820&#45;&gt;Node0x600001e67540 -->
<g id="edge15" class="edge">
<title>Node0x600001e66820:n&#45;&gt;Node0x600001e67540:n</title>
<path fill="none" stroke="red" d="M1830,-34C1842,-34 1847.25,-34 1855.88,-34"/>
<polygon fill="red" stroke="red" points="1856,-37.5 1866,-34 1856,-30.5 1856,-37.5"/>
</g>
<!-- Node0x600001e74420 -->
<g id="node17" class="node">
<title>Node0x600001e74420</title>
<polygon fill="none" stroke="black" points="1990,-9 1990,-77 2078,-77 2078,-9 1990,-9"/>
<text text-anchor="middle" x="2034" y="-66.6" font-family="Times,serif" font-size="8.00">word: half</text>
<polyline fill="none" stroke="black" points="1990,-60 2078,-60 "/>
<text text-anchor="middle" x="2034" y="-49.6" font-family="Times,serif" font-size="8.00">size: 5</text>
<polyline fill="none" stroke="black" points="1990,-43 2078,-43 "/>
<text text-anchor="middle" x="2034" y="-32.6" font-family="Times,serif" font-size="8.00">next: 0x600001e76ca0</text>
<polyline fill="none" stroke="black" points="1990,-26 2078,-26 "/>
<text text-anchor="middle" x="2034" y="-15.6" font-family="Times,serif" font-size="8.00">prev: 0x600001e67540</text>
</g>
<!-- Node0x600001e67540&#45;&gt;Node0x600001e74420 -->
<g id="edge16" class="edge">
<title>Node0x600001e67540:n&#45;&gt;Node0x600001e74420:n</title>
<path fill="none" stroke="red" d="M1954,-34C1966,-34 1971.25,-34 1979.88,-34"/>
<polygon fill="red" stroke="red" points="1980,-37.5 1990,-34 1980,-30.5 1980,-37.5"/>
</g>
<!-- Node0x600001e76ca0 -->
<g id="node18" class="node">
<title>Node0x600001e76ca0</title>
<polygon fill="none" stroke="black" points="2114,-9 2114,-77 2202,-77 2202,-9 2114,-9"/>
<text text-anchor="middle" x="2158" y="-66.6" font-family="Times,serif" font-size="8.00">word: rapier</text>
<polyline fill="none" stroke="black" points="2114,-60 2202,-60 "/>
<text text-anchor="middle" x="2158" y="-49.6" font-family="Times,serif" font-size="8.00">size: 3</text>
<polyline fill="none" stroke="black" points="2114,-43 2202,-43 "/>
<text text-anchor="middle" x="2158" y="-32.6" font-family="Times,serif" font-size="8.00">next: 0x600001e77630</text>
<polyline fill="none" stroke="black" points="2114,-26 2202,-26 "/>
<text text-anchor="middle" x="2158" y="-15.6" font-family="Times,serif" font-size="8.00">prev: 0x600001e74420</text>
</g>
<!-- Node0x600001e74420&#45;&gt;Node0x600001e76ca0 -->
<g id="edge17" class="edge">
<title>Node0x600001e74420:n&#45;&gt;Node0x600001e76ca0:n</title>
<path fill="none" stroke="red" d="M2078,-34C2090,-34 2095.25,-34 2103.88,-34"/>
<polygon fill="red" stroke="red" points="2104,-37.5 2114,-34 2104,-30.5 2104,-37.5"/>
</g>
<!-- Node0x600001e77630 -->
<g id="node19" class="node">
<title>Node0x600001e77630</title>
<polygon fill="none" stroke="black" points="2238,-9 2238,-77 2326,-77 2326,-9 2238,-9"/>
<text text-anchor="middle" x="2282" y="-66.6" font-family="Times,serif" font-size="8.00">word: withdraw</text>
<polyline fill="none" stroke="black" points="2238,-60 2326,-60 "/>
<text text-anchor="middle" x="2282" y="-49.6" font-family="Times,serif" font-size="8.00">size: 3</text>
<polyline fill="none" stroke="black" points="2238,-43 2326,-43 "/>
<text text-anchor="middle" x="2282" y="-32.6" font-family="Times,serif" font-size="8.00">next: 0x600001e6fd50</text>
<polyline fill="none" stroke="black" points="2238,-26 2326,-26 "/>
<text text-anchor="middle" x="2282" y="-15.6" font-family="Times,serif" font-size="8.00">prev: 0x600001e76ca0</text>
</g>
<!-- Node0x600001e76ca0&#45;&gt;Node0x600001e77630 -->
<g id="edge18" class="edge">
<title>Node0x600001e76ca0:n&#45;&gt;Node0x600001e77630:n</title>
<path fill="none" stroke="red" d="M2202,-34C2214,-34 2219.25,-34 2227.88,-34"/>
<polygon fill="red" stroke="red" points="2228,-37.5 2238,-34 2228,-30.5 2228,-37.5"/>
</g>
<!-- Node0x600001e6fd50 -->
<g id="node20" class="node">
<title>Node0x600001e6fd50</title>
<polygon fill="none" stroke="black" points="2362,-9 2362,-77 2450,-77 2450,-9 2362,-9"/>
<text text-anchor="middle" x="2406" y="-66.6" font-family="Times,serif" font-size="8.00">word: centre</text>
<polyline fill="none" stroke="black" points="2362,-60 2450,-60 "/>
<text text-anchor="middle" x="2406" y="-49.6" font-family="Times,serif" font-size="8.00">size: 1</text>
<polyline fill="none" stroke="black" points="2362,-43 2450,-43 "/>
<text text-anchor="middle" x="2406" y="-32.6" font-family="Times,serif" font-size="8.00">next: 0x600001e7c150</text>
<polyline fill="none" stroke="black" points="2362,-26 2450,-26 "/>
<text text-anchor="middle" x="2406" y="-15.6" font-family="Times,serif" font-size="8.00">prev: 0x600001e77630</text>
</g>
<!-- Node0x600001e77630&#45;&gt;Node0x600001e6fd50 -->
<g id="edge19" class="edge">
<title>Node0x600001e77630:n&#45;&gt;Node0x600001e6fd50:n</title>
<path fill="none" stroke="red" d="M2326,-34C2338,-34 2343.25,-34 2351.88,-34"/>
<polygon fill="red" stroke="red" points="2352,-37.5 2362,-34 2352,-30.5 2352,-37.5"/>
</g>
<!-- Node0x600001e7c150 -->
<g id="node21" class="node">
<title>Node0x600001e7c150</title>
<polygon fill="none" stroke="black" points="2486,-9 2486,-77 2573,-77 2573,-9 2486,-9"/>
<text text-anchor="middle" x="2529.5" y="-66.6" font-family="Times,serif" font-size="8.00">word: trim</text>
<polyline fill="none" stroke="black" points="2486,-60 2573,-60 "/>
<text text-anchor="middle" x="2529.5" y="-49.6" font-family="Times,serif" font-size="8.00">size: 2</text>
<polyline fill="none" stroke="black" points="2486,-43 2573,-43 "/>
<text text-anchor="middle" x="2529.5" y="-32.6" font-family="Times,serif" font-size="8.00">next: 0x600001e7ffc0</text>
<polyline fill="none" stroke="black" points="2486,-26 2573,-26 "/>
<text text-anchor="middle" x="2529.5" y="-15.6" font-family="Times,serif" font-size="8.00">prev: 0x600001e6fd50</text>
</g>
<!-- Node0x600001e6fd50&#45;&gt;Node0x600001e7c150 -->
<g id="edge20" class="edge">
<title>Node0x600001e6fd50:n&#45;&gt;Node0x600001e7c150:n</title>
<path fill="none" stroke="red" d="M2450,-34C2462,-34 2467.25,-34 2475.88,-34"/>
<polygon fill="red" stroke="red" points="2476,-37.5 2486,-34 2476,-30.5 2476,-37.5"/>
</g>
<!-- Node0x600001e7ffc0 -->
<g id="node22" class="node">
<title>Node0x600001e7ffc0</title>
<polygon fill="none" stroke="black" points="2609,-9 2609,-77 2697,-77 2697,-9 2609,-9"/>
<text text-anchor="middle" x="2653" y="-66.6" font-family="Times,serif" font-size="8.00">word: strain</text>
<polyline fill="none" stroke="black" points="2609,-60 2697,-60 "/>
<text text-anchor="middle" x="2653" y="-49.6" font-family="Times,serif" font-size="8.00">size: 2</text>
<polyline fill="none" stroke="black" points="2609,-43 2697,-43 "/>
<text text-anchor="middle" x="2653" y="-32.6" font-family="Times,serif" font-size="8.00">next: 0x600001e420d0</text>
<polyline fill="none" stroke="black" points="2609,-26 2697,-26 "/>
<text text-anchor="middle" x="2653" y="-15.6" font-family="Times,serif" font-size="8.00">prev: 0x600001e7c150</text>
</g>
<!-- Node0x600001e7c150&#45;&gt;Node0x600001e7ffc0 -->
<g id="edge21" class="edge">
<title>Node0x600001e7c150:n&#45;&gt;Node0x600001e7ffc0:n</title>
<path fill="none" stroke="red" d="M2573,-34C2585,-34 2590.25,-34 2598.88,-34"/>
<polygon fill="red" stroke="red" points="2599,-37.5 2609,-34 2599,-30.5 2599,-37.5"/>
</g>
<!-- Node0x600001e420d0 -->
<g id="node23" class="node">
<title>Node0x600001e420d0</title>
<polygon fill="none" stroke="black" points="2733,-9 2733,-77 2819,-77 2819,-9 2733,-9"/>
<text text-anchor="middle" x="2776" y="-66.6" font-family="Times,serif" font-size="8.00">word: gypsy</text>
<polyline fill="none" stroke="black" points="2733,-60 2819,-60 "/>
<text text-anchor="middle" x="2776" y="-49.6" font-family="Times,serif" font-size="8.00">size: 1</text>
<polyline fill="none" stroke="black" points="2733,-43 2819,-43 "/>
<text text-anchor="middle" x="2776" y="-32.6" font-family="Times,serif" font-size="8.00">next: 0x600001e42fa0</text>
<polyline fill="none" stroke="black" points="2733,-26 2819,-26 "/>
<text text-anchor="middle" x="2776" y="-15.6" font-family="Times,serif" font-size="8.00">prev: 0x600001e7ffc0</text>
</g>
<!-- Node0x600001e7ffc0&#45;&gt;Node0x600001e420d0 -->
<g id="edge22" class="edge">
<title>Node0x600001e7ffc0:n&#45;&gt;Node0x600001e420d0:n</title>
<path fill="none" stroke="red" d="M2697,-34C2709,-34 2714.25,-34 2722.88,-34"/>
<polygon fill="red" stroke="red" points="2723,-37.5 2733,-34 2723,-30.5 2723,-37.5"/>
</g>
<!-- Node0x600001e42fa0 -->
<g id="node24" class="node">
<title>Node0x600001e42fa0</title>
<polygon fill="none" stroke="black" points="2855,-9 2855,-77 2943,-77 2943,-9 2855,-9"/>
<text text-anchor="middle" x="2899" y="-66.6" font-family="Times,serif" font-size="8.00">word: gear</text>
<polyline fill="none" stroke="black" points="2855,-60 2943,-60 "/>
<text text-anchor="middle" x="2899" y="-49.6" font-family="Times,serif" font-size="8.00">size: 2</text>
<polyline fill="none" stroke="black" points="2855,-43 2943,-43 "/>
<text text-anchor="middle" x="2899" y="-32.6" font-family="Times,serif" font-size="8.00">next: 0x600001e44210</text>
<polyline fill="none" stroke="black" points="2855,-26 2943,-26 "/>
<text text-anchor="middle" x="2899" y="-15.6" font-family="Times,serif" font-size="8.00">prev: 0x600001e420d0</text>
</g>
<!-- Node0x600001e420d0&#45;&gt;Node0x600001e42fa0 -->
<g id="edge23" class="edge">
<title>Node0x600001e420d0:n&#45;&gt;Node0x600001e42fa0:n</title>
<path fill="none" stroke="red" d="M2819,-34C2831,-34 2836.25,-34 2844.88,-34"/>
<polygon fill="red" stroke="red" points="2845,-37.5 2855,-34 2845,-30.5 2845,-37.5"/>
</g>
<!-- Node0x600001e44210 -->
<g id="node25" class="node">
<title>Node0x600001e44210</title>
<polygon fill="none" stroke="black" points="2979,-9 2979,-77 3066,-77 3066,-9 2979,-9"/>
<text text-anchor="middle" x="3022.5" y="-66.6" font-family="Times,serif" font-size="8.00">word: properer</text>
<polyline fill="none" stroke="black" points="2979,-60 3066,-60 "/>
<text text-anchor="middle" x="3022.5" y="-49.6" font-family="Times,serif" font-size="8.00">size: 1</text>
<polyline fill="none" stroke="black" points="2979,-43 3066,-43 "/>
<text text-anchor="middle" x="3022.5" y="-32.6" font-family="Times,serif" font-size="8.00">next: 0x600001e460a0</text>
<polyline fill="none" stroke="black" points="2979,-26 3066,-26 "/>
<text text-anchor="middle" x="3022.5" y="-15.6" font-family="Times,serif" font-size="8.00">prev: 0x600001e42fa0</text>
</g>
<!-- Node0x600001e42fa0&#45;&gt;Node0x600001e44210 -->
<g id="edge24" class="edge">
<title>Node0x600001e42fa0:n&#45;&gt;Node0x600001e44210:n</title>
<path fill="none" stroke="red" d="M2943,-34C2955,-34 2960.25,-34 2968.88,-34"/>
<polygon fill="red" stroke="red" points="2969,-37.5 2979,-34 2969,-30.5 2969,-37.5"/>
</g>
<!-- Node0x600001e460a0 -->
<g id="node26" class="node">
<title>Node0x600001e460a0</title>
<polygon fill="none" stroke="black" points="3102,-9 3102,-77 3190,-77 3190,-9 3102,-9"/>
<text text-anchor="middle" x="3146" y="-66.6" font-family="Times,serif" font-size="8.00">word: coughing</text>
<polyline fill="none" stroke="black" points="3102,-60 3190,-60 "/>
<text text-anchor="middle" x="3146" y="-49.6" font-family="Times,serif" font-size="8.00">size: 1</text>
<polyline fill="none" stroke="black" points="3102,-43 3190,-43 "/>
<text text-anchor="middle" x="3146" y="-32.6" font-family="Times,serif" font-size="8.00">next: 0x600001e473c0</text>
<polyline fill="none" stroke="black" points="3102,-26 3190,-26 "/>
<text text-anchor="middle" x="3146" y="-15.6" font-family="Times,serif" font-size="8.00">prev: 0x600001e44210</text>
</g>
<!-- Node0x600001e44210&#45;&gt;Node0x600001e460a0 -->
<g id="edge25" class="edge">
<title>Node0x600001e44210:n&#45;&gt;Node0x600001e460a0:n</title>
<path fill="none" stroke="red" d="M3066,-34C3078,-34 3083.25,-34 3091.88,-34"/>
<polygon fill="red" stroke="red" points="3092,-37.5 3102,-34 3092,-30.5 3092,-37.5"/>
</g>
<!-- Node0x600001e473c0 -->
<g id="node27" class="node">
<title>Node0x600001e473c0</title>
<polygon fill="none" stroke="black" points="3226,-9 3226,-77 3314,-77 3314,-9 3226,-9"/>
<text text-anchor="middle" x="3270" y="-66.6" font-family="Times,serif" font-size="8.00">word: falls</text>
<polyline fill="none" stroke="black" points="3226,-60 3314,-60 "/>
<text text-anchor="middle" x="3270" y="-49.6" font-family="Times,serif" font-size="8.00">size: 6</text>
<polyline fill="none" stroke="black" points="3226,-43 3314,-43 "/>
<text text-anchor="middle" x="3270" y="-32.6" font-family="Times,serif" font-size="8.00">next: 0x600001e478a0</text>
<polyline fill="none" stroke="black" points="3226,-26 3314,-26 "/>
<text text-anchor="middle" x="3270" y="-15.6" font-family="Times,serif" font-size="8.00">prev: 0x600001e460a0</text>
</g>
<!-- Node0x600001e460a0&#45;&gt;Node0x600001e473c0 -->
<g id="edge26" class="edge">
<title>Node0x600001e460a0:n&#45;&gt;Node0x600001e473c0:n</title>
<path fill="none" stroke="red" d="M3190,-34C3202,-34 3207.25,-34 3215.88,-34"/>
<polygon fill="red" stroke="red" points="3216,-37.5 3226,-34 3216,-30.5 3216,-37.5"/>
</g>
<!-- Node0x600001e478a0 -->
<g id="node28" class="node">
<title>Node0x600001e478a0</title>
<polygon fill="none" stroke="black" points="3350,-9 3350,-77 3438,-77 3438,-9 3350,-9"/>
<text text-anchor="middle" x="3394" y="-66.6" font-family="Times,serif" font-size="8.00">word: spleen</text>
<polyline fill="none" stroke="black" points="3350,-60 3438,-60 "/>
<text text-anchor="middle" x="3394" y="-49.6" font-family="Times,serif" font-size="8.00">size: 1</text>
<polyline fill="none" stroke="black" points="3350,-43 3438,-43 "/>
<text text-anchor="middle" x="3394" y="-32.6" font-family="Times,serif" font-size="8.00">next: 0x600001e484e0</text>
<polyline fill="none" stroke="black" points="3350,-26 3438,-26 "/>
<text text-anchor="middle" x="3394" y="-15.6" font-family="Times,serif" font-size="8.00">prev: 0x600001e473c0</text>
</g>
<!-- Node0x600001e473c0&#45;&gt;Node0x600001e478a0 -->
<g id="edge27" class="edge">
<title>Node0x600001e473c0:n&#45;&gt;Node0x600001e478a0:n</title>
<path fill="none" stroke="red" d="M3314,-34C3326,-34 3331.25,-34 3339.88,-34"/>
<polygon fill="red" stroke="red" points="3340,-37.5 3350,-34 3340,-30.5 3340,-37.5"/>
</g>
<!-- Node0x600001e484e0 -->
<g id="node29" class="node">
<title>Node0x600001e484e0</title>
<polygon fill="none" stroke="black" points="3474,-9 3474,-77 3562,-77 3562,-9 3474,-9"/>
<text text-anchor="middle" x="3518" y="-66.6" font-family="Times,serif" font-size="8.00">word: rites</text>
<polyline fill="none" stroke="black" points="3474,-60 3562,-60 "/>
<text text-anchor="middle" x="3518" y="-49.6" font-family="Times,serif" font-size="8.00">size: 1</text>
<polyline fill="none" stroke="black" points="3474,-43 3562,-43 "/>
<text text-anchor="middle" x="3518" y="-32.6" font-family="Times,serif" font-size="8.00">next: 0x600001e49b00</text>
<polyline fill="none" stroke="black" points="3474,-26 3562,-26 "/>
<text text-anchor="middle" x="3518" y="-15.6" font-family="Times,serif" font-size="8.00">prev: 0x600001e478a0</text>
</g>
<!-- Node0x600001e478a0&#45;&gt;Node0x600001e484e0 -->
<g id="edge28" class="edge">
<title>Node0x600001e478a0:n&#45;&gt;Node0x600001e484e0:n</title>
<path fill="none" stroke="red" d="M3438,-34C3450,-34 3455.25,-34 3463.88,-34"/>
<polygon fill="red" stroke="red" points="3464,-37.5 3474,-34 3464,-30.5 3464,-37.5"/>
</g>
<!-- Node0x600001e49b00 -->
<g id="node30" class="node">
<title>Node0x600001e49b00</title>
<polygon fill="none" stroke="black" points="3598,-9 3598,-77 3686,-77 3686,-9 3598,-9"/>
<text text-anchor="middle" x="3642" y="-66.6" font-family="Times,serif" font-size="8.00">word: minds</text>
<polyline fill="none" stroke="black" points="3598,-60 3686,-60 "/>
<text text-anchor="middle" x="3642" y="-49.6" font-family="Times,serif" font-size="8.00">size: 1</text>
<polyline fill="none" stroke="black" points="3598,-43 3686,-43 "/>
<text text-anchor="middle" x="3642" y="-32.6" font-family="Times,serif" font-size="8.00">next: 0x600001e78e70</text>
<polyline fill="none" stroke="black" points="3598,-26 3686,-26 "/>
<text text-anchor="middle" x="3642" y="-15.6" font-family="Times,serif" font-size="8.00">prev: 0x600001e484e0</text>
</g>
<!-- Node0x600001e484e0&#45;&gt;Node0x600001e49b00 -->
<g id="edge29" class="edge">
<title>Node0x600001e484e0:n&#45;&gt;Node0x600001e49b00:n</title>
<path fill="none" stroke="red" d="M3562,-34C3574,-34 3579.25,-34 3587.88,-34"/>
<polygon fill="red" stroke="red" points="3588,-37.5 3598,-34 3588,-30.5 3588,-37.5"/>
</g>
<!-- Node0x600001e78e70 -->
<g id="node31" class="node">
<title>Node0x600001e78e70</title>
<polygon fill="none" stroke="black" points="3722,-9 3722,-77 3810,-77 3810,-9 3722,-9"/>
<text text-anchor="middle" x="3766" y="-66.6" font-family="Times,serif" font-size="8.00">word: strains</text>
<polyline fill="none" stroke="black" points="3722,-60 3810,-60 "/>
<text text-anchor="middle" x="3766" y="-49.6" font-family="Times,serif" font-size="8.00">size: 1</text>
<polyline fill="none" stroke="black" points="3722,-43 3810,-43 "/>
<text text-anchor="middle" x="3766" y="-32.6" font-family="Times,serif" font-size="8.00">next: 0x600001e79c50</text>
<polyline fill="none" stroke="black" points="3722,-26 3810,-26 "/>
<text text-anchor="middle" x="3766" y="-15.6" font-family="Times,serif" font-size="8.00">prev: 0x600001e49b00</text>
</g>
<!-- Node0x600001e49b00&#45;&gt;Node0x600001e78e70 -->
<g id="edge30" class="edge">
<title>Node0x600001e49b00:n&#45;&gt;Node0x600001e78e70:n</title>
<path fill="none" stroke="red" d="M3686,-34C3698,-34 3703.25,-34 3711.88,-34"/>
<polygon fill="red" stroke="red" points="3712,-37.5 3722,-34 3712,-30.5 3712,-37.5"/>
</g>
<!-- Node0x600001e79c50 -->
<g id="node32" class="node">
<title>Node0x600001e79c50</title>
<polygon fill="none" stroke="black" points="3846,-9 3846,-77 3934,-77 3934,-9 3846,-9"/>
<text text-anchor="middle" x="3890" y="-66.6" font-family="Times,serif" font-size="8.00">word: borne</text>
<polyline fill="none" stroke="black" points="3846,-60 3934,-60 "/>
<text text-anchor="middle" x="3890" y="-49.6" font-family="Times,serif" font-size="8.00">size: 1</text>
<polyline fill="none" stroke="black" points="3846,-43 3934,-43 "/>
<text text-anchor="middle" x="3890" y="-32.6" font-family="Times,serif" font-size="8.00">next: 0x600001e504e0</text>
<polyline fill="none" stroke="black" points="3846,-26 3934,-26 "/>
<text text-anchor="middle" x="3890" y="-15.6" font-family="Times,serif" font-size="8.00">prev: 0x600001e78e70</text>
</g>
<!-- Node0x600001e78e70&#45;&gt;Node0x600001e79c50 -->
<g id="edge31" class="edge">
<title>Node0x600001e78e70:n&#45;&gt;Node0x600001e79c50:n</title>
<path fill="none" stroke="red" d="M3810,-34C3822,-34 3827.25,-34 3835.88,-34"/>
<polygon fill="red" stroke="red" points="3836,-37.5 3846,-34 3836,-30.5 3836,-37.5"/>
</g>
<!-- Node0x600001e504e0 -->
<g id="node33" class="node">
<title>Node0x600001e504e0</title>
<polygon fill="none" stroke="black" points="3970,-9 3970,-77 4058,-77 4058,-9 3970,-9"/>
<text text-anchor="middle" x="4014" y="-66.6" font-family="Times,serif" font-size="8.00">word: fearest</text>
<polyline fill="none" stroke="black" points="3970,-60 4058,-60 "/>
<text text-anchor="middle" x="4014" y="-49.6" font-family="Times,serif" font-size="8.00">size: 1</text>
<polyline fill="none" stroke="black" points="3970,-43 4058,-43 "/>
<text text-anchor="middle" x="4014" y="-32.6" font-family="Times,serif" font-size="8.00">next: 0x600001e55c50</text>
<polyline fill="none" stroke="black" points="3970,-26 4058,-26 "/>
<text text-anchor="middle" x="4014" y="-15.6" font-family="Times,serif" font-size="8.00">prev: 0x600001e79c50</text>
</g>
<!-- Node0x600001e79c50&#45;&gt;Node0x600001e504e0 -->
<g id="edge32" class="edge">
<title>Node0x600001e79c50:n&#45;&gt;Node0x600001e504e0:n</title>
<path fill="none" stroke="red" d="M3934,-34C3946,-34 3951.25,-34 3959.88,-34"/>
<polygon fill="red" stroke="red" points="3960,-37.5 3970,-34 3960,-30.5 3960,-37.5"/>
</g>
<!-- Node0x600001e55c50 -->
<g id="node34" class="node">
<title>Node0x600001e55c50</title>
<polygon fill="none" stroke="black" points="4094,-9 4094,-77 4182,-77 4182,-9 4094,-9"/>
<text text-anchor="middle" x="4138" y="-66.6" font-family="Times,serif" font-size="8.00">word: warns</text>
<polyline fill="none" stroke="black" points="4094,-60 4182,-60 "/>
<text text-anchor="middle" x="4138" y="-49.6" font-family="Times,serif" font-size="8.00">size: 1</text>
<polyline fill="none" stroke="black" points="4094,-43 4182,-43 "/>
<text text-anchor="middle" x="4138" y="-32.6" font-family="Times,serif" font-size="8.00">next: 0x0</text>
<polyline fill="none" stroke="black" points="4094,-26 4182,-26 "/>
<text text-anchor="middle" x="4138" y="-15.6" font-family="Times,serif" font-size="8.00">prev: 0x600001e504e0</text>
</g>
<!-- Node0x600001e504e0&#45;&gt;Node0x600001e55c50 -->
<g id="edge33" class="edge">
<title>Node0x600001e504e0:n&#45;&gt;Node0x600001e55c50:n</title>
<path fill="none" stroke="red" d="M4058,-34C4070,-34 4075.25,-34 4083.88,-34"/>
<polygon fill="red" stroke="red" points="4084,-37.5 4094,-34 4084,-30.5 4084,-37.5"/>
</g>
</g>
</svg>
