<?xml version="1.0" encoding="UTF-8" standalone="no"?>
<!DOCTYPE svg PUBLIC "-//W3C//DTD SVG 1.1//EN"
 "http://www.w3.org/Graphics/SVG/1.1/DTD/svg11.dtd">
<!-- Generated by graphviz version 2.50.0 (20211204.2007)
 -->
<!-- Title: G Pages: 1 -->
<svg width="3824pt" height="117pt"
 viewBox="0.00 0.00 3824.00 117.00" xmlns="http://www.w3.org/2000/svg" xmlns:xlink="http://www.w3.org/1999/xlink">
<g id="graph0" class="graph" transform="scale(1 1) rotate(0) translate(4 113)">
<title>G</title>
<polygon fill="white" stroke="transparent" points="-4,4 -4,-113 3820,-113 3820,4 -4,4"/>
<g id="clust1" class="cluster">
<title>cluster1558</title>
<polygon fill="none" stroke="black" points="8,-8 8,-101 95,-101 95,-8 8,-8"/>
<text text-anchor="middle" x="51.5" y="-85.8" font-family="Times,serif" font-size="14.00">1558</text>
</g>
<g id="clust2" class="cluster">
<title>cluster1559</title>
<polygon fill="none" stroke="black" points="131,-8 131,-101 219,-101 219,-8 131,-8"/>
<text text-anchor="middle" x="175" y="-85.8" font-family="Times,serif" font-size="14.00">1559</text>
</g>
<g id="clust3" class="cluster">
<title>cluster1560</title>
<polygon fill="none" stroke="black" points="255,-8 255,-101 343,-101 343,-8 255,-8"/>
<text text-anchor="middle" x="299" y="-85.8" font-family="Times,serif" font-size="14.00">1560</text>
</g>
<g id="clust4" class="cluster">
<title>cluster1561</title>
<polygon fill="none" stroke="black" points="379,-8 379,-101 467,-101 467,-8 379,-8"/>
<text text-anchor="middle" x="423" y="-85.8" font-family="Times,serif" font-size="14.00">1561</text>
</g>
<g id="clust5" class="cluster">
<title>cluster1562</title>
<polygon fill="none" stroke="black" points="503,-8 503,-101 591,-101 591,-8 503,-8"/>
<text text-anchor="middle" x="547" y="-85.8" font-family="Times,serif" font-size="14.00">1562</text>
</g>
<g id="clust6" class="cluster">
<title>cluster1563</title>
<polygon fill="none" stroke="black" points="627,-8 627,-101 715,-101 715,-8 627,-8"/>
<text text-anchor="middle" x="671" y="-85.8" font-family="Times,serif" font-size="14.00">1563</text>
</g>
<g id="clust7" class="cluster">
<title>cluster1564</title>
<polygon fill="none" stroke="black" points="751,-8 751,-101 839,-101 839,-8 751,-8"/>
<text text-anchor="middle" x="795" y="-85.8" font-family="Times,serif" font-size="14.00">1564</text>
</g>
<g id="clust8" class="cluster">
<title>cluster1565</title>
<polygon fill="none" stroke="black" points="875,-8 875,-101 963,-101 963,-8 875,-8"/>
<text text-anchor="middle" x="919" y="-85.8" font-family="Times,serif" font-size="14.00">1565</text>
</g>
<g id="clust9" class="cluster">
<title>cluster1566</title>
<polygon fill="none" stroke="black" points="999,-8 999,-101 1087,-101 1087,-8 999,-8"/>
<text text-anchor="middle" x="1043" y="-85.8" font-family="Times,serif" font-size="14.00">1566</text>
</g>
<g id="clust10" class="cluster">
<title>cluster1567</title>
<polygon fill="none" stroke="black" points="1123,-8 1123,-101 1211,-101 1211,-8 1123,-8"/>
<text text-anchor="middle" x="1167" y="-85.8" font-family="Times,serif" font-size="14.00">1567</text>
</g>
<g id="clust11" class="cluster">
<title>cluster1568</title>
<polygon fill="none" stroke="black" points="1247,-8 1247,-101 1335,-101 1335,-8 1247,-8"/>
<text text-anchor="middle" x="1291" y="-85.8" font-family="Times,serif" font-size="14.00">1568</text>
</g>
<g id="clust12" class="cluster">
<title>cluster1569</title>
<polygon fill="none" stroke="black" points="1371,-8 1371,-101 1458,-101 1458,-8 1371,-8"/>
<text text-anchor="middle" x="1414.5" y="-85.8" font-family="Times,serif" font-size="14.00">1569</text>
</g>
<g id="clust13" class="cluster">
<title>cluster1570</title>
<polygon fill="none" stroke="black" points="1494,-8 1494,-101 1581,-101 1581,-8 1494,-8"/>
<text text-anchor="middle" x="1537.5" y="-85.8" font-family="Times,serif" font-size="14.00">1570</text>
</g>
<g id="clust14" class="cluster">
<title>cluster1571</title>
<polygon fill="none" stroke="black" points="1617,-8 1617,-101 1704,-101 1704,-8 1617,-8"/>
<text text-anchor="middle" x="1660.5" y="-85.8" font-family="Times,serif" font-size="14.00">1571</text>
</g>
<g id="clust15" class="cluster">
<title>cluster1572</title>
<polygon fill="none" stroke="black" points="1740,-8 1740,-101 1828,-101 1828,-8 1740,-8"/>
<text text-anchor="middle" x="1784" y="-85.8" font-family="Times,serif" font-size="14.00">1572</text>
</g>
<g id="clust16" class="cluster">
<title>cluster1573</title>
<polygon fill="none" stroke="black" points="1864,-8 1864,-101 1951,-101 1951,-8 1864,-8"/>
<text text-anchor="middle" x="1907.5" y="-85.8" font-family="Times,serif" font-size="14.00">1573</text>
</g>
<g id="clust17" class="cluster">
<title>cluster1574</title>
<polygon fill="none" stroke="black" points="1987,-8 1987,-101 2074,-101 2074,-8 1987,-8"/>
<text text-anchor="middle" x="2030.5" y="-85.8" font-family="Times,serif" font-size="14.00">1574</text>
</g>
<g id="clust18" class="cluster">
<title>cluster1575</title>
<polygon fill="none" stroke="black" points="2110,-8 2110,-101 2197,-101 2197,-8 2110,-8"/>
<text text-anchor="middle" x="2153.5" y="-85.8" font-family="Times,serif" font-size="14.00">1575</text>
</g>
<g id="clust19" class="cluster">
<title>cluster1576</title>
<polygon fill="none" stroke="black" points="2233,-8 2233,-101 2321,-101 2321,-8 2233,-8"/>
<text text-anchor="middle" x="2277" y="-85.8" font-family="Times,serif" font-size="14.00">1576</text>
</g>
<g id="clust20" class="cluster">
<title>cluster1577</title>
<polygon fill="none" stroke="black" points="2357,-8 2357,-101 2445,-101 2445,-8 2357,-8"/>
<text text-anchor="middle" x="2401" y="-85.8" font-family="Times,serif" font-size="14.00">1577</text>
</g>
<g id="clust21" class="cluster">
<title>cluster1578</title>
<polygon fill="none" stroke="black" points="2481,-8 2481,-101 2569,-101 2569,-8 2481,-8"/>
<text text-anchor="middle" x="2525" y="-85.8" font-family="Times,serif" font-size="14.00">1578</text>
</g>
<g id="clust22" class="cluster">
<title>cluster1579</title>
<polygon fill="none" stroke="black" points="2605,-8 2605,-101 2693,-101 2693,-8 2605,-8"/>
<text text-anchor="middle" x="2649" y="-85.8" font-family="Times,serif" font-size="14.00">1579</text>
</g>
<g id="clust23" class="cluster">
<title>cluster1580</title>
<polygon fill="none" stroke="black" points="2729,-8 2729,-101 2817,-101 2817,-8 2729,-8"/>
<text text-anchor="middle" x="2773" y="-85.8" font-family="Times,serif" font-size="14.00">1580</text>
</g>
<g id="clust24" class="cluster">
<title>cluster1581</title>
<polygon fill="none" stroke="black" points="2853,-8 2853,-101 2941,-101 2941,-8 2853,-8"/>
<text text-anchor="middle" x="2897" y="-85.8" font-family="Times,serif" font-size="14.00">1581</text>
</g>
<g id="clust25" class="cluster">
<title>cluster1582</title>
<polygon fill="none" stroke="black" points="2977,-8 2977,-101 3065,-101 3065,-8 2977,-8"/>
<text text-anchor="middle" x="3021" y="-85.8" font-family="Times,serif" font-size="14.00">1582</text>
</g>
<g id="clust26" class="cluster">
<title>cluster1583</title>
<polygon fill="none" stroke="black" points="3101,-8 3101,-101 3189,-101 3189,-8 3101,-8"/>
<text text-anchor="middle" x="3145" y="-85.8" font-family="Times,serif" font-size="14.00">1583</text>
</g>
<g id="clust27" class="cluster">
<title>cluster1584</title>
<polygon fill="none" stroke="black" points="3225,-8 3225,-101 3313,-101 3313,-8 3225,-8"/>
<text text-anchor="middle" x="3269" y="-85.8" font-family="Times,serif" font-size="14.00">1584</text>
</g>
<g id="clust28" class="cluster">
<title>cluster1585</title>
<polygon fill="none" stroke="black" points="3349,-8 3349,-101 3437,-101 3437,-8 3349,-8"/>
<text text-anchor="middle" x="3393" y="-85.8" font-family="Times,serif" font-size="14.00">1585</text>
</g>
<g id="clust29" class="cluster">
<title>cluster1586</title>
<polygon fill="none" stroke="black" points="3473,-8 3473,-101 3560,-101 3560,-8 3473,-8"/>
<text text-anchor="middle" x="3516.5" y="-85.8" font-family="Times,serif" font-size="14.00">1586</text>
</g>
<g id="clust30" class="cluster">
<title>cluster1587</title>
<polygon fill="none" stroke="black" points="3596,-8 3596,-101 3684,-101 3684,-8 3596,-8"/>
<text text-anchor="middle" x="3640" y="-85.8" font-family="Times,serif" font-size="14.00">1587</text>
</g>
<g id="clust31" class="cluster">
<title>cluster1588</title>
<polygon fill="none" stroke="black" points="3720,-8 3720,-101 3808,-101 3808,-8 3720,-8"/>
<text text-anchor="middle" x="3764" y="-85.8" font-family="Times,serif" font-size="14.00">1588</text>
</g>
<!-- Node0x600000710810 -->
<g id="node1" class="node">
<title>Node0x600000710810</title>
<polygon fill="none" stroke="black" points="8,-9 8,-77 95,-77 95,-9 8,-9"/>
<text text-anchor="middle" x="51.5" y="-66.6" font-family="Times,serif" font-size="8.00">word: Capulet</text>
<polyline fill="none" stroke="black" points="8,-60 95,-60 "/>
<text text-anchor="middle" x="51.5" y="-49.6" font-family="Times,serif" font-size="8.00">size: 21</text>
<polyline fill="none" stroke="black" points="8,-43 95,-43 "/>
<text text-anchor="middle" x="51.5" y="-32.6" font-family="Times,serif" font-size="8.00">next: 0x600000711050</text>
<polyline fill="none" stroke="black" points="8,-26 95,-26 "/>
<text text-anchor="middle" x="51.5" y="-15.6" font-family="Times,serif" font-size="8.00">prev: 0x0</text>
</g>
<!-- Node0x600000711050 -->
<g id="node2" class="node">
<title>Node0x600000711050</title>
<polygon fill="none" stroke="black" points="131,-9 131,-77 219,-77 219,-9 131,-9"/>
<text text-anchor="middle" x="175" y="-66.6" font-family="Times,serif" font-size="8.00">word: GUARDS</text>
<polyline fill="none" stroke="black" points="131,-60 219,-60 "/>
<text text-anchor="middle" x="175" y="-49.6" font-family="Times,serif" font-size="8.00">size: 1</text>
<polyline fill="none" stroke="black" points="131,-43 219,-43 "/>
<text text-anchor="middle" x="175" y="-32.6" font-family="Times,serif" font-size="8.00">next: 0x600000713420</text>
<polyline fill="none" stroke="black" points="131,-26 219,-26 "/>
<text text-anchor="middle" x="175" y="-15.6" font-family="Times,serif" font-size="8.00">prev: 0x600000710810</text>
</g>
<!-- Node0x600000710810&#45;&gt;Node0x600000711050 -->
<g id="edge1" class="edge">
<title>Node0x600000710810:n&#45;&gt;Node0x600000711050:n</title>
<path fill="none" stroke="red" d="M95,-34C107,-34 112.25,-34 120.88,-34"/>
<polygon fill="red" stroke="red" points="121,-37.5 131,-34 121,-30.5 121,-37.5"/>
</g>
<!-- Node0x600000713420 -->
<g id="node3" class="node">
<title>Node0x600000713420</title>
<polygon fill="none" stroke="black" points="255,-9 255,-77 343,-77 343,-9 255,-9"/>
<text text-anchor="middle" x="299" y="-66.6" font-family="Times,serif" font-size="8.00">word: cut</text>
<polyline fill="none" stroke="black" points="255,-60 343,-60 "/>
<text text-anchor="middle" x="299" y="-49.6" font-family="Times,serif" font-size="8.00">size: 5</text>
<polyline fill="none" stroke="black" points="255,-43 343,-43 "/>
<text text-anchor="middle" x="299" y="-32.6" font-family="Times,serif" font-size="8.00">next: 0x600000717c60</text>
<polyline fill="none" stroke="black" points="255,-26 343,-26 "/>
<text text-anchor="middle" x="299" y="-15.6" font-family="Times,serif" font-size="8.00">prev: 0x600000711050</text>
</g>
<!-- Node0x600000711050&#45;&gt;Node0x600000713420 -->
<g id="edge2" class="edge">
<title>Node0x600000711050:n&#45;&gt;Node0x600000713420:n</title>
<path fill="none" stroke="red" d="M219,-34C231,-34 236.25,-34 244.88,-34"/>
<polygon fill="red" stroke="red" points="245,-37.5 255,-34 245,-30.5 245,-37.5"/>
</g>
<!-- Node0x600000717c60 -->
<g id="node4" class="node">
<title>Node0x600000717c60</title>
<polygon fill="none" stroke="black" points="379,-9 379,-77 467,-77 467,-9 379,-9"/>
<text text-anchor="middle" x="423" y="-66.6" font-family="Times,serif" font-size="8.00">word: envious</text>
<polyline fill="none" stroke="black" points="379,-60 467,-60 "/>
<text text-anchor="middle" x="423" y="-49.6" font-family="Times,serif" font-size="8.00">size: 6</text>
<polyline fill="none" stroke="black" points="379,-43 467,-43 "/>
<text text-anchor="middle" x="423" y="-32.6" font-family="Times,serif" font-size="8.00">next: 0x600000719d40</text>
<polyline fill="none" stroke="black" points="379,-26 467,-26 "/>
<text text-anchor="middle" x="423" y="-15.6" font-family="Times,serif" font-size="8.00">prev: 0x600000713420</text>
</g>
<!-- Node0x600000713420&#45;&gt;Node0x600000717c60 -->
<g id="edge3" class="edge">
<title>Node0x600000713420:n&#45;&gt;Node0x600000717c60:n</title>
<path fill="none" stroke="red" d="M343,-34C355,-34 360.25,-34 368.88,-34"/>
<polygon fill="red" stroke="red" points="369,-37.5 379,-34 369,-30.5 369,-37.5"/>
</g>
<!-- Node0x600000719d40 -->
<g id="node5" class="node">
<title>Node0x600000719d40</title>
<polygon fill="none" stroke="black" points="503,-9 503,-77 591,-77 591,-9 503,-9"/>
<text text-anchor="middle" x="547" y="-66.6" font-family="Times,serif" font-size="8.00">word: gold</text>
<polyline fill="none" stroke="black" points="503,-60 591,-60 "/>
<text text-anchor="middle" x="547" y="-49.6" font-family="Times,serif" font-size="8.00">size: 5</text>
<polyline fill="none" stroke="black" points="503,-43 591,-43 "/>
<text text-anchor="middle" x="547" y="-32.6" font-family="Times,serif" font-size="8.00">next: 0x60000071adc0</text>
<polyline fill="none" stroke="black" points="503,-26 591,-26 "/>
<text text-anchor="middle" x="547" y="-15.6" font-family="Times,serif" font-size="8.00">prev: 0x600000717c60</text>
</g>
<!-- Node0x600000717c60&#45;&gt;Node0x600000719d40 -->
<g id="edge4" class="edge">
<title>Node0x600000717c60:n&#45;&gt;Node0x600000719d40:n</title>
<path fill="none" stroke="red" d="M467,-34C479,-34 484.25,-34 492.88,-34"/>
<polygon fill="red" stroke="red" points="493,-37.5 503,-34 493,-30.5 493,-37.5"/>
</g>
<!-- Node0x60000071adc0 -->
<g id="node6" class="node">
<title>Node0x60000071adc0</title>
<polygon fill="none" stroke="black" points="627,-9 627,-77 715,-77 715,-9 627,-9"/>
<text text-anchor="middle" x="671" y="-66.6" font-family="Times,serif" font-size="8.00">word: summers</text>
<polyline fill="none" stroke="black" points="627,-60 715,-60 "/>
<text text-anchor="middle" x="671" y="-49.6" font-family="Times,serif" font-size="8.00">size: 1</text>
<polyline fill="none" stroke="black" points="627,-43 715,-43 "/>
<text text-anchor="middle" x="671" y="-32.6" font-family="Times,serif" font-size="8.00">next: 0x60000071c480</text>
<polyline fill="none" stroke="black" points="627,-26 715,-26 "/>
<text text-anchor="middle" x="671" y="-15.6" font-family="Times,serif" font-size="8.00">prev: 0x600000719d40</text>
</g>
<!-- Node0x600000719d40&#45;&gt;Node0x60000071adc0 -->
<g id="edge5" class="edge">
<title>Node0x600000719d40:n&#45;&gt;Node0x60000071adc0:n</title>
<path fill="none" stroke="red" d="M591,-34C603,-34 608.25,-34 616.88,-34"/>
<polygon fill="red" stroke="red" points="617,-37.5 627,-34 617,-30.5 617,-37.5"/>
</g>
<!-- Node0x60000071c480 -->
<g id="node7" class="node">
<title>Node0x60000071c480</title>
<polygon fill="none" stroke="black" points="751,-9 751,-77 839,-77 839,-9 751,-9"/>
<text text-anchor="middle" x="795" y="-66.6" font-family="Times,serif" font-size="8.00">word: welcome</text>
<polyline fill="none" stroke="black" points="751,-60 839,-60 "/>
<text text-anchor="middle" x="795" y="-49.6" font-family="Times,serif" font-size="8.00">size: 4</text>
<polyline fill="none" stroke="black" points="751,-43 839,-43 "/>
<text text-anchor="middle" x="795" y="-32.6" font-family="Times,serif" font-size="8.00">next: 0x60000071b240</text>
<polyline fill="none" stroke="black" points="751,-26 839,-26 "/>
<text text-anchor="middle" x="795" y="-15.6" font-family="Times,serif" font-size="8.00">prev: 0x60000071adc0</text>
</g>
<!-- Node0x60000071adc0&#45;&gt;Node0x60000071c480 -->
<g id="edge6" class="edge">
<title>Node0x60000071adc0:n&#45;&gt;Node0x60000071c480:n</title>
<path fill="none" stroke="red" d="M715,-34C727,-34 732.25,-34 740.88,-34"/>
<polygon fill="red" stroke="red" points="741,-37.5 751,-34 741,-30.5 741,-37.5"/>
</g>
<!-- Node0x60000071b240 -->
<g id="node8" class="node">
<title>Node0x60000071b240</title>
<polygon fill="none" stroke="black" points="875,-9 875,-77 963,-77 963,-9 875,-9"/>
<text text-anchor="middle" x="919" y="-66.6" font-family="Times,serif" font-size="8.00">word: Hear</text>
<polyline fill="none" stroke="black" points="875,-60 963,-60 "/>
<text text-anchor="middle" x="919" y="-49.6" font-family="Times,serif" font-size="8.00">size: 2</text>
<polyline fill="none" stroke="black" points="875,-43 963,-43 "/>
<text text-anchor="middle" x="919" y="-32.6" font-family="Times,serif" font-size="8.00">next: 0x60000071b960</text>
<polyline fill="none" stroke="black" points="875,-26 963,-26 "/>
<text text-anchor="middle" x="919" y="-15.6" font-family="Times,serif" font-size="8.00">prev: 0x60000071c480</text>
</g>
<!-- Node0x60000071c480&#45;&gt;Node0x60000071b240 -->
<g id="edge7" class="edge">
<title>Node0x60000071c480:n&#45;&gt;Node0x60000071b240:n</title>
<path fill="none" stroke="red" d="M839,-34C851,-34 856.25,-34 864.88,-34"/>
<polygon fill="red" stroke="red" points="865,-37.5 875,-34 865,-30.5 865,-37.5"/>
</g>
<!-- Node0x60000071b960 -->
<g id="node9" class="node">
<title>Node0x60000071b960</title>
<polygon fill="none" stroke="black" points="999,-9 999,-77 1087,-77 1087,-9 999,-9"/>
<text text-anchor="middle" x="1043" y="-66.6" font-family="Times,serif" font-size="8.00">word: holp</text>
<polyline fill="none" stroke="black" points="999,-60 1087,-60 "/>
<text text-anchor="middle" x="1043" y="-49.6" font-family="Times,serif" font-size="8.00">size: 1</text>
<polyline fill="none" stroke="black" points="999,-43 1087,-43 "/>
<text text-anchor="middle" x="1043" y="-32.6" font-family="Times,serif" font-size="8.00">next: 0x600000708030</text>
<polyline fill="none" stroke="black" points="999,-26 1087,-26 "/>
<text text-anchor="middle" x="1043" y="-15.6" font-family="Times,serif" font-size="8.00">prev: 0x60000071b240</text>
</g>
<!-- Node0x60000071b240&#45;&gt;Node0x60000071b960 -->
<g id="edge8" class="edge">
<title>Node0x60000071b240:n&#45;&gt;Node0x60000071b960:n</title>
<path fill="none" stroke="red" d="M963,-34C975,-34 980.25,-34 988.88,-34"/>
<polygon fill="red" stroke="red" points="989,-37.5 999,-34 989,-30.5 989,-37.5"/>
</g>
<!-- Node0x600000708030 -->
<g id="node10" class="node">
<title>Node0x600000708030</title>
<polygon fill="none" stroke="black" points="1123,-9 1123,-77 1211,-77 1211,-9 1123,-9"/>
<text text-anchor="middle" x="1167" y="-66.6" font-family="Times,serif" font-size="8.00">word: shining</text>
<polyline fill="none" stroke="black" points="1123,-60 1211,-60 "/>
<text text-anchor="middle" x="1167" y="-49.6" font-family="Times,serif" font-size="8.00">size: 1</text>
<polyline fill="none" stroke="black" points="1123,-43 1211,-43 "/>
<text text-anchor="middle" x="1167" y="-32.6" font-family="Times,serif" font-size="8.00">next: 0x600000708cf0</text>
<polyline fill="none" stroke="black" points="1123,-26 1211,-26 "/>
<text text-anchor="middle" x="1167" y="-15.6" font-family="Times,serif" font-size="8.00">prev: 0x60000071b960</text>
</g>
<!-- Node0x60000071b960&#45;&gt;Node0x600000708030 -->
<g id="edge9" class="edge">
<title>Node0x60000071b960:n&#45;&gt;Node0x600000708030:n</title>
<path fill="none" stroke="red" d="M1087,-34C1099,-34 1104.25,-34 1112.88,-34"/>
<polygon fill="red" stroke="red" points="1113,-37.5 1123,-34 1113,-30.5 1113,-37.5"/>
</g>
<!-- Node0x600000708cf0 -->
<g id="node11" class="node">
<title>Node0x600000708cf0</title>
<polygon fill="none" stroke="black" points="1247,-9 1247,-77 1335,-77 1335,-9 1247,-9"/>
<text text-anchor="middle" x="1291" y="-66.6" font-family="Times,serif" font-size="8.00">word: rood</text>
<polyline fill="none" stroke="black" points="1247,-60 1335,-60 "/>
<text text-anchor="middle" x="1291" y="-49.6" font-family="Times,serif" font-size="8.00">size: 1</text>
<polyline fill="none" stroke="black" points="1247,-43 1335,-43 "/>
<text text-anchor="middle" x="1291" y="-32.6" font-family="Times,serif" font-size="8.00">next: 0x6000007098f0</text>
<polyline fill="none" stroke="black" points="1247,-26 1335,-26 "/>
<text text-anchor="middle" x="1291" y="-15.6" font-family="Times,serif" font-size="8.00">prev: 0x600000708030</text>
</g>
<!-- Node0x600000708030&#45;&gt;Node0x600000708cf0 -->
<g id="edge10" class="edge">
<title>Node0x600000708030:n&#45;&gt;Node0x600000708cf0:n</title>
<path fill="none" stroke="red" d="M1211,-34C1223,-34 1228.25,-34 1236.88,-34"/>
<polygon fill="red" stroke="red" points="1237,-37.5 1247,-34 1237,-30.5 1237,-37.5"/>
</g>
<!-- Node0x6000007098f0 -->
<g id="node12" class="node">
<title>Node0x6000007098f0</title>
<polygon fill="none" stroke="black" points="1371,-9 1371,-77 1458,-77 1458,-9 1371,-9"/>
<text text-anchor="middle" x="1414.5" y="-66.6" font-family="Times,serif" font-size="8.00">word: summer</text>
<polyline fill="none" stroke="black" points="1371,-60 1458,-60 "/>
<text text-anchor="middle" x="1414.5" y="-49.6" font-family="Times,serif" font-size="8.00">size: 3</text>
<polyline fill="none" stroke="black" points="1371,-43 1458,-43 "/>
<text text-anchor="middle" x="1414.5" y="-32.6" font-family="Times,serif" font-size="8.00">next: 0x6000007058f0</text>
<polyline fill="none" stroke="black" points="1371,-26 1458,-26 "/>
<text text-anchor="middle" x="1414.5" y="-15.6" font-family="Times,serif" font-size="8.00">prev: 0x600000708cf0</text>
</g>
<!-- Node0x600000708cf0&#45;&gt;Node0x6000007098f0 -->
<g id="edge11" class="edge">
<title>Node0x600000708cf0:n&#45;&gt;Node0x6000007098f0:n</title>
<path fill="none" stroke="red" d="M1335,-34C1347,-34 1352.25,-34 1360.88,-34"/>
<polygon fill="red" stroke="red" points="1361,-37.5 1371,-34 1361,-30.5 1361,-37.5"/>
</g>
<!-- Node0x6000007058f0 -->
<g id="node13" class="node">
<title>Node0x6000007058f0</title>
<polygon fill="none" stroke="black" points="1494,-9 1494,-77 1581,-77 1581,-9 1494,-9"/>
<text text-anchor="middle" x="1537.5" y="-66.6" font-family="Times,serif" font-size="8.00">word: vain</text>
<polyline fill="none" stroke="black" points="1494,-60 1581,-60 "/>
<text text-anchor="middle" x="1537.5" y="-49.6" font-family="Times,serif" font-size="8.00">size: 3</text>
<polyline fill="none" stroke="black" points="1494,-43 1581,-43 "/>
<text text-anchor="middle" x="1537.5" y="-32.6" font-family="Times,serif" font-size="8.00">next: 0x60000071d6e0</text>
<polyline fill="none" stroke="black" points="1494,-26 1581,-26 "/>
<text text-anchor="middle" x="1537.5" y="-15.6" font-family="Times,serif" font-size="8.00">prev: 0x6000007098f0</text>
</g>
<!-- Node0x6000007098f0&#45;&gt;Node0x6000007058f0 -->
<g id="edge12" class="edge">
<title>Node0x6000007098f0:n&#45;&gt;Node0x6000007058f0:n</title>
<path fill="none" stroke="red" d="M1458,-34C1470,-34 1475.25,-34 1483.88,-34"/>
<polygon fill="red" stroke="red" points="1484,-37.5 1494,-34 1484,-30.5 1484,-37.5"/>
</g>
<!-- Node0x60000071d6e0 -->
<g id="node14" class="node">
<title>Node0x60000071d6e0</title>
<polygon fill="none" stroke="black" points="1617,-9 1617,-77 1704,-77 1704,-9 1617,-9"/>
<text text-anchor="middle" x="1660.5" y="-66.6" font-family="Times,serif" font-size="8.00">word: cursies</text>
<polyline fill="none" stroke="black" points="1617,-60 1704,-60 "/>
<text text-anchor="middle" x="1660.5" y="-49.6" font-family="Times,serif" font-size="8.00">size: 1</text>
<polyline fill="none" stroke="black" points="1617,-43 1704,-43 "/>
<text text-anchor="middle" x="1660.5" y="-32.6" font-family="Times,serif" font-size="8.00">next: 0x60000071f180</text>
<polyline fill="none" stroke="black" points="1617,-26 1704,-26 "/>
<text text-anchor="middle" x="1660.5" y="-15.6" font-family="Times,serif" font-size="8.00">prev: 0x6000007058f0</text>
</g>
<!-- Node0x6000007058f0&#45;&gt;Node0x60000071d6e0 -->
<g id="edge13" class="edge">
<title>Node0x6000007058f0:n&#45;&gt;Node0x60000071d6e0:n</title>
<path fill="none" stroke="red" d="M1581,-34C1593,-34 1598.25,-34 1606.88,-34"/>
<polygon fill="red" stroke="red" points="1607,-37.5 1617,-34 1607,-30.5 1607,-37.5"/>
</g>
<!-- Node0x60000071f180 -->
<g id="node15" class="node">
<title>Node0x60000071f180</title>
<polygon fill="none" stroke="black" points="1740,-9 1740,-77 1828,-77 1828,-9 1740,-9"/>
<text text-anchor="middle" x="1784" y="-66.6" font-family="Times,serif" font-size="8.00">word: Unplagu</text>
<polyline fill="none" stroke="black" points="1740,-60 1828,-60 "/>
<text text-anchor="middle" x="1784" y="-49.6" font-family="Times,serif" font-size="8.00">size: 1</text>
<polyline fill="none" stroke="black" points="1740,-43 1828,-43 "/>
<text text-anchor="middle" x="1784" y="-32.6" font-family="Times,serif" font-size="8.00">next: 0x60000071fae0</text>
<polyline fill="none" stroke="black" points="1740,-26 1828,-26 "/>
<text text-anchor="middle" x="1784" y="-15.6" font-family="Times,serif" font-size="8.00">prev: 0x60000071d6e0</text>
</g>
<!-- Node0x60000071d6e0&#45;&gt;Node0x60000071f180 -->
<g id="edge14" class="edge">
<title>Node0x60000071d6e0:n&#45;&gt;Node0x60000071f180:n</title>
<path fill="none" stroke="red" d="M1704,-34C1716,-34 1721.25,-34 1729.88,-34"/>
<polygon fill="red" stroke="red" points="1730,-37.5 1740,-34 1730,-30.5 1730,-37.5"/>
</g>
<!-- Node0x60000071fae0 -->
<g id="node16" class="node">
<title>Node0x60000071fae0</title>
<polygon fill="none" stroke="black" points="1864,-9 1864,-77 1951,-77 1951,-9 1864,-9"/>
<text text-anchor="middle" x="1907.5" y="-66.6" font-family="Times,serif" font-size="8.00">word: dear</text>
<polyline fill="none" stroke="black" points="1864,-60 1951,-60 "/>
<text text-anchor="middle" x="1907.5" y="-49.6" font-family="Times,serif" font-size="8.00">size: 26</text>
<polyline fill="none" stroke="black" points="1864,-43 1951,-43 "/>
<text text-anchor="middle" x="1907.5" y="-32.6" font-family="Times,serif" font-size="8.00">next: 0x600000700cf0</text>
<polyline fill="none" stroke="black" points="1864,-26 1951,-26 "/>
<text text-anchor="middle" x="1907.5" y="-15.6" font-family="Times,serif" font-size="8.00">prev: 0x60000071f180</text>
</g>
<!-- Node0x60000071f180&#45;&gt;Node0x60000071fae0 -->
<g id="edge15" class="edge">
<title>Node0x60000071f180:n&#45;&gt;Node0x60000071fae0:n</title>
<path fill="none" stroke="red" d="M1828,-34C1840,-34 1845.25,-34 1853.88,-34"/>
<polygon fill="red" stroke="red" points="1854,-37.5 1864,-34 1854,-30.5 1854,-37.5"/>
</g>
<!-- Node0x600000700cf0 -->
<g id="node17" class="node">
<title>Node0x600000700cf0</title>
<polygon fill="none" stroke="black" points="1987,-9 1987,-77 2074,-77 2074,-9 1987,-9"/>
<text text-anchor="middle" x="2030.5" y="-66.6" font-family="Times,serif" font-size="8.00">word: towards</text>
<polyline fill="none" stroke="black" points="1987,-60 2074,-60 "/>
<text text-anchor="middle" x="2030.5" y="-49.6" font-family="Times,serif" font-size="8.00">size: 2</text>
<polyline fill="none" stroke="black" points="1987,-43 2074,-43 "/>
<text text-anchor="middle" x="2030.5" y="-32.6" font-family="Times,serif" font-size="8.00">next: 0x600000702970</text>
<polyline fill="none" stroke="black" points="1987,-26 2074,-26 "/>
<text text-anchor="middle" x="2030.5" y="-15.6" font-family="Times,serif" font-size="8.00">prev: 0x60000071fae0</text>
</g>
<!-- Node0x60000071fae0&#45;&gt;Node0x600000700cf0 -->
<g id="edge16" class="edge">
<title>Node0x60000071fae0:n&#45;&gt;Node0x600000700cf0:n</title>
<path fill="none" stroke="red" d="M1951,-34C1963,-34 1968.25,-34 1976.88,-34"/>
<polygon fill="red" stroke="red" points="1977,-37.5 1987,-34 1977,-30.5 1977,-37.5"/>
</g>
<!-- Node0x600000702970 -->
<g id="node18" class="node">
<title>Node0x600000702970</title>
<polygon fill="none" stroke="black" points="2110,-9 2110,-77 2197,-77 2197,-9 2110,-9"/>
<text text-anchor="middle" x="2153.5" y="-66.6" font-family="Times,serif" font-size="8.00">word: region</text>
<polyline fill="none" stroke="black" points="2110,-60 2197,-60 "/>
<text text-anchor="middle" x="2153.5" y="-49.6" font-family="Times,serif" font-size="8.00">size: 1</text>
<polyline fill="none" stroke="black" points="2110,-43 2197,-43 "/>
<text text-anchor="middle" x="2153.5" y="-32.6" font-family="Times,serif" font-size="8.00">next: 0x600000703330</text>
<polyline fill="none" stroke="black" points="2110,-26 2197,-26 "/>
<text text-anchor="middle" x="2153.5" y="-15.6" font-family="Times,serif" font-size="8.00">prev: 0x600000700cf0</text>
</g>
<!-- Node0x600000700cf0&#45;&gt;Node0x600000702970 -->
<g id="edge17" class="edge">
<title>Node0x600000700cf0:n&#45;&gt;Node0x600000702970:n</title>
<path fill="none" stroke="red" d="M2074,-34C2086,-34 2091.25,-34 2099.88,-34"/>
<polygon fill="red" stroke="red" points="2100,-37.5 2110,-34 2100,-30.5 2100,-37.5"/>
</g>
<!-- Node0x600000703330 -->
<g id="node19" class="node">
<title>Node0x600000703330</title>
<polygon fill="none" stroke="black" points="2233,-9 2233,-77 2321,-77 2321,-9 2233,-9"/>
<text text-anchor="middle" x="2277" y="-66.6" font-family="Times,serif" font-size="8.00">word: climb</text>
<polyline fill="none" stroke="black" points="2233,-60 2321,-60 "/>
<text text-anchor="middle" x="2277" y="-49.6" font-family="Times,serif" font-size="8.00">size: 2</text>
<polyline fill="none" stroke="black" points="2233,-43 2321,-43 "/>
<text text-anchor="middle" x="2277" y="-32.6" font-family="Times,serif" font-size="8.00">next: 0x600000731860</text>
<polyline fill="none" stroke="black" points="2233,-26 2321,-26 "/>
<text text-anchor="middle" x="2277" y="-15.6" font-family="Times,serif" font-size="8.00">prev: 0x600000702970</text>
</g>
<!-- Node0x600000702970&#45;&gt;Node0x600000703330 -->
<g id="edge18" class="edge">
<title>Node0x600000702970:n&#45;&gt;Node0x600000703330:n</title>
<path fill="none" stroke="red" d="M2197,-34C2209,-34 2214.25,-34 2222.88,-34"/>
<polygon fill="red" stroke="red" points="2223,-37.5 2233,-34 2223,-30.5 2223,-37.5"/>
</g>
<!-- Node0x600000731860 -->
<g id="node20" class="node">
<title>Node0x600000731860</title>
<polygon fill="none" stroke="black" points="2357,-9 2357,-77 2445,-77 2445,-9 2357,-9"/>
<text text-anchor="middle" x="2401" y="-66.6" font-family="Times,serif" font-size="8.00">word: powerful</text>
<polyline fill="none" stroke="black" points="2357,-60 2445,-60 "/>
<text text-anchor="middle" x="2401" y="-49.6" font-family="Times,serif" font-size="8.00">size: 1</text>
<polyline fill="none" stroke="black" points="2357,-43 2445,-43 "/>
<text text-anchor="middle" x="2401" y="-32.6" font-family="Times,serif" font-size="8.00">next: 0x600000731a70</text>
<polyline fill="none" stroke="black" points="2357,-26 2445,-26 "/>
<text text-anchor="middle" x="2401" y="-15.6" font-family="Times,serif" font-size="8.00">prev: 0x600000703330</text>
</g>
<!-- Node0x600000703330&#45;&gt;Node0x600000731860 -->
<g id="edge19" class="edge">
<title>Node0x600000703330:n&#45;&gt;Node0x600000731860:n</title>
<path fill="none" stroke="red" d="M2321,-34C2333,-34 2338.25,-34 2346.88,-34"/>
<polygon fill="red" stroke="red" points="2347,-37.5 2357,-34 2347,-30.5 2347,-37.5"/>
</g>
<!-- Node0x600000731a70 -->
<g id="node21" class="node">
<title>Node0x600000731a70</title>
<polygon fill="none" stroke="black" points="2481,-9 2481,-77 2569,-77 2569,-9 2481,-9"/>
<text text-anchor="middle" x="2525" y="-66.6" font-family="Times,serif" font-size="8.00">word: Virtue</text>
<polyline fill="none" stroke="black" points="2481,-60 2569,-60 "/>
<text text-anchor="middle" x="2525" y="-49.6" font-family="Times,serif" font-size="8.00">size: 1</text>
<polyline fill="none" stroke="black" points="2481,-43 2569,-43 "/>
<text text-anchor="middle" x="2525" y="-32.6" font-family="Times,serif" font-size="8.00">next: 0x6000007349c0</text>
<polyline fill="none" stroke="black" points="2481,-26 2569,-26 "/>
<text text-anchor="middle" x="2525" y="-15.6" font-family="Times,serif" font-size="8.00">prev: 0x600000731860</text>
</g>
<!-- Node0x600000731860&#45;&gt;Node0x600000731a70 -->
<g id="edge20" class="edge">
<title>Node0x600000731860:n&#45;&gt;Node0x600000731a70:n</title>
<path fill="none" stroke="red" d="M2445,-34C2457,-34 2462.25,-34 2470.88,-34"/>
<polygon fill="red" stroke="red" points="2471,-37.5 2481,-34 2471,-30.5 2471,-37.5"/>
</g>
<!-- Node0x6000007349c0 -->
<g id="node22" class="node">
<title>Node0x6000007349c0</title>
<polygon fill="none" stroke="black" points="2605,-9 2605,-77 2693,-77 2693,-9 2605,-9"/>
<text text-anchor="middle" x="2649" y="-66.6" font-family="Times,serif" font-size="8.00">word: Man</text>
<polyline fill="none" stroke="black" points="2605,-60 2693,-60 "/>
<text text-anchor="middle" x="2649" y="-49.6" font-family="Times,serif" font-size="8.00">size: 1</text>
<polyline fill="none" stroke="black" points="2605,-43 2693,-43 "/>
<text text-anchor="middle" x="2649" y="-32.6" font-family="Times,serif" font-size="8.00">next: 0x600000736010</text>
<polyline fill="none" stroke="black" points="2605,-26 2693,-26 "/>
<text text-anchor="middle" x="2649" y="-15.6" font-family="Times,serif" font-size="8.00">prev: 0x600000731a70</text>
</g>
<!-- Node0x600000731a70&#45;&gt;Node0x6000007349c0 -->
<g id="edge21" class="edge">
<title>Node0x600000731a70:n&#45;&gt;Node0x6000007349c0:n</title>
<path fill="none" stroke="red" d="M2569,-34C2581,-34 2586.25,-34 2594.88,-34"/>
<polygon fill="red" stroke="red" points="2595,-37.5 2605,-34 2595,-30.5 2595,-37.5"/>
</g>
<!-- Node0x600000736010 -->
<g id="node23" class="node">
<title>Node0x600000736010</title>
<polygon fill="none" stroke="black" points="2729,-9 2729,-77 2817,-77 2817,-9 2729,-9"/>
<text text-anchor="middle" x="2773" y="-66.6" font-family="Times,serif" font-size="8.00">word: pinion</text>
<polyline fill="none" stroke="black" points="2729,-60 2817,-60 "/>
<text text-anchor="middle" x="2773" y="-49.6" font-family="Times,serif" font-size="8.00">size: 1</text>
<polyline fill="none" stroke="black" points="2729,-43 2817,-43 "/>
<text text-anchor="middle" x="2773" y="-32.6" font-family="Times,serif" font-size="8.00">next: 0x6000007365b0</text>
<polyline fill="none" stroke="black" points="2729,-26 2817,-26 "/>
<text text-anchor="middle" x="2773" y="-15.6" font-family="Times,serif" font-size="8.00">prev: 0x6000007349c0</text>
</g>
<!-- Node0x6000007349c0&#45;&gt;Node0x600000736010 -->
<g id="edge22" class="edge">
<title>Node0x6000007349c0:n&#45;&gt;Node0x600000736010:n</title>
<path fill="none" stroke="red" d="M2693,-34C2705,-34 2710.25,-34 2718.88,-34"/>
<polygon fill="red" stroke="red" points="2719,-37.5 2729,-34 2719,-30.5 2719,-37.5"/>
</g>
<!-- Node0x6000007365b0 -->
<g id="node24" class="node">
<title>Node0x6000007365b0</title>
<polygon fill="none" stroke="black" points="2853,-9 2853,-77 2941,-77 2941,-9 2853,-9"/>
<text text-anchor="middle" x="2897" y="-66.6" font-family="Times,serif" font-size="8.00">word: simple</text>
<polyline fill="none" stroke="black" points="2853,-60 2941,-60 "/>
<text text-anchor="middle" x="2897" y="-49.6" font-family="Times,serif" font-size="8.00">size: 5</text>
<polyline fill="none" stroke="black" points="2853,-43 2941,-43 "/>
<text text-anchor="middle" x="2897" y="-32.6" font-family="Times,serif" font-size="8.00">next: 0x60000073a640</text>
<polyline fill="none" stroke="black" points="2853,-26 2941,-26 "/>
<text text-anchor="middle" x="2897" y="-15.6" font-family="Times,serif" font-size="8.00">prev: 0x600000736010</text>
</g>
<!-- Node0x600000736010&#45;&gt;Node0x6000007365b0 -->
<g id="edge23" class="edge">
<title>Node0x600000736010:n&#45;&gt;Node0x6000007365b0:n</title>
<path fill="none" stroke="red" d="M2817,-34C2829,-34 2834.25,-34 2842.88,-34"/>
<polygon fill="red" stroke="red" points="2843,-37.5 2853,-34 2843,-30.5 2843,-37.5"/>
</g>
<!-- Node0x60000073a640 -->
<g id="node25" class="node">
<title>Node0x60000073a640</title>
<polygon fill="none" stroke="black" points="2977,-9 2977,-77 3065,-77 3065,-9 2977,-9"/>
<text text-anchor="middle" x="3021" y="-66.6" font-family="Times,serif" font-size="8.00">word: vowel</text>
<polyline fill="none" stroke="black" points="2977,-60 3065,-60 "/>
<text text-anchor="middle" x="3021" y="-49.6" font-family="Times,serif" font-size="8.00">size: 1</text>
<polyline fill="none" stroke="black" points="2977,-43 3065,-43 "/>
<text text-anchor="middle" x="3021" y="-32.6" font-family="Times,serif" font-size="8.00">next: 0x60000073b780</text>
<polyline fill="none" stroke="black" points="2977,-26 3065,-26 "/>
<text text-anchor="middle" x="3021" y="-15.6" font-family="Times,serif" font-size="8.00">prev: 0x6000007365b0</text>
</g>
<!-- Node0x6000007365b0&#45;&gt;Node0x60000073a640 -->
<g id="edge24" class="edge">
<title>Node0x6000007365b0:n&#45;&gt;Node0x60000073a640:n</title>
<path fill="none" stroke="red" d="M2941,-34C2953,-34 2958.25,-34 2966.88,-34"/>
<polygon fill="red" stroke="red" points="2967,-37.5 2977,-34 2967,-30.5 2967,-37.5"/>
</g>
<!-- Node0x60000073b780 -->
<g id="node26" class="node">
<title>Node0x60000073b780</title>
<polygon fill="none" stroke="black" points="3101,-9 3101,-77 3189,-77 3189,-9 3101,-9"/>
<text text-anchor="middle" x="3145" y="-66.6" font-family="Times,serif" font-size="8.00">word: wounds</text>
<polyline fill="none" stroke="black" points="3101,-60 3189,-60 "/>
<text text-anchor="middle" x="3145" y="-49.6" font-family="Times,serif" font-size="8.00">size: 1</text>
<polyline fill="none" stroke="black" points="3101,-43 3189,-43 "/>
<text text-anchor="middle" x="3145" y="-32.6" font-family="Times,serif" font-size="8.00">next: 0x60000073c060</text>
<polyline fill="none" stroke="black" points="3101,-26 3189,-26 "/>
<text text-anchor="middle" x="3145" y="-15.6" font-family="Times,serif" font-size="8.00">prev: 0x60000073a640</text>
</g>
<!-- Node0x60000073a640&#45;&gt;Node0x60000073b780 -->
<g id="edge25" class="edge">
<title>Node0x60000073a640:n&#45;&gt;Node0x60000073b780:n</title>
<path fill="none" stroke="red" d="M3065,-34C3077,-34 3082.25,-34 3090.88,-34"/>
<polygon fill="red" stroke="red" points="3091,-37.5 3101,-34 3091,-30.5 3091,-37.5"/>
</g>
<!-- Node0x60000073c060 -->
<g id="node27" class="node">
<title>Node0x60000073c060</title>
<polygon fill="none" stroke="black" points="3225,-9 3225,-77 3313,-77 3313,-9 3225,-9"/>
<text text-anchor="middle" x="3269" y="-66.6" font-family="Times,serif" font-size="8.00">word: free</text>
<polyline fill="none" stroke="black" points="3225,-60 3313,-60 "/>
<text text-anchor="middle" x="3269" y="-49.6" font-family="Times,serif" font-size="8.00">size: 2</text>
<polyline fill="none" stroke="black" points="3225,-43 3313,-43 "/>
<text text-anchor="middle" x="3269" y="-32.6" font-family="Times,serif" font-size="8.00">next: 0x60000073f270</text>
<polyline fill="none" stroke="black" points="3225,-26 3313,-26 "/>
<text text-anchor="middle" x="3269" y="-15.6" font-family="Times,serif" font-size="8.00">prev: 0x60000073b780</text>
</g>
<!-- Node0x60000073b780&#45;&gt;Node0x60000073c060 -->
<g id="edge26" class="edge">
<title>Node0x60000073b780:n&#45;&gt;Node0x60000073c060:n</title>
<path fill="none" stroke="red" d="M3189,-34C3201,-34 3206.25,-34 3214.88,-34"/>
<polygon fill="red" stroke="red" points="3215,-37.5 3225,-34 3215,-30.5 3215,-37.5"/>
</g>
<!-- Node0x60000073f270 -->
<g id="node28" class="node">
<title>Node0x60000073f270</title>
<polygon fill="none" stroke="black" points="3349,-9 3349,-77 3437,-77 3437,-9 3349,-9"/>
<text text-anchor="middle" x="3393" y="-66.6" font-family="Times,serif" font-size="8.00">word: hurdle</text>
<polyline fill="none" stroke="black" points="3349,-60 3437,-60 "/>
<text text-anchor="middle" x="3393" y="-49.6" font-family="Times,serif" font-size="8.00">size: 1</text>
<polyline fill="none" stroke="black" points="3349,-43 3437,-43 "/>
<text text-anchor="middle" x="3393" y="-32.6" font-family="Times,serif" font-size="8.00">next: 0x6000007203c0</text>
<polyline fill="none" stroke="black" points="3349,-26 3437,-26 "/>
<text text-anchor="middle" x="3393" y="-15.6" font-family="Times,serif" font-size="8.00">prev: 0x60000073c060</text>
</g>
<!-- Node0x60000073c060&#45;&gt;Node0x60000073f270 -->
<g id="edge27" class="edge">
<title>Node0x60000073c060:n&#45;&gt;Node0x60000073f270:n</title>
<path fill="none" stroke="red" d="M3313,-34C3325,-34 3330.25,-34 3338.88,-34"/>
<polygon fill="red" stroke="red" points="3339,-37.5 3349,-34 3339,-30.5 3339,-37.5"/>
</g>
<!-- Node0x6000007203c0 -->
<g id="node29" class="node">
<title>Node0x6000007203c0</title>
<polygon fill="none" stroke="black" points="3473,-9 3473,-77 3560,-77 3560,-9 3473,-9"/>
<text text-anchor="middle" x="3516.5" y="-66.6" font-family="Times,serif" font-size="8.00">word: report</text>
<polyline fill="none" stroke="black" points="3473,-60 3560,-60 "/>
<text text-anchor="middle" x="3516.5" y="-49.6" font-family="Times,serif" font-size="8.00">size: 1</text>
<polyline fill="none" stroke="black" points="3473,-43 3560,-43 "/>
<text text-anchor="middle" x="3516.5" y="-32.6" font-family="Times,serif" font-size="8.00">next: 0x600000721d40</text>
<polyline fill="none" stroke="black" points="3473,-26 3560,-26 "/>
<text text-anchor="middle" x="3516.5" y="-15.6" font-family="Times,serif" font-size="8.00">prev: 0x60000073f270</text>
</g>
<!-- Node0x60000073f270&#45;&gt;Node0x6000007203c0 -->
<g id="edge28" class="edge">
<title>Node0x60000073f270:n&#45;&gt;Node0x6000007203c0:n</title>
<path fill="none" stroke="red" d="M3437,-34C3449,-34 3454.25,-34 3462.88,-34"/>
<polygon fill="red" stroke="red" points="3463,-37.5 3473,-34 3463,-30.5 3463,-37.5"/>
</g>
<!-- Node0x600000721d40 -->
<g id="node30" class="node">
<title>Node0x600000721d40</title>
<polygon fill="none" stroke="black" points="3596,-9 3596,-77 3684,-77 3684,-9 3596,-9"/>
<text text-anchor="middle" x="3640" y="-66.6" font-family="Times,serif" font-size="8.00">word: Seeking</text>
<polyline fill="none" stroke="black" points="3596,-60 3684,-60 "/>
<text text-anchor="middle" x="3640" y="-49.6" font-family="Times,serif" font-size="8.00">size: 1</text>
<polyline fill="none" stroke="black" points="3596,-43 3684,-43 "/>
<text text-anchor="middle" x="3640" y="-32.6" font-family="Times,serif" font-size="8.00">next: 0x60000070a730</text>
<polyline fill="none" stroke="black" points="3596,-26 3684,-26 "/>
<text text-anchor="middle" x="3640" y="-15.6" font-family="Times,serif" font-size="8.00">prev: 0x6000007203c0</text>
</g>
<!-- Node0x6000007203c0&#45;&gt;Node0x600000721d40 -->
<g id="edge29" class="edge">
<title>Node0x6000007203c0:n&#45;&gt;Node0x600000721d40:n</title>
<path fill="none" stroke="red" d="M3560,-34C3572,-34 3577.25,-34 3585.88,-34"/>
<polygon fill="red" stroke="red" points="3586,-37.5 3596,-34 3586,-30.5 3586,-37.5"/>
</g>
<!-- Node0x60000070a730 -->
<g id="node31" class="node">
<title>Node0x60000070a730</title>
<polygon fill="none" stroke="black" points="3720,-9 3720,-77 3808,-77 3808,-9 3720,-9"/>
<text text-anchor="middle" x="3764" y="-66.6" font-family="Times,serif" font-size="8.00">word: Most</text>
<polyline fill="none" stroke="black" points="3720,-60 3808,-60 "/>
<text text-anchor="middle" x="3764" y="-49.6" font-family="Times,serif" font-size="8.00">size: 3</text>
<polyline fill="none" stroke="black" points="3720,-43 3808,-43 "/>
<text text-anchor="middle" x="3764" y="-32.6" font-family="Times,serif" font-size="8.00">next: 0x0</text>
<polyline fill="none" stroke="black" points="3720,-26 3808,-26 "/>
<text text-anchor="middle" x="3764" y="-15.6" font-family="Times,serif" font-size="8.00">prev: 0x600000721d40</text>
</g>
<!-- Node0x600000721d40&#45;&gt;Node0x60000070a730 -->
<g id="edge30" class="edge">
<title>Node0x600000721d40:n&#45;&gt;Node0x60000070a730:n</title>
<path fill="none" stroke="red" d="M3684,-34C3696,-34 3701.25,-34 3709.88,-34"/>
<polygon fill="red" stroke="red" points="3710,-37.5 3720,-34 3710,-30.5 3710,-37.5"/>
</g>
</g>
</svg>
