<?xml version="1.0" encoding="UTF-8" standalone="no"?>
<!DOCTYPE svg PUBLIC "-//W3C//DTD SVG 1.1//EN"
 "http://www.w3.org/Graphics/SVG/1.1/DTD/svg11.dtd">
<!-- Generated by graphviz version 2.50.0 (20211204.2007)
 -->
<!-- Title: G Pages: 1 -->
<svg width="4325pt" height="117pt"
 viewBox="0.00 0.00 4325.00 117.00" xmlns="http://www.w3.org/2000/svg" xmlns:xlink="http://www.w3.org/1999/xlink">
<g id="graph0" class="graph" transform="scale(1 1) rotate(0) translate(4 113)">
<title>G</title>
<polygon fill="white" stroke="transparent" points="-4,4 -4,-113 4321,-113 4321,4 -4,4"/>
<g id="clust32" class="cluster">
<title>cluster1874</title>
<polygon fill="none" stroke="black" points="3849,-8 3849,-101 3937,-101 3937,-8 3849,-8"/>
<text text-anchor="middle" x="3893" y="-85.8" font-family="Times,serif" font-size="14.00">1874</text>
</g>
<g id="clust33" class="cluster">
<title>cluster1875</title>
<polygon fill="none" stroke="black" points="3973,-8 3973,-101 4061,-101 4061,-8 3973,-8"/>
<text text-anchor="middle" x="4017" y="-85.8" font-family="Times,serif" font-size="14.00">1875</text>
</g>
<g id="clust34" class="cluster">
<title>cluster1876</title>
<polygon fill="none" stroke="black" points="4097,-8 4097,-101 4185,-101 4185,-8 4097,-8"/>
<text text-anchor="middle" x="4141" y="-85.8" font-family="Times,serif" font-size="14.00">1876</text>
</g>
<g id="clust35" class="cluster">
<title>cluster1877</title>
<polygon fill="none" stroke="black" points="4221,-8 4221,-101 4309,-101 4309,-8 4221,-8"/>
<text text-anchor="middle" x="4265" y="-85.8" font-family="Times,serif" font-size="14.00">1877</text>
</g>
<g id="clust1" class="cluster">
<title>cluster1843</title>
<polygon fill="none" stroke="black" points="8,-8 8,-101 95,-101 95,-8 8,-8"/>
<text text-anchor="middle" x="51.5" y="-85.8" font-family="Times,serif" font-size="14.00">1843</text>
</g>
<g id="clust2" class="cluster">
<title>cluster1844</title>
<polygon fill="none" stroke="black" points="131,-8 131,-101 219,-101 219,-8 131,-8"/>
<text text-anchor="middle" x="175" y="-85.8" font-family="Times,serif" font-size="14.00">1844</text>
</g>
<g id="clust3" class="cluster">
<title>cluster1845</title>
<polygon fill="none" stroke="black" points="255,-8 255,-101 343,-101 343,-8 255,-8"/>
<text text-anchor="middle" x="299" y="-85.8" font-family="Times,serif" font-size="14.00">1845</text>
</g>
<g id="clust4" class="cluster">
<title>cluster1846</title>
<polygon fill="none" stroke="black" points="379,-8 379,-101 467,-101 467,-8 379,-8"/>
<text text-anchor="middle" x="423" y="-85.8" font-family="Times,serif" font-size="14.00">1846</text>
</g>
<g id="clust5" class="cluster">
<title>cluster1847</title>
<polygon fill="none" stroke="black" points="503,-8 503,-101 591,-101 591,-8 503,-8"/>
<text text-anchor="middle" x="547" y="-85.8" font-family="Times,serif" font-size="14.00">1847</text>
</g>
<g id="clust6" class="cluster">
<title>cluster1848</title>
<polygon fill="none" stroke="black" points="627,-8 627,-101 715,-101 715,-8 627,-8"/>
<text text-anchor="middle" x="671" y="-85.8" font-family="Times,serif" font-size="14.00">1848</text>
</g>
<g id="clust7" class="cluster">
<title>cluster1849</title>
<polygon fill="none" stroke="black" points="751,-8 751,-101 839,-101 839,-8 751,-8"/>
<text text-anchor="middle" x="795" y="-85.8" font-family="Times,serif" font-size="14.00">1849</text>
</g>
<g id="clust8" class="cluster">
<title>cluster1850</title>
<polygon fill="none" stroke="black" points="875,-8 875,-101 962,-101 962,-8 875,-8"/>
<text text-anchor="middle" x="918.5" y="-85.8" font-family="Times,serif" font-size="14.00">1850</text>
</g>
<g id="clust9" class="cluster">
<title>cluster1851</title>
<polygon fill="none" stroke="black" points="998,-8 998,-101 1086,-101 1086,-8 998,-8"/>
<text text-anchor="middle" x="1042" y="-85.8" font-family="Times,serif" font-size="14.00">1851</text>
</g>
<g id="clust10" class="cluster">
<title>cluster1852</title>
<polygon fill="none" stroke="black" points="1122,-8 1122,-101 1210,-101 1210,-8 1122,-8"/>
<text text-anchor="middle" x="1166" y="-85.8" font-family="Times,serif" font-size="14.00">1852</text>
</g>
<g id="clust11" class="cluster">
<title>cluster1853</title>
<polygon fill="none" stroke="black" points="1246,-8 1246,-101 1334,-101 1334,-8 1246,-8"/>
<text text-anchor="middle" x="1290" y="-85.8" font-family="Times,serif" font-size="14.00">1853</text>
</g>
<g id="clust12" class="cluster">
<title>cluster1854</title>
<polygon fill="none" stroke="black" points="1370,-8 1370,-101 1458,-101 1458,-8 1370,-8"/>
<text text-anchor="middle" x="1414" y="-85.8" font-family="Times,serif" font-size="14.00">1854</text>
</g>
<g id="clust13" class="cluster">
<title>cluster1855</title>
<polygon fill="none" stroke="black" points="1494,-8 1494,-101 1582,-101 1582,-8 1494,-8"/>
<text text-anchor="middle" x="1538" y="-85.8" font-family="Times,serif" font-size="14.00">1855</text>
</g>
<g id="clust14" class="cluster">
<title>cluster1856</title>
<polygon fill="none" stroke="black" points="1618,-8 1618,-101 1706,-101 1706,-8 1618,-8"/>
<text text-anchor="middle" x="1662" y="-85.8" font-family="Times,serif" font-size="14.00">1856</text>
</g>
<g id="clust15" class="cluster">
<title>cluster1857</title>
<polygon fill="none" stroke="black" points="1742,-8 1742,-101 1830,-101 1830,-8 1742,-8"/>
<text text-anchor="middle" x="1786" y="-85.8" font-family="Times,serif" font-size="14.00">1857</text>
</g>
<g id="clust16" class="cluster">
<title>cluster1858</title>
<polygon fill="none" stroke="black" points="1866,-8 1866,-101 1954,-101 1954,-8 1866,-8"/>
<text text-anchor="middle" x="1910" y="-85.8" font-family="Times,serif" font-size="14.00">1858</text>
</g>
<g id="clust17" class="cluster">
<title>cluster1859</title>
<polygon fill="none" stroke="black" points="1990,-8 1990,-101 2078,-101 2078,-8 1990,-8"/>
<text text-anchor="middle" x="2034" y="-85.8" font-family="Times,serif" font-size="14.00">1859</text>
</g>
<g id="clust18" class="cluster">
<title>cluster1860</title>
<polygon fill="none" stroke="black" points="2114,-8 2114,-101 2202,-101 2202,-8 2114,-8"/>
<text text-anchor="middle" x="2158" y="-85.8" font-family="Times,serif" font-size="14.00">1860</text>
</g>
<g id="clust19" class="cluster">
<title>cluster1861</title>
<polygon fill="none" stroke="black" points="2238,-8 2238,-101 2326,-101 2326,-8 2238,-8"/>
<text text-anchor="middle" x="2282" y="-85.8" font-family="Times,serif" font-size="14.00">1861</text>
</g>
<g id="clust20" class="cluster">
<title>cluster1862</title>
<polygon fill="none" stroke="black" points="2362,-8 2362,-101 2450,-101 2450,-8 2362,-8"/>
<text text-anchor="middle" x="2406" y="-85.8" font-family="Times,serif" font-size="14.00">1862</text>
</g>
<g id="clust21" class="cluster">
<title>cluster1863</title>
<polygon fill="none" stroke="black" points="2486,-8 2486,-101 2574,-101 2574,-8 2486,-8"/>
<text text-anchor="middle" x="2530" y="-85.8" font-family="Times,serif" font-size="14.00">1863</text>
</g>
<g id="clust22" class="cluster">
<title>cluster1864</title>
<polygon fill="none" stroke="black" points="2610,-8 2610,-101 2698,-101 2698,-8 2610,-8"/>
<text text-anchor="middle" x="2654" y="-85.8" font-family="Times,serif" font-size="14.00">1864</text>
</g>
<g id="clust23" class="cluster">
<title>cluster1865</title>
<polygon fill="none" stroke="black" points="2734,-8 2734,-101 2821,-101 2821,-8 2734,-8"/>
<text text-anchor="middle" x="2777.5" y="-85.8" font-family="Times,serif" font-size="14.00">1865</text>
</g>
<g id="clust24" class="cluster">
<title>cluster1866</title>
<polygon fill="none" stroke="black" points="2857,-8 2857,-101 2945,-101 2945,-8 2857,-8"/>
<text text-anchor="middle" x="2901" y="-85.8" font-family="Times,serif" font-size="14.00">1866</text>
</g>
<g id="clust25" class="cluster">
<title>cluster1867</title>
<polygon fill="none" stroke="black" points="2981,-8 2981,-101 3069,-101 3069,-8 2981,-8"/>
<text text-anchor="middle" x="3025" y="-85.8" font-family="Times,serif" font-size="14.00">1867</text>
</g>
<g id="clust26" class="cluster">
<title>cluster1868</title>
<polygon fill="none" stroke="black" points="3105,-8 3105,-101 3193,-101 3193,-8 3105,-8"/>
<text text-anchor="middle" x="3149" y="-85.8" font-family="Times,serif" font-size="14.00">1868</text>
</g>
<g id="clust27" class="cluster">
<title>cluster1869</title>
<polygon fill="none" stroke="black" points="3229,-8 3229,-101 3317,-101 3317,-8 3229,-8"/>
<text text-anchor="middle" x="3273" y="-85.8" font-family="Times,serif" font-size="14.00">1869</text>
</g>
<g id="clust28" class="cluster">
<title>cluster1870</title>
<polygon fill="none" stroke="black" points="3353,-8 3353,-101 3441,-101 3441,-8 3353,-8"/>
<text text-anchor="middle" x="3397" y="-85.8" font-family="Times,serif" font-size="14.00">1870</text>
</g>
<g id="clust29" class="cluster">
<title>cluster1871</title>
<polygon fill="none" stroke="black" points="3477,-8 3477,-101 3565,-101 3565,-8 3477,-8"/>
<text text-anchor="middle" x="3521" y="-85.8" font-family="Times,serif" font-size="14.00">1871</text>
</g>
<g id="clust30" class="cluster">
<title>cluster1872</title>
<polygon fill="none" stroke="black" points="3601,-8 3601,-101 3689,-101 3689,-8 3601,-8"/>
<text text-anchor="middle" x="3645" y="-85.8" font-family="Times,serif" font-size="14.00">1872</text>
</g>
<g id="clust31" class="cluster">
<title>cluster1873</title>
<polygon fill="none" stroke="black" points="3725,-8 3725,-101 3813,-101 3813,-8 3725,-8"/>
<text text-anchor="middle" x="3769" y="-85.8" font-family="Times,serif" font-size="14.00">1873</text>
</g>
<!-- Node0x600001e69170 -->
<g id="node1" class="node">
<title>Node0x600001e69170</title>
<polygon fill="none" stroke="black" points="8,-9 8,-77 95,-77 95,-9 8,-9"/>
<text text-anchor="middle" x="51.5" y="-66.6" font-family="Times,serif" font-size="8.00">word: subjects</text>
<polyline fill="none" stroke="black" points="8,-60 95,-60 "/>
<text text-anchor="middle" x="51.5" y="-49.6" font-family="Times,serif" font-size="8.00">size: 1</text>
<polyline fill="none" stroke="black" points="8,-43 95,-43 "/>
<text text-anchor="middle" x="51.5" y="-32.6" font-family="Times,serif" font-size="8.00">next: 0x600001e69980</text>
<polyline fill="none" stroke="black" points="8,-26 95,-26 "/>
<text text-anchor="middle" x="51.5" y="-15.6" font-family="Times,serif" font-size="8.00">prev: 0x0</text>
</g>
<!-- Node0x600001e69980 -->
<g id="node2" class="node">
<title>Node0x600001e69980</title>
<polygon fill="none" stroke="black" points="131,-9 131,-77 219,-77 219,-9 131,-9"/>
<text text-anchor="middle" x="175" y="-66.6" font-family="Times,serif" font-size="8.00">word: Cank</text>
<polyline fill="none" stroke="black" points="131,-60 219,-60 "/>
<text text-anchor="middle" x="175" y="-49.6" font-family="Times,serif" font-size="8.00">size: 1</text>
<polyline fill="none" stroke="black" points="131,-43 219,-43 "/>
<text text-anchor="middle" x="175" y="-32.6" font-family="Times,serif" font-size="8.00">next: 0x600001e6bba0</text>
<polyline fill="none" stroke="black" points="131,-26 219,-26 "/>
<text text-anchor="middle" x="175" y="-15.6" font-family="Times,serif" font-size="8.00">prev: 0x600001e69170</text>
</g>
<!-- Node0x600001e69170&#45;&gt;Node0x600001e69980 -->
<g id="edge1" class="edge">
<title>Node0x600001e69170:n&#45;&gt;Node0x600001e69980:n</title>
<path fill="none" stroke="red" d="M95,-34C107,-34 112.25,-34 120.88,-34"/>
<polygon fill="red" stroke="red" points="121,-37.5 131,-34 121,-30.5 121,-37.5"/>
</g>
<!-- Node0x600001e6bba0 -->
<g id="node3" class="node">
<title>Node0x600001e6bba0</title>
<polygon fill="none" stroke="black" points="255,-9 255,-77 343,-77 343,-9 255,-9"/>
<text text-anchor="middle" x="299" y="-66.6" font-family="Times,serif" font-size="8.00">word: worm</text>
<polyline fill="none" stroke="black" points="255,-60 343,-60 "/>
<text text-anchor="middle" x="299" y="-49.6" font-family="Times,serif" font-size="8.00">size: 2</text>
<polyline fill="none" stroke="black" points="255,-43 343,-43 "/>
<text text-anchor="middle" x="299" y="-32.6" font-family="Times,serif" font-size="8.00">next: 0x600001e6cb10</text>
<polyline fill="none" stroke="black" points="255,-26 343,-26 "/>
<text text-anchor="middle" x="299" y="-15.6" font-family="Times,serif" font-size="8.00">prev: 0x600001e69980</text>
</g>
<!-- Node0x600001e69980&#45;&gt;Node0x600001e6bba0 -->
<g id="edge2" class="edge">
<title>Node0x600001e69980:n&#45;&gt;Node0x600001e6bba0:n</title>
<path fill="none" stroke="red" d="M219,-34C231,-34 236.25,-34 244.88,-34"/>
<polygon fill="red" stroke="red" points="245,-37.5 255,-34 245,-30.5 245,-37.5"/>
</g>
<!-- Node0x600001e6cb10 -->
<g id="node4" class="node">
<title>Node0x600001e6cb10</title>
<polygon fill="none" stroke="black" points="379,-9 379,-77 467,-77 467,-9 379,-9"/>
<text text-anchor="middle" x="423" y="-66.6" font-family="Times,serif" font-size="8.00">word: smoke</text>
<polyline fill="none" stroke="black" points="379,-60 467,-60 "/>
<text text-anchor="middle" x="423" y="-49.6" font-family="Times,serif" font-size="8.00">size: 2</text>
<polyline fill="none" stroke="black" points="379,-43 467,-43 "/>
<text text-anchor="middle" x="423" y="-32.6" font-family="Times,serif" font-size="8.00">next: 0x600001e6e6a0</text>
<polyline fill="none" stroke="black" points="379,-26 467,-26 "/>
<text text-anchor="middle" x="423" y="-15.6" font-family="Times,serif" font-size="8.00">prev: 0x600001e6bba0</text>
</g>
<!-- Node0x600001e6bba0&#45;&gt;Node0x600001e6cb10 -->
<g id="edge3" class="edge">
<title>Node0x600001e6bba0:n&#45;&gt;Node0x600001e6cb10:n</title>
<path fill="none" stroke="red" d="M343,-34C355,-34 360.25,-34 368.88,-34"/>
<polygon fill="red" stroke="red" points="369,-37.5 379,-34 369,-30.5 369,-37.5"/>
</g>
<!-- Node0x600001e6e6a0 -->
<g id="node5" class="node">
<title>Node0x600001e6e6a0</title>
<polygon fill="none" stroke="black" points="503,-9 503,-77 591,-77 591,-9 503,-9"/>
<text text-anchor="middle" x="547" y="-66.6" font-family="Times,serif" font-size="8.00">word: passing</text>
<polyline fill="none" stroke="black" points="503,-60 591,-60 "/>
<text text-anchor="middle" x="547" y="-49.6" font-family="Times,serif" font-size="8.00">size: 2</text>
<polyline fill="none" stroke="black" points="503,-43 591,-43 "/>
<text text-anchor="middle" x="547" y="-32.6" font-family="Times,serif" font-size="8.00">next: 0x600001e6ec70</text>
<polyline fill="none" stroke="black" points="503,-26 591,-26 "/>
<text text-anchor="middle" x="547" y="-15.6" font-family="Times,serif" font-size="8.00">prev: 0x600001e6cb10</text>
</g>
<!-- Node0x600001e6cb10&#45;&gt;Node0x600001e6e6a0 -->
<g id="edge4" class="edge">
<title>Node0x600001e6cb10:n&#45;&gt;Node0x600001e6e6a0:n</title>
<path fill="none" stroke="red" d="M467,-34C479,-34 484.25,-34 492.88,-34"/>
<polygon fill="red" stroke="red" points="493,-37.5 503,-34 493,-30.5 493,-37.5"/>
</g>
<!-- Node0x600001e6ec70 -->
<g id="node6" class="node">
<title>Node0x600001e6ec70</title>
<polygon fill="none" stroke="black" points="627,-9 627,-77 715,-77 715,-9 627,-9"/>
<text text-anchor="middle" x="671" y="-66.6" font-family="Times,serif" font-size="8.00">word: fourteen</text>
<polyline fill="none" stroke="black" points="627,-60 715,-60 "/>
<text text-anchor="middle" x="671" y="-49.6" font-family="Times,serif" font-size="8.00">size: 6</text>
<polyline fill="none" stroke="black" points="627,-43 715,-43 "/>
<text text-anchor="middle" x="671" y="-32.6" font-family="Times,serif" font-size="8.00">next: 0x600001e6f2a0</text>
<polyline fill="none" stroke="black" points="627,-26 715,-26 "/>
<text text-anchor="middle" x="671" y="-15.6" font-family="Times,serif" font-size="8.00">prev: 0x600001e6e6a0</text>
</g>
<!-- Node0x600001e6e6a0&#45;&gt;Node0x600001e6ec70 -->
<g id="edge5" class="edge">
<title>Node0x600001e6e6a0:n&#45;&gt;Node0x600001e6ec70:n</title>
<path fill="none" stroke="red" d="M591,-34C603,-34 608.25,-34 616.88,-34"/>
<polygon fill="red" stroke="red" points="617,-37.5 627,-34 617,-30.5 617,-37.5"/>
</g>
<!-- Node0x600001e6f2a0 -->
<g id="node7" class="node">
<title>Node0x600001e6f2a0</title>
<polygon fill="none" stroke="black" points="751,-9 751,-77 839,-77 839,-9 751,-9"/>
<text text-anchor="middle" x="795" y="-66.6" font-family="Times,serif" font-size="8.00">word: One</text>
<polyline fill="none" stroke="black" points="751,-60 839,-60 "/>
<text text-anchor="middle" x="795" y="-49.6" font-family="Times,serif" font-size="8.00">size: 12</text>
<polyline fill="none" stroke="black" points="751,-43 839,-43 "/>
<text text-anchor="middle" x="795" y="-32.6" font-family="Times,serif" font-size="8.00">next: 0x600001e70090</text>
<polyline fill="none" stroke="black" points="751,-26 839,-26 "/>
<text text-anchor="middle" x="795" y="-15.6" font-family="Times,serif" font-size="8.00">prev: 0x600001e6ec70</text>
</g>
<!-- Node0x600001e6ec70&#45;&gt;Node0x600001e6f2a0 -->
<g id="edge6" class="edge">
<title>Node0x600001e6ec70:n&#45;&gt;Node0x600001e6f2a0:n</title>
<path fill="none" stroke="red" d="M715,-34C727,-34 732.25,-34 740.88,-34"/>
<polygon fill="red" stroke="red" points="741,-37.5 751,-34 741,-30.5 741,-37.5"/>
</g>
<!-- Node0x600001e70090 -->
<g id="node8" class="node">
<title>Node0x600001e70090</title>
<polygon fill="none" stroke="black" points="875,-9 875,-77 962,-77 962,-9 875,-9"/>
<text text-anchor="middle" x="918.5" y="-66.6" font-family="Times,serif" font-size="8.00">word: lessoned</text>
<polyline fill="none" stroke="black" points="875,-60 962,-60 "/>
<text text-anchor="middle" x="918.5" y="-49.6" font-family="Times,serif" font-size="8.00">size: 1</text>
<polyline fill="none" stroke="black" points="875,-43 962,-43 "/>
<text text-anchor="middle" x="918.5" y="-32.6" font-family="Times,serif" font-size="8.00">next: 0x600001e700c0</text>
<polyline fill="none" stroke="black" points="875,-26 962,-26 "/>
<text text-anchor="middle" x="918.5" y="-15.6" font-family="Times,serif" font-size="8.00">prev: 0x600001e6f2a0</text>
</g>
<!-- Node0x600001e6f2a0&#45;&gt;Node0x600001e70090 -->
<g id="edge7" class="edge">
<title>Node0x600001e6f2a0:n&#45;&gt;Node0x600001e70090:n</title>
<path fill="none" stroke="red" d="M839,-34C851,-34 856.25,-34 864.88,-34"/>
<polygon fill="red" stroke="red" points="865,-37.5 875,-34 865,-30.5 865,-37.5"/>
</g>
<!-- Node0x600001e700c0 -->
<g id="node9" class="node">
<title>Node0x600001e700c0</title>
<polygon fill="none" stroke="black" points="998,-9 998,-77 1086,-77 1086,-9 998,-9"/>
<text text-anchor="middle" x="1042" y="-66.6" font-family="Times,serif" font-size="8.00">word: anguish</text>
<polyline fill="none" stroke="black" points="998,-60 1086,-60 "/>
<text text-anchor="middle" x="1042" y="-49.6" font-family="Times,serif" font-size="8.00">size: 1</text>
<polyline fill="none" stroke="black" points="998,-43 1086,-43 "/>
<text text-anchor="middle" x="1042" y="-32.6" font-family="Times,serif" font-size="8.00">next: 0x600001e706c0</text>
<polyline fill="none" stroke="black" points="998,-26 1086,-26 "/>
<text text-anchor="middle" x="1042" y="-15.6" font-family="Times,serif" font-size="8.00">prev: 0x600001e70090</text>
</g>
<!-- Node0x600001e70090&#45;&gt;Node0x600001e700c0 -->
<g id="edge8" class="edge">
<title>Node0x600001e70090:n&#45;&gt;Node0x600001e700c0:n</title>
<path fill="none" stroke="red" d="M962,-34C974,-34 979.25,-34 987.88,-34"/>
<polygon fill="red" stroke="red" points="988,-37.5 998,-34 988,-30.5 988,-37.5"/>
</g>
<!-- Node0x600001e706c0 -->
<g id="node10" class="node">
<title>Node0x600001e706c0</title>
<polygon fill="none" stroke="black" points="1122,-9 1122,-77 1210,-77 1210,-9 1122,-9"/>
<text text-anchor="middle" x="1166" y="-66.6" font-family="Times,serif" font-size="8.00">word: Perhaps</text>
<polyline fill="none" stroke="black" points="1122,-60 1210,-60 "/>
<text text-anchor="middle" x="1166" y="-49.6" font-family="Times,serif" font-size="8.00">size: 1</text>
<polyline fill="none" stroke="black" points="1122,-43 1210,-43 "/>
<text text-anchor="middle" x="1166" y="-32.6" font-family="Times,serif" font-size="8.00">next: 0x600001e644e0</text>
<polyline fill="none" stroke="black" points="1122,-26 1210,-26 "/>
<text text-anchor="middle" x="1166" y="-15.6" font-family="Times,serif" font-size="8.00">prev: 0x600001e700c0</text>
</g>
<!-- Node0x600001e700c0&#45;&gt;Node0x600001e706c0 -->
<g id="edge9" class="edge">
<title>Node0x600001e700c0:n&#45;&gt;Node0x600001e706c0:n</title>
<path fill="none" stroke="red" d="M1086,-34C1098,-34 1103.25,-34 1111.88,-34"/>
<polygon fill="red" stroke="red" points="1112,-37.5 1122,-34 1112,-30.5 1112,-37.5"/>
</g>
<!-- Node0x600001e644e0 -->
<g id="node11" class="node">
<title>Node0x600001e644e0</title>
<polygon fill="none" stroke="black" points="1246,-9 1246,-77 1334,-77 1334,-9 1246,-9"/>
<text text-anchor="middle" x="1290" y="-66.6" font-family="Times,serif" font-size="8.00">word: match</text>
<polyline fill="none" stroke="black" points="1246,-60 1334,-60 "/>
<text text-anchor="middle" x="1290" y="-49.6" font-family="Times,serif" font-size="8.00">size: 6</text>
<polyline fill="none" stroke="black" points="1246,-43 1334,-43 "/>
<text text-anchor="middle" x="1290" y="-32.6" font-family="Times,serif" font-size="8.00">next: 0x600001e65170</text>
<polyline fill="none" stroke="black" points="1246,-26 1334,-26 "/>
<text text-anchor="middle" x="1290" y="-15.6" font-family="Times,serif" font-size="8.00">prev: 0x600001e706c0</text>
</g>
<!-- Node0x600001e706c0&#45;&gt;Node0x600001e644e0 -->
<g id="edge10" class="edge">
<title>Node0x600001e706c0:n&#45;&gt;Node0x600001e644e0:n</title>
<path fill="none" stroke="red" d="M1210,-34C1222,-34 1227.25,-34 1235.88,-34"/>
<polygon fill="red" stroke="red" points="1236,-37.5 1246,-34 1236,-30.5 1236,-37.5"/>
</g>
<!-- Node0x600001e65170 -->
<g id="node12" class="node">
<title>Node0x600001e65170</title>
<polygon fill="none" stroke="black" points="1370,-9 1370,-77 1458,-77 1458,-9 1370,-9"/>
<text text-anchor="middle" x="1414" y="-66.6" font-family="Times,serif" font-size="8.00">word: tetchy</text>
<polyline fill="none" stroke="black" points="1370,-60 1458,-60 "/>
<text text-anchor="middle" x="1414" y="-49.6" font-family="Times,serif" font-size="8.00">size: 1</text>
<polyline fill="none" stroke="black" points="1370,-43 1458,-43 "/>
<text text-anchor="middle" x="1414" y="-32.6" font-family="Times,serif" font-size="8.00">next: 0x600001e65950</text>
<polyline fill="none" stroke="black" points="1370,-26 1458,-26 "/>
<text text-anchor="middle" x="1414" y="-15.6" font-family="Times,serif" font-size="8.00">prev: 0x600001e644e0</text>
</g>
<!-- Node0x600001e644e0&#45;&gt;Node0x600001e65170 -->
<g id="edge11" class="edge">
<title>Node0x600001e644e0:n&#45;&gt;Node0x600001e65170:n</title>
<path fill="none" stroke="red" d="M1334,-34C1346,-34 1351.25,-34 1359.88,-34"/>
<polygon fill="red" stroke="red" points="1360,-37.5 1370,-34 1360,-30.5 1360,-37.5"/>
</g>
<!-- Node0x600001e65950 -->
<g id="node13" class="node">
<title>Node0x600001e65950</title>
<polygon fill="none" stroke="black" points="1494,-9 1494,-77 1582,-77 1582,-9 1494,-9"/>
<text text-anchor="middle" x="1538" y="-66.6" font-family="Times,serif" font-size="8.00">word: bitterly</text>
<polyline fill="none" stroke="black" points="1494,-60 1582,-60 "/>
<text text-anchor="middle" x="1538" y="-49.6" font-family="Times,serif" font-size="8.00">size: 2</text>
<polyline fill="none" stroke="black" points="1494,-43 1582,-43 "/>
<text text-anchor="middle" x="1538" y="-32.6" font-family="Times,serif" font-size="8.00">next: 0x600001e675a0</text>
<polyline fill="none" stroke="black" points="1494,-26 1582,-26 "/>
<text text-anchor="middle" x="1538" y="-15.6" font-family="Times,serif" font-size="8.00">prev: 0x600001e65170</text>
</g>
<!-- Node0x600001e65170&#45;&gt;Node0x600001e65950 -->
<g id="edge12" class="edge">
<title>Node0x600001e65170:n&#45;&gt;Node0x600001e65950:n</title>
<path fill="none" stroke="red" d="M1458,-34C1470,-34 1475.25,-34 1483.88,-34"/>
<polygon fill="red" stroke="red" points="1484,-37.5 1494,-34 1484,-30.5 1484,-37.5"/>
</g>
<!-- Node0x600001e675a0 -->
<g id="node14" class="node">
<title>Node0x600001e675a0</title>
<polygon fill="none" stroke="black" points="1618,-9 1618,-77 1706,-77 1706,-9 1618,-9"/>
<text text-anchor="middle" x="1662" y="-66.6" font-family="Times,serif" font-size="8.00">word: sooner</text>
<polyline fill="none" stroke="black" points="1618,-60 1706,-60 "/>
<text text-anchor="middle" x="1662" y="-49.6" font-family="Times,serif" font-size="8.00">size: 1</text>
<polyline fill="none" stroke="black" points="1618,-43 1706,-43 "/>
<text text-anchor="middle" x="1662" y="-32.6" font-family="Times,serif" font-size="8.00">next: 0x600001e67660</text>
<polyline fill="none" stroke="black" points="1618,-26 1706,-26 "/>
<text text-anchor="middle" x="1662" y="-15.6" font-family="Times,serif" font-size="8.00">prev: 0x600001e65950</text>
</g>
<!-- Node0x600001e65950&#45;&gt;Node0x600001e675a0 -->
<g id="edge13" class="edge">
<title>Node0x600001e65950:n&#45;&gt;Node0x600001e675a0:n</title>
<path fill="none" stroke="red" d="M1582,-34C1594,-34 1599.25,-34 1607.88,-34"/>
<polygon fill="red" stroke="red" points="1608,-37.5 1618,-34 1608,-30.5 1608,-37.5"/>
</g>
<!-- Node0x600001e67660 -->
<g id="node15" class="node">
<title>Node0x600001e67660</title>
<polygon fill="none" stroke="black" points="1742,-9 1742,-77 1830,-77 1830,-9 1742,-9"/>
<text text-anchor="middle" x="1786" y="-66.6" font-family="Times,serif" font-size="8.00">word: Tickle</text>
<polyline fill="none" stroke="black" points="1742,-60 1830,-60 "/>
<text text-anchor="middle" x="1786" y="-49.6" font-family="Times,serif" font-size="8.00">size: 1</text>
<polyline fill="none" stroke="black" points="1742,-43 1830,-43 "/>
<text text-anchor="middle" x="1786" y="-32.6" font-family="Times,serif" font-size="8.00">next: 0x600001e67ab0</text>
<polyline fill="none" stroke="black" points="1742,-26 1830,-26 "/>
<text text-anchor="middle" x="1786" y="-15.6" font-family="Times,serif" font-size="8.00">prev: 0x600001e675a0</text>
</g>
<!-- Node0x600001e675a0&#45;&gt;Node0x600001e67660 -->
<g id="edge14" class="edge">
<title>Node0x600001e675a0:n&#45;&gt;Node0x600001e67660:n</title>
<path fill="none" stroke="red" d="M1706,-34C1718,-34 1723.25,-34 1731.88,-34"/>
<polygon fill="red" stroke="red" points="1732,-37.5 1742,-34 1732,-30.5 1732,-37.5"/>
</g>
<!-- Node0x600001e67ab0 -->
<g id="node16" class="node">
<title>Node0x600001e67ab0</title>
<polygon fill="none" stroke="black" points="1866,-9 1866,-77 1954,-77 1954,-9 1866,-9"/>
<text text-anchor="middle" x="1910" y="-66.6" font-family="Times,serif" font-size="8.00">word: lamps</text>
<polyline fill="none" stroke="black" points="1866,-60 1954,-60 "/>
<text text-anchor="middle" x="1910" y="-49.6" font-family="Times,serif" font-size="8.00">size: 1</text>
<polyline fill="none" stroke="black" points="1866,-43 1954,-43 "/>
<text text-anchor="middle" x="1910" y="-32.6" font-family="Times,serif" font-size="8.00">next: 0x600001e74270</text>
<polyline fill="none" stroke="black" points="1866,-26 1954,-26 "/>
<text text-anchor="middle" x="1910" y="-15.6" font-family="Times,serif" font-size="8.00">prev: 0x600001e67660</text>
</g>
<!-- Node0x600001e67660&#45;&gt;Node0x600001e67ab0 -->
<g id="edge15" class="edge">
<title>Node0x600001e67660:n&#45;&gt;Node0x600001e67ab0:n</title>
<path fill="none" stroke="red" d="M1830,-34C1842,-34 1847.25,-34 1855.88,-34"/>
<polygon fill="red" stroke="red" points="1856,-37.5 1866,-34 1856,-30.5 1856,-37.5"/>
</g>
<!-- Node0x600001e74270 -->
<g id="node17" class="node">
<title>Node0x600001e74270</title>
<polygon fill="none" stroke="black" points="1990,-9 1990,-77 2078,-77 2078,-9 1990,-9"/>
<text text-anchor="middle" x="2034" y="-66.6" font-family="Times,serif" font-size="8.00">word: cricket</text>
<polyline fill="none" stroke="black" points="1990,-60 2078,-60 "/>
<text text-anchor="middle" x="2034" y="-49.6" font-family="Times,serif" font-size="8.00">size: 1</text>
<polyline fill="none" stroke="black" points="1990,-43 2078,-43 "/>
<text text-anchor="middle" x="2034" y="-32.6" font-family="Times,serif" font-size="8.00">next: 0x600001e7c1b0</text>
<polyline fill="none" stroke="black" points="1990,-26 2078,-26 "/>
<text text-anchor="middle" x="2034" y="-15.6" font-family="Times,serif" font-size="8.00">prev: 0x600001e67ab0</text>
</g>
<!-- Node0x600001e67ab0&#45;&gt;Node0x600001e74270 -->
<g id="edge16" class="edge">
<title>Node0x600001e67ab0:n&#45;&gt;Node0x600001e74270:n</title>
<path fill="none" stroke="red" d="M1954,-34C1966,-34 1971.25,-34 1979.88,-34"/>
<polygon fill="red" stroke="red" points="1980,-37.5 1990,-34 1980,-30.5 1980,-37.5"/>
</g>
<!-- Node0x600001e7c1b0 -->
<g id="node18" class="node">
<title>Node0x600001e7c1b0</title>
<polygon fill="none" stroke="black" points="2114,-9 2114,-77 2202,-77 2202,-9 2114,-9"/>
<text text-anchor="middle" x="2158" y="-66.6" font-family="Times,serif" font-size="8.00">word: Cophetua</text>
<polyline fill="none" stroke="black" points="2114,-60 2202,-60 "/>
<text text-anchor="middle" x="2158" y="-49.6" font-family="Times,serif" font-size="8.00">size: 1</text>
<polyline fill="none" stroke="black" points="2114,-43 2202,-43 "/>
<text text-anchor="middle" x="2158" y="-32.6" font-family="Times,serif" font-size="8.00">next: 0x600001e7cde0</text>
<polyline fill="none" stroke="black" points="2114,-26 2202,-26 "/>
<text text-anchor="middle" x="2158" y="-15.6" font-family="Times,serif" font-size="8.00">prev: 0x600001e74270</text>
</g>
<!-- Node0x600001e74270&#45;&gt;Node0x600001e7c1b0 -->
<g id="edge17" class="edge">
<title>Node0x600001e74270:n&#45;&gt;Node0x600001e7c1b0:n</title>
<path fill="none" stroke="red" d="M2078,-34C2090,-34 2095.25,-34 2103.88,-34"/>
<polygon fill="red" stroke="red" points="2104,-37.5 2114,-34 2104,-30.5 2104,-37.5"/>
</g>
<!-- Node0x600001e7cde0 -->
<g id="node19" class="node">
<title>Node0x600001e7cde0</title>
<polygon fill="none" stroke="black" points="2238,-9 2238,-77 2326,-77 2326,-9 2238,-9"/>
<text text-anchor="middle" x="2282" y="-66.6" font-family="Times,serif" font-size="8.00">word: Having</text>
<polyline fill="none" stroke="black" points="2238,-60 2326,-60 "/>
<text text-anchor="middle" x="2282" y="-49.6" font-family="Times,serif" font-size="8.00">size: 2</text>
<polyline fill="none" stroke="black" points="2238,-43 2326,-43 "/>
<text text-anchor="middle" x="2282" y="-32.6" font-family="Times,serif" font-size="8.00">next: 0x600001e7d440</text>
<polyline fill="none" stroke="black" points="2238,-26 2326,-26 "/>
<text text-anchor="middle" x="2282" y="-15.6" font-family="Times,serif" font-size="8.00">prev: 0x600001e7c1b0</text>
</g>
<!-- Node0x600001e7c1b0&#45;&gt;Node0x600001e7cde0 -->
<g id="edge18" class="edge">
<title>Node0x600001e7c1b0:n&#45;&gt;Node0x600001e7cde0:n</title>
<path fill="none" stroke="red" d="M2202,-34C2214,-34 2219.25,-34 2227.88,-34"/>
<polygon fill="red" stroke="red" points="2228,-37.5 2238,-34 2228,-30.5 2228,-37.5"/>
</g>
<!-- Node0x600001e7d440 -->
<g id="node20" class="node">
<title>Node0x600001e7d440</title>
<polygon fill="none" stroke="black" points="2362,-9 2362,-77 2450,-77 2450,-9 2362,-9"/>
<text text-anchor="middle" x="2406" y="-66.6" font-family="Times,serif" font-size="8.00">word: Belonging</text>
<polyline fill="none" stroke="black" points="2362,-60 2450,-60 "/>
<text text-anchor="middle" x="2406" y="-49.6" font-family="Times,serif" font-size="8.00">size: 1</text>
<polyline fill="none" stroke="black" points="2362,-43 2450,-43 "/>
<text text-anchor="middle" x="2406" y="-32.6" font-family="Times,serif" font-size="8.00">next: 0x600001e7e520</text>
<polyline fill="none" stroke="black" points="2362,-26 2450,-26 "/>
<text text-anchor="middle" x="2406" y="-15.6" font-family="Times,serif" font-size="8.00">prev: 0x600001e7cde0</text>
</g>
<!-- Node0x600001e7cde0&#45;&gt;Node0x600001e7d440 -->
<g id="edge19" class="edge">
<title>Node0x600001e7cde0:n&#45;&gt;Node0x600001e7d440:n</title>
<path fill="none" stroke="red" d="M2326,-34C2338,-34 2343.25,-34 2351.88,-34"/>
<polygon fill="red" stroke="red" points="2352,-37.5 2362,-34 2352,-30.5 2352,-37.5"/>
</g>
<!-- Node0x600001e7e520 -->
<g id="node21" class="node">
<title>Node0x600001e7e520</title>
<polygon fill="none" stroke="black" points="2486,-9 2486,-77 2574,-77 2574,-9 2486,-9"/>
<text text-anchor="middle" x="2530" y="-66.6" font-family="Times,serif" font-size="8.00">word: gracious</text>
<polyline fill="none" stroke="black" points="2486,-60 2574,-60 "/>
<text text-anchor="middle" x="2530" y="-49.6" font-family="Times,serif" font-size="8.00">size: 1</text>
<polyline fill="none" stroke="black" points="2486,-43 2574,-43 "/>
<text text-anchor="middle" x="2530" y="-32.6" font-family="Times,serif" font-size="8.00">next: 0x600001e7fe40</text>
<polyline fill="none" stroke="black" points="2486,-26 2574,-26 "/>
<text text-anchor="middle" x="2530" y="-15.6" font-family="Times,serif" font-size="8.00">prev: 0x600001e7d440</text>
</g>
<!-- Node0x600001e7d440&#45;&gt;Node0x600001e7e520 -->
<g id="edge20" class="edge">
<title>Node0x600001e7d440:n&#45;&gt;Node0x600001e7e520:n</title>
<path fill="none" stroke="red" d="M2450,-34C2462,-34 2467.25,-34 2475.88,-34"/>
<polygon fill="red" stroke="red" points="2476,-37.5 2486,-34 2476,-30.5 2476,-37.5"/>
</g>
<!-- Node0x600001e7fe40 -->
<g id="node22" class="node">
<title>Node0x600001e7fe40</title>
<polygon fill="none" stroke="black" points="2610,-9 2610,-77 2698,-77 2698,-9 2610,-9"/>
<text text-anchor="middle" x="2654" y="-66.6" font-family="Times,serif" font-size="8.00">word: mickle</text>
<polyline fill="none" stroke="black" points="2610,-60 2698,-60 "/>
<text text-anchor="middle" x="2654" y="-49.6" font-family="Times,serif" font-size="8.00">size: 1</text>
<polyline fill="none" stroke="black" points="2610,-43 2698,-43 "/>
<text text-anchor="middle" x="2654" y="-32.6" font-family="Times,serif" font-size="8.00">next: 0x600001e41560</text>
<polyline fill="none" stroke="black" points="2610,-26 2698,-26 "/>
<text text-anchor="middle" x="2654" y="-15.6" font-family="Times,serif" font-size="8.00">prev: 0x600001e7e520</text>
</g>
<!-- Node0x600001e7e520&#45;&gt;Node0x600001e7fe40 -->
<g id="edge21" class="edge">
<title>Node0x600001e7e520:n&#45;&gt;Node0x600001e7fe40:n</title>
<path fill="none" stroke="red" d="M2574,-34C2586,-34 2591.25,-34 2599.88,-34"/>
<polygon fill="red" stroke="red" points="2600,-37.5 2610,-34 2600,-30.5 2600,-37.5"/>
</g>
<!-- Node0x600001e41560 -->
<g id="node23" class="node">
<title>Node0x600001e41560</title>
<polygon fill="none" stroke="black" points="2734,-9 2734,-77 2821,-77 2821,-9 2734,-9"/>
<text text-anchor="middle" x="2777.5" y="-66.6" font-family="Times,serif" font-size="8.00">word: challenge</text>
<polyline fill="none" stroke="black" points="2734,-60 2821,-60 "/>
<text text-anchor="middle" x="2777.5" y="-49.6" font-family="Times,serif" font-size="8.00">size: 2</text>
<polyline fill="none" stroke="black" points="2734,-43 2821,-43 "/>
<text text-anchor="middle" x="2777.5" y="-32.6" font-family="Times,serif" font-size="8.00">next: 0x600001e41b00</text>
<polyline fill="none" stroke="black" points="2734,-26 2821,-26 "/>
<text text-anchor="middle" x="2777.5" y="-15.6" font-family="Times,serif" font-size="8.00">prev: 0x600001e7fe40</text>
</g>
<!-- Node0x600001e7fe40&#45;&gt;Node0x600001e41560 -->
<g id="edge22" class="edge">
<title>Node0x600001e7fe40:n&#45;&gt;Node0x600001e41560:n</title>
<path fill="none" stroke="red" d="M2698,-34C2710,-34 2715.25,-34 2723.88,-34"/>
<polygon fill="red" stroke="red" points="2724,-37.5 2734,-34 2724,-30.5 2724,-37.5"/>
</g>
<!-- Node0x600001e41b00 -->
<g id="node24" class="node">
<title>Node0x600001e41b00</title>
<polygon fill="none" stroke="black" points="2857,-9 2857,-77 2945,-77 2945,-9 2857,-9"/>
<text text-anchor="middle" x="2901" y="-66.6" font-family="Times,serif" font-size="8.00">word: lisping</text>
<polyline fill="none" stroke="black" points="2857,-60 2945,-60 "/>
<text text-anchor="middle" x="2901" y="-49.6" font-family="Times,serif" font-size="8.00">size: 1</text>
<polyline fill="none" stroke="black" points="2857,-43 2945,-43 "/>
<text text-anchor="middle" x="2901" y="-32.6" font-family="Times,serif" font-size="8.00">next: 0x600001e42880</text>
<polyline fill="none" stroke="black" points="2857,-26 2945,-26 "/>
<text text-anchor="middle" x="2901" y="-15.6" font-family="Times,serif" font-size="8.00">prev: 0x600001e41560</text>
</g>
<!-- Node0x600001e41560&#45;&gt;Node0x600001e41b00 -->
<g id="edge23" class="edge">
<title>Node0x600001e41560:n&#45;&gt;Node0x600001e41b00:n</title>
<path fill="none" stroke="red" d="M2821,-34C2833,-34 2838.25,-34 2846.88,-34"/>
<polygon fill="red" stroke="red" points="2847,-37.5 2857,-34 2847,-30.5 2847,-37.5"/>
</g>
<!-- Node0x600001e42880 -->
<g id="node25" class="node">
<title>Node0x600001e42880</title>
<polygon fill="none" stroke="black" points="2981,-9 2981,-77 3069,-77 3069,-9 2981,-9"/>
<text text-anchor="middle" x="3025" y="-66.6" font-family="Times,serif" font-size="8.00">word: swits</text>
<polyline fill="none" stroke="black" points="2981,-60 3069,-60 "/>
<text text-anchor="middle" x="3025" y="-49.6" font-family="Times,serif" font-size="8.00">size: 1</text>
<polyline fill="none" stroke="black" points="2981,-43 3069,-43 "/>
<text text-anchor="middle" x="3025" y="-32.6" font-family="Times,serif" font-size="8.00">next: 0x600001e43e10</text>
<polyline fill="none" stroke="black" points="2981,-26 3069,-26 "/>
<text text-anchor="middle" x="3025" y="-15.6" font-family="Times,serif" font-size="8.00">prev: 0x600001e41b00</text>
</g>
<!-- Node0x600001e41b00&#45;&gt;Node0x600001e42880 -->
<g id="edge24" class="edge">
<title>Node0x600001e41b00:n&#45;&gt;Node0x600001e42880:n</title>
<path fill="none" stroke="red" d="M2945,-34C2957,-34 2962.25,-34 2970.88,-34"/>
<polygon fill="red" stroke="red" points="2971,-37.5 2981,-34 2971,-30.5 2971,-37.5"/>
</g>
<!-- Node0x600001e43e10 -->
<g id="node26" class="node">
<title>Node0x600001e43e10</title>
<polygon fill="none" stroke="black" points="3105,-9 3105,-77 3193,-77 3193,-9 3105,-9"/>
<text text-anchor="middle" x="3149" y="-66.6" font-family="Times,serif" font-size="8.00">word: bring</text>
<polyline fill="none" stroke="black" points="3105,-60 3193,-60 "/>
<text text-anchor="middle" x="3149" y="-49.6" font-family="Times,serif" font-size="8.00">size: 10</text>
<polyline fill="none" stroke="black" points="3105,-43 3193,-43 "/>
<text text-anchor="middle" x="3149" y="-32.6" font-family="Times,serif" font-size="8.00">next: 0x600001e450e0</text>
<polyline fill="none" stroke="black" points="3105,-26 3193,-26 "/>
<text text-anchor="middle" x="3149" y="-15.6" font-family="Times,serif" font-size="8.00">prev: 0x600001e42880</text>
</g>
<!-- Node0x600001e42880&#45;&gt;Node0x600001e43e10 -->
<g id="edge25" class="edge">
<title>Node0x600001e42880:n&#45;&gt;Node0x600001e43e10:n</title>
<path fill="none" stroke="red" d="M3069,-34C3081,-34 3086.25,-34 3094.88,-34"/>
<polygon fill="red" stroke="red" points="3095,-37.5 3105,-34 3095,-30.5 3095,-37.5"/>
</g>
<!-- Node0x600001e450e0 -->
<g id="node27" class="node">
<title>Node0x600001e450e0</title>
<polygon fill="none" stroke="black" points="3229,-9 3229,-77 3317,-77 3317,-9 3229,-9"/>
<text text-anchor="middle" x="3273" y="-66.6" font-family="Times,serif" font-size="8.00">word: church</text>
<polyline fill="none" stroke="black" points="3229,-60 3317,-60 "/>
<text text-anchor="middle" x="3273" y="-49.6" font-family="Times,serif" font-size="8.00">size: 6</text>
<polyline fill="none" stroke="black" points="3229,-43 3317,-43 "/>
<text text-anchor="middle" x="3273" y="-32.6" font-family="Times,serif" font-size="8.00">next: 0x600001e45a10</text>
<polyline fill="none" stroke="black" points="3229,-26 3317,-26 "/>
<text text-anchor="middle" x="3273" y="-15.6" font-family="Times,serif" font-size="8.00">prev: 0x600001e43e10</text>
</g>
<!-- Node0x600001e43e10&#45;&gt;Node0x600001e450e0 -->
<g id="edge26" class="edge">
<title>Node0x600001e43e10:n&#45;&gt;Node0x600001e450e0:n</title>
<path fill="none" stroke="red" d="M3193,-34C3205,-34 3210.25,-34 3218.88,-34"/>
<polygon fill="red" stroke="red" points="3219,-37.5 3229,-34 3219,-30.5 3219,-37.5"/>
</g>
<!-- Node0x600001e45a10 -->
<g id="node28" class="node">
<title>Node0x600001e45a10</title>
<polygon fill="none" stroke="black" points="3353,-9 3353,-77 3441,-77 3441,-9 3353,-9"/>
<text text-anchor="middle" x="3397" y="-66.6" font-family="Times,serif" font-size="8.00">word: excess</text>
<polyline fill="none" stroke="black" points="3353,-60 3441,-60 "/>
<text text-anchor="middle" x="3397" y="-49.6" font-family="Times,serif" font-size="8.00">size: 1</text>
<polyline fill="none" stroke="black" points="3353,-43 3441,-43 "/>
<text text-anchor="middle" x="3397" y="-32.6" font-family="Times,serif" font-size="8.00">next: 0x600001e46b20</text>
<polyline fill="none" stroke="black" points="3353,-26 3441,-26 "/>
<text text-anchor="middle" x="3397" y="-15.6" font-family="Times,serif" font-size="8.00">prev: 0x600001e450e0</text>
</g>
<!-- Node0x600001e450e0&#45;&gt;Node0x600001e45a10 -->
<g id="edge27" class="edge">
<title>Node0x600001e450e0:n&#45;&gt;Node0x600001e45a10:n</title>
<path fill="none" stroke="red" d="M3317,-34C3329,-34 3334.25,-34 3342.88,-34"/>
<polygon fill="red" stroke="red" points="3343,-37.5 3353,-34 3343,-30.5 3343,-37.5"/>
</g>
<!-- Node0x600001e46b20 -->
<g id="node29" class="node">
<title>Node0x600001e46b20</title>
<polygon fill="none" stroke="black" points="3477,-9 3477,-77 3565,-77 3565,-9 3477,-9"/>
<text text-anchor="middle" x="3521" y="-66.6" font-family="Times,serif" font-size="8.00">word: followers</text>
<polyline fill="none" stroke="black" points="3477,-60 3565,-60 "/>
<text text-anchor="middle" x="3521" y="-49.6" font-family="Times,serif" font-size="8.00">size: 1</text>
<polyline fill="none" stroke="black" points="3477,-43 3565,-43 "/>
<text text-anchor="middle" x="3521" y="-32.6" font-family="Times,serif" font-size="8.00">next: 0x600001e71380</text>
<polyline fill="none" stroke="black" points="3477,-26 3565,-26 "/>
<text text-anchor="middle" x="3521" y="-15.6" font-family="Times,serif" font-size="8.00">prev: 0x600001e45a10</text>
</g>
<!-- Node0x600001e45a10&#45;&gt;Node0x600001e46b20 -->
<g id="edge28" class="edge">
<title>Node0x600001e45a10:n&#45;&gt;Node0x600001e46b20:n</title>
<path fill="none" stroke="red" d="M3441,-34C3453,-34 3458.25,-34 3466.88,-34"/>
<polygon fill="red" stroke="red" points="3467,-37.5 3477,-34 3467,-30.5 3467,-37.5"/>
</g>
<!-- Node0x600001e71380 -->
<g id="node30" class="node">
<title>Node0x600001e71380</title>
<polygon fill="none" stroke="black" points="3601,-9 3601,-77 3689,-77 3689,-9 3601,-9"/>
<text text-anchor="middle" x="3645" y="-66.6" font-family="Times,serif" font-size="8.00">word: Howling</text>
<polyline fill="none" stroke="black" points="3601,-60 3689,-60 "/>
<text text-anchor="middle" x="3645" y="-49.6" font-family="Times,serif" font-size="8.00">size: 1</text>
<polyline fill="none" stroke="black" points="3601,-43 3689,-43 "/>
<text text-anchor="middle" x="3645" y="-32.6" font-family="Times,serif" font-size="8.00">next: 0x600001e71440</text>
<polyline fill="none" stroke="black" points="3601,-26 3689,-26 "/>
<text text-anchor="middle" x="3645" y="-15.6" font-family="Times,serif" font-size="8.00">prev: 0x600001e46b20</text>
</g>
<!-- Node0x600001e46b20&#45;&gt;Node0x600001e71380 -->
<g id="edge29" class="edge">
<title>Node0x600001e46b20:n&#45;&gt;Node0x600001e71380:n</title>
<path fill="none" stroke="red" d="M3565,-34C3577,-34 3582.25,-34 3590.88,-34"/>
<polygon fill="red" stroke="red" points="3591,-37.5 3601,-34 3591,-30.5 3591,-37.5"/>
</g>
<!-- Node0x600001e71440 -->
<g id="node31" class="node">
<title>Node0x600001e71440</title>
<polygon fill="none" stroke="black" points="3725,-9 3725,-77 3813,-77 3813,-9 3725,-9"/>
<text text-anchor="middle" x="3769" y="-66.6" font-family="Times,serif" font-size="8.00">word: profess</text>
<polyline fill="none" stroke="black" points="3725,-60 3813,-60 "/>
<text text-anchor="middle" x="3769" y="-49.6" font-family="Times,serif" font-size="8.00">size: 1</text>
<polyline fill="none" stroke="black" points="3725,-43 3813,-43 "/>
<text text-anchor="middle" x="3769" y="-32.6" font-family="Times,serif" font-size="8.00">next: 0x600001e4b900</text>
<polyline fill="none" stroke="black" points="3725,-26 3813,-26 "/>
<text text-anchor="middle" x="3769" y="-15.6" font-family="Times,serif" font-size="8.00">prev: 0x600001e71380</text>
</g>
<!-- Node0x600001e71380&#45;&gt;Node0x600001e71440 -->
<g id="edge30" class="edge">
<title>Node0x600001e71380:n&#45;&gt;Node0x600001e71440:n</title>
<path fill="none" stroke="red" d="M3689,-34C3701,-34 3706.25,-34 3714.88,-34"/>
<polygon fill="red" stroke="red" points="3715,-37.5 3725,-34 3715,-30.5 3715,-37.5"/>
</g>
<!-- Node0x600001e4b900 -->
<g id="node32" class="node">
<title>Node0x600001e4b900</title>
<polygon fill="none" stroke="black" points="3849,-9 3849,-77 3937,-77 3937,-9 3849,-9"/>
<text text-anchor="middle" x="3893" y="-66.6" font-family="Times,serif" font-size="8.00">word: hark</text>
<polyline fill="none" stroke="black" points="3849,-60 3937,-60 "/>
<text text-anchor="middle" x="3893" y="-49.6" font-family="Times,serif" font-size="8.00">size: 1</text>
<polyline fill="none" stroke="black" points="3849,-43 3937,-43 "/>
<text text-anchor="middle" x="3893" y="-32.6" font-family="Times,serif" font-size="8.00">next: 0x600001e73450</text>
<polyline fill="none" stroke="black" points="3849,-26 3937,-26 "/>
<text text-anchor="middle" x="3893" y="-15.6" font-family="Times,serif" font-size="8.00">prev: 0x600001e71440</text>
</g>
<!-- Node0x600001e71440&#45;&gt;Node0x600001e4b900 -->
<g id="edge31" class="edge">
<title>Node0x600001e71440:n&#45;&gt;Node0x600001e4b900:n</title>
<path fill="none" stroke="red" d="M3813,-34C3825,-34 3830.25,-34 3838.88,-34"/>
<polygon fill="red" stroke="red" points="3839,-37.5 3849,-34 3839,-30.5 3839,-37.5"/>
</g>
<!-- Node0x600001e73450 -->
<g id="node33" class="node">
<title>Node0x600001e73450</title>
<polygon fill="none" stroke="black" points="3973,-9 3973,-77 4061,-77 4061,-9 3973,-9"/>
<text text-anchor="middle" x="4017" y="-66.6" font-family="Times,serif" font-size="8.00">word: James</text>
<polyline fill="none" stroke="black" points="3973,-60 4061,-60 "/>
<text text-anchor="middle" x="4017" y="-49.6" font-family="Times,serif" font-size="8.00">size: 1</text>
<polyline fill="none" stroke="black" points="3973,-43 4061,-43 "/>
<text text-anchor="middle" x="4017" y="-32.6" font-family="Times,serif" font-size="8.00">next: 0x600001e50060</text>
<polyline fill="none" stroke="black" points="3973,-26 4061,-26 "/>
<text text-anchor="middle" x="4017" y="-15.6" font-family="Times,serif" font-size="8.00">prev: 0x600001e4b900</text>
</g>
<!-- Node0x600001e4b900&#45;&gt;Node0x600001e73450 -->
<g id="edge32" class="edge">
<title>Node0x600001e4b900:n&#45;&gt;Node0x600001e73450:n</title>
<path fill="none" stroke="red" d="M3937,-34C3949,-34 3954.25,-34 3962.88,-34"/>
<polygon fill="red" stroke="red" points="3963,-37.5 3973,-34 3963,-30.5 3963,-37.5"/>
</g>
<!-- Node0x600001e50060 -->
<g id="node34" class="node">
<title>Node0x600001e50060</title>
<polygon fill="none" stroke="black" points="4097,-9 4097,-77 4185,-77 4185,-9 4097,-9"/>
<text text-anchor="middle" x="4141" y="-66.6" font-family="Times,serif" font-size="8.00">word: Noting</text>
<polyline fill="none" stroke="black" points="4097,-60 4185,-60 "/>
<text text-anchor="middle" x="4141" y="-49.6" font-family="Times,serif" font-size="8.00">size: 1</text>
<polyline fill="none" stroke="black" points="4097,-43 4185,-43 "/>
<text text-anchor="middle" x="4141" y="-32.6" font-family="Times,serif" font-size="8.00">next: 0x600001e54870</text>
<polyline fill="none" stroke="black" points="4097,-26 4185,-26 "/>
<text text-anchor="middle" x="4141" y="-15.6" font-family="Times,serif" font-size="8.00">prev: 0x600001e73450</text>
</g>
<!-- Node0x600001e73450&#45;&gt;Node0x600001e50060 -->
<g id="edge33" class="edge">
<title>Node0x600001e73450:n&#45;&gt;Node0x600001e50060:n</title>
<path fill="none" stroke="red" d="M4061,-34C4073,-34 4078.25,-34 4086.88,-34"/>
<polygon fill="red" stroke="red" points="4087,-37.5 4097,-34 4087,-30.5 4087,-37.5"/>
</g>
<!-- Node0x600001e54870 -->
<g id="node35" class="node">
<title>Node0x600001e54870</title>
<polygon fill="none" stroke="black" points="4221,-9 4221,-77 4309,-77 4309,-9 4221,-9"/>
<text text-anchor="middle" x="4265" y="-66.6" font-family="Times,serif" font-size="8.00">word: rode</text>
<polyline fill="none" stroke="black" points="4221,-60 4309,-60 "/>
<text text-anchor="middle" x="4265" y="-49.6" font-family="Times,serif" font-size="8.00">size: 1</text>
<polyline fill="none" stroke="black" points="4221,-43 4309,-43 "/>
<text text-anchor="middle" x="4265" y="-32.6" font-family="Times,serif" font-size="8.00">next: 0x0</text>
<polyline fill="none" stroke="black" points="4221,-26 4309,-26 "/>
<text text-anchor="middle" x="4265" y="-15.6" font-family="Times,serif" font-size="8.00">prev: 0x600001e50060</text>
</g>
<!-- Node0x600001e50060&#45;&gt;Node0x600001e54870 -->
<g id="edge34" class="edge">
<title>Node0x600001e50060:n&#45;&gt;Node0x600001e54870:n</title>
<path fill="none" stroke="red" d="M4185,-34C4197,-34 4202.25,-34 4210.88,-34"/>
<polygon fill="red" stroke="red" points="4211,-37.5 4221,-34 4211,-30.5 4211,-37.5"/>
</g>
</g>
</svg>
