<?xml version="1.0" encoding="UTF-8" standalone="no"?>
<!DOCTYPE svg PUBLIC "-//W3C//DTD SVG 1.1//EN"
 "http://www.w3.org/Graphics/SVG/1.1/DTD/svg11.dtd">
<!-- Generated by graphviz version 2.50.0 (20211204.2007)
 -->
<!-- Title: G Pages: 1 -->
<svg width="4321pt" height="117pt"
 viewBox="0.00 0.00 4321.00 117.00" xmlns="http://www.w3.org/2000/svg" xmlns:xlink="http://www.w3.org/1999/xlink">
<g id="graph0" class="graph" transform="scale(1 1) rotate(0) translate(4 113)">
<title>G</title>
<polygon fill="white" stroke="transparent" points="-4,4 -4,-113 4317,-113 4317,4 -4,4"/>
<g id="clust1" class="cluster">
<title>cluster250</title>
<polygon fill="none" stroke="black" points="8,-8 8,-101 95,-101 95,-8 8,-8"/>
<text text-anchor="middle" x="51.5" y="-85.8" font-family="Times,serif" font-size="14.00">250</text>
</g>
<g id="clust2" class="cluster">
<title>cluster251</title>
<polygon fill="none" stroke="black" points="131,-8 131,-101 219,-101 219,-8 131,-8"/>
<text text-anchor="middle" x="175" y="-85.8" font-family="Times,serif" font-size="14.00">251</text>
</g>
<g id="clust3" class="cluster">
<title>cluster252</title>
<polygon fill="none" stroke="black" points="255,-8 255,-101 343,-101 343,-8 255,-8"/>
<text text-anchor="middle" x="299" y="-85.8" font-family="Times,serif" font-size="14.00">252</text>
</g>
<g id="clust4" class="cluster">
<title>cluster253</title>
<polygon fill="none" stroke="black" points="379,-8 379,-101 467,-101 467,-8 379,-8"/>
<text text-anchor="middle" x="423" y="-85.8" font-family="Times,serif" font-size="14.00">253</text>
</g>
<g id="clust5" class="cluster">
<title>cluster254</title>
<polygon fill="none" stroke="black" points="503,-8 503,-101 591,-101 591,-8 503,-8"/>
<text text-anchor="middle" x="547" y="-85.8" font-family="Times,serif" font-size="14.00">254</text>
</g>
<g id="clust6" class="cluster">
<title>cluster255</title>
<polygon fill="none" stroke="black" points="627,-8 627,-101 714,-101 714,-8 627,-8"/>
<text text-anchor="middle" x="670.5" y="-85.8" font-family="Times,serif" font-size="14.00">255</text>
</g>
<g id="clust7" class="cluster">
<title>cluster256</title>
<polygon fill="none" stroke="black" points="750,-8 750,-101 838,-101 838,-8 750,-8"/>
<text text-anchor="middle" x="794" y="-85.8" font-family="Times,serif" font-size="14.00">256</text>
</g>
<g id="clust8" class="cluster">
<title>cluster257</title>
<polygon fill="none" stroke="black" points="874,-8 874,-101 962,-101 962,-8 874,-8"/>
<text text-anchor="middle" x="918" y="-85.8" font-family="Times,serif" font-size="14.00">257</text>
</g>
<g id="clust9" class="cluster">
<title>cluster258</title>
<polygon fill="none" stroke="black" points="998,-8 998,-101 1086,-101 1086,-8 998,-8"/>
<text text-anchor="middle" x="1042" y="-85.8" font-family="Times,serif" font-size="14.00">258</text>
</g>
<g id="clust10" class="cluster">
<title>cluster259</title>
<polygon fill="none" stroke="black" points="1122,-8 1122,-101 1210,-101 1210,-8 1122,-8"/>
<text text-anchor="middle" x="1166" y="-85.8" font-family="Times,serif" font-size="14.00">259</text>
</g>
<g id="clust11" class="cluster">
<title>cluster260</title>
<polygon fill="none" stroke="black" points="1246,-8 1246,-101 1334,-101 1334,-8 1246,-8"/>
<text text-anchor="middle" x="1290" y="-85.8" font-family="Times,serif" font-size="14.00">260</text>
</g>
<g id="clust12" class="cluster">
<title>cluster261</title>
<polygon fill="none" stroke="black" points="1370,-8 1370,-101 1458,-101 1458,-8 1370,-8"/>
<text text-anchor="middle" x="1414" y="-85.8" font-family="Times,serif" font-size="14.00">261</text>
</g>
<g id="clust13" class="cluster">
<title>cluster262</title>
<polygon fill="none" stroke="black" points="1494,-8 1494,-101 1582,-101 1582,-8 1494,-8"/>
<text text-anchor="middle" x="1538" y="-85.8" font-family="Times,serif" font-size="14.00">262</text>
</g>
<g id="clust14" class="cluster">
<title>cluster263</title>
<polygon fill="none" stroke="black" points="1618,-8 1618,-101 1705,-101 1705,-8 1618,-8"/>
<text text-anchor="middle" x="1661.5" y="-85.8" font-family="Times,serif" font-size="14.00">263</text>
</g>
<g id="clust15" class="cluster">
<title>cluster264</title>
<polygon fill="none" stroke="black" points="1741,-8 1741,-101 1829,-101 1829,-8 1741,-8"/>
<text text-anchor="middle" x="1785" y="-85.8" font-family="Times,serif" font-size="14.00">264</text>
</g>
<g id="clust16" class="cluster">
<title>cluster265</title>
<polygon fill="none" stroke="black" points="1865,-8 1865,-101 1953,-101 1953,-8 1865,-8"/>
<text text-anchor="middle" x="1909" y="-85.8" font-family="Times,serif" font-size="14.00">265</text>
</g>
<g id="clust17" class="cluster">
<title>cluster266</title>
<polygon fill="none" stroke="black" points="1989,-8 1989,-101 2077,-101 2077,-8 1989,-8"/>
<text text-anchor="middle" x="2033" y="-85.8" font-family="Times,serif" font-size="14.00">266</text>
</g>
<g id="clust18" class="cluster">
<title>cluster267</title>
<polygon fill="none" stroke="black" points="2113,-8 2113,-101 2201,-101 2201,-8 2113,-8"/>
<text text-anchor="middle" x="2157" y="-85.8" font-family="Times,serif" font-size="14.00">267</text>
</g>
<g id="clust19" class="cluster">
<title>cluster268</title>
<polygon fill="none" stroke="black" points="2237,-8 2237,-101 2324,-101 2324,-8 2237,-8"/>
<text text-anchor="middle" x="2280.5" y="-85.8" font-family="Times,serif" font-size="14.00">268</text>
</g>
<g id="clust20" class="cluster">
<title>cluster269</title>
<polygon fill="none" stroke="black" points="2360,-8 2360,-101 2448,-101 2448,-8 2360,-8"/>
<text text-anchor="middle" x="2404" y="-85.8" font-family="Times,serif" font-size="14.00">269</text>
</g>
<g id="clust21" class="cluster">
<title>cluster270</title>
<polygon fill="none" stroke="black" points="2484,-8 2484,-101 2572,-101 2572,-8 2484,-8"/>
<text text-anchor="middle" x="2528" y="-85.8" font-family="Times,serif" font-size="14.00">270</text>
</g>
<g id="clust22" class="cluster">
<title>cluster271</title>
<polygon fill="none" stroke="black" points="2608,-8 2608,-101 2696,-101 2696,-8 2608,-8"/>
<text text-anchor="middle" x="2652" y="-85.8" font-family="Times,serif" font-size="14.00">271</text>
</g>
<g id="clust23" class="cluster">
<title>cluster272</title>
<polygon fill="none" stroke="black" points="2732,-8 2732,-101 2820,-101 2820,-8 2732,-8"/>
<text text-anchor="middle" x="2776" y="-85.8" font-family="Times,serif" font-size="14.00">272</text>
</g>
<g id="clust24" class="cluster">
<title>cluster273</title>
<polygon fill="none" stroke="black" points="2856,-8 2856,-101 2943,-101 2943,-8 2856,-8"/>
<text text-anchor="middle" x="2899.5" y="-85.8" font-family="Times,serif" font-size="14.00">273</text>
</g>
<g id="clust25" class="cluster">
<title>cluster274</title>
<polygon fill="none" stroke="black" points="2979,-8 2979,-101 3067,-101 3067,-8 2979,-8"/>
<text text-anchor="middle" x="3023" y="-85.8" font-family="Times,serif" font-size="14.00">274</text>
</g>
<g id="clust26" class="cluster">
<title>cluster275</title>
<polygon fill="none" stroke="black" points="3103,-8 3103,-101 3191,-101 3191,-8 3103,-8"/>
<text text-anchor="middle" x="3147" y="-85.8" font-family="Times,serif" font-size="14.00">275</text>
</g>
<g id="clust27" class="cluster">
<title>cluster276</title>
<polygon fill="none" stroke="black" points="3227,-8 3227,-101 3315,-101 3315,-8 3227,-8"/>
<text text-anchor="middle" x="3271" y="-85.8" font-family="Times,serif" font-size="14.00">276</text>
</g>
<g id="clust28" class="cluster">
<title>cluster277</title>
<polygon fill="none" stroke="black" points="3351,-8 3351,-101 3438,-101 3438,-8 3351,-8"/>
<text text-anchor="middle" x="3394.5" y="-85.8" font-family="Times,serif" font-size="14.00">277</text>
</g>
<g id="clust29" class="cluster">
<title>cluster278</title>
<polygon fill="none" stroke="black" points="3474,-8 3474,-101 3561,-101 3561,-8 3474,-8"/>
<text text-anchor="middle" x="3517.5" y="-85.8" font-family="Times,serif" font-size="14.00">278</text>
</g>
<g id="clust30" class="cluster">
<title>cluster279</title>
<polygon fill="none" stroke="black" points="3597,-8 3597,-101 3685,-101 3685,-8 3597,-8"/>
<text text-anchor="middle" x="3641" y="-85.8" font-family="Times,serif" font-size="14.00">279</text>
</g>
<g id="clust31" class="cluster">
<title>cluster280</title>
<polygon fill="none" stroke="black" points="3721,-8 3721,-101 3809,-101 3809,-8 3721,-8"/>
<text text-anchor="middle" x="3765" y="-85.8" font-family="Times,serif" font-size="14.00">280</text>
</g>
<g id="clust32" class="cluster">
<title>cluster281</title>
<polygon fill="none" stroke="black" points="3845,-8 3845,-101 3933,-101 3933,-8 3845,-8"/>
<text text-anchor="middle" x="3889" y="-85.8" font-family="Times,serif" font-size="14.00">281</text>
</g>
<g id="clust33" class="cluster">
<title>cluster282</title>
<polygon fill="none" stroke="black" points="3969,-8 3969,-101 4057,-101 4057,-8 3969,-8"/>
<text text-anchor="middle" x="4013" y="-85.8" font-family="Times,serif" font-size="14.00">282</text>
</g>
<g id="clust34" class="cluster">
<title>cluster283</title>
<polygon fill="none" stroke="black" points="4093,-8 4093,-101 4181,-101 4181,-8 4093,-8"/>
<text text-anchor="middle" x="4137" y="-85.8" font-family="Times,serif" font-size="14.00">283</text>
</g>
<g id="clust35" class="cluster">
<title>cluster284</title>
<polygon fill="none" stroke="black" points="4217,-8 4217,-101 4305,-101 4305,-8 4217,-8"/>
<text text-anchor="middle" x="4261" y="-85.8" font-family="Times,serif" font-size="14.00">284</text>
</g>
<!-- Node0x600001e68210 -->
<g id="node1" class="node">
<title>Node0x600001e68210</title>
<polygon fill="none" stroke="black" points="8,-9 8,-77 95,-77 95,-9 8,-9"/>
<text text-anchor="middle" x="51.5" y="-66.6" font-family="Times,serif" font-size="8.00">word: kinsmen</text>
<polyline fill="none" stroke="black" points="8,-60 95,-60 "/>
<text text-anchor="middle" x="51.5" y="-49.6" font-family="Times,serif" font-size="8.00">size: 4</text>
<polyline fill="none" stroke="black" points="8,-43 95,-43 "/>
<text text-anchor="middle" x="51.5" y="-32.6" font-family="Times,serif" font-size="8.00">next: 0x600001e6a3a0</text>
<polyline fill="none" stroke="black" points="8,-26 95,-26 "/>
<text text-anchor="middle" x="51.5" y="-15.6" font-family="Times,serif" font-size="8.00">prev: 0x0</text>
</g>
<!-- Node0x600001e6a3a0 -->
<g id="node2" class="node">
<title>Node0x600001e6a3a0</title>
<polygon fill="none" stroke="black" points="131,-9 131,-77 219,-77 219,-9 131,-9"/>
<text text-anchor="middle" x="175" y="-66.6" font-family="Times,serif" font-size="8.00">word: hiss</text>
<polyline fill="none" stroke="black" points="131,-60 219,-60 "/>
<text text-anchor="middle" x="175" y="-49.6" font-family="Times,serif" font-size="8.00">size: 1</text>
<polyline fill="none" stroke="black" points="131,-43 219,-43 "/>
<text text-anchor="middle" x="175" y="-32.6" font-family="Times,serif" font-size="8.00">next: 0x600001e6a460</text>
<polyline fill="none" stroke="black" points="131,-26 219,-26 "/>
<text text-anchor="middle" x="175" y="-15.6" font-family="Times,serif" font-size="8.00">prev: 0x600001e68210</text>
</g>
<!-- Node0x600001e68210&#45;&gt;Node0x600001e6a3a0 -->
<g id="edge1" class="edge">
<title>Node0x600001e68210:n&#45;&gt;Node0x600001e6a3a0:n</title>
<path fill="none" stroke="red" d="M95,-34C107,-34 112.25,-34 120.88,-34"/>
<polygon fill="red" stroke="red" points="121,-37.5 131,-34 121,-30.5 121,-37.5"/>
</g>
<!-- Node0x600001e6a460 -->
<g id="node3" class="node">
<title>Node0x600001e6a460</title>
<polygon fill="none" stroke="black" points="255,-9 255,-77 343,-77 343,-9 255,-9"/>
<text text-anchor="middle" x="299" y="-66.6" font-family="Times,serif" font-size="8.00">word: interchanging</text>
<polyline fill="none" stroke="black" points="255,-60 343,-60 "/>
<text text-anchor="middle" x="299" y="-49.6" font-family="Times,serif" font-size="8.00">size: 1</text>
<polyline fill="none" stroke="black" points="255,-43 343,-43 "/>
<text text-anchor="middle" x="299" y="-32.6" font-family="Times,serif" font-size="8.00">next: 0x600001e6c0c0</text>
<polyline fill="none" stroke="black" points="255,-26 343,-26 "/>
<text text-anchor="middle" x="299" y="-15.6" font-family="Times,serif" font-size="8.00">prev: 0x600001e6a3a0</text>
</g>
<!-- Node0x600001e6a3a0&#45;&gt;Node0x600001e6a460 -->
<g id="edge2" class="edge">
<title>Node0x600001e6a3a0:n&#45;&gt;Node0x600001e6a460:n</title>
<path fill="none" stroke="red" d="M219,-34C231,-34 236.25,-34 244.88,-34"/>
<polygon fill="red" stroke="red" points="245,-37.5 255,-34 245,-30.5 245,-37.5"/>
</g>
<!-- Node0x600001e6c0c0 -->
<g id="node4" class="node">
<title>Node0x600001e6c0c0</title>
<polygon fill="none" stroke="black" points="379,-9 379,-77 467,-77 467,-9 379,-9"/>
<text text-anchor="middle" x="423" y="-66.6" font-family="Times,serif" font-size="8.00">word: Come</text>
<polyline fill="none" stroke="black" points="379,-60 467,-60 "/>
<text text-anchor="middle" x="423" y="-49.6" font-family="Times,serif" font-size="8.00">size: 38</text>
<polyline fill="none" stroke="black" points="379,-43 467,-43 "/>
<text text-anchor="middle" x="423" y="-32.6" font-family="Times,serif" font-size="8.00">next: 0x600001e6c9f0</text>
<polyline fill="none" stroke="black" points="379,-26 467,-26 "/>
<text text-anchor="middle" x="423" y="-15.6" font-family="Times,serif" font-size="8.00">prev: 0x600001e6a460</text>
</g>
<!-- Node0x600001e6a460&#45;&gt;Node0x600001e6c0c0 -->
<g id="edge3" class="edge">
<title>Node0x600001e6a460:n&#45;&gt;Node0x600001e6c0c0:n</title>
<path fill="none" stroke="red" d="M343,-34C355,-34 360.25,-34 368.88,-34"/>
<polygon fill="red" stroke="red" points="369,-37.5 379,-34 369,-30.5 369,-37.5"/>
</g>
<!-- Node0x600001e6c9f0 -->
<g id="node5" class="node">
<title>Node0x600001e6c9f0</title>
<polygon fill="none" stroke="black" points="503,-9 503,-77 591,-77 591,-9 503,-9"/>
<text text-anchor="middle" x="547" y="-66.6" font-family="Times,serif" font-size="8.00">word: chaos</text>
<polyline fill="none" stroke="black" points="503,-60 591,-60 "/>
<text text-anchor="middle" x="547" y="-49.6" font-family="Times,serif" font-size="8.00">size: 1</text>
<polyline fill="none" stroke="black" points="503,-43 591,-43 "/>
<text text-anchor="middle" x="547" y="-32.6" font-family="Times,serif" font-size="8.00">next: 0x600001e6d110</text>
<polyline fill="none" stroke="black" points="503,-26 591,-26 "/>
<text text-anchor="middle" x="547" y="-15.6" font-family="Times,serif" font-size="8.00">prev: 0x600001e6c0c0</text>
</g>
<!-- Node0x600001e6c0c0&#45;&gt;Node0x600001e6c9f0 -->
<g id="edge4" class="edge">
<title>Node0x600001e6c0c0:n&#45;&gt;Node0x600001e6c9f0:n</title>
<path fill="none" stroke="red" d="M467,-34C479,-34 484.25,-34 492.88,-34"/>
<polygon fill="red" stroke="red" points="493,-37.5 503,-34 493,-30.5 493,-37.5"/>
</g>
<!-- Node0x600001e6d110 -->
<g id="node6" class="node">
<title>Node0x600001e6d110</title>
<polygon fill="none" stroke="black" points="627,-9 627,-77 714,-77 714,-9 627,-9"/>
<text text-anchor="middle" x="670.5" y="-66.6" font-family="Times,serif" font-size="8.00">word: purg</text>
<polyline fill="none" stroke="black" points="627,-60 714,-60 "/>
<text text-anchor="middle" x="670.5" y="-49.6" font-family="Times,serif" font-size="8.00">size: 2</text>
<polyline fill="none" stroke="black" points="627,-43 714,-43 "/>
<text text-anchor="middle" x="670.5" y="-32.6" font-family="Times,serif" font-size="8.00">next: 0x600001e6d320</text>
<polyline fill="none" stroke="black" points="627,-26 714,-26 "/>
<text text-anchor="middle" x="670.5" y="-15.6" font-family="Times,serif" font-size="8.00">prev: 0x600001e6c9f0</text>
</g>
<!-- Node0x600001e6c9f0&#45;&gt;Node0x600001e6d110 -->
<g id="edge5" class="edge">
<title>Node0x600001e6c9f0:n&#45;&gt;Node0x600001e6d110:n</title>
<path fill="none" stroke="red" d="M591,-34C603,-34 608.25,-34 616.88,-34"/>
<polygon fill="red" stroke="red" points="617,-37.5 627,-34 617,-30.5 617,-37.5"/>
</g>
<!-- Node0x600001e6d320 -->
<g id="node7" class="node">
<title>Node0x600001e6d320</title>
<polygon fill="none" stroke="black" points="750,-9 750,-77 838,-77 838,-9 750,-9"/>
<text text-anchor="middle" x="794" y="-66.6" font-family="Times,serif" font-size="8.00">word: Farewell</text>
<polyline fill="none" stroke="black" points="750,-60 838,-60 "/>
<text text-anchor="middle" x="794" y="-49.6" font-family="Times,serif" font-size="8.00">size: 14</text>
<polyline fill="none" stroke="black" points="750,-43 838,-43 "/>
<text text-anchor="middle" x="794" y="-32.6" font-family="Times,serif" font-size="8.00">next: 0x600001e6e190</text>
<polyline fill="none" stroke="black" points="750,-26 838,-26 "/>
<text text-anchor="middle" x="794" y="-15.6" font-family="Times,serif" font-size="8.00">prev: 0x600001e6d110</text>
</g>
<!-- Node0x600001e6d110&#45;&gt;Node0x600001e6d320 -->
<g id="edge6" class="edge">
<title>Node0x600001e6d110:n&#45;&gt;Node0x600001e6d320:n</title>
<path fill="none" stroke="red" d="M714,-34C726,-34 731.25,-34 739.88,-34"/>
<polygon fill="red" stroke="red" points="740,-37.5 750,-34 740,-30.5 740,-37.5"/>
</g>
<!-- Node0x600001e6e190 -->
<g id="node8" class="node">
<title>Node0x600001e6e190</title>
<polygon fill="none" stroke="black" points="874,-9 874,-77 962,-77 962,-9 874,-9"/>
<text text-anchor="middle" x="918" y="-66.6" font-family="Times,serif" font-size="8.00">word: think</text>
<polyline fill="none" stroke="black" points="874,-60 962,-60 "/>
<text text-anchor="middle" x="918" y="-49.6" font-family="Times,serif" font-size="8.00">size: 20</text>
<polyline fill="none" stroke="black" points="874,-43 962,-43 "/>
<text text-anchor="middle" x="918" y="-32.6" font-family="Times,serif" font-size="8.00">next: 0x600001e6e4c0</text>
<polyline fill="none" stroke="black" points="874,-26 962,-26 "/>
<text text-anchor="middle" x="918" y="-15.6" font-family="Times,serif" font-size="8.00">prev: 0x600001e6d320</text>
</g>
<!-- Node0x600001e6d320&#45;&gt;Node0x600001e6e190 -->
<g id="edge7" class="edge">
<title>Node0x600001e6d320:n&#45;&gt;Node0x600001e6e190:n</title>
<path fill="none" stroke="red" d="M838,-34C850,-34 855.25,-34 863.88,-34"/>
<polygon fill="red" stroke="red" points="864,-37.5 874,-34 864,-30.5 864,-37.5"/>
</g>
<!-- Node0x600001e6e4c0 -->
<g id="node9" class="node">
<title>Node0x600001e6e4c0</title>
<polygon fill="none" stroke="black" points="998,-9 998,-77 1086,-77 1086,-9 998,-9"/>
<text text-anchor="middle" x="1042" y="-66.6" font-family="Times,serif" font-size="8.00">word: puts</text>
<polyline fill="none" stroke="black" points="998,-60 1086,-60 "/>
<text text-anchor="middle" x="1042" y="-49.6" font-family="Times,serif" font-size="8.00">size: 1</text>
<polyline fill="none" stroke="black" points="998,-43 1086,-43 "/>
<text text-anchor="middle" x="1042" y="-32.6" font-family="Times,serif" font-size="8.00">next: 0x600001e70d50</text>
<polyline fill="none" stroke="black" points="998,-26 1086,-26 "/>
<text text-anchor="middle" x="1042" y="-15.6" font-family="Times,serif" font-size="8.00">prev: 0x600001e6e190</text>
</g>
<!-- Node0x600001e6e190&#45;&gt;Node0x600001e6e4c0 -->
<g id="edge8" class="edge">
<title>Node0x600001e6e190:n&#45;&gt;Node0x600001e6e4c0:n</title>
<path fill="none" stroke="red" d="M962,-34C974,-34 979.25,-34 987.88,-34"/>
<polygon fill="red" stroke="red" points="988,-37.5 998,-34 988,-30.5 988,-37.5"/>
</g>
<!-- Node0x600001e70d50 -->
<g id="node10" class="node">
<title>Node0x600001e70d50</title>
<polygon fill="none" stroke="black" points="1122,-9 1122,-77 1210,-77 1210,-9 1122,-9"/>
<text text-anchor="middle" x="1166" y="-66.6" font-family="Times,serif" font-size="8.00">word: assembly</text>
<polyline fill="none" stroke="black" points="1122,-60 1210,-60 "/>
<text text-anchor="middle" x="1166" y="-49.6" font-family="Times,serif" font-size="8.00">size: 1</text>
<polyline fill="none" stroke="black" points="1122,-43 1210,-43 "/>
<text text-anchor="middle" x="1166" y="-32.6" font-family="Times,serif" font-size="8.00">next: 0x600001e64e10</text>
<polyline fill="none" stroke="black" points="1122,-26 1210,-26 "/>
<text text-anchor="middle" x="1166" y="-15.6" font-family="Times,serif" font-size="8.00">prev: 0x600001e6e4c0</text>
</g>
<!-- Node0x600001e6e4c0&#45;&gt;Node0x600001e70d50 -->
<g id="edge9" class="edge">
<title>Node0x600001e6e4c0:n&#45;&gt;Node0x600001e70d50:n</title>
<path fill="none" stroke="red" d="M1086,-34C1098,-34 1103.25,-34 1111.88,-34"/>
<polygon fill="red" stroke="red" points="1112,-37.5 1122,-34 1112,-30.5 1112,-37.5"/>
</g>
<!-- Node0x600001e64e10 -->
<g id="node11" class="node">
<title>Node0x600001e64e10</title>
<polygon fill="none" stroke="black" points="1246,-9 1246,-77 1334,-77 1334,-9 1246,-9"/>
<text text-anchor="middle" x="1290" y="-66.6" font-family="Times,serif" font-size="8.00">word: souls</text>
<polyline fill="none" stroke="black" points="1246,-60 1334,-60 "/>
<text text-anchor="middle" x="1290" y="-49.6" font-family="Times,serif" font-size="8.00">size: 2</text>
<polyline fill="none" stroke="black" points="1246,-43 1334,-43 "/>
<text text-anchor="middle" x="1290" y="-32.6" font-family="Times,serif" font-size="8.00">next: 0x600001e65b30</text>
<polyline fill="none" stroke="black" points="1246,-26 1334,-26 "/>
<text text-anchor="middle" x="1290" y="-15.6" font-family="Times,serif" font-size="8.00">prev: 0x600001e70d50</text>
</g>
<!-- Node0x600001e70d50&#45;&gt;Node0x600001e64e10 -->
<g id="edge10" class="edge">
<title>Node0x600001e70d50:n&#45;&gt;Node0x600001e64e10:n</title>
<path fill="none" stroke="red" d="M1210,-34C1222,-34 1227.25,-34 1235.88,-34"/>
<polygon fill="red" stroke="red" points="1236,-37.5 1246,-34 1236,-30.5 1236,-37.5"/>
</g>
<!-- Node0x600001e65b30 -->
<g id="node12" class="node">
<title>Node0x600001e65b30</title>
<polygon fill="none" stroke="black" points="1370,-9 1370,-77 1458,-77 1458,-9 1370,-9"/>
<text text-anchor="middle" x="1414" y="-66.6" font-family="Times,serif" font-size="8.00">word: nurs</text>
<polyline fill="none" stroke="black" points="1370,-60 1458,-60 "/>
<text text-anchor="middle" x="1414" y="-49.6" font-family="Times,serif" font-size="8.00">size: 2</text>
<polyline fill="none" stroke="black" points="1370,-43 1458,-43 "/>
<text text-anchor="middle" x="1414" y="-32.6" font-family="Times,serif" font-size="8.00">next: 0x600001e67f90</text>
<polyline fill="none" stroke="black" points="1370,-26 1458,-26 "/>
<text text-anchor="middle" x="1414" y="-15.6" font-family="Times,serif" font-size="8.00">prev: 0x600001e64e10</text>
</g>
<!-- Node0x600001e64e10&#45;&gt;Node0x600001e65b30 -->
<g id="edge11" class="edge">
<title>Node0x600001e64e10:n&#45;&gt;Node0x600001e65b30:n</title>
<path fill="none" stroke="red" d="M1334,-34C1346,-34 1351.25,-34 1359.88,-34"/>
<polygon fill="red" stroke="red" points="1360,-37.5 1370,-34 1360,-30.5 1360,-37.5"/>
</g>
<!-- Node0x600001e67f90 -->
<g id="node13" class="node">
<title>Node0x600001e67f90</title>
<polygon fill="none" stroke="black" points="1494,-9 1494,-77 1582,-77 1582,-9 1494,-9"/>
<text text-anchor="middle" x="1538" y="-66.6" font-family="Times,serif" font-size="8.00">word: Her</text>
<polyline fill="none" stroke="black" points="1494,-60 1582,-60 "/>
<text text-anchor="middle" x="1538" y="-49.6" font-family="Times,serif" font-size="8.00">size: 12</text>
<polyline fill="none" stroke="black" points="1494,-43 1582,-43 "/>
<text text-anchor="middle" x="1538" y="-32.6" font-family="Times,serif" font-size="8.00">next: 0x600001e78360</text>
<polyline fill="none" stroke="black" points="1494,-26 1582,-26 "/>
<text text-anchor="middle" x="1538" y="-15.6" font-family="Times,serif" font-size="8.00">prev: 0x600001e65b30</text>
</g>
<!-- Node0x600001e65b30&#45;&gt;Node0x600001e67f90 -->
<g id="edge12" class="edge">
<title>Node0x600001e65b30:n&#45;&gt;Node0x600001e67f90:n</title>
<path fill="none" stroke="red" d="M1458,-34C1470,-34 1475.25,-34 1483.88,-34"/>
<polygon fill="red" stroke="red" points="1484,-37.5 1494,-34 1484,-30.5 1484,-37.5"/>
</g>
<!-- Node0x600001e78360 -->
<g id="node14" class="node">
<title>Node0x600001e78360</title>
<polygon fill="none" stroke="black" points="1618,-9 1618,-77 1705,-77 1705,-9 1618,-9"/>
<text text-anchor="middle" x="1661.5" y="-66.6" font-family="Times,serif" font-size="8.00">word: belov</text>
<polyline fill="none" stroke="black" points="1618,-60 1705,-60 "/>
<text text-anchor="middle" x="1661.5" y="-49.6" font-family="Times,serif" font-size="8.00">size: 1</text>
<polyline fill="none" stroke="black" points="1618,-43 1705,-43 "/>
<text text-anchor="middle" x="1661.5" y="-32.6" font-family="Times,serif" font-size="8.00">next: 0x600001e78540</text>
<polyline fill="none" stroke="black" points="1618,-26 1705,-26 "/>
<text text-anchor="middle" x="1661.5" y="-15.6" font-family="Times,serif" font-size="8.00">prev: 0x600001e67f90</text>
</g>
<!-- Node0x600001e67f90&#45;&gt;Node0x600001e78360 -->
<g id="edge13" class="edge">
<title>Node0x600001e67f90:n&#45;&gt;Node0x600001e78360:n</title>
<path fill="none" stroke="red" d="M1582,-34C1594,-34 1599.25,-34 1607.88,-34"/>
<polygon fill="red" stroke="red" points="1608,-37.5 1618,-34 1608,-30.5 1608,-37.5"/>
</g>
<!-- Node0x600001e78540 -->
<g id="node15" class="node">
<title>Node0x600001e78540</title>
<polygon fill="none" stroke="black" points="1741,-9 1741,-77 1829,-77 1829,-9 1741,-9"/>
<text text-anchor="middle" x="1785" y="-66.6" font-family="Times,serif" font-size="8.00">word: access</text>
<polyline fill="none" stroke="black" points="1741,-60 1829,-60 "/>
<text text-anchor="middle" x="1785" y="-49.6" font-family="Times,serif" font-size="8.00">size: 1</text>
<polyline fill="none" stroke="black" points="1741,-43 1829,-43 "/>
<text text-anchor="middle" x="1785" y="-32.6" font-family="Times,serif" font-size="8.00">next: 0x600001e78630</text>
<polyline fill="none" stroke="black" points="1741,-26 1829,-26 "/>
<text text-anchor="middle" x="1785" y="-15.6" font-family="Times,serif" font-size="8.00">prev: 0x600001e78360</text>
</g>
<!-- Node0x600001e78360&#45;&gt;Node0x600001e78540 -->
<g id="edge14" class="edge">
<title>Node0x600001e78360:n&#45;&gt;Node0x600001e78540:n</title>
<path fill="none" stroke="red" d="M1705,-34C1717,-34 1722.25,-34 1730.88,-34"/>
<polygon fill="red" stroke="red" points="1731,-37.5 1741,-34 1731,-30.5 1731,-37.5"/>
</g>
<!-- Node0x600001e78630 -->
<g id="node16" class="node">
<title>Node0x600001e78630</title>
<polygon fill="none" stroke="black" points="1865,-9 1865,-77 1953,-77 1953,-9 1865,-9"/>
<text text-anchor="middle" x="1909" y="-66.6" font-family="Times,serif" font-size="8.00">word: anywhere</text>
<polyline fill="none" stroke="black" points="1865,-60 1953,-60 "/>
<text text-anchor="middle" x="1909" y="-49.6" font-family="Times,serif" font-size="8.00">size: 1</text>
<polyline fill="none" stroke="black" points="1865,-43 1953,-43 "/>
<text text-anchor="middle" x="1909" y="-32.6" font-family="Times,serif" font-size="8.00">next: 0x600001e7dd40</text>
<polyline fill="none" stroke="black" points="1865,-26 1953,-26 "/>
<text text-anchor="middle" x="1909" y="-15.6" font-family="Times,serif" font-size="8.00">prev: 0x600001e78540</text>
</g>
<!-- Node0x600001e78540&#45;&gt;Node0x600001e78630 -->
<g id="edge15" class="edge">
<title>Node0x600001e78540:n&#45;&gt;Node0x600001e78630:n</title>
<path fill="none" stroke="red" d="M1829,-34C1841,-34 1846.25,-34 1854.88,-34"/>
<polygon fill="red" stroke="red" points="1855,-37.5 1865,-34 1855,-30.5 1855,-37.5"/>
</g>
<!-- Node0x600001e7dd40 -->
<g id="node17" class="node">
<title>Node0x600001e7dd40</title>
<polygon fill="none" stroke="black" points="1989,-9 1989,-77 2077,-77 2077,-9 1989,-9"/>
<text text-anchor="middle" x="2033" y="-66.6" font-family="Times,serif" font-size="8.00">word: shore</text>
<polyline fill="none" stroke="black" points="1989,-60 2077,-60 "/>
<text text-anchor="middle" x="2033" y="-49.6" font-family="Times,serif" font-size="8.00">size: 1</text>
<polyline fill="none" stroke="black" points="1989,-43 2077,-43 "/>
<text text-anchor="middle" x="2033" y="-32.6" font-family="Times,serif" font-size="8.00">next: 0x600001e7f990</text>
<polyline fill="none" stroke="black" points="1989,-26 2077,-26 "/>
<text text-anchor="middle" x="2033" y="-15.6" font-family="Times,serif" font-size="8.00">prev: 0x600001e78630</text>
</g>
<!-- Node0x600001e78630&#45;&gt;Node0x600001e7dd40 -->
<g id="edge16" class="edge">
<title>Node0x600001e78630:n&#45;&gt;Node0x600001e7dd40:n</title>
<path fill="none" stroke="red" d="M1953,-34C1965,-34 1970.25,-34 1978.88,-34"/>
<polygon fill="red" stroke="red" points="1979,-37.5 1989,-34 1979,-30.5 1979,-37.5"/>
</g>
<!-- Node0x600001e7f990 -->
<g id="node18" class="node">
<title>Node0x600001e7f990</title>
<polygon fill="none" stroke="black" points="2113,-9 2113,-77 2201,-77 2201,-9 2113,-9"/>
<text text-anchor="middle" x="2157" y="-66.6" font-family="Times,serif" font-size="8.00">word: reels</text>
<polyline fill="none" stroke="black" points="2113,-60 2201,-60 "/>
<text text-anchor="middle" x="2157" y="-49.6" font-family="Times,serif" font-size="8.00">size: 1</text>
<polyline fill="none" stroke="black" points="2113,-43 2201,-43 "/>
<text text-anchor="middle" x="2157" y="-32.6" font-family="Times,serif" font-size="8.00">next: 0x600001e42070</text>
<polyline fill="none" stroke="black" points="2113,-26 2201,-26 "/>
<text text-anchor="middle" x="2157" y="-15.6" font-family="Times,serif" font-size="8.00">prev: 0x600001e7dd40</text>
</g>
<!-- Node0x600001e7dd40&#45;&gt;Node0x600001e7f990 -->
<g id="edge17" class="edge">
<title>Node0x600001e7dd40:n&#45;&gt;Node0x600001e7f990:n</title>
<path fill="none" stroke="red" d="M2077,-34C2089,-34 2094.25,-34 2102.88,-34"/>
<polygon fill="red" stroke="red" points="2103,-37.5 2113,-34 2103,-30.5 2103,-37.5"/>
</g>
<!-- Node0x600001e42070 -->
<g id="node19" class="node">
<title>Node0x600001e42070</title>
<polygon fill="none" stroke="black" points="2237,-9 2237,-77 2324,-77 2324,-9 2237,-9"/>
<text text-anchor="middle" x="2280.5" y="-66.6" font-family="Times,serif" font-size="8.00">word: dowdy</text>
<polyline fill="none" stroke="black" points="2237,-60 2324,-60 "/>
<text text-anchor="middle" x="2280.5" y="-49.6" font-family="Times,serif" font-size="8.00">size: 1</text>
<polyline fill="none" stroke="black" points="2237,-43 2324,-43 "/>
<text text-anchor="middle" x="2280.5" y="-32.6" font-family="Times,serif" font-size="8.00">next: 0x600001e42760</text>
<polyline fill="none" stroke="black" points="2237,-26 2324,-26 "/>
<text text-anchor="middle" x="2280.5" y="-15.6" font-family="Times,serif" font-size="8.00">prev: 0x600001e7f990</text>
</g>
<!-- Node0x600001e7f990&#45;&gt;Node0x600001e42070 -->
<g id="edge18" class="edge">
<title>Node0x600001e7f990:n&#45;&gt;Node0x600001e42070:n</title>
<path fill="none" stroke="red" d="M2201,-34C2213,-34 2218.25,-34 2226.88,-34"/>
<polygon fill="red" stroke="red" points="2227,-37.5 2237,-34 2227,-30.5 2227,-37.5"/>
</g>
<!-- Node0x600001e42760 -->
<g id="node20" class="node">
<title>Node0x600001e42760</title>
<polygon fill="none" stroke="black" points="2360,-9 2360,-77 2448,-77 2448,-9 2360,-9"/>
<text text-anchor="middle" x="2404" y="-66.6" font-family="Times,serif" font-size="8.00">word: singular</text>
<polyline fill="none" stroke="black" points="2360,-60 2448,-60 "/>
<text text-anchor="middle" x="2404" y="-49.6" font-family="Times,serif" font-size="8.00">size: 2</text>
<polyline fill="none" stroke="black" points="2360,-43 2448,-43 "/>
<text text-anchor="middle" x="2404" y="-32.6" font-family="Times,serif" font-size="8.00">next: 0x600001e42cd0</text>
<polyline fill="none" stroke="black" points="2360,-26 2448,-26 "/>
<text text-anchor="middle" x="2404" y="-15.6" font-family="Times,serif" font-size="8.00">prev: 0x600001e42070</text>
</g>
<!-- Node0x600001e42070&#45;&gt;Node0x600001e42760 -->
<g id="edge19" class="edge">
<title>Node0x600001e42070:n&#45;&gt;Node0x600001e42760:n</title>
<path fill="none" stroke="red" d="M2324,-34C2336,-34 2341.25,-34 2349.88,-34"/>
<polygon fill="red" stroke="red" points="2350,-37.5 2360,-34 2350,-30.5 2350,-37.5"/>
</g>
<!-- Node0x600001e42cd0 -->
<g id="node21" class="node">
<title>Node0x600001e42cd0</title>
<polygon fill="none" stroke="black" points="2484,-9 2484,-77 2572,-77 2572,-9 2484,-9"/>
<text text-anchor="middle" x="2528" y="-66.6" font-family="Times,serif" font-size="8.00">word: lolling</text>
<polyline fill="none" stroke="black" points="2484,-60 2572,-60 "/>
<text text-anchor="middle" x="2528" y="-49.6" font-family="Times,serif" font-size="8.00">size: 1</text>
<polyline fill="none" stroke="black" points="2484,-43 2572,-43 "/>
<text text-anchor="middle" x="2528" y="-32.6" font-family="Times,serif" font-size="8.00">next: 0x600001e45260</text>
<polyline fill="none" stroke="black" points="2484,-26 2572,-26 "/>
<text text-anchor="middle" x="2528" y="-15.6" font-family="Times,serif" font-size="8.00">prev: 0x600001e42760</text>
</g>
<!-- Node0x600001e42760&#45;&gt;Node0x600001e42cd0 -->
<g id="edge20" class="edge">
<title>Node0x600001e42760:n&#45;&gt;Node0x600001e42cd0:n</title>
<path fill="none" stroke="red" d="M2448,-34C2460,-34 2465.25,-34 2473.88,-34"/>
<polygon fill="red" stroke="red" points="2474,-37.5 2484,-34 2474,-30.5 2474,-37.5"/>
</g>
<!-- Node0x600001e45260 -->
<g id="node22" class="node">
<title>Node0x600001e45260</title>
<polygon fill="none" stroke="black" points="2608,-9 2608,-77 2696,-77 2696,-9 2608,-9"/>
<text text-anchor="middle" x="2652" y="-66.6" font-family="Times,serif" font-size="8.00">word: heavens</text>
<polyline fill="none" stroke="black" points="2608,-60 2696,-60 "/>
<text text-anchor="middle" x="2652" y="-49.6" font-family="Times,serif" font-size="8.00">size: 4</text>
<polyline fill="none" stroke="black" points="2608,-43 2696,-43 "/>
<text text-anchor="middle" x="2652" y="-32.6" font-family="Times,serif" font-size="8.00">next: 0x600001e45fb0</text>
<polyline fill="none" stroke="black" points="2608,-26 2696,-26 "/>
<text text-anchor="middle" x="2652" y="-15.6" font-family="Times,serif" font-size="8.00">prev: 0x600001e42cd0</text>
</g>
<!-- Node0x600001e42cd0&#45;&gt;Node0x600001e45260 -->
<g id="edge21" class="edge">
<title>Node0x600001e42cd0:n&#45;&gt;Node0x600001e45260:n</title>
<path fill="none" stroke="red" d="M2572,-34C2584,-34 2589.25,-34 2597.88,-34"/>
<polygon fill="red" stroke="red" points="2598,-37.5 2608,-34 2598,-30.5 2598,-37.5"/>
</g>
<!-- Node0x600001e45fb0 -->
<g id="node23" class="node">
<title>Node0x600001e45fb0</title>
<polygon fill="none" stroke="black" points="2732,-9 2732,-77 2820,-77 2820,-9 2732,-9"/>
<text text-anchor="middle" x="2776" y="-66.6" font-family="Times,serif" font-size="8.00">word: egg</text>
<polyline fill="none" stroke="black" points="2732,-60 2820,-60 "/>
<text text-anchor="middle" x="2776" y="-49.6" font-family="Times,serif" font-size="8.00">size: 2</text>
<polyline fill="none" stroke="black" points="2732,-43 2820,-43 "/>
<text text-anchor="middle" x="2776" y="-32.6" font-family="Times,serif" font-size="8.00">next: 0x600001e49110</text>
<polyline fill="none" stroke="black" points="2732,-26 2820,-26 "/>
<text text-anchor="middle" x="2776" y="-15.6" font-family="Times,serif" font-size="8.00">prev: 0x600001e45260</text>
</g>
<!-- Node0x600001e45260&#45;&gt;Node0x600001e45fb0 -->
<g id="edge22" class="edge">
<title>Node0x600001e45260:n&#45;&gt;Node0x600001e45fb0:n</title>
<path fill="none" stroke="red" d="M2696,-34C2708,-34 2713.25,-34 2721.88,-34"/>
<polygon fill="red" stroke="red" points="2722,-37.5 2732,-34 2722,-30.5 2722,-37.5"/>
</g>
<!-- Node0x600001e49110 -->
<g id="node24" class="node">
<title>Node0x600001e49110</title>
<polygon fill="none" stroke="black" points="2856,-9 2856,-77 2943,-77 2943,-9 2856,-9"/>
<text text-anchor="middle" x="2899.5" y="-66.6" font-family="Times,serif" font-size="8.00">word: living</text>
<polyline fill="none" stroke="black" points="2856,-60 2943,-60 "/>
<text text-anchor="middle" x="2899.5" y="-49.6" font-family="Times,serif" font-size="8.00">size: 5</text>
<polyline fill="none" stroke="black" points="2856,-43 2943,-43 "/>
<text text-anchor="middle" x="2899.5" y="-32.6" font-family="Times,serif" font-size="8.00">next: 0x600001e4a580</text>
<polyline fill="none" stroke="black" points="2856,-26 2943,-26 "/>
<text text-anchor="middle" x="2899.5" y="-15.6" font-family="Times,serif" font-size="8.00">prev: 0x600001e45fb0</text>
</g>
<!-- Node0x600001e45fb0&#45;&gt;Node0x600001e49110 -->
<g id="edge23" class="edge">
<title>Node0x600001e45fb0:n&#45;&gt;Node0x600001e49110:n</title>
<path fill="none" stroke="red" d="M2820,-34C2832,-34 2837.25,-34 2845.88,-34"/>
<polygon fill="red" stroke="red" points="2846,-37.5 2856,-34 2846,-30.5 2846,-37.5"/>
</g>
<!-- Node0x600001e4a580 -->
<g id="node25" class="node">
<title>Node0x600001e4a580</title>
<polygon fill="none" stroke="black" points="2979,-9 2979,-77 3067,-77 3067,-9 2979,-9"/>
<text text-anchor="middle" x="3023" y="-66.6" font-family="Times,serif" font-size="8.00">word: carrion</text>
<polyline fill="none" stroke="black" points="2979,-60 3067,-60 "/>
<text text-anchor="middle" x="3023" y="-49.6" font-family="Times,serif" font-size="8.00">size: 2</text>
<polyline fill="none" stroke="black" points="2979,-43 3067,-43 "/>
<text text-anchor="middle" x="3023" y="-32.6" font-family="Times,serif" font-size="8.00">next: 0x600001e4ac70</text>
<polyline fill="none" stroke="black" points="2979,-26 3067,-26 "/>
<text text-anchor="middle" x="3023" y="-15.6" font-family="Times,serif" font-size="8.00">prev: 0x600001e49110</text>
</g>
<!-- Node0x600001e49110&#45;&gt;Node0x600001e4a580 -->
<g id="edge24" class="edge">
<title>Node0x600001e49110:n&#45;&gt;Node0x600001e4a580:n</title>
<path fill="none" stroke="red" d="M2943,-34C2955,-34 2960.25,-34 2968.88,-34"/>
<polygon fill="red" stroke="red" points="2969,-37.5 2979,-34 2969,-30.5 2969,-37.5"/>
</g>
<!-- Node0x600001e4ac70 -->
<g id="node26" class="node">
<title>Node0x600001e4ac70</title>
<polygon fill="none" stroke="black" points="3103,-9 3103,-77 3191,-77 3191,-9 3103,-9"/>
<text text-anchor="middle" x="3147" y="-66.6" font-family="Times,serif" font-size="8.00">word: Unseemly</text>
<polyline fill="none" stroke="black" points="3103,-60 3191,-60 "/>
<text text-anchor="middle" x="3147" y="-49.6" font-family="Times,serif" font-size="8.00">size: 1</text>
<polyline fill="none" stroke="black" points="3103,-43 3191,-43 "/>
<text text-anchor="middle" x="3147" y="-32.6" font-family="Times,serif" font-size="8.00">next: 0x600001e4af70</text>
<polyline fill="none" stroke="black" points="3103,-26 3191,-26 "/>
<text text-anchor="middle" x="3147" y="-15.6" font-family="Times,serif" font-size="8.00">prev: 0x600001e4a580</text>
</g>
<!-- Node0x600001e4a580&#45;&gt;Node0x600001e4ac70 -->
<g id="edge25" class="edge">
<title>Node0x600001e4a580:n&#45;&gt;Node0x600001e4ac70:n</title>
<path fill="none" stroke="red" d="M3067,-34C3079,-34 3084.25,-34 3092.88,-34"/>
<polygon fill="red" stroke="red" points="3093,-37.5 3103,-34 3093,-30.5 3093,-37.5"/>
</g>
<!-- Node0x600001e4af70 -->
<g id="node27" class="node">
<title>Node0x600001e4af70</title>
<polygon fill="none" stroke="black" points="3227,-9 3227,-77 3315,-77 3315,-9 3227,-9"/>
<text text-anchor="middle" x="3271" y="-66.6" font-family="Times,serif" font-size="8.00">word: flask</text>
<polyline fill="none" stroke="black" points="3227,-60 3315,-60 "/>
<text text-anchor="middle" x="3271" y="-49.6" font-family="Times,serif" font-size="8.00">size: 1</text>
<polyline fill="none" stroke="black" points="3227,-43 3315,-43 "/>
<text text-anchor="middle" x="3271" y="-32.6" font-family="Times,serif" font-size="8.00">next: 0x600001e4b6f0</text>
<polyline fill="none" stroke="black" points="3227,-26 3315,-26 "/>
<text text-anchor="middle" x="3271" y="-15.6" font-family="Times,serif" font-size="8.00">prev: 0x600001e4ac70</text>
</g>
<!-- Node0x600001e4ac70&#45;&gt;Node0x600001e4af70 -->
<g id="edge26" class="edge">
<title>Node0x600001e4ac70:n&#45;&gt;Node0x600001e4af70:n</title>
<path fill="none" stroke="red" d="M3191,-34C3203,-34 3208.25,-34 3216.88,-34"/>
<polygon fill="red" stroke="red" points="3217,-37.5 3227,-34 3217,-30.5 3217,-37.5"/>
</g>
<!-- Node0x600001e4b6f0 -->
<g id="node28" class="node">
<title>Node0x600001e4b6f0</title>
<polygon fill="none" stroke="black" points="3351,-9 3351,-77 3438,-77 3438,-9 3351,-9"/>
<text text-anchor="middle" x="3394.5" y="-66.6" font-family="Times,serif" font-size="8.00">word: mew</text>
<polyline fill="none" stroke="black" points="3351,-60 3438,-60 "/>
<text text-anchor="middle" x="3394.5" y="-49.6" font-family="Times,serif" font-size="8.00">size: 1</text>
<polyline fill="none" stroke="black" points="3351,-43 3438,-43 "/>
<text text-anchor="middle" x="3394.5" y="-32.6" font-family="Times,serif" font-size="8.00">next: 0x600001e4b8d0</text>
<polyline fill="none" stroke="black" points="3351,-26 3438,-26 "/>
<text text-anchor="middle" x="3394.5" y="-15.6" font-family="Times,serif" font-size="8.00">prev: 0x600001e4af70</text>
</g>
<!-- Node0x600001e4af70&#45;&gt;Node0x600001e4b6f0 -->
<g id="edge27" class="edge">
<title>Node0x600001e4af70:n&#45;&gt;Node0x600001e4b6f0:n</title>
<path fill="none" stroke="red" d="M3315,-34C3327,-34 3332.25,-34 3340.88,-34"/>
<polygon fill="red" stroke="red" points="3341,-37.5 3351,-34 3341,-30.5 3341,-37.5"/>
</g>
<!-- Node0x600001e4b8d0 -->
<g id="node29" class="node">
<title>Node0x600001e4b8d0</title>
<polygon fill="none" stroke="black" points="3474,-9 3474,-77 3561,-77 3561,-9 3474,-9"/>
<text text-anchor="middle" x="3517.5" y="-66.6" font-family="Times,serif" font-size="8.00">word: ado</text>
<polyline fill="none" stroke="black" points="3474,-60 3561,-60 "/>
<text text-anchor="middle" x="3517.5" y="-49.6" font-family="Times,serif" font-size="8.00">size: 1</text>
<polyline fill="none" stroke="black" points="3474,-43 3561,-43 "/>
<text text-anchor="middle" x="3517.5" y="-32.6" font-family="Times,serif" font-size="8.00">next: 0x600001e4bab0</text>
<polyline fill="none" stroke="black" points="3474,-26 3561,-26 "/>
<text text-anchor="middle" x="3517.5" y="-15.6" font-family="Times,serif" font-size="8.00">prev: 0x600001e4b6f0</text>
</g>
<!-- Node0x600001e4b6f0&#45;&gt;Node0x600001e4b8d0 -->
<g id="edge28" class="edge">
<title>Node0x600001e4b6f0:n&#45;&gt;Node0x600001e4b8d0:n</title>
<path fill="none" stroke="red" d="M3438,-34C3450,-34 3455.25,-34 3463.88,-34"/>
<polygon fill="red" stroke="red" points="3464,-37.5 3474,-34 3464,-30.5 3464,-37.5"/>
</g>
<!-- Node0x600001e4bab0 -->
<g id="node30" class="node">
<title>Node0x600001e4bab0</title>
<polygon fill="none" stroke="black" points="3597,-9 3597,-77 3685,-77 3685,-9 3597,-9"/>
<text text-anchor="middle" x="3641" y="-66.6" font-family="Times,serif" font-size="8.00">word: nightingale</text>
<polyline fill="none" stroke="black" points="3597,-60 3685,-60 "/>
<text text-anchor="middle" x="3641" y="-49.6" font-family="Times,serif" font-size="8.00">size: 3</text>
<polyline fill="none" stroke="black" points="3597,-43 3685,-43 "/>
<text text-anchor="middle" x="3641" y="-32.6" font-family="Times,serif" font-size="8.00">next: 0x600001e79770</text>
<polyline fill="none" stroke="black" points="3597,-26 3685,-26 "/>
<text text-anchor="middle" x="3641" y="-15.6" font-family="Times,serif" font-size="8.00">prev: 0x600001e4b8d0</text>
</g>
<!-- Node0x600001e4b8d0&#45;&gt;Node0x600001e4bab0 -->
<g id="edge29" class="edge">
<title>Node0x600001e4b8d0:n&#45;&gt;Node0x600001e4bab0:n</title>
<path fill="none" stroke="red" d="M3561,-34C3573,-34 3578.25,-34 3586.88,-34"/>
<polygon fill="red" stroke="red" points="3587,-37.5 3597,-34 3587,-30.5 3587,-37.5"/>
</g>
<!-- Node0x600001e79770 -->
<g id="node31" class="node">
<title>Node0x600001e79770</title>
<polygon fill="none" stroke="black" points="3721,-9 3721,-77 3809,-77 3809,-9 3721,-9"/>
<text text-anchor="middle" x="3765" y="-66.6" font-family="Times,serif" font-size="8.00">word: drowsy</text>
<polyline fill="none" stroke="black" points="3721,-60 3809,-60 "/>
<text text-anchor="middle" x="3765" y="-49.6" font-family="Times,serif" font-size="8.00">size: 1</text>
<polyline fill="none" stroke="black" points="3721,-43 3809,-43 "/>
<text text-anchor="middle" x="3765" y="-32.6" font-family="Times,serif" font-size="8.00">next: 0x600001e7a040</text>
<polyline fill="none" stroke="black" points="3721,-26 3809,-26 "/>
<text text-anchor="middle" x="3765" y="-15.6" font-family="Times,serif" font-size="8.00">prev: 0x600001e4bab0</text>
</g>
<!-- Node0x600001e4bab0&#45;&gt;Node0x600001e79770 -->
<g id="edge30" class="edge">
<title>Node0x600001e4bab0:n&#45;&gt;Node0x600001e79770:n</title>
<path fill="none" stroke="red" d="M3685,-34C3697,-34 3702.25,-34 3710.88,-34"/>
<polygon fill="red" stroke="red" points="3711,-37.5 3721,-34 3711,-30.5 3711,-37.5"/>
</g>
<!-- Node0x600001e7a040 -->
<g id="node32" class="node">
<title>Node0x600001e7a040</title>
<polygon fill="none" stroke="black" points="3845,-9 3845,-77 3933,-77 3933,-9 3845,-9"/>
<text text-anchor="middle" x="3889" y="-66.6" font-family="Times,serif" font-size="8.00">word: forsooth</text>
<polyline fill="none" stroke="black" points="3845,-60 3933,-60 "/>
<text text-anchor="middle" x="3889" y="-49.6" font-family="Times,serif" font-size="8.00">size: 1</text>
<polyline fill="none" stroke="black" points="3845,-43 3933,-43 "/>
<text text-anchor="middle" x="3889" y="-32.6" font-family="Times,serif" font-size="8.00">next: 0x600001e7ad00</text>
<polyline fill="none" stroke="black" points="3845,-26 3933,-26 "/>
<text text-anchor="middle" x="3889" y="-15.6" font-family="Times,serif" font-size="8.00">prev: 0x600001e79770</text>
</g>
<!-- Node0x600001e79770&#45;&gt;Node0x600001e7a040 -->
<g id="edge31" class="edge">
<title>Node0x600001e79770:n&#45;&gt;Node0x600001e7a040:n</title>
<path fill="none" stroke="red" d="M3809,-34C3821,-34 3826.25,-34 3834.88,-34"/>
<polygon fill="red" stroke="red" points="3835,-37.5 3845,-34 3835,-30.5 3835,-37.5"/>
</g>
<!-- Node0x600001e7ad00 -->
<g id="node33" class="node">
<title>Node0x600001e7ad00</title>
<polygon fill="none" stroke="black" points="3969,-9 3969,-77 4057,-77 4057,-9 3969,-9"/>
<text text-anchor="middle" x="4013" y="-66.6" font-family="Times,serif" font-size="8.00">word: hearing</text>
<polyline fill="none" stroke="black" points="3969,-60 4057,-60 "/>
<text text-anchor="middle" x="4013" y="-49.6" font-family="Times,serif" font-size="8.00">size: 2</text>
<polyline fill="none" stroke="black" points="3969,-43 4057,-43 "/>
<text text-anchor="middle" x="4013" y="-32.6" font-family="Times,serif" font-size="8.00">next: 0x600001e7b0c0</text>
<polyline fill="none" stroke="black" points="3969,-26 4057,-26 "/>
<text text-anchor="middle" x="4013" y="-15.6" font-family="Times,serif" font-size="8.00">prev: 0x600001e7a040</text>
</g>
<!-- Node0x600001e7a040&#45;&gt;Node0x600001e7ad00 -->
<g id="edge32" class="edge">
<title>Node0x600001e7a040:n&#45;&gt;Node0x600001e7ad00:n</title>
<path fill="none" stroke="red" d="M3933,-34C3945,-34 3950.25,-34 3958.88,-34"/>
<polygon fill="red" stroke="red" points="3959,-37.5 3969,-34 3959,-30.5 3959,-37.5"/>
</g>
<!-- Node0x600001e7b0c0 -->
<g id="node34" class="node">
<title>Node0x600001e7b0c0</title>
<polygon fill="none" stroke="black" points="4093,-9 4093,-77 4181,-77 4181,-9 4093,-9"/>
<text text-anchor="middle" x="4137" y="-66.6" font-family="Times,serif" font-size="8.00">word: rung</text>
<polyline fill="none" stroke="black" points="4093,-60 4181,-60 "/>
<text text-anchor="middle" x="4137" y="-49.6" font-family="Times,serif" font-size="8.00">size: 1</text>
<polyline fill="none" stroke="black" points="4093,-43 4181,-43 "/>
<text text-anchor="middle" x="4137" y="-32.6" font-family="Times,serif" font-size="8.00">next: 0x600001e56130</text>
<polyline fill="none" stroke="black" points="4093,-26 4181,-26 "/>
<text text-anchor="middle" x="4137" y="-15.6" font-family="Times,serif" font-size="8.00">prev: 0x600001e7ad00</text>
</g>
<!-- Node0x600001e7ad00&#45;&gt;Node0x600001e7b0c0 -->
<g id="edge33" class="edge">
<title>Node0x600001e7ad00:n&#45;&gt;Node0x600001e7b0c0:n</title>
<path fill="none" stroke="red" d="M4057,-34C4069,-34 4074.25,-34 4082.88,-34"/>
<polygon fill="red" stroke="red" points="4083,-37.5 4093,-34 4083,-30.5 4083,-37.5"/>
</g>
<!-- Node0x600001e56130 -->
<g id="node35" class="node">
<title>Node0x600001e56130</title>
<polygon fill="none" stroke="black" points="4217,-9 4217,-77 4305,-77 4305,-9 4217,-9"/>
<text text-anchor="middle" x="4261" y="-66.6" font-family="Times,serif" font-size="8.00">word: rid</text>
<polyline fill="none" stroke="black" points="4217,-60 4305,-60 "/>
<text text-anchor="middle" x="4261" y="-49.6" font-family="Times,serif" font-size="8.00">size: 1</text>
<polyline fill="none" stroke="black" points="4217,-43 4305,-43 "/>
<text text-anchor="middle" x="4261" y="-32.6" font-family="Times,serif" font-size="8.00">next: 0x0</text>
<polyline fill="none" stroke="black" points="4217,-26 4305,-26 "/>
<text text-anchor="middle" x="4261" y="-15.6" font-family="Times,serif" font-size="8.00">prev: 0x600001e7b0c0</text>
</g>
<!-- Node0x600001e7b0c0&#45;&gt;Node0x600001e56130 -->
<g id="edge34" class="edge">
<title>Node0x600001e7b0c0:n&#45;&gt;Node0x600001e56130:n</title>
<path fill="none" stroke="red" d="M4181,-34C4193,-34 4198.25,-34 4206.88,-34"/>
<polygon fill="red" stroke="red" points="4207,-37.5 4217,-34 4207,-30.5 4207,-37.5"/>
</g>
</g>
</svg>
