<?xml version="1.0" encoding="UTF-8" standalone="no"?>
<!DOCTYPE svg PUBLIC "-//W3C//DTD SVG 1.1//EN"
 "http://www.w3.org/Graphics/SVG/1.1/DTD/svg11.dtd">
<!-- Generated by graphviz version 2.50.0 (20211204.2007)
 -->
<!-- Title: G Pages: 1 -->
<svg width="3953pt" height="117pt"
 viewBox="0.00 0.00 3953.00 117.00" xmlns="http://www.w3.org/2000/svg" xmlns:xlink="http://www.w3.org/1999/xlink">
<g id="graph0" class="graph" transform="scale(1 1) rotate(0) translate(4 113)">
<title>G</title>
<polygon fill="white" stroke="transparent" points="-4,4 -4,-113 3949,-113 3949,4 -4,4"/>
<g id="clust1" class="cluster">
<title>cluster1728</title>
<polygon fill="none" stroke="black" points="8,-8 8,-101 95,-101 95,-8 8,-8"/>
<text text-anchor="middle" x="51.5" y="-85.8" font-family="Times,serif" font-size="14.00">1728</text>
</g>
<g id="clust2" class="cluster">
<title>cluster1729</title>
<polygon fill="none" stroke="black" points="131,-8 131,-101 218,-101 218,-8 131,-8"/>
<text text-anchor="middle" x="174.5" y="-85.8" font-family="Times,serif" font-size="14.00">1729</text>
</g>
<g id="clust3" class="cluster">
<title>cluster1730</title>
<polygon fill="none" stroke="black" points="254,-8 254,-101 342,-101 342,-8 254,-8"/>
<text text-anchor="middle" x="298" y="-85.8" font-family="Times,serif" font-size="14.00">1730</text>
</g>
<g id="clust4" class="cluster">
<title>cluster1731</title>
<polygon fill="none" stroke="black" points="378,-8 378,-101 466,-101 466,-8 378,-8"/>
<text text-anchor="middle" x="422" y="-85.8" font-family="Times,serif" font-size="14.00">1731</text>
</g>
<g id="clust5" class="cluster">
<title>cluster1732</title>
<polygon fill="none" stroke="black" points="502,-8 502,-101 590,-101 590,-8 502,-8"/>
<text text-anchor="middle" x="546" y="-85.8" font-family="Times,serif" font-size="14.00">1732</text>
</g>
<g id="clust6" class="cluster">
<title>cluster1733</title>
<polygon fill="none" stroke="black" points="626,-8 626,-101 714,-101 714,-8 626,-8"/>
<text text-anchor="middle" x="670" y="-85.8" font-family="Times,serif" font-size="14.00">1733</text>
</g>
<g id="clust7" class="cluster">
<title>cluster1734</title>
<polygon fill="none" stroke="black" points="750,-8 750,-101 838,-101 838,-8 750,-8"/>
<text text-anchor="middle" x="794" y="-85.8" font-family="Times,serif" font-size="14.00">1734</text>
</g>
<g id="clust8" class="cluster">
<title>cluster1735</title>
<polygon fill="none" stroke="black" points="874,-8 874,-101 962,-101 962,-8 874,-8"/>
<text text-anchor="middle" x="918" y="-85.8" font-family="Times,serif" font-size="14.00">1735</text>
</g>
<g id="clust9" class="cluster">
<title>cluster1736</title>
<polygon fill="none" stroke="black" points="998,-8 998,-101 1086,-101 1086,-8 998,-8"/>
<text text-anchor="middle" x="1042" y="-85.8" font-family="Times,serif" font-size="14.00">1736</text>
</g>
<g id="clust10" class="cluster">
<title>cluster1737</title>
<polygon fill="none" stroke="black" points="1122,-8 1122,-101 1210,-101 1210,-8 1122,-8"/>
<text text-anchor="middle" x="1166" y="-85.8" font-family="Times,serif" font-size="14.00">1737</text>
</g>
<g id="clust11" class="cluster">
<title>cluster1738</title>
<polygon fill="none" stroke="black" points="1246,-8 1246,-101 1334,-101 1334,-8 1246,-8"/>
<text text-anchor="middle" x="1290" y="-85.8" font-family="Times,serif" font-size="14.00">1738</text>
</g>
<g id="clust12" class="cluster">
<title>cluster1739</title>
<polygon fill="none" stroke="black" points="1370,-8 1370,-101 1458,-101 1458,-8 1370,-8"/>
<text text-anchor="middle" x="1414" y="-85.8" font-family="Times,serif" font-size="14.00">1739</text>
</g>
<g id="clust13" class="cluster">
<title>cluster1740</title>
<polygon fill="none" stroke="black" points="1494,-8 1494,-101 1582,-101 1582,-8 1494,-8"/>
<text text-anchor="middle" x="1538" y="-85.8" font-family="Times,serif" font-size="14.00">1740</text>
</g>
<g id="clust14" class="cluster">
<title>cluster1741</title>
<polygon fill="none" stroke="black" points="1618,-8 1618,-101 1706,-101 1706,-8 1618,-8"/>
<text text-anchor="middle" x="1662" y="-85.8" font-family="Times,serif" font-size="14.00">1741</text>
</g>
<g id="clust15" class="cluster">
<title>cluster1742</title>
<polygon fill="none" stroke="black" points="1742,-8 1742,-101 1830,-101 1830,-8 1742,-8"/>
<text text-anchor="middle" x="1786" y="-85.8" font-family="Times,serif" font-size="14.00">1742</text>
</g>
<g id="clust16" class="cluster">
<title>cluster1743</title>
<polygon fill="none" stroke="black" points="1866,-8 1866,-101 1954,-101 1954,-8 1866,-8"/>
<text text-anchor="middle" x="1910" y="-85.8" font-family="Times,serif" font-size="14.00">1743</text>
</g>
<g id="clust17" class="cluster">
<title>cluster1744</title>
<polygon fill="none" stroke="black" points="1990,-8 1990,-101 2078,-101 2078,-8 1990,-8"/>
<text text-anchor="middle" x="2034" y="-85.8" font-family="Times,serif" font-size="14.00">1744</text>
</g>
<g id="clust18" class="cluster">
<title>cluster1745</title>
<polygon fill="none" stroke="black" points="2114,-8 2114,-101 2202,-101 2202,-8 2114,-8"/>
<text text-anchor="middle" x="2158" y="-85.8" font-family="Times,serif" font-size="14.00">1745</text>
</g>
<g id="clust19" class="cluster">
<title>cluster1746</title>
<polygon fill="none" stroke="black" points="2238,-8 2238,-101 2326,-101 2326,-8 2238,-8"/>
<text text-anchor="middle" x="2282" y="-85.8" font-family="Times,serif" font-size="14.00">1746</text>
</g>
<g id="clust20" class="cluster">
<title>cluster1747</title>
<polygon fill="none" stroke="black" points="2362,-8 2362,-101 2450,-101 2450,-8 2362,-8"/>
<text text-anchor="middle" x="2406" y="-85.8" font-family="Times,serif" font-size="14.00">1747</text>
</g>
<g id="clust21" class="cluster">
<title>cluster1748</title>
<polygon fill="none" stroke="black" points="2486,-8 2486,-101 2574,-101 2574,-8 2486,-8"/>
<text text-anchor="middle" x="2530" y="-85.8" font-family="Times,serif" font-size="14.00">1748</text>
</g>
<g id="clust22" class="cluster">
<title>cluster1749</title>
<polygon fill="none" stroke="black" points="2610,-8 2610,-101 2698,-101 2698,-8 2610,-8"/>
<text text-anchor="middle" x="2654" y="-85.8" font-family="Times,serif" font-size="14.00">1749</text>
</g>
<g id="clust23" class="cluster">
<title>cluster1750</title>
<polygon fill="none" stroke="black" points="2734,-8 2734,-101 2822,-101 2822,-8 2734,-8"/>
<text text-anchor="middle" x="2778" y="-85.8" font-family="Times,serif" font-size="14.00">1750</text>
</g>
<g id="clust24" class="cluster">
<title>cluster1751</title>
<polygon fill="none" stroke="black" points="2858,-8 2858,-101 2946,-101 2946,-8 2858,-8"/>
<text text-anchor="middle" x="2902" y="-85.8" font-family="Times,serif" font-size="14.00">1751</text>
</g>
<g id="clust25" class="cluster">
<title>cluster1752</title>
<polygon fill="none" stroke="black" points="2982,-8 2982,-101 3070,-101 3070,-8 2982,-8"/>
<text text-anchor="middle" x="3026" y="-85.8" font-family="Times,serif" font-size="14.00">1752</text>
</g>
<g id="clust26" class="cluster">
<title>cluster1753</title>
<polygon fill="none" stroke="black" points="3106,-8 3106,-101 3193,-101 3193,-8 3106,-8"/>
<text text-anchor="middle" x="3149.5" y="-85.8" font-family="Times,serif" font-size="14.00">1753</text>
</g>
<g id="clust27" class="cluster">
<title>cluster1754</title>
<polygon fill="none" stroke="black" points="3229,-8 3229,-101 3317,-101 3317,-8 3229,-8"/>
<text text-anchor="middle" x="3273" y="-85.8" font-family="Times,serif" font-size="14.00">1754</text>
</g>
<g id="clust28" class="cluster">
<title>cluster1755</title>
<polygon fill="none" stroke="black" points="3353,-8 3353,-101 3441,-101 3441,-8 3353,-8"/>
<text text-anchor="middle" x="3397" y="-85.8" font-family="Times,serif" font-size="14.00">1755</text>
</g>
<g id="clust29" class="cluster">
<title>cluster1756</title>
<polygon fill="none" stroke="black" points="3477,-8 3477,-101 3565,-101 3565,-8 3477,-8"/>
<text text-anchor="middle" x="3521" y="-85.8" font-family="Times,serif" font-size="14.00">1756</text>
</g>
<g id="clust30" class="cluster">
<title>cluster1757</title>
<polygon fill="none" stroke="black" points="3601,-8 3601,-101 3689,-101 3689,-8 3601,-8"/>
<text text-anchor="middle" x="3645" y="-85.8" font-family="Times,serif" font-size="14.00">1757</text>
</g>
<g id="clust31" class="cluster">
<title>cluster1758</title>
<polygon fill="none" stroke="black" points="3725,-8 3725,-101 3813,-101 3813,-8 3725,-8"/>
<text text-anchor="middle" x="3769" y="-85.8" font-family="Times,serif" font-size="14.00">1758</text>
</g>
<g id="clust32" class="cluster">
<title>cluster1759</title>
<polygon fill="none" stroke="black" points="3849,-8 3849,-101 3937,-101 3937,-8 3849,-8"/>
<text text-anchor="middle" x="3893" y="-85.8" font-family="Times,serif" font-size="14.00">1759</text>
</g>
<!-- Node0x600000712f10 -->
<g id="node1" class="node">
<title>Node0x600000712f10</title>
<polygon fill="none" stroke="black" points="8,-9 8,-77 95,-77 95,-9 8,-9"/>
<text text-anchor="middle" x="51.5" y="-66.6" font-family="Times,serif" font-size="8.00">word: Tis</text>
<polyline fill="none" stroke="black" points="8,-60 95,-60 "/>
<text text-anchor="middle" x="51.5" y="-49.6" font-family="Times,serif" font-size="8.00">size: 21</text>
<polyline fill="none" stroke="black" points="8,-43 95,-43 "/>
<text text-anchor="middle" x="51.5" y="-32.6" font-family="Times,serif" font-size="8.00">next: 0x600000715890</text>
<polyline fill="none" stroke="black" points="8,-26 95,-26 "/>
<text text-anchor="middle" x="51.5" y="-15.6" font-family="Times,serif" font-size="8.00">prev: 0x0</text>
</g>
<!-- Node0x600000715890 -->
<g id="node2" class="node">
<title>Node0x600000715890</title>
<polygon fill="none" stroke="black" points="131,-9 131,-77 218,-77 218,-9 131,-9"/>
<text text-anchor="middle" x="174.5" y="-66.6" font-family="Times,serif" font-size="8.00">word: disturb</text>
<polyline fill="none" stroke="black" points="131,-60 218,-60 "/>
<text text-anchor="middle" x="174.5" y="-49.6" font-family="Times,serif" font-size="8.00">size: 3</text>
<polyline fill="none" stroke="black" points="131,-43 218,-43 "/>
<text text-anchor="middle" x="174.5" y="-32.6" font-family="Times,serif" font-size="8.00">next: 0x600000715da0</text>
<polyline fill="none" stroke="black" points="131,-26 218,-26 "/>
<text text-anchor="middle" x="174.5" y="-15.6" font-family="Times,serif" font-size="8.00">prev: 0x600000712f10</text>
</g>
<!-- Node0x600000712f10&#45;&gt;Node0x600000715890 -->
<g id="edge1" class="edge">
<title>Node0x600000712f10:n&#45;&gt;Node0x600000715890:n</title>
<path fill="none" stroke="red" d="M95,-34C107,-34 112.25,-34 120.88,-34"/>
<polygon fill="red" stroke="red" points="121,-37.5 131,-34 121,-30.5 121,-37.5"/>
</g>
<!-- Node0x600000715da0 -->
<g id="node3" class="node">
<title>Node0x600000715da0</title>
<polygon fill="none" stroke="black" points="254,-9 254,-77 342,-77 342,-9 254,-9"/>
<text text-anchor="middle" x="298" y="-66.6" font-family="Times,serif" font-size="8.00">word: Freetown</text>
<polyline fill="none" stroke="black" points="254,-60 342,-60 "/>
<text text-anchor="middle" x="298" y="-49.6" font-family="Times,serif" font-size="8.00">size: 1</text>
<polyline fill="none" stroke="black" points="254,-43 342,-43 "/>
<text text-anchor="middle" x="298" y="-32.6" font-family="Times,serif" font-size="8.00">next: 0x600000716730</text>
<polyline fill="none" stroke="black" points="254,-26 342,-26 "/>
<text text-anchor="middle" x="298" y="-15.6" font-family="Times,serif" font-size="8.00">prev: 0x600000715890</text>
</g>
<!-- Node0x600000715890&#45;&gt;Node0x600000715da0 -->
<g id="edge2" class="edge">
<title>Node0x600000715890:n&#45;&gt;Node0x600000715da0:n</title>
<path fill="none" stroke="red" d="M218,-34C230,-34 235.25,-34 243.88,-34"/>
<polygon fill="red" stroke="red" points="244,-37.5 254,-34 244,-30.5 244,-37.5"/>
</g>
<!-- Node0x600000716730 -->
<g id="node4" class="node">
<title>Node0x600000716730</title>
<polygon fill="none" stroke="black" points="378,-9 378,-77 466,-77 466,-9 378,-9"/>
<text text-anchor="middle" x="422" y="-66.6" font-family="Times,serif" font-size="8.00">word: Right</text>
<polyline fill="none" stroke="black" points="378,-60 466,-60 "/>
<text text-anchor="middle" x="422" y="-49.6" font-family="Times,serif" font-size="8.00">size: 2</text>
<polyline fill="none" stroke="black" points="378,-43 466,-43 "/>
<text text-anchor="middle" x="422" y="-32.6" font-family="Times,serif" font-size="8.00">next: 0x600000719380</text>
<polyline fill="none" stroke="black" points="378,-26 466,-26 "/>
<text text-anchor="middle" x="422" y="-15.6" font-family="Times,serif" font-size="8.00">prev: 0x600000715da0</text>
</g>
<!-- Node0x600000715da0&#45;&gt;Node0x600000716730 -->
<g id="edge3" class="edge">
<title>Node0x600000715da0:n&#45;&gt;Node0x600000716730:n</title>
<path fill="none" stroke="red" d="M342,-34C354,-34 359.25,-34 367.88,-34"/>
<polygon fill="red" stroke="red" points="368,-37.5 378,-34 368,-30.5 368,-37.5"/>
</g>
<!-- Node0x600000719380 -->
<g id="node5" class="node">
<title>Node0x600000719380</title>
<polygon fill="none" stroke="black" points="502,-9 502,-77 590,-77 590,-9 502,-9"/>
<text text-anchor="middle" x="546" y="-66.6" font-family="Times,serif" font-size="8.00">word: choking</text>
<polyline fill="none" stroke="black" points="502,-60 590,-60 "/>
<text text-anchor="middle" x="546" y="-49.6" font-family="Times,serif" font-size="8.00">size: 1</text>
<polyline fill="none" stroke="black" points="502,-43 590,-43 "/>
<text text-anchor="middle" x="546" y="-32.6" font-family="Times,serif" font-size="8.00">next: 0x600000719da0</text>
<polyline fill="none" stroke="black" points="502,-26 590,-26 "/>
<text text-anchor="middle" x="546" y="-15.6" font-family="Times,serif" font-size="8.00">prev: 0x600000716730</text>
</g>
<!-- Node0x600000716730&#45;&gt;Node0x600000719380 -->
<g id="edge4" class="edge">
<title>Node0x600000716730:n&#45;&gt;Node0x600000719380:n</title>
<path fill="none" stroke="red" d="M466,-34C478,-34 483.25,-34 491.88,-34"/>
<polygon fill="red" stroke="red" points="492,-37.5 502,-34 492,-30.5 492,-37.5"/>
</g>
<!-- Node0x600000719da0 -->
<g id="node6" class="node">
<title>Node0x600000719da0</title>
<polygon fill="none" stroke="black" points="626,-9 626,-77 714,-77 714,-9 626,-9"/>
<text text-anchor="middle" x="670" y="-66.6" font-family="Times,serif" font-size="8.00">word: only</text>
<polyline fill="none" stroke="black" points="626,-60 714,-60 "/>
<text text-anchor="middle" x="670" y="-49.6" font-family="Times,serif" font-size="8.00">size: 9</text>
<polyline fill="none" stroke="black" points="626,-43 714,-43 "/>
<text text-anchor="middle" x="670" y="-32.6" font-family="Times,serif" font-size="8.00">next: 0x60000071bb70</text>
<polyline fill="none" stroke="black" points="626,-26 714,-26 "/>
<text text-anchor="middle" x="670" y="-15.6" font-family="Times,serif" font-size="8.00">prev: 0x600000719380</text>
</g>
<!-- Node0x600000719380&#45;&gt;Node0x600000719da0 -->
<g id="edge5" class="edge">
<title>Node0x600000719380:n&#45;&gt;Node0x600000719da0:n</title>
<path fill="none" stroke="red" d="M590,-34C602,-34 607.25,-34 615.88,-34"/>
<polygon fill="red" stroke="red" points="616,-37.5 626,-34 616,-30.5 616,-37.5"/>
</g>
<!-- Node0x60000071bb70 -->
<g id="node7" class="node">
<title>Node0x60000071bb70</title>
<polygon fill="none" stroke="black" points="750,-9 750,-77 838,-77 838,-9 750,-9"/>
<text text-anchor="middle" x="794" y="-66.6" font-family="Times,serif" font-size="8.00">word: leaf</text>
<polyline fill="none" stroke="black" points="750,-60 838,-60 "/>
<text text-anchor="middle" x="794" y="-49.6" font-family="Times,serif" font-size="8.00">size: 1</text>
<polyline fill="none" stroke="black" points="750,-43 838,-43 "/>
<text text-anchor="middle" x="794" y="-32.6" font-family="Times,serif" font-size="8.00">next: 0x600000709d40</text>
<polyline fill="none" stroke="black" points="750,-26 838,-26 "/>
<text text-anchor="middle" x="794" y="-15.6" font-family="Times,serif" font-size="8.00">prev: 0x600000719da0</text>
</g>
<!-- Node0x600000719da0&#45;&gt;Node0x60000071bb70 -->
<g id="edge6" class="edge">
<title>Node0x600000719da0:n&#45;&gt;Node0x60000071bb70:n</title>
<path fill="none" stroke="red" d="M714,-34C726,-34 731.25,-34 739.88,-34"/>
<polygon fill="red" stroke="red" points="740,-37.5 750,-34 740,-30.5 740,-37.5"/>
</g>
<!-- Node0x600000709d40 -->
<g id="node8" class="node">
<title>Node0x600000709d40</title>
<polygon fill="none" stroke="black" points="874,-9 874,-77 962,-77 962,-9 874,-9"/>
<text text-anchor="middle" x="918" y="-66.6" font-family="Times,serif" font-size="8.00">word: grey</text>
<polyline fill="none" stroke="black" points="874,-60 962,-60 "/>
<text text-anchor="middle" x="918" y="-49.6" font-family="Times,serif" font-size="8.00">size: 3</text>
<polyline fill="none" stroke="black" points="874,-43 962,-43 "/>
<text text-anchor="middle" x="918" y="-32.6" font-family="Times,serif" font-size="8.00">next: 0x600000700330</text>
<polyline fill="none" stroke="black" points="874,-26 962,-26 "/>
<text text-anchor="middle" x="918" y="-15.6" font-family="Times,serif" font-size="8.00">prev: 0x60000071bb70</text>
</g>
<!-- Node0x60000071bb70&#45;&gt;Node0x600000709d40 -->
<g id="edge7" class="edge">
<title>Node0x60000071bb70:n&#45;&gt;Node0x600000709d40:n</title>
<path fill="none" stroke="red" d="M838,-34C850,-34 855.25,-34 863.88,-34"/>
<polygon fill="red" stroke="red" points="864,-37.5 874,-34 864,-30.5 864,-37.5"/>
</g>
<!-- Node0x600000700330 -->
<g id="node9" class="node">
<title>Node0x600000700330</title>
<polygon fill="none" stroke="black" points="998,-9 998,-77 1086,-77 1086,-9 998,-9"/>
<text text-anchor="middle" x="1042" y="-66.6" font-family="Times,serif" font-size="8.00">word: chance</text>
<polyline fill="none" stroke="black" points="998,-60 1086,-60 "/>
<text text-anchor="middle" x="1042" y="-49.6" font-family="Times,serif" font-size="8.00">size: 3</text>
<polyline fill="none" stroke="black" points="998,-43 1086,-43 "/>
<text text-anchor="middle" x="1042" y="-32.6" font-family="Times,serif" font-size="8.00">next: 0x600000701aa0</text>
<polyline fill="none" stroke="black" points="998,-26 1086,-26 "/>
<text text-anchor="middle" x="1042" y="-15.6" font-family="Times,serif" font-size="8.00">prev: 0x600000709d40</text>
</g>
<!-- Node0x600000709d40&#45;&gt;Node0x600000700330 -->
<g id="edge8" class="edge">
<title>Node0x600000709d40:n&#45;&gt;Node0x600000700330:n</title>
<path fill="none" stroke="red" d="M962,-34C974,-34 979.25,-34 987.88,-34"/>
<polygon fill="red" stroke="red" points="988,-37.5 998,-34 988,-30.5 988,-37.5"/>
</g>
<!-- Node0x600000701aa0 -->
<g id="node10" class="node">
<title>Node0x600000701aa0</title>
<polygon fill="none" stroke="black" points="1122,-9 1122,-77 1210,-77 1210,-9 1122,-9"/>
<text text-anchor="middle" x="1166" y="-66.6" font-family="Times,serif" font-size="8.00">word: purblind</text>
<polyline fill="none" stroke="black" points="1122,-60 1210,-60 "/>
<text text-anchor="middle" x="1166" y="-49.6" font-family="Times,serif" font-size="8.00">size: 1</text>
<polyline fill="none" stroke="black" points="1122,-43 1210,-43 "/>
<text text-anchor="middle" x="1166" y="-32.6" font-family="Times,serif" font-size="8.00">next: 0x600000703390</text>
<polyline fill="none" stroke="black" points="1122,-26 1210,-26 "/>
<text text-anchor="middle" x="1166" y="-15.6" font-family="Times,serif" font-size="8.00">prev: 0x600000700330</text>
</g>
<!-- Node0x600000700330&#45;&gt;Node0x600000701aa0 -->
<g id="edge9" class="edge">
<title>Node0x600000700330:n&#45;&gt;Node0x600000701aa0:n</title>
<path fill="none" stroke="red" d="M1086,-34C1098,-34 1103.25,-34 1111.88,-34"/>
<polygon fill="red" stroke="red" points="1112,-37.5 1122,-34 1112,-30.5 1112,-37.5"/>
</g>
<!-- Node0x600000703390 -->
<g id="node11" class="node">
<title>Node0x600000703390</title>
<polygon fill="none" stroke="black" points="1246,-9 1246,-77 1334,-77 1334,-9 1246,-9"/>
<text text-anchor="middle" x="1290" y="-66.6" font-family="Times,serif" font-size="8.00">word: erperch</text>
<polyline fill="none" stroke="black" points="1246,-60 1334,-60 "/>
<text text-anchor="middle" x="1290" y="-49.6" font-family="Times,serif" font-size="8.00">size: 1</text>
<polyline fill="none" stroke="black" points="1246,-43 1334,-43 "/>
<text text-anchor="middle" x="1290" y="-32.6" font-family="Times,serif" font-size="8.00">next: 0x600000730960</text>
<polyline fill="none" stroke="black" points="1246,-26 1334,-26 "/>
<text text-anchor="middle" x="1290" y="-15.6" font-family="Times,serif" font-size="8.00">prev: 0x600000701aa0</text>
</g>
<!-- Node0x600000701aa0&#45;&gt;Node0x600000703390 -->
<g id="edge10" class="edge">
<title>Node0x600000701aa0:n&#45;&gt;Node0x600000703390:n</title>
<path fill="none" stroke="red" d="M1210,-34C1222,-34 1227.25,-34 1235.88,-34"/>
<polygon fill="red" stroke="red" points="1236,-37.5 1246,-34 1236,-30.5 1236,-37.5"/>
</g>
<!-- Node0x600000730960 -->
<g id="node12" class="node">
<title>Node0x600000730960</title>
<polygon fill="none" stroke="black" points="1370,-9 1370,-77 1458,-77 1458,-9 1370,-9"/>
<text text-anchor="middle" x="1414" y="-66.6" font-family="Times,serif" font-size="8.00">word: falconer</text>
<polyline fill="none" stroke="black" points="1370,-60 1458,-60 "/>
<text text-anchor="middle" x="1414" y="-49.6" font-family="Times,serif" font-size="8.00">size: 1</text>
<polyline fill="none" stroke="black" points="1370,-43 1458,-43 "/>
<text text-anchor="middle" x="1414" y="-32.6" font-family="Times,serif" font-size="8.00">next: 0x600000731770</text>
<polyline fill="none" stroke="black" points="1370,-26 1458,-26 "/>
<text text-anchor="middle" x="1414" y="-15.6" font-family="Times,serif" font-size="8.00">prev: 0x600000703390</text>
</g>
<!-- Node0x600000703390&#45;&gt;Node0x600000730960 -->
<g id="edge11" class="edge">
<title>Node0x600000703390:n&#45;&gt;Node0x600000730960:n</title>
<path fill="none" stroke="red" d="M1334,-34C1346,-34 1351.25,-34 1359.88,-34"/>
<polygon fill="red" stroke="red" points="1360,-37.5 1370,-34 1360,-30.5 1360,-37.5"/>
</g>
<!-- Node0x600000731770 -->
<g id="node13" class="node">
<title>Node0x600000731770</title>
<polygon fill="none" stroke="black" points="1494,-9 1494,-77 1582,-77 1582,-9 1494,-9"/>
<text text-anchor="middle" x="1538" y="-66.6" font-family="Times,serif" font-size="8.00">word: sucking</text>
<polyline fill="none" stroke="black" points="1494,-60 1582,-60 "/>
<text text-anchor="middle" x="1538" y="-49.6" font-family="Times,serif" font-size="8.00">size: 1</text>
<polyline fill="none" stroke="black" points="1494,-43 1582,-43 "/>
<text text-anchor="middle" x="1538" y="-32.6" font-family="Times,serif" font-size="8.00">next: 0x600000733840</text>
<polyline fill="none" stroke="black" points="1494,-26 1582,-26 "/>
<text text-anchor="middle" x="1538" y="-15.6" font-family="Times,serif" font-size="8.00">prev: 0x600000730960</text>
</g>
<!-- Node0x600000730960&#45;&gt;Node0x600000731770 -->
<g id="edge12" class="edge">
<title>Node0x600000730960:n&#45;&gt;Node0x600000731770:n</title>
<path fill="none" stroke="red" d="M1458,-34C1470,-34 1475.25,-34 1483.88,-34"/>
<polygon fill="red" stroke="red" points="1484,-37.5 1494,-34 1484,-30.5 1484,-37.5"/>
</g>
<!-- Node0x600000733840 -->
<g id="node14" class="node">
<title>Node0x600000733840</title>
<polygon fill="none" stroke="black" points="1618,-9 1618,-77 1706,-77 1706,-9 1618,-9"/>
<text text-anchor="middle" x="1662" y="-66.6" font-family="Times,serif" font-size="8.00">word: roe</text>
<polyline fill="none" stroke="black" points="1618,-60 1706,-60 "/>
<text text-anchor="middle" x="1662" y="-49.6" font-family="Times,serif" font-size="8.00">size: 1</text>
<polyline fill="none" stroke="black" points="1618,-43 1706,-43 "/>
<text text-anchor="middle" x="1662" y="-32.6" font-family="Times,serif" font-size="8.00">next: 0x600000734090</text>
<polyline fill="none" stroke="black" points="1618,-26 1706,-26 "/>
<text text-anchor="middle" x="1662" y="-15.6" font-family="Times,serif" font-size="8.00">prev: 0x600000731770</text>
</g>
<!-- Node0x600000731770&#45;&gt;Node0x600000733840 -->
<g id="edge13" class="edge">
<title>Node0x600000731770:n&#45;&gt;Node0x600000733840:n</title>
<path fill="none" stroke="red" d="M1582,-34C1594,-34 1599.25,-34 1607.88,-34"/>
<polygon fill="red" stroke="red" points="1608,-37.5 1618,-34 1608,-30.5 1608,-37.5"/>
</g>
<!-- Node0x600000734090 -->
<g id="node15" class="node">
<title>Node0x600000734090</title>
<polygon fill="none" stroke="black" points="1742,-9 1742,-77 1830,-77 1830,-9 1742,-9"/>
<text text-anchor="middle" x="1786" y="-66.6" font-family="Times,serif" font-size="8.00">word: remain</text>
<polyline fill="none" stroke="black" points="1742,-60 1830,-60 "/>
<text text-anchor="middle" x="1786" y="-49.6" font-family="Times,serif" font-size="8.00">size: 2</text>
<polyline fill="none" stroke="black" points="1742,-43 1830,-43 "/>
<text text-anchor="middle" x="1786" y="-32.6" font-family="Times,serif" font-size="8.00">next: 0x6000007363d0</text>
<polyline fill="none" stroke="black" points="1742,-26 1830,-26 "/>
<text text-anchor="middle" x="1786" y="-15.6" font-family="Times,serif" font-size="8.00">prev: 0x600000733840</text>
</g>
<!-- Node0x600000733840&#45;&gt;Node0x600000734090 -->
<g id="edge14" class="edge">
<title>Node0x600000733840:n&#45;&gt;Node0x600000734090:n</title>
<path fill="none" stroke="red" d="M1706,-34C1718,-34 1723.25,-34 1731.88,-34"/>
<polygon fill="red" stroke="red" points="1732,-37.5 1742,-34 1732,-30.5 1732,-37.5"/>
</g>
<!-- Node0x6000007363d0 -->
<g id="node16" class="node">
<title>Node0x6000007363d0</title>
<polygon fill="none" stroke="black" points="1866,-9 1866,-77 1954,-77 1954,-9 1866,-9"/>
<text text-anchor="middle" x="1910" y="-66.6" font-family="Times,serif" font-size="8.00">word: merrily</text>
<polyline fill="none" stroke="black" points="1866,-60 1954,-60 "/>
<text text-anchor="middle" x="1910" y="-49.6" font-family="Times,serif" font-size="8.00">size: 1</text>
<polyline fill="none" stroke="black" points="1866,-43 1954,-43 "/>
<text text-anchor="middle" x="1910" y="-32.6" font-family="Times,serif" font-size="8.00">next: 0x600000736a00</text>
<polyline fill="none" stroke="black" points="1866,-26 1954,-26 "/>
<text text-anchor="middle" x="1910" y="-15.6" font-family="Times,serif" font-size="8.00">prev: 0x600000734090</text>
</g>
<!-- Node0x600000734090&#45;&gt;Node0x6000007363d0 -->
<g id="edge15" class="edge">
<title>Node0x600000734090:n&#45;&gt;Node0x6000007363d0:n</title>
<path fill="none" stroke="red" d="M1830,-34C1842,-34 1847.25,-34 1855.88,-34"/>
<polygon fill="red" stroke="red" points="1856,-37.5 1866,-34 1856,-30.5 1856,-37.5"/>
</g>
<!-- Node0x600000736a00 -->
<g id="node17" class="node">
<title>Node0x600000736a00</title>
<polygon fill="none" stroke="black" points="1990,-9 1990,-77 2078,-77 2078,-9 1990,-9"/>
<text text-anchor="middle" x="2034" y="-66.6" font-family="Times,serif" font-size="8.00">word: got</text>
<polyline fill="none" stroke="black" points="1990,-60 2078,-60 "/>
<text text-anchor="middle" x="2034" y="-49.6" font-family="Times,serif" font-size="8.00">size: 3</text>
<polyline fill="none" stroke="black" points="1990,-43 2078,-43 "/>
<text text-anchor="middle" x="2034" y="-32.6" font-family="Times,serif" font-size="8.00">next: 0x600000738ea0</text>
<polyline fill="none" stroke="black" points="1990,-26 2078,-26 "/>
<text text-anchor="middle" x="2034" y="-15.6" font-family="Times,serif" font-size="8.00">prev: 0x6000007363d0</text>
</g>
<!-- Node0x6000007363d0&#45;&gt;Node0x600000736a00 -->
<g id="edge16" class="edge">
<title>Node0x6000007363d0:n&#45;&gt;Node0x600000736a00:n</title>
<path fill="none" stroke="red" d="M1954,-34C1966,-34 1971.25,-34 1979.88,-34"/>
<polygon fill="red" stroke="red" points="1980,-37.5 1990,-34 1980,-30.5 1980,-37.5"/>
</g>
<!-- Node0x600000738ea0 -->
<g id="node18" class="node">
<title>Node0x600000738ea0</title>
<polygon fill="none" stroke="black" points="2114,-9 2114,-77 2202,-77 2202,-9 2114,-9"/>
<text text-anchor="middle" x="2158" y="-66.6" font-family="Times,serif" font-size="8.00">word: Citizen</text>
<polyline fill="none" stroke="black" points="2114,-60 2202,-60 "/>
<text text-anchor="middle" x="2158" y="-49.6" font-family="Times,serif" font-size="8.00">size: 2</text>
<polyline fill="none" stroke="black" points="2114,-43 2202,-43 "/>
<text text-anchor="middle" x="2158" y="-32.6" font-family="Times,serif" font-size="8.00">next: 0x600000739b90</text>
<polyline fill="none" stroke="black" points="2114,-26 2202,-26 "/>
<text text-anchor="middle" x="2158" y="-15.6" font-family="Times,serif" font-size="8.00">prev: 0x600000736a00</text>
</g>
<!-- Node0x600000736a00&#45;&gt;Node0x600000738ea0 -->
<g id="edge17" class="edge">
<title>Node0x600000736a00:n&#45;&gt;Node0x600000738ea0:n</title>
<path fill="none" stroke="red" d="M2078,-34C2090,-34 2095.25,-34 2103.88,-34"/>
<polygon fill="red" stroke="red" points="2104,-37.5 2114,-34 2104,-30.5 2104,-37.5"/>
</g>
<!-- Node0x600000739b90 -->
<g id="node19" class="node">
<title>Node0x600000739b90</title>
<polygon fill="none" stroke="black" points="2238,-9 2238,-77 2326,-77 2326,-9 2238,-9"/>
<text text-anchor="middle" x="2282" y="-66.6" font-family="Times,serif" font-size="8.00">word: Phoebus</text>
<polyline fill="none" stroke="black" points="2238,-60 2326,-60 "/>
<text text-anchor="middle" x="2282" y="-49.6" font-family="Times,serif" font-size="8.00">size: 1</text>
<polyline fill="none" stroke="black" points="2238,-43 2326,-43 "/>
<text text-anchor="middle" x="2282" y="-32.6" font-family="Times,serif" font-size="8.00">next: 0x60000073a700</text>
<polyline fill="none" stroke="black" points="2238,-26 2326,-26 "/>
<text text-anchor="middle" x="2282" y="-15.6" font-family="Times,serif" font-size="8.00">prev: 0x600000738ea0</text>
</g>
<!-- Node0x600000738ea0&#45;&gt;Node0x600000739b90 -->
<g id="edge18" class="edge">
<title>Node0x600000738ea0:n&#45;&gt;Node0x600000739b90:n</title>
<path fill="none" stroke="red" d="M2202,-34C2214,-34 2219.25,-34 2227.88,-34"/>
<polygon fill="red" stroke="red" points="2228,-37.5 2238,-34 2228,-30.5 2228,-37.5"/>
</g>
<!-- Node0x60000073a700 -->
<g id="node20" class="node">
<title>Node0x60000073a700</title>
<polygon fill="none" stroke="black" points="2362,-9 2362,-77 2450,-77 2450,-9 2362,-9"/>
<text text-anchor="middle" x="2406" y="-66.6" font-family="Times,serif" font-size="8.00">word: Brief</text>
<polyline fill="none" stroke="black" points="2362,-60 2450,-60 "/>
<text text-anchor="middle" x="2406" y="-49.6" font-family="Times,serif" font-size="8.00">size: 1</text>
<polyline fill="none" stroke="black" points="2362,-43 2450,-43 "/>
<text text-anchor="middle" x="2406" y="-32.6" font-family="Times,serif" font-size="8.00">next: 0x60000073b720</text>
<polyline fill="none" stroke="black" points="2362,-26 2450,-26 "/>
<text text-anchor="middle" x="2406" y="-15.6" font-family="Times,serif" font-size="8.00">prev: 0x600000739b90</text>
</g>
<!-- Node0x600000739b90&#45;&gt;Node0x60000073a700 -->
<g id="edge19" class="edge">
<title>Node0x600000739b90:n&#45;&gt;Node0x60000073a700:n</title>
<path fill="none" stroke="red" d="M2326,-34C2338,-34 2343.25,-34 2351.88,-34"/>
<polygon fill="red" stroke="red" points="2352,-37.5 2362,-34 2352,-30.5 2352,-37.5"/>
</g>
<!-- Node0x60000073b720 -->
<g id="node21" class="node">
<title>Node0x60000073b720</title>
<polygon fill="none" stroke="black" points="2486,-9 2486,-77 2574,-77 2574,-9 2486,-9"/>
<text text-anchor="middle" x="2530" y="-66.6" font-family="Times,serif" font-size="8.00">word: wailing</text>
<polyline fill="none" stroke="black" points="2486,-60 2574,-60 "/>
<text text-anchor="middle" x="2530" y="-49.6" font-family="Times,serif" font-size="8.00">size: 1</text>
<polyline fill="none" stroke="black" points="2486,-43 2574,-43 "/>
<text text-anchor="middle" x="2530" y="-32.6" font-family="Times,serif" font-size="8.00">next: 0x60000073cb10</text>
<polyline fill="none" stroke="black" points="2486,-26 2574,-26 "/>
<text text-anchor="middle" x="2530" y="-15.6" font-family="Times,serif" font-size="8.00">prev: 0x60000073a700</text>
</g>
<!-- Node0x60000073a700&#45;&gt;Node0x60000073b720 -->
<g id="edge20" class="edge">
<title>Node0x60000073a700:n&#45;&gt;Node0x60000073b720:n</title>
<path fill="none" stroke="red" d="M2450,-34C2462,-34 2467.25,-34 2475.88,-34"/>
<polygon fill="red" stroke="red" points="2476,-37.5 2486,-34 2476,-30.5 2476,-37.5"/>
</g>
<!-- Node0x60000073cb10 -->
<g id="node22" class="node">
<title>Node0x60000073cb10</title>
<polygon fill="none" stroke="black" points="2610,-9 2610,-77 2698,-77 2698,-9 2610,-9"/>
<text text-anchor="middle" x="2654" y="-66.6" font-family="Times,serif" font-size="8.00">word: cursed</text>
<polyline fill="none" stroke="black" points="2610,-60 2698,-60 "/>
<text text-anchor="middle" x="2654" y="-49.6" font-family="Times,serif" font-size="8.00">size: 2</text>
<polyline fill="none" stroke="black" points="2610,-43 2698,-43 "/>
<text text-anchor="middle" x="2654" y="-32.6" font-family="Times,serif" font-size="8.00">next: 0x60000073d680</text>
<polyline fill="none" stroke="black" points="2610,-26 2698,-26 "/>
<text text-anchor="middle" x="2654" y="-15.6" font-family="Times,serif" font-size="8.00">prev: 0x60000073b720</text>
</g>
<!-- Node0x60000073b720&#45;&gt;Node0x60000073cb10 -->
<g id="edge21" class="edge">
<title>Node0x60000073b720:n&#45;&gt;Node0x60000073cb10:n</title>
<path fill="none" stroke="red" d="M2574,-34C2586,-34 2591.25,-34 2599.88,-34"/>
<polygon fill="red" stroke="red" points="2600,-37.5 2610,-34 2600,-30.5 2600,-37.5"/>
</g>
<!-- Node0x60000073d680 -->
<g id="node23" class="node">
<title>Node0x60000073d680</title>
<polygon fill="none" stroke="black" points="2734,-9 2734,-77 2822,-77 2822,-9 2734,-9"/>
<text text-anchor="middle" x="2778" y="-66.6" font-family="Times,serif" font-size="8.00">word: unluckily</text>
<polyline fill="none" stroke="black" points="2734,-60 2822,-60 "/>
<text text-anchor="middle" x="2778" y="-49.6" font-family="Times,serif" font-size="8.00">size: 1</text>
<polyline fill="none" stroke="black" points="2734,-43 2822,-43 "/>
<text text-anchor="middle" x="2778" y="-32.6" font-family="Times,serif" font-size="8.00">next: 0x60000073e580</text>
<polyline fill="none" stroke="black" points="2734,-26 2822,-26 "/>
<text text-anchor="middle" x="2778" y="-15.6" font-family="Times,serif" font-size="8.00">prev: 0x60000073cb10</text>
</g>
<!-- Node0x60000073cb10&#45;&gt;Node0x60000073d680 -->
<g id="edge22" class="edge">
<title>Node0x60000073cb10:n&#45;&gt;Node0x60000073d680:n</title>
<path fill="none" stroke="red" d="M2698,-34C2710,-34 2715.25,-34 2723.88,-34"/>
<polygon fill="red" stroke="red" points="2724,-37.5 2734,-34 2724,-30.5 2724,-37.5"/>
</g>
<!-- Node0x60000073e580 -->
<g id="node24" class="node">
<title>Node0x60000073e580</title>
<polygon fill="none" stroke="black" points="2858,-9 2858,-77 2946,-77 2946,-9 2858,-9"/>
<text text-anchor="middle" x="2902" y="-66.6" font-family="Times,serif" font-size="8.00">word: Ho</text>
<polyline fill="none" stroke="black" points="2858,-60 2946,-60 "/>
<text text-anchor="middle" x="2902" y="-49.6" font-family="Times,serif" font-size="8.00">size: 1</text>
<polyline fill="none" stroke="black" points="2858,-43 2946,-43 "/>
<text text-anchor="middle" x="2902" y="-32.6" font-family="Times,serif" font-size="8.00">next: 0x60000073f060</text>
<polyline fill="none" stroke="black" points="2858,-26 2946,-26 "/>
<text text-anchor="middle" x="2902" y="-15.6" font-family="Times,serif" font-size="8.00">prev: 0x60000073d680</text>
</g>
<!-- Node0x60000073d680&#45;&gt;Node0x60000073e580 -->
<g id="edge23" class="edge">
<title>Node0x60000073d680:n&#45;&gt;Node0x60000073e580:n</title>
<path fill="none" stroke="red" d="M2822,-34C2834,-34 2839.25,-34 2847.88,-34"/>
<polygon fill="red" stroke="red" points="2848,-37.5 2858,-34 2848,-30.5 2848,-37.5"/>
</g>
<!-- Node0x60000073f060 -->
<g id="node25" class="node">
<title>Node0x60000073f060</title>
<polygon fill="none" stroke="black" points="2982,-9 2982,-77 3070,-77 3070,-9 2982,-9"/>
<text text-anchor="middle" x="3026" y="-66.6" font-family="Times,serif" font-size="8.00">word: Proud</text>
<polyline fill="none" stroke="black" points="2982,-60 3070,-60 "/>
<text text-anchor="middle" x="3026" y="-49.6" font-family="Times,serif" font-size="8.00">size: 2</text>
<polyline fill="none" stroke="black" points="2982,-43 3070,-43 "/>
<text text-anchor="middle" x="3026" y="-32.6" font-family="Times,serif" font-size="8.00">next: 0x600000705dd0</text>
<polyline fill="none" stroke="black" points="2982,-26 3070,-26 "/>
<text text-anchor="middle" x="3026" y="-15.6" font-family="Times,serif" font-size="8.00">prev: 0x60000073e580</text>
</g>
<!-- Node0x60000073e580&#45;&gt;Node0x60000073f060 -->
<g id="edge24" class="edge">
<title>Node0x60000073e580:n&#45;&gt;Node0x60000073f060:n</title>
<path fill="none" stroke="red" d="M2946,-34C2958,-34 2963.25,-34 2971.88,-34"/>
<polygon fill="red" stroke="red" points="2972,-37.5 2982,-34 2972,-30.5 2972,-37.5"/>
</g>
<!-- Node0x600000705dd0 -->
<g id="node26" class="node">
<title>Node0x600000705dd0</title>
<polygon fill="none" stroke="black" points="3106,-9 3106,-77 3193,-77 3193,-9 3106,-9"/>
<text text-anchor="middle" x="3149.5" y="-66.6" font-family="Times,serif" font-size="8.00">word: harlotry</text>
<polyline fill="none" stroke="black" points="3106,-60 3193,-60 "/>
<text text-anchor="middle" x="3149.5" y="-49.6" font-family="Times,serif" font-size="8.00">size: 1</text>
<polyline fill="none" stroke="black" points="3106,-43 3193,-43 "/>
<text text-anchor="middle" x="3149.5" y="-32.6" font-family="Times,serif" font-size="8.00">next: 0x60000070ac70</text>
<polyline fill="none" stroke="black" points="3106,-26 3193,-26 "/>
<text text-anchor="middle" x="3149.5" y="-15.6" font-family="Times,serif" font-size="8.00">prev: 0x60000073f060</text>
</g>
<!-- Node0x60000073f060&#45;&gt;Node0x600000705dd0 -->
<g id="edge25" class="edge">
<title>Node0x60000073f060:n&#45;&gt;Node0x600000705dd0:n</title>
<path fill="none" stroke="red" d="M3070,-34C3082,-34 3087.25,-34 3095.88,-34"/>
<polygon fill="red" stroke="red" points="3096,-37.5 3106,-34 3096,-30.5 3096,-37.5"/>
</g>
<!-- Node0x60000070ac70 -->
<g id="node27" class="node">
<title>Node0x60000070ac70</title>
<polygon fill="none" stroke="black" points="3229,-9 3229,-77 3317,-77 3317,-9 3229,-9"/>
<text text-anchor="middle" x="3273" y="-66.6" font-family="Times,serif" font-size="8.00">word: merriment</text>
<polyline fill="none" stroke="black" points="3229,-60 3317,-60 "/>
<text text-anchor="middle" x="3273" y="-49.6" font-family="Times,serif" font-size="8.00">size: 1</text>
<polyline fill="none" stroke="black" points="3229,-43 3317,-43 "/>
<text text-anchor="middle" x="3273" y="-32.6" font-family="Times,serif" font-size="8.00">next: 0x600000724000</text>
<polyline fill="none" stroke="black" points="3229,-26 3317,-26 "/>
<text text-anchor="middle" x="3273" y="-15.6" font-family="Times,serif" font-size="8.00">prev: 0x600000705dd0</text>
</g>
<!-- Node0x600000705dd0&#45;&gt;Node0x60000070ac70 -->
<g id="edge26" class="edge">
<title>Node0x600000705dd0:n&#45;&gt;Node0x60000070ac70:n</title>
<path fill="none" stroke="red" d="M3193,-34C3205,-34 3210.25,-34 3218.88,-34"/>
<polygon fill="red" stroke="red" points="3219,-37.5 3229,-34 3219,-30.5 3219,-37.5"/>
</g>
<!-- Node0x600000724000 -->
<g id="node28" class="node">
<title>Node0x600000724000</title>
<polygon fill="none" stroke="black" points="3353,-9 3353,-77 3441,-77 3441,-9 3353,-9"/>
<text text-anchor="middle" x="3397" y="-66.6" font-family="Times,serif" font-size="8.00">word: thinly</text>
<polyline fill="none" stroke="black" points="3353,-60 3441,-60 "/>
<text text-anchor="middle" x="3397" y="-49.6" font-family="Times,serif" font-size="8.00">size: 1</text>
<polyline fill="none" stroke="black" points="3353,-43 3441,-43 "/>
<text text-anchor="middle" x="3397" y="-32.6" font-family="Times,serif" font-size="8.00">next: 0x600000726dc0</text>
<polyline fill="none" stroke="black" points="3353,-26 3441,-26 "/>
<text text-anchor="middle" x="3397" y="-15.6" font-family="Times,serif" font-size="8.00">prev: 0x60000070ac70</text>
</g>
<!-- Node0x60000070ac70&#45;&gt;Node0x600000724000 -->
<g id="edge27" class="edge">
<title>Node0x60000070ac70:n&#45;&gt;Node0x600000724000:n</title>
<path fill="none" stroke="red" d="M3317,-34C3329,-34 3334.25,-34 3342.88,-34"/>
<polygon fill="red" stroke="red" points="3343,-37.5 3353,-34 3343,-30.5 3343,-37.5"/>
</g>
<!-- Node0x600000726dc0 -->
<g id="node29" class="node">
<title>Node0x600000726dc0</title>
<polygon fill="none" stroke="black" points="3477,-9 3477,-77 3565,-77 3565,-9 3477,-9"/>
<text text-anchor="middle" x="3521" y="-66.6" font-family="Times,serif" font-size="8.00">word: missheathed</text>
<polyline fill="none" stroke="black" points="3477,-60 3565,-60 "/>
<text text-anchor="middle" x="3521" y="-49.6" font-family="Times,serif" font-size="8.00">size: 1</text>
<polyline fill="none" stroke="black" points="3477,-43 3565,-43 "/>
<text text-anchor="middle" x="3521" y="-32.6" font-family="Times,serif" font-size="8.00">next: 0x600000726e80</text>
<polyline fill="none" stroke="black" points="3477,-26 3565,-26 "/>
<text text-anchor="middle" x="3521" y="-15.6" font-family="Times,serif" font-size="8.00">prev: 0x600000724000</text>
</g>
<!-- Node0x600000724000&#45;&gt;Node0x600000726dc0 -->
<g id="edge28" class="edge">
<title>Node0x600000724000:n&#45;&gt;Node0x600000726dc0:n</title>
<path fill="none" stroke="red" d="M3441,-34C3453,-34 3458.25,-34 3466.88,-34"/>
<polygon fill="red" stroke="red" points="3467,-37.5 3477,-34 3467,-30.5 3467,-37.5"/>
</g>
<!-- Node0x600000726e80 -->
<g id="node30" class="node">
<title>Node0x600000726e80</title>
<polygon fill="none" stroke="black" points="3601,-9 3601,-77 3689,-77 3689,-9 3601,-9"/>
<text text-anchor="middle" x="3645" y="-66.6" font-family="Times,serif" font-size="8.00">word: tonight</text>
<polyline fill="none" stroke="black" points="3601,-60 3689,-60 "/>
<text text-anchor="middle" x="3645" y="-49.6" font-family="Times,serif" font-size="8.00">size: 1</text>
<polyline fill="none" stroke="black" points="3601,-43 3689,-43 "/>
<text text-anchor="middle" x="3645" y="-32.6" font-family="Times,serif" font-size="8.00">next: 0x6000007271b0</text>
<polyline fill="none" stroke="black" points="3601,-26 3689,-26 "/>
<text text-anchor="middle" x="3645" y="-15.6" font-family="Times,serif" font-size="8.00">prev: 0x600000726dc0</text>
</g>
<!-- Node0x600000726dc0&#45;&gt;Node0x600000726e80 -->
<g id="edge29" class="edge">
<title>Node0x600000726dc0:n&#45;&gt;Node0x600000726e80:n</title>
<path fill="none" stroke="red" d="M3565,-34C3577,-34 3582.25,-34 3590.88,-34"/>
<polygon fill="red" stroke="red" points="3591,-37.5 3601,-34 3591,-30.5 3591,-37.5"/>
</g>
<!-- Node0x6000007271b0 -->
<g id="node31" class="node">
<title>Node0x6000007271b0</title>
<polygon fill="none" stroke="black" points="3725,-9 3725,-77 3813,-77 3813,-9 3725,-9"/>
<text text-anchor="middle" x="3769" y="-66.6" font-family="Times,serif" font-size="8.00">word: purge</text>
<polyline fill="none" stroke="black" points="3725,-60 3813,-60 "/>
<text text-anchor="middle" x="3769" y="-49.6" font-family="Times,serif" font-size="8.00">size: 1</text>
<polyline fill="none" stroke="black" points="3725,-43 3813,-43 "/>
<text text-anchor="middle" x="3769" y="-32.6" font-family="Times,serif" font-size="8.00">next: 0x600000727480</text>
<polyline fill="none" stroke="black" points="3725,-26 3813,-26 "/>
<text text-anchor="middle" x="3769" y="-15.6" font-family="Times,serif" font-size="8.00">prev: 0x600000726e80</text>
</g>
<!-- Node0x600000726e80&#45;&gt;Node0x6000007271b0 -->
<g id="edge30" class="edge">
<title>Node0x600000726e80:n&#45;&gt;Node0x6000007271b0:n</title>
<path fill="none" stroke="red" d="M3689,-34C3701,-34 3706.25,-34 3714.88,-34"/>
<polygon fill="red" stroke="red" points="3715,-37.5 3725,-34 3715,-30.5 3715,-37.5"/>
</g>
<!-- Node0x600000727480 -->
<g id="node32" class="node">
<title>Node0x600000727480</title>
<polygon fill="none" stroke="black" points="3849,-9 3849,-77 3937,-77 3937,-9 3849,-9"/>
<text text-anchor="middle" x="3893" y="-66.6" font-family="Times,serif" font-size="8.00">word: prefixed</text>
<polyline fill="none" stroke="black" points="3849,-60 3937,-60 "/>
<text text-anchor="middle" x="3893" y="-49.6" font-family="Times,serif" font-size="8.00">size: 1</text>
<polyline fill="none" stroke="black" points="3849,-43 3937,-43 "/>
<text text-anchor="middle" x="3893" y="-32.6" font-family="Times,serif" font-size="8.00">next: 0x0</text>
<polyline fill="none" stroke="black" points="3849,-26 3937,-26 "/>
<text text-anchor="middle" x="3893" y="-15.6" font-family="Times,serif" font-size="8.00">prev: 0x6000007271b0</text>
</g>
<!-- Node0x6000007271b0&#45;&gt;Node0x600000727480 -->
<g id="edge31" class="edge">
<title>Node0x6000007271b0:n&#45;&gt;Node0x600000727480:n</title>
<path fill="none" stroke="red" d="M3813,-34C3825,-34 3830.25,-34 3838.88,-34"/>
<polygon fill="red" stroke="red" points="3839,-37.5 3849,-34 3839,-30.5 3839,-37.5"/>
</g>
</g>
</svg>
