<?xml version="1.0" encoding="UTF-8" standalone="no"?>
<!DOCTYPE svg PUBLIC "-//W3C//DTD SVG 1.1//EN"
 "http://www.w3.org/Graphics/SVG/1.1/DTD/svg11.dtd">
<!-- Generated by graphviz version 2.50.0 (20211204.2007)
 -->
<!-- Title: G Pages: 1 -->
<svg width="4321pt" height="117pt"
 viewBox="0.00 0.00 4321.00 117.00" xmlns="http://www.w3.org/2000/svg" xmlns:xlink="http://www.w3.org/1999/xlink">
<g id="graph0" class="graph" transform="scale(1 1) rotate(0) translate(4 113)">
<title>G</title>
<polygon fill="white" stroke="transparent" points="-4,4 -4,-113 4317,-113 4317,4 -4,4"/>
<g id="clust1" class="cluster">
<title>cluster1493</title>
<polygon fill="none" stroke="black" points="8,-8 8,-101 95,-101 95,-8 8,-8"/>
<text text-anchor="middle" x="51.5" y="-85.8" font-family="Times,serif" font-size="14.00">1493</text>
</g>
<g id="clust2" class="cluster">
<title>cluster1494</title>
<polygon fill="none" stroke="black" points="131,-8 131,-101 219,-101 219,-8 131,-8"/>
<text text-anchor="middle" x="175" y="-85.8" font-family="Times,serif" font-size="14.00">1494</text>
</g>
<g id="clust3" class="cluster">
<title>cluster1495</title>
<polygon fill="none" stroke="black" points="255,-8 255,-101 343,-101 343,-8 255,-8"/>
<text text-anchor="middle" x="299" y="-85.8" font-family="Times,serif" font-size="14.00">1495</text>
</g>
<g id="clust4" class="cluster">
<title>cluster1496</title>
<polygon fill="none" stroke="black" points="379,-8 379,-101 467,-101 467,-8 379,-8"/>
<text text-anchor="middle" x="423" y="-85.8" font-family="Times,serif" font-size="14.00">1496</text>
</g>
<g id="clust5" class="cluster">
<title>cluster1497</title>
<polygon fill="none" stroke="black" points="503,-8 503,-101 591,-101 591,-8 503,-8"/>
<text text-anchor="middle" x="547" y="-85.8" font-family="Times,serif" font-size="14.00">1497</text>
</g>
<g id="clust6" class="cluster">
<title>cluster1498</title>
<polygon fill="none" stroke="black" points="627,-8 627,-101 714,-101 714,-8 627,-8"/>
<text text-anchor="middle" x="670.5" y="-85.8" font-family="Times,serif" font-size="14.00">1498</text>
</g>
<g id="clust7" class="cluster">
<title>cluster1499</title>
<polygon fill="none" stroke="black" points="750,-8 750,-101 838,-101 838,-8 750,-8"/>
<text text-anchor="middle" x="794" y="-85.8" font-family="Times,serif" font-size="14.00">1499</text>
</g>
<g id="clust8" class="cluster">
<title>cluster1500</title>
<polygon fill="none" stroke="black" points="874,-8 874,-101 962,-101 962,-8 874,-8"/>
<text text-anchor="middle" x="918" y="-85.8" font-family="Times,serif" font-size="14.00">1500</text>
</g>
<g id="clust9" class="cluster">
<title>cluster1501</title>
<polygon fill="none" stroke="black" points="998,-8 998,-101 1086,-101 1086,-8 998,-8"/>
<text text-anchor="middle" x="1042" y="-85.8" font-family="Times,serif" font-size="14.00">1501</text>
</g>
<g id="clust10" class="cluster">
<title>cluster1502</title>
<polygon fill="none" stroke="black" points="1122,-8 1122,-101 1210,-101 1210,-8 1122,-8"/>
<text text-anchor="middle" x="1166" y="-85.8" font-family="Times,serif" font-size="14.00">1502</text>
</g>
<g id="clust11" class="cluster">
<title>cluster1503</title>
<polygon fill="none" stroke="black" points="1246,-8 1246,-101 1334,-101 1334,-8 1246,-8"/>
<text text-anchor="middle" x="1290" y="-85.8" font-family="Times,serif" font-size="14.00">1503</text>
</g>
<g id="clust12" class="cluster">
<title>cluster1504</title>
<polygon fill="none" stroke="black" points="1370,-8 1370,-101 1458,-101 1458,-8 1370,-8"/>
<text text-anchor="middle" x="1414" y="-85.8" font-family="Times,serif" font-size="14.00">1504</text>
</g>
<g id="clust13" class="cluster">
<title>cluster1505</title>
<polygon fill="none" stroke="black" points="1494,-8 1494,-101 1582,-101 1582,-8 1494,-8"/>
<text text-anchor="middle" x="1538" y="-85.8" font-family="Times,serif" font-size="14.00">1505</text>
</g>
<g id="clust14" class="cluster">
<title>cluster1506</title>
<polygon fill="none" stroke="black" points="1618,-8 1618,-101 1705,-101 1705,-8 1618,-8"/>
<text text-anchor="middle" x="1661.5" y="-85.8" font-family="Times,serif" font-size="14.00">1506</text>
</g>
<g id="clust15" class="cluster">
<title>cluster1507</title>
<polygon fill="none" stroke="black" points="1741,-8 1741,-101 1829,-101 1829,-8 1741,-8"/>
<text text-anchor="middle" x="1785" y="-85.8" font-family="Times,serif" font-size="14.00">1507</text>
</g>
<g id="clust16" class="cluster">
<title>cluster1508</title>
<polygon fill="none" stroke="black" points="1865,-8 1865,-101 1953,-101 1953,-8 1865,-8"/>
<text text-anchor="middle" x="1909" y="-85.8" font-family="Times,serif" font-size="14.00">1508</text>
</g>
<g id="clust17" class="cluster">
<title>cluster1509</title>
<polygon fill="none" stroke="black" points="1989,-8 1989,-101 2077,-101 2077,-8 1989,-8"/>
<text text-anchor="middle" x="2033" y="-85.8" font-family="Times,serif" font-size="14.00">1509</text>
</g>
<g id="clust18" class="cluster">
<title>cluster1510</title>
<polygon fill="none" stroke="black" points="2113,-8 2113,-101 2200,-101 2200,-8 2113,-8"/>
<text text-anchor="middle" x="2156.5" y="-85.8" font-family="Times,serif" font-size="14.00">1510</text>
</g>
<g id="clust19" class="cluster">
<title>cluster1511</title>
<polygon fill="none" stroke="black" points="2236,-8 2236,-101 2323,-101 2323,-8 2236,-8"/>
<text text-anchor="middle" x="2279.5" y="-85.8" font-family="Times,serif" font-size="14.00">1511</text>
</g>
<g id="clust20" class="cluster">
<title>cluster1512</title>
<polygon fill="none" stroke="black" points="2359,-8 2359,-101 2447,-101 2447,-8 2359,-8"/>
<text text-anchor="middle" x="2403" y="-85.8" font-family="Times,serif" font-size="14.00">1512</text>
</g>
<g id="clust21" class="cluster">
<title>cluster1513</title>
<polygon fill="none" stroke="black" points="2483,-8 2483,-101 2571,-101 2571,-8 2483,-8"/>
<text text-anchor="middle" x="2527" y="-85.8" font-family="Times,serif" font-size="14.00">1513</text>
</g>
<g id="clust22" class="cluster">
<title>cluster1514</title>
<polygon fill="none" stroke="black" points="2607,-8 2607,-101 2695,-101 2695,-8 2607,-8"/>
<text text-anchor="middle" x="2651" y="-85.8" font-family="Times,serif" font-size="14.00">1514</text>
</g>
<g id="clust23" class="cluster">
<title>cluster1515</title>
<polygon fill="none" stroke="black" points="2731,-8 2731,-101 2819,-101 2819,-8 2731,-8"/>
<text text-anchor="middle" x="2775" y="-85.8" font-family="Times,serif" font-size="14.00">1515</text>
</g>
<g id="clust24" class="cluster">
<title>cluster1516</title>
<polygon fill="none" stroke="black" points="2855,-8 2855,-101 2943,-101 2943,-8 2855,-8"/>
<text text-anchor="middle" x="2899" y="-85.8" font-family="Times,serif" font-size="14.00">1516</text>
</g>
<g id="clust25" class="cluster">
<title>cluster1517</title>
<polygon fill="none" stroke="black" points="2979,-8 2979,-101 3066,-101 3066,-8 2979,-8"/>
<text text-anchor="middle" x="3022.5" y="-85.8" font-family="Times,serif" font-size="14.00">1517</text>
</g>
<g id="clust26" class="cluster">
<title>cluster1518</title>
<polygon fill="none" stroke="black" points="3102,-8 3102,-101 3190,-101 3190,-8 3102,-8"/>
<text text-anchor="middle" x="3146" y="-85.8" font-family="Times,serif" font-size="14.00">1518</text>
</g>
<g id="clust27" class="cluster">
<title>cluster1519</title>
<polygon fill="none" stroke="black" points="3226,-8 3226,-101 3314,-101 3314,-8 3226,-8"/>
<text text-anchor="middle" x="3270" y="-85.8" font-family="Times,serif" font-size="14.00">1519</text>
</g>
<g id="clust28" class="cluster">
<title>cluster1520</title>
<polygon fill="none" stroke="black" points="3350,-8 3350,-101 3438,-101 3438,-8 3350,-8"/>
<text text-anchor="middle" x="3394" y="-85.8" font-family="Times,serif" font-size="14.00">1520</text>
</g>
<g id="clust29" class="cluster">
<title>cluster1521</title>
<polygon fill="none" stroke="black" points="3474,-8 3474,-101 3562,-101 3562,-8 3474,-8"/>
<text text-anchor="middle" x="3518" y="-85.8" font-family="Times,serif" font-size="14.00">1521</text>
</g>
<g id="clust30" class="cluster">
<title>cluster1522</title>
<polygon fill="none" stroke="black" points="3598,-8 3598,-101 3686,-101 3686,-8 3598,-8"/>
<text text-anchor="middle" x="3642" y="-85.8" font-family="Times,serif" font-size="14.00">1522</text>
</g>
<g id="clust31" class="cluster">
<title>cluster1523</title>
<polygon fill="none" stroke="black" points="3722,-8 3722,-101 3810,-101 3810,-8 3722,-8"/>
<text text-anchor="middle" x="3766" y="-85.8" font-family="Times,serif" font-size="14.00">1523</text>
</g>
<g id="clust32" class="cluster">
<title>cluster1524</title>
<polygon fill="none" stroke="black" points="3846,-8 3846,-101 3934,-101 3934,-8 3846,-8"/>
<text text-anchor="middle" x="3890" y="-85.8" font-family="Times,serif" font-size="14.00">1524</text>
</g>
<g id="clust33" class="cluster">
<title>cluster1525</title>
<polygon fill="none" stroke="black" points="3970,-8 3970,-101 4058,-101 4058,-8 3970,-8"/>
<text text-anchor="middle" x="4014" y="-85.8" font-family="Times,serif" font-size="14.00">1525</text>
</g>
<g id="clust34" class="cluster">
<title>cluster1526</title>
<polygon fill="none" stroke="black" points="4094,-8 4094,-101 4182,-101 4182,-8 4094,-8"/>
<text text-anchor="middle" x="4138" y="-85.8" font-family="Times,serif" font-size="14.00">1526</text>
</g>
<g id="clust35" class="cluster">
<title>cluster1527</title>
<polygon fill="none" stroke="black" points="4218,-8 4218,-101 4305,-101 4305,-8 4218,-8"/>
<text text-anchor="middle" x="4261.5" y="-85.8" font-family="Times,serif" font-size="14.00">1527</text>
</g>
<!-- Node0x600001e61d70 -->
<g id="node1" class="node">
<title>Node0x600001e61d70</title>
<polygon fill="none" stroke="black" points="8,-9 8,-77 95,-77 95,-9 8,-9"/>
<text text-anchor="middle" x="51.5" y="-66.6" font-family="Times,serif" font-size="8.00">word: And</text>
<polyline fill="none" stroke="black" points="8,-60 95,-60 "/>
<text text-anchor="middle" x="51.5" y="-49.6" font-family="Times,serif" font-size="8.00">size: 229</text>
<polyline fill="none" stroke="black" points="8,-43 95,-43 "/>
<text text-anchor="middle" x="51.5" y="-32.6" font-family="Times,serif" font-size="8.00">next: 0x600001e629a0</text>
<polyline fill="none" stroke="black" points="8,-26 95,-26 "/>
<text text-anchor="middle" x="51.5" y="-15.6" font-family="Times,serif" font-size="8.00">prev: 0x0</text>
</g>
<!-- Node0x600001e629a0 -->
<g id="node2" class="node">
<title>Node0x600001e629a0</title>
<polygon fill="none" stroke="black" points="131,-9 131,-77 219,-77 219,-9 131,-9"/>
<text text-anchor="middle" x="175" y="-66.6" font-family="Times,serif" font-size="8.00">word: thou</text>
<polyline fill="none" stroke="black" points="131,-60 219,-60 "/>
<text text-anchor="middle" x="175" y="-49.6" font-family="Times,serif" font-size="8.00">size: 236</text>
<polyline fill="none" stroke="black" points="131,-43 219,-43 "/>
<text text-anchor="middle" x="175" y="-32.6" font-family="Times,serif" font-size="8.00">next: 0x600001e6a700</text>
<polyline fill="none" stroke="black" points="131,-26 219,-26 "/>
<text text-anchor="middle" x="175" y="-15.6" font-family="Times,serif" font-size="8.00">prev: 0x600001e61d70</text>
</g>
<!-- Node0x600001e61d70&#45;&gt;Node0x600001e629a0 -->
<g id="edge1" class="edge">
<title>Node0x600001e61d70:n&#45;&gt;Node0x600001e629a0:n</title>
<path fill="none" stroke="red" d="M95,-34C107,-34 112.25,-34 120.88,-34"/>
<polygon fill="red" stroke="red" points="121,-37.5 131,-34 121,-30.5 121,-37.5"/>
</g>
<!-- Node0x600001e6a700 -->
<g id="node3" class="node">
<title>Node0x600001e6a700</title>
<polygon fill="none" stroke="black" points="255,-9 255,-77 343,-77 343,-9 255,-9"/>
<text text-anchor="middle" x="299" y="-66.6" font-family="Times,serif" font-size="8.00">word: hour</text>
<polyline fill="none" stroke="black" points="255,-60 343,-60 "/>
<text text-anchor="middle" x="299" y="-49.6" font-family="Times,serif" font-size="8.00">size: 16</text>
<polyline fill="none" stroke="black" points="255,-43 343,-43 "/>
<text text-anchor="middle" x="299" y="-32.6" font-family="Times,serif" font-size="8.00">next: 0x600001e6d2c0</text>
<polyline fill="none" stroke="black" points="255,-26 343,-26 "/>
<text text-anchor="middle" x="299" y="-15.6" font-family="Times,serif" font-size="8.00">prev: 0x600001e629a0</text>
</g>
<!-- Node0x600001e629a0&#45;&gt;Node0x600001e6a700 -->
<g id="edge2" class="edge">
<title>Node0x600001e629a0:n&#45;&gt;Node0x600001e6a700:n</title>
<path fill="none" stroke="red" d="M219,-34C231,-34 236.25,-34 244.88,-34"/>
<polygon fill="red" stroke="red" points="245,-37.5 255,-34 245,-30.5 245,-37.5"/>
</g>
<!-- Node0x600001e6d2c0 -->
<g id="node4" class="node">
<title>Node0x600001e6d2c0</title>
<polygon fill="none" stroke="black" points="379,-9 379,-77 467,-77 467,-9 379,-9"/>
<text text-anchor="middle" x="423" y="-66.6" font-family="Times,serif" font-size="8.00">word: gall</text>
<polyline fill="none" stroke="black" points="379,-60 467,-60 "/>
<text text-anchor="middle" x="423" y="-49.6" font-family="Times,serif" font-size="8.00">size: 2</text>
<polyline fill="none" stroke="black" points="379,-43 467,-43 "/>
<text text-anchor="middle" x="423" y="-32.6" font-family="Times,serif" font-size="8.00">next: 0x600001e6f8d0</text>
<polyline fill="none" stroke="black" points="379,-26 467,-26 "/>
<text text-anchor="middle" x="423" y="-15.6" font-family="Times,serif" font-size="8.00">prev: 0x600001e6a700</text>
</g>
<!-- Node0x600001e6a700&#45;&gt;Node0x600001e6d2c0 -->
<g id="edge3" class="edge">
<title>Node0x600001e6a700:n&#45;&gt;Node0x600001e6d2c0:n</title>
<path fill="none" stroke="red" d="M343,-34C355,-34 360.25,-34 368.88,-34"/>
<polygon fill="red" stroke="red" points="369,-37.5 379,-34 369,-30.5 369,-37.5"/>
</g>
<!-- Node0x600001e6f8d0 -->
<g id="node5" class="node">
<title>Node0x600001e6f8d0</title>
<polygon fill="none" stroke="black" points="503,-9 503,-77 591,-77 591,-9 503,-9"/>
<text text-anchor="middle" x="547" y="-66.6" font-family="Times,serif" font-size="8.00">word: trudge</text>
<polyline fill="none" stroke="black" points="503,-60 591,-60 "/>
<text text-anchor="middle" x="547" y="-49.6" font-family="Times,serif" font-size="8.00">size: 2</text>
<polyline fill="none" stroke="black" points="503,-43 591,-43 "/>
<text text-anchor="middle" x="547" y="-32.6" font-family="Times,serif" font-size="8.00">next: 0x600001e70e10</text>
<polyline fill="none" stroke="black" points="503,-26 591,-26 "/>
<text text-anchor="middle" x="547" y="-15.6" font-family="Times,serif" font-size="8.00">prev: 0x600001e6d2c0</text>
</g>
<!-- Node0x600001e6d2c0&#45;&gt;Node0x600001e6f8d0 -->
<g id="edge4" class="edge">
<title>Node0x600001e6d2c0:n&#45;&gt;Node0x600001e6f8d0:n</title>
<path fill="none" stroke="red" d="M467,-34C479,-34 484.25,-34 492.88,-34"/>
<polygon fill="red" stroke="red" points="493,-37.5 503,-34 493,-30.5 493,-37.5"/>
</g>
<!-- Node0x600001e70e10 -->
<g id="node6" class="node">
<title>Node0x600001e70e10</title>
<polygon fill="none" stroke="black" points="627,-9 627,-77 714,-77 714,-9 627,-9"/>
<text text-anchor="middle" x="670.5" y="-66.6" font-family="Times,serif" font-size="8.00">word: Indeed</text>
<polyline fill="none" stroke="black" points="627,-60 714,-60 "/>
<text text-anchor="middle" x="670.5" y="-49.6" font-family="Times,serif" font-size="8.00">size: 2</text>
<polyline fill="none" stroke="black" points="627,-43 714,-43 "/>
<text text-anchor="middle" x="670.5" y="-32.6" font-family="Times,serif" font-size="8.00">next: 0x600001e669a0</text>
<polyline fill="none" stroke="black" points="627,-26 714,-26 "/>
<text text-anchor="middle" x="670.5" y="-15.6" font-family="Times,serif" font-size="8.00">prev: 0x600001e6f8d0</text>
</g>
<!-- Node0x600001e6f8d0&#45;&gt;Node0x600001e70e10 -->
<g id="edge5" class="edge">
<title>Node0x600001e6f8d0:n&#45;&gt;Node0x600001e70e10:n</title>
<path fill="none" stroke="red" d="M591,-34C603,-34 608.25,-34 616.88,-34"/>
<polygon fill="red" stroke="red" points="617,-37.5 627,-34 617,-30.5 617,-37.5"/>
</g>
<!-- Node0x600001e669a0 -->
<g id="node7" class="node">
<title>Node0x600001e669a0</title>
<polygon fill="none" stroke="black" points="750,-9 750,-77 838,-77 838,-9 750,-9"/>
<text text-anchor="middle" x="794" y="-66.6" font-family="Times,serif" font-size="8.00">word: speech</text>
<polyline fill="none" stroke="black" points="750,-60 838,-60 "/>
<text text-anchor="middle" x="794" y="-49.6" font-family="Times,serif" font-size="8.00">size: 1</text>
<polyline fill="none" stroke="black" points="750,-43 838,-43 "/>
<text text-anchor="middle" x="794" y="-32.6" font-family="Times,serif" font-size="8.00">next: 0x600001e67630</text>
<polyline fill="none" stroke="black" points="750,-26 838,-26 "/>
<text text-anchor="middle" x="794" y="-15.6" font-family="Times,serif" font-size="8.00">prev: 0x600001e70e10</text>
</g>
<!-- Node0x600001e70e10&#45;&gt;Node0x600001e669a0 -->
<g id="edge6" class="edge">
<title>Node0x600001e70e10:n&#45;&gt;Node0x600001e669a0:n</title>
<path fill="none" stroke="red" d="M714,-34C726,-34 731.25,-34 739.88,-34"/>
<polygon fill="red" stroke="red" points="740,-37.5 750,-34 740,-30.5 740,-37.5"/>
</g>
<!-- Node0x600001e67630 -->
<g id="node8" class="node">
<title>Node0x600001e67630</title>
<polygon fill="none" stroke="black" points="874,-9 874,-77 962,-77 962,-9 874,-9"/>
<text text-anchor="middle" x="918" y="-66.6" font-family="Times,serif" font-size="8.00">word: wantons</text>
<polyline fill="none" stroke="black" points="874,-60 962,-60 "/>
<text text-anchor="middle" x="918" y="-49.6" font-family="Times,serif" font-size="8.00">size: 1</text>
<polyline fill="none" stroke="black" points="874,-43 962,-43 "/>
<text text-anchor="middle" x="918" y="-32.6" font-family="Times,serif" font-size="8.00">next: 0x600001e74c90</text>
<polyline fill="none" stroke="black" points="874,-26 962,-26 "/>
<text text-anchor="middle" x="918" y="-15.6" font-family="Times,serif" font-size="8.00">prev: 0x600001e669a0</text>
</g>
<!-- Node0x600001e669a0&#45;&gt;Node0x600001e67630 -->
<g id="edge7" class="edge">
<title>Node0x600001e669a0:n&#45;&gt;Node0x600001e67630:n</title>
<path fill="none" stroke="red" d="M838,-34C850,-34 855.25,-34 863.88,-34"/>
<polygon fill="red" stroke="red" points="864,-37.5 874,-34 864,-30.5 864,-37.5"/>
</g>
<!-- Node0x600001e74c90 -->
<g id="node9" class="node">
<title>Node0x600001e74c90</title>
<polygon fill="none" stroke="black" points="998,-9 998,-77 1086,-77 1086,-9 998,-9"/>
<text text-anchor="middle" x="1042" y="-66.6" font-family="Times,serif" font-size="8.00">word: driveth</text>
<polyline fill="none" stroke="black" points="998,-60 1086,-60 "/>
<text text-anchor="middle" x="1042" y="-49.6" font-family="Times,serif" font-size="8.00">size: 1</text>
<polyline fill="none" stroke="black" points="998,-43 1086,-43 "/>
<text text-anchor="middle" x="1042" y="-32.6" font-family="Times,serif" font-size="8.00">next: 0x600001e74d20</text>
<polyline fill="none" stroke="black" points="998,-26 1086,-26 "/>
<text text-anchor="middle" x="1042" y="-15.6" font-family="Times,serif" font-size="8.00">prev: 0x600001e67630</text>
</g>
<!-- Node0x600001e67630&#45;&gt;Node0x600001e74c90 -->
<g id="edge8" class="edge">
<title>Node0x600001e67630:n&#45;&gt;Node0x600001e74c90:n</title>
<path fill="none" stroke="red" d="M962,-34C974,-34 979.25,-34 987.88,-34"/>
<polygon fill="red" stroke="red" points="988,-37.5 998,-34 988,-30.5 988,-37.5"/>
</g>
<!-- Node0x600001e74d20 -->
<g id="node10" class="node">
<title>Node0x600001e74d20</title>
<polygon fill="none" stroke="black" points="1122,-9 1122,-77 1210,-77 1210,-9 1122,-9"/>
<text text-anchor="middle" x="1166" y="-66.6" font-family="Times,serif" font-size="8.00">word: foreign</text>
<polyline fill="none" stroke="black" points="1122,-60 1210,-60 "/>
<text text-anchor="middle" x="1166" y="-49.6" font-family="Times,serif" font-size="8.00">size: 1</text>
<polyline fill="none" stroke="black" points="1122,-43 1210,-43 "/>
<text text-anchor="middle" x="1166" y="-32.6" font-family="Times,serif" font-size="8.00">next: 0x600001e76490</text>
<polyline fill="none" stroke="black" points="1122,-26 1210,-26 "/>
<text text-anchor="middle" x="1166" y="-15.6" font-family="Times,serif" font-size="8.00">prev: 0x600001e74c90</text>
</g>
<!-- Node0x600001e74c90&#45;&gt;Node0x600001e74d20 -->
<g id="edge9" class="edge">
<title>Node0x600001e74c90:n&#45;&gt;Node0x600001e74d20:n</title>
<path fill="none" stroke="red" d="M1086,-34C1098,-34 1103.25,-34 1111.88,-34"/>
<polygon fill="red" stroke="red" points="1112,-37.5 1122,-34 1112,-30.5 1112,-37.5"/>
</g>
<!-- Node0x600001e76490 -->
<g id="node11" class="node">
<title>Node0x600001e76490</title>
<polygon fill="none" stroke="black" points="1246,-9 1246,-77 1334,-77 1334,-9 1246,-9"/>
<text text-anchor="middle" x="1290" y="-66.6" font-family="Times,serif" font-size="8.00">word: tables</text>
<polyline fill="none" stroke="black" points="1246,-60 1334,-60 "/>
<text text-anchor="middle" x="1290" y="-49.6" font-family="Times,serif" font-size="8.00">size: 1</text>
<polyline fill="none" stroke="black" points="1246,-43 1334,-43 "/>
<text text-anchor="middle" x="1290" y="-32.6" font-family="Times,serif" font-size="8.00">next: 0x600001e768e0</text>
<polyline fill="none" stroke="black" points="1246,-26 1334,-26 "/>
<text text-anchor="middle" x="1290" y="-15.6" font-family="Times,serif" font-size="8.00">prev: 0x600001e74d20</text>
</g>
<!-- Node0x600001e74d20&#45;&gt;Node0x600001e76490 -->
<g id="edge10" class="edge">
<title>Node0x600001e74d20:n&#45;&gt;Node0x600001e76490:n</title>
<path fill="none" stroke="red" d="M1210,-34C1222,-34 1227.25,-34 1235.88,-34"/>
<polygon fill="red" stroke="red" points="1236,-37.5 1246,-34 1236,-30.5 1236,-37.5"/>
</g>
<!-- Node0x600001e768e0 -->
<g id="node12" class="node">
<title>Node0x600001e768e0</title>
<polygon fill="none" stroke="black" points="1370,-9 1370,-77 1458,-77 1458,-9 1370,-9"/>
<text text-anchor="middle" x="1414" y="-66.6" font-family="Times,serif" font-size="8.00">word: hangs</text>
<polyline fill="none" stroke="black" points="1370,-60 1458,-60 "/>
<text text-anchor="middle" x="1414" y="-49.6" font-family="Times,serif" font-size="8.00">size: 2</text>
<polyline fill="none" stroke="black" points="1370,-43 1458,-43 "/>
<text text-anchor="middle" x="1414" y="-32.6" font-family="Times,serif" font-size="8.00">next: 0x600001e76df0</text>
<polyline fill="none" stroke="black" points="1370,-26 1458,-26 "/>
<text text-anchor="middle" x="1414" y="-15.6" font-family="Times,serif" font-size="8.00">prev: 0x600001e76490</text>
</g>
<!-- Node0x600001e76490&#45;&gt;Node0x600001e768e0 -->
<g id="edge11" class="edge">
<title>Node0x600001e76490:n&#45;&gt;Node0x600001e768e0:n</title>
<path fill="none" stroke="red" d="M1334,-34C1346,-34 1351.25,-34 1359.88,-34"/>
<polygon fill="red" stroke="red" points="1360,-37.5 1370,-34 1360,-30.5 1360,-37.5"/>
</g>
<!-- Node0x600001e76df0 -->
<g id="node13" class="node">
<title>Node0x600001e76df0</title>
<polygon fill="none" stroke="black" points="1494,-9 1494,-77 1582,-77 1582,-9 1494,-9"/>
<text text-anchor="middle" x="1538" y="-66.6" font-family="Times,serif" font-size="8.00">word: kin</text>
<polyline fill="none" stroke="black" points="1494,-60 1582,-60 "/>
<text text-anchor="middle" x="1538" y="-49.6" font-family="Times,serif" font-size="8.00">size: 1</text>
<polyline fill="none" stroke="black" points="1494,-43 1582,-43 "/>
<text text-anchor="middle" x="1538" y="-32.6" font-family="Times,serif" font-size="8.00">next: 0x600001e77c00</text>
<polyline fill="none" stroke="black" points="1494,-26 1582,-26 "/>
<text text-anchor="middle" x="1538" y="-15.6" font-family="Times,serif" font-size="8.00">prev: 0x600001e768e0</text>
</g>
<!-- Node0x600001e768e0&#45;&gt;Node0x600001e76df0 -->
<g id="edge12" class="edge">
<title>Node0x600001e768e0:n&#45;&gt;Node0x600001e76df0:n</title>
<path fill="none" stroke="red" d="M1458,-34C1470,-34 1475.25,-34 1483.88,-34"/>
<polygon fill="red" stroke="red" points="1484,-37.5 1494,-34 1484,-30.5 1484,-37.5"/>
</g>
<!-- Node0x600001e77c00 -->
<g id="node14" class="node">
<title>Node0x600001e77c00</title>
<polygon fill="none" stroke="black" points="1618,-9 1618,-77 1705,-77 1705,-9 1618,-9"/>
<text text-anchor="middle" x="1661.5" y="-66.6" font-family="Times,serif" font-size="8.00">word: chinks</text>
<polyline fill="none" stroke="black" points="1618,-60 1705,-60 "/>
<text text-anchor="middle" x="1661.5" y="-49.6" font-family="Times,serif" font-size="8.00">size: 1</text>
<polyline fill="none" stroke="black" points="1618,-43 1705,-43 "/>
<text text-anchor="middle" x="1661.5" y="-32.6" font-family="Times,serif" font-size="8.00">next: 0x600001e7d3e0</text>
<polyline fill="none" stroke="black" points="1618,-26 1705,-26 "/>
<text text-anchor="middle" x="1661.5" y="-15.6" font-family="Times,serif" font-size="8.00">prev: 0x600001e76df0</text>
</g>
<!-- Node0x600001e76df0&#45;&gt;Node0x600001e77c00 -->
<g id="edge13" class="edge">
<title>Node0x600001e76df0:n&#45;&gt;Node0x600001e77c00:n</title>
<path fill="none" stroke="red" d="M1582,-34C1594,-34 1599.25,-34 1607.88,-34"/>
<polygon fill="red" stroke="red" points="1608,-37.5 1618,-34 1608,-30.5 1608,-37.5"/>
</g>
<!-- Node0x600001e7d3e0 -->
<g id="node15" class="node">
<title>Node0x600001e7d3e0</title>
<polygon fill="none" stroke="black" points="1741,-9 1741,-77 1829,-77 1829,-9 1741,-9"/>
<text text-anchor="middle" x="1785" y="-66.6" font-family="Times,serif" font-size="8.00">word: Juiet</text>
<polyline fill="none" stroke="black" points="1741,-60 1829,-60 "/>
<text text-anchor="middle" x="1785" y="-49.6" font-family="Times,serif" font-size="8.00">size: 5</text>
<polyline fill="none" stroke="black" points="1741,-43 1829,-43 "/>
<text text-anchor="middle" x="1785" y="-32.6" font-family="Times,serif" font-size="8.00">next: 0x600001e7e250</text>
<polyline fill="none" stroke="black" points="1741,-26 1829,-26 "/>
<text text-anchor="middle" x="1785" y="-15.6" font-family="Times,serif" font-size="8.00">prev: 0x600001e77c00</text>
</g>
<!-- Node0x600001e77c00&#45;&gt;Node0x600001e7d3e0 -->
<g id="edge14" class="edge">
<title>Node0x600001e77c00:n&#45;&gt;Node0x600001e7d3e0:n</title>
<path fill="none" stroke="red" d="M1705,-34C1717,-34 1722.25,-34 1730.88,-34"/>
<polygon fill="red" stroke="red" points="1731,-37.5 1741,-34 1731,-30.5 1731,-37.5"/>
</g>
<!-- Node0x600001e7e250 -->
<g id="node16" class="node">
<title>Node0x600001e7e250</title>
<polygon fill="none" stroke="black" points="1865,-9 1865,-77 1953,-77 1953,-9 1865,-9"/>
<text text-anchor="middle" x="1909" y="-66.6" font-family="Times,serif" font-size="8.00">word: overheard</text>
<polyline fill="none" stroke="black" points="1865,-60 1953,-60 "/>
<text text-anchor="middle" x="1909" y="-49.6" font-family="Times,serif" font-size="8.00">size: 1</text>
<polyline fill="none" stroke="black" points="1865,-43 1953,-43 "/>
<text text-anchor="middle" x="1909" y="-32.6" font-family="Times,serif" font-size="8.00">next: 0x600001e7f2a0</text>
<polyline fill="none" stroke="black" points="1865,-26 1953,-26 "/>
<text text-anchor="middle" x="1909" y="-15.6" font-family="Times,serif" font-size="8.00">prev: 0x600001e7d3e0</text>
</g>
<!-- Node0x600001e7d3e0&#45;&gt;Node0x600001e7e250 -->
<g id="edge15" class="edge">
<title>Node0x600001e7d3e0:n&#45;&gt;Node0x600001e7e250:n</title>
<path fill="none" stroke="red" d="M1829,-34C1841,-34 1846.25,-34 1854.88,-34"/>
<polygon fill="red" stroke="red" points="1855,-37.5 1865,-34 1855,-30.5 1855,-37.5"/>
</g>
<!-- Node0x600001e7f2a0 -->
<g id="node17" class="node">
<title>Node0x600001e7f2a0</title>
<polygon fill="none" stroke="black" points="1989,-9 1989,-77 2077,-77 2077,-9 1989,-9"/>
<text text-anchor="middle" x="2033" y="-66.6" font-family="Times,serif" font-size="8.00">word: company</text>
<polyline fill="none" stroke="black" points="1989,-60 2077,-60 "/>
<text text-anchor="middle" x="2033" y="-49.6" font-family="Times,serif" font-size="8.00">size: 6</text>
<polyline fill="none" stroke="black" points="1989,-43 2077,-43 "/>
<text text-anchor="middle" x="2033" y="-32.6" font-family="Times,serif" font-size="8.00">next: 0x600001e7ff00</text>
<polyline fill="none" stroke="black" points="1989,-26 2077,-26 "/>
<text text-anchor="middle" x="2033" y="-15.6" font-family="Times,serif" font-size="8.00">prev: 0x600001e7e250</text>
</g>
<!-- Node0x600001e7e250&#45;&gt;Node0x600001e7f2a0 -->
<g id="edge16" class="edge">
<title>Node0x600001e7e250:n&#45;&gt;Node0x600001e7f2a0:n</title>
<path fill="none" stroke="red" d="M1953,-34C1965,-34 1970.25,-34 1978.88,-34"/>
<polygon fill="red" stroke="red" points="1979,-37.5 1989,-34 1979,-30.5 1979,-37.5"/>
</g>
<!-- Node0x600001e7ff00 -->
<g id="node18" class="node">
<title>Node0x600001e7ff00</title>
<polygon fill="none" stroke="black" points="2113,-9 2113,-77 2200,-77 2200,-9 2113,-9"/>
<text text-anchor="middle" x="2156.5" y="-66.6" font-family="Times,serif" font-size="8.00">word: stones</text>
<polyline fill="none" stroke="black" points="2113,-60 2200,-60 "/>
<text text-anchor="middle" x="2156.5" y="-49.6" font-family="Times,serif" font-size="8.00">size: 2</text>
<polyline fill="none" stroke="black" points="2113,-43 2200,-43 "/>
<text text-anchor="middle" x="2156.5" y="-32.6" font-family="Times,serif" font-size="8.00">next: 0x600001e40000</text>
<polyline fill="none" stroke="black" points="2113,-26 2200,-26 "/>
<text text-anchor="middle" x="2156.5" y="-15.6" font-family="Times,serif" font-size="8.00">prev: 0x600001e7f2a0</text>
</g>
<!-- Node0x600001e7f2a0&#45;&gt;Node0x600001e7ff00 -->
<g id="edge17" class="edge">
<title>Node0x600001e7f2a0:n&#45;&gt;Node0x600001e7ff00:n</title>
<path fill="none" stroke="red" d="M2077,-34C2089,-34 2094.25,-34 2102.88,-34"/>
<polygon fill="red" stroke="red" points="2103,-37.5 2113,-34 2103,-30.5 2103,-37.5"/>
</g>
<!-- Node0x600001e40000 -->
<g id="node19" class="node">
<title>Node0x600001e40000</title>
<polygon fill="none" stroke="black" points="2236,-9 2236,-77 2323,-77 2323,-9 2236,-9"/>
<text text-anchor="middle" x="2279.5" y="-66.6" font-family="Times,serif" font-size="8.00">word: Revolts</text>
<polyline fill="none" stroke="black" points="2236,-60 2323,-60 "/>
<text text-anchor="middle" x="2279.5" y="-49.6" font-family="Times,serif" font-size="8.00">size: 1</text>
<polyline fill="none" stroke="black" points="2236,-43 2323,-43 "/>
<text text-anchor="middle" x="2279.5" y="-32.6" font-family="Times,serif" font-size="8.00">next: 0x600001e40450</text>
<polyline fill="none" stroke="black" points="2236,-26 2323,-26 "/>
<text text-anchor="middle" x="2279.5" y="-15.6" font-family="Times,serif" font-size="8.00">prev: 0x600001e7ff00</text>
</g>
<!-- Node0x600001e7ff00&#45;&gt;Node0x600001e40000 -->
<g id="edge18" class="edge">
<title>Node0x600001e7ff00:n&#45;&gt;Node0x600001e40000:n</title>
<path fill="none" stroke="red" d="M2200,-34C2212,-34 2217.25,-34 2225.88,-34"/>
<polygon fill="red" stroke="red" points="2226,-37.5 2236,-34 2226,-30.5 2226,-37.5"/>
</g>
<!-- Node0x600001e40450 -->
<g id="node20" class="node">
<title>Node0x600001e40450</title>
<polygon fill="none" stroke="black" points="2359,-9 2359,-77 2447,-77 2447,-9 2359,-9"/>
<text text-anchor="middle" x="2403" y="-66.6" font-family="Times,serif" font-size="8.00">word: encamp</text>
<polyline fill="none" stroke="black" points="2359,-60 2447,-60 "/>
<text text-anchor="middle" x="2403" y="-49.6" font-family="Times,serif" font-size="8.00">size: 1</text>
<polyline fill="none" stroke="black" points="2359,-43 2447,-43 "/>
<text text-anchor="middle" x="2403" y="-32.6" font-family="Times,serif" font-size="8.00">next: 0x600001e43360</text>
<polyline fill="none" stroke="black" points="2359,-26 2447,-26 "/>
<text text-anchor="middle" x="2403" y="-15.6" font-family="Times,serif" font-size="8.00">prev: 0x600001e40000</text>
</g>
<!-- Node0x600001e40000&#45;&gt;Node0x600001e40450 -->
<g id="edge19" class="edge">
<title>Node0x600001e40000:n&#45;&gt;Node0x600001e40450:n</title>
<path fill="none" stroke="red" d="M2323,-34C2335,-34 2340.25,-34 2348.88,-34"/>
<polygon fill="red" stroke="red" points="2349,-37.5 2359,-34 2349,-30.5 2349,-37.5"/>
</g>
<!-- Node0x600001e43360 -->
<g id="node21" class="node">
<title>Node0x600001e43360</title>
<polygon fill="none" stroke="black" points="2483,-9 2483,-77 2571,-77 2571,-9 2483,-9"/>
<text text-anchor="middle" x="2527" y="-66.6" font-family="Times,serif" font-size="8.00">word: confidence</text>
<polyline fill="none" stroke="black" points="2483,-60 2571,-60 "/>
<text text-anchor="middle" x="2527" y="-49.6" font-family="Times,serif" font-size="8.00">size: 1</text>
<polyline fill="none" stroke="black" points="2483,-43 2571,-43 "/>
<text text-anchor="middle" x="2527" y="-32.6" font-family="Times,serif" font-size="8.00">next: 0x600001e43c00</text>
<polyline fill="none" stroke="black" points="2483,-26 2571,-26 "/>
<text text-anchor="middle" x="2527" y="-15.6" font-family="Times,serif" font-size="8.00">prev: 0x600001e40450</text>
</g>
<!-- Node0x600001e40450&#45;&gt;Node0x600001e43360 -->
<g id="edge20" class="edge">
<title>Node0x600001e40450:n&#45;&gt;Node0x600001e43360:n</title>
<path fill="none" stroke="red" d="M2447,-34C2459,-34 2464.25,-34 2472.88,-34"/>
<polygon fill="red" stroke="red" points="2473,-37.5 2483,-34 2473,-30.5 2473,-37.5"/>
</g>
<!-- Node0x600001e43c00 -->
<g id="node22" class="node">
<title>Node0x600001e43c00</title>
<polygon fill="none" stroke="black" points="2607,-9 2607,-77 2695,-77 2695,-9 2607,-9"/>
<text text-anchor="middle" x="2651" y="-66.6" font-family="Times,serif" font-size="8.00">word: protest</text>
<polyline fill="none" stroke="black" points="2607,-60 2695,-60 "/>
<text text-anchor="middle" x="2651" y="-49.6" font-family="Times,serif" font-size="8.00">size: 3</text>
<polyline fill="none" stroke="black" points="2607,-43 2695,-43 "/>
<text text-anchor="middle" x="2651" y="-32.6" font-family="Times,serif" font-size="8.00">next: 0x600001e45080</text>
<polyline fill="none" stroke="black" points="2607,-26 2695,-26 "/>
<text text-anchor="middle" x="2651" y="-15.6" font-family="Times,serif" font-size="8.00">prev: 0x600001e43360</text>
</g>
<!-- Node0x600001e43360&#45;&gt;Node0x600001e43c00 -->
<g id="edge21" class="edge">
<title>Node0x600001e43360:n&#45;&gt;Node0x600001e43c00:n</title>
<path fill="none" stroke="red" d="M2571,-34C2583,-34 2588.25,-34 2596.88,-34"/>
<polygon fill="red" stroke="red" points="2597,-37.5 2607,-34 2597,-30.5 2597,-37.5"/>
</g>
<!-- Node0x600001e45080 -->
<g id="node23" class="node">
<title>Node0x600001e45080</title>
<polygon fill="none" stroke="black" points="2731,-9 2731,-77 2819,-77 2819,-9 2731,-9"/>
<text text-anchor="middle" x="2775" y="-66.6" font-family="Times,serif" font-size="8.00">word: hie</text>
<polyline fill="none" stroke="black" points="2731,-60 2819,-60 "/>
<text text-anchor="middle" x="2775" y="-49.6" font-family="Times,serif" font-size="8.00">size: 2</text>
<polyline fill="none" stroke="black" points="2731,-43 2819,-43 "/>
<text text-anchor="middle" x="2775" y="-32.6" font-family="Times,serif" font-size="8.00">next: 0x600001e46fa0</text>
<polyline fill="none" stroke="black" points="2731,-26 2819,-26 "/>
<text text-anchor="middle" x="2775" y="-15.6" font-family="Times,serif" font-size="8.00">prev: 0x600001e43c00</text>
</g>
<!-- Node0x600001e43c00&#45;&gt;Node0x600001e45080 -->
<g id="edge22" class="edge">
<title>Node0x600001e43c00:n&#45;&gt;Node0x600001e45080:n</title>
<path fill="none" stroke="red" d="M2695,-34C2707,-34 2712.25,-34 2720.88,-34"/>
<polygon fill="red" stroke="red" points="2721,-37.5 2731,-34 2721,-30.5 2721,-37.5"/>
</g>
<!-- Node0x600001e46fa0 -->
<g id="node24" class="node">
<title>Node0x600001e46fa0</title>
<polygon fill="none" stroke="black" points="2855,-9 2855,-77 2943,-77 2943,-9 2855,-9"/>
<text text-anchor="middle" x="2899" y="-66.6" font-family="Times,serif" font-size="8.00">word: effeminate</text>
<polyline fill="none" stroke="black" points="2855,-60 2943,-60 "/>
<text text-anchor="middle" x="2899" y="-49.6" font-family="Times,serif" font-size="8.00">size: 1</text>
<polyline fill="none" stroke="black" points="2855,-43 2943,-43 "/>
<text text-anchor="middle" x="2899" y="-32.6" font-family="Times,serif" font-size="8.00">next: 0x600001e482d0</text>
<polyline fill="none" stroke="black" points="2855,-26 2943,-26 "/>
<text text-anchor="middle" x="2899" y="-15.6" font-family="Times,serif" font-size="8.00">prev: 0x600001e45080</text>
</g>
<!-- Node0x600001e45080&#45;&gt;Node0x600001e46fa0 -->
<g id="edge23" class="edge">
<title>Node0x600001e45080:n&#45;&gt;Node0x600001e46fa0:n</title>
<path fill="none" stroke="red" d="M2819,-34C2831,-34 2836.25,-34 2844.88,-34"/>
<polygon fill="red" stroke="red" points="2845,-37.5 2855,-34 2845,-30.5 2845,-37.5"/>
</g>
<!-- Node0x600001e482d0 -->
<g id="node25" class="node">
<title>Node0x600001e482d0</title>
<polygon fill="none" stroke="black" points="2979,-9 2979,-77 3066,-77 3066,-9 2979,-9"/>
<text text-anchor="middle" x="3022.5" y="-66.6" font-family="Times,serif" font-size="8.00">word: Spread</text>
<polyline fill="none" stroke="black" points="2979,-60 3066,-60 "/>
<text text-anchor="middle" x="3022.5" y="-49.6" font-family="Times,serif" font-size="8.00">size: 1</text>
<polyline fill="none" stroke="black" points="2979,-43 3066,-43 "/>
<text text-anchor="middle" x="3022.5" y="-32.6" font-family="Times,serif" font-size="8.00">next: 0x600001e48690</text>
<polyline fill="none" stroke="black" points="2979,-26 3066,-26 "/>
<text text-anchor="middle" x="3022.5" y="-15.6" font-family="Times,serif" font-size="8.00">prev: 0x600001e46fa0</text>
</g>
<!-- Node0x600001e46fa0&#45;&gt;Node0x600001e482d0 -->
<g id="edge24" class="edge">
<title>Node0x600001e46fa0:n&#45;&gt;Node0x600001e482d0:n</title>
<path fill="none" stroke="red" d="M2943,-34C2955,-34 2960.25,-34 2968.88,-34"/>
<polygon fill="red" stroke="red" points="2969,-37.5 2979,-34 2969,-30.5 2969,-37.5"/>
</g>
<!-- Node0x600001e48690 -->
<g id="node26" class="node">
<title>Node0x600001e48690</title>
<polygon fill="none" stroke="black" points="3102,-9 3102,-77 3190,-77 3190,-9 3102,-9"/>
<text text-anchor="middle" x="3146" y="-66.6" font-family="Times,serif" font-size="8.00">word: maidenhoods</text>
<polyline fill="none" stroke="black" points="3102,-60 3190,-60 "/>
<text text-anchor="middle" x="3146" y="-49.6" font-family="Times,serif" font-size="8.00">size: 1</text>
<polyline fill="none" stroke="black" points="3102,-43 3190,-43 "/>
<text text-anchor="middle" x="3146" y="-32.6" font-family="Times,serif" font-size="8.00">next: 0x600001e491d0</text>
<polyline fill="none" stroke="black" points="3102,-26 3190,-26 "/>
<text text-anchor="middle" x="3146" y="-15.6" font-family="Times,serif" font-size="8.00">prev: 0x600001e482d0</text>
</g>
<!-- Node0x600001e482d0&#45;&gt;Node0x600001e48690 -->
<g id="edge25" class="edge">
<title>Node0x600001e482d0:n&#45;&gt;Node0x600001e48690:n</title>
<path fill="none" stroke="red" d="M3066,-34C3078,-34 3083.25,-34 3091.88,-34"/>
<polygon fill="red" stroke="red" points="3092,-37.5 3102,-34 3092,-30.5 3092,-37.5"/>
</g>
<!-- Node0x600001e491d0 -->
<g id="node27" class="node">
<title>Node0x600001e491d0</title>
<polygon fill="none" stroke="black" points="3226,-9 3226,-77 3314,-77 3314,-9 3226,-9"/>
<text text-anchor="middle" x="3270" y="-66.6" font-family="Times,serif" font-size="8.00">word: dragon</text>
<polyline fill="none" stroke="black" points="3226,-60 3314,-60 "/>
<text text-anchor="middle" x="3270" y="-49.6" font-family="Times,serif" font-size="8.00">size: 1</text>
<polyline fill="none" stroke="black" points="3226,-43 3314,-43 "/>
<text text-anchor="middle" x="3270" y="-32.6" font-family="Times,serif" font-size="8.00">next: 0x600001e4bb70</text>
<polyline fill="none" stroke="black" points="3226,-26 3314,-26 "/>
<text text-anchor="middle" x="3270" y="-15.6" font-family="Times,serif" font-size="8.00">prev: 0x600001e48690</text>
</g>
<!-- Node0x600001e48690&#45;&gt;Node0x600001e491d0 -->
<g id="edge26" class="edge">
<title>Node0x600001e48690:n&#45;&gt;Node0x600001e491d0:n</title>
<path fill="none" stroke="red" d="M3190,-34C3202,-34 3207.25,-34 3215.88,-34"/>
<polygon fill="red" stroke="red" points="3216,-37.5 3226,-34 3216,-30.5 3216,-37.5"/>
</g>
<!-- Node0x600001e4bb70 -->
<g id="node28" class="node">
<title>Node0x600001e4bb70</title>
<polygon fill="none" stroke="black" points="3350,-9 3350,-77 3438,-77 3438,-9 3350,-9"/>
<text text-anchor="middle" x="3394" y="-66.6" font-family="Times,serif" font-size="8.00">word: pomegranate</text>
<polyline fill="none" stroke="black" points="3350,-60 3438,-60 "/>
<text text-anchor="middle" x="3394" y="-49.6" font-family="Times,serif" font-size="8.00">size: 1</text>
<polyline fill="none" stroke="black" points="3350,-43 3438,-43 "/>
<text text-anchor="middle" x="3394" y="-32.6" font-family="Times,serif" font-size="8.00">next: 0x600001e4c180</text>
<polyline fill="none" stroke="black" points="3350,-26 3438,-26 "/>
<text text-anchor="middle" x="3394" y="-15.6" font-family="Times,serif" font-size="8.00">prev: 0x600001e491d0</text>
</g>
<!-- Node0x600001e491d0&#45;&gt;Node0x600001e4bb70 -->
<g id="edge27" class="edge">
<title>Node0x600001e491d0:n&#45;&gt;Node0x600001e4bb70:n</title>
<path fill="none" stroke="red" d="M3314,-34C3326,-34 3331.25,-34 3339.88,-34"/>
<polygon fill="red" stroke="red" points="3340,-37.5 3350,-34 3340,-30.5 3340,-37.5"/>
</g>
<!-- Node0x600001e4c180 -->
<g id="node29" class="node">
<title>Node0x600001e4c180</title>
<polygon fill="none" stroke="black" points="3474,-9 3474,-77 3562,-77 3562,-9 3474,-9"/>
<text text-anchor="middle" x="3518" y="-66.6" font-family="Times,serif" font-size="8.00">word: hunt</text>
<polyline fill="none" stroke="black" points="3474,-60 3562,-60 "/>
<text text-anchor="middle" x="3518" y="-49.6" font-family="Times,serif" font-size="8.00">size: 2</text>
<polyline fill="none" stroke="black" points="3474,-43 3562,-43 "/>
<text text-anchor="middle" x="3518" y="-32.6" font-family="Times,serif" font-size="8.00">next: 0x600001e71b90</text>
<polyline fill="none" stroke="black" points="3474,-26 3562,-26 "/>
<text text-anchor="middle" x="3518" y="-15.6" font-family="Times,serif" font-size="8.00">prev: 0x600001e4bb70</text>
</g>
<!-- Node0x600001e4bb70&#45;&gt;Node0x600001e4c180 -->
<g id="edge28" class="edge">
<title>Node0x600001e4bb70:n&#45;&gt;Node0x600001e4c180:n</title>
<path fill="none" stroke="red" d="M3438,-34C3450,-34 3455.25,-34 3463.88,-34"/>
<polygon fill="red" stroke="red" points="3464,-37.5 3474,-34 3464,-30.5 3464,-37.5"/>
</g>
<!-- Node0x600001e71b90 -->
<g id="node30" class="node">
<title>Node0x600001e71b90</title>
<polygon fill="none" stroke="black" points="3598,-9 3598,-77 3686,-77 3686,-9 3598,-9"/>
<text text-anchor="middle" x="3642" y="-66.6" font-family="Times,serif" font-size="8.00">word: tempest</text>
<polyline fill="none" stroke="black" points="3598,-60 3686,-60 "/>
<text text-anchor="middle" x="3642" y="-49.6" font-family="Times,serif" font-size="8.00">size: 1</text>
<polyline fill="none" stroke="black" points="3598,-43 3686,-43 "/>
<text text-anchor="middle" x="3642" y="-32.6" font-family="Times,serif" font-size="8.00">next: 0x600001e72820</text>
<polyline fill="none" stroke="black" points="3598,-26 3686,-26 "/>
<text text-anchor="middle" x="3642" y="-15.6" font-family="Times,serif" font-size="8.00">prev: 0x600001e4c180</text>
</g>
<!-- Node0x600001e4c180&#45;&gt;Node0x600001e71b90 -->
<g id="edge29" class="edge">
<title>Node0x600001e4c180:n&#45;&gt;Node0x600001e71b90:n</title>
<path fill="none" stroke="red" d="M3562,-34C3574,-34 3579.25,-34 3587.88,-34"/>
<polygon fill="red" stroke="red" points="3588,-37.5 3598,-34 3588,-30.5 3588,-37.5"/>
</g>
<!-- Node0x600001e72820 -->
<g id="node31" class="node">
<title>Node0x600001e72820</title>
<polygon fill="none" stroke="black" points="3722,-9 3722,-77 3810,-77 3810,-9 3722,-9"/>
<text text-anchor="middle" x="3766" y="-66.6" font-family="Times,serif" font-size="8.00">word: cast</text>
<polyline fill="none" stroke="black" points="3722,-60 3810,-60 "/>
<text text-anchor="middle" x="3766" y="-49.6" font-family="Times,serif" font-size="8.00">size: 1</text>
<polyline fill="none" stroke="black" points="3722,-43 3810,-43 "/>
<text text-anchor="middle" x="3766" y="-32.6" font-family="Times,serif" font-size="8.00">next: 0x600001e78a50</text>
<polyline fill="none" stroke="black" points="3722,-26 3810,-26 "/>
<text text-anchor="middle" x="3766" y="-15.6" font-family="Times,serif" font-size="8.00">prev: 0x600001e71b90</text>
</g>
<!-- Node0x600001e71b90&#45;&gt;Node0x600001e72820 -->
<g id="edge30" class="edge">
<title>Node0x600001e71b90:n&#45;&gt;Node0x600001e72820:n</title>
<path fill="none" stroke="red" d="M3686,-34C3698,-34 3703.25,-34 3711.88,-34"/>
<polygon fill="red" stroke="red" points="3712,-37.5 3722,-34 3712,-30.5 3712,-37.5"/>
</g>
<!-- Node0x600001e78a50 -->
<g id="node32" class="node">
<title>Node0x600001e78a50</title>
<polygon fill="none" stroke="black" points="3846,-9 3846,-77 3934,-77 3934,-9 3846,-9"/>
<text text-anchor="middle" x="3890" y="-66.6" font-family="Times,serif" font-size="8.00">word: Immoderately</text>
<polyline fill="none" stroke="black" points="3846,-60 3934,-60 "/>
<text text-anchor="middle" x="3890" y="-49.6" font-family="Times,serif" font-size="8.00">size: 1</text>
<polyline fill="none" stroke="black" points="3846,-43 3934,-43 "/>
<text text-anchor="middle" x="3890" y="-32.6" font-family="Times,serif" font-size="8.00">next: 0x600001e73000</text>
<polyline fill="none" stroke="black" points="3846,-26 3934,-26 "/>
<text text-anchor="middle" x="3890" y="-15.6" font-family="Times,serif" font-size="8.00">prev: 0x600001e72820</text>
</g>
<!-- Node0x600001e72820&#45;&gt;Node0x600001e78a50 -->
<g id="edge31" class="edge">
<title>Node0x600001e72820:n&#45;&gt;Node0x600001e78a50:n</title>
<path fill="none" stroke="red" d="M3810,-34C3822,-34 3827.25,-34 3835.88,-34"/>
<polygon fill="red" stroke="red" points="3836,-37.5 3846,-34 3836,-30.5 3836,-37.5"/>
</g>
<!-- Node0x600001e73000 -->
<g id="node33" class="node">
<title>Node0x600001e73000</title>
<polygon fill="none" stroke="black" points="3970,-9 3970,-77 4058,-77 4058,-9 3970,-9"/>
<text text-anchor="middle" x="4014" y="-66.6" font-family="Times,serif" font-size="8.00">word: Heart</text>
<polyline fill="none" stroke="black" points="3970,-60 4058,-60 "/>
<text text-anchor="middle" x="4014" y="-49.6" font-family="Times,serif" font-size="8.00">size: 4</text>
<polyline fill="none" stroke="black" points="3970,-43 4058,-43 "/>
<text text-anchor="middle" x="4014" y="-32.6" font-family="Times,serif" font-size="8.00">next: 0x600001e73f90</text>
<polyline fill="none" stroke="black" points="3970,-26 4058,-26 "/>
<text text-anchor="middle" x="4014" y="-15.6" font-family="Times,serif" font-size="8.00">prev: 0x600001e78a50</text>
</g>
<!-- Node0x600001e78a50&#45;&gt;Node0x600001e73000 -->
<g id="edge32" class="edge">
<title>Node0x600001e78a50:n&#45;&gt;Node0x600001e73000:n</title>
<path fill="none" stroke="red" d="M3934,-34C3946,-34 3951.25,-34 3959.88,-34"/>
<polygon fill="red" stroke="red" points="3960,-37.5 3970,-34 3960,-30.5 3960,-37.5"/>
</g>
<!-- Node0x600001e73f90 -->
<g id="node34" class="node">
<title>Node0x600001e73f90</title>
<polygon fill="none" stroke="black" points="4094,-9 4094,-77 4182,-77 4182,-9 4094,-9"/>
<text text-anchor="middle" x="4138" y="-66.6" font-family="Times,serif" font-size="8.00">word: packthread</text>
<polyline fill="none" stroke="black" points="4094,-60 4182,-60 "/>
<text text-anchor="middle" x="4138" y="-49.6" font-family="Times,serif" font-size="8.00">size: 1</text>
<polyline fill="none" stroke="black" points="4094,-43 4182,-43 "/>
<text text-anchor="middle" x="4138" y="-32.6" font-family="Times,serif" font-size="8.00">next: 0x600001e502a0</text>
<polyline fill="none" stroke="black" points="4094,-26 4182,-26 "/>
<text text-anchor="middle" x="4138" y="-15.6" font-family="Times,serif" font-size="8.00">prev: 0x600001e73000</text>
</g>
<!-- Node0x600001e73000&#45;&gt;Node0x600001e73f90 -->
<g id="edge33" class="edge">
<title>Node0x600001e73000:n&#45;&gt;Node0x600001e73f90:n</title>
<path fill="none" stroke="red" d="M4058,-34C4070,-34 4075.25,-34 4083.88,-34"/>
<polygon fill="red" stroke="red" points="4084,-37.5 4094,-34 4084,-30.5 4084,-37.5"/>
</g>
<!-- Node0x600001e502a0 -->
<g id="node35" class="node">
<title>Node0x600001e502a0</title>
<polygon fill="none" stroke="black" points="4218,-9 4218,-77 4305,-77 4305,-9 4218,-9"/>
<text text-anchor="middle" x="4261.5" y="-66.6" font-family="Times,serif" font-size="8.00">word: taker</text>
<polyline fill="none" stroke="black" points="4218,-60 4305,-60 "/>
<text text-anchor="middle" x="4261.5" y="-49.6" font-family="Times,serif" font-size="8.00">size: 1</text>
<polyline fill="none" stroke="black" points="4218,-43 4305,-43 "/>
<text text-anchor="middle" x="4261.5" y="-32.6" font-family="Times,serif" font-size="8.00">next: 0x0</text>
<polyline fill="none" stroke="black" points="4218,-26 4305,-26 "/>
<text text-anchor="middle" x="4261.5" y="-15.6" font-family="Times,serif" font-size="8.00">prev: 0x600001e73f90</text>
</g>
<!-- Node0x600001e73f90&#45;&gt;Node0x600001e502a0 -->
<g id="edge34" class="edge">
<title>Node0x600001e73f90:n&#45;&gt;Node0x600001e502a0:n</title>
<path fill="none" stroke="red" d="M4182,-34C4194,-34 4199.25,-34 4207.88,-34"/>
<polygon fill="red" stroke="red" points="4208,-37.5 4218,-34 4208,-30.5 4208,-37.5"/>
</g>
</g>
</svg>
