<?xml version="1.0" encoding="UTF-8" standalone="no"?>
<!DOCTYPE svg PUBLIC "-//W3C//DTD SVG 1.1//EN"
 "http://www.w3.org/Graphics/SVG/1.1/DTD/svg11.dtd">
<!-- Generated by graphviz version 2.50.0 (20211204.2007)
 -->
<!-- Title: G Pages: 1 -->
<svg width="4322pt" height="117pt"
 viewBox="0.00 0.00 4322.00 117.00" xmlns="http://www.w3.org/2000/svg" xmlns:xlink="http://www.w3.org/1999/xlink">
<g id="graph0" class="graph" transform="scale(1 1) rotate(0) translate(4 113)">
<title>G</title>
<polygon fill="white" stroke="transparent" points="-4,4 -4,-113 4318,-113 4318,4 -4,4"/>
<g id="clust1" class="cluster">
<title>cluster250</title>
<polygon fill="none" stroke="black" points="8,-8 8,-101 95,-101 95,-8 8,-8"/>
<text text-anchor="middle" x="51.5" y="-85.8" font-family="Times,serif" font-size="14.00">250</text>
</g>
<g id="clust2" class="cluster">
<title>cluster251</title>
<polygon fill="none" stroke="black" points="131,-8 131,-101 219,-101 219,-8 131,-8"/>
<text text-anchor="middle" x="175" y="-85.8" font-family="Times,serif" font-size="14.00">251</text>
</g>
<g id="clust3" class="cluster">
<title>cluster252</title>
<polygon fill="none" stroke="black" points="255,-8 255,-101 343,-101 343,-8 255,-8"/>
<text text-anchor="middle" x="299" y="-85.8" font-family="Times,serif" font-size="14.00">252</text>
</g>
<g id="clust4" class="cluster">
<title>cluster253</title>
<polygon fill="none" stroke="black" points="379,-8 379,-101 467,-101 467,-8 379,-8"/>
<text text-anchor="middle" x="423" y="-85.8" font-family="Times,serif" font-size="14.00">253</text>
</g>
<g id="clust5" class="cluster">
<title>cluster254</title>
<polygon fill="none" stroke="black" points="503,-8 503,-101 591,-101 591,-8 503,-8"/>
<text text-anchor="middle" x="547" y="-85.8" font-family="Times,serif" font-size="14.00">254</text>
</g>
<g id="clust6" class="cluster">
<title>cluster255</title>
<polygon fill="none" stroke="black" points="627,-8 627,-101 715,-101 715,-8 627,-8"/>
<text text-anchor="middle" x="671" y="-85.8" font-family="Times,serif" font-size="14.00">255</text>
</g>
<g id="clust7" class="cluster">
<title>cluster256</title>
<polygon fill="none" stroke="black" points="751,-8 751,-101 839,-101 839,-8 751,-8"/>
<text text-anchor="middle" x="795" y="-85.8" font-family="Times,serif" font-size="14.00">256</text>
</g>
<g id="clust8" class="cluster">
<title>cluster257</title>
<polygon fill="none" stroke="black" points="875,-8 875,-101 963,-101 963,-8 875,-8"/>
<text text-anchor="middle" x="919" y="-85.8" font-family="Times,serif" font-size="14.00">257</text>
</g>
<g id="clust9" class="cluster">
<title>cluster258</title>
<polygon fill="none" stroke="black" points="999,-8 999,-101 1087,-101 1087,-8 999,-8"/>
<text text-anchor="middle" x="1043" y="-85.8" font-family="Times,serif" font-size="14.00">258</text>
</g>
<g id="clust10" class="cluster">
<title>cluster259</title>
<polygon fill="none" stroke="black" points="1123,-8 1123,-101 1211,-101 1211,-8 1123,-8"/>
<text text-anchor="middle" x="1167" y="-85.8" font-family="Times,serif" font-size="14.00">259</text>
</g>
<g id="clust11" class="cluster">
<title>cluster260</title>
<polygon fill="none" stroke="black" points="1247,-8 1247,-101 1335,-101 1335,-8 1247,-8"/>
<text text-anchor="middle" x="1291" y="-85.8" font-family="Times,serif" font-size="14.00">260</text>
</g>
<g id="clust12" class="cluster">
<title>cluster261</title>
<polygon fill="none" stroke="black" points="1371,-8 1371,-101 1459,-101 1459,-8 1371,-8"/>
<text text-anchor="middle" x="1415" y="-85.8" font-family="Times,serif" font-size="14.00">261</text>
</g>
<g id="clust13" class="cluster">
<title>cluster262</title>
<polygon fill="none" stroke="black" points="1495,-8 1495,-101 1583,-101 1583,-8 1495,-8"/>
<text text-anchor="middle" x="1539" y="-85.8" font-family="Times,serif" font-size="14.00">262</text>
</g>
<g id="clust14" class="cluster">
<title>cluster263</title>
<polygon fill="none" stroke="black" points="1619,-8 1619,-101 1706,-101 1706,-8 1619,-8"/>
<text text-anchor="middle" x="1662.5" y="-85.8" font-family="Times,serif" font-size="14.00">263</text>
</g>
<g id="clust15" class="cluster">
<title>cluster264</title>
<polygon fill="none" stroke="black" points="1742,-8 1742,-101 1830,-101 1830,-8 1742,-8"/>
<text text-anchor="middle" x="1786" y="-85.8" font-family="Times,serif" font-size="14.00">264</text>
</g>
<g id="clust16" class="cluster">
<title>cluster265</title>
<polygon fill="none" stroke="black" points="1866,-8 1866,-101 1954,-101 1954,-8 1866,-8"/>
<text text-anchor="middle" x="1910" y="-85.8" font-family="Times,serif" font-size="14.00">265</text>
</g>
<g id="clust17" class="cluster">
<title>cluster266</title>
<polygon fill="none" stroke="black" points="1990,-8 1990,-101 2078,-101 2078,-8 1990,-8"/>
<text text-anchor="middle" x="2034" y="-85.8" font-family="Times,serif" font-size="14.00">266</text>
</g>
<g id="clust18" class="cluster">
<title>cluster267</title>
<polygon fill="none" stroke="black" points="2114,-8 2114,-101 2202,-101 2202,-8 2114,-8"/>
<text text-anchor="middle" x="2158" y="-85.8" font-family="Times,serif" font-size="14.00">267</text>
</g>
<g id="clust19" class="cluster">
<title>cluster268</title>
<polygon fill="none" stroke="black" points="2238,-8 2238,-101 2326,-101 2326,-8 2238,-8"/>
<text text-anchor="middle" x="2282" y="-85.8" font-family="Times,serif" font-size="14.00">268</text>
</g>
<g id="clust20" class="cluster">
<title>cluster269</title>
<polygon fill="none" stroke="black" points="2362,-8 2362,-101 2450,-101 2450,-8 2362,-8"/>
<text text-anchor="middle" x="2406" y="-85.8" font-family="Times,serif" font-size="14.00">269</text>
</g>
<g id="clust21" class="cluster">
<title>cluster270</title>
<polygon fill="none" stroke="black" points="2486,-8 2486,-101 2574,-101 2574,-8 2486,-8"/>
<text text-anchor="middle" x="2530" y="-85.8" font-family="Times,serif" font-size="14.00">270</text>
</g>
<g id="clust22" class="cluster">
<title>cluster271</title>
<polygon fill="none" stroke="black" points="2610,-8 2610,-101 2698,-101 2698,-8 2610,-8"/>
<text text-anchor="middle" x="2654" y="-85.8" font-family="Times,serif" font-size="14.00">271</text>
</g>
<g id="clust23" class="cluster">
<title>cluster272</title>
<polygon fill="none" stroke="black" points="2734,-8 2734,-101 2822,-101 2822,-8 2734,-8"/>
<text text-anchor="middle" x="2778" y="-85.8" font-family="Times,serif" font-size="14.00">272</text>
</g>
<g id="clust24" class="cluster">
<title>cluster273</title>
<polygon fill="none" stroke="black" points="2858,-8 2858,-101 2946,-101 2946,-8 2858,-8"/>
<text text-anchor="middle" x="2902" y="-85.8" font-family="Times,serif" font-size="14.00">273</text>
</g>
<g id="clust25" class="cluster">
<title>cluster274</title>
<polygon fill="none" stroke="black" points="2982,-8 2982,-101 3069,-101 3069,-8 2982,-8"/>
<text text-anchor="middle" x="3025.5" y="-85.8" font-family="Times,serif" font-size="14.00">274</text>
</g>
<g id="clust26" class="cluster">
<title>cluster275</title>
<polygon fill="none" stroke="black" points="3105,-8 3105,-101 3192,-101 3192,-8 3105,-8"/>
<text text-anchor="middle" x="3148.5" y="-85.8" font-family="Times,serif" font-size="14.00">275</text>
</g>
<g id="clust27" class="cluster">
<title>cluster276</title>
<polygon fill="none" stroke="black" points="3228,-8 3228,-101 3316,-101 3316,-8 3228,-8"/>
<text text-anchor="middle" x="3272" y="-85.8" font-family="Times,serif" font-size="14.00">276</text>
</g>
<g id="clust28" class="cluster">
<title>cluster277</title>
<polygon fill="none" stroke="black" points="3352,-8 3352,-101 3439,-101 3439,-8 3352,-8"/>
<text text-anchor="middle" x="3395.5" y="-85.8" font-family="Times,serif" font-size="14.00">277</text>
</g>
<g id="clust29" class="cluster">
<title>cluster278</title>
<polygon fill="none" stroke="black" points="3475,-8 3475,-101 3563,-101 3563,-8 3475,-8"/>
<text text-anchor="middle" x="3519" y="-85.8" font-family="Times,serif" font-size="14.00">278</text>
</g>
<g id="clust30" class="cluster">
<title>cluster279</title>
<polygon fill="none" stroke="black" points="3599,-8 3599,-101 3687,-101 3687,-8 3599,-8"/>
<text text-anchor="middle" x="3643" y="-85.8" font-family="Times,serif" font-size="14.00">279</text>
</g>
<g id="clust31" class="cluster">
<title>cluster280</title>
<polygon fill="none" stroke="black" points="3723,-8 3723,-101 3811,-101 3811,-8 3723,-8"/>
<text text-anchor="middle" x="3767" y="-85.8" font-family="Times,serif" font-size="14.00">280</text>
</g>
<g id="clust32" class="cluster">
<title>cluster281</title>
<polygon fill="none" stroke="black" points="3847,-8 3847,-101 3935,-101 3935,-8 3847,-8"/>
<text text-anchor="middle" x="3891" y="-85.8" font-family="Times,serif" font-size="14.00">281</text>
</g>
<g id="clust33" class="cluster">
<title>cluster282</title>
<polygon fill="none" stroke="black" points="3971,-8 3971,-101 4059,-101 4059,-8 3971,-8"/>
<text text-anchor="middle" x="4015" y="-85.8" font-family="Times,serif" font-size="14.00">282</text>
</g>
<g id="clust34" class="cluster">
<title>cluster283</title>
<polygon fill="none" stroke="black" points="4095,-8 4095,-101 4183,-101 4183,-8 4095,-8"/>
<text text-anchor="middle" x="4139" y="-85.8" font-family="Times,serif" font-size="14.00">283</text>
</g>
<g id="clust35" class="cluster">
<title>cluster284</title>
<polygon fill="none" stroke="black" points="4219,-8 4219,-101 4306,-101 4306,-8 4219,-8"/>
<text text-anchor="middle" x="4262.5" y="-85.8" font-family="Times,serif" font-size="14.00">284</text>
</g>
<!-- Node0x600000714300 -->
<g id="node1" class="node">
<title>Node0x600000714300</title>
<polygon fill="none" stroke="black" points="8,-9 8,-77 95,-77 95,-9 8,-9"/>
<text text-anchor="middle" x="51.5" y="-66.6" font-family="Times,serif" font-size="8.00">word: kinsmen</text>
<polyline fill="none" stroke="black" points="8,-60 95,-60 "/>
<text text-anchor="middle" x="51.5" y="-49.6" font-family="Times,serif" font-size="8.00">size: 4</text>
<polyline fill="none" stroke="black" points="8,-43 95,-43 "/>
<text text-anchor="middle" x="51.5" y="-32.6" font-family="Times,serif" font-size="8.00">next: 0x600000716490</text>
<polyline fill="none" stroke="black" points="8,-26 95,-26 "/>
<text text-anchor="middle" x="51.5" y="-15.6" font-family="Times,serif" font-size="8.00">prev: 0x0</text>
</g>
<!-- Node0x600000716490 -->
<g id="node2" class="node">
<title>Node0x600000716490</title>
<polygon fill="none" stroke="black" points="131,-9 131,-77 219,-77 219,-9 131,-9"/>
<text text-anchor="middle" x="175" y="-66.6" font-family="Times,serif" font-size="8.00">word: hiss</text>
<polyline fill="none" stroke="black" points="131,-60 219,-60 "/>
<text text-anchor="middle" x="175" y="-49.6" font-family="Times,serif" font-size="8.00">size: 1</text>
<polyline fill="none" stroke="black" points="131,-43 219,-43 "/>
<text text-anchor="middle" x="175" y="-32.6" font-family="Times,serif" font-size="8.00">next: 0x600000716550</text>
<polyline fill="none" stroke="black" points="131,-26 219,-26 "/>
<text text-anchor="middle" x="175" y="-15.6" font-family="Times,serif" font-size="8.00">prev: 0x600000714300</text>
</g>
<!-- Node0x600000714300&#45;&gt;Node0x600000716490 -->
<g id="edge1" class="edge">
<title>Node0x600000714300:n&#45;&gt;Node0x600000716490:n</title>
<path fill="none" stroke="red" d="M95,-34C107,-34 112.25,-34 120.88,-34"/>
<polygon fill="red" stroke="red" points="121,-37.5 131,-34 121,-30.5 121,-37.5"/>
</g>
<!-- Node0x600000716550 -->
<g id="node3" class="node">
<title>Node0x600000716550</title>
<polygon fill="none" stroke="black" points="255,-9 255,-77 343,-77 343,-9 255,-9"/>
<text text-anchor="middle" x="299" y="-66.6" font-family="Times,serif" font-size="8.00">word: interchanging</text>
<polyline fill="none" stroke="black" points="255,-60 343,-60 "/>
<text text-anchor="middle" x="299" y="-49.6" font-family="Times,serif" font-size="8.00">size: 1</text>
<polyline fill="none" stroke="black" points="255,-43 343,-43 "/>
<text text-anchor="middle" x="299" y="-32.6" font-family="Times,serif" font-size="8.00">next: 0x6000007181b0</text>
<polyline fill="none" stroke="black" points="255,-26 343,-26 "/>
<text text-anchor="middle" x="299" y="-15.6" font-family="Times,serif" font-size="8.00">prev: 0x600000716490</text>
</g>
<!-- Node0x600000716490&#45;&gt;Node0x600000716550 -->
<g id="edge2" class="edge">
<title>Node0x600000716490:n&#45;&gt;Node0x600000716550:n</title>
<path fill="none" stroke="red" d="M219,-34C231,-34 236.25,-34 244.88,-34"/>
<polygon fill="red" stroke="red" points="245,-37.5 255,-34 245,-30.5 245,-37.5"/>
</g>
<!-- Node0x6000007181b0 -->
<g id="node4" class="node">
<title>Node0x6000007181b0</title>
<polygon fill="none" stroke="black" points="379,-9 379,-77 467,-77 467,-9 379,-9"/>
<text text-anchor="middle" x="423" y="-66.6" font-family="Times,serif" font-size="8.00">word: Come</text>
<polyline fill="none" stroke="black" points="379,-60 467,-60 "/>
<text text-anchor="middle" x="423" y="-49.6" font-family="Times,serif" font-size="8.00">size: 38</text>
<polyline fill="none" stroke="black" points="379,-43 467,-43 "/>
<text text-anchor="middle" x="423" y="-32.6" font-family="Times,serif" font-size="8.00">next: 0x600000718ae0</text>
<polyline fill="none" stroke="black" points="379,-26 467,-26 "/>
<text text-anchor="middle" x="423" y="-15.6" font-family="Times,serif" font-size="8.00">prev: 0x600000716550</text>
</g>
<!-- Node0x600000716550&#45;&gt;Node0x6000007181b0 -->
<g id="edge3" class="edge">
<title>Node0x600000716550:n&#45;&gt;Node0x6000007181b0:n</title>
<path fill="none" stroke="red" d="M343,-34C355,-34 360.25,-34 368.88,-34"/>
<polygon fill="red" stroke="red" points="369,-37.5 379,-34 369,-30.5 369,-37.5"/>
</g>
<!-- Node0x600000718ae0 -->
<g id="node5" class="node">
<title>Node0x600000718ae0</title>
<polygon fill="none" stroke="black" points="503,-9 503,-77 591,-77 591,-9 503,-9"/>
<text text-anchor="middle" x="547" y="-66.6" font-family="Times,serif" font-size="8.00">word: chaos</text>
<polyline fill="none" stroke="black" points="503,-60 591,-60 "/>
<text text-anchor="middle" x="547" y="-49.6" font-family="Times,serif" font-size="8.00">size: 1</text>
<polyline fill="none" stroke="black" points="503,-43 591,-43 "/>
<text text-anchor="middle" x="547" y="-32.6" font-family="Times,serif" font-size="8.00">next: 0x600000719200</text>
<polyline fill="none" stroke="black" points="503,-26 591,-26 "/>
<text text-anchor="middle" x="547" y="-15.6" font-family="Times,serif" font-size="8.00">prev: 0x6000007181b0</text>
</g>
<!-- Node0x6000007181b0&#45;&gt;Node0x600000718ae0 -->
<g id="edge4" class="edge">
<title>Node0x6000007181b0:n&#45;&gt;Node0x600000718ae0:n</title>
<path fill="none" stroke="red" d="M467,-34C479,-34 484.25,-34 492.88,-34"/>
<polygon fill="red" stroke="red" points="493,-37.5 503,-34 493,-30.5 493,-37.5"/>
</g>
<!-- Node0x600000719200 -->
<g id="node6" class="node">
<title>Node0x600000719200</title>
<polygon fill="none" stroke="black" points="627,-9 627,-77 715,-77 715,-9 627,-9"/>
<text text-anchor="middle" x="671" y="-66.6" font-family="Times,serif" font-size="8.00">word: purg</text>
<polyline fill="none" stroke="black" points="627,-60 715,-60 "/>
<text text-anchor="middle" x="671" y="-49.6" font-family="Times,serif" font-size="8.00">size: 2</text>
<polyline fill="none" stroke="black" points="627,-43 715,-43 "/>
<text text-anchor="middle" x="671" y="-32.6" font-family="Times,serif" font-size="8.00">next: 0x600000719410</text>
<polyline fill="none" stroke="black" points="627,-26 715,-26 "/>
<text text-anchor="middle" x="671" y="-15.6" font-family="Times,serif" font-size="8.00">prev: 0x600000718ae0</text>
</g>
<!-- Node0x600000718ae0&#45;&gt;Node0x600000719200 -->
<g id="edge5" class="edge">
<title>Node0x600000718ae0:n&#45;&gt;Node0x600000719200:n</title>
<path fill="none" stroke="red" d="M591,-34C603,-34 608.25,-34 616.88,-34"/>
<polygon fill="red" stroke="red" points="617,-37.5 627,-34 617,-30.5 617,-37.5"/>
</g>
<!-- Node0x600000719410 -->
<g id="node7" class="node">
<title>Node0x600000719410</title>
<polygon fill="none" stroke="black" points="751,-9 751,-77 839,-77 839,-9 751,-9"/>
<text text-anchor="middle" x="795" y="-66.6" font-family="Times,serif" font-size="8.00">word: Farewell</text>
<polyline fill="none" stroke="black" points="751,-60 839,-60 "/>
<text text-anchor="middle" x="795" y="-49.6" font-family="Times,serif" font-size="8.00">size: 14</text>
<polyline fill="none" stroke="black" points="751,-43 839,-43 "/>
<text text-anchor="middle" x="795" y="-32.6" font-family="Times,serif" font-size="8.00">next: 0x60000071a280</text>
<polyline fill="none" stroke="black" points="751,-26 839,-26 "/>
<text text-anchor="middle" x="795" y="-15.6" font-family="Times,serif" font-size="8.00">prev: 0x600000719200</text>
</g>
<!-- Node0x600000719200&#45;&gt;Node0x600000719410 -->
<g id="edge6" class="edge">
<title>Node0x600000719200:n&#45;&gt;Node0x600000719410:n</title>
<path fill="none" stroke="red" d="M715,-34C727,-34 732.25,-34 740.88,-34"/>
<polygon fill="red" stroke="red" points="741,-37.5 751,-34 741,-30.5 741,-37.5"/>
</g>
<!-- Node0x60000071a280 -->
<g id="node8" class="node">
<title>Node0x60000071a280</title>
<polygon fill="none" stroke="black" points="875,-9 875,-77 963,-77 963,-9 875,-9"/>
<text text-anchor="middle" x="919" y="-66.6" font-family="Times,serif" font-size="8.00">word: think</text>
<polyline fill="none" stroke="black" points="875,-60 963,-60 "/>
<text text-anchor="middle" x="919" y="-49.6" font-family="Times,serif" font-size="8.00">size: 20</text>
<polyline fill="none" stroke="black" points="875,-43 963,-43 "/>
<text text-anchor="middle" x="919" y="-32.6" font-family="Times,serif" font-size="8.00">next: 0x60000071a5b0</text>
<polyline fill="none" stroke="black" points="875,-26 963,-26 "/>
<text text-anchor="middle" x="919" y="-15.6" font-family="Times,serif" font-size="8.00">prev: 0x600000719410</text>
</g>
<!-- Node0x600000719410&#45;&gt;Node0x60000071a280 -->
<g id="edge7" class="edge">
<title>Node0x600000719410:n&#45;&gt;Node0x60000071a280:n</title>
<path fill="none" stroke="red" d="M839,-34C851,-34 856.25,-34 864.88,-34"/>
<polygon fill="red" stroke="red" points="865,-37.5 875,-34 865,-30.5 865,-37.5"/>
</g>
<!-- Node0x60000071a5b0 -->
<g id="node9" class="node">
<title>Node0x60000071a5b0</title>
<polygon fill="none" stroke="black" points="999,-9 999,-77 1087,-77 1087,-9 999,-9"/>
<text text-anchor="middle" x="1043" y="-66.6" font-family="Times,serif" font-size="8.00">word: puts</text>
<polyline fill="none" stroke="black" points="999,-60 1087,-60 "/>
<text text-anchor="middle" x="1043" y="-49.6" font-family="Times,serif" font-size="8.00">size: 1</text>
<polyline fill="none" stroke="black" points="999,-43 1087,-43 "/>
<text text-anchor="middle" x="1043" y="-32.6" font-family="Times,serif" font-size="8.00">next: 0x60000071c7e0</text>
<polyline fill="none" stroke="black" points="999,-26 1087,-26 "/>
<text text-anchor="middle" x="1043" y="-15.6" font-family="Times,serif" font-size="8.00">prev: 0x60000071a280</text>
</g>
<!-- Node0x60000071a280&#45;&gt;Node0x60000071a5b0 -->
<g id="edge8" class="edge">
<title>Node0x60000071a280:n&#45;&gt;Node0x60000071a5b0:n</title>
<path fill="none" stroke="red" d="M963,-34C975,-34 980.25,-34 988.88,-34"/>
<polygon fill="red" stroke="red" points="989,-37.5 999,-34 989,-30.5 989,-37.5"/>
</g>
<!-- Node0x60000071c7e0 -->
<g id="node10" class="node">
<title>Node0x60000071c7e0</title>
<polygon fill="none" stroke="black" points="1123,-9 1123,-77 1211,-77 1211,-9 1123,-9"/>
<text text-anchor="middle" x="1167" y="-66.6" font-family="Times,serif" font-size="8.00">word: assembly</text>
<polyline fill="none" stroke="black" points="1123,-60 1211,-60 "/>
<text text-anchor="middle" x="1167" y="-49.6" font-family="Times,serif" font-size="8.00">size: 1</text>
<polyline fill="none" stroke="black" points="1123,-43 1211,-43 "/>
<text text-anchor="middle" x="1167" y="-32.6" font-family="Times,serif" font-size="8.00">next: 0x600000708780</text>
<polyline fill="none" stroke="black" points="1123,-26 1211,-26 "/>
<text text-anchor="middle" x="1167" y="-15.6" font-family="Times,serif" font-size="8.00">prev: 0x60000071a5b0</text>
</g>
<!-- Node0x60000071a5b0&#45;&gt;Node0x60000071c7e0 -->
<g id="edge9" class="edge">
<title>Node0x60000071a5b0:n&#45;&gt;Node0x60000071c7e0:n</title>
<path fill="none" stroke="red" d="M1087,-34C1099,-34 1104.25,-34 1112.88,-34"/>
<polygon fill="red" stroke="red" points="1113,-37.5 1123,-34 1113,-30.5 1113,-37.5"/>
</g>
<!-- Node0x600000708780 -->
<g id="node11" class="node">
<title>Node0x600000708780</title>
<polygon fill="none" stroke="black" points="1247,-9 1247,-77 1335,-77 1335,-9 1247,-9"/>
<text text-anchor="middle" x="1291" y="-66.6" font-family="Times,serif" font-size="8.00">word: souls</text>
<polyline fill="none" stroke="black" points="1247,-60 1335,-60 "/>
<text text-anchor="middle" x="1291" y="-49.6" font-family="Times,serif" font-size="8.00">size: 2</text>
<polyline fill="none" stroke="black" points="1247,-43 1335,-43 "/>
<text text-anchor="middle" x="1291" y="-32.6" font-family="Times,serif" font-size="8.00">next: 0x6000007094a0</text>
<polyline fill="none" stroke="black" points="1247,-26 1335,-26 "/>
<text text-anchor="middle" x="1291" y="-15.6" font-family="Times,serif" font-size="8.00">prev: 0x60000071c7e0</text>
</g>
<!-- Node0x60000071c7e0&#45;&gt;Node0x600000708780 -->
<g id="edge10" class="edge">
<title>Node0x60000071c7e0:n&#45;&gt;Node0x600000708780:n</title>
<path fill="none" stroke="red" d="M1211,-34C1223,-34 1228.25,-34 1236.88,-34"/>
<polygon fill="red" stroke="red" points="1237,-37.5 1247,-34 1237,-30.5 1237,-37.5"/>
</g>
<!-- Node0x6000007094a0 -->
<g id="node12" class="node">
<title>Node0x6000007094a0</title>
<polygon fill="none" stroke="black" points="1371,-9 1371,-77 1459,-77 1459,-9 1371,-9"/>
<text text-anchor="middle" x="1415" y="-66.6" font-family="Times,serif" font-size="8.00">word: nurs</text>
<polyline fill="none" stroke="black" points="1371,-60 1459,-60 "/>
<text text-anchor="middle" x="1415" y="-49.6" font-family="Times,serif" font-size="8.00">size: 2</text>
<polyline fill="none" stroke="black" points="1371,-43 1459,-43 "/>
<text text-anchor="middle" x="1415" y="-32.6" font-family="Times,serif" font-size="8.00">next: 0x60000071d2f0</text>
<polyline fill="none" stroke="black" points="1371,-26 1459,-26 "/>
<text text-anchor="middle" x="1415" y="-15.6" font-family="Times,serif" font-size="8.00">prev: 0x600000708780</text>
</g>
<!-- Node0x600000708780&#45;&gt;Node0x6000007094a0 -->
<g id="edge11" class="edge">
<title>Node0x600000708780:n&#45;&gt;Node0x6000007094a0:n</title>
<path fill="none" stroke="red" d="M1335,-34C1347,-34 1352.25,-34 1360.88,-34"/>
<polygon fill="red" stroke="red" points="1361,-37.5 1371,-34 1361,-30.5 1361,-37.5"/>
</g>
<!-- Node0x60000071d2f0 -->
<g id="node13" class="node">
<title>Node0x60000071d2f0</title>
<polygon fill="none" stroke="black" points="1495,-9 1495,-77 1583,-77 1583,-9 1495,-9"/>
<text text-anchor="middle" x="1539" y="-66.6" font-family="Times,serif" font-size="8.00">word: Her</text>
<polyline fill="none" stroke="black" points="1495,-60 1583,-60 "/>
<text text-anchor="middle" x="1539" y="-49.6" font-family="Times,serif" font-size="8.00">size: 12</text>
<polyline fill="none" stroke="black" points="1495,-43 1583,-43 "/>
<text text-anchor="middle" x="1539" y="-32.6" font-family="Times,serif" font-size="8.00">next: 0x6000007012c0</text>
<polyline fill="none" stroke="black" points="1495,-26 1583,-26 "/>
<text text-anchor="middle" x="1539" y="-15.6" font-family="Times,serif" font-size="8.00">prev: 0x6000007094a0</text>
</g>
<!-- Node0x6000007094a0&#45;&gt;Node0x60000071d2f0 -->
<g id="edge12" class="edge">
<title>Node0x6000007094a0:n&#45;&gt;Node0x60000071d2f0:n</title>
<path fill="none" stroke="red" d="M1459,-34C1471,-34 1476.25,-34 1484.88,-34"/>
<polygon fill="red" stroke="red" points="1485,-37.5 1495,-34 1485,-30.5 1485,-37.5"/>
</g>
<!-- Node0x6000007012c0 -->
<g id="node14" class="node">
<title>Node0x6000007012c0</title>
<polygon fill="none" stroke="black" points="1619,-9 1619,-77 1706,-77 1706,-9 1619,-9"/>
<text text-anchor="middle" x="1662.5" y="-66.6" font-family="Times,serif" font-size="8.00">word: belov</text>
<polyline fill="none" stroke="black" points="1619,-60 1706,-60 "/>
<text text-anchor="middle" x="1662.5" y="-49.6" font-family="Times,serif" font-size="8.00">size: 1</text>
<polyline fill="none" stroke="black" points="1619,-43 1706,-43 "/>
<text text-anchor="middle" x="1662.5" y="-32.6" font-family="Times,serif" font-size="8.00">next: 0x6000007014a0</text>
<polyline fill="none" stroke="black" points="1619,-26 1706,-26 "/>
<text text-anchor="middle" x="1662.5" y="-15.6" font-family="Times,serif" font-size="8.00">prev: 0x60000071d2f0</text>
</g>
<!-- Node0x60000071d2f0&#45;&gt;Node0x6000007012c0 -->
<g id="edge13" class="edge">
<title>Node0x60000071d2f0:n&#45;&gt;Node0x6000007012c0:n</title>
<path fill="none" stroke="red" d="M1583,-34C1595,-34 1600.25,-34 1608.88,-34"/>
<polygon fill="red" stroke="red" points="1609,-37.5 1619,-34 1609,-30.5 1609,-37.5"/>
</g>
<!-- Node0x6000007014a0 -->
<g id="node15" class="node">
<title>Node0x6000007014a0</title>
<polygon fill="none" stroke="black" points="1742,-9 1742,-77 1830,-77 1830,-9 1742,-9"/>
<text text-anchor="middle" x="1786" y="-66.6" font-family="Times,serif" font-size="8.00">word: access</text>
<polyline fill="none" stroke="black" points="1742,-60 1830,-60 "/>
<text text-anchor="middle" x="1786" y="-49.6" font-family="Times,serif" font-size="8.00">size: 1</text>
<polyline fill="none" stroke="black" points="1742,-43 1830,-43 "/>
<text text-anchor="middle" x="1786" y="-32.6" font-family="Times,serif" font-size="8.00">next: 0x600000701590</text>
<polyline fill="none" stroke="black" points="1742,-26 1830,-26 "/>
<text text-anchor="middle" x="1786" y="-15.6" font-family="Times,serif" font-size="8.00">prev: 0x6000007012c0</text>
</g>
<!-- Node0x6000007012c0&#45;&gt;Node0x6000007014a0 -->
<g id="edge14" class="edge">
<title>Node0x6000007012c0:n&#45;&gt;Node0x6000007014a0:n</title>
<path fill="none" stroke="red" d="M1706,-34C1718,-34 1723.25,-34 1731.88,-34"/>
<polygon fill="red" stroke="red" points="1732,-37.5 1742,-34 1732,-30.5 1732,-37.5"/>
</g>
<!-- Node0x600000701590 -->
<g id="node16" class="node">
<title>Node0x600000701590</title>
<polygon fill="none" stroke="black" points="1866,-9 1866,-77 1954,-77 1954,-9 1866,-9"/>
<text text-anchor="middle" x="1910" y="-66.6" font-family="Times,serif" font-size="8.00">word: anywhere</text>
<polyline fill="none" stroke="black" points="1866,-60 1954,-60 "/>
<text text-anchor="middle" x="1910" y="-49.6" font-family="Times,serif" font-size="8.00">size: 1</text>
<polyline fill="none" stroke="black" points="1866,-43 1954,-43 "/>
<text text-anchor="middle" x="1910" y="-32.6" font-family="Times,serif" font-size="8.00">next: 0x600000703720</text>
<polyline fill="none" stroke="black" points="1866,-26 1954,-26 "/>
<text text-anchor="middle" x="1910" y="-15.6" font-family="Times,serif" font-size="8.00">prev: 0x6000007014a0</text>
</g>
<!-- Node0x6000007014a0&#45;&gt;Node0x600000701590 -->
<g id="edge15" class="edge">
<title>Node0x6000007014a0:n&#45;&gt;Node0x600000701590:n</title>
<path fill="none" stroke="red" d="M1830,-34C1842,-34 1847.25,-34 1855.88,-34"/>
<polygon fill="red" stroke="red" points="1856,-37.5 1866,-34 1856,-30.5 1856,-37.5"/>
</g>
<!-- Node0x600000703720 -->
<g id="node17" class="node">
<title>Node0x600000703720</title>
<polygon fill="none" stroke="black" points="1990,-9 1990,-77 2078,-77 2078,-9 1990,-9"/>
<text text-anchor="middle" x="2034" y="-66.6" font-family="Times,serif" font-size="8.00">word: shore</text>
<polyline fill="none" stroke="black" points="1990,-60 2078,-60 "/>
<text text-anchor="middle" x="2034" y="-49.6" font-family="Times,serif" font-size="8.00">size: 1</text>
<polyline fill="none" stroke="black" points="1990,-43 2078,-43 "/>
<text text-anchor="middle" x="2034" y="-32.6" font-family="Times,serif" font-size="8.00">next: 0x600000731380</text>
<polyline fill="none" stroke="black" points="1990,-26 2078,-26 "/>
<text text-anchor="middle" x="2034" y="-15.6" font-family="Times,serif" font-size="8.00">prev: 0x600000701590</text>
</g>
<!-- Node0x600000701590&#45;&gt;Node0x600000703720 -->
<g id="edge16" class="edge">
<title>Node0x600000701590:n&#45;&gt;Node0x600000703720:n</title>
<path fill="none" stroke="red" d="M1954,-34C1966,-34 1971.25,-34 1979.88,-34"/>
<polygon fill="red" stroke="red" points="1980,-37.5 1990,-34 1980,-30.5 1980,-37.5"/>
</g>
<!-- Node0x600000731380 -->
<g id="node18" class="node">
<title>Node0x600000731380</title>
<polygon fill="none" stroke="black" points="2114,-9 2114,-77 2202,-77 2202,-9 2114,-9"/>
<text text-anchor="middle" x="2158" y="-66.6" font-family="Times,serif" font-size="8.00">word: reels</text>
<polyline fill="none" stroke="black" points="2114,-60 2202,-60 "/>
<text text-anchor="middle" x="2158" y="-49.6" font-family="Times,serif" font-size="8.00">size: 1</text>
<polyline fill="none" stroke="black" points="2114,-43 2202,-43 "/>
<text text-anchor="middle" x="2158" y="-32.6" font-family="Times,serif" font-size="8.00">next: 0x600000733a50</text>
<polyline fill="none" stroke="black" points="2114,-26 2202,-26 "/>
<text text-anchor="middle" x="2158" y="-15.6" font-family="Times,serif" font-size="8.00">prev: 0x600000703720</text>
</g>
<!-- Node0x600000703720&#45;&gt;Node0x600000731380 -->
<g id="edge17" class="edge">
<title>Node0x600000703720:n&#45;&gt;Node0x600000731380:n</title>
<path fill="none" stroke="red" d="M2078,-34C2090,-34 2095.25,-34 2103.88,-34"/>
<polygon fill="red" stroke="red" points="2104,-37.5 2114,-34 2104,-30.5 2104,-37.5"/>
</g>
<!-- Node0x600000733a50 -->
<g id="node19" class="node">
<title>Node0x600000733a50</title>
<polygon fill="none" stroke="black" points="2238,-9 2238,-77 2326,-77 2326,-9 2238,-9"/>
<text text-anchor="middle" x="2282" y="-66.6" font-family="Times,serif" font-size="8.00">word: dowdy</text>
<polyline fill="none" stroke="black" points="2238,-60 2326,-60 "/>
<text text-anchor="middle" x="2282" y="-49.6" font-family="Times,serif" font-size="8.00">size: 1</text>
<polyline fill="none" stroke="black" points="2238,-43 2326,-43 "/>
<text text-anchor="middle" x="2282" y="-32.6" font-family="Times,serif" font-size="8.00">next: 0x600000734150</text>
<polyline fill="none" stroke="black" points="2238,-26 2326,-26 "/>
<text text-anchor="middle" x="2282" y="-15.6" font-family="Times,serif" font-size="8.00">prev: 0x600000731380</text>
</g>
<!-- Node0x600000731380&#45;&gt;Node0x600000733a50 -->
<g id="edge18" class="edge">
<title>Node0x600000731380:n&#45;&gt;Node0x600000733a50:n</title>
<path fill="none" stroke="red" d="M2202,-34C2214,-34 2219.25,-34 2227.88,-34"/>
<polygon fill="red" stroke="red" points="2228,-37.5 2238,-34 2228,-30.5 2228,-37.5"/>
</g>
<!-- Node0x600000734150 -->
<g id="node20" class="node">
<title>Node0x600000734150</title>
<polygon fill="none" stroke="black" points="2362,-9 2362,-77 2450,-77 2450,-9 2362,-9"/>
<text text-anchor="middle" x="2406" y="-66.6" font-family="Times,serif" font-size="8.00">word: singular</text>
<polyline fill="none" stroke="black" points="2362,-60 2450,-60 "/>
<text text-anchor="middle" x="2406" y="-49.6" font-family="Times,serif" font-size="8.00">size: 2</text>
<polyline fill="none" stroke="black" points="2362,-43 2450,-43 "/>
<text text-anchor="middle" x="2406" y="-32.6" font-family="Times,serif" font-size="8.00">next: 0x6000007346c0</text>
<polyline fill="none" stroke="black" points="2362,-26 2450,-26 "/>
<text text-anchor="middle" x="2406" y="-15.6" font-family="Times,serif" font-size="8.00">prev: 0x600000733a50</text>
</g>
<!-- Node0x600000733a50&#45;&gt;Node0x600000734150 -->
<g id="edge19" class="edge">
<title>Node0x600000733a50:n&#45;&gt;Node0x600000734150:n</title>
<path fill="none" stroke="red" d="M2326,-34C2338,-34 2343.25,-34 2351.88,-34"/>
<polygon fill="red" stroke="red" points="2352,-37.5 2362,-34 2352,-30.5 2352,-37.5"/>
</g>
<!-- Node0x6000007346c0 -->
<g id="node21" class="node">
<title>Node0x6000007346c0</title>
<polygon fill="none" stroke="black" points="2486,-9 2486,-77 2574,-77 2574,-9 2486,-9"/>
<text text-anchor="middle" x="2530" y="-66.6" font-family="Times,serif" font-size="8.00">word: lolling</text>
<polyline fill="none" stroke="black" points="2486,-60 2574,-60 "/>
<text text-anchor="middle" x="2530" y="-49.6" font-family="Times,serif" font-size="8.00">size: 1</text>
<polyline fill="none" stroke="black" points="2486,-43 2574,-43 "/>
<text text-anchor="middle" x="2530" y="-32.6" font-family="Times,serif" font-size="8.00">next: 0x600000736c40</text>
<polyline fill="none" stroke="black" points="2486,-26 2574,-26 "/>
<text text-anchor="middle" x="2530" y="-15.6" font-family="Times,serif" font-size="8.00">prev: 0x600000734150</text>
</g>
<!-- Node0x600000734150&#45;&gt;Node0x6000007346c0 -->
<g id="edge20" class="edge">
<title>Node0x600000734150:n&#45;&gt;Node0x6000007346c0:n</title>
<path fill="none" stroke="red" d="M2450,-34C2462,-34 2467.25,-34 2475.88,-34"/>
<polygon fill="red" stroke="red" points="2476,-37.5 2486,-34 2476,-30.5 2476,-37.5"/>
</g>
<!-- Node0x600000736c40 -->
<g id="node22" class="node">
<title>Node0x600000736c40</title>
<polygon fill="none" stroke="black" points="2610,-9 2610,-77 2698,-77 2698,-9 2610,-9"/>
<text text-anchor="middle" x="2654" y="-66.6" font-family="Times,serif" font-size="8.00">word: heavens</text>
<polyline fill="none" stroke="black" points="2610,-60 2698,-60 "/>
<text text-anchor="middle" x="2654" y="-49.6" font-family="Times,serif" font-size="8.00">size: 4</text>
<polyline fill="none" stroke="black" points="2610,-43 2698,-43 "/>
<text text-anchor="middle" x="2654" y="-32.6" font-family="Times,serif" font-size="8.00">next: 0x600000737990</text>
<polyline fill="none" stroke="black" points="2610,-26 2698,-26 "/>
<text text-anchor="middle" x="2654" y="-15.6" font-family="Times,serif" font-size="8.00">prev: 0x6000007346c0</text>
</g>
<!-- Node0x6000007346c0&#45;&gt;Node0x600000736c40 -->
<g id="edge21" class="edge">
<title>Node0x6000007346c0:n&#45;&gt;Node0x600000736c40:n</title>
<path fill="none" stroke="red" d="M2574,-34C2586,-34 2591.25,-34 2599.88,-34"/>
<polygon fill="red" stroke="red" points="2600,-37.5 2610,-34 2600,-30.5 2600,-37.5"/>
</g>
<!-- Node0x600000737990 -->
<g id="node23" class="node">
<title>Node0x600000737990</title>
<polygon fill="none" stroke="black" points="2734,-9 2734,-77 2822,-77 2822,-9 2734,-9"/>
<text text-anchor="middle" x="2778" y="-66.6" font-family="Times,serif" font-size="8.00">word: egg</text>
<polyline fill="none" stroke="black" points="2734,-60 2822,-60 "/>
<text text-anchor="middle" x="2778" y="-49.6" font-family="Times,serif" font-size="8.00">size: 2</text>
<polyline fill="none" stroke="black" points="2734,-43 2822,-43 "/>
<text text-anchor="middle" x="2778" y="-32.6" font-family="Times,serif" font-size="8.00">next: 0x60000073aaf0</text>
<polyline fill="none" stroke="black" points="2734,-26 2822,-26 "/>
<text text-anchor="middle" x="2778" y="-15.6" font-family="Times,serif" font-size="8.00">prev: 0x600000736c40</text>
</g>
<!-- Node0x600000736c40&#45;&gt;Node0x600000737990 -->
<g id="edge22" class="edge">
<title>Node0x600000736c40:n&#45;&gt;Node0x600000737990:n</title>
<path fill="none" stroke="red" d="M2698,-34C2710,-34 2715.25,-34 2723.88,-34"/>
<polygon fill="red" stroke="red" points="2724,-37.5 2734,-34 2724,-30.5 2724,-37.5"/>
</g>
<!-- Node0x60000073aaf0 -->
<g id="node24" class="node">
<title>Node0x60000073aaf0</title>
<polygon fill="none" stroke="black" points="2858,-9 2858,-77 2946,-77 2946,-9 2858,-9"/>
<text text-anchor="middle" x="2902" y="-66.6" font-family="Times,serif" font-size="8.00">word: living</text>
<polyline fill="none" stroke="black" points="2858,-60 2946,-60 "/>
<text text-anchor="middle" x="2902" y="-49.6" font-family="Times,serif" font-size="8.00">size: 5</text>
<polyline fill="none" stroke="black" points="2858,-43 2946,-43 "/>
<text text-anchor="middle" x="2902" y="-32.6" font-family="Times,serif" font-size="8.00">next: 0x60000073bf60</text>
<polyline fill="none" stroke="black" points="2858,-26 2946,-26 "/>
<text text-anchor="middle" x="2902" y="-15.6" font-family="Times,serif" font-size="8.00">prev: 0x600000737990</text>
</g>
<!-- Node0x600000737990&#45;&gt;Node0x60000073aaf0 -->
<g id="edge23" class="edge">
<title>Node0x600000737990:n&#45;&gt;Node0x60000073aaf0:n</title>
<path fill="none" stroke="red" d="M2822,-34C2834,-34 2839.25,-34 2847.88,-34"/>
<polygon fill="red" stroke="red" points="2848,-37.5 2858,-34 2848,-30.5 2848,-37.5"/>
</g>
<!-- Node0x60000073bf60 -->
<g id="node25" class="node">
<title>Node0x60000073bf60</title>
<polygon fill="none" stroke="black" points="2982,-9 2982,-77 3069,-77 3069,-9 2982,-9"/>
<text text-anchor="middle" x="3025.5" y="-66.6" font-family="Times,serif" font-size="8.00">word: carrion</text>
<polyline fill="none" stroke="black" points="2982,-60 3069,-60 "/>
<text text-anchor="middle" x="3025.5" y="-49.6" font-family="Times,serif" font-size="8.00">size: 2</text>
<polyline fill="none" stroke="black" points="2982,-43 3069,-43 "/>
<text text-anchor="middle" x="3025.5" y="-32.6" font-family="Times,serif" font-size="8.00">next: 0x60000073ccc0</text>
<polyline fill="none" stroke="black" points="2982,-26 3069,-26 "/>
<text text-anchor="middle" x="3025.5" y="-15.6" font-family="Times,serif" font-size="8.00">prev: 0x60000073aaf0</text>
</g>
<!-- Node0x60000073aaf0&#45;&gt;Node0x60000073bf60 -->
<g id="edge24" class="edge">
<title>Node0x60000073aaf0:n&#45;&gt;Node0x60000073bf60:n</title>
<path fill="none" stroke="red" d="M2946,-34C2958,-34 2963.25,-34 2971.88,-34"/>
<polygon fill="red" stroke="red" points="2972,-37.5 2982,-34 2972,-30.5 2972,-37.5"/>
</g>
<!-- Node0x60000073ccc0 -->
<g id="node26" class="node">
<title>Node0x60000073ccc0</title>
<polygon fill="none" stroke="black" points="3105,-9 3105,-77 3192,-77 3192,-9 3105,-9"/>
<text text-anchor="middle" x="3148.5" y="-66.6" font-family="Times,serif" font-size="8.00">word: Unseemly</text>
<polyline fill="none" stroke="black" points="3105,-60 3192,-60 "/>
<text text-anchor="middle" x="3148.5" y="-49.6" font-family="Times,serif" font-size="8.00">size: 1</text>
<polyline fill="none" stroke="black" points="3105,-43 3192,-43 "/>
<text text-anchor="middle" x="3148.5" y="-32.6" font-family="Times,serif" font-size="8.00">next: 0x60000073cfc0</text>
<polyline fill="none" stroke="black" points="3105,-26 3192,-26 "/>
<text text-anchor="middle" x="3148.5" y="-15.6" font-family="Times,serif" font-size="8.00">prev: 0x60000073bf60</text>
</g>
<!-- Node0x60000073bf60&#45;&gt;Node0x60000073ccc0 -->
<g id="edge25" class="edge">
<title>Node0x60000073bf60:n&#45;&gt;Node0x60000073ccc0:n</title>
<path fill="none" stroke="red" d="M3069,-34C3081,-34 3086.25,-34 3094.88,-34"/>
<polygon fill="red" stroke="red" points="3095,-37.5 3105,-34 3095,-30.5 3095,-37.5"/>
</g>
<!-- Node0x60000073cfc0 -->
<g id="node27" class="node">
<title>Node0x60000073cfc0</title>
<polygon fill="none" stroke="black" points="3228,-9 3228,-77 3316,-77 3316,-9 3228,-9"/>
<text text-anchor="middle" x="3272" y="-66.6" font-family="Times,serif" font-size="8.00">word: flask</text>
<polyline fill="none" stroke="black" points="3228,-60 3316,-60 "/>
<text text-anchor="middle" x="3272" y="-49.6" font-family="Times,serif" font-size="8.00">size: 1</text>
<polyline fill="none" stroke="black" points="3228,-43 3316,-43 "/>
<text text-anchor="middle" x="3272" y="-32.6" font-family="Times,serif" font-size="8.00">next: 0x60000073d740</text>
<polyline fill="none" stroke="black" points="3228,-26 3316,-26 "/>
<text text-anchor="middle" x="3272" y="-15.6" font-family="Times,serif" font-size="8.00">prev: 0x60000073ccc0</text>
</g>
<!-- Node0x60000073ccc0&#45;&gt;Node0x60000073cfc0 -->
<g id="edge26" class="edge">
<title>Node0x60000073ccc0:n&#45;&gt;Node0x60000073cfc0:n</title>
<path fill="none" stroke="red" d="M3192,-34C3204,-34 3209.25,-34 3217.88,-34"/>
<polygon fill="red" stroke="red" points="3218,-37.5 3228,-34 3218,-30.5 3218,-37.5"/>
</g>
<!-- Node0x60000073d740 -->
<g id="node28" class="node">
<title>Node0x60000073d740</title>
<polygon fill="none" stroke="black" points="3352,-9 3352,-77 3439,-77 3439,-9 3352,-9"/>
<text text-anchor="middle" x="3395.5" y="-66.6" font-family="Times,serif" font-size="8.00">word: mew</text>
<polyline fill="none" stroke="black" points="3352,-60 3439,-60 "/>
<text text-anchor="middle" x="3395.5" y="-49.6" font-family="Times,serif" font-size="8.00">size: 1</text>
<polyline fill="none" stroke="black" points="3352,-43 3439,-43 "/>
<text text-anchor="middle" x="3395.5" y="-32.6" font-family="Times,serif" font-size="8.00">next: 0x60000073d920</text>
<polyline fill="none" stroke="black" points="3352,-26 3439,-26 "/>
<text text-anchor="middle" x="3395.5" y="-15.6" font-family="Times,serif" font-size="8.00">prev: 0x60000073cfc0</text>
</g>
<!-- Node0x60000073cfc0&#45;&gt;Node0x60000073d740 -->
<g id="edge27" class="edge">
<title>Node0x60000073cfc0:n&#45;&gt;Node0x60000073d740:n</title>
<path fill="none" stroke="red" d="M3316,-34C3328,-34 3333.25,-34 3341.88,-34"/>
<polygon fill="red" stroke="red" points="3342,-37.5 3352,-34 3342,-30.5 3342,-37.5"/>
</g>
<!-- Node0x60000073d920 -->
<g id="node29" class="node">
<title>Node0x60000073d920</title>
<polygon fill="none" stroke="black" points="3475,-9 3475,-77 3563,-77 3563,-9 3475,-9"/>
<text text-anchor="middle" x="3519" y="-66.6" font-family="Times,serif" font-size="8.00">word: ado</text>
<polyline fill="none" stroke="black" points="3475,-60 3563,-60 "/>
<text text-anchor="middle" x="3519" y="-49.6" font-family="Times,serif" font-size="8.00">size: 1</text>
<polyline fill="none" stroke="black" points="3475,-43 3563,-43 "/>
<text text-anchor="middle" x="3519" y="-32.6" font-family="Times,serif" font-size="8.00">next: 0x60000073db00</text>
<polyline fill="none" stroke="black" points="3475,-26 3563,-26 "/>
<text text-anchor="middle" x="3519" y="-15.6" font-family="Times,serif" font-size="8.00">prev: 0x60000073d740</text>
</g>
<!-- Node0x60000073d740&#45;&gt;Node0x60000073d920 -->
<g id="edge28" class="edge">
<title>Node0x60000073d740:n&#45;&gt;Node0x60000073d920:n</title>
<path fill="none" stroke="red" d="M3439,-34C3451,-34 3456.25,-34 3464.88,-34"/>
<polygon fill="red" stroke="red" points="3465,-37.5 3475,-34 3465,-30.5 3465,-37.5"/>
</g>
<!-- Node0x60000073db00 -->
<g id="node30" class="node">
<title>Node0x60000073db00</title>
<polygon fill="none" stroke="black" points="3599,-9 3599,-77 3687,-77 3687,-9 3599,-9"/>
<text text-anchor="middle" x="3643" y="-66.6" font-family="Times,serif" font-size="8.00">word: nightingale</text>
<polyline fill="none" stroke="black" points="3599,-60 3687,-60 "/>
<text text-anchor="middle" x="3643" y="-49.6" font-family="Times,serif" font-size="8.00">size: 3</text>
<polyline fill="none" stroke="black" points="3599,-43 3687,-43 "/>
<text text-anchor="middle" x="3643" y="-32.6" font-family="Times,serif" font-size="8.00">next: 0x60000070c3c0</text>
<polyline fill="none" stroke="black" points="3599,-26 3687,-26 "/>
<text text-anchor="middle" x="3643" y="-15.6" font-family="Times,serif" font-size="8.00">prev: 0x60000073d920</text>
</g>
<!-- Node0x60000073d920&#45;&gt;Node0x60000073db00 -->
<g id="edge29" class="edge">
<title>Node0x60000073d920:n&#45;&gt;Node0x60000073db00:n</title>
<path fill="none" stroke="red" d="M3563,-34C3575,-34 3580.25,-34 3588.88,-34"/>
<polygon fill="red" stroke="red" points="3589,-37.5 3599,-34 3589,-30.5 3589,-37.5"/>
</g>
<!-- Node0x60000070c3c0 -->
<g id="node31" class="node">
<title>Node0x60000070c3c0</title>
<polygon fill="none" stroke="black" points="3723,-9 3723,-77 3811,-77 3811,-9 3723,-9"/>
<text text-anchor="middle" x="3767" y="-66.6" font-family="Times,serif" font-size="8.00">word: drowsy</text>
<polyline fill="none" stroke="black" points="3723,-60 3811,-60 "/>
<text text-anchor="middle" x="3767" y="-49.6" font-family="Times,serif" font-size="8.00">size: 1</text>
<polyline fill="none" stroke="black" points="3723,-43 3811,-43 "/>
<text text-anchor="middle" x="3767" y="-32.6" font-family="Times,serif" font-size="8.00">next: 0x600000705d70</text>
<polyline fill="none" stroke="black" points="3723,-26 3811,-26 "/>
<text text-anchor="middle" x="3767" y="-15.6" font-family="Times,serif" font-size="8.00">prev: 0x60000073db00</text>
</g>
<!-- Node0x60000073db00&#45;&gt;Node0x60000070c3c0 -->
<g id="edge30" class="edge">
<title>Node0x60000073db00:n&#45;&gt;Node0x60000070c3c0:n</title>
<path fill="none" stroke="red" d="M3687,-34C3699,-34 3704.25,-34 3712.88,-34"/>
<polygon fill="red" stroke="red" points="3713,-37.5 3723,-34 3713,-30.5 3713,-37.5"/>
</g>
<!-- Node0x600000705d70 -->
<g id="node32" class="node">
<title>Node0x600000705d70</title>
<polygon fill="none" stroke="black" points="3847,-9 3847,-77 3935,-77 3935,-9 3847,-9"/>
<text text-anchor="middle" x="3891" y="-66.6" font-family="Times,serif" font-size="8.00">word: forsooth</text>
<polyline fill="none" stroke="black" points="3847,-60 3935,-60 "/>
<text text-anchor="middle" x="3891" y="-49.6" font-family="Times,serif" font-size="8.00">size: 1</text>
<polyline fill="none" stroke="black" points="3847,-43 3935,-43 "/>
<text text-anchor="middle" x="3891" y="-32.6" font-family="Times,serif" font-size="8.00">next: 0x600000721b30</text>
<polyline fill="none" stroke="black" points="3847,-26 3935,-26 "/>
<text text-anchor="middle" x="3891" y="-15.6" font-family="Times,serif" font-size="8.00">prev: 0x60000070c3c0</text>
</g>
<!-- Node0x60000070c3c0&#45;&gt;Node0x600000705d70 -->
<g id="edge31" class="edge">
<title>Node0x60000070c3c0:n&#45;&gt;Node0x600000705d70:n</title>
<path fill="none" stroke="red" d="M3811,-34C3823,-34 3828.25,-34 3836.88,-34"/>
<polygon fill="red" stroke="red" points="3837,-37.5 3847,-34 3837,-30.5 3837,-37.5"/>
</g>
<!-- Node0x600000721b30 -->
<g id="node33" class="node">
<title>Node0x600000721b30</title>
<polygon fill="none" stroke="black" points="3971,-9 3971,-77 4059,-77 4059,-9 3971,-9"/>
<text text-anchor="middle" x="4015" y="-66.6" font-family="Times,serif" font-size="8.00">word: hearing</text>
<polyline fill="none" stroke="black" points="3971,-60 4059,-60 "/>
<text text-anchor="middle" x="4015" y="-49.6" font-family="Times,serif" font-size="8.00">size: 2</text>
<polyline fill="none" stroke="black" points="3971,-43 4059,-43 "/>
<text text-anchor="middle" x="4015" y="-32.6" font-family="Times,serif" font-size="8.00">next: 0x600000721ef0</text>
<polyline fill="none" stroke="black" points="3971,-26 4059,-26 "/>
<text text-anchor="middle" x="4015" y="-15.6" font-family="Times,serif" font-size="8.00">prev: 0x600000705d70</text>
</g>
<!-- Node0x600000705d70&#45;&gt;Node0x600000721b30 -->
<g id="edge32" class="edge">
<title>Node0x600000705d70:n&#45;&gt;Node0x600000721b30:n</title>
<path fill="none" stroke="red" d="M3935,-34C3947,-34 3952.25,-34 3960.88,-34"/>
<polygon fill="red" stroke="red" points="3961,-37.5 3971,-34 3961,-30.5 3961,-37.5"/>
</g>
<!-- Node0x600000721ef0 -->
<g id="node34" class="node">
<title>Node0x600000721ef0</title>
<polygon fill="none" stroke="black" points="4095,-9 4095,-77 4183,-77 4183,-9 4095,-9"/>
<text text-anchor="middle" x="4139" y="-66.6" font-family="Times,serif" font-size="8.00">word: rung</text>
<polyline fill="none" stroke="black" points="4095,-60 4183,-60 "/>
<text text-anchor="middle" x="4139" y="-49.6" font-family="Times,serif" font-size="8.00">size: 1</text>
<polyline fill="none" stroke="black" points="4095,-43 4183,-43 "/>
<text text-anchor="middle" x="4139" y="-32.6" font-family="Times,serif" font-size="8.00">next: 0x6000007272d0</text>
<polyline fill="none" stroke="black" points="4095,-26 4183,-26 "/>
<text text-anchor="middle" x="4139" y="-15.6" font-family="Times,serif" font-size="8.00">prev: 0x600000721b30</text>
</g>
<!-- Node0x600000721b30&#45;&gt;Node0x600000721ef0 -->
<g id="edge33" class="edge">
<title>Node0x600000721b30:n&#45;&gt;Node0x600000721ef0:n</title>
<path fill="none" stroke="red" d="M4059,-34C4071,-34 4076.25,-34 4084.88,-34"/>
<polygon fill="red" stroke="red" points="4085,-37.5 4095,-34 4085,-30.5 4085,-37.5"/>
</g>
<!-- Node0x6000007272d0 -->
<g id="node35" class="node">
<title>Node0x6000007272d0</title>
<polygon fill="none" stroke="black" points="4219,-9 4219,-77 4306,-77 4306,-9 4219,-9"/>
<text text-anchor="middle" x="4262.5" y="-66.6" font-family="Times,serif" font-size="8.00">word: rid</text>
<polyline fill="none" stroke="black" points="4219,-60 4306,-60 "/>
<text text-anchor="middle" x="4262.5" y="-49.6" font-family="Times,serif" font-size="8.00">size: 1</text>
<polyline fill="none" stroke="black" points="4219,-43 4306,-43 "/>
<text text-anchor="middle" x="4262.5" y="-32.6" font-family="Times,serif" font-size="8.00">next: 0x0</text>
<polyline fill="none" stroke="black" points="4219,-26 4306,-26 "/>
<text text-anchor="middle" x="4262.5" y="-15.6" font-family="Times,serif" font-size="8.00">prev: 0x600000721ef0</text>
</g>
<!-- Node0x600000721ef0&#45;&gt;Node0x6000007272d0 -->
<g id="edge34" class="edge">
<title>Node0x600000721ef0:n&#45;&gt;Node0x6000007272d0:n</title>
<path fill="none" stroke="red" d="M4183,-34C4195,-34 4200.25,-34 4208.88,-34"/>
<polygon fill="red" stroke="red" points="4209,-37.5 4219,-34 4209,-30.5 4209,-37.5"/>
</g>
</g>
</svg>
