<?xml version="1.0" encoding="UTF-8" standalone="no"?>
<!DOCTYPE svg PUBLIC "-//W3C//DTD SVG 1.1//EN"
 "http://www.w3.org/Graphics/SVG/1.1/DTD/svg11.dtd">
<!-- Generated by graphviz version 2.50.0 (20211204.2007)
 -->
<!-- Title: G Pages: 1 -->
<svg width="4196pt" height="117pt"
 viewBox="0.00 0.00 4196.00 117.00" xmlns="http://www.w3.org/2000/svg" xmlns:xlink="http://www.w3.org/1999/xlink">
<g id="graph0" class="graph" transform="scale(1 1) rotate(0) translate(4 113)">
<title>G</title>
<polygon fill="white" stroke="transparent" points="-4,4 -4,-113 4192,-113 4192,4 -4,4"/>
<g id="clust1" class="cluster">
<title>cluster285</title>
<polygon fill="none" stroke="black" points="8,-8 8,-101 95,-101 95,-8 8,-8"/>
<text text-anchor="middle" x="51.5" y="-85.8" font-family="Times,serif" font-size="14.00">285</text>
</g>
<g id="clust2" class="cluster">
<title>cluster286</title>
<polygon fill="none" stroke="black" points="131,-8 131,-101 219,-101 219,-8 131,-8"/>
<text text-anchor="middle" x="175" y="-85.8" font-family="Times,serif" font-size="14.00">286</text>
</g>
<g id="clust3" class="cluster">
<title>cluster287</title>
<polygon fill="none" stroke="black" points="255,-8 255,-101 343,-101 343,-8 255,-8"/>
<text text-anchor="middle" x="299" y="-85.8" font-family="Times,serif" font-size="14.00">287</text>
</g>
<g id="clust4" class="cluster">
<title>cluster288</title>
<polygon fill="none" stroke="black" points="379,-8 379,-101 467,-101 467,-8 379,-8"/>
<text text-anchor="middle" x="423" y="-85.8" font-family="Times,serif" font-size="14.00">288</text>
</g>
<g id="clust5" class="cluster">
<title>cluster289</title>
<polygon fill="none" stroke="black" points="503,-8 503,-101 591,-101 591,-8 503,-8"/>
<text text-anchor="middle" x="547" y="-85.8" font-family="Times,serif" font-size="14.00">289</text>
</g>
<g id="clust6" class="cluster">
<title>cluster290</title>
<polygon fill="none" stroke="black" points="627,-8 627,-101 715,-101 715,-8 627,-8"/>
<text text-anchor="middle" x="671" y="-85.8" font-family="Times,serif" font-size="14.00">290</text>
</g>
<g id="clust7" class="cluster">
<title>cluster291</title>
<polygon fill="none" stroke="black" points="751,-8 751,-101 838,-101 838,-8 751,-8"/>
<text text-anchor="middle" x="794.5" y="-85.8" font-family="Times,serif" font-size="14.00">291</text>
</g>
<g id="clust8" class="cluster">
<title>cluster292</title>
<polygon fill="none" stroke="black" points="874,-8 874,-101 962,-101 962,-8 874,-8"/>
<text text-anchor="middle" x="918" y="-85.8" font-family="Times,serif" font-size="14.00">292</text>
</g>
<g id="clust9" class="cluster">
<title>cluster293</title>
<polygon fill="none" stroke="black" points="998,-8 998,-101 1086,-101 1086,-8 998,-8"/>
<text text-anchor="middle" x="1042" y="-85.8" font-family="Times,serif" font-size="14.00">293</text>
</g>
<g id="clust10" class="cluster">
<title>cluster294</title>
<polygon fill="none" stroke="black" points="1122,-8 1122,-101 1210,-101 1210,-8 1122,-8"/>
<text text-anchor="middle" x="1166" y="-85.8" font-family="Times,serif" font-size="14.00">294</text>
</g>
<g id="clust11" class="cluster">
<title>cluster295</title>
<polygon fill="none" stroke="black" points="1246,-8 1246,-101 1334,-101 1334,-8 1246,-8"/>
<text text-anchor="middle" x="1290" y="-85.8" font-family="Times,serif" font-size="14.00">295</text>
</g>
<g id="clust12" class="cluster">
<title>cluster296</title>
<polygon fill="none" stroke="black" points="1370,-8 1370,-101 1458,-101 1458,-8 1370,-8"/>
<text text-anchor="middle" x="1414" y="-85.8" font-family="Times,serif" font-size="14.00">296</text>
</g>
<g id="clust13" class="cluster">
<title>cluster297</title>
<polygon fill="none" stroke="black" points="1494,-8 1494,-101 1581,-101 1581,-8 1494,-8"/>
<text text-anchor="middle" x="1537.5" y="-85.8" font-family="Times,serif" font-size="14.00">297</text>
</g>
<g id="clust14" class="cluster">
<title>cluster298</title>
<polygon fill="none" stroke="black" points="1617,-8 1617,-101 1705,-101 1705,-8 1617,-8"/>
<text text-anchor="middle" x="1661" y="-85.8" font-family="Times,serif" font-size="14.00">298</text>
</g>
<g id="clust15" class="cluster">
<title>cluster299</title>
<polygon fill="none" stroke="black" points="1741,-8 1741,-101 1828,-101 1828,-8 1741,-8"/>
<text text-anchor="middle" x="1784.5" y="-85.8" font-family="Times,serif" font-size="14.00">299</text>
</g>
<g id="clust16" class="cluster">
<title>cluster300</title>
<polygon fill="none" stroke="black" points="1864,-8 1864,-101 1952,-101 1952,-8 1864,-8"/>
<text text-anchor="middle" x="1908" y="-85.8" font-family="Times,serif" font-size="14.00">300</text>
</g>
<g id="clust17" class="cluster">
<title>cluster301</title>
<polygon fill="none" stroke="black" points="1988,-8 1988,-101 2076,-101 2076,-8 1988,-8"/>
<text text-anchor="middle" x="2032" y="-85.8" font-family="Times,serif" font-size="14.00">301</text>
</g>
<g id="clust18" class="cluster">
<title>cluster302</title>
<polygon fill="none" stroke="black" points="2112,-8 2112,-101 2200,-101 2200,-8 2112,-8"/>
<text text-anchor="middle" x="2156" y="-85.8" font-family="Times,serif" font-size="14.00">302</text>
</g>
<g id="clust19" class="cluster">
<title>cluster303</title>
<polygon fill="none" stroke="black" points="2236,-8 2236,-101 2324,-101 2324,-8 2236,-8"/>
<text text-anchor="middle" x="2280" y="-85.8" font-family="Times,serif" font-size="14.00">303</text>
</g>
<g id="clust20" class="cluster">
<title>cluster304</title>
<polygon fill="none" stroke="black" points="2360,-8 2360,-101 2448,-101 2448,-8 2360,-8"/>
<text text-anchor="middle" x="2404" y="-85.8" font-family="Times,serif" font-size="14.00">304</text>
</g>
<g id="clust21" class="cluster">
<title>cluster305</title>
<polygon fill="none" stroke="black" points="2484,-8 2484,-101 2572,-101 2572,-8 2484,-8"/>
<text text-anchor="middle" x="2528" y="-85.8" font-family="Times,serif" font-size="14.00">305</text>
</g>
<g id="clust22" class="cluster">
<title>cluster306</title>
<polygon fill="none" stroke="black" points="2608,-8 2608,-101 2696,-101 2696,-8 2608,-8"/>
<text text-anchor="middle" x="2652" y="-85.8" font-family="Times,serif" font-size="14.00">306</text>
</g>
<g id="clust23" class="cluster">
<title>cluster307</title>
<polygon fill="none" stroke="black" points="2732,-8 2732,-101 2820,-101 2820,-8 2732,-8"/>
<text text-anchor="middle" x="2776" y="-85.8" font-family="Times,serif" font-size="14.00">307</text>
</g>
<g id="clust24" class="cluster">
<title>cluster308</title>
<polygon fill="none" stroke="black" points="2856,-8 2856,-101 2943,-101 2943,-8 2856,-8"/>
<text text-anchor="middle" x="2899.5" y="-85.8" font-family="Times,serif" font-size="14.00">308</text>
</g>
<g id="clust25" class="cluster">
<title>cluster309</title>
<polygon fill="none" stroke="black" points="2979,-8 2979,-101 3066,-101 3066,-8 2979,-8"/>
<text text-anchor="middle" x="3022.5" y="-85.8" font-family="Times,serif" font-size="14.00">309</text>
</g>
<g id="clust26" class="cluster">
<title>cluster310</title>
<polygon fill="none" stroke="black" points="3102,-8 3102,-101 3190,-101 3190,-8 3102,-8"/>
<text text-anchor="middle" x="3146" y="-85.8" font-family="Times,serif" font-size="14.00">310</text>
</g>
<g id="clust27" class="cluster">
<title>cluster311</title>
<polygon fill="none" stroke="black" points="3226,-8 3226,-101 3314,-101 3314,-8 3226,-8"/>
<text text-anchor="middle" x="3270" y="-85.8" font-family="Times,serif" font-size="14.00">311</text>
</g>
<g id="clust28" class="cluster">
<title>cluster312</title>
<polygon fill="none" stroke="black" points="3350,-8 3350,-101 3437,-101 3437,-8 3350,-8"/>
<text text-anchor="middle" x="3393.5" y="-85.8" font-family="Times,serif" font-size="14.00">312</text>
</g>
<g id="clust29" class="cluster">
<title>cluster313</title>
<polygon fill="none" stroke="black" points="3473,-8 3473,-101 3560,-101 3560,-8 3473,-8"/>
<text text-anchor="middle" x="3516.5" y="-85.8" font-family="Times,serif" font-size="14.00">313</text>
</g>
<g id="clust30" class="cluster">
<title>cluster314</title>
<polygon fill="none" stroke="black" points="3596,-8 3596,-101 3684,-101 3684,-8 3596,-8"/>
<text text-anchor="middle" x="3640" y="-85.8" font-family="Times,serif" font-size="14.00">314</text>
</g>
<g id="clust31" class="cluster">
<title>cluster315</title>
<polygon fill="none" stroke="black" points="3720,-8 3720,-101 3808,-101 3808,-8 3720,-8"/>
<text text-anchor="middle" x="3764" y="-85.8" font-family="Times,serif" font-size="14.00">315</text>
</g>
<g id="clust32" class="cluster">
<title>cluster316</title>
<polygon fill="none" stroke="black" points="3844,-8 3844,-101 3932,-101 3932,-8 3844,-8"/>
<text text-anchor="middle" x="3888" y="-85.8" font-family="Times,serif" font-size="14.00">316</text>
</g>
<g id="clust33" class="cluster">
<title>cluster317</title>
<polygon fill="none" stroke="black" points="3968,-8 3968,-101 4056,-101 4056,-8 3968,-8"/>
<text text-anchor="middle" x="4012" y="-85.8" font-family="Times,serif" font-size="14.00">317</text>
</g>
<g id="clust34" class="cluster">
<title>cluster318</title>
<polygon fill="none" stroke="black" points="4092,-8 4092,-101 4180,-101 4180,-8 4092,-8"/>
<text text-anchor="middle" x="4136" y="-85.8" font-family="Times,serif" font-size="14.00">318</text>
</g>
<!-- Node0x600000710510 -->
<g id="node1" class="node">
<title>Node0x600000710510</title>
<polygon fill="none" stroke="black" points="8,-9 8,-77 95,-77 95,-9 8,-9"/>
<text text-anchor="middle" x="51.5" y="-66.6" font-family="Times,serif" font-size="8.00">word: to</text>
<polyline fill="none" stroke="black" points="8,-60 95,-60 "/>
<text text-anchor="middle" x="51.5" y="-49.6" font-family="Times,serif" font-size="8.00">size: 489</text>
<polyline fill="none" stroke="black" points="8,-43 95,-43 "/>
<text text-anchor="middle" x="51.5" y="-32.6" font-family="Times,serif" font-size="8.00">next: 0x600000714480</text>
<polyline fill="none" stroke="black" points="8,-26 95,-26 "/>
<text text-anchor="middle" x="51.5" y="-15.6" font-family="Times,serif" font-size="8.00">prev: 0x0</text>
</g>
<!-- Node0x600000714480 -->
<g id="node2" class="node">
<title>Node0x600000714480</title>
<polygon fill="none" stroke="black" points="131,-9 131,-77 219,-77 219,-9 131,-9"/>
<text text-anchor="middle" x="175" y="-66.6" font-family="Times,serif" font-size="8.00">word: fight</text>
<polyline fill="none" stroke="black" points="131,-60 219,-60 "/>
<text text-anchor="middle" x="175" y="-49.6" font-family="Times,serif" font-size="8.00">size: 6</text>
<polyline fill="none" stroke="black" points="131,-43 219,-43 "/>
<text text-anchor="middle" x="175" y="-32.6" font-family="Times,serif" font-size="8.00">next: 0x6000007150e0</text>
<polyline fill="none" stroke="black" points="131,-26 219,-26 "/>
<text text-anchor="middle" x="175" y="-15.6" font-family="Times,serif" font-size="8.00">prev: 0x600000710510</text>
</g>
<!-- Node0x600000710510&#45;&gt;Node0x600000714480 -->
<g id="edge1" class="edge">
<title>Node0x600000710510:n&#45;&gt;Node0x600000714480:n</title>
<path fill="none" stroke="red" d="M95,-34C107,-34 112.25,-34 120.88,-34"/>
<polygon fill="red" stroke="red" points="121,-37.5 131,-34 121,-30.5 121,-37.5"/>
</g>
<!-- Node0x6000007150e0 -->
<g id="node3" class="node">
<title>Node0x6000007150e0</title>
<polygon fill="none" stroke="black" points="255,-9 255,-77 343,-77 343,-9 255,-9"/>
<text text-anchor="middle" x="299" y="-66.6" font-family="Times,serif" font-size="8.00">word: Hold</text>
<polyline fill="none" stroke="black" points="255,-60 343,-60 "/>
<text text-anchor="middle" x="299" y="-49.6" font-family="Times,serif" font-size="8.00">size: 12</text>
<polyline fill="none" stroke="black" points="255,-43 343,-43 "/>
<text text-anchor="middle" x="299" y="-32.6" font-family="Times,serif" font-size="8.00">next: 0x6000007163d0</text>
<polyline fill="none" stroke="black" points="255,-26 343,-26 "/>
<text text-anchor="middle" x="299" y="-15.6" font-family="Times,serif" font-size="8.00">prev: 0x600000714480</text>
</g>
<!-- Node0x600000714480&#45;&gt;Node0x6000007150e0 -->
<g id="edge2" class="edge">
<title>Node0x600000714480:n&#45;&gt;Node0x6000007150e0:n</title>
<path fill="none" stroke="red" d="M219,-34C231,-34 236.25,-34 244.88,-34"/>
<polygon fill="red" stroke="red" points="245,-37.5 255,-34 245,-30.5 245,-37.5"/>
</g>
<!-- Node0x6000007163d0 -->
<g id="node4" class="node">
<title>Node0x6000007163d0</title>
<polygon fill="none" stroke="black" points="379,-9 379,-77 467,-77 467,-9 379,-9"/>
<text text-anchor="middle" x="423" y="-66.6" font-family="Times,serif" font-size="8.00">word: winds</text>
<polyline fill="none" stroke="black" points="379,-60 467,-60 "/>
<text text-anchor="middle" x="423" y="-49.6" font-family="Times,serif" font-size="8.00">size: 2</text>
<polyline fill="none" stroke="black" points="379,-43 467,-43 "/>
<text text-anchor="middle" x="423" y="-32.6" font-family="Times,serif" font-size="8.00">next: 0x600000716c40</text>
<polyline fill="none" stroke="black" points="379,-26 467,-26 "/>
<text text-anchor="middle" x="423" y="-15.6" font-family="Times,serif" font-size="8.00">prev: 0x6000007150e0</text>
</g>
<!-- Node0x6000007150e0&#45;&gt;Node0x6000007163d0 -->
<g id="edge3" class="edge">
<title>Node0x6000007150e0:n&#45;&gt;Node0x6000007163d0:n</title>
<path fill="none" stroke="red" d="M343,-34C355,-34 360.25,-34 368.88,-34"/>
<polygon fill="red" stroke="red" points="369,-37.5 379,-34 369,-30.5 369,-37.5"/>
</g>
<!-- Node0x600000716c40 -->
<g id="node5" class="node">
<title>Node0x600000716c40</title>
<polygon fill="none" stroke="black" points="503,-9 503,-77 591,-77 591,-9 503,-9"/>
<text text-anchor="middle" x="547" y="-66.6" font-family="Times,serif" font-size="8.00">word: Towards</text>
<polyline fill="none" stroke="black" points="503,-60 591,-60 "/>
<text text-anchor="middle" x="547" y="-49.6" font-family="Times,serif" font-size="8.00">size: 2</text>
<polyline fill="none" stroke="black" points="503,-43 591,-43 "/>
<text text-anchor="middle" x="547" y="-32.6" font-family="Times,serif" font-size="8.00">next: 0x6000007183f0</text>
<polyline fill="none" stroke="black" points="503,-26 591,-26 "/>
<text text-anchor="middle" x="547" y="-15.6" font-family="Times,serif" font-size="8.00">prev: 0x6000007163d0</text>
</g>
<!-- Node0x6000007163d0&#45;&gt;Node0x600000716c40 -->
<g id="edge4" class="edge">
<title>Node0x6000007163d0:n&#45;&gt;Node0x600000716c40:n</title>
<path fill="none" stroke="red" d="M467,-34C479,-34 484.25,-34 492.88,-34"/>
<polygon fill="red" stroke="red" points="493,-37.5 503,-34 493,-30.5 493,-37.5"/>
</g>
<!-- Node0x6000007183f0 -->
<g id="node6" class="node">
<title>Node0x6000007183f0</title>
<polygon fill="none" stroke="black" points="627,-9 627,-77 715,-77 715,-9 627,-9"/>
<text text-anchor="middle" x="671" y="-66.6" font-family="Times,serif" font-size="8.00">word: hence</text>
<polyline fill="none" stroke="black" points="627,-60 715,-60 "/>
<text text-anchor="middle" x="671" y="-49.6" font-family="Times,serif" font-size="8.00">size: 22</text>
<polyline fill="none" stroke="black" points="627,-43 715,-43 "/>
<text text-anchor="middle" x="671" y="-32.6" font-family="Times,serif" font-size="8.00">next: 0x60000071b210</text>
<polyline fill="none" stroke="black" points="627,-26 715,-26 "/>
<text text-anchor="middle" x="671" y="-15.6" font-family="Times,serif" font-size="8.00">prev: 0x600000716c40</text>
</g>
<!-- Node0x600000716c40&#45;&gt;Node0x6000007183f0 -->
<g id="edge5" class="edge">
<title>Node0x600000716c40:n&#45;&gt;Node0x6000007183f0:n</title>
<path fill="none" stroke="red" d="M591,-34C603,-34 608.25,-34 616.88,-34"/>
<polygon fill="red" stroke="red" points="617,-37.5 627,-34 617,-30.5 617,-37.5"/>
</g>
<!-- Node0x60000071b210 -->
<g id="node7" class="node">
<title>Node0x60000071b210</title>
<polygon fill="none" stroke="black" points="751,-9 751,-77 838,-77 838,-9 751,-9"/>
<text text-anchor="middle" x="794.5" y="-66.6" font-family="Times,serif" font-size="8.00">word: Inherit</text>
<polyline fill="none" stroke="black" points="751,-60 838,-60 "/>
<text text-anchor="middle" x="794.5" y="-49.6" font-family="Times,serif" font-size="8.00">size: 1</text>
<polyline fill="none" stroke="black" points="751,-43 838,-43 "/>
<text text-anchor="middle" x="794.5" y="-32.6" font-family="Times,serif" font-size="8.00">next: 0x60000071bde0</text>
<polyline fill="none" stroke="black" points="751,-26 838,-26 "/>
<text text-anchor="middle" x="794.5" y="-15.6" font-family="Times,serif" font-size="8.00">prev: 0x6000007183f0</text>
</g>
<!-- Node0x6000007183f0&#45;&gt;Node0x60000071b210 -->
<g id="edge6" class="edge">
<title>Node0x6000007183f0:n&#45;&gt;Node0x60000071b210:n</title>
<path fill="none" stroke="red" d="M715,-34C727,-34 732.25,-34 740.88,-34"/>
<polygon fill="red" stroke="red" points="741,-37.5 751,-34 741,-30.5 741,-37.5"/>
</g>
<!-- Node0x60000071bde0 -->
<g id="node8" class="node">
<title>Node0x60000071bde0</title>
<polygon fill="none" stroke="black" points="874,-9 874,-77 962,-77 962,-9 874,-9"/>
<text text-anchor="middle" x="918" y="-66.6" font-family="Times,serif" font-size="8.00">word: God</text>
<polyline fill="none" stroke="black" points="874,-60 962,-60 "/>
<text text-anchor="middle" x="918" y="-49.6" font-family="Times,serif" font-size="8.00">size: 33</text>
<polyline fill="none" stroke="black" points="874,-43 962,-43 "/>
<text text-anchor="middle" x="918" y="-32.6" font-family="Times,serif" font-size="8.00">next: 0x60000071cc60</text>
<polyline fill="none" stroke="black" points="874,-26 962,-26 "/>
<text text-anchor="middle" x="918" y="-15.6" font-family="Times,serif" font-size="8.00">prev: 0x60000071b210</text>
</g>
<!-- Node0x60000071b210&#45;&gt;Node0x60000071bde0 -->
<g id="edge7" class="edge">
<title>Node0x60000071b210:n&#45;&gt;Node0x60000071bde0:n</title>
<path fill="none" stroke="red" d="M838,-34C850,-34 855.25,-34 863.88,-34"/>
<polygon fill="red" stroke="red" points="864,-37.5 874,-34 864,-30.5 864,-37.5"/>
</g>
<!-- Node0x60000071cc60 -->
<g id="node9" class="node">
<title>Node0x60000071cc60</title>
<polygon fill="none" stroke="black" points="998,-9 998,-77 1086,-77 1086,-9 998,-9"/>
<text text-anchor="middle" x="1042" y="-66.6" font-family="Times,serif" font-size="8.00">word: falsehood</text>
<polyline fill="none" stroke="black" points="998,-60 1086,-60 "/>
<text text-anchor="middle" x="1042" y="-49.6" font-family="Times,serif" font-size="8.00">size: 1</text>
<polyline fill="none" stroke="black" points="998,-43 1086,-43 "/>
<text text-anchor="middle" x="1042" y="-32.6" font-family="Times,serif" font-size="8.00">next: 0x600000708630</text>
<polyline fill="none" stroke="black" points="998,-26 1086,-26 "/>
<text text-anchor="middle" x="1042" y="-15.6" font-family="Times,serif" font-size="8.00">prev: 0x60000071bde0</text>
</g>
<!-- Node0x60000071bde0&#45;&gt;Node0x60000071cc60 -->
<g id="edge8" class="edge">
<title>Node0x60000071bde0:n&#45;&gt;Node0x60000071cc60:n</title>
<path fill="none" stroke="red" d="M962,-34C974,-34 979.25,-34 987.88,-34"/>
<polygon fill="red" stroke="red" points="988,-37.5 998,-34 988,-30.5 988,-37.5"/>
</g>
<!-- Node0x600000708630 -->
<g id="node10" class="node">
<title>Node0x600000708630</title>
<polygon fill="none" stroke="black" points="1122,-9 1122,-77 1210,-77 1210,-9 1122,-9"/>
<text text-anchor="middle" x="1166" y="-66.6" font-family="Times,serif" font-size="8.00">word: odd</text>
<polyline fill="none" stroke="black" points="1122,-60 1210,-60 "/>
<text text-anchor="middle" x="1166" y="-49.6" font-family="Times,serif" font-size="8.00">size: 2</text>
<polyline fill="none" stroke="black" points="1122,-43 1210,-43 "/>
<text text-anchor="middle" x="1166" y="-32.6" font-family="Times,serif" font-size="8.00">next: 0x600000704ab0</text>
<polyline fill="none" stroke="black" points="1122,-26 1210,-26 "/>
<text text-anchor="middle" x="1166" y="-15.6" font-family="Times,serif" font-size="8.00">prev: 0x60000071cc60</text>
</g>
<!-- Node0x60000071cc60&#45;&gt;Node0x600000708630 -->
<g id="edge9" class="edge">
<title>Node0x60000071cc60:n&#45;&gt;Node0x600000708630:n</title>
<path fill="none" stroke="red" d="M1086,-34C1098,-34 1103.25,-34 1111.88,-34"/>
<polygon fill="red" stroke="red" points="1112,-37.5 1122,-34 1112,-30.5 1112,-37.5"/>
</g>
<!-- Node0x600000704ab0 -->
<g id="node11" class="node">
<title>Node0x600000704ab0</title>
<polygon fill="none" stroke="black" points="1246,-9 1246,-77 1334,-77 1334,-9 1246,-9"/>
<text text-anchor="middle" x="1290" y="-66.6" font-family="Times,serif" font-size="8.00">word: prologue</text>
<polyline fill="none" stroke="black" points="1246,-60 1334,-60 "/>
<text text-anchor="middle" x="1290" y="-49.6" font-family="Times,serif" font-size="8.00">size: 1</text>
<polyline fill="none" stroke="black" points="1246,-43 1334,-43 "/>
<text text-anchor="middle" x="1290" y="-32.6" font-family="Times,serif" font-size="8.00">next: 0x600000705bf0</text>
<polyline fill="none" stroke="black" points="1246,-26 1334,-26 "/>
<text text-anchor="middle" x="1290" y="-15.6" font-family="Times,serif" font-size="8.00">prev: 0x600000708630</text>
</g>
<!-- Node0x600000708630&#45;&gt;Node0x600000704ab0 -->
<g id="edge10" class="edge">
<title>Node0x600000708630:n&#45;&gt;Node0x600000704ab0:n</title>
<path fill="none" stroke="red" d="M1210,-34C1222,-34 1227.25,-34 1235.88,-34"/>
<polygon fill="red" stroke="red" points="1236,-37.5 1246,-34 1236,-30.5 1236,-37.5"/>
</g>
<!-- Node0x600000705bf0 -->
<g id="node12" class="node">
<title>Node0x600000705bf0</title>
<polygon fill="none" stroke="black" points="1370,-9 1370,-77 1458,-77 1458,-9 1370,-9"/>
<text text-anchor="middle" x="1414" y="-66.6" font-family="Times,serif" font-size="8.00">word: midwife</text>
<polyline fill="none" stroke="black" points="1370,-60 1458,-60 "/>
<text text-anchor="middle" x="1414" y="-49.6" font-family="Times,serif" font-size="8.00">size: 1</text>
<polyline fill="none" stroke="black" points="1370,-43 1458,-43 "/>
<text text-anchor="middle" x="1414" y="-32.6" font-family="Times,serif" font-size="8.00">next: 0x60000071db60</text>
<polyline fill="none" stroke="black" points="1370,-26 1458,-26 "/>
<text text-anchor="middle" x="1414" y="-15.6" font-family="Times,serif" font-size="8.00">prev: 0x600000704ab0</text>
</g>
<!-- Node0x600000704ab0&#45;&gt;Node0x600000705bf0 -->
<g id="edge11" class="edge">
<title>Node0x600000704ab0:n&#45;&gt;Node0x600000705bf0:n</title>
<path fill="none" stroke="red" d="M1334,-34C1346,-34 1351.25,-34 1359.88,-34"/>
<polygon fill="red" stroke="red" points="1360,-37.5 1370,-34 1360,-30.5 1360,-37.5"/>
</g>
<!-- Node0x60000071db60 -->
<g id="node13" class="node">
<title>Node0x60000071db60</title>
<polygon fill="none" stroke="black" points="1494,-9 1494,-77 1581,-77 1581,-9 1494,-9"/>
<text text-anchor="middle" x="1537.5" y="-66.6" font-family="Times,serif" font-size="8.00">word: cutting</text>
<polyline fill="none" stroke="black" points="1494,-60 1581,-60 "/>
<text text-anchor="middle" x="1537.5" y="-49.6" font-family="Times,serif" font-size="8.00">size: 1</text>
<polyline fill="none" stroke="black" points="1494,-43 1581,-43 "/>
<text text-anchor="middle" x="1537.5" y="-32.6" font-family="Times,serif" font-size="8.00">next: 0x60000071dfe0</text>
<polyline fill="none" stroke="black" points="1494,-26 1581,-26 "/>
<text text-anchor="middle" x="1537.5" y="-15.6" font-family="Times,serif" font-size="8.00">prev: 0x600000705bf0</text>
</g>
<!-- Node0x600000705bf0&#45;&gt;Node0x60000071db60 -->
<g id="edge12" class="edge">
<title>Node0x600000705bf0:n&#45;&gt;Node0x60000071db60:n</title>
<path fill="none" stroke="red" d="M1458,-34C1470,-34 1475.25,-34 1483.88,-34"/>
<polygon fill="red" stroke="red" points="1484,-37.5 1494,-34 1484,-30.5 1484,-37.5"/>
</g>
<!-- Node0x60000071dfe0 -->
<g id="node14" class="node">
<title>Node0x60000071dfe0</title>
<polygon fill="none" stroke="black" points="1617,-9 1617,-77 1705,-77 1705,-9 1617,-9"/>
<text text-anchor="middle" x="1661" y="-66.6" font-family="Times,serif" font-size="8.00">word: foul</text>
<polyline fill="none" stroke="black" points="1617,-60 1705,-60 "/>
<text text-anchor="middle" x="1661" y="-49.6" font-family="Times,serif" font-size="8.00">size: 4</text>
<polyline fill="none" stroke="black" points="1617,-43 1705,-43 "/>
<text text-anchor="middle" x="1661" y="-32.6" font-family="Times,serif" font-size="8.00">next: 0x600000700240</text>
<polyline fill="none" stroke="black" points="1617,-26 1705,-26 "/>
<text text-anchor="middle" x="1661" y="-15.6" font-family="Times,serif" font-size="8.00">prev: 0x60000071db60</text>
</g>
<!-- Node0x60000071db60&#45;&gt;Node0x60000071dfe0 -->
<g id="edge13" class="edge">
<title>Node0x60000071db60:n&#45;&gt;Node0x60000071dfe0:n</title>
<path fill="none" stroke="red" d="M1581,-34C1593,-34 1598.25,-34 1606.88,-34"/>
<polygon fill="red" stroke="red" points="1607,-37.5 1617,-34 1607,-30.5 1607,-37.5"/>
</g>
<!-- Node0x600000700240 -->
<g id="node15" class="node">
<title>Node0x600000700240</title>
<polygon fill="none" stroke="black" points="1741,-9 1741,-77 1828,-77 1828,-9 1741,-9"/>
<text text-anchor="middle" x="1784.5" y="-66.6" font-family="Times,serif" font-size="8.00">word: hoop</text>
<polyline fill="none" stroke="black" points="1741,-60 1828,-60 "/>
<text text-anchor="middle" x="1784.5" y="-49.6" font-family="Times,serif" font-size="8.00">size: 1</text>
<polyline fill="none" stroke="black" points="1741,-43 1828,-43 "/>
<text text-anchor="middle" x="1784.5" y="-32.6" font-family="Times,serif" font-size="8.00">next: 0x600000700e70</text>
<polyline fill="none" stroke="black" points="1741,-26 1828,-26 "/>
<text text-anchor="middle" x="1784.5" y="-15.6" font-family="Times,serif" font-size="8.00">prev: 0x60000071dfe0</text>
</g>
<!-- Node0x60000071dfe0&#45;&gt;Node0x600000700240 -->
<g id="edge14" class="edge">
<title>Node0x60000071dfe0:n&#45;&gt;Node0x600000700240:n</title>
<path fill="none" stroke="red" d="M1705,-34C1717,-34 1722.25,-34 1730.88,-34"/>
<polygon fill="red" stroke="red" points="1731,-37.5 1741,-34 1731,-30.5 1731,-37.5"/>
</g>
<!-- Node0x600000700e70 -->
<g id="node16" class="node">
<title>Node0x600000700e70</title>
<polygon fill="none" stroke="black" points="1864,-9 1864,-77 1952,-77 1952,-9 1864,-9"/>
<text text-anchor="middle" x="1908" y="-66.6" font-family="Times,serif" font-size="8.00">word: yond</text>
<polyline fill="none" stroke="black" points="1864,-60 1952,-60 "/>
<text text-anchor="middle" x="1908" y="-49.6" font-family="Times,serif" font-size="8.00">size: 4</text>
<polyline fill="none" stroke="black" points="1864,-43 1952,-43 "/>
<text text-anchor="middle" x="1908" y="-32.6" font-family="Times,serif" font-size="8.00">next: 0x6000007035d0</text>
<polyline fill="none" stroke="black" points="1864,-26 1952,-26 "/>
<text text-anchor="middle" x="1908" y="-15.6" font-family="Times,serif" font-size="8.00">prev: 0x600000700240</text>
</g>
<!-- Node0x600000700240&#45;&gt;Node0x600000700e70 -->
<g id="edge15" class="edge">
<title>Node0x600000700240:n&#45;&gt;Node0x600000700e70:n</title>
<path fill="none" stroke="red" d="M1828,-34C1840,-34 1845.25,-34 1853.88,-34"/>
<polygon fill="red" stroke="red" points="1854,-37.5 1864,-34 1854,-30.5 1854,-37.5"/>
</g>
<!-- Node0x6000007035d0 -->
<g id="node17" class="node">
<title>Node0x6000007035d0</title>
<polygon fill="none" stroke="black" points="1988,-9 1988,-77 2076,-77 2076,-9 1988,-9"/>
<text text-anchor="middle" x="2032" y="-66.6" font-family="Times,serif" font-size="8.00">word: wanting</text>
<polyline fill="none" stroke="black" points="1988,-60 2076,-60 "/>
<text text-anchor="middle" x="2032" y="-49.6" font-family="Times,serif" font-size="8.00">size: 2</text>
<polyline fill="none" stroke="black" points="1988,-43 2076,-43 "/>
<text text-anchor="middle" x="2032" y="-32.6" font-family="Times,serif" font-size="8.00">next: 0x600000703ea0</text>
<polyline fill="none" stroke="black" points="1988,-26 2076,-26 "/>
<text text-anchor="middle" x="2032" y="-15.6" font-family="Times,serif" font-size="8.00">prev: 0x600000700e70</text>
</g>
<!-- Node0x600000700e70&#45;&gt;Node0x6000007035d0 -->
<g id="edge16" class="edge">
<title>Node0x600000700e70:n&#45;&gt;Node0x6000007035d0:n</title>
<path fill="none" stroke="red" d="M1952,-34C1964,-34 1969.25,-34 1977.88,-34"/>
<polygon fill="red" stroke="red" points="1978,-37.5 1988,-34 1978,-30.5 1978,-37.5"/>
</g>
<!-- Node0x600000703ea0 -->
<g id="node18" class="node">
<title>Node0x600000703ea0</title>
<polygon fill="none" stroke="black" points="2112,-9 2112,-77 2200,-77 2200,-9 2112,-9"/>
<text text-anchor="middle" x="2156" y="-66.6" font-family="Times,serif" font-size="8.00">word: likewise</text>
<polyline fill="none" stroke="black" points="2112,-60 2200,-60 "/>
<text text-anchor="middle" x="2156" y="-49.6" font-family="Times,serif" font-size="8.00">size: 2</text>
<polyline fill="none" stroke="black" points="2112,-43 2200,-43 "/>
<text text-anchor="middle" x="2156" y="-32.6" font-family="Times,serif" font-size="8.00">next: 0x600000730e40</text>
<polyline fill="none" stroke="black" points="2112,-26 2200,-26 "/>
<text text-anchor="middle" x="2156" y="-15.6" font-family="Times,serif" font-size="8.00">prev: 0x6000007035d0</text>
</g>
<!-- Node0x6000007035d0&#45;&gt;Node0x600000703ea0 -->
<g id="edge17" class="edge">
<title>Node0x6000007035d0:n&#45;&gt;Node0x600000703ea0:n</title>
<path fill="none" stroke="red" d="M2076,-34C2088,-34 2093.25,-34 2101.88,-34"/>
<polygon fill="red" stroke="red" points="2102,-37.5 2112,-34 2102,-30.5 2102,-37.5"/>
</g>
<!-- Node0x600000730e40 -->
<g id="node19" class="node">
<title>Node0x600000730e40</title>
<polygon fill="none" stroke="black" points="2236,-9 2236,-77 2324,-77 2324,-9 2236,-9"/>
<text text-anchor="middle" x="2280" y="-66.6" font-family="Times,serif" font-size="8.00">word: gyves</text>
<polyline fill="none" stroke="black" points="2236,-60 2324,-60 "/>
<text text-anchor="middle" x="2280" y="-49.6" font-family="Times,serif" font-size="8.00">size: 1</text>
<polyline fill="none" stroke="black" points="2236,-43 2324,-43 "/>
<text text-anchor="middle" x="2280" y="-32.6" font-family="Times,serif" font-size="8.00">next: 0x6000007333c0</text>
<polyline fill="none" stroke="black" points="2236,-26 2324,-26 "/>
<text text-anchor="middle" x="2280" y="-15.6" font-family="Times,serif" font-size="8.00">prev: 0x600000703ea0</text>
</g>
<!-- Node0x600000703ea0&#45;&gt;Node0x600000730e40 -->
<g id="edge18" class="edge">
<title>Node0x600000703ea0:n&#45;&gt;Node0x600000730e40:n</title>
<path fill="none" stroke="red" d="M2200,-34C2212,-34 2217.25,-34 2225.88,-34"/>
<polygon fill="red" stroke="red" points="2226,-37.5 2236,-34 2226,-30.5 2226,-37.5"/>
</g>
<!-- Node0x6000007333c0 -->
<g id="node20" class="node">
<title>Node0x6000007333c0</title>
<polygon fill="none" stroke="black" points="2360,-9 2360,-77 2448,-77 2448,-9 2360,-9"/>
<text text-anchor="middle" x="2404" y="-66.6" font-family="Times,serif" font-size="8.00">word: immortal</text>
<polyline fill="none" stroke="black" points="2360,-60 2448,-60 "/>
<text text-anchor="middle" x="2404" y="-49.6" font-family="Times,serif" font-size="8.00">size: 3</text>
<polyline fill="none" stroke="black" points="2360,-43 2448,-43 "/>
<text text-anchor="middle" x="2404" y="-32.6" font-family="Times,serif" font-size="8.00">next: 0x600000737210</text>
<polyline fill="none" stroke="black" points="2360,-26 2448,-26 "/>
<text text-anchor="middle" x="2404" y="-15.6" font-family="Times,serif" font-size="8.00">prev: 0x600000730e40</text>
</g>
<!-- Node0x600000730e40&#45;&gt;Node0x6000007333c0 -->
<g id="edge19" class="edge">
<title>Node0x600000730e40:n&#45;&gt;Node0x6000007333c0:n</title>
<path fill="none" stroke="red" d="M2324,-34C2336,-34 2341.25,-34 2349.88,-34"/>
<polygon fill="red" stroke="red" points="2350,-37.5 2360,-34 2350,-30.5 2350,-37.5"/>
</g>
<!-- Node0x600000737210 -->
<g id="node21" class="node">
<title>Node0x600000737210</title>
<polygon fill="none" stroke="black" points="2484,-9 2484,-77 2572,-77 2572,-9 2484,-9"/>
<text text-anchor="middle" x="2528" y="-66.6" font-family="Times,serif" font-size="8.00">word: sweeten</text>
<polyline fill="none" stroke="black" points="2484,-60 2572,-60 "/>
<text text-anchor="middle" x="2528" y="-49.6" font-family="Times,serif" font-size="8.00">size: 1</text>
<polyline fill="none" stroke="black" points="2484,-43 2572,-43 "/>
<text text-anchor="middle" x="2528" y="-32.6" font-family="Times,serif" font-size="8.00">next: 0x600000737c60</text>
<polyline fill="none" stroke="black" points="2484,-26 2572,-26 "/>
<text text-anchor="middle" x="2528" y="-15.6" font-family="Times,serif" font-size="8.00">prev: 0x6000007333c0</text>
</g>
<!-- Node0x6000007333c0&#45;&gt;Node0x600000737210 -->
<g id="edge20" class="edge">
<title>Node0x6000007333c0:n&#45;&gt;Node0x600000737210:n</title>
<path fill="none" stroke="red" d="M2448,-34C2460,-34 2465.25,-34 2473.88,-34"/>
<polygon fill="red" stroke="red" points="2474,-37.5 2484,-34 2474,-30.5 2474,-37.5"/>
</g>
<!-- Node0x600000737c60 -->
<g id="node22" class="node">
<title>Node0x600000737c60</title>
<polygon fill="none" stroke="black" points="2608,-9 2608,-77 2696,-77 2696,-9 2608,-9"/>
<text text-anchor="middle" x="2652" y="-66.6" font-family="Times,serif" font-size="8.00">word: buy</text>
<polyline fill="none" stroke="black" points="2608,-60 2696,-60 "/>
<text text-anchor="middle" x="2652" y="-49.6" font-family="Times,serif" font-size="8.00">size: 2</text>
<polyline fill="none" stroke="black" points="2608,-43 2696,-43 "/>
<text text-anchor="middle" x="2652" y="-32.6" font-family="Times,serif" font-size="8.00">next: 0x600000738f30</text>
<polyline fill="none" stroke="black" points="2608,-26 2696,-26 "/>
<text text-anchor="middle" x="2652" y="-15.6" font-family="Times,serif" font-size="8.00">prev: 0x600000737210</text>
</g>
<!-- Node0x600000737210&#45;&gt;Node0x600000737c60 -->
<g id="edge21" class="edge">
<title>Node0x600000737210:n&#45;&gt;Node0x600000737c60:n</title>
<path fill="none" stroke="red" d="M2572,-34C2584,-34 2589.25,-34 2597.88,-34"/>
<polygon fill="red" stroke="red" points="2598,-37.5 2608,-34 2598,-30.5 2598,-37.5"/>
</g>
<!-- Node0x600000738f30 -->
<g id="node23" class="node">
<title>Node0x600000738f30</title>
<polygon fill="none" stroke="black" points="2732,-9 2732,-77 2820,-77 2820,-9 2732,-9"/>
<text text-anchor="middle" x="2776" y="-66.6" font-family="Times,serif" font-size="8.00">word: obey</text>
<polyline fill="none" stroke="black" points="2732,-60 2820,-60 "/>
<text text-anchor="middle" x="2776" y="-49.6" font-family="Times,serif" font-size="8.00">size: 1</text>
<polyline fill="none" stroke="black" points="2732,-43 2820,-43 "/>
<text text-anchor="middle" x="2776" y="-32.6" font-family="Times,serif" font-size="8.00">next: 0x600000738ff0</text>
<polyline fill="none" stroke="black" points="2732,-26 2820,-26 "/>
<text text-anchor="middle" x="2776" y="-15.6" font-family="Times,serif" font-size="8.00">prev: 0x600000737c60</text>
</g>
<!-- Node0x600000737c60&#45;&gt;Node0x600000738f30 -->
<g id="edge22" class="edge">
<title>Node0x600000737c60:n&#45;&gt;Node0x600000738f30:n</title>
<path fill="none" stroke="red" d="M2696,-34C2708,-34 2713.25,-34 2721.88,-34"/>
<polygon fill="red" stroke="red" points="2722,-37.5 2732,-34 2722,-30.5 2722,-37.5"/>
</g>
<!-- Node0x600000738ff0 -->
<g id="node24" class="node">
<title>Node0x600000738ff0</title>
<polygon fill="none" stroke="black" points="2856,-9 2856,-77 2943,-77 2943,-9 2856,-9"/>
<text text-anchor="middle" x="2899.5" y="-66.6" font-family="Times,serif" font-size="8.00">word: beginners</text>
<polyline fill="none" stroke="black" points="2856,-60 2943,-60 "/>
<text text-anchor="middle" x="2899.5" y="-49.6" font-family="Times,serif" font-size="8.00">size: 1</text>
<polyline fill="none" stroke="black" points="2856,-43 2943,-43 "/>
<text text-anchor="middle" x="2899.5" y="-32.6" font-family="Times,serif" font-size="8.00">next: 0x600000739500</text>
<polyline fill="none" stroke="black" points="2856,-26 2943,-26 "/>
<text text-anchor="middle" x="2899.5" y="-15.6" font-family="Times,serif" font-size="8.00">prev: 0x600000738f30</text>
</g>
<!-- Node0x600000738f30&#45;&gt;Node0x600000738ff0 -->
<g id="edge23" class="edge">
<title>Node0x600000738f30:n&#45;&gt;Node0x600000738ff0:n</title>
<path fill="none" stroke="red" d="M2820,-34C2832,-34 2837.25,-34 2845.88,-34"/>
<polygon fill="red" stroke="red" points="2846,-37.5 2856,-34 2846,-30.5 2846,-37.5"/>
</g>
<!-- Node0x600000739500 -->
<g id="node25" class="node">
<title>Node0x600000739500</title>
<polygon fill="none" stroke="black" points="2979,-9 2979,-77 3066,-77 3066,-9 2979,-9"/>
<text text-anchor="middle" x="3022.5" y="-66.6" font-family="Times,serif" font-size="8.00">word: swifter</text>
<polyline fill="none" stroke="black" points="2979,-60 3066,-60 "/>
<text text-anchor="middle" x="3022.5" y="-49.6" font-family="Times,serif" font-size="8.00">size: 1</text>
<polyline fill="none" stroke="black" points="2979,-43 3066,-43 "/>
<text text-anchor="middle" x="3022.5" y="-32.6" font-family="Times,serif" font-size="8.00">next: 0x60000073a850</text>
<polyline fill="none" stroke="black" points="2979,-26 3066,-26 "/>
<text text-anchor="middle" x="3022.5" y="-15.6" font-family="Times,serif" font-size="8.00">prev: 0x600000738ff0</text>
</g>
<!-- Node0x600000738ff0&#45;&gt;Node0x600000739500 -->
<g id="edge24" class="edge">
<title>Node0x600000738ff0:n&#45;&gt;Node0x600000739500:n</title>
<path fill="none" stroke="red" d="M2943,-34C2955,-34 2960.25,-34 2968.88,-34"/>
<polygon fill="red" stroke="red" points="2969,-37.5 2979,-34 2969,-30.5 2969,-37.5"/>
</g>
<!-- Node0x60000073a850 -->
<g id="node26" class="node">
<title>Node0x60000073a850</title>
<polygon fill="none" stroke="black" points="3102,-9 3102,-77 3190,-77 3190,-9 3102,-9"/>
<text text-anchor="middle" x="3146" y="-66.6" font-family="Times,serif" font-size="8.00">word: bedaub</text>
<polyline fill="none" stroke="black" points="3102,-60 3190,-60 "/>
<text text-anchor="middle" x="3146" y="-49.6" font-family="Times,serif" font-size="8.00">size: 1</text>
<polyline fill="none" stroke="black" points="3102,-43 3190,-43 "/>
<text text-anchor="middle" x="3146" y="-32.6" font-family="Times,serif" font-size="8.00">next: 0x60000073adf0</text>
<polyline fill="none" stroke="black" points="3102,-26 3190,-26 "/>
<text text-anchor="middle" x="3146" y="-15.6" font-family="Times,serif" font-size="8.00">prev: 0x600000739500</text>
</g>
<!-- Node0x600000739500&#45;&gt;Node0x60000073a850 -->
<g id="edge25" class="edge">
<title>Node0x600000739500:n&#45;&gt;Node0x60000073a850:n</title>
<path fill="none" stroke="red" d="M3066,-34C3078,-34 3083.25,-34 3091.88,-34"/>
<polygon fill="red" stroke="red" points="3092,-37.5 3102,-34 3092,-30.5 3092,-37.5"/>
</g>
<!-- Node0x60000073adf0 -->
<g id="node27" class="node">
<title>Node0x60000073adf0</title>
<polygon fill="none" stroke="black" points="3226,-9 3226,-77 3314,-77 3314,-9 3226,-9"/>
<text text-anchor="middle" x="3270" y="-66.6" font-family="Times,serif" font-size="8.00">word: justly</text>
<polyline fill="none" stroke="black" points="3226,-60 3314,-60 "/>
<text text-anchor="middle" x="3270" y="-49.6" font-family="Times,serif" font-size="8.00">size: 1</text>
<polyline fill="none" stroke="black" points="3226,-43 3314,-43 "/>
<text text-anchor="middle" x="3270" y="-32.6" font-family="Times,serif" font-size="8.00">next: 0x60000073b9f0</text>
<polyline fill="none" stroke="black" points="3226,-26 3314,-26 "/>
<text text-anchor="middle" x="3270" y="-15.6" font-family="Times,serif" font-size="8.00">prev: 0x60000073a850</text>
</g>
<!-- Node0x60000073a850&#45;&gt;Node0x60000073adf0 -->
<g id="edge26" class="edge">
<title>Node0x60000073a850:n&#45;&gt;Node0x60000073adf0:n</title>
<path fill="none" stroke="red" d="M3190,-34C3202,-34 3207.25,-34 3215.88,-34"/>
<polygon fill="red" stroke="red" points="3216,-37.5 3226,-34 3216,-30.5 3216,-37.5"/>
</g>
<!-- Node0x60000073b9f0 -->
<g id="node28" class="node">
<title>Node0x60000073b9f0</title>
<polygon fill="none" stroke="black" points="3350,-9 3350,-77 3437,-77 3437,-9 3350,-9"/>
<text text-anchor="middle" x="3393.5" y="-66.6" font-family="Times,serif" font-size="8.00">word: calamity</text>
<polyline fill="none" stroke="black" points="3350,-60 3437,-60 "/>
<text text-anchor="middle" x="3393.5" y="-49.6" font-family="Times,serif" font-size="8.00">size: 1</text>
<polyline fill="none" stroke="black" points="3350,-43 3437,-43 "/>
<text text-anchor="middle" x="3393.5" y="-32.6" font-family="Times,serif" font-size="8.00">next: 0x60000073c630</text>
<polyline fill="none" stroke="black" points="3350,-26 3437,-26 "/>
<text text-anchor="middle" x="3393.5" y="-15.6" font-family="Times,serif" font-size="8.00">prev: 0x60000073adf0</text>
</g>
<!-- Node0x60000073adf0&#45;&gt;Node0x60000073b9f0 -->
<g id="edge27" class="edge">
<title>Node0x60000073adf0:n&#45;&gt;Node0x60000073b9f0:n</title>
<path fill="none" stroke="red" d="M3314,-34C3326,-34 3331.25,-34 3339.88,-34"/>
<polygon fill="red" stroke="red" points="3340,-37.5 3350,-34 3340,-30.5 3340,-37.5"/>
</g>
<!-- Node0x60000073c630 -->
<g id="node29" class="node">
<title>Node0x60000073c630</title>
<polygon fill="none" stroke="black" points="3473,-9 3473,-77 3560,-77 3560,-9 3473,-9"/>
<text text-anchor="middle" x="3516.5" y="-66.6" font-family="Times,serif" font-size="8.00">word: infold</text>
<polyline fill="none" stroke="black" points="3473,-60 3560,-60 "/>
<text text-anchor="middle" x="3516.5" y="-49.6" font-family="Times,serif" font-size="8.00">size: 1</text>
<polyline fill="none" stroke="black" points="3473,-43 3560,-43 "/>
<text text-anchor="middle" x="3516.5" y="-32.6" font-family="Times,serif" font-size="8.00">next: 0x60000073e3a0</text>
<polyline fill="none" stroke="black" points="3473,-26 3560,-26 "/>
<text text-anchor="middle" x="3516.5" y="-15.6" font-family="Times,serif" font-size="8.00">prev: 0x60000073b9f0</text>
</g>
<!-- Node0x60000073b9f0&#45;&gt;Node0x60000073c630 -->
<g id="edge28" class="edge">
<title>Node0x60000073b9f0:n&#45;&gt;Node0x60000073c630:n</title>
<path fill="none" stroke="red" d="M3437,-34C3449,-34 3454.25,-34 3462.88,-34"/>
<polygon fill="red" stroke="red" points="3463,-37.5 3473,-34 3463,-30.5 3463,-37.5"/>
</g>
<!-- Node0x60000073e3a0 -->
<g id="node30" class="node">
<title>Node0x60000073e3a0</title>
<polygon fill="none" stroke="black" points="3596,-9 3596,-77 3684,-77 3684,-9 3596,-9"/>
<text text-anchor="middle" x="3640" y="-66.6" font-family="Times,serif" font-size="8.00">word: below</text>
<polyline fill="none" stroke="black" points="3596,-60 3684,-60 "/>
<text text-anchor="middle" x="3640" y="-49.6" font-family="Times,serif" font-size="8.00">size: 1</text>
<polyline fill="none" stroke="black" points="3596,-43 3684,-43 "/>
<text text-anchor="middle" x="3640" y="-32.6" font-family="Times,serif" font-size="8.00">next: 0x60000073e850</text>
<polyline fill="none" stroke="black" points="3596,-26 3684,-26 "/>
<text text-anchor="middle" x="3640" y="-15.6" font-family="Times,serif" font-size="8.00">prev: 0x60000073c630</text>
</g>
<!-- Node0x60000073c630&#45;&gt;Node0x60000073e3a0 -->
<g id="edge29" class="edge">
<title>Node0x60000073c630:n&#45;&gt;Node0x60000073e3a0:n</title>
<path fill="none" stroke="red" d="M3560,-34C3572,-34 3577.25,-34 3585.88,-34"/>
<polygon fill="red" stroke="red" points="3586,-37.5 3596,-34 3586,-30.5 3586,-37.5"/>
</g>
<!-- Node0x60000073e850 -->
<g id="node31" class="node">
<title>Node0x60000073e850</title>
<polygon fill="none" stroke="black" points="3720,-9 3720,-77 3808,-77 3808,-9 3720,-9"/>
<text text-anchor="middle" x="3764" y="-66.6" font-family="Times,serif" font-size="8.00">word: venge</text>
<polyline fill="none" stroke="black" points="3720,-60 3808,-60 "/>
<text text-anchor="middle" x="3764" y="-49.6" font-family="Times,serif" font-size="8.00">size: 1</text>
<polyline fill="none" stroke="black" points="3720,-43 3808,-43 "/>
<text text-anchor="middle" x="3764" y="-32.6" font-family="Times,serif" font-size="8.00">next: 0x60000070c510</text>
<polyline fill="none" stroke="black" points="3720,-26 3808,-26 "/>
<text text-anchor="middle" x="3764" y="-15.6" font-family="Times,serif" font-size="8.00">prev: 0x60000073e3a0</text>
</g>
<!-- Node0x60000073e3a0&#45;&gt;Node0x60000073e850 -->
<g id="edge30" class="edge">
<title>Node0x60000073e3a0:n&#45;&gt;Node0x60000073e850:n</title>
<path fill="none" stroke="red" d="M3684,-34C3696,-34 3701.25,-34 3709.88,-34"/>
<polygon fill="red" stroke="red" points="3710,-37.5 3720,-34 3710,-30.5 3710,-37.5"/>
</g>
<!-- Node0x60000070c510 -->
<g id="node32" class="node">
<title>Node0x60000070c510</title>
<polygon fill="none" stroke="black" points="3844,-9 3844,-77 3932,-77 3932,-9 3844,-9"/>
<text text-anchor="middle" x="3888" y="-66.6" font-family="Times,serif" font-size="8.00">word: furnish</text>
<polyline fill="none" stroke="black" points="3844,-60 3932,-60 "/>
<text text-anchor="middle" x="3888" y="-49.6" font-family="Times,serif" font-size="8.00">size: 1</text>
<polyline fill="none" stroke="black" points="3844,-43 3932,-43 "/>
<text text-anchor="middle" x="3888" y="-32.6" font-family="Times,serif" font-size="8.00">next: 0x6000007248d0</text>
<polyline fill="none" stroke="black" points="3844,-26 3932,-26 "/>
<text text-anchor="middle" x="3888" y="-15.6" font-family="Times,serif" font-size="8.00">prev: 0x60000073e850</text>
</g>
<!-- Node0x60000073e850&#45;&gt;Node0x60000070c510 -->
<g id="edge31" class="edge">
<title>Node0x60000073e850:n&#45;&gt;Node0x60000070c510:n</title>
<path fill="none" stroke="red" d="M3808,-34C3820,-34 3825.25,-34 3833.88,-34"/>
<polygon fill="red" stroke="red" points="3834,-37.5 3844,-34 3834,-30.5 3834,-37.5"/>
</g>
<!-- Node0x6000007248d0 -->
<g id="node33" class="node">
<title>Node0x6000007248d0</title>
<polygon fill="none" stroke="black" points="3968,-9 3968,-77 4056,-77 4056,-9 3968,-9"/>
<text text-anchor="middle" x="4012" y="-66.6" font-family="Times,serif" font-size="8.00">word: searchers</text>
<polyline fill="none" stroke="black" points="3968,-60 4056,-60 "/>
<text text-anchor="middle" x="4012" y="-49.6" font-family="Times,serif" font-size="8.00">size: 1</text>
<polyline fill="none" stroke="black" points="3968,-43 4056,-43 "/>
<text text-anchor="middle" x="4012" y="-32.6" font-family="Times,serif" font-size="8.00">next: 0x600000724960</text>
<polyline fill="none" stroke="black" points="3968,-26 4056,-26 "/>
<text text-anchor="middle" x="4012" y="-15.6" font-family="Times,serif" font-size="8.00">prev: 0x60000070c510</text>
</g>
<!-- Node0x60000070c510&#45;&gt;Node0x6000007248d0 -->
<g id="edge32" class="edge">
<title>Node0x60000070c510:n&#45;&gt;Node0x6000007248d0:n</title>
<path fill="none" stroke="red" d="M3932,-34C3944,-34 3949.25,-34 3957.88,-34"/>
<polygon fill="red" stroke="red" points="3958,-37.5 3968,-34 3958,-30.5 3958,-37.5"/>
</g>
<!-- Node0x600000724960 -->
<g id="node34" class="node">
<title>Node0x600000724960</title>
<polygon fill="none" stroke="black" points="4092,-9 4092,-77 4180,-77 4180,-9 4092,-9"/>
<text text-anchor="middle" x="4136" y="-66.6" font-family="Times,serif" font-size="8.00">word: pestilence</text>
<polyline fill="none" stroke="black" points="4092,-60 4180,-60 "/>
<text text-anchor="middle" x="4136" y="-49.6" font-family="Times,serif" font-size="8.00">size: 1</text>
<polyline fill="none" stroke="black" points="4092,-43 4180,-43 "/>
<text text-anchor="middle" x="4136" y="-32.6" font-family="Times,serif" font-size="8.00">next: 0x0</text>
<polyline fill="none" stroke="black" points="4092,-26 4180,-26 "/>
<text text-anchor="middle" x="4136" y="-15.6" font-family="Times,serif" font-size="8.00">prev: 0x6000007248d0</text>
</g>
<!-- Node0x6000007248d0&#45;&gt;Node0x600000724960 -->
<g id="edge33" class="edge">
<title>Node0x6000007248d0:n&#45;&gt;Node0x600000724960:n</title>
<path fill="none" stroke="red" d="M4056,-34C4068,-34 4073.25,-34 4081.88,-34"/>
<polygon fill="red" stroke="red" points="4082,-37.5 4092,-34 4082,-30.5 4082,-37.5"/>
</g>
</g>
</svg>
