<?xml version="1.0" encoding="UTF-8" standalone="no"?>
<!DOCTYPE svg PUBLIC "-//W3C//DTD SVG 1.1//EN"
 "http://www.w3.org/Graphics/SVG/1.1/DTD/svg11.dtd">
<!-- Generated by graphviz version 2.50.0 (20211204.2007)
 -->
<!-- Title: G Pages: 1 -->
<svg width="3701pt" height="117pt"
 viewBox="0.00 0.00 3701.00 117.00" xmlns="http://www.w3.org/2000/svg" xmlns:xlink="http://www.w3.org/1999/xlink">
<g id="graph0" class="graph" transform="scale(1 1) rotate(0) translate(4 113)">
<title>G</title>
<polygon fill="white" stroke="transparent" points="-4,4 -4,-113 3697,-113 3697,4 -4,4"/>
<g id="clust1" class="cluster">
<title>cluster3818</title>
<polygon fill="none" stroke="black" points="8,-8 8,-101 94,-101 94,-8 8,-8"/>
<text text-anchor="middle" x="51" y="-85.8" font-family="Times,serif" font-size="14.00">3818</text>
</g>
<g id="clust2" class="cluster">
<title>cluster3819</title>
<polygon fill="none" stroke="black" points="130,-8 130,-101 218,-101 218,-8 130,-8"/>
<text text-anchor="middle" x="174" y="-85.8" font-family="Times,serif" font-size="14.00">3819</text>
</g>
<g id="clust3" class="cluster">
<title>cluster3820</title>
<polygon fill="none" stroke="black" points="254,-8 254,-101 341,-101 341,-8 254,-8"/>
<text text-anchor="middle" x="297.5" y="-85.8" font-family="Times,serif" font-size="14.00">3820</text>
</g>
<g id="clust4" class="cluster">
<title>cluster3821</title>
<polygon fill="none" stroke="black" points="377,-8 377,-101 465,-101 465,-8 377,-8"/>
<text text-anchor="middle" x="421" y="-85.8" font-family="Times,serif" font-size="14.00">3821</text>
</g>
<g id="clust5" class="cluster">
<title>cluster3822</title>
<polygon fill="none" stroke="black" points="501,-8 501,-101 589,-101 589,-8 501,-8"/>
<text text-anchor="middle" x="545" y="-85.8" font-family="Times,serif" font-size="14.00">3822</text>
</g>
<g id="clust6" class="cluster">
<title>cluster3823</title>
<polygon fill="none" stroke="black" points="625,-8 625,-101 713,-101 713,-8 625,-8"/>
<text text-anchor="middle" x="669" y="-85.8" font-family="Times,serif" font-size="14.00">3823</text>
</g>
<g id="clust7" class="cluster">
<title>cluster3824</title>
<polygon fill="none" stroke="black" points="749,-8 749,-101 837,-101 837,-8 749,-8"/>
<text text-anchor="middle" x="793" y="-85.8" font-family="Times,serif" font-size="14.00">3824</text>
</g>
<g id="clust8" class="cluster">
<title>cluster3825</title>
<polygon fill="none" stroke="black" points="873,-8 873,-101 961,-101 961,-8 873,-8"/>
<text text-anchor="middle" x="917" y="-85.8" font-family="Times,serif" font-size="14.00">3825</text>
</g>
<g id="clust9" class="cluster">
<title>cluster3826</title>
<polygon fill="none" stroke="black" points="997,-8 997,-101 1085,-101 1085,-8 997,-8"/>
<text text-anchor="middle" x="1041" y="-85.8" font-family="Times,serif" font-size="14.00">3826</text>
</g>
<g id="clust10" class="cluster">
<title>cluster3827</title>
<polygon fill="none" stroke="black" points="1121,-8 1121,-101 1209,-101 1209,-8 1121,-8"/>
<text text-anchor="middle" x="1165" y="-85.8" font-family="Times,serif" font-size="14.00">3827</text>
</g>
<g id="clust11" class="cluster">
<title>cluster3828</title>
<polygon fill="none" stroke="black" points="1245,-8 1245,-101 1333,-101 1333,-8 1245,-8"/>
<text text-anchor="middle" x="1289" y="-85.8" font-family="Times,serif" font-size="14.00">3828</text>
</g>
<g id="clust12" class="cluster">
<title>cluster3829</title>
<polygon fill="none" stroke="black" points="1369,-8 1369,-101 1456,-101 1456,-8 1369,-8"/>
<text text-anchor="middle" x="1412.5" y="-85.8" font-family="Times,serif" font-size="14.00">3829</text>
</g>
<g id="clust13" class="cluster">
<title>cluster3830</title>
<polygon fill="none" stroke="black" points="1492,-8 1492,-101 1580,-101 1580,-8 1492,-8"/>
<text text-anchor="middle" x="1536" y="-85.8" font-family="Times,serif" font-size="14.00">3830</text>
</g>
<g id="clust14" class="cluster">
<title>cluster3831</title>
<polygon fill="none" stroke="black" points="1616,-8 1616,-101 1704,-101 1704,-8 1616,-8"/>
<text text-anchor="middle" x="1660" y="-85.8" font-family="Times,serif" font-size="14.00">3831</text>
</g>
<g id="clust15" class="cluster">
<title>cluster3832</title>
<polygon fill="none" stroke="black" points="1740,-8 1740,-101 1828,-101 1828,-8 1740,-8"/>
<text text-anchor="middle" x="1784" y="-85.8" font-family="Times,serif" font-size="14.00">3832</text>
</g>
<g id="clust16" class="cluster">
<title>cluster3833</title>
<polygon fill="none" stroke="black" points="1864,-8 1864,-101 1952,-101 1952,-8 1864,-8"/>
<text text-anchor="middle" x="1908" y="-85.8" font-family="Times,serif" font-size="14.00">3833</text>
</g>
<g id="clust17" class="cluster">
<title>cluster3834</title>
<polygon fill="none" stroke="black" points="1988,-8 1988,-101 2075,-101 2075,-8 1988,-8"/>
<text text-anchor="middle" x="2031.5" y="-85.8" font-family="Times,serif" font-size="14.00">3834</text>
</g>
<g id="clust18" class="cluster">
<title>cluster3835</title>
<polygon fill="none" stroke="black" points="2111,-8 2111,-101 2199,-101 2199,-8 2111,-8"/>
<text text-anchor="middle" x="2155" y="-85.8" font-family="Times,serif" font-size="14.00">3835</text>
</g>
<g id="clust19" class="cluster">
<title>cluster3836</title>
<polygon fill="none" stroke="black" points="2235,-8 2235,-101 2323,-101 2323,-8 2235,-8"/>
<text text-anchor="middle" x="2279" y="-85.8" font-family="Times,serif" font-size="14.00">3836</text>
</g>
<g id="clust20" class="cluster">
<title>cluster3837</title>
<polygon fill="none" stroke="black" points="2359,-8 2359,-101 2447,-101 2447,-8 2359,-8"/>
<text text-anchor="middle" x="2403" y="-85.8" font-family="Times,serif" font-size="14.00">3837</text>
</g>
<g id="clust21" class="cluster">
<title>cluster3838</title>
<polygon fill="none" stroke="black" points="2483,-8 2483,-101 2571,-101 2571,-8 2483,-8"/>
<text text-anchor="middle" x="2527" y="-85.8" font-family="Times,serif" font-size="14.00">3838</text>
</g>
<g id="clust22" class="cluster">
<title>cluster3839</title>
<polygon fill="none" stroke="black" points="2607,-8 2607,-101 2695,-101 2695,-8 2607,-8"/>
<text text-anchor="middle" x="2651" y="-85.8" font-family="Times,serif" font-size="14.00">3839</text>
</g>
<g id="clust23" class="cluster">
<title>cluster3840</title>
<polygon fill="none" stroke="black" points="2731,-8 2731,-101 2819,-101 2819,-8 2731,-8"/>
<text text-anchor="middle" x="2775" y="-85.8" font-family="Times,serif" font-size="14.00">3840</text>
</g>
<g id="clust24" class="cluster">
<title>cluster3841</title>
<polygon fill="none" stroke="black" points="2855,-8 2855,-101 2943,-101 2943,-8 2855,-8"/>
<text text-anchor="middle" x="2899" y="-85.8" font-family="Times,serif" font-size="14.00">3841</text>
</g>
<g id="clust25" class="cluster">
<title>cluster3842</title>
<polygon fill="none" stroke="black" points="2979,-8 2979,-101 3066,-101 3066,-8 2979,-8"/>
<text text-anchor="middle" x="3022.5" y="-85.8" font-family="Times,serif" font-size="14.00">3842</text>
</g>
<g id="clust26" class="cluster">
<title>cluster3843</title>
<polygon fill="none" stroke="black" points="3102,-8 3102,-101 3190,-101 3190,-8 3102,-8"/>
<text text-anchor="middle" x="3146" y="-85.8" font-family="Times,serif" font-size="14.00">3843</text>
</g>
<g id="clust27" class="cluster">
<title>cluster3844</title>
<polygon fill="none" stroke="black" points="3226,-8 3226,-101 3313,-101 3313,-8 3226,-8"/>
<text text-anchor="middle" x="3269.5" y="-85.8" font-family="Times,serif" font-size="14.00">3844</text>
</g>
<g id="clust28" class="cluster">
<title>cluster3845</title>
<polygon fill="none" stroke="black" points="3349,-8 3349,-101 3437,-101 3437,-8 3349,-8"/>
<text text-anchor="middle" x="3393" y="-85.8" font-family="Times,serif" font-size="14.00">3845</text>
</g>
<g id="clust29" class="cluster">
<title>cluster3846</title>
<polygon fill="none" stroke="black" points="3473,-8 3473,-101 3561,-101 3561,-8 3473,-8"/>
<text text-anchor="middle" x="3517" y="-85.8" font-family="Times,serif" font-size="14.00">3846</text>
</g>
<g id="clust30" class="cluster">
<title>cluster3847</title>
<polygon fill="none" stroke="black" points="3597,-8 3597,-101 3685,-101 3685,-8 3597,-8"/>
<text text-anchor="middle" x="3641" y="-85.8" font-family="Times,serif" font-size="14.00">3847</text>
</g>
<!-- Node0x6000007131e0 -->
<g id="node1" class="node">
<title>Node0x6000007131e0</title>
<polygon fill="none" stroke="black" points="8,-9 8,-77 94,-77 94,-9 8,-9"/>
<text text-anchor="middle" x="51" y="-66.6" font-family="Times,serif" font-size="8.00">word: between</text>
<polyline fill="none" stroke="black" points="8,-60 94,-60 "/>
<text text-anchor="middle" x="51" y="-49.6" font-family="Times,serif" font-size="8.00">size: 3</text>
<polyline fill="none" stroke="black" points="8,-43 94,-43 "/>
<text text-anchor="middle" x="51" y="-32.6" font-family="Times,serif" font-size="8.00">next: 0x600000716fd0</text>
<polyline fill="none" stroke="black" points="8,-26 94,-26 "/>
<text text-anchor="middle" x="51" y="-15.6" font-family="Times,serif" font-size="8.00">prev: 0x0</text>
</g>
<!-- Node0x600000716fd0 -->
<g id="node2" class="node">
<title>Node0x600000716fd0</title>
<polygon fill="none" stroke="black" points="130,-9 130,-77 218,-77 218,-9 130,-9"/>
<text text-anchor="middle" x="174" y="-66.6" font-family="Times,serif" font-size="8.00">word: humour</text>
<polyline fill="none" stroke="black" points="130,-60 218,-60 "/>
<text text-anchor="middle" x="174" y="-49.6" font-family="Times,serif" font-size="8.00">size: 3</text>
<polyline fill="none" stroke="black" points="130,-43 218,-43 "/>
<text text-anchor="middle" x="174" y="-32.6" font-family="Times,serif" font-size="8.00">next: 0x600000718060</text>
<polyline fill="none" stroke="black" points="130,-26 218,-26 "/>
<text text-anchor="middle" x="174" y="-15.6" font-family="Times,serif" font-size="8.00">prev: 0x6000007131e0</text>
</g>
<!-- Node0x6000007131e0&#45;&gt;Node0x600000716fd0 -->
<g id="edge1" class="edge">
<title>Node0x6000007131e0:n&#45;&gt;Node0x600000716fd0:n</title>
<path fill="none" stroke="red" d="M94,-34C106,-34 111.25,-34 119.88,-34"/>
<polygon fill="red" stroke="red" points="120,-37.5 130,-34 120,-30.5 120,-37.5"/>
</g>
<!-- Node0x600000718060 -->
<g id="node3" class="node">
<title>Node0x600000718060</title>
<polygon fill="none" stroke="black" points="254,-9 254,-77 341,-77 341,-9 254,-9"/>
<text text-anchor="middle" x="297.5" y="-66.6" font-family="Times,serif" font-size="8.00">word: grievance</text>
<polyline fill="none" stroke="black" points="254,-60 341,-60 "/>
<text text-anchor="middle" x="297.5" y="-49.6" font-family="Times,serif" font-size="8.00">size: 1</text>
<polyline fill="none" stroke="black" points="254,-43 341,-43 "/>
<text text-anchor="middle" x="297.5" y="-32.6" font-family="Times,serif" font-size="8.00">next: 0x600000708d80</text>
<polyline fill="none" stroke="black" points="254,-26 341,-26 "/>
<text text-anchor="middle" x="297.5" y="-15.6" font-family="Times,serif" font-size="8.00">prev: 0x600000716fd0</text>
</g>
<!-- Node0x600000716fd0&#45;&gt;Node0x600000718060 -->
<g id="edge2" class="edge">
<title>Node0x600000716fd0:n&#45;&gt;Node0x600000718060:n</title>
<path fill="none" stroke="red" d="M218,-34C230,-34 235.25,-34 243.88,-34"/>
<polygon fill="red" stroke="red" points="244,-37.5 254,-34 244,-30.5 244,-37.5"/>
</g>
<!-- Node0x600000708d80 -->
<g id="node4" class="node">
<title>Node0x600000708d80</title>
<polygon fill="none" stroke="black" points="377,-9 377,-77 465,-77 465,-9 377,-9"/>
<text text-anchor="middle" x="421" y="-66.6" font-family="Times,serif" font-size="8.00">word: brow</text>
<polyline fill="none" stroke="black" points="377,-60 465,-60 "/>
<text text-anchor="middle" x="421" y="-49.6" font-family="Times,serif" font-size="8.00">size: 5</text>
<polyline fill="none" stroke="black" points="377,-43 465,-43 "/>
<text text-anchor="middle" x="421" y="-32.6" font-family="Times,serif" font-size="8.00">next: 0x60000070a070</text>
<polyline fill="none" stroke="black" points="377,-26 465,-26 "/>
<text text-anchor="middle" x="421" y="-15.6" font-family="Times,serif" font-size="8.00">prev: 0x600000718060</text>
</g>
<!-- Node0x600000718060&#45;&gt;Node0x600000708d80 -->
<g id="edge3" class="edge">
<title>Node0x600000718060:n&#45;&gt;Node0x600000708d80:n</title>
<path fill="none" stroke="red" d="M341,-34C353,-34 358.25,-34 366.88,-34"/>
<polygon fill="red" stroke="red" points="367,-37.5 377,-34 367,-30.5 367,-37.5"/>
</g>
<!-- Node0x60000070a070 -->
<g id="node5" class="node">
<title>Node0x60000070a070</title>
<polygon fill="none" stroke="black" points="501,-9 501,-77 589,-77 589,-9 501,-9"/>
<text text-anchor="middle" x="545" y="-66.6" font-family="Times,serif" font-size="8.00">word: gallops</text>
<polyline fill="none" stroke="black" points="501,-60 589,-60 "/>
<text text-anchor="middle" x="545" y="-49.6" font-family="Times,serif" font-size="8.00">size: 2</text>
<polyline fill="none" stroke="black" points="501,-43 589,-43 "/>
<text text-anchor="middle" x="545" y="-32.6" font-family="Times,serif" font-size="8.00">next: 0x600000703750</text>
<polyline fill="none" stroke="black" points="501,-26 589,-26 "/>
<text text-anchor="middle" x="545" y="-15.6" font-family="Times,serif" font-size="8.00">prev: 0x600000708d80</text>
</g>
<!-- Node0x600000708d80&#45;&gt;Node0x60000070a070 -->
<g id="edge4" class="edge">
<title>Node0x600000708d80:n&#45;&gt;Node0x60000070a070:n</title>
<path fill="none" stroke="red" d="M465,-34C477,-34 482.25,-34 490.88,-34"/>
<polygon fill="red" stroke="red" points="491,-37.5 501,-34 491,-30.5 491,-37.5"/>
</g>
<!-- Node0x600000703750 -->
<g id="node6" class="node">
<title>Node0x600000703750</title>
<polygon fill="none" stroke="black" points="625,-9 625,-77 713,-77 713,-9 625,-9"/>
<text text-anchor="middle" x="669" y="-66.6" font-family="Times,serif" font-size="8.00">word: wash</text>
<polyline fill="none" stroke="black" points="625,-60 713,-60 "/>
<text text-anchor="middle" x="669" y="-49.6" font-family="Times,serif" font-size="8.00">size: 4</text>
<polyline fill="none" stroke="black" points="625,-43 713,-43 "/>
<text text-anchor="middle" x="669" y="-32.6" font-family="Times,serif" font-size="8.00">next: 0x600000703e40</text>
<polyline fill="none" stroke="black" points="625,-26 713,-26 "/>
<text text-anchor="middle" x="669" y="-15.6" font-family="Times,serif" font-size="8.00">prev: 0x60000070a070</text>
</g>
<!-- Node0x60000070a070&#45;&gt;Node0x600000703750 -->
<g id="edge5" class="edge">
<title>Node0x60000070a070:n&#45;&gt;Node0x600000703750:n</title>
<path fill="none" stroke="red" d="M589,-34C601,-34 606.25,-34 614.88,-34"/>
<polygon fill="red" stroke="red" points="615,-37.5 625,-34 615,-30.5 615,-37.5"/>
</g>
<!-- Node0x600000703e40 -->
<g id="node7" class="node">
<title>Node0x600000703e40</title>
<polygon fill="none" stroke="black" points="749,-9 749,-77 837,-77 837,-9 749,-9"/>
<text text-anchor="middle" x="793" y="-66.6" font-family="Times,serif" font-size="8.00">word: orb</text>
<polyline fill="none" stroke="black" points="749,-60 837,-60 "/>
<text text-anchor="middle" x="793" y="-49.6" font-family="Times,serif" font-size="8.00">size: 1</text>
<polyline fill="none" stroke="black" points="749,-43 837,-43 "/>
<text text-anchor="middle" x="793" y="-32.6" font-family="Times,serif" font-size="8.00">next: 0x6000007305d0</text>
<polyline fill="none" stroke="black" points="749,-26 837,-26 "/>
<text text-anchor="middle" x="793" y="-15.6" font-family="Times,serif" font-size="8.00">prev: 0x600000703750</text>
</g>
<!-- Node0x600000703750&#45;&gt;Node0x600000703e40 -->
<g id="edge6" class="edge">
<title>Node0x600000703750:n&#45;&gt;Node0x600000703e40:n</title>
<path fill="none" stroke="red" d="M713,-34C725,-34 730.25,-34 738.88,-34"/>
<polygon fill="red" stroke="red" points="739,-37.5 749,-34 739,-30.5 739,-37.5"/>
</g>
<!-- Node0x6000007305d0 -->
<g id="node8" class="node">
<title>Node0x6000007305d0</title>
<polygon fill="none" stroke="black" points="873,-9 873,-77 961,-77 961,-9 873,-9"/>
<text text-anchor="middle" x="917" y="-66.6" font-family="Times,serif" font-size="8.00">word: Thy</text>
<polyline fill="none" stroke="black" points="873,-60 961,-60 "/>
<text text-anchor="middle" x="917" y="-49.6" font-family="Times,serif" font-size="8.00">size: 19</text>
<polyline fill="none" stroke="black" points="873,-43 961,-43 "/>
<text text-anchor="middle" x="917" y="-32.6" font-family="Times,serif" font-size="8.00">next: 0x600000732310</text>
<polyline fill="none" stroke="black" points="873,-26 961,-26 "/>
<text text-anchor="middle" x="917" y="-15.6" font-family="Times,serif" font-size="8.00">prev: 0x600000703e40</text>
</g>
<!-- Node0x600000703e40&#45;&gt;Node0x6000007305d0 -->
<g id="edge7" class="edge">
<title>Node0x600000703e40:n&#45;&gt;Node0x6000007305d0:n</title>
<path fill="none" stroke="red" d="M837,-34C849,-34 854.25,-34 862.88,-34"/>
<polygon fill="red" stroke="red" points="863,-37.5 873,-34 863,-30.5 863,-37.5"/>
</g>
<!-- Node0x600000732310 -->
<g id="node9" class="node">
<title>Node0x600000732310</title>
<polygon fill="none" stroke="black" points="997,-9 997,-77 1085,-77 1085,-9 997,-9"/>
<text text-anchor="middle" x="1041" y="-66.6" font-family="Times,serif" font-size="8.00">word: Wast</text>
<polyline fill="none" stroke="black" points="997,-60 1085,-60 "/>
<text text-anchor="middle" x="1041" y="-49.6" font-family="Times,serif" font-size="8.00">size: 1</text>
<polyline fill="none" stroke="black" points="997,-43 1085,-43 "/>
<text text-anchor="middle" x="1041" y="-32.6" font-family="Times,serif" font-size="8.00">next: 0x600000733480</text>
<polyline fill="none" stroke="black" points="997,-26 1085,-26 "/>
<text text-anchor="middle" x="1041" y="-15.6" font-family="Times,serif" font-size="8.00">prev: 0x6000007305d0</text>
</g>
<!-- Node0x6000007305d0&#45;&gt;Node0x600000732310 -->
<g id="edge8" class="edge">
<title>Node0x6000007305d0:n&#45;&gt;Node0x600000732310:n</title>
<path fill="none" stroke="red" d="M961,-34C973,-34 978.25,-34 986.88,-34"/>
<polygon fill="red" stroke="red" points="987,-37.5 997,-34 987,-30.5 987,-37.5"/>
</g>
<!-- Node0x600000733480 -->
<g id="node10" class="node">
<title>Node0x600000733480</title>
<polygon fill="none" stroke="black" points="1121,-9 1121,-77 1209,-77 1209,-9 1121,-9"/>
<text text-anchor="middle" x="1165" y="-66.6" font-family="Times,serif" font-size="8.00">word: hay</text>
<polyline fill="none" stroke="black" points="1121,-60 1209,-60 "/>
<text text-anchor="middle" x="1165" y="-49.6" font-family="Times,serif" font-size="8.00">size: 1</text>
<polyline fill="none" stroke="black" points="1121,-43 1209,-43 "/>
<text text-anchor="middle" x="1165" y="-32.6" font-family="Times,serif" font-size="8.00">next: 0x6000007336f0</text>
<polyline fill="none" stroke="black" points="1121,-26 1209,-26 "/>
<text text-anchor="middle" x="1165" y="-15.6" font-family="Times,serif" font-size="8.00">prev: 0x600000732310</text>
</g>
<!-- Node0x600000732310&#45;&gt;Node0x600000733480 -->
<g id="edge9" class="edge">
<title>Node0x600000732310:n&#45;&gt;Node0x600000733480:n</title>
<path fill="none" stroke="red" d="M1085,-34C1097,-34 1102.25,-34 1110.88,-34"/>
<polygon fill="red" stroke="red" points="1111,-37.5 1121,-34 1111,-30.5 1111,-37.5"/>
</g>
<!-- Node0x6000007336f0 -->
<g id="node11" class="node">
<title>Node0x6000007336f0</title>
<polygon fill="none" stroke="black" points="1245,-9 1245,-77 1333,-77 1333,-9 1245,-9"/>
<text text-anchor="middle" x="1289" y="-66.6" font-family="Times,serif" font-size="8.00">word: fashion</text>
<polyline fill="none" stroke="black" points="1245,-60 1333,-60 "/>
<text text-anchor="middle" x="1289" y="-49.6" font-family="Times,serif" font-size="8.00">size: 1</text>
<polyline fill="none" stroke="black" points="1245,-43 1333,-43 "/>
<text text-anchor="middle" x="1289" y="-32.6" font-family="Times,serif" font-size="8.00">next: 0x600000733c00</text>
<polyline fill="none" stroke="black" points="1245,-26 1333,-26 "/>
<text text-anchor="middle" x="1289" y="-15.6" font-family="Times,serif" font-size="8.00">prev: 0x600000733480</text>
</g>
<!-- Node0x600000733480&#45;&gt;Node0x6000007336f0 -->
<g id="edge10" class="edge">
<title>Node0x600000733480:n&#45;&gt;Node0x6000007336f0:n</title>
<path fill="none" stroke="red" d="M1209,-34C1221,-34 1226.25,-34 1234.88,-34"/>
<polygon fill="red" stroke="red" points="1235,-37.5 1245,-34 1235,-30.5 1235,-37.5"/>
</g>
<!-- Node0x600000733c00 -->
<g id="node12" class="node">
<title>Node0x600000733c00</title>
<polygon fill="none" stroke="black" points="1369,-9 1369,-77 1456,-77 1456,-9 1369,-9"/>
<text text-anchor="middle" x="1412.5" y="-66.6" font-family="Times,serif" font-size="8.00">word: jour</text>
<polyline fill="none" stroke="black" points="1369,-60 1456,-60 "/>
<text text-anchor="middle" x="1412.5" y="-49.6" font-family="Times,serif" font-size="8.00">size: 1</text>
<polyline fill="none" stroke="black" points="1369,-43 1456,-43 "/>
<text text-anchor="middle" x="1412.5" y="-32.6" font-family="Times,serif" font-size="8.00">next: 0x600000733e70</text>
<polyline fill="none" stroke="black" points="1369,-26 1456,-26 "/>
<text text-anchor="middle" x="1412.5" y="-15.6" font-family="Times,serif" font-size="8.00">prev: 0x6000007336f0</text>
</g>
<!-- Node0x6000007336f0&#45;&gt;Node0x600000733c00 -->
<g id="edge11" class="edge">
<title>Node0x6000007336f0:n&#45;&gt;Node0x600000733c00:n</title>
<path fill="none" stroke="red" d="M1333,-34C1345,-34 1350.25,-34 1358.88,-34"/>
<polygon fill="red" stroke="red" points="1359,-37.5 1369,-34 1359,-30.5 1359,-37.5"/>
</g>
<!-- Node0x600000733e70 -->
<g id="node13" class="node">
<title>Node0x600000733e70</title>
<polygon fill="none" stroke="black" points="1492,-9 1492,-77 1580,-77 1580,-9 1492,-9"/>
<text text-anchor="middle" x="1536" y="-66.6" font-family="Times,serif" font-size="8.00">word: Meaning</text>
<polyline fill="none" stroke="black" points="1492,-60 1580,-60 "/>
<text text-anchor="middle" x="1536" y="-49.6" font-family="Times,serif" font-size="8.00">size: 2</text>
<polyline fill="none" stroke="black" points="1492,-43 1580,-43 "/>
<text text-anchor="middle" x="1536" y="-32.6" font-family="Times,serif" font-size="8.00">next: 0x6000007344e0</text>
<polyline fill="none" stroke="black" points="1492,-26 1580,-26 "/>
<text text-anchor="middle" x="1536" y="-15.6" font-family="Times,serif" font-size="8.00">prev: 0x600000733c00</text>
</g>
<!-- Node0x600000733c00&#45;&gt;Node0x600000733e70 -->
<g id="edge12" class="edge">
<title>Node0x600000733c00:n&#45;&gt;Node0x600000733e70:n</title>
<path fill="none" stroke="red" d="M1456,-34C1468,-34 1473.25,-34 1481.88,-34"/>
<polygon fill="red" stroke="red" points="1482,-37.5 1492,-34 1482,-30.5 1482,-37.5"/>
</g>
<!-- Node0x6000007344e0 -->
<g id="node14" class="node">
<title>Node0x6000007344e0</title>
<polygon fill="none" stroke="black" points="1616,-9 1616,-77 1704,-77 1704,-9 1616,-9"/>
<text text-anchor="middle" x="1660" y="-66.6" font-family="Times,serif" font-size="8.00">word: ell</text>
<polyline fill="none" stroke="black" points="1616,-60 1704,-60 "/>
<text text-anchor="middle" x="1660" y="-49.6" font-family="Times,serif" font-size="8.00">size: 1</text>
<polyline fill="none" stroke="black" points="1616,-43 1704,-43 "/>
<text text-anchor="middle" x="1660" y="-32.6" font-family="Times,serif" font-size="8.00">next: 0x600000735980</text>
<polyline fill="none" stroke="black" points="1616,-26 1704,-26 "/>
<text text-anchor="middle" x="1660" y="-15.6" font-family="Times,serif" font-size="8.00">prev: 0x600000733e70</text>
</g>
<!-- Node0x600000733e70&#45;&gt;Node0x6000007344e0 -->
<g id="edge13" class="edge">
<title>Node0x600000733e70:n&#45;&gt;Node0x6000007344e0:n</title>
<path fill="none" stroke="red" d="M1580,-34C1592,-34 1597.25,-34 1605.88,-34"/>
<polygon fill="red" stroke="red" points="1606,-37.5 1616,-34 1606,-30.5 1606,-37.5"/>
</g>
<!-- Node0x600000735980 -->
<g id="node15" class="node">
<title>Node0x600000735980</title>
<polygon fill="none" stroke="black" points="1740,-9 1740,-77 1828,-77 1828,-9 1740,-9"/>
<text text-anchor="middle" x="1784" y="-66.6" font-family="Times,serif" font-size="8.00">word: quit</text>
<polyline fill="none" stroke="black" points="1740,-60 1828,-60 "/>
<text text-anchor="middle" x="1784" y="-49.6" font-family="Times,serif" font-size="8.00">size: 1</text>
<polyline fill="none" stroke="black" points="1740,-43 1828,-43 "/>
<text text-anchor="middle" x="1784" y="-32.6" font-family="Times,serif" font-size="8.00">next: 0x600000736df0</text>
<polyline fill="none" stroke="black" points="1740,-26 1828,-26 "/>
<text text-anchor="middle" x="1784" y="-15.6" font-family="Times,serif" font-size="8.00">prev: 0x6000007344e0</text>
</g>
<!-- Node0x6000007344e0&#45;&gt;Node0x600000735980 -->
<g id="edge14" class="edge">
<title>Node0x6000007344e0:n&#45;&gt;Node0x600000735980:n</title>
<path fill="none" stroke="red" d="M1704,-34C1716,-34 1721.25,-34 1729.88,-34"/>
<polygon fill="red" stroke="red" points="1730,-37.5 1740,-34 1730,-30.5 1730,-37.5"/>
</g>
<!-- Node0x600000736df0 -->
<g id="node16" class="node">
<title>Node0x600000736df0</title>
<polygon fill="none" stroke="black" points="1864,-9 1864,-77 1952,-77 1952,-9 1864,-9"/>
<text text-anchor="middle" x="1908" y="-66.6" font-family="Times,serif" font-size="8.00">word: triumph</text>
<polyline fill="none" stroke="black" points="1864,-60 1952,-60 "/>
<text text-anchor="middle" x="1908" y="-49.6" font-family="Times,serif" font-size="8.00">size: 2</text>
<polyline fill="none" stroke="black" points="1864,-43 1952,-43 "/>
<text text-anchor="middle" x="1908" y="-32.6" font-family="Times,serif" font-size="8.00">next: 0x60000073a430</text>
<polyline fill="none" stroke="black" points="1864,-26 1952,-26 "/>
<text text-anchor="middle" x="1908" y="-15.6" font-family="Times,serif" font-size="8.00">prev: 0x600000735980</text>
</g>
<!-- Node0x600000735980&#45;&gt;Node0x600000736df0 -->
<g id="edge15" class="edge">
<title>Node0x600000735980:n&#45;&gt;Node0x600000736df0:n</title>
<path fill="none" stroke="red" d="M1828,-34C1840,-34 1845.25,-34 1853.88,-34"/>
<polygon fill="red" stroke="red" points="1854,-37.5 1864,-34 1854,-30.5 1854,-37.5"/>
</g>
<!-- Node0x60000073a430 -->
<g id="node17" class="node">
<title>Node0x60000073a430</title>
<polygon fill="none" stroke="black" points="1988,-9 1988,-77 2075,-77 2075,-9 1988,-9"/>
<text text-anchor="middle" x="2031.5" y="-66.6" font-family="Times,serif" font-size="8.00">word: brings</text>
<polyline fill="none" stroke="black" points="1988,-60 2075,-60 "/>
<text text-anchor="middle" x="2031.5" y="-49.6" font-family="Times,serif" font-size="8.00">size: 2</text>
<polyline fill="none" stroke="black" points="1988,-43 2075,-43 "/>
<text text-anchor="middle" x="2031.5" y="-32.6" font-family="Times,serif" font-size="8.00">next: 0x60000073b240</text>
<polyline fill="none" stroke="black" points="1988,-26 2075,-26 "/>
<text text-anchor="middle" x="2031.5" y="-15.6" font-family="Times,serif" font-size="8.00">prev: 0x600000736df0</text>
</g>
<!-- Node0x600000736df0&#45;&gt;Node0x60000073a430 -->
<g id="edge16" class="edge">
<title>Node0x600000736df0:n&#45;&gt;Node0x60000073a430:n</title>
<path fill="none" stroke="red" d="M1952,-34C1964,-34 1969.25,-34 1977.88,-34"/>
<polygon fill="red" stroke="red" points="1978,-37.5 1988,-34 1978,-30.5 1978,-37.5"/>
</g>
<!-- Node0x60000073b240 -->
<g id="node18" class="node">
<title>Node0x60000073b240</title>
<polygon fill="none" stroke="black" points="2111,-9 2111,-77 2199,-77 2199,-9 2111,-9"/>
<text text-anchor="middle" x="2155" y="-66.6" font-family="Times,serif" font-size="8.00">word: beast</text>
<polyline fill="none" stroke="black" points="2111,-60 2199,-60 "/>
<text text-anchor="middle" x="2155" y="-49.6" font-family="Times,serif" font-size="8.00">size: 3</text>
<polyline fill="none" stroke="black" points="2111,-43 2199,-43 "/>
<text text-anchor="middle" x="2155" y="-32.6" font-family="Times,serif" font-size="8.00">next: 0x60000073dec0</text>
<polyline fill="none" stroke="black" points="2111,-26 2199,-26 "/>
<text text-anchor="middle" x="2155" y="-15.6" font-family="Times,serif" font-size="8.00">prev: 0x60000073a430</text>
</g>
<!-- Node0x60000073a430&#45;&gt;Node0x60000073b240 -->
<g id="edge17" class="edge">
<title>Node0x60000073a430:n&#45;&gt;Node0x60000073b240:n</title>
<path fill="none" stroke="red" d="M2075,-34C2087,-34 2092.25,-34 2100.88,-34"/>
<polygon fill="red" stroke="red" points="2101,-37.5 2111,-34 2101,-30.5 2101,-37.5"/>
</g>
<!-- Node0x60000073dec0 -->
<g id="node19" class="node">
<title>Node0x60000073dec0</title>
<polygon fill="none" stroke="black" points="2235,-9 2235,-77 2323,-77 2323,-9 2235,-9"/>
<text text-anchor="middle" x="2279" y="-66.6" font-family="Times,serif" font-size="8.00">word: ta</text>
<polyline fill="none" stroke="black" points="2235,-60 2323,-60 "/>
<text text-anchor="middle" x="2279" y="-49.6" font-family="Times,serif" font-size="8.00">size: 2</text>
<polyline fill="none" stroke="black" points="2235,-43 2323,-43 "/>
<text text-anchor="middle" x="2279" y="-32.6" font-family="Times,serif" font-size="8.00">next: 0x60000073e340</text>
<polyline fill="none" stroke="black" points="2235,-26 2323,-26 "/>
<text text-anchor="middle" x="2279" y="-15.6" font-family="Times,serif" font-size="8.00">prev: 0x60000073b240</text>
</g>
<!-- Node0x60000073b240&#45;&gt;Node0x60000073dec0 -->
<g id="edge18" class="edge">
<title>Node0x60000073b240:n&#45;&gt;Node0x60000073dec0:n</title>
<path fill="none" stroke="red" d="M2199,-34C2211,-34 2216.25,-34 2224.88,-34"/>
<polygon fill="red" stroke="red" points="2225,-37.5 2235,-34 2225,-30.5 2225,-37.5"/>
</g>
<!-- Node0x60000073e340 -->
<g id="node20" class="node">
<title>Node0x60000073e340</title>
<polygon fill="none" stroke="black" points="2359,-9 2359,-77 2447,-77 2447,-9 2359,-9"/>
<text text-anchor="middle" x="2403" y="-66.6" font-family="Times,serif" font-size="8.00">word: divining</text>
<polyline fill="none" stroke="black" points="2359,-60 2447,-60 "/>
<text text-anchor="middle" x="2403" y="-49.6" font-family="Times,serif" font-size="8.00">size: 1</text>
<polyline fill="none" stroke="black" points="2359,-43 2447,-43 "/>
<text text-anchor="middle" x="2403" y="-32.6" font-family="Times,serif" font-size="8.00">next: 0x60000073e430</text>
<polyline fill="none" stroke="black" points="2359,-26 2447,-26 "/>
<text text-anchor="middle" x="2403" y="-15.6" font-family="Times,serif" font-size="8.00">prev: 0x60000073dec0</text>
</g>
<!-- Node0x60000073dec0&#45;&gt;Node0x60000073e340 -->
<g id="edge19" class="edge">
<title>Node0x60000073dec0:n&#45;&gt;Node0x60000073e340:n</title>
<path fill="none" stroke="red" d="M2323,-34C2335,-34 2340.25,-34 2348.88,-34"/>
<polygon fill="red" stroke="red" points="2349,-37.5 2359,-34 2349,-30.5 2349,-37.5"/>
</g>
<!-- Node0x60000073e430 -->
<g id="node21" class="node">
<title>Node0x60000073e430</title>
<polygon fill="none" stroke="black" points="2483,-9 2483,-77 2571,-77 2571,-9 2483,-9"/>
<text text-anchor="middle" x="2527" y="-66.6" font-family="Times,serif" font-size="8.00">word: Dry</text>
<polyline fill="none" stroke="black" points="2483,-60 2571,-60 "/>
<text text-anchor="middle" x="2527" y="-49.6" font-family="Times,serif" font-size="8.00">size: 2</text>
<polyline fill="none" stroke="black" points="2483,-43 2571,-43 "/>
<text text-anchor="middle" x="2527" y="-32.6" font-family="Times,serif" font-size="8.00">next: 0x60000073e520</text>
<polyline fill="none" stroke="black" points="2483,-26 2571,-26 "/>
<text text-anchor="middle" x="2527" y="-15.6" font-family="Times,serif" font-size="8.00">prev: 0x60000073e340</text>
</g>
<!-- Node0x60000073e340&#45;&gt;Node0x60000073e430 -->
<g id="edge20" class="edge">
<title>Node0x60000073e340:n&#45;&gt;Node0x60000073e430:n</title>
<path fill="none" stroke="red" d="M2447,-34C2459,-34 2464.25,-34 2472.88,-34"/>
<polygon fill="red" stroke="red" points="2473,-37.5 2483,-34 2473,-30.5 2473,-37.5"/>
</g>
<!-- Node0x60000073e520 -->
<g id="node22" class="node">
<title>Node0x60000073e520</title>
<polygon fill="none" stroke="black" points="2607,-9 2607,-77 2695,-77 2695,-9 2607,-9"/>
<text text-anchor="middle" x="2651" y="-66.6" font-family="Times,serif" font-size="8.00">word: renown</text>
<polyline fill="none" stroke="black" points="2607,-60 2695,-60 "/>
<text text-anchor="middle" x="2651" y="-49.6" font-family="Times,serif" font-size="8.00">size: 1</text>
<polyline fill="none" stroke="black" points="2607,-43 2695,-43 "/>
<text text-anchor="middle" x="2651" y="-32.6" font-family="Times,serif" font-size="8.00">next: 0x60000073eac0</text>
<polyline fill="none" stroke="black" points="2607,-26 2695,-26 "/>
<text text-anchor="middle" x="2651" y="-15.6" font-family="Times,serif" font-size="8.00">prev: 0x60000073e430</text>
</g>
<!-- Node0x60000073e430&#45;&gt;Node0x60000073e520 -->
<g id="edge21" class="edge">
<title>Node0x60000073e430:n&#45;&gt;Node0x60000073e520:n</title>
<path fill="none" stroke="red" d="M2571,-34C2583,-34 2588.25,-34 2596.88,-34"/>
<polygon fill="red" stroke="red" points="2597,-37.5 2607,-34 2597,-30.5 2597,-37.5"/>
</g>
<!-- Node0x60000073eac0 -->
<g id="node23" class="node">
<title>Node0x60000073eac0</title>
<polygon fill="none" stroke="black" points="2731,-9 2731,-77 2819,-77 2819,-9 2731,-9"/>
<text text-anchor="middle" x="2775" y="-66.6" font-family="Times,serif" font-size="8.00">word: careful</text>
<polyline fill="none" stroke="black" points="2731,-60 2819,-60 "/>
<text text-anchor="middle" x="2775" y="-49.6" font-family="Times,serif" font-size="8.00">size: 1</text>
<polyline fill="none" stroke="black" points="2731,-43 2819,-43 "/>
<text text-anchor="middle" x="2775" y="-32.6" font-family="Times,serif" font-size="8.00">next: 0x60000073f5d0</text>
<polyline fill="none" stroke="black" points="2731,-26 2819,-26 "/>
<text text-anchor="middle" x="2775" y="-15.6" font-family="Times,serif" font-size="8.00">prev: 0x60000073e520</text>
</g>
<!-- Node0x60000073e520&#45;&gt;Node0x60000073eac0 -->
<g id="edge22" class="edge">
<title>Node0x60000073e520:n&#45;&gt;Node0x60000073eac0:n</title>
<path fill="none" stroke="red" d="M2695,-34C2707,-34 2712.25,-34 2720.88,-34"/>
<polygon fill="red" stroke="red" points="2721,-37.5 2731,-34 2721,-30.5 2721,-37.5"/>
</g>
<!-- Node0x60000073f5d0 -->
<g id="node24" class="node">
<title>Node0x60000073f5d0</title>
<polygon fill="none" stroke="black" points="2855,-9 2855,-77 2943,-77 2943,-9 2855,-9"/>
<text text-anchor="middle" x="2899" y="-66.6" font-family="Times,serif" font-size="8.00">word: treason</text>
<polyline fill="none" stroke="black" points="2855,-60 2943,-60 "/>
<text text-anchor="middle" x="2899" y="-49.6" font-family="Times,serif" font-size="8.00">size: 1</text>
<polyline fill="none" stroke="black" points="2855,-43 2943,-43 "/>
<text text-anchor="middle" x="2899" y="-32.6" font-family="Times,serif" font-size="8.00">next: 0x600000720690</text>
<polyline fill="none" stroke="black" points="2855,-26 2943,-26 "/>
<text text-anchor="middle" x="2899" y="-15.6" font-family="Times,serif" font-size="8.00">prev: 0x60000073eac0</text>
</g>
<!-- Node0x60000073eac0&#45;&gt;Node0x60000073f5d0 -->
<g id="edge23" class="edge">
<title>Node0x60000073eac0:n&#45;&gt;Node0x60000073f5d0:n</title>
<path fill="none" stroke="red" d="M2819,-34C2831,-34 2836.25,-34 2844.88,-34"/>
<polygon fill="red" stroke="red" points="2845,-37.5 2855,-34 2845,-30.5 2845,-37.5"/>
</g>
<!-- Node0x600000720690 -->
<g id="node25" class="node">
<title>Node0x600000720690</title>
<polygon fill="none" stroke="black" points="2979,-9 2979,-77 3066,-77 3066,-9 2979,-9"/>
<text text-anchor="middle" x="3022.5" y="-66.6" font-family="Times,serif" font-size="8.00">word: deed</text>
<polyline fill="none" stroke="black" points="2979,-60 3066,-60 "/>
<text text-anchor="middle" x="3022.5" y="-49.6" font-family="Times,serif" font-size="8.00">size: 1</text>
<polyline fill="none" stroke="black" points="2979,-43 3066,-43 "/>
<text text-anchor="middle" x="3022.5" y="-32.6" font-family="Times,serif" font-size="8.00">next: 0x60000070a1f0</text>
<polyline fill="none" stroke="black" points="2979,-26 3066,-26 "/>
<text text-anchor="middle" x="3022.5" y="-15.6" font-family="Times,serif" font-size="8.00">prev: 0x60000073f5d0</text>
</g>
<!-- Node0x60000073f5d0&#45;&gt;Node0x600000720690 -->
<g id="edge24" class="edge">
<title>Node0x60000073f5d0:n&#45;&gt;Node0x600000720690:n</title>
<path fill="none" stroke="red" d="M2943,-34C2955,-34 2960.25,-34 2968.88,-34"/>
<polygon fill="red" stroke="red" points="2969,-37.5 2979,-34 2969,-30.5 2969,-37.5"/>
</g>
<!-- Node0x60000070a1f0 -->
<g id="node26" class="node">
<title>Node0x60000070a1f0</title>
<polygon fill="none" stroke="black" points="3102,-9 3102,-77 3190,-77 3190,-9 3102,-9"/>
<text text-anchor="middle" x="3146" y="-66.6" font-family="Times,serif" font-size="8.00">word: stepping</text>
<polyline fill="none" stroke="black" points="3102,-60 3190,-60 "/>
<text text-anchor="middle" x="3146" y="-49.6" font-family="Times,serif" font-size="8.00">size: 1</text>
<polyline fill="none" stroke="black" points="3102,-43 3190,-43 "/>
<text text-anchor="middle" x="3146" y="-32.6" font-family="Times,serif" font-size="8.00">next: 0x60000070a670</text>
<polyline fill="none" stroke="black" points="3102,-26 3190,-26 "/>
<text text-anchor="middle" x="3146" y="-15.6" font-family="Times,serif" font-size="8.00">prev: 0x600000720690</text>
</g>
<!-- Node0x600000720690&#45;&gt;Node0x60000070a1f0 -->
<g id="edge25" class="edge">
<title>Node0x600000720690:n&#45;&gt;Node0x60000070a1f0:n</title>
<path fill="none" stroke="red" d="M3066,-34C3078,-34 3083.25,-34 3091.88,-34"/>
<polygon fill="red" stroke="red" points="3092,-37.5 3102,-34 3092,-30.5 3092,-37.5"/>
</g>
<!-- Node0x60000070a670 -->
<g id="node27" class="node">
<title>Node0x60000070a670</title>
<polygon fill="none" stroke="black" points="3226,-9 3226,-77 3313,-77 3313,-9 3226,-9"/>
<text text-anchor="middle" x="3269.5" y="-66.6" font-family="Times,serif" font-size="8.00">word: Flower</text>
<polyline fill="none" stroke="black" points="3226,-60 3313,-60 "/>
<text text-anchor="middle" x="3269.5" y="-49.6" font-family="Times,serif" font-size="8.00">size: 1</text>
<polyline fill="none" stroke="black" points="3226,-43 3313,-43 "/>
<text text-anchor="middle" x="3269.5" y="-32.6" font-family="Times,serif" font-size="8.00">next: 0x60000070a850</text>
<polyline fill="none" stroke="black" points="3226,-26 3313,-26 "/>
<text text-anchor="middle" x="3269.5" y="-15.6" font-family="Times,serif" font-size="8.00">prev: 0x60000070a1f0</text>
</g>
<!-- Node0x60000070a1f0&#45;&gt;Node0x60000070a670 -->
<g id="edge26" class="edge">
<title>Node0x60000070a1f0:n&#45;&gt;Node0x60000070a670:n</title>
<path fill="none" stroke="red" d="M3190,-34C3202,-34 3207.25,-34 3215.88,-34"/>
<polygon fill="red" stroke="red" points="3216,-37.5 3226,-34 3216,-30.5 3216,-37.5"/>
</g>
<!-- Node0x60000070a850 -->
<g id="node28" class="node">
<title>Node0x60000070a850</title>
<polygon fill="none" stroke="black" points="3349,-9 3349,-77 3437,-77 3437,-9 3349,-9"/>
<text text-anchor="middle" x="3393" y="-66.6" font-family="Times,serif" font-size="8.00">word: Beguil</text>
<polyline fill="none" stroke="black" points="3349,-60 3437,-60 "/>
<text text-anchor="middle" x="3393" y="-49.6" font-family="Times,serif" font-size="8.00">size: 1</text>
<polyline fill="none" stroke="black" points="3349,-43 3437,-43 "/>
<text text-anchor="middle" x="3393" y="-32.6" font-family="Times,serif" font-size="8.00">next: 0x600000724660</text>
<polyline fill="none" stroke="black" points="3349,-26 3437,-26 "/>
<text text-anchor="middle" x="3393" y="-15.6" font-family="Times,serif" font-size="8.00">prev: 0x60000070a670</text>
</g>
<!-- Node0x60000070a670&#45;&gt;Node0x60000070a850 -->
<g id="edge27" class="edge">
<title>Node0x60000070a670:n&#45;&gt;Node0x60000070a850:n</title>
<path fill="none" stroke="red" d="M3313,-34C3325,-34 3330.25,-34 3338.88,-34"/>
<polygon fill="red" stroke="red" points="3339,-37.5 3349,-34 3339,-30.5 3339,-37.5"/>
</g>
<!-- Node0x600000724660 -->
<g id="node29" class="node">
<title>Node0x600000724660</title>
<polygon fill="none" stroke="black" points="3473,-9 3473,-77 3561,-77 3561,-9 3473,-9"/>
<text text-anchor="middle" x="3517" y="-66.6" font-family="Times,serif" font-size="8.00">word: liquid</text>
<polyline fill="none" stroke="black" points="3473,-60 3561,-60 "/>
<text text-anchor="middle" x="3517" y="-49.6" font-family="Times,serif" font-size="8.00">size: 1</text>
<polyline fill="none" stroke="black" points="3473,-43 3561,-43 "/>
<text text-anchor="middle" x="3517" y="-32.6" font-family="Times,serif" font-size="8.00">next: 0x600000725e00</text>
<polyline fill="none" stroke="black" points="3473,-26 3561,-26 "/>
<text text-anchor="middle" x="3517" y="-15.6" font-family="Times,serif" font-size="8.00">prev: 0x60000070a850</text>
</g>
<!-- Node0x60000070a850&#45;&gt;Node0x600000724660 -->
<g id="edge28" class="edge">
<title>Node0x60000070a850:n&#45;&gt;Node0x600000724660:n</title>
<path fill="none" stroke="red" d="M3437,-34C3449,-34 3454.25,-34 3462.88,-34"/>
<polygon fill="red" stroke="red" points="3463,-37.5 3473,-34 3463,-30.5 3463,-37.5"/>
</g>
<!-- Node0x600000725e00 -->
<g id="node30" class="node">
<title>Node0x600000725e00</title>
<polygon fill="none" stroke="black" points="3597,-9 3597,-77 3685,-77 3685,-9 3597,-9"/>
<text text-anchor="middle" x="3641" y="-66.6" font-family="Times,serif" font-size="8.00">word: Depart</text>
<polyline fill="none" stroke="black" points="3597,-60 3685,-60 "/>
<text text-anchor="middle" x="3641" y="-49.6" font-family="Times,serif" font-size="8.00">size: 1</text>
<polyline fill="none" stroke="black" points="3597,-43 3685,-43 "/>
<text text-anchor="middle" x="3641" y="-32.6" font-family="Times,serif" font-size="8.00">next: 0x0</text>
<polyline fill="none" stroke="black" points="3597,-26 3685,-26 "/>
<text text-anchor="middle" x="3641" y="-15.6" font-family="Times,serif" font-size="8.00">prev: 0x600000724660</text>
</g>
<!-- Node0x600000724660&#45;&gt;Node0x600000725e00 -->
<g id="edge29" class="edge">
<title>Node0x600000724660:n&#45;&gt;Node0x600000725e00:n</title>
<path fill="none" stroke="red" d="M3561,-34C3573,-34 3578.25,-34 3586.88,-34"/>
<polygon fill="red" stroke="red" points="3587,-37.5 3597,-34 3587,-30.5 3587,-37.5"/>
</g>
</g>
</svg>
