<?xml version="1.0" encoding="UTF-8" standalone="no"?>
<!DOCTYPE svg PUBLIC "-//W3C//DTD SVG 1.1//EN"
 "http://www.w3.org/Graphics/SVG/1.1/DTD/svg11.dtd">
<!-- Generated by graphviz version 2.50.0 (20211204.2007)
 -->
<!-- Title: G Pages: 1 -->
<svg width="3577pt" height="117pt"
 viewBox="0.00 0.00 3577.00 117.00" xmlns="http://www.w3.org/2000/svg" xmlns:xlink="http://www.w3.org/1999/xlink">
<g id="graph0" class="graph" transform="scale(1 1) rotate(0) translate(4 113)">
<title>G</title>
<polygon fill="white" stroke="transparent" points="-4,4 -4,-113 3573,-113 3573,4 -4,4"/>
<g id="clust1" class="cluster">
<title>cluster4071</title>
<polygon fill="none" stroke="black" points="8,-8 8,-101 95,-101 95,-8 8,-8"/>
<text text-anchor="middle" x="51.5" y="-85.8" font-family="Times,serif" font-size="14.00">4071</text>
</g>
<g id="clust2" class="cluster">
<title>cluster4072</title>
<polygon fill="none" stroke="black" points="131,-8 131,-101 219,-101 219,-8 131,-8"/>
<text text-anchor="middle" x="175" y="-85.8" font-family="Times,serif" font-size="14.00">4072</text>
</g>
<g id="clust3" class="cluster">
<title>cluster4073</title>
<polygon fill="none" stroke="black" points="255,-8 255,-101 343,-101 343,-8 255,-8"/>
<text text-anchor="middle" x="299" y="-85.8" font-family="Times,serif" font-size="14.00">4073</text>
</g>
<g id="clust4" class="cluster">
<title>cluster4074</title>
<polygon fill="none" stroke="black" points="379,-8 379,-101 466,-101 466,-8 379,-8"/>
<text text-anchor="middle" x="422.5" y="-85.8" font-family="Times,serif" font-size="14.00">4074</text>
</g>
<g id="clust5" class="cluster">
<title>cluster4075</title>
<polygon fill="none" stroke="black" points="502,-8 502,-101 590,-101 590,-8 502,-8"/>
<text text-anchor="middle" x="546" y="-85.8" font-family="Times,serif" font-size="14.00">4075</text>
</g>
<g id="clust6" class="cluster">
<title>cluster4076</title>
<polygon fill="none" stroke="black" points="626,-8 626,-101 714,-101 714,-8 626,-8"/>
<text text-anchor="middle" x="670" y="-85.8" font-family="Times,serif" font-size="14.00">4076</text>
</g>
<g id="clust7" class="cluster">
<title>cluster4077</title>
<polygon fill="none" stroke="black" points="750,-8 750,-101 838,-101 838,-8 750,-8"/>
<text text-anchor="middle" x="794" y="-85.8" font-family="Times,serif" font-size="14.00">4077</text>
</g>
<g id="clust8" class="cluster">
<title>cluster4078</title>
<polygon fill="none" stroke="black" points="874,-8 874,-101 962,-101 962,-8 874,-8"/>
<text text-anchor="middle" x="918" y="-85.8" font-family="Times,serif" font-size="14.00">4078</text>
</g>
<g id="clust9" class="cluster">
<title>cluster4079</title>
<polygon fill="none" stroke="black" points="998,-8 998,-101 1086,-101 1086,-8 998,-8"/>
<text text-anchor="middle" x="1042" y="-85.8" font-family="Times,serif" font-size="14.00">4079</text>
</g>
<g id="clust10" class="cluster">
<title>cluster4080</title>
<polygon fill="none" stroke="black" points="1122,-8 1122,-101 1210,-101 1210,-8 1122,-8"/>
<text text-anchor="middle" x="1166" y="-85.8" font-family="Times,serif" font-size="14.00">4080</text>
</g>
<g id="clust11" class="cluster">
<title>cluster4081</title>
<polygon fill="none" stroke="black" points="1246,-8 1246,-101 1333,-101 1333,-8 1246,-8"/>
<text text-anchor="middle" x="1289.5" y="-85.8" font-family="Times,serif" font-size="14.00">4081</text>
</g>
<g id="clust12" class="cluster">
<title>cluster4082</title>
<polygon fill="none" stroke="black" points="1369,-8 1369,-101 1457,-101 1457,-8 1369,-8"/>
<text text-anchor="middle" x="1413" y="-85.8" font-family="Times,serif" font-size="14.00">4082</text>
</g>
<g id="clust13" class="cluster">
<title>cluster4083</title>
<polygon fill="none" stroke="black" points="1493,-8 1493,-101 1581,-101 1581,-8 1493,-8"/>
<text text-anchor="middle" x="1537" y="-85.8" font-family="Times,serif" font-size="14.00">4083</text>
</g>
<g id="clust14" class="cluster">
<title>cluster4084</title>
<polygon fill="none" stroke="black" points="1617,-8 1617,-101 1704,-101 1704,-8 1617,-8"/>
<text text-anchor="middle" x="1660.5" y="-85.8" font-family="Times,serif" font-size="14.00">4084</text>
</g>
<g id="clust15" class="cluster">
<title>cluster4085</title>
<polygon fill="none" stroke="black" points="1740,-8 1740,-101 1828,-101 1828,-8 1740,-8"/>
<text text-anchor="middle" x="1784" y="-85.8" font-family="Times,serif" font-size="14.00">4085</text>
</g>
<g id="clust16" class="cluster">
<title>cluster4086</title>
<polygon fill="none" stroke="black" points="1864,-8 1864,-101 1952,-101 1952,-8 1864,-8"/>
<text text-anchor="middle" x="1908" y="-85.8" font-family="Times,serif" font-size="14.00">4086</text>
</g>
<g id="clust17" class="cluster">
<title>cluster4087</title>
<polygon fill="none" stroke="black" points="1988,-8 1988,-101 2076,-101 2076,-8 1988,-8"/>
<text text-anchor="middle" x="2032" y="-85.8" font-family="Times,serif" font-size="14.00">4087</text>
</g>
<g id="clust18" class="cluster">
<title>cluster4088</title>
<polygon fill="none" stroke="black" points="2112,-8 2112,-101 2200,-101 2200,-8 2112,-8"/>
<text text-anchor="middle" x="2156" y="-85.8" font-family="Times,serif" font-size="14.00">4088</text>
</g>
<g id="clust19" class="cluster">
<title>cluster4089</title>
<polygon fill="none" stroke="black" points="2236,-8 2236,-101 2323,-101 2323,-8 2236,-8"/>
<text text-anchor="middle" x="2279.5" y="-85.8" font-family="Times,serif" font-size="14.00">4089</text>
</g>
<g id="clust20" class="cluster">
<title>cluster4090</title>
<polygon fill="none" stroke="black" points="2359,-8 2359,-101 2446,-101 2446,-8 2359,-8"/>
<text text-anchor="middle" x="2402.5" y="-85.8" font-family="Times,serif" font-size="14.00">4090</text>
</g>
<g id="clust21" class="cluster">
<title>cluster4091</title>
<polygon fill="none" stroke="black" points="2482,-8 2482,-101 2570,-101 2570,-8 2482,-8"/>
<text text-anchor="middle" x="2526" y="-85.8" font-family="Times,serif" font-size="14.00">4091</text>
</g>
<g id="clust22" class="cluster">
<title>cluster4092</title>
<polygon fill="none" stroke="black" points="2606,-8 2606,-101 2694,-101 2694,-8 2606,-8"/>
<text text-anchor="middle" x="2650" y="-85.8" font-family="Times,serif" font-size="14.00">4092</text>
</g>
<g id="clust23" class="cluster">
<title>cluster4093</title>
<polygon fill="none" stroke="black" points="2730,-8 2730,-101 2818,-101 2818,-8 2730,-8"/>
<text text-anchor="middle" x="2774" y="-85.8" font-family="Times,serif" font-size="14.00">4093</text>
</g>
<g id="clust24" class="cluster">
<title>cluster4094</title>
<polygon fill="none" stroke="black" points="2854,-8 2854,-101 2942,-101 2942,-8 2854,-8"/>
<text text-anchor="middle" x="2898" y="-85.8" font-family="Times,serif" font-size="14.00">4094</text>
</g>
<g id="clust25" class="cluster">
<title>cluster4095</title>
<polygon fill="none" stroke="black" points="2978,-8 2978,-101 3066,-101 3066,-8 2978,-8"/>
<text text-anchor="middle" x="3022" y="-85.8" font-family="Times,serif" font-size="14.00">4095</text>
</g>
<g id="clust26" class="cluster">
<title>cluster4096</title>
<polygon fill="none" stroke="black" points="3102,-8 3102,-101 3190,-101 3190,-8 3102,-8"/>
<text text-anchor="middle" x="3146" y="-85.8" font-family="Times,serif" font-size="14.00">4096</text>
</g>
<g id="clust27" class="cluster">
<title>cluster4097</title>
<polygon fill="none" stroke="black" points="3226,-8 3226,-101 3313,-101 3313,-8 3226,-8"/>
<text text-anchor="middle" x="3269.5" y="-85.8" font-family="Times,serif" font-size="14.00">4097</text>
</g>
<g id="clust28" class="cluster">
<title>cluster4098</title>
<polygon fill="none" stroke="black" points="3349,-8 3349,-101 3437,-101 3437,-8 3349,-8"/>
<text text-anchor="middle" x="3393" y="-85.8" font-family="Times,serif" font-size="14.00">4098</text>
</g>
<g id="clust29" class="cluster">
<title>cluster4099</title>
<polygon fill="none" stroke="black" points="3473,-8 3473,-101 3561,-101 3561,-8 3473,-8"/>
<text text-anchor="middle" x="3517" y="-85.8" font-family="Times,serif" font-size="14.00">4099</text>
</g>
<!-- Node0x600001e63300 -->
<g id="node1" class="node">
<title>Node0x600001e63300</title>
<polygon fill="none" stroke="black" points="8,-9 8,-77 95,-77 95,-9 8,-9"/>
<text text-anchor="middle" x="51.5" y="-66.6" font-family="Times,serif" font-size="8.00">word: myself</text>
<polyline fill="none" stroke="black" points="8,-60 95,-60 "/>
<text text-anchor="middle" x="51.5" y="-49.6" font-family="Times,serif" font-size="8.00">size: 14</text>
<polyline fill="none" stroke="black" points="8,-43 95,-43 "/>
<text text-anchor="middle" x="51.5" y="-32.6" font-family="Times,serif" font-size="8.00">next: 0x600001e68360</text>
<polyline fill="none" stroke="black" points="8,-26 95,-26 "/>
<text text-anchor="middle" x="51.5" y="-15.6" font-family="Times,serif" font-size="8.00">prev: 0x0</text>
</g>
<!-- Node0x600001e68360 -->
<g id="node2" class="node">
<title>Node0x600001e68360</title>
<polygon fill="none" stroke="black" points="131,-9 131,-77 219,-77 219,-9 131,-9"/>
<text text-anchor="middle" x="175" y="-66.6" font-family="Times,serif" font-size="8.00">word: blow</text>
<polyline fill="none" stroke="black" points="131,-60 219,-60 "/>
<text text-anchor="middle" x="175" y="-49.6" font-family="Times,serif" font-size="8.00">size: 2</text>
<polyline fill="none" stroke="black" points="131,-43 219,-43 "/>
<text text-anchor="middle" x="175" y="-32.6" font-family="Times,serif" font-size="8.00">next: 0x600001e698f0</text>
<polyline fill="none" stroke="black" points="131,-26 219,-26 "/>
<text text-anchor="middle" x="175" y="-15.6" font-family="Times,serif" font-size="8.00">prev: 0x600001e63300</text>
</g>
<!-- Node0x600001e63300&#45;&gt;Node0x600001e68360 -->
<g id="edge1" class="edge">
<title>Node0x600001e63300:n&#45;&gt;Node0x600001e68360:n</title>
<path fill="none" stroke="red" d="M95,-34C107,-34 112.25,-34 120.88,-34"/>
<polygon fill="red" stroke="red" points="121,-37.5 131,-34 121,-30.5 121,-37.5"/>
</g>
<!-- Node0x600001e698f0 -->
<g id="node3" class="node">
<title>Node0x600001e698f0</title>
<polygon fill="none" stroke="black" points="255,-9 255,-77 343,-77 343,-9 255,-9"/>
<text text-anchor="middle" x="299" y="-66.6" font-family="Times,serif" font-size="8.00">word: beseeming</text>
<polyline fill="none" stroke="black" points="255,-60 343,-60 "/>
<text text-anchor="middle" x="299" y="-49.6" font-family="Times,serif" font-size="8.00">size: 3</text>
<polyline fill="none" stroke="black" points="255,-43 343,-43 "/>
<text text-anchor="middle" x="299" y="-32.6" font-family="Times,serif" font-size="8.00">next: 0x600001e6ccc0</text>
<polyline fill="none" stroke="black" points="255,-26 343,-26 "/>
<text text-anchor="middle" x="299" y="-15.6" font-family="Times,serif" font-size="8.00">prev: 0x600001e68360</text>
</g>
<!-- Node0x600001e68360&#45;&gt;Node0x600001e698f0 -->
<g id="edge2" class="edge">
<title>Node0x600001e68360:n&#45;&gt;Node0x600001e698f0:n</title>
<path fill="none" stroke="red" d="M219,-34C231,-34 236.25,-34 244.88,-34"/>
<polygon fill="red" stroke="red" points="245,-37.5 255,-34 245,-30.5 245,-37.5"/>
</g>
<!-- Node0x600001e6ccc0 -->
<g id="node4" class="node">
<title>Node0x600001e6ccc0</title>
<polygon fill="none" stroke="black" points="379,-9 379,-77 466,-77 466,-9 379,-9"/>
<text text-anchor="middle" x="422.5" y="-66.6" font-family="Times,serif" font-size="8.00">word: Dost</text>
<polyline fill="none" stroke="black" points="379,-60 466,-60 "/>
<text text-anchor="middle" x="422.5" y="-49.6" font-family="Times,serif" font-size="8.00">size: 3</text>
<polyline fill="none" stroke="black" points="379,-43 466,-43 "/>
<text text-anchor="middle" x="422.5" y="-32.6" font-family="Times,serif" font-size="8.00">next: 0x600001e6de90</text>
<polyline fill="none" stroke="black" points="379,-26 466,-26 "/>
<text text-anchor="middle" x="422.5" y="-15.6" font-family="Times,serif" font-size="8.00">prev: 0x600001e698f0</text>
</g>
<!-- Node0x600001e698f0&#45;&gt;Node0x600001e6ccc0 -->
<g id="edge3" class="edge">
<title>Node0x600001e698f0:n&#45;&gt;Node0x600001e6ccc0:n</title>
<path fill="none" stroke="red" d="M343,-34C355,-34 360.25,-34 368.88,-34"/>
<polygon fill="red" stroke="red" points="369,-37.5 379,-34 369,-30.5 369,-37.5"/>
</g>
<!-- Node0x600001e6de90 -->
<g id="node5" class="node">
<title>Node0x600001e6de90</title>
<polygon fill="none" stroke="black" points="502,-9 502,-77 590,-77 590,-9 502,-9"/>
<text text-anchor="middle" x="546" y="-66.6" font-family="Times,serif" font-size="8.00">word: starv</text>
<polyline fill="none" stroke="black" points="502,-60 590,-60 "/>
<text text-anchor="middle" x="546" y="-49.6" font-family="Times,serif" font-size="8.00">size: 1</text>
<polyline fill="none" stroke="black" points="502,-43 590,-43 "/>
<text text-anchor="middle" x="546" y="-32.6" font-family="Times,serif" font-size="8.00">next: 0x600001e6e6d0</text>
<polyline fill="none" stroke="black" points="502,-26 590,-26 "/>
<text text-anchor="middle" x="546" y="-15.6" font-family="Times,serif" font-size="8.00">prev: 0x600001e6ccc0</text>
</g>
<!-- Node0x600001e6ccc0&#45;&gt;Node0x600001e6de90 -->
<g id="edge4" class="edge">
<title>Node0x600001e6ccc0:n&#45;&gt;Node0x600001e6de90:n</title>
<path fill="none" stroke="red" d="M466,-34C478,-34 483.25,-34 491.88,-34"/>
<polygon fill="red" stroke="red" points="492,-37.5 502,-34 492,-30.5 492,-37.5"/>
</g>
<!-- Node0x600001e6e6d0 -->
<g id="node6" class="node">
<title>Node0x600001e6e6d0</title>
<polygon fill="none" stroke="black" points="626,-9 626,-77 714,-77 714,-9 626,-9"/>
<text text-anchor="middle" x="670" y="-66.6" font-family="Times,serif" font-size="8.00">word: doth</text>
<polyline fill="none" stroke="black" points="626,-60 714,-60 "/>
<text text-anchor="middle" x="670" y="-49.6" font-family="Times,serif" font-size="8.00">size: 35</text>
<polyline fill="none" stroke="black" points="626,-43 714,-43 "/>
<text text-anchor="middle" x="670" y="-32.6" font-family="Times,serif" font-size="8.00">next: 0x600001e64120</text>
<polyline fill="none" stroke="black" points="626,-26 714,-26 "/>
<text text-anchor="middle" x="670" y="-15.6" font-family="Times,serif" font-size="8.00">prev: 0x600001e6de90</text>
</g>
<!-- Node0x600001e6de90&#45;&gt;Node0x600001e6e6d0 -->
<g id="edge5" class="edge">
<title>Node0x600001e6de90:n&#45;&gt;Node0x600001e6e6d0:n</title>
<path fill="none" stroke="red" d="M590,-34C602,-34 607.25,-34 615.88,-34"/>
<polygon fill="red" stroke="red" points="616,-37.5 626,-34 616,-30.5 616,-37.5"/>
</g>
<!-- Node0x600001e64120 -->
<g id="node7" class="node">
<title>Node0x600001e64120</title>
<polygon fill="none" stroke="black" points="750,-9 750,-77 838,-77 838,-9 750,-9"/>
<text text-anchor="middle" x="794" y="-66.6" font-family="Times,serif" font-size="8.00">word: unattainted</text>
<polyline fill="none" stroke="black" points="750,-60 838,-60 "/>
<text text-anchor="middle" x="794" y="-49.6" font-family="Times,serif" font-size="8.00">size: 1</text>
<polyline fill="none" stroke="black" points="750,-43 838,-43 "/>
<text text-anchor="middle" x="794" y="-32.6" font-family="Times,serif" font-size="8.00">next: 0x600001e64780</text>
<polyline fill="none" stroke="black" points="750,-26 838,-26 "/>
<text text-anchor="middle" x="794" y="-15.6" font-family="Times,serif" font-size="8.00">prev: 0x600001e6e6d0</text>
</g>
<!-- Node0x600001e6e6d0&#45;&gt;Node0x600001e64120 -->
<g id="edge6" class="edge">
<title>Node0x600001e6e6d0:n&#45;&gt;Node0x600001e64120:n</title>
<path fill="none" stroke="red" d="M714,-34C726,-34 731.25,-34 739.88,-34"/>
<polygon fill="red" stroke="red" points="740,-37.5 750,-34 740,-30.5 740,-37.5"/>
</g>
<!-- Node0x600001e64780 -->
<g id="node8" class="node">
<title>Node0x600001e64780</title>
<polygon fill="none" stroke="black" points="874,-9 874,-77 962,-77 962,-9 874,-9"/>
<text text-anchor="middle" x="918" y="-66.6" font-family="Times,serif" font-size="8.00">word: sight</text>
<polyline fill="none" stroke="black" points="874,-60 962,-60 "/>
<text text-anchor="middle" x="918" y="-49.6" font-family="Times,serif" font-size="8.00">size: 9</text>
<polyline fill="none" stroke="black" points="874,-43 962,-43 "/>
<text text-anchor="middle" x="918" y="-32.6" font-family="Times,serif" font-size="8.00">next: 0x600001e66430</text>
<polyline fill="none" stroke="black" points="874,-26 962,-26 "/>
<text text-anchor="middle" x="918" y="-15.6" font-family="Times,serif" font-size="8.00">prev: 0x600001e64120</text>
</g>
<!-- Node0x600001e64120&#45;&gt;Node0x600001e64780 -->
<g id="edge7" class="edge">
<title>Node0x600001e64120:n&#45;&gt;Node0x600001e64780:n</title>
<path fill="none" stroke="red" d="M838,-34C850,-34 855.25,-34 863.88,-34"/>
<polygon fill="red" stroke="red" points="864,-37.5 874,-34 864,-30.5 864,-37.5"/>
</g>
<!-- Node0x600001e66430 -->
<g id="node9" class="node">
<title>Node0x600001e66430</title>
<polygon fill="none" stroke="black" points="998,-9 998,-77 1086,-77 1086,-9 998,-9"/>
<text text-anchor="middle" x="1042" y="-66.6" font-family="Times,serif" font-size="8.00">word: yourself</text>
<polyline fill="none" stroke="black" points="998,-60 1086,-60 "/>
<text text-anchor="middle" x="1042" y="-49.6" font-family="Times,serif" font-size="8.00">size: 5</text>
<polyline fill="none" stroke="black" points="998,-43 1086,-43 "/>
<text text-anchor="middle" x="1042" y="-32.6" font-family="Times,serif" font-size="8.00">next: 0x600001e66f70</text>
<polyline fill="none" stroke="black" points="998,-26 1086,-26 "/>
<text text-anchor="middle" x="1042" y="-15.6" font-family="Times,serif" font-size="8.00">prev: 0x600001e64780</text>
</g>
<!-- Node0x600001e64780&#45;&gt;Node0x600001e66430 -->
<g id="edge8" class="edge">
<title>Node0x600001e64780:n&#45;&gt;Node0x600001e66430:n</title>
<path fill="none" stroke="red" d="M962,-34C974,-34 979.25,-34 987.88,-34"/>
<polygon fill="red" stroke="red" points="988,-37.5 998,-34 988,-30.5 988,-37.5"/>
</g>
<!-- Node0x600001e66f70 -->
<g id="node10" class="node">
<title>Node0x600001e66f70</title>
<polygon fill="none" stroke="black" points="1122,-9 1122,-77 1210,-77 1210,-9 1122,-9"/>
<text text-anchor="middle" x="1166" y="-66.6" font-family="Times,serif" font-size="8.00">word: Borrow</text>
<polyline fill="none" stroke="black" points="1122,-60 1210,-60 "/>
<text text-anchor="middle" x="1166" y="-49.6" font-family="Times,serif" font-size="8.00">size: 1</text>
<polyline fill="none" stroke="black" points="1122,-43 1210,-43 "/>
<text text-anchor="middle" x="1166" y="-32.6" font-family="Times,serif" font-size="8.00">next: 0x600001e67210</text>
<polyline fill="none" stroke="black" points="1122,-26 1210,-26 "/>
<text text-anchor="middle" x="1166" y="-15.6" font-family="Times,serif" font-size="8.00">prev: 0x600001e66430</text>
</g>
<!-- Node0x600001e66430&#45;&gt;Node0x600001e66f70 -->
<g id="edge9" class="edge">
<title>Node0x600001e66430:n&#45;&gt;Node0x600001e66f70:n</title>
<path fill="none" stroke="red" d="M1086,-34C1098,-34 1103.25,-34 1111.88,-34"/>
<polygon fill="red" stroke="red" points="1112,-37.5 1122,-34 1112,-30.5 1112,-37.5"/>
</g>
<!-- Node0x600001e67210 -->
<g id="node11" class="node">
<title>Node0x600001e67210</title>
<polygon fill="none" stroke="black" points="1246,-9 1246,-77 1333,-77 1333,-9 1246,-9"/>
<text text-anchor="middle" x="1289.5" y="-66.6" font-family="Times,serif" font-size="8.00">word: Too</text>
<polyline fill="none" stroke="black" points="1246,-60 1333,-60 "/>
<text text-anchor="middle" x="1289.5" y="-49.6" font-family="Times,serif" font-size="8.00">size: 7</text>
<polyline fill="none" stroke="black" points="1246,-43 1333,-43 "/>
<text text-anchor="middle" x="1289.5" y="-32.6" font-family="Times,serif" font-size="8.00">next: 0x600001e76100</text>
<polyline fill="none" stroke="black" points="1246,-26 1333,-26 "/>
<text text-anchor="middle" x="1289.5" y="-15.6" font-family="Times,serif" font-size="8.00">prev: 0x600001e66f70</text>
</g>
<!-- Node0x600001e66f70&#45;&gt;Node0x600001e67210 -->
<g id="edge10" class="edge">
<title>Node0x600001e66f70:n&#45;&gt;Node0x600001e67210:n</title>
<path fill="none" stroke="red" d="M1210,-34C1222,-34 1227.25,-34 1235.88,-34"/>
<polygon fill="red" stroke="red" points="1236,-37.5 1246,-34 1236,-30.5 1236,-37.5"/>
</g>
<!-- Node0x600001e76100 -->
<g id="node12" class="node">
<title>Node0x600001e76100</title>
<polygon fill="none" stroke="black" points="1369,-9 1369,-77 1457,-77 1457,-9 1369,-9"/>
<text text-anchor="middle" x="1413" y="-66.6" font-family="Times,serif" font-size="8.00">word: corns</text>
<polyline fill="none" stroke="black" points="1369,-60 1457,-60 "/>
<text text-anchor="middle" x="1413" y="-49.6" font-family="Times,serif" font-size="8.00">size: 2</text>
<polyline fill="none" stroke="black" points="1369,-43 1457,-43 "/>
<text text-anchor="middle" x="1413" y="-32.6" font-family="Times,serif" font-size="8.00">next: 0x600001e773f0</text>
<polyline fill="none" stroke="black" points="1369,-26 1457,-26 "/>
<text text-anchor="middle" x="1413" y="-15.6" font-family="Times,serif" font-size="8.00">prev: 0x600001e67210</text>
</g>
<!-- Node0x600001e67210&#45;&gt;Node0x600001e76100 -->
<g id="edge11" class="edge">
<title>Node0x600001e67210:n&#45;&gt;Node0x600001e76100:n</title>
<path fill="none" stroke="red" d="M1333,-34C1345,-34 1350.25,-34 1358.88,-34"/>
<polygon fill="red" stroke="red" points="1359,-37.5 1369,-34 1359,-30.5 1359,-37.5"/>
</g>
<!-- Node0x600001e773f0 -->
<g id="node13" class="node">
<title>Node0x600001e773f0</title>
<polygon fill="none" stroke="black" points="1493,-9 1493,-77 1581,-77 1581,-9 1493,-9"/>
<text text-anchor="middle" x="1537" y="-66.6" font-family="Times,serif" font-size="8.00">word: scathe</text>
<polyline fill="none" stroke="black" points="1493,-60 1581,-60 "/>
<text text-anchor="middle" x="1537" y="-49.6" font-family="Times,serif" font-size="8.00">size: 1</text>
<polyline fill="none" stroke="black" points="1493,-43 1581,-43 "/>
<text text-anchor="middle" x="1537" y="-32.6" font-family="Times,serif" font-size="8.00">next: 0x600001e7c450</text>
<polyline fill="none" stroke="black" points="1493,-26 1581,-26 "/>
<text text-anchor="middle" x="1537" y="-15.6" font-family="Times,serif" font-size="8.00">prev: 0x600001e76100</text>
</g>
<!-- Node0x600001e76100&#45;&gt;Node0x600001e773f0 -->
<g id="edge12" class="edge">
<title>Node0x600001e76100:n&#45;&gt;Node0x600001e773f0:n</title>
<path fill="none" stroke="red" d="M1457,-34C1469,-34 1474.25,-34 1482.88,-34"/>
<polygon fill="red" stroke="red" points="1483,-37.5 1493,-34 1483,-30.5 1483,-37.5"/>
</g>
<!-- Node0x600001e7c450 -->
<g id="node14" class="node">
<title>Node0x600001e7c450</title>
<polygon fill="none" stroke="black" points="1617,-9 1617,-77 1704,-77 1704,-9 1617,-9"/>
<text text-anchor="middle" x="1660.5" y="-66.6" font-family="Times,serif" font-size="8.00">word: appear</text>
<polyline fill="none" stroke="black" points="1617,-60 1704,-60 "/>
<text text-anchor="middle" x="1660.5" y="-49.6" font-family="Times,serif" font-size="8.00">size: 2</text>
<polyline fill="none" stroke="black" points="1617,-43 1704,-43 "/>
<text text-anchor="middle" x="1660.5" y="-32.6" font-family="Times,serif" font-size="8.00">next: 0x600001e7e160</text>
<polyline fill="none" stroke="black" points="1617,-26 1704,-26 "/>
<text text-anchor="middle" x="1660.5" y="-15.6" font-family="Times,serif" font-size="8.00">prev: 0x600001e773f0</text>
</g>
<!-- Node0x600001e773f0&#45;&gt;Node0x600001e7c450 -->
<g id="edge13" class="edge">
<title>Node0x600001e773f0:n&#45;&gt;Node0x600001e7c450:n</title>
<path fill="none" stroke="red" d="M1581,-34C1593,-34 1598.25,-34 1606.88,-34"/>
<polygon fill="red" stroke="red" points="1607,-37.5 1617,-34 1607,-30.5 1607,-37.5"/>
</g>
<!-- Node0x600001e7e160 -->
<g id="node15" class="node">
<title>Node0x600001e7e160</title>
<polygon fill="none" stroke="black" points="1740,-9 1740,-77 1828,-77 1828,-9 1740,-9"/>
<text text-anchor="middle" x="1784" y="-66.6" font-family="Times,serif" font-size="8.00">word: fond</text>
<polyline fill="none" stroke="black" points="1740,-60 1828,-60 "/>
<text text-anchor="middle" x="1784" y="-49.6" font-family="Times,serif" font-size="8.00">size: 3</text>
<polyline fill="none" stroke="black" points="1740,-43 1828,-43 "/>
<text text-anchor="middle" x="1784" y="-32.6" font-family="Times,serif" font-size="8.00">next: 0x600001e40180</text>
<polyline fill="none" stroke="black" points="1740,-26 1828,-26 "/>
<text text-anchor="middle" x="1784" y="-15.6" font-family="Times,serif" font-size="8.00">prev: 0x600001e7c450</text>
</g>
<!-- Node0x600001e7c450&#45;&gt;Node0x600001e7e160 -->
<g id="edge14" class="edge">
<title>Node0x600001e7c450:n&#45;&gt;Node0x600001e7e160:n</title>
<path fill="none" stroke="red" d="M1704,-34C1716,-34 1721.25,-34 1729.88,-34"/>
<polygon fill="red" stroke="red" points="1730,-37.5 1740,-34 1730,-30.5 1730,-37.5"/>
</g>
<!-- Node0x600001e40180 -->
<g id="node16" class="node">
<title>Node0x600001e40180</title>
<polygon fill="none" stroke="black" points="1864,-9 1864,-77 1952,-77 1952,-9 1864,-9"/>
<text text-anchor="middle" x="1908" y="-66.6" font-family="Times,serif" font-size="8.00">word: action</text>
<polyline fill="none" stroke="black" points="1864,-60 1952,-60 "/>
<text text-anchor="middle" x="1908" y="-49.6" font-family="Times,serif" font-size="8.00">size: 1</text>
<polyline fill="none" stroke="black" points="1864,-43 1952,-43 "/>
<text text-anchor="middle" x="1908" y="-32.6" font-family="Times,serif" font-size="8.00">next: 0x600001e42430</text>
<polyline fill="none" stroke="black" points="1864,-26 1952,-26 "/>
<text text-anchor="middle" x="1908" y="-15.6" font-family="Times,serif" font-size="8.00">prev: 0x600001e7e160</text>
</g>
<!-- Node0x600001e7e160&#45;&gt;Node0x600001e40180 -->
<g id="edge15" class="edge">
<title>Node0x600001e7e160:n&#45;&gt;Node0x600001e40180:n</title>
<path fill="none" stroke="red" d="M1828,-34C1840,-34 1845.25,-34 1853.88,-34"/>
<polygon fill="red" stroke="red" points="1854,-37.5 1864,-34 1854,-30.5 1854,-37.5"/>
</g>
<!-- Node0x600001e42430 -->
<g id="node17" class="node">
<title>Node0x600001e42430</title>
<polygon fill="none" stroke="black" points="1988,-9 1988,-77 2076,-77 2076,-9 1988,-9"/>
<text text-anchor="middle" x="2032" y="-66.6" font-family="Times,serif" font-size="8.00">word: constrains</text>
<polyline fill="none" stroke="black" points="1988,-60 2076,-60 "/>
<text text-anchor="middle" x="2032" y="-49.6" font-family="Times,serif" font-size="8.00">size: 1</text>
<polyline fill="none" stroke="black" points="1988,-43 2076,-43 "/>
<text text-anchor="middle" x="2032" y="-32.6" font-family="Times,serif" font-size="8.00">next: 0x600001e42f70</text>
<polyline fill="none" stroke="black" points="1988,-26 2076,-26 "/>
<text text-anchor="middle" x="2032" y="-15.6" font-family="Times,serif" font-size="8.00">prev: 0x600001e40180</text>
</g>
<!-- Node0x600001e40180&#45;&gt;Node0x600001e42430 -->
<g id="edge16" class="edge">
<title>Node0x600001e40180:n&#45;&gt;Node0x600001e42430:n</title>
<path fill="none" stroke="red" d="M1952,-34C1964,-34 1969.25,-34 1977.88,-34"/>
<polygon fill="red" stroke="red" points="1978,-37.5 1988,-34 1978,-30.5 1978,-37.5"/>
</g>
<!-- Node0x600001e42f70 -->
<g id="node18" class="node">
<title>Node0x600001e42f70</title>
<polygon fill="none" stroke="black" points="2112,-9 2112,-77 2200,-77 2200,-9 2112,-9"/>
<text text-anchor="middle" x="2156" y="-66.6" font-family="Times,serif" font-size="8.00">word: goodly</text>
<polyline fill="none" stroke="black" points="2112,-60 2200,-60 "/>
<text text-anchor="middle" x="2156" y="-49.6" font-family="Times,serif" font-size="8.00">size: 1</text>
<polyline fill="none" stroke="black" points="2112,-43 2200,-43 "/>
<text text-anchor="middle" x="2156" y="-32.6" font-family="Times,serif" font-size="8.00">next: 0x600001e46f70</text>
<polyline fill="none" stroke="black" points="2112,-26 2200,-26 "/>
<text text-anchor="middle" x="2156" y="-15.6" font-family="Times,serif" font-size="8.00">prev: 0x600001e42430</text>
</g>
<!-- Node0x600001e42430&#45;&gt;Node0x600001e42f70 -->
<g id="edge17" class="edge">
<title>Node0x600001e42430:n&#45;&gt;Node0x600001e42f70:n</title>
<path fill="none" stroke="red" d="M2076,-34C2088,-34 2093.25,-34 2101.88,-34"/>
<polygon fill="red" stroke="red" points="2102,-37.5 2112,-34 2102,-30.5 2102,-37.5"/>
</g>
<!-- Node0x600001e46f70 -->
<g id="node19" class="node">
<title>Node0x600001e46f70</title>
<polygon fill="none" stroke="black" points="2236,-9 2236,-77 2323,-77 2323,-9 2236,-9"/>
<text text-anchor="middle" x="2279.5" y="-66.6" font-family="Times,serif" font-size="8.00">word: slander</text>
<polyline fill="none" stroke="black" points="2236,-60 2323,-60 "/>
<text text-anchor="middle" x="2279.5" y="-49.6" font-family="Times,serif" font-size="8.00">size: 2</text>
<polyline fill="none" stroke="black" points="2236,-43 2323,-43 "/>
<text text-anchor="middle" x="2279.5" y="-32.6" font-family="Times,serif" font-size="8.00">next: 0x600001e4bc60</text>
<polyline fill="none" stroke="black" points="2236,-26 2323,-26 "/>
<text text-anchor="middle" x="2279.5" y="-15.6" font-family="Times,serif" font-size="8.00">prev: 0x600001e42f70</text>
</g>
<!-- Node0x600001e42f70&#45;&gt;Node0x600001e46f70 -->
<g id="edge18" class="edge">
<title>Node0x600001e42f70:n&#45;&gt;Node0x600001e46f70:n</title>
<path fill="none" stroke="red" d="M2200,-34C2212,-34 2217.25,-34 2225.88,-34"/>
<polygon fill="red" stroke="red" points="2226,-37.5 2236,-34 2226,-30.5 2226,-37.5"/>
</g>
<!-- Node0x600001e4bc60 -->
<g id="node20" class="node">
<title>Node0x600001e4bc60</title>
<polygon fill="none" stroke="black" points="2359,-9 2359,-77 2446,-77 2446,-9 2359,-9"/>
<text text-anchor="middle" x="2402.5" y="-66.6" font-family="Times,serif" font-size="8.00">word: Night</text>
<polyline fill="none" stroke="black" points="2359,-60 2446,-60 "/>
<text text-anchor="middle" x="2402.5" y="-49.6" font-family="Times,serif" font-size="8.00">size: 1</text>
<polyline fill="none" stroke="black" points="2359,-43 2446,-43 "/>
<text text-anchor="middle" x="2402.5" y="-32.6" font-family="Times,serif" font-size="8.00">next: 0x600001e4bd80</text>
<polyline fill="none" stroke="black" points="2359,-26 2446,-26 "/>
<text text-anchor="middle" x="2402.5" y="-15.6" font-family="Times,serif" font-size="8.00">prev: 0x600001e46f70</text>
</g>
<!-- Node0x600001e46f70&#45;&gt;Node0x600001e4bc60 -->
<g id="edge19" class="edge">
<title>Node0x600001e46f70:n&#45;&gt;Node0x600001e4bc60:n</title>
<path fill="none" stroke="red" d="M2323,-34C2335,-34 2340.25,-34 2348.88,-34"/>
<polygon fill="red" stroke="red" points="2349,-37.5 2359,-34 2349,-30.5 2349,-37.5"/>
</g>
<!-- Node0x600001e4bd80 -->
<g id="node21" class="node">
<title>Node0x600001e4bd80</title>
<polygon fill="none" stroke="black" points="2482,-9 2482,-77 2570,-77 2570,-9 2482,-9"/>
<text text-anchor="middle" x="2526" y="-66.6" font-family="Times,serif" font-size="8.00">word: mountain</text>
<polyline fill="none" stroke="black" points="2482,-60 2570,-60 "/>
<text text-anchor="middle" x="2526" y="-49.6" font-family="Times,serif" font-size="8.00">size: 1</text>
<polyline fill="none" stroke="black" points="2482,-43 2570,-43 "/>
<text text-anchor="middle" x="2526" y="-32.6" font-family="Times,serif" font-size="8.00">next: 0x600001e4c840</text>
<polyline fill="none" stroke="black" points="2482,-26 2570,-26 "/>
<text text-anchor="middle" x="2526" y="-15.6" font-family="Times,serif" font-size="8.00">prev: 0x600001e4bc60</text>
</g>
<!-- Node0x600001e4bc60&#45;&gt;Node0x600001e4bd80 -->
<g id="edge20" class="edge">
<title>Node0x600001e4bc60:n&#45;&gt;Node0x600001e4bd80:n</title>
<path fill="none" stroke="red" d="M2446,-34C2458,-34 2463.25,-34 2471.88,-34"/>
<polygon fill="red" stroke="red" points="2472,-37.5 2482,-34 2472,-30.5 2472,-37.5"/>
</g>
<!-- Node0x600001e4c840 -->
<g id="node22" class="node">
<title>Node0x600001e4c840</title>
<polygon fill="none" stroke="black" points="2606,-9 2606,-77 2694,-77 2694,-9 2606,-9"/>
<text text-anchor="middle" x="2650" y="-66.6" font-family="Times,serif" font-size="8.00">word: vengeance</text>
<polyline fill="none" stroke="black" points="2606,-60 2694,-60 "/>
<text text-anchor="middle" x="2650" y="-49.6" font-family="Times,serif" font-size="8.00">size: 2</text>
<polyline fill="none" stroke="black" points="2606,-43 2694,-43 "/>
<text text-anchor="middle" x="2650" y="-32.6" font-family="Times,serif" font-size="8.00">next: 0x600001e4c8d0</text>
<polyline fill="none" stroke="black" points="2606,-26 2694,-26 "/>
<text text-anchor="middle" x="2650" y="-15.6" font-family="Times,serif" font-size="8.00">prev: 0x600001e4bd80</text>
</g>
<!-- Node0x600001e4bd80&#45;&gt;Node0x600001e4c840 -->
<g id="edge21" class="edge">
<title>Node0x600001e4bd80:n&#45;&gt;Node0x600001e4c840:n</title>
<path fill="none" stroke="red" d="M2570,-34C2582,-34 2587.25,-34 2595.88,-34"/>
<polygon fill="red" stroke="red" points="2596,-37.5 2606,-34 2596,-30.5 2596,-37.5"/>
</g>
<!-- Node0x600001e4c8d0 -->
<g id="node23" class="node">
<title>Node0x600001e4c8d0</title>
<polygon fill="none" stroke="black" points="2730,-9 2730,-77 2818,-77 2818,-9 2730,-9"/>
<text text-anchor="middle" x="2774" y="-66.6" font-family="Times,serif" font-size="8.00">word: receipt</text>
<polyline fill="none" stroke="black" points="2730,-60 2818,-60 "/>
<text text-anchor="middle" x="2774" y="-49.6" font-family="Times,serif" font-size="8.00">size: 1</text>
<polyline fill="none" stroke="black" points="2730,-43 2818,-43 "/>
<text text-anchor="middle" x="2774" y="-32.6" font-family="Times,serif" font-size="8.00">next: 0x600001e79290</text>
<polyline fill="none" stroke="black" points="2730,-26 2818,-26 "/>
<text text-anchor="middle" x="2774" y="-15.6" font-family="Times,serif" font-size="8.00">prev: 0x600001e4c840</text>
</g>
<!-- Node0x600001e4c840&#45;&gt;Node0x600001e4c8d0 -->
<g id="edge22" class="edge">
<title>Node0x600001e4c840:n&#45;&gt;Node0x600001e4c8d0:n</title>
<path fill="none" stroke="red" d="M2694,-34C2706,-34 2711.25,-34 2719.88,-34"/>
<polygon fill="red" stroke="red" points="2720,-37.5 2730,-34 2720,-30.5 2720,-37.5"/>
</g>
<!-- Node0x600001e79290 -->
<g id="node24" class="node">
<title>Node0x600001e79290</title>
<polygon fill="none" stroke="black" points="2854,-9 2854,-77 2942,-77 2942,-9 2854,-9"/>
<text text-anchor="middle" x="2898" y="-66.6" font-family="Times,serif" font-size="8.00">word: cop</text>
<polyline fill="none" stroke="black" points="2854,-60 2942,-60 "/>
<text text-anchor="middle" x="2898" y="-49.6" font-family="Times,serif" font-size="8.00">size: 1</text>
<polyline fill="none" stroke="black" points="2854,-43 2942,-43 "/>
<text text-anchor="middle" x="2898" y="-32.6" font-family="Times,serif" font-size="8.00">next: 0x600001e7b000</text>
<polyline fill="none" stroke="black" points="2854,-26 2942,-26 "/>
<text text-anchor="middle" x="2898" y="-15.6" font-family="Times,serif" font-size="8.00">prev: 0x600001e4c8d0</text>
</g>
<!-- Node0x600001e4c8d0&#45;&gt;Node0x600001e79290 -->
<g id="edge23" class="edge">
<title>Node0x600001e4c8d0:n&#45;&gt;Node0x600001e79290:n</title>
<path fill="none" stroke="red" d="M2818,-34C2830,-34 2835.25,-34 2843.88,-34"/>
<polygon fill="red" stroke="red" points="2844,-37.5 2854,-34 2844,-30.5 2844,-37.5"/>
</g>
<!-- Node0x600001e7b000 -->
<g id="node25" class="node">
<title>Node0x600001e7b000</title>
<polygon fill="none" stroke="black" points="2978,-9 2978,-77 3066,-77 3066,-9 2978,-9"/>
<text text-anchor="middle" x="3022" y="-66.6" font-family="Times,serif" font-size="8.00">word: quinces</text>
<polyline fill="none" stroke="black" points="2978,-60 3066,-60 "/>
<text text-anchor="middle" x="3022" y="-49.6" font-family="Times,serif" font-size="8.00">size: 1</text>
<polyline fill="none" stroke="black" points="2978,-43 3066,-43 "/>
<text text-anchor="middle" x="3022" y="-32.6" font-family="Times,serif" font-size="8.00">next: 0x600001e73f60</text>
<polyline fill="none" stroke="black" points="2978,-26 3066,-26 "/>
<text text-anchor="middle" x="3022" y="-15.6" font-family="Times,serif" font-size="8.00">prev: 0x600001e79290</text>
</g>
<!-- Node0x600001e79290&#45;&gt;Node0x600001e7b000 -->
<g id="edge24" class="edge">
<title>Node0x600001e79290:n&#45;&gt;Node0x600001e7b000:n</title>
<path fill="none" stroke="red" d="M2942,-34C2954,-34 2959.25,-34 2967.88,-34"/>
<polygon fill="red" stroke="red" points="2968,-37.5 2978,-34 2968,-30.5 2968,-37.5"/>
</g>
<!-- Node0x600001e73f60 -->
<g id="node26" class="node">
<title>Node0x600001e73f60</title>
<polygon fill="none" stroke="black" points="3102,-9 3102,-77 3190,-77 3190,-9 3102,-9"/>
<text text-anchor="middle" x="3146" y="-66.6" font-family="Times,serif" font-size="8.00">word: Remnants</text>
<polyline fill="none" stroke="black" points="3102,-60 3190,-60 "/>
<text text-anchor="middle" x="3146" y="-49.6" font-family="Times,serif" font-size="8.00">size: 1</text>
<polyline fill="none" stroke="black" points="3102,-43 3190,-43 "/>
<text text-anchor="middle" x="3146" y="-32.6" font-family="Times,serif" font-size="8.00">next: 0x600001e50030</text>
<polyline fill="none" stroke="black" points="3102,-26 3190,-26 "/>
<text text-anchor="middle" x="3146" y="-15.6" font-family="Times,serif" font-size="8.00">prev: 0x600001e7b000</text>
</g>
<!-- Node0x600001e7b000&#45;&gt;Node0x600001e73f60 -->
<g id="edge25" class="edge">
<title>Node0x600001e7b000:n&#45;&gt;Node0x600001e73f60:n</title>
<path fill="none" stroke="red" d="M3066,-34C3078,-34 3083.25,-34 3091.88,-34"/>
<polygon fill="red" stroke="red" points="3092,-37.5 3102,-34 3092,-30.5 3092,-37.5"/>
</g>
<!-- Node0x600001e50030 -->
<g id="node27" class="node">
<title>Node0x600001e50030</title>
<polygon fill="none" stroke="black" points="3226,-9 3226,-77 3313,-77 3313,-9 3226,-9"/>
<text text-anchor="middle" x="3269.5" y="-66.6" font-family="Times,serif" font-size="8.00">word: scattered</text>
<polyline fill="none" stroke="black" points="3226,-60 3313,-60 "/>
<text text-anchor="middle" x="3269.5" y="-49.6" font-family="Times,serif" font-size="8.00">size: 1</text>
<polyline fill="none" stroke="black" points="3226,-43 3313,-43 "/>
<text text-anchor="middle" x="3269.5" y="-32.6" font-family="Times,serif" font-size="8.00">next: 0x600001e54a50</text>
<polyline fill="none" stroke="black" points="3226,-26 3313,-26 "/>
<text text-anchor="middle" x="3269.5" y="-15.6" font-family="Times,serif" font-size="8.00">prev: 0x600001e73f60</text>
</g>
<!-- Node0x600001e73f60&#45;&gt;Node0x600001e50030 -->
<g id="edge26" class="edge">
<title>Node0x600001e73f60:n&#45;&gt;Node0x600001e50030:n</title>
<path fill="none" stroke="red" d="M3190,-34C3202,-34 3207.25,-34 3215.88,-34"/>
<polygon fill="red" stroke="red" points="3216,-37.5 3226,-34 3216,-30.5 3216,-37.5"/>
</g>
<!-- Node0x600001e54a50 -->
<g id="node28" class="node">
<title>Node0x600001e54a50</title>
<polygon fill="none" stroke="black" points="3349,-9 3349,-77 3437,-77 3437,-9 3349,-9"/>
<text text-anchor="middle" x="3393" y="-66.6" font-family="Times,serif" font-size="8.00">word: advanced</text>
<polyline fill="none" stroke="black" points="3349,-60 3437,-60 "/>
<text text-anchor="middle" x="3393" y="-49.6" font-family="Times,serif" font-size="8.00">size: 1</text>
<polyline fill="none" stroke="black" points="3349,-43 3437,-43 "/>
<text text-anchor="middle" x="3393" y="-32.6" font-family="Times,serif" font-size="8.00">next: 0x600001e55d10</text>
<polyline fill="none" stroke="black" points="3349,-26 3437,-26 "/>
<text text-anchor="middle" x="3393" y="-15.6" font-family="Times,serif" font-size="8.00">prev: 0x600001e50030</text>
</g>
<!-- Node0x600001e50030&#45;&gt;Node0x600001e54a50 -->
<g id="edge27" class="edge">
<title>Node0x600001e50030:n&#45;&gt;Node0x600001e54a50:n</title>
<path fill="none" stroke="red" d="M3313,-34C3325,-34 3330.25,-34 3338.88,-34"/>
<polygon fill="red" stroke="red" points="3339,-37.5 3349,-34 3339,-30.5 3339,-37.5"/>
</g>
<!-- Node0x600001e55d10 -->
<g id="node29" class="node">
<title>Node0x600001e55d10</title>
<polygon fill="none" stroke="black" points="3473,-9 3473,-77 3561,-77 3561,-9 3473,-9"/>
<text text-anchor="middle" x="3517" y="-66.6" font-family="Times,serif" font-size="8.00">word: Grief</text>
<polyline fill="none" stroke="black" points="3473,-60 3561,-60 "/>
<text text-anchor="middle" x="3517" y="-49.6" font-family="Times,serif" font-size="8.00">size: 1</text>
<polyline fill="none" stroke="black" points="3473,-43 3561,-43 "/>
<text text-anchor="middle" x="3517" y="-32.6" font-family="Times,serif" font-size="8.00">next: 0x0</text>
<polyline fill="none" stroke="black" points="3473,-26 3561,-26 "/>
<text text-anchor="middle" x="3517" y="-15.6" font-family="Times,serif" font-size="8.00">prev: 0x600001e54a50</text>
</g>
<!-- Node0x600001e54a50&#45;&gt;Node0x600001e55d10 -->
<g id="edge28" class="edge">
<title>Node0x600001e54a50:n&#45;&gt;Node0x600001e55d10:n</title>
<path fill="none" stroke="red" d="M3437,-34C3449,-34 3454.25,-34 3462.88,-34"/>
<polygon fill="red" stroke="red" points="3463,-37.5 3473,-34 3463,-30.5 3463,-37.5"/>
</g>
</g>
</svg>
