<?xml version="1.0" encoding="UTF-8" standalone="no"?>
<!DOCTYPE svg PUBLIC "-//W3C//DTD SVG 1.1//EN"
 "http://www.w3.org/Graphics/SVG/1.1/DTD/svg11.dtd">
<!-- Generated by graphviz version 2.50.0 (20211204.2007)
 -->
<!-- Title: G Pages: 1 -->
<svg width="4338pt" height="117pt"
 viewBox="0.00 0.00 4338.00 117.00" xmlns="http://www.w3.org/2000/svg" xmlns:xlink="http://www.w3.org/1999/xlink">
<g id="graph0" class="graph" transform="scale(1 1) rotate(0) translate(4 113)">
<title>G</title>
<polygon fill="white" stroke="transparent" points="-4,4 -4,-113 4334,-113 4334,4 -4,4"/>
<g id="clust1" class="cluster">
<title>cluster3581</title>
<polygon fill="none" stroke="black" points="8,-8 8,-101 95,-101 95,-8 8,-8"/>
<text text-anchor="middle" x="51.5" y="-85.8" font-family="Times,serif" font-size="14.00">3581</text>
</g>
<g id="clust2" class="cluster">
<title>cluster3582</title>
<polygon fill="none" stroke="black" points="131,-8 131,-101 219,-101 219,-8 131,-8"/>
<text text-anchor="middle" x="175" y="-85.8" font-family="Times,serif" font-size="14.00">3582</text>
</g>
<g id="clust3" class="cluster">
<title>cluster3583</title>
<polygon fill="none" stroke="black" points="255,-8 255,-101 343,-101 343,-8 255,-8"/>
<text text-anchor="middle" x="299" y="-85.8" font-family="Times,serif" font-size="14.00">3583</text>
</g>
<g id="clust4" class="cluster">
<title>cluster3584</title>
<polygon fill="none" stroke="black" points="379,-8 379,-101 467,-101 467,-8 379,-8"/>
<text text-anchor="middle" x="423" y="-85.8" font-family="Times,serif" font-size="14.00">3584</text>
</g>
<g id="clust5" class="cluster">
<title>cluster3585</title>
<polygon fill="none" stroke="black" points="503,-8 503,-101 591,-101 591,-8 503,-8"/>
<text text-anchor="middle" x="547" y="-85.8" font-family="Times,serif" font-size="14.00">3585</text>
</g>
<g id="clust6" class="cluster">
<title>cluster3586</title>
<polygon fill="none" stroke="black" points="627,-8 627,-101 718,-101 718,-8 627,-8"/>
<text text-anchor="middle" x="672.5" y="-85.8" font-family="Times,serif" font-size="14.00">3586</text>
</g>
<g id="clust7" class="cluster">
<title>cluster3587</title>
<polygon fill="none" stroke="black" points="754,-8 754,-101 842,-101 842,-8 754,-8"/>
<text text-anchor="middle" x="798" y="-85.8" font-family="Times,serif" font-size="14.00">3587</text>
</g>
<g id="clust8" class="cluster">
<title>cluster3588</title>
<polygon fill="none" stroke="black" points="878,-8 878,-101 966,-101 966,-8 878,-8"/>
<text text-anchor="middle" x="922" y="-85.8" font-family="Times,serif" font-size="14.00">3588</text>
</g>
<g id="clust9" class="cluster">
<title>cluster3589</title>
<polygon fill="none" stroke="black" points="1002,-8 1002,-101 1090,-101 1090,-8 1002,-8"/>
<text text-anchor="middle" x="1046" y="-85.8" font-family="Times,serif" font-size="14.00">3589</text>
</g>
<g id="clust10" class="cluster">
<title>cluster3590</title>
<polygon fill="none" stroke="black" points="1126,-8 1126,-101 1214,-101 1214,-8 1126,-8"/>
<text text-anchor="middle" x="1170" y="-85.8" font-family="Times,serif" font-size="14.00">3590</text>
</g>
<g id="clust11" class="cluster">
<title>cluster3591</title>
<polygon fill="none" stroke="black" points="1250,-8 1250,-101 1338,-101 1338,-8 1250,-8"/>
<text text-anchor="middle" x="1294" y="-85.8" font-family="Times,serif" font-size="14.00">3591</text>
</g>
<g id="clust12" class="cluster">
<title>cluster3592</title>
<polygon fill="none" stroke="black" points="1374,-8 1374,-101 1462,-101 1462,-8 1374,-8"/>
<text text-anchor="middle" x="1418" y="-85.8" font-family="Times,serif" font-size="14.00">3592</text>
</g>
<g id="clust13" class="cluster">
<title>cluster3593</title>
<polygon fill="none" stroke="black" points="1498,-8 1498,-101 1586,-101 1586,-8 1498,-8"/>
<text text-anchor="middle" x="1542" y="-85.8" font-family="Times,serif" font-size="14.00">3593</text>
</g>
<g id="clust14" class="cluster">
<title>cluster3594</title>
<polygon fill="none" stroke="black" points="1622,-8 1622,-101 1710,-101 1710,-8 1622,-8"/>
<text text-anchor="middle" x="1666" y="-85.8" font-family="Times,serif" font-size="14.00">3594</text>
</g>
<g id="clust15" class="cluster">
<title>cluster3595</title>
<polygon fill="none" stroke="black" points="1746,-8 1746,-101 1834,-101 1834,-8 1746,-8"/>
<text text-anchor="middle" x="1790" y="-85.8" font-family="Times,serif" font-size="14.00">3595</text>
</g>
<g id="clust16" class="cluster">
<title>cluster3596</title>
<polygon fill="none" stroke="black" points="1870,-8 1870,-101 1972,-101 1972,-8 1870,-8"/>
<text text-anchor="middle" x="1921" y="-85.8" font-family="Times,serif" font-size="14.00">3596</text>
</g>
<g id="clust17" class="cluster">
<title>cluster3597</title>
<polygon fill="none" stroke="black" points="2008,-8 2008,-101 2095,-101 2095,-8 2008,-8"/>
<text text-anchor="middle" x="2051.5" y="-85.8" font-family="Times,serif" font-size="14.00">3597</text>
</g>
<g id="clust18" class="cluster">
<title>cluster3598</title>
<polygon fill="none" stroke="black" points="2131,-8 2131,-101 2218,-101 2218,-8 2131,-8"/>
<text text-anchor="middle" x="2174.5" y="-85.8" font-family="Times,serif" font-size="14.00">3598</text>
</g>
<g id="clust19" class="cluster">
<title>cluster3599</title>
<polygon fill="none" stroke="black" points="2254,-8 2254,-101 2341,-101 2341,-8 2254,-8"/>
<text text-anchor="middle" x="2297.5" y="-85.8" font-family="Times,serif" font-size="14.00">3599</text>
</g>
<g id="clust20" class="cluster">
<title>cluster3600</title>
<polygon fill="none" stroke="black" points="2377,-8 2377,-101 2465,-101 2465,-8 2377,-8"/>
<text text-anchor="middle" x="2421" y="-85.8" font-family="Times,serif" font-size="14.00">3600</text>
</g>
<g id="clust21" class="cluster">
<title>cluster3601</title>
<polygon fill="none" stroke="black" points="2501,-8 2501,-101 2588,-101 2588,-8 2501,-8"/>
<text text-anchor="middle" x="2544.5" y="-85.8" font-family="Times,serif" font-size="14.00">3601</text>
</g>
<g id="clust22" class="cluster">
<title>cluster3602</title>
<polygon fill="none" stroke="black" points="2624,-8 2624,-101 2712,-101 2712,-8 2624,-8"/>
<text text-anchor="middle" x="2668" y="-85.8" font-family="Times,serif" font-size="14.00">3602</text>
</g>
<g id="clust23" class="cluster">
<title>cluster3603</title>
<polygon fill="none" stroke="black" points="2748,-8 2748,-101 2836,-101 2836,-8 2748,-8"/>
<text text-anchor="middle" x="2792" y="-85.8" font-family="Times,serif" font-size="14.00">3603</text>
</g>
<g id="clust24" class="cluster">
<title>cluster3604</title>
<polygon fill="none" stroke="black" points="2872,-8 2872,-101 2960,-101 2960,-8 2872,-8"/>
<text text-anchor="middle" x="2916" y="-85.8" font-family="Times,serif" font-size="14.00">3604</text>
</g>
<g id="clust25" class="cluster">
<title>cluster3605</title>
<polygon fill="none" stroke="black" points="2996,-8 2996,-101 3084,-101 3084,-8 2996,-8"/>
<text text-anchor="middle" x="3040" y="-85.8" font-family="Times,serif" font-size="14.00">3605</text>
</g>
<g id="clust26" class="cluster">
<title>cluster3606</title>
<polygon fill="none" stroke="black" points="3120,-8 3120,-101 3207,-101 3207,-8 3120,-8"/>
<text text-anchor="middle" x="3163.5" y="-85.8" font-family="Times,serif" font-size="14.00">3606</text>
</g>
<g id="clust27" class="cluster">
<title>cluster3607</title>
<polygon fill="none" stroke="black" points="3243,-8 3243,-101 3331,-101 3331,-8 3243,-8"/>
<text text-anchor="middle" x="3287" y="-85.8" font-family="Times,serif" font-size="14.00">3607</text>
</g>
<g id="clust28" class="cluster">
<title>cluster3608</title>
<polygon fill="none" stroke="black" points="3367,-8 3367,-101 3455,-101 3455,-8 3367,-8"/>
<text text-anchor="middle" x="3411" y="-85.8" font-family="Times,serif" font-size="14.00">3608</text>
</g>
<g id="clust29" class="cluster">
<title>cluster3609</title>
<polygon fill="none" stroke="black" points="3491,-8 3491,-101 3579,-101 3579,-8 3491,-8"/>
<text text-anchor="middle" x="3535" y="-85.8" font-family="Times,serif" font-size="14.00">3609</text>
</g>
<g id="clust30" class="cluster">
<title>cluster3610</title>
<polygon fill="none" stroke="black" points="3615,-8 3615,-101 3703,-101 3703,-8 3615,-8"/>
<text text-anchor="middle" x="3659" y="-85.8" font-family="Times,serif" font-size="14.00">3610</text>
</g>
<g id="clust31" class="cluster">
<title>cluster3611</title>
<polygon fill="none" stroke="black" points="3739,-8 3739,-101 3827,-101 3827,-8 3739,-8"/>
<text text-anchor="middle" x="3783" y="-85.8" font-family="Times,serif" font-size="14.00">3611</text>
</g>
<g id="clust32" class="cluster">
<title>cluster3612</title>
<polygon fill="none" stroke="black" points="3863,-8 3863,-101 3950,-101 3950,-8 3863,-8"/>
<text text-anchor="middle" x="3906.5" y="-85.8" font-family="Times,serif" font-size="14.00">3612</text>
</g>
<g id="clust33" class="cluster">
<title>cluster3613</title>
<polygon fill="none" stroke="black" points="3986,-8 3986,-101 4074,-101 4074,-8 3986,-8"/>
<text text-anchor="middle" x="4030" y="-85.8" font-family="Times,serif" font-size="14.00">3613</text>
</g>
<g id="clust34" class="cluster">
<title>cluster3614</title>
<polygon fill="none" stroke="black" points="4110,-8 4110,-101 4198,-101 4198,-8 4110,-8"/>
<text text-anchor="middle" x="4154" y="-85.8" font-family="Times,serif" font-size="14.00">3614</text>
</g>
<g id="clust35" class="cluster">
<title>cluster3615</title>
<polygon fill="none" stroke="black" points="4234,-8 4234,-101 4322,-101 4322,-8 4234,-8"/>
<text text-anchor="middle" x="4278" y="-85.8" font-family="Times,serif" font-size="14.00">3615</text>
</g>
<!-- Node0x600000710690 -->
<g id="node1" class="node">
<title>Node0x600000710690</title>
<polygon fill="none" stroke="black" points="8,-9 8,-77 95,-77 95,-9 8,-9"/>
<text text-anchor="middle" x="51.5" y="-66.6" font-family="Times,serif" font-size="8.00">word: variance</text>
<polyline fill="none" stroke="black" points="8,-60 95,-60 "/>
<text text-anchor="middle" x="51.5" y="-49.6" font-family="Times,serif" font-size="8.00">size: 2</text>
<polyline fill="none" stroke="black" points="8,-43 95,-43 "/>
<text text-anchor="middle" x="51.5" y="-32.6" font-family="Times,serif" font-size="8.00">next: 0x600000710c90</text>
<polyline fill="none" stroke="black" points="8,-26 95,-26 "/>
<text text-anchor="middle" x="51.5" y="-15.6" font-family="Times,serif" font-size="8.00">prev: 0x0</text>
</g>
<!-- Node0x600000710c90 -->
<g id="node2" class="node">
<title>Node0x600000710c90</title>
<polygon fill="none" stroke="black" points="131,-9 131,-77 219,-77 219,-9 131,-9"/>
<text text-anchor="middle" x="175" y="-66.6" font-family="Times,serif" font-size="8.00">word: nurse</text>
<polyline fill="none" stroke="black" points="131,-60 219,-60 "/>
<text text-anchor="middle" x="175" y="-49.6" font-family="Times,serif" font-size="8.00">size: 29</text>
<polyline fill="none" stroke="black" points="131,-43 219,-43 "/>
<text text-anchor="middle" x="175" y="-32.6" font-family="Times,serif" font-size="8.00">next: 0x600000711770</text>
<polyline fill="none" stroke="black" points="131,-26 219,-26 "/>
<text text-anchor="middle" x="175" y="-15.6" font-family="Times,serif" font-size="8.00">prev: 0x600000710690</text>
</g>
<!-- Node0x600000710690&#45;&gt;Node0x600000710c90 -->
<g id="edge1" class="edge">
<title>Node0x600000710690:n&#45;&gt;Node0x600000710c90:n</title>
<path fill="none" stroke="red" d="M95,-34C107,-34 112.25,-34 120.88,-34"/>
<polygon fill="red" stroke="red" points="121,-37.5 131,-34 121,-30.5 121,-37.5"/>
</g>
<!-- Node0x600000711770 -->
<g id="node3" class="node">
<title>Node0x600000711770</title>
<polygon fill="none" stroke="black" points="255,-9 255,-77 343,-77 343,-9 255,-9"/>
<text text-anchor="middle" x="299" y="-66.6" font-family="Times,serif" font-size="8.00">word: blood</text>
<polyline fill="none" stroke="black" points="255,-60 343,-60 "/>
<text text-anchor="middle" x="299" y="-49.6" font-family="Times,serif" font-size="8.00">size: 19</text>
<polyline fill="none" stroke="black" points="255,-43 343,-43 "/>
<text text-anchor="middle" x="299" y="-32.6" font-family="Times,serif" font-size="8.00">next: 0x600000711b90</text>
<polyline fill="none" stroke="black" points="255,-26 343,-26 "/>
<text text-anchor="middle" x="299" y="-15.6" font-family="Times,serif" font-size="8.00">prev: 0x600000710c90</text>
</g>
<!-- Node0x600000710c90&#45;&gt;Node0x600000711770 -->
<g id="edge2" class="edge">
<title>Node0x600000710c90:n&#45;&gt;Node0x600000711770:n</title>
<path fill="none" stroke="red" d="M219,-34C231,-34 236.25,-34 244.88,-34"/>
<polygon fill="red" stroke="red" points="245,-37.5 255,-34 245,-30.5 245,-37.5"/>
</g>
<!-- Node0x600000711b90 -->
<g id="node4" class="node">
<title>Node0x600000711b90</title>
<polygon fill="none" stroke="black" points="379,-9 379,-77 467,-77 467,-9 379,-9"/>
<text text-anchor="middle" x="423" y="-66.6" font-family="Times,serif" font-size="8.00">word: Doth</text>
<polyline fill="none" stroke="black" points="379,-60 467,-60 "/>
<text text-anchor="middle" x="423" y="-49.6" font-family="Times,serif" font-size="8.00">size: 12</text>
<polyline fill="none" stroke="black" points="379,-43 467,-43 "/>
<text text-anchor="middle" x="423" y="-32.6" font-family="Times,serif" font-size="8.00">next: 0x600000712a30</text>
<polyline fill="none" stroke="black" points="379,-26 467,-26 "/>
<text text-anchor="middle" x="423" y="-15.6" font-family="Times,serif" font-size="8.00">prev: 0x600000711770</text>
</g>
<!-- Node0x600000711770&#45;&gt;Node0x600000711b90 -->
<g id="edge3" class="edge">
<title>Node0x600000711770:n&#45;&gt;Node0x600000711b90:n</title>
<path fill="none" stroke="red" d="M343,-34C355,-34 360.25,-34 368.88,-34"/>
<polygon fill="red" stroke="red" points="369,-37.5 379,-34 369,-30.5 369,-37.5"/>
</g>
<!-- Node0x600000712a30 -->
<g id="node5" class="node">
<title>Node0x600000712a30</title>
<polygon fill="none" stroke="black" points="503,-9 503,-77 591,-77 591,-9 503,-9"/>
<text text-anchor="middle" x="547" y="-66.6" font-family="Times,serif" font-size="8.00">word: moves</text>
<polyline fill="none" stroke="black" points="503,-60 591,-60 "/>
<text text-anchor="middle" x="547" y="-49.6" font-family="Times,serif" font-size="8.00">size: 1</text>
<polyline fill="none" stroke="black" points="503,-43 591,-43 "/>
<text text-anchor="middle" x="547" y="-32.6" font-family="Times,serif" font-size="8.00">next: 0x600000713a50</text>
<polyline fill="none" stroke="black" points="503,-26 591,-26 "/>
<text text-anchor="middle" x="547" y="-15.6" font-family="Times,serif" font-size="8.00">prev: 0x600000711b90</text>
</g>
<!-- Node0x600000711b90&#45;&gt;Node0x600000712a30 -->
<g id="edge4" class="edge">
<title>Node0x600000711b90:n&#45;&gt;Node0x600000712a30:n</title>
<path fill="none" stroke="red" d="M467,-34C479,-34 484.25,-34 492.88,-34"/>
<polygon fill="red" stroke="red" points="493,-37.5 503,-34 493,-30.5 493,-37.5"/>
</g>
<!-- Node0x600000713a50 -->
<g id="node6" class="node">
<title>Node0x600000713a50</title>
<polygon fill="none" stroke="black" points="627,-9 627,-77 718,-77 718,-9 627,-9"/>
<text text-anchor="middle" x="672.5" y="-66.6" font-family="Times,serif" font-size="8.00">word: SERVINGMEN</text>
<polyline fill="none" stroke="black" points="627,-60 718,-60 "/>
<text text-anchor="middle" x="672.5" y="-49.6" font-family="Times,serif" font-size="8.00">size: 4</text>
<polyline fill="none" stroke="black" points="627,-43 718,-43 "/>
<text text-anchor="middle" x="672.5" y="-32.6" font-family="Times,serif" font-size="8.00">next: 0x6000007168b0</text>
<polyline fill="none" stroke="black" points="627,-26 718,-26 "/>
<text text-anchor="middle" x="672.5" y="-15.6" font-family="Times,serif" font-size="8.00">prev: 0x600000712a30</text>
</g>
<!-- Node0x600000712a30&#45;&gt;Node0x600000713a50 -->
<g id="edge5" class="edge">
<title>Node0x600000712a30:n&#45;&gt;Node0x600000713a50:n</title>
<path fill="none" stroke="red" d="M591,-34C603,-34 608.25,-34 616.88,-34"/>
<polygon fill="red" stroke="red" points="617,-37.5 627,-34 617,-30.5 617,-37.5"/>
</g>
<!-- Node0x6000007168b0 -->
<g id="node7" class="node">
<title>Node0x6000007168b0</title>
<polygon fill="none" stroke="black" points="754,-9 754,-77 842,-77 842,-9 754,-9"/>
<text text-anchor="middle" x="798" y="-66.6" font-family="Times,serif" font-size="8.00">word: Peer</text>
<polyline fill="none" stroke="black" points="754,-60 842,-60 "/>
<text text-anchor="middle" x="798" y="-49.6" font-family="Times,serif" font-size="8.00">size: 1</text>
<polyline fill="none" stroke="black" points="754,-43 842,-43 "/>
<text text-anchor="middle" x="798" y="-32.6" font-family="Times,serif" font-size="8.00">next: 0x600000719c20</text>
<polyline fill="none" stroke="black" points="754,-26 842,-26 "/>
<text text-anchor="middle" x="798" y="-15.6" font-family="Times,serif" font-size="8.00">prev: 0x600000713a50</text>
</g>
<!-- Node0x600000713a50&#45;&gt;Node0x6000007168b0 -->
<g id="edge6" class="edge">
<title>Node0x600000713a50:n&#45;&gt;Node0x6000007168b0:n</title>
<path fill="none" stroke="red" d="M718,-34C730,-34 735.25,-34 743.88,-34"/>
<polygon fill="red" stroke="red" points="744,-37.5 754,-34 744,-30.5 744,-37.5"/>
</g>
<!-- Node0x600000719c20 -->
<g id="node8" class="node">
<title>Node0x600000719c20</title>
<polygon fill="none" stroke="black" points="878,-9 878,-77 966,-77 966,-9 878,-9"/>
<text text-anchor="middle" x="922" y="-66.6" font-family="Times,serif" font-size="8.00">word: encounter</text>
<polyline fill="none" stroke="black" points="878,-60 966,-60 "/>
<text text-anchor="middle" x="922" y="-49.6" font-family="Times,serif" font-size="8.00">size: 3</text>
<polyline fill="none" stroke="black" points="878,-43 966,-43 "/>
<text text-anchor="middle" x="922" y="-32.6" font-family="Times,serif" font-size="8.00">next: 0x60000071a250</text>
<polyline fill="none" stroke="black" points="878,-26 966,-26 "/>
<text text-anchor="middle" x="922" y="-15.6" font-family="Times,serif" font-size="8.00">prev: 0x6000007168b0</text>
</g>
<!-- Node0x6000007168b0&#45;&gt;Node0x600000719c20 -->
<g id="edge7" class="edge">
<title>Node0x6000007168b0:n&#45;&gt;Node0x600000719c20:n</title>
<path fill="none" stroke="red" d="M842,-34C854,-34 859.25,-34 867.88,-34"/>
<polygon fill="red" stroke="red" points="868,-37.5 878,-34 868,-30.5 868,-37.5"/>
</g>
<!-- Node0x60000071a250 -->
<g id="node9" class="node">
<title>Node0x60000071a250</title>
<polygon fill="none" stroke="black" points="1002,-9 1002,-77 1090,-77 1090,-9 1002,-9"/>
<text text-anchor="middle" x="1046" y="-66.6" font-family="Times,serif" font-size="8.00">word: forget</text>
<polyline fill="none" stroke="black" points="1002,-60 1090,-60 "/>
<text text-anchor="middle" x="1046" y="-49.6" font-family="Times,serif" font-size="8.00">size: 9</text>
<polyline fill="none" stroke="black" points="1002,-43 1090,-43 "/>
<text text-anchor="middle" x="1046" y="-32.6" font-family="Times,serif" font-size="8.00">next: 0x60000071c4e0</text>
<polyline fill="none" stroke="black" points="1002,-26 1090,-26 "/>
<text text-anchor="middle" x="1046" y="-15.6" font-family="Times,serif" font-size="8.00">prev: 0x600000719c20</text>
</g>
<!-- Node0x600000719c20&#45;&gt;Node0x60000071a250 -->
<g id="edge8" class="edge">
<title>Node0x600000719c20:n&#45;&gt;Node0x60000071a250:n</title>
<path fill="none" stroke="red" d="M966,-34C978,-34 983.25,-34 991.88,-34"/>
<polygon fill="red" stroke="red" points="992,-37.5 1002,-34 992,-30.5 992,-37.5"/>
</g>
<!-- Node0x60000071c4e0 -->
<g id="node10" class="node">
<title>Node0x60000071c4e0</title>
<polygon fill="none" stroke="black" points="1126,-9 1126,-77 1214,-77 1214,-9 1126,-9"/>
<text text-anchor="middle" x="1170" y="-66.6" font-family="Times,serif" font-size="8.00">word: behold</text>
<polyline fill="none" stroke="black" points="1126,-60 1214,-60 "/>
<text text-anchor="middle" x="1170" y="-49.6" font-family="Times,serif" font-size="8.00">size: 7</text>
<polyline fill="none" stroke="black" points="1126,-43 1214,-43 "/>
<text text-anchor="middle" x="1170" y="-32.6" font-family="Times,serif" font-size="8.00">next: 0x60000071b3c0</text>
<polyline fill="none" stroke="black" points="1126,-26 1214,-26 "/>
<text text-anchor="middle" x="1170" y="-15.6" font-family="Times,serif" font-size="8.00">prev: 0x60000071a250</text>
</g>
<!-- Node0x60000071a250&#45;&gt;Node0x60000071c4e0 -->
<g id="edge9" class="edge">
<title>Node0x60000071a250:n&#45;&gt;Node0x60000071c4e0:n</title>
<path fill="none" stroke="red" d="M1090,-34C1102,-34 1107.25,-34 1115.88,-34"/>
<polygon fill="red" stroke="red" points="1116,-37.5 1126,-34 1116,-30.5 1116,-37.5"/>
</g>
<!-- Node0x60000071b3c0 -->
<g id="node11" class="node">
<title>Node0x60000071b3c0</title>
<polygon fill="none" stroke="black" points="1250,-9 1250,-77 1338,-77 1338,-9 1250,-9"/>
<text text-anchor="middle" x="1294" y="-66.6" font-family="Times,serif" font-size="8.00">word: Go</text>
<polyline fill="none" stroke="black" points="1250,-60 1338,-60 "/>
<text text-anchor="middle" x="1294" y="-49.6" font-family="Times,serif" font-size="8.00">size: 30</text>
<polyline fill="none" stroke="black" points="1250,-43 1338,-43 "/>
<text text-anchor="middle" x="1294" y="-32.6" font-family="Times,serif" font-size="8.00">next: 0x60000071c5a0</text>
<polyline fill="none" stroke="black" points="1250,-26 1338,-26 "/>
<text text-anchor="middle" x="1294" y="-15.6" font-family="Times,serif" font-size="8.00">prev: 0x60000071c4e0</text>
</g>
<!-- Node0x60000071c4e0&#45;&gt;Node0x60000071b3c0 -->
<g id="edge10" class="edge">
<title>Node0x60000071c4e0:n&#45;&gt;Node0x60000071b3c0:n</title>
<path fill="none" stroke="red" d="M1214,-34C1226,-34 1231.25,-34 1239.88,-34"/>
<polygon fill="red" stroke="red" points="1240,-37.5 1250,-34 1240,-30.5 1240,-37.5"/>
</g>
<!-- Node0x60000071c5a0 -->
<g id="node12" class="node">
<title>Node0x60000071c5a0</title>
<polygon fill="none" stroke="black" points="1374,-9 1374,-77 1462,-77 1462,-9 1374,-9"/>
<text text-anchor="middle" x="1418" y="-66.6" font-family="Times,serif" font-size="8.00">word: Mercutio</text>
<polyline fill="none" stroke="black" points="1374,-60 1462,-60 "/>
<text text-anchor="middle" x="1418" y="-49.6" font-family="Times,serif" font-size="8.00">size: 20</text>
<polyline fill="none" stroke="black" points="1374,-43 1462,-43 "/>
<text text-anchor="middle" x="1418" y="-32.6" font-family="Times,serif" font-size="8.00">next: 0x60000071d4d0</text>
<polyline fill="none" stroke="black" points="1374,-26 1462,-26 "/>
<text text-anchor="middle" x="1418" y="-15.6" font-family="Times,serif" font-size="8.00">prev: 0x60000071b3c0</text>
</g>
<!-- Node0x60000071b3c0&#45;&gt;Node0x60000071c5a0 -->
<g id="edge11" class="edge">
<title>Node0x60000071b3c0:n&#45;&gt;Node0x60000071c5a0:n</title>
<path fill="none" stroke="red" d="M1338,-34C1350,-34 1355.25,-34 1363.88,-34"/>
<polygon fill="red" stroke="red" points="1364,-37.5 1374,-34 1364,-30.5 1364,-37.5"/>
</g>
<!-- Node0x60000071d4d0 -->
<g id="node13" class="node">
<title>Node0x60000071d4d0</title>
<polygon fill="none" stroke="black" points="1498,-9 1498,-77 1586,-77 1586,-9 1498,-9"/>
<text text-anchor="middle" x="1542" y="-66.6" font-family="Times,serif" font-size="8.00">word: moonshine</text>
<polyline fill="none" stroke="black" points="1498,-60 1586,-60 "/>
<text text-anchor="middle" x="1542" y="-49.6" font-family="Times,serif" font-size="8.00">size: 1</text>
<polyline fill="none" stroke="black" points="1498,-43 1586,-43 "/>
<text text-anchor="middle" x="1542" y="-32.6" font-family="Times,serif" font-size="8.00">next: 0x60000071de90</text>
<polyline fill="none" stroke="black" points="1498,-26 1586,-26 "/>
<text text-anchor="middle" x="1542" y="-15.6" font-family="Times,serif" font-size="8.00">prev: 0x60000071c5a0</text>
</g>
<!-- Node0x60000071c5a0&#45;&gt;Node0x60000071d4d0 -->
<g id="edge12" class="edge">
<title>Node0x60000071c5a0:n&#45;&gt;Node0x60000071d4d0:n</title>
<path fill="none" stroke="red" d="M1462,-34C1474,-34 1479.25,-34 1487.88,-34"/>
<polygon fill="red" stroke="red" points="1488,-37.5 1498,-34 1488,-30.5 1488,-37.5"/>
</g>
<!-- Node0x60000071de90 -->
<g id="node14" class="node">
<title>Node0x60000071de90</title>
<polygon fill="none" stroke="black" points="1622,-9 1622,-77 1710,-77 1710,-9 1622,-9"/>
<text text-anchor="middle" x="1666" y="-66.6" font-family="Times,serif" font-size="8.00">word: prayer</text>
<polyline fill="none" stroke="black" points="1622,-60 1710,-60 "/>
<text text-anchor="middle" x="1666" y="-49.6" font-family="Times,serif" font-size="8.00">size: 2</text>
<polyline fill="none" stroke="black" points="1622,-43 1710,-43 "/>
<text text-anchor="middle" x="1666" y="-32.6" font-family="Times,serif" font-size="8.00">next: 0x60000071e940</text>
<polyline fill="none" stroke="black" points="1622,-26 1710,-26 "/>
<text text-anchor="middle" x="1666" y="-15.6" font-family="Times,serif" font-size="8.00">prev: 0x60000071d4d0</text>
</g>
<!-- Node0x60000071d4d0&#45;&gt;Node0x60000071de90 -->
<g id="edge13" class="edge">
<title>Node0x60000071d4d0:n&#45;&gt;Node0x60000071de90:n</title>
<path fill="none" stroke="red" d="M1586,-34C1598,-34 1603.25,-34 1611.88,-34"/>
<polygon fill="red" stroke="red" points="1612,-37.5 1622,-34 1612,-30.5 1612,-37.5"/>
</g>
<!-- Node0x60000071e940 -->
<g id="node15" class="node">
<title>Node0x60000071e940</title>
<polygon fill="none" stroke="black" points="1746,-9 1746,-77 1834,-77 1834,-9 1746,-9"/>
<text text-anchor="middle" x="1790" y="-66.6" font-family="Times,serif" font-size="8.00">word: drum</text>
<polyline fill="none" stroke="black" points="1746,-60 1834,-60 "/>
<text text-anchor="middle" x="1790" y="-49.6" font-family="Times,serif" font-size="8.00">size: 1</text>
<polyline fill="none" stroke="black" points="1746,-43 1834,-43 "/>
<text text-anchor="middle" x="1790" y="-32.6" font-family="Times,serif" font-size="8.00">next: 0x60000071f090</text>
<polyline fill="none" stroke="black" points="1746,-26 1834,-26 "/>
<text text-anchor="middle" x="1790" y="-15.6" font-family="Times,serif" font-size="8.00">prev: 0x60000071de90</text>
</g>
<!-- Node0x60000071de90&#45;&gt;Node0x60000071e940 -->
<g id="edge14" class="edge">
<title>Node0x60000071de90:n&#45;&gt;Node0x60000071e940:n</title>
<path fill="none" stroke="red" d="M1710,-34C1722,-34 1727.25,-34 1735.88,-34"/>
<polygon fill="red" stroke="red" points="1736,-37.5 1746,-34 1736,-30.5 1736,-37.5"/>
</g>
<!-- Node0x60000071f090 -->
<g id="node16" class="node">
<title>Node0x60000071f090</title>
<polygon fill="none" stroke="black" points="1870,-9 1870,-77 1972,-77 1972,-9 1870,-9"/>
<text text-anchor="middle" x="1921" y="-66.6" font-family="Times,serif" font-size="8.00">word: GENTLEWOMEN</text>
<polyline fill="none" stroke="black" points="1870,-60 1972,-60 "/>
<text text-anchor="middle" x="1921" y="-49.6" font-family="Times,serif" font-size="8.00">size: 1</text>
<polyline fill="none" stroke="black" points="1870,-43 1972,-43 "/>
<text text-anchor="middle" x="1921" y="-32.6" font-family="Times,serif" font-size="8.00">next: 0x60000071f960</text>
<polyline fill="none" stroke="black" points="1870,-26 1972,-26 "/>
<text text-anchor="middle" x="1921" y="-15.6" font-family="Times,serif" font-size="8.00">prev: 0x60000071e940</text>
</g>
<!-- Node0x60000071e940&#45;&gt;Node0x60000071f090 -->
<g id="edge15" class="edge">
<title>Node0x60000071e940:n&#45;&gt;Node0x60000071f090:n</title>
<path fill="none" stroke="red" d="M1834,-34C1846,-34 1851.25,-34 1859.88,-34"/>
<polygon fill="red" stroke="red" points="1860,-37.5 1870,-34 1860,-30.5 1860,-37.5"/>
</g>
<!-- Node0x60000071f960 -->
<g id="node17" class="node">
<title>Node0x60000071f960</title>
<polygon fill="none" stroke="black" points="2008,-9 2008,-77 2095,-77 2095,-9 2008,-9"/>
<text text-anchor="middle" x="2051.5" y="-66.6" font-family="Times,serif" font-size="8.00">word: torches</text>
<polyline fill="none" stroke="black" points="2008,-60 2095,-60 "/>
<text text-anchor="middle" x="2051.5" y="-49.6" font-family="Times,serif" font-size="8.00">size: 2</text>
<polyline fill="none" stroke="black" points="2008,-43 2095,-43 "/>
<text text-anchor="middle" x="2051.5" y="-32.6" font-family="Times,serif" font-size="8.00">next: 0x600000700fc0</text>
<polyline fill="none" stroke="black" points="2008,-26 2095,-26 "/>
<text text-anchor="middle" x="2051.5" y="-15.6" font-family="Times,serif" font-size="8.00">prev: 0x60000071f090</text>
</g>
<!-- Node0x60000071f090&#45;&gt;Node0x60000071f960 -->
<g id="edge16" class="edge">
<title>Node0x60000071f090:n&#45;&gt;Node0x60000071f960:n</title>
<path fill="none" stroke="red" d="M1972,-34C1984,-34 1989.25,-34 1997.88,-34"/>
<polygon fill="red" stroke="red" points="1998,-37.5 2008,-34 1998,-30.5 1998,-37.5"/>
</g>
<!-- Node0x600000700fc0 -->
<g id="node18" class="node">
<title>Node0x600000700fc0</title>
<polygon fill="none" stroke="black" points="2131,-9 2131,-77 2218,-77 2218,-9 2131,-9"/>
<text text-anchor="middle" x="2174.5" y="-66.6" font-family="Times,serif" font-size="8.00">word: wedding</text>
<polyline fill="none" stroke="black" points="2131,-60 2218,-60 "/>
<text text-anchor="middle" x="2174.5" y="-49.6" font-family="Times,serif" font-size="8.00">size: 5</text>
<polyline fill="none" stroke="black" points="2131,-43 2218,-43 "/>
<text text-anchor="middle" x="2174.5" y="-32.6" font-family="Times,serif" font-size="8.00">next: 0x600000701320</text>
<polyline fill="none" stroke="black" points="2131,-26 2218,-26 "/>
<text text-anchor="middle" x="2174.5" y="-15.6" font-family="Times,serif" font-size="8.00">prev: 0x60000071f960</text>
</g>
<!-- Node0x60000071f960&#45;&gt;Node0x600000700fc0 -->
<g id="edge17" class="edge">
<title>Node0x60000071f960:n&#45;&gt;Node0x600000700fc0:n</title>
<path fill="none" stroke="red" d="M2095,-34C2107,-34 2112.25,-34 2120.88,-34"/>
<polygon fill="red" stroke="red" points="2121,-37.5 2131,-34 2121,-30.5 2121,-37.5"/>
</g>
<!-- Node0x600000701320 -->
<g id="node19" class="node">
<title>Node0x600000701320</title>
<polygon fill="none" stroke="black" points="2254,-9 2254,-77 2341,-77 2341,-9 2254,-9"/>
<text text-anchor="middle" x="2297.5" y="-66.6" font-family="Times,serif" font-size="8.00">word: bewitched</text>
<polyline fill="none" stroke="black" points="2254,-60 2341,-60 "/>
<text text-anchor="middle" x="2297.5" y="-49.6" font-family="Times,serif" font-size="8.00">size: 1</text>
<polyline fill="none" stroke="black" points="2254,-43 2341,-43 "/>
<text text-anchor="middle" x="2297.5" y="-32.6" font-family="Times,serif" font-size="8.00">next: 0x6000007030f0</text>
<polyline fill="none" stroke="black" points="2254,-26 2341,-26 "/>
<text text-anchor="middle" x="2297.5" y="-15.6" font-family="Times,serif" font-size="8.00">prev: 0x600000700fc0</text>
</g>
<!-- Node0x600000700fc0&#45;&gt;Node0x600000701320 -->
<g id="edge18" class="edge">
<title>Node0x600000700fc0:n&#45;&gt;Node0x600000701320:n</title>
<path fill="none" stroke="red" d="M2218,-34C2230,-34 2235.25,-34 2243.88,-34"/>
<polygon fill="red" stroke="red" points="2244,-37.5 2254,-34 2244,-30.5 2244,-37.5"/>
</g>
<!-- Node0x6000007030f0 -->
<g id="node20" class="node">
<title>Node0x6000007030f0</title>
<polygon fill="none" stroke="black" points="2377,-9 2377,-77 2465,-77 2465,-9 2377,-9"/>
<text text-anchor="middle" x="2421" y="-66.6" font-family="Times,serif" font-size="8.00">word: tear</text>
<polyline fill="none" stroke="black" points="2377,-60 2465,-60 "/>
<text text-anchor="middle" x="2421" y="-49.6" font-family="Times,serif" font-size="8.00">size: 5</text>
<polyline fill="none" stroke="black" points="2377,-43 2465,-43 "/>
<text text-anchor="middle" x="2421" y="-32.6" font-family="Times,serif" font-size="8.00">next: 0x600000703960</text>
<polyline fill="none" stroke="black" points="2377,-26 2465,-26 "/>
<text text-anchor="middle" x="2421" y="-15.6" font-family="Times,serif" font-size="8.00">prev: 0x600000701320</text>
</g>
<!-- Node0x600000701320&#45;&gt;Node0x6000007030f0 -->
<g id="edge19" class="edge">
<title>Node0x600000701320:n&#45;&gt;Node0x6000007030f0:n</title>
<path fill="none" stroke="red" d="M2341,-34C2353,-34 2358.25,-34 2366.88,-34"/>
<polygon fill="red" stroke="red" points="2367,-37.5 2377,-34 2367,-30.5 2367,-37.5"/>
</g>
<!-- Node0x600000703960 -->
<g id="node21" class="node">
<title>Node0x600000703960</title>
<polygon fill="none" stroke="black" points="2501,-9 2501,-77 2588,-77 2588,-9 2501,-9"/>
<text text-anchor="middle" x="2544.5" y="-66.6" font-family="Times,serif" font-size="8.00">word: compliment</text>
<polyline fill="none" stroke="black" points="2501,-60 2588,-60 "/>
<text text-anchor="middle" x="2544.5" y="-49.6" font-family="Times,serif" font-size="8.00">size: 1</text>
<polyline fill="none" stroke="black" points="2501,-43 2588,-43 "/>
<text text-anchor="middle" x="2544.5" y="-32.6" font-family="Times,serif" font-size="8.00">next: 0x600000730300</text>
<polyline fill="none" stroke="black" points="2501,-26 2588,-26 "/>
<text text-anchor="middle" x="2544.5" y="-15.6" font-family="Times,serif" font-size="8.00">prev: 0x6000007030f0</text>
</g>
<!-- Node0x6000007030f0&#45;&gt;Node0x600000703960 -->
<g id="edge20" class="edge">
<title>Node0x6000007030f0:n&#45;&gt;Node0x600000703960:n</title>
<path fill="none" stroke="red" d="M2465,-34C2477,-34 2482.25,-34 2490.88,-34"/>
<polygon fill="red" stroke="red" points="2491,-37.5 2501,-34 2491,-30.5 2491,-37.5"/>
</g>
<!-- Node0x600000730300 -->
<g id="node22" class="node">
<title>Node0x600000730300</title>
<polygon fill="none" stroke="black" points="2624,-9 2624,-77 2712,-77 2712,-9 2624,-9"/>
<text text-anchor="middle" x="2668" y="-66.6" font-family="Times,serif" font-size="8.00">word: faithful</text>
<polyline fill="none" stroke="black" points="2624,-60 2712,-60 "/>
<text text-anchor="middle" x="2668" y="-49.6" font-family="Times,serif" font-size="8.00">size: 3</text>
<polyline fill="none" stroke="black" points="2624,-43 2712,-43 "/>
<text text-anchor="middle" x="2668" y="-32.6" font-family="Times,serif" font-size="8.00">next: 0x600000730a50</text>
<polyline fill="none" stroke="black" points="2624,-26 2712,-26 "/>
<text text-anchor="middle" x="2668" y="-15.6" font-family="Times,serif" font-size="8.00">prev: 0x600000703960</text>
</g>
<!-- Node0x600000703960&#45;&gt;Node0x600000730300 -->
<g id="edge21" class="edge">
<title>Node0x600000703960:n&#45;&gt;Node0x600000730300:n</title>
<path fill="none" stroke="red" d="M2588,-34C2600,-34 2605.25,-34 2613.88,-34"/>
<polygon fill="red" stroke="red" points="2614,-37.5 2624,-34 2614,-30.5 2614,-37.5"/>
</g>
<!-- Node0x600000730a50 -->
<g id="node23" class="node">
<title>Node0x600000730a50</title>
<polygon fill="none" stroke="black" points="2748,-9 2748,-77 2836,-77 2836,-9 2748,-9"/>
<text text-anchor="middle" x="2792" y="-66.6" font-family="Times,serif" font-size="8.00">word: aloud</text>
<polyline fill="none" stroke="black" points="2748,-60 2836,-60 "/>
<text text-anchor="middle" x="2792" y="-49.6" font-family="Times,serif" font-size="8.00">size: 2</text>
<polyline fill="none" stroke="black" points="2748,-43 2836,-43 "/>
<text text-anchor="middle" x="2792" y="-32.6" font-family="Times,serif" font-size="8.00">next: 0x600000734ba0</text>
<polyline fill="none" stroke="black" points="2748,-26 2836,-26 "/>
<text text-anchor="middle" x="2792" y="-15.6" font-family="Times,serif" font-size="8.00">prev: 0x600000730300</text>
</g>
<!-- Node0x600000730300&#45;&gt;Node0x600000730a50 -->
<g id="edge22" class="edge">
<title>Node0x600000730300:n&#45;&gt;Node0x600000730a50:n</title>
<path fill="none" stroke="red" d="M2712,-34C2724,-34 2729.25,-34 2737.88,-34"/>
<polygon fill="red" stroke="red" points="2738,-37.5 2748,-34 2738,-30.5 2738,-37.5"/>
</g>
<!-- Node0x600000734ba0 -->
<g id="node24" class="node">
<title>Node0x600000734ba0</title>
<polygon fill="none" stroke="black" points="2872,-9 2872,-77 2960,-77 2960,-9 2872,-9"/>
<text text-anchor="middle" x="2916" y="-66.6" font-family="Times,serif" font-size="8.00">word: mar</text>
<polyline fill="none" stroke="black" points="2872,-60 2960,-60 "/>
<text text-anchor="middle" x="2916" y="-49.6" font-family="Times,serif" font-size="8.00">size: 2</text>
<polyline fill="none" stroke="black" points="2872,-43 2960,-43 "/>
<text text-anchor="middle" x="2916" y="-32.6" font-family="Times,serif" font-size="8.00">next: 0x600000735fe0</text>
<polyline fill="none" stroke="black" points="2872,-26 2960,-26 "/>
<text text-anchor="middle" x="2916" y="-15.6" font-family="Times,serif" font-size="8.00">prev: 0x600000730a50</text>
</g>
<!-- Node0x600000730a50&#45;&gt;Node0x600000734ba0 -->
<g id="edge23" class="edge">
<title>Node0x600000730a50:n&#45;&gt;Node0x600000734ba0:n</title>
<path fill="none" stroke="red" d="M2836,-34C2848,-34 2853.25,-34 2861.88,-34"/>
<polygon fill="red" stroke="red" points="2862,-37.5 2872,-34 2862,-30.5 2862,-37.5"/>
</g>
<!-- Node0x600000735fe0 -->
<g id="node25" class="node">
<title>Node0x600000735fe0</title>
<polygon fill="none" stroke="black" points="2996,-9 2996,-77 3084,-77 3084,-9 2996,-9"/>
<text text-anchor="middle" x="3040" y="-66.6" font-family="Times,serif" font-size="8.00">word: hills</text>
<polyline fill="none" stroke="black" points="2996,-60 3084,-60 "/>
<text text-anchor="middle" x="3040" y="-49.6" font-family="Times,serif" font-size="8.00">size: 1</text>
<polyline fill="none" stroke="black" points="2996,-43 3084,-43 "/>
<text text-anchor="middle" x="3040" y="-32.6" font-family="Times,serif" font-size="8.00">next: 0x600000736250</text>
<polyline fill="none" stroke="black" points="2996,-26 3084,-26 "/>
<text text-anchor="middle" x="3040" y="-15.6" font-family="Times,serif" font-size="8.00">prev: 0x600000734ba0</text>
</g>
<!-- Node0x600000734ba0&#45;&gt;Node0x600000735fe0 -->
<g id="edge24" class="edge">
<title>Node0x600000734ba0:n&#45;&gt;Node0x600000735fe0:n</title>
<path fill="none" stroke="red" d="M2960,-34C2972,-34 2977.25,-34 2985.88,-34"/>
<polygon fill="red" stroke="red" points="2986,-37.5 2996,-34 2986,-30.5 2986,-37.5"/>
</g>
<!-- Node0x600000736250 -->
<g id="node26" class="node">
<title>Node0x600000736250</title>
<polygon fill="none" stroke="black" points="3120,-9 3120,-77 3207,-77 3207,-9 3120,-9"/>
<text text-anchor="middle" x="3163.5" y="-66.6" font-family="Times,serif" font-size="8.00">word: feign</text>
<polyline fill="none" stroke="black" points="3120,-60 3207,-60 "/>
<text text-anchor="middle" x="3163.5" y="-49.6" font-family="Times,serif" font-size="8.00">size: 1</text>
<polyline fill="none" stroke="black" points="3120,-43 3207,-43 "/>
<text text-anchor="middle" x="3163.5" y="-32.6" font-family="Times,serif" font-size="8.00">next: 0x6000007369d0</text>
<polyline fill="none" stroke="black" points="3120,-26 3207,-26 "/>
<text text-anchor="middle" x="3163.5" y="-15.6" font-family="Times,serif" font-size="8.00">prev: 0x600000735fe0</text>
</g>
<!-- Node0x600000735fe0&#45;&gt;Node0x600000736250 -->
<g id="edge25" class="edge">
<title>Node0x600000735fe0:n&#45;&gt;Node0x600000736250:n</title>
<path fill="none" stroke="red" d="M3084,-34C3096,-34 3101.25,-34 3109.88,-34"/>
<polygon fill="red" stroke="red" points="3110,-37.5 3120,-34 3110,-30.5 3110,-37.5"/>
</g>
<!-- Node0x6000007369d0 -->
<g id="node27" class="node">
<title>Node0x6000007369d0</title>
<polygon fill="none" stroke="black" points="3243,-9 3243,-77 3331,-77 3331,-9 3243,-9"/>
<text text-anchor="middle" x="3287" y="-66.6" font-family="Times,serif" font-size="8.00">word: coil</text>
<polyline fill="none" stroke="black" points="3243,-60 3331,-60 "/>
<text text-anchor="middle" x="3287" y="-49.6" font-family="Times,serif" font-size="8.00">size: 1</text>
<polyline fill="none" stroke="black" points="3243,-43 3331,-43 "/>
<text text-anchor="middle" x="3287" y="-32.6" font-family="Times,serif" font-size="8.00">next: 0x600000739560</text>
<polyline fill="none" stroke="black" points="3243,-26 3331,-26 "/>
<text text-anchor="middle" x="3287" y="-15.6" font-family="Times,serif" font-size="8.00">prev: 0x600000736250</text>
</g>
<!-- Node0x600000736250&#45;&gt;Node0x6000007369d0 -->
<g id="edge26" class="edge">
<title>Node0x600000736250:n&#45;&gt;Node0x6000007369d0:n</title>
<path fill="none" stroke="red" d="M3207,-34C3219,-34 3224.25,-34 3232.88,-34"/>
<polygon fill="red" stroke="red" points="3233,-37.5 3243,-34 3233,-30.5 3233,-37.5"/>
</g>
<!-- Node0x600000739560 -->
<g id="node28" class="node">
<title>Node0x600000739560</title>
<polygon fill="none" stroke="black" points="3367,-9 3367,-77 3455,-77 3455,-9 3367,-9"/>
<text text-anchor="middle" x="3411" y="-66.6" font-family="Times,serif" font-size="8.00">word: points</text>
<polyline fill="none" stroke="black" points="3367,-60 3455,-60 "/>
<text text-anchor="middle" x="3411" y="-49.6" font-family="Times,serif" font-size="8.00">size: 1</text>
<polyline fill="none" stroke="black" points="3367,-43 3455,-43 "/>
<text text-anchor="middle" x="3411" y="-32.6" font-family="Times,serif" font-size="8.00">next: 0x6000007395c0</text>
<polyline fill="none" stroke="black" points="3367,-26 3455,-26 "/>
<text text-anchor="middle" x="3411" y="-15.6" font-family="Times,serif" font-size="8.00">prev: 0x6000007369d0</text>
</g>
<!-- Node0x6000007369d0&#45;&gt;Node0x600000739560 -->
<g id="edge27" class="edge">
<title>Node0x6000007369d0:n&#45;&gt;Node0x600000739560:n</title>
<path fill="none" stroke="red" d="M3331,-34C3343,-34 3348.25,-34 3356.88,-34"/>
<polygon fill="red" stroke="red" points="3357,-37.5 3367,-34 3357,-30.5 3357,-37.5"/>
</g>
<!-- Node0x6000007395c0 -->
<g id="node29" class="node">
<title>Node0x6000007395c0</title>
<polygon fill="none" stroke="black" points="3491,-9 3491,-77 3579,-77 3579,-9 3491,-9"/>
<text text-anchor="middle" x="3535" y="-66.6" font-family="Times,serif" font-size="8.00">word: stout</text>
<polyline fill="none" stroke="black" points="3491,-60 3579,-60 "/>
<text text-anchor="middle" x="3535" y="-49.6" font-family="Times,serif" font-size="8.00">size: 2</text>
<polyline fill="none" stroke="black" points="3491,-43 3579,-43 "/>
<text text-anchor="middle" x="3535" y="-32.6" font-family="Times,serif" font-size="8.00">next: 0x60000073e370</text>
<polyline fill="none" stroke="black" points="3491,-26 3579,-26 "/>
<text text-anchor="middle" x="3535" y="-15.6" font-family="Times,serif" font-size="8.00">prev: 0x600000739560</text>
</g>
<!-- Node0x600000739560&#45;&gt;Node0x6000007395c0 -->
<g id="edge28" class="edge">
<title>Node0x600000739560:n&#45;&gt;Node0x6000007395c0:n</title>
<path fill="none" stroke="red" d="M3455,-34C3467,-34 3472.25,-34 3480.88,-34"/>
<polygon fill="red" stroke="red" points="3481,-37.5 3491,-34 3481,-30.5 3481,-37.5"/>
</g>
<!-- Node0x60000073e370 -->
<g id="node30" class="node">
<title>Node0x60000073e370</title>
<polygon fill="none" stroke="black" points="3615,-9 3615,-77 3703,-77 3703,-9 3615,-9"/>
<text text-anchor="middle" x="3659" y="-66.6" font-family="Times,serif" font-size="8.00">word: Methinks</text>
<polyline fill="none" stroke="black" points="3615,-60 3703,-60 "/>
<text text-anchor="middle" x="3659" y="-49.6" font-family="Times,serif" font-size="8.00">size: 1</text>
<polyline fill="none" stroke="black" points="3615,-43 3703,-43 "/>
<text text-anchor="middle" x="3659" y="-32.6" font-family="Times,serif" font-size="8.00">next: 0x60000073f1b0</text>
<polyline fill="none" stroke="black" points="3615,-26 3703,-26 "/>
<text text-anchor="middle" x="3659" y="-15.6" font-family="Times,serif" font-size="8.00">prev: 0x6000007395c0</text>
</g>
<!-- Node0x6000007395c0&#45;&gt;Node0x60000073e370 -->
<g id="edge29" class="edge">
<title>Node0x6000007395c0:n&#45;&gt;Node0x60000073e370:n</title>
<path fill="none" stroke="red" d="M3579,-34C3591,-34 3596.25,-34 3604.88,-34"/>
<polygon fill="red" stroke="red" points="3605,-37.5 3615,-34 3605,-30.5 3605,-37.5"/>
</g>
<!-- Node0x60000073f1b0 -->
<g id="node31" class="node">
<title>Node0x60000073f1b0</title>
<polygon fill="none" stroke="black" points="3739,-9 3739,-77 3827,-77 3827,-9 3739,-9"/>
<text text-anchor="middle" x="3783" y="-66.6" font-family="Times,serif" font-size="8.00">word: fettle</text>
<polyline fill="none" stroke="black" points="3739,-60 3827,-60 "/>
<text text-anchor="middle" x="3783" y="-49.6" font-family="Times,serif" font-size="8.00">size: 1</text>
<polyline fill="none" stroke="black" points="3739,-43 3827,-43 "/>
<text text-anchor="middle" x="3783" y="-32.6" font-family="Times,serif" font-size="8.00">next: 0x600000721a40</text>
<polyline fill="none" stroke="black" points="3739,-26 3827,-26 "/>
<text text-anchor="middle" x="3783" y="-15.6" font-family="Times,serif" font-size="8.00">prev: 0x60000073e370</text>
</g>
<!-- Node0x60000073e370&#45;&gt;Node0x60000073f1b0 -->
<g id="edge30" class="edge">
<title>Node0x60000073e370:n&#45;&gt;Node0x60000073f1b0:n</title>
<path fill="none" stroke="red" d="M3703,-34C3715,-34 3720.25,-34 3728.88,-34"/>
<polygon fill="red" stroke="red" points="3729,-37.5 3739,-34 3729,-30.5 3729,-37.5"/>
</g>
<!-- Node0x600000721a40 -->
<g id="node32" class="node">
<title>Node0x600000721a40</title>
<polygon fill="none" stroke="black" points="3863,-9 3863,-77 3950,-77 3950,-9 3863,-9"/>
<text text-anchor="middle" x="3906.5" y="-66.6" font-family="Times,serif" font-size="8.00">word: resort</text>
<polyline fill="none" stroke="black" points="3863,-60 3950,-60 "/>
<text text-anchor="middle" x="3906.5" y="-49.6" font-family="Times,serif" font-size="8.00">size: 1</text>
<polyline fill="none" stroke="black" points="3863,-43 3950,-43 "/>
<text text-anchor="middle" x="3906.5" y="-32.6" font-family="Times,serif" font-size="8.00">next: 0x60000070c720</text>
<polyline fill="none" stroke="black" points="3863,-26 3950,-26 "/>
<text text-anchor="middle" x="3906.5" y="-15.6" font-family="Times,serif" font-size="8.00">prev: 0x60000073f1b0</text>
</g>
<!-- Node0x60000073f1b0&#45;&gt;Node0x600000721a40 -->
<g id="edge31" class="edge">
<title>Node0x60000073f1b0:n&#45;&gt;Node0x600000721a40:n</title>
<path fill="none" stroke="red" d="M3827,-34C3839,-34 3844.25,-34 3852.88,-34"/>
<polygon fill="red" stroke="red" points="3853,-37.5 3863,-34 3853,-30.5 3853,-37.5"/>
</g>
<!-- Node0x60000070c720 -->
<g id="node33" class="node">
<title>Node0x60000070c720</title>
<polygon fill="none" stroke="black" points="3986,-9 3986,-77 4074,-77 4074,-9 3986,-9"/>
<text text-anchor="middle" x="4030" y="-66.6" font-family="Times,serif" font-size="8.00">word: hood</text>
<polyline fill="none" stroke="black" points="3986,-60 4074,-60 "/>
<text text-anchor="middle" x="4030" y="-49.6" font-family="Times,serif" font-size="8.00">size: 2</text>
<polyline fill="none" stroke="black" points="3986,-43 4074,-43 "/>
<text text-anchor="middle" x="4030" y="-32.6" font-family="Times,serif" font-size="8.00">next: 0x600000724720</text>
<polyline fill="none" stroke="black" points="3986,-26 4074,-26 "/>
<text text-anchor="middle" x="4030" y="-15.6" font-family="Times,serif" font-size="8.00">prev: 0x600000721a40</text>
</g>
<!-- Node0x600000721a40&#45;&gt;Node0x60000070c720 -->
<g id="edge32" class="edge">
<title>Node0x600000721a40:n&#45;&gt;Node0x60000070c720:n</title>
<path fill="none" stroke="red" d="M3950,-34C3962,-34 3967.25,-34 3975.88,-34"/>
<polygon fill="red" stroke="red" points="3976,-37.5 3986,-34 3976,-30.5 3976,-37.5"/>
</g>
<!-- Node0x600000724720 -->
<g id="node34" class="node">
<title>Node0x600000724720</title>
<polygon fill="none" stroke="black" points="4110,-9 4110,-77 4198,-77 4198,-9 4110,-9"/>
<text text-anchor="middle" x="4154" y="-66.6" font-family="Times,serif" font-size="8.00">word: Buy</text>
<polyline fill="none" stroke="black" points="4110,-60 4198,-60 "/>
<text text-anchor="middle" x="4154" y="-49.6" font-family="Times,serif" font-size="8.00">size: 1</text>
<polyline fill="none" stroke="black" points="4110,-43 4198,-43 "/>
<text text-anchor="middle" x="4154" y="-32.6" font-family="Times,serif" font-size="8.00">next: 0x600000725020</text>
<polyline fill="none" stroke="black" points="4110,-26 4198,-26 "/>
<text text-anchor="middle" x="4154" y="-15.6" font-family="Times,serif" font-size="8.00">prev: 0x60000070c720</text>
</g>
<!-- Node0x60000070c720&#45;&gt;Node0x600000724720 -->
<g id="edge33" class="edge">
<title>Node0x60000070c720:n&#45;&gt;Node0x600000724720:n</title>
<path fill="none" stroke="red" d="M4074,-34C4086,-34 4091.25,-34 4099.88,-34"/>
<polygon fill="red" stroke="red" points="4100,-37.5 4110,-34 4100,-30.5 4100,-37.5"/>
</g>
<!-- Node0x600000725020 -->
<g id="node35" class="node">
<title>Node0x600000725020</title>
<polygon fill="none" stroke="black" points="4234,-9 4234,-77 4322,-77 4322,-9 4234,-9"/>
<text text-anchor="middle" x="4278" y="-66.6" font-family="Times,serif" font-size="8.00">word: mattock</text>
<polyline fill="none" stroke="black" points="4234,-60 4322,-60 "/>
<text text-anchor="middle" x="4278" y="-49.6" font-family="Times,serif" font-size="8.00">size: 3</text>
<polyline fill="none" stroke="black" points="4234,-43 4322,-43 "/>
<text text-anchor="middle" x="4278" y="-32.6" font-family="Times,serif" font-size="8.00">next: 0x0</text>
<polyline fill="none" stroke="black" points="4234,-26 4322,-26 "/>
<text text-anchor="middle" x="4278" y="-15.6" font-family="Times,serif" font-size="8.00">prev: 0x600000724720</text>
</g>
<!-- Node0x600000724720&#45;&gt;Node0x600000725020 -->
<g id="edge34" class="edge">
<title>Node0x600000724720:n&#45;&gt;Node0x600000725020:n</title>
<path fill="none" stroke="red" d="M4198,-34C4210,-34 4215.25,-34 4223.88,-34"/>
<polygon fill="red" stroke="red" points="4224,-37.5 4234,-34 4224,-30.5 4224,-37.5"/>
</g>
</g>
</svg>
