<?xml version="1.0" encoding="UTF-8" standalone="no"?>
<!DOCTYPE svg PUBLIC "-//W3C//DTD SVG 1.1//EN"
 "http://www.w3.org/Graphics/SVG/1.1/DTD/svg11.dtd">
<!-- Generated by graphviz version 2.50.0 (20211204.2007)
 -->
<!-- Title: G Pages: 1 -->
<svg width="4196pt" height="117pt"
 viewBox="0.00 0.00 4196.00 117.00" xmlns="http://www.w3.org/2000/svg" xmlns:xlink="http://www.w3.org/1999/xlink">
<g id="graph0" class="graph" transform="scale(1 1) rotate(0) translate(4 113)">
<title>G</title>
<polygon fill="white" stroke="transparent" points="-4,4 -4,-113 4192,-113 4192,4 -4,4"/>
<g id="clust1" class="cluster">
<title>cluster408</title>
<polygon fill="none" stroke="black" points="8,-8 8,-101 94,-101 94,-8 8,-8"/>
<text text-anchor="middle" x="51" y="-85.8" font-family="Times,serif" font-size="14.00">408</text>
</g>
<g id="clust2" class="cluster">
<title>cluster409</title>
<polygon fill="none" stroke="black" points="130,-8 130,-101 217,-101 217,-8 130,-8"/>
<text text-anchor="middle" x="173.5" y="-85.8" font-family="Times,serif" font-size="14.00">409</text>
</g>
<g id="clust3" class="cluster">
<title>cluster410</title>
<polygon fill="none" stroke="black" points="253,-8 253,-101 340,-101 340,-8 253,-8"/>
<text text-anchor="middle" x="296.5" y="-85.8" font-family="Times,serif" font-size="14.00">410</text>
</g>
<g id="clust4" class="cluster">
<title>cluster411</title>
<polygon fill="none" stroke="black" points="376,-8 376,-101 463,-101 463,-8 376,-8"/>
<text text-anchor="middle" x="419.5" y="-85.8" font-family="Times,serif" font-size="14.00">411</text>
</g>
<g id="clust5" class="cluster">
<title>cluster412</title>
<polygon fill="none" stroke="black" points="499,-8 499,-101 587,-101 587,-8 499,-8"/>
<text text-anchor="middle" x="543" y="-85.8" font-family="Times,serif" font-size="14.00">412</text>
</g>
<g id="clust6" class="cluster">
<title>cluster413</title>
<polygon fill="none" stroke="black" points="623,-8 623,-101 711,-101 711,-8 623,-8"/>
<text text-anchor="middle" x="667" y="-85.8" font-family="Times,serif" font-size="14.00">413</text>
</g>
<g id="clust7" class="cluster">
<title>cluster414</title>
<polygon fill="none" stroke="black" points="747,-8 747,-101 835,-101 835,-8 747,-8"/>
<text text-anchor="middle" x="791" y="-85.8" font-family="Times,serif" font-size="14.00">414</text>
</g>
<g id="clust8" class="cluster">
<title>cluster415</title>
<polygon fill="none" stroke="black" points="871,-8 871,-101 959,-101 959,-8 871,-8"/>
<text text-anchor="middle" x="915" y="-85.8" font-family="Times,serif" font-size="14.00">415</text>
</g>
<g id="clust9" class="cluster">
<title>cluster416</title>
<polygon fill="none" stroke="black" points="995,-8 995,-101 1083,-101 1083,-8 995,-8"/>
<text text-anchor="middle" x="1039" y="-85.8" font-family="Times,serif" font-size="14.00">416</text>
</g>
<g id="clust10" class="cluster">
<title>cluster417</title>
<polygon fill="none" stroke="black" points="1119,-8 1119,-101 1207,-101 1207,-8 1119,-8"/>
<text text-anchor="middle" x="1163" y="-85.8" font-family="Times,serif" font-size="14.00">417</text>
</g>
<g id="clust11" class="cluster">
<title>cluster418</title>
<polygon fill="none" stroke="black" points="1243,-8 1243,-101 1330,-101 1330,-8 1243,-8"/>
<text text-anchor="middle" x="1286.5" y="-85.8" font-family="Times,serif" font-size="14.00">418</text>
</g>
<g id="clust12" class="cluster">
<title>cluster419</title>
<polygon fill="none" stroke="black" points="1366,-8 1366,-101 1454,-101 1454,-8 1366,-8"/>
<text text-anchor="middle" x="1410" y="-85.8" font-family="Times,serif" font-size="14.00">419</text>
</g>
<g id="clust13" class="cluster">
<title>cluster420</title>
<polygon fill="none" stroke="black" points="1490,-8 1490,-101 1578,-101 1578,-8 1490,-8"/>
<text text-anchor="middle" x="1534" y="-85.8" font-family="Times,serif" font-size="14.00">420</text>
</g>
<g id="clust14" class="cluster">
<title>cluster421</title>
<polygon fill="none" stroke="black" points="1614,-8 1614,-101 1701,-101 1701,-8 1614,-8"/>
<text text-anchor="middle" x="1657.5" y="-85.8" font-family="Times,serif" font-size="14.00">421</text>
</g>
<g id="clust15" class="cluster">
<title>cluster422</title>
<polygon fill="none" stroke="black" points="1737,-8 1737,-101 1825,-101 1825,-8 1737,-8"/>
<text text-anchor="middle" x="1781" y="-85.8" font-family="Times,serif" font-size="14.00">422</text>
</g>
<g id="clust16" class="cluster">
<title>cluster423</title>
<polygon fill="none" stroke="black" points="1861,-8 1861,-101 1949,-101 1949,-8 1861,-8"/>
<text text-anchor="middle" x="1905" y="-85.8" font-family="Times,serif" font-size="14.00">423</text>
</g>
<g id="clust17" class="cluster">
<title>cluster424</title>
<polygon fill="none" stroke="black" points="1985,-8 1985,-101 2073,-101 2073,-8 1985,-8"/>
<text text-anchor="middle" x="2029" y="-85.8" font-family="Times,serif" font-size="14.00">424</text>
</g>
<g id="clust18" class="cluster">
<title>cluster425</title>
<polygon fill="none" stroke="black" points="2109,-8 2109,-101 2197,-101 2197,-8 2109,-8"/>
<text text-anchor="middle" x="2153" y="-85.8" font-family="Times,serif" font-size="14.00">425</text>
</g>
<g id="clust19" class="cluster">
<title>cluster426</title>
<polygon fill="none" stroke="black" points="2233,-8 2233,-101 2321,-101 2321,-8 2233,-8"/>
<text text-anchor="middle" x="2277" y="-85.8" font-family="Times,serif" font-size="14.00">426</text>
</g>
<g id="clust20" class="cluster">
<title>cluster427</title>
<polygon fill="none" stroke="black" points="2357,-8 2357,-101 2445,-101 2445,-8 2357,-8"/>
<text text-anchor="middle" x="2401" y="-85.8" font-family="Times,serif" font-size="14.00">427</text>
</g>
<g id="clust21" class="cluster">
<title>cluster428</title>
<polygon fill="none" stroke="black" points="2481,-8 2481,-101 2569,-101 2569,-8 2481,-8"/>
<text text-anchor="middle" x="2525" y="-85.8" font-family="Times,serif" font-size="14.00">428</text>
</g>
<g id="clust22" class="cluster">
<title>cluster429</title>
<polygon fill="none" stroke="black" points="2605,-8 2605,-101 2693,-101 2693,-8 2605,-8"/>
<text text-anchor="middle" x="2649" y="-85.8" font-family="Times,serif" font-size="14.00">429</text>
</g>
<g id="clust23" class="cluster">
<title>cluster430</title>
<polygon fill="none" stroke="black" points="2729,-8 2729,-101 2817,-101 2817,-8 2729,-8"/>
<text text-anchor="middle" x="2773" y="-85.8" font-family="Times,serif" font-size="14.00">430</text>
</g>
<g id="clust24" class="cluster">
<title>cluster431</title>
<polygon fill="none" stroke="black" points="2853,-8 2853,-101 2941,-101 2941,-8 2853,-8"/>
<text text-anchor="middle" x="2897" y="-85.8" font-family="Times,serif" font-size="14.00">431</text>
</g>
<g id="clust25" class="cluster">
<title>cluster432</title>
<polygon fill="none" stroke="black" points="2977,-8 2977,-101 3065,-101 3065,-8 2977,-8"/>
<text text-anchor="middle" x="3021" y="-85.8" font-family="Times,serif" font-size="14.00">432</text>
</g>
<g id="clust26" class="cluster">
<title>cluster433</title>
<polygon fill="none" stroke="black" points="3101,-8 3101,-101 3189,-101 3189,-8 3101,-8"/>
<text text-anchor="middle" x="3145" y="-85.8" font-family="Times,serif" font-size="14.00">433</text>
</g>
<g id="clust27" class="cluster">
<title>cluster434</title>
<polygon fill="none" stroke="black" points="3225,-8 3225,-101 3312,-101 3312,-8 3225,-8"/>
<text text-anchor="middle" x="3268.5" y="-85.8" font-family="Times,serif" font-size="14.00">434</text>
</g>
<g id="clust28" class="cluster">
<title>cluster435</title>
<polygon fill="none" stroke="black" points="3348,-8 3348,-101 3436,-101 3436,-8 3348,-8"/>
<text text-anchor="middle" x="3392" y="-85.8" font-family="Times,serif" font-size="14.00">435</text>
</g>
<g id="clust29" class="cluster">
<title>cluster436</title>
<polygon fill="none" stroke="black" points="3472,-8 3472,-101 3560,-101 3560,-8 3472,-8"/>
<text text-anchor="middle" x="3516" y="-85.8" font-family="Times,serif" font-size="14.00">436</text>
</g>
<g id="clust30" class="cluster">
<title>cluster437</title>
<polygon fill="none" stroke="black" points="3596,-8 3596,-101 3684,-101 3684,-8 3596,-8"/>
<text text-anchor="middle" x="3640" y="-85.8" font-family="Times,serif" font-size="14.00">437</text>
</g>
<g id="clust31" class="cluster">
<title>cluster438</title>
<polygon fill="none" stroke="black" points="3720,-8 3720,-101 3808,-101 3808,-8 3720,-8"/>
<text text-anchor="middle" x="3764" y="-85.8" font-family="Times,serif" font-size="14.00">438</text>
</g>
<g id="clust32" class="cluster">
<title>cluster439</title>
<polygon fill="none" stroke="black" points="3844,-8 3844,-101 3932,-101 3932,-8 3844,-8"/>
<text text-anchor="middle" x="3888" y="-85.8" font-family="Times,serif" font-size="14.00">439</text>
</g>
<g id="clust33" class="cluster">
<title>cluster440</title>
<polygon fill="none" stroke="black" points="3968,-8 3968,-101 4056,-101 4056,-8 3968,-8"/>
<text text-anchor="middle" x="4012" y="-85.8" font-family="Times,serif" font-size="14.00">440</text>
</g>
<g id="clust34" class="cluster">
<title>cluster441</title>
<polygon fill="none" stroke="black" points="4092,-8 4092,-101 4180,-101 4180,-8 4092,-8"/>
<text text-anchor="middle" x="4136" y="-85.8" font-family="Times,serif" font-size="14.00">441</text>
</g>
<!-- Node0x600001e61f20 -->
<g id="node1" class="node">
<title>Node0x600001e61f20</title>
<polygon fill="none" stroke="black" points="8,-9 8,-77 94,-77 94,-9 8,-9"/>
<text text-anchor="middle" x="51" y="-66.6" font-family="Times,serif" font-size="8.00">word: remove</text>
<polyline fill="none" stroke="black" points="8,-60 94,-60 "/>
<text text-anchor="middle" x="51" y="-49.6" font-family="Times,serif" font-size="8.00">size: 4</text>
<polyline fill="none" stroke="black" points="8,-43 94,-43 "/>
<text text-anchor="middle" x="51" y="-32.6" font-family="Times,serif" font-size="8.00">next: 0x600001e6f690</text>
<polyline fill="none" stroke="black" points="8,-26 94,-26 "/>
<text text-anchor="middle" x="51" y="-15.6" font-family="Times,serif" font-size="8.00">prev: 0x0</text>
</g>
<!-- Node0x600001e6f690 -->
<g id="node2" class="node">
<title>Node0x600001e6f690</title>
<polygon fill="none" stroke="black" points="130,-9 130,-77 217,-77 217,-9 130,-9"/>
<text text-anchor="middle" x="173.5" y="-66.6" font-family="Times,serif" font-size="8.00">word: buds</text>
<polyline fill="none" stroke="black" points="130,-60 217,-60 "/>
<text text-anchor="middle" x="173.5" y="-49.6" font-family="Times,serif" font-size="8.00">size: 1</text>
<polyline fill="none" stroke="black" points="130,-43 217,-43 "/>
<text text-anchor="middle" x="173.5" y="-32.6" font-family="Times,serif" font-size="8.00">next: 0x600001e6f7b0</text>
<polyline fill="none" stroke="black" points="130,-26 217,-26 "/>
<text text-anchor="middle" x="173.5" y="-15.6" font-family="Times,serif" font-size="8.00">prev: 0x600001e61f20</text>
</g>
<!-- Node0x600001e61f20&#45;&gt;Node0x600001e6f690 -->
<g id="edge1" class="edge">
<title>Node0x600001e61f20:n&#45;&gt;Node0x600001e6f690:n</title>
<path fill="none" stroke="red" d="M94,-34C106,-34 111.25,-34 119.88,-34"/>
<polygon fill="red" stroke="red" points="120,-37.5 130,-34 120,-30.5 120,-37.5"/>
</g>
<!-- Node0x600001e6f7b0 -->
<g id="node3" class="node">
<title>Node0x600001e6f7b0</title>
<polygon fill="none" stroke="black" points="253,-9 253,-77 340,-77 340,-9 253,-9"/>
<text text-anchor="middle" x="296.5" y="-66.6" font-family="Times,serif" font-size="8.00">word: reck</text>
<polyline fill="none" stroke="black" points="253,-60 340,-60 "/>
<text text-anchor="middle" x="296.5" y="-49.6" font-family="Times,serif" font-size="8.00">size: 1</text>
<polyline fill="none" stroke="black" points="253,-43 340,-43 "/>
<text text-anchor="middle" x="296.5" y="-32.6" font-family="Times,serif" font-size="8.00">next: 0x600001e70870</text>
<polyline fill="none" stroke="black" points="253,-26 340,-26 "/>
<text text-anchor="middle" x="296.5" y="-15.6" font-family="Times,serif" font-size="8.00">prev: 0x600001e6f690</text>
</g>
<!-- Node0x600001e6f690&#45;&gt;Node0x600001e6f7b0 -->
<g id="edge2" class="edge">
<title>Node0x600001e6f690:n&#45;&gt;Node0x600001e6f7b0:n</title>
<path fill="none" stroke="red" d="M217,-34C229,-34 234.25,-34 242.88,-34"/>
<polygon fill="red" stroke="red" points="243,-37.5 253,-34 243,-30.5 243,-37.5"/>
</g>
<!-- Node0x600001e70870 -->
<g id="node4" class="node">
<title>Node0x600001e70870</title>
<polygon fill="none" stroke="black" points="376,-9 376,-77 463,-77 463,-9 376,-9"/>
<text text-anchor="middle" x="419.5" y="-66.6" font-family="Times,serif" font-size="8.00">word: reads</text>
<polyline fill="none" stroke="black" points="376,-60 463,-60 "/>
<text text-anchor="middle" x="419.5" y="-49.6" font-family="Times,serif" font-size="8.00">size: 1</text>
<polyline fill="none" stroke="black" points="376,-43 463,-43 "/>
<text text-anchor="middle" x="419.5" y="-32.6" font-family="Times,serif" font-size="8.00">next: 0x600001e656b0</text>
<polyline fill="none" stroke="black" points="376,-26 463,-26 "/>
<text text-anchor="middle" x="419.5" y="-15.6" font-family="Times,serif" font-size="8.00">prev: 0x600001e6f7b0</text>
</g>
<!-- Node0x600001e6f7b0&#45;&gt;Node0x600001e70870 -->
<g id="edge3" class="edge">
<title>Node0x600001e6f7b0:n&#45;&gt;Node0x600001e70870:n</title>
<path fill="none" stroke="red" d="M340,-34C352,-34 357.25,-34 365.88,-34"/>
<polygon fill="red" stroke="red" points="366,-37.5 376,-34 366,-30.5 366,-37.5"/>
</g>
<!-- Node0x600001e656b0 -->
<g id="node5" class="node">
<title>Node0x600001e656b0</title>
<polygon fill="none" stroke="black" points="499,-9 499,-77 587,-77 587,-9 499,-9"/>
<text text-anchor="middle" x="543" y="-66.6" font-family="Times,serif" font-size="8.00">word: thousand</text>
<polyline fill="none" stroke="black" points="499,-60 587,-60 "/>
<text text-anchor="middle" x="543" y="-49.6" font-family="Times,serif" font-size="8.00">size: 7</text>
<polyline fill="none" stroke="black" points="499,-43 587,-43 "/>
<text text-anchor="middle" x="543" y="-32.6" font-family="Times,serif" font-size="8.00">next: 0x600001e66220</text>
<polyline fill="none" stroke="black" points="499,-26 587,-26 "/>
<text text-anchor="middle" x="543" y="-15.6" font-family="Times,serif" font-size="8.00">prev: 0x600001e70870</text>
</g>
<!-- Node0x600001e70870&#45;&gt;Node0x600001e656b0 -->
<g id="edge4" class="edge">
<title>Node0x600001e70870:n&#45;&gt;Node0x600001e656b0:n</title>
<path fill="none" stroke="red" d="M463,-34C475,-34 480.25,-34 488.88,-34"/>
<polygon fill="red" stroke="red" points="489,-37.5 499,-34 489,-30.5 489,-37.5"/>
</g>
<!-- Node0x600001e66220 -->
<g id="node6" class="node">
<title>Node0x600001e66220</title>
<polygon fill="none" stroke="black" points="623,-9 623,-77 711,-77 711,-9 623,-9"/>
<text text-anchor="middle" x="667" y="-66.6" font-family="Times,serif" font-size="8.00">word: margent</text>
<polyline fill="none" stroke="black" points="623,-60 711,-60 "/>
<text text-anchor="middle" x="667" y="-49.6" font-family="Times,serif" font-size="8.00">size: 1</text>
<polyline fill="none" stroke="black" points="623,-43 711,-43 "/>
<text text-anchor="middle" x="667" y="-32.6" font-family="Times,serif" font-size="8.00">next: 0x600001e754a0</text>
<polyline fill="none" stroke="black" points="623,-26 711,-26 "/>
<text text-anchor="middle" x="667" y="-15.6" font-family="Times,serif" font-size="8.00">prev: 0x600001e656b0</text>
</g>
<!-- Node0x600001e656b0&#45;&gt;Node0x600001e66220 -->
<g id="edge5" class="edge">
<title>Node0x600001e656b0:n&#45;&gt;Node0x600001e66220:n</title>
<path fill="none" stroke="red" d="M587,-34C599,-34 604.25,-34 612.88,-34"/>
<polygon fill="red" stroke="red" points="613,-37.5 623,-34 613,-30.5 613,-37.5"/>
</g>
<!-- Node0x600001e754a0 -->
<g id="node7" class="node">
<title>Node0x600001e754a0</title>
<polygon fill="none" stroke="black" points="747,-9 747,-77 835,-77 835,-9 747,-9"/>
<text text-anchor="middle" x="791" y="-66.6" font-family="Times,serif" font-size="8.00">word: substance</text>
<polyline fill="none" stroke="black" points="747,-60 835,-60 "/>
<text text-anchor="middle" x="791" y="-49.6" font-family="Times,serif" font-size="8.00">size: 3</text>
<polyline fill="none" stroke="black" points="747,-43 835,-43 "/>
<text text-anchor="middle" x="791" y="-32.6" font-family="Times,serif" font-size="8.00">next: 0x600001e76ee0</text>
<polyline fill="none" stroke="black" points="747,-26 835,-26 "/>
<text text-anchor="middle" x="791" y="-15.6" font-family="Times,serif" font-size="8.00">prev: 0x600001e66220</text>
</g>
<!-- Node0x600001e66220&#45;&gt;Node0x600001e754a0 -->
<g id="edge6" class="edge">
<title>Node0x600001e66220:n&#45;&gt;Node0x600001e754a0:n</title>
<path fill="none" stroke="red" d="M711,-34C723,-34 728.25,-34 736.88,-34"/>
<polygon fill="red" stroke="red" points="737,-37.5 747,-34 737,-30.5 737,-37.5"/>
</g>
<!-- Node0x600001e76ee0 -->
<g id="node8" class="node">
<title>Node0x600001e76ee0</title>
<polygon fill="none" stroke="black" points="871,-9 871,-77 959,-77 959,-9 871,-9"/>
<text text-anchor="middle" x="915" y="-66.6" font-family="Times,serif" font-size="8.00">word: Young</text>
<polyline fill="none" stroke="black" points="871,-60 959,-60 "/>
<text text-anchor="middle" x="915" y="-49.6" font-family="Times,serif" font-size="8.00">size: 4</text>
<polyline fill="none" stroke="black" points="871,-43 959,-43 "/>
<text text-anchor="middle" x="915" y="-32.6" font-family="Times,serif" font-size="8.00">next: 0x600001e770c0</text>
<polyline fill="none" stroke="black" points="871,-26 959,-26 "/>
<text text-anchor="middle" x="915" y="-15.6" font-family="Times,serif" font-size="8.00">prev: 0x600001e754a0</text>
</g>
<!-- Node0x600001e754a0&#45;&gt;Node0x600001e76ee0 -->
<g id="edge7" class="edge">
<title>Node0x600001e754a0:n&#45;&gt;Node0x600001e76ee0:n</title>
<path fill="none" stroke="red" d="M835,-34C847,-34 852.25,-34 860.88,-34"/>
<polygon fill="red" stroke="red" points="861,-37.5 871,-34 861,-30.5 861,-37.5"/>
</g>
<!-- Node0x600001e770c0 -->
<g id="node9" class="node">
<title>Node0x600001e770c0</title>
<polygon fill="none" stroke="black" points="995,-9 995,-77 1083,-77 1083,-9 995,-9"/>
<text text-anchor="middle" x="1039" y="-66.6" font-family="Times,serif" font-size="8.00">word: wealth</text>
<polyline fill="none" stroke="black" points="995,-60 1083,-60 "/>
<text text-anchor="middle" x="1039" y="-49.6" font-family="Times,serif" font-size="8.00">size: 2</text>
<polyline fill="none" stroke="black" points="995,-43 1083,-43 "/>
<text text-anchor="middle" x="1039" y="-32.6" font-family="Times,serif" font-size="8.00">next: 0x600001e6fe10</text>
<polyline fill="none" stroke="black" points="995,-26 1083,-26 "/>
<text text-anchor="middle" x="1039" y="-15.6" font-family="Times,serif" font-size="8.00">prev: 0x600001e76ee0</text>
</g>
<!-- Node0x600001e76ee0&#45;&gt;Node0x600001e770c0 -->
<g id="edge8" class="edge">
<title>Node0x600001e76ee0:n&#45;&gt;Node0x600001e770c0:n</title>
<path fill="none" stroke="red" d="M959,-34C971,-34 976.25,-34 984.88,-34"/>
<polygon fill="red" stroke="red" points="985,-37.5 995,-34 985,-30.5 985,-37.5"/>
</g>
<!-- Node0x600001e6fe10 -->
<g id="node10" class="node">
<title>Node0x600001e6fe10</title>
<polygon fill="none" stroke="black" points="1119,-9 1119,-77 1207,-77 1207,-9 1119,-9"/>
<text text-anchor="middle" x="1163" y="-66.6" font-family="Times,serif" font-size="8.00">word: n</text>
<polyline fill="none" stroke="black" points="1119,-60 1207,-60 "/>
<text text-anchor="middle" x="1163" y="-49.6" font-family="Times,serif" font-size="8.00">size: 3</text>
<polyline fill="none" stroke="black" points="1119,-43 1207,-43 "/>
<text text-anchor="middle" x="1163" y="-32.6" font-family="Times,serif" font-size="8.00">next: 0x600001e7d050</text>
<polyline fill="none" stroke="black" points="1119,-26 1207,-26 "/>
<text text-anchor="middle" x="1163" y="-15.6" font-family="Times,serif" font-size="8.00">prev: 0x600001e770c0</text>
</g>
<!-- Node0x600001e770c0&#45;&gt;Node0x600001e6fe10 -->
<g id="edge9" class="edge">
<title>Node0x600001e770c0:n&#45;&gt;Node0x600001e6fe10:n</title>
<path fill="none" stroke="red" d="M1083,-34C1095,-34 1100.25,-34 1108.88,-34"/>
<polygon fill="red" stroke="red" points="1109,-37.5 1119,-34 1109,-30.5 1109,-37.5"/>
</g>
<!-- Node0x600001e7d050 -->
<g id="node11" class="node">
<title>Node0x600001e7d050</title>
<polygon fill="none" stroke="black" points="1243,-9 1243,-77 1330,-77 1330,-9 1243,-9"/>
<text text-anchor="middle" x="1286.5" y="-66.6" font-family="Times,serif" font-size="8.00">word: leans</text>
<polyline fill="none" stroke="black" points="1243,-60 1330,-60 "/>
<text text-anchor="middle" x="1286.5" y="-49.6" font-family="Times,serif" font-size="8.00">size: 1</text>
<polyline fill="none" stroke="black" points="1243,-43 1330,-43 "/>
<text text-anchor="middle" x="1286.5" y="-32.6" font-family="Times,serif" font-size="8.00">next: 0x600001e7d560</text>
<polyline fill="none" stroke="black" points="1243,-26 1330,-26 "/>
<text text-anchor="middle" x="1286.5" y="-15.6" font-family="Times,serif" font-size="8.00">prev: 0x600001e6fe10</text>
</g>
<!-- Node0x600001e6fe10&#45;&gt;Node0x600001e7d050 -->
<g id="edge10" class="edge">
<title>Node0x600001e6fe10:n&#45;&gt;Node0x600001e7d050:n</title>
<path fill="none" stroke="red" d="M1207,-34C1219,-34 1224.25,-34 1232.88,-34"/>
<polygon fill="red" stroke="red" points="1233,-37.5 1243,-34 1233,-30.5 1233,-37.5"/>
</g>
<!-- Node0x600001e7d560 -->
<g id="node12" class="node">
<title>Node0x600001e7d560</title>
<polygon fill="none" stroke="black" points="1366,-9 1366,-77 1454,-77 1454,-9 1366,-9"/>
<text text-anchor="middle" x="1410" y="-66.6" font-family="Times,serif" font-size="8.00">word: Without</text>
<polyline fill="none" stroke="black" points="1366,-60 1454,-60 "/>
<text text-anchor="middle" x="1410" y="-49.6" font-family="Times,serif" font-size="8.00">size: 3</text>
<polyline fill="none" stroke="black" points="1366,-43 1454,-43 "/>
<text text-anchor="middle" x="1410" y="-32.6" font-family="Times,serif" font-size="8.00">next: 0x600001e7d8f0</text>
<polyline fill="none" stroke="black" points="1366,-26 1454,-26 "/>
<text text-anchor="middle" x="1410" y="-15.6" font-family="Times,serif" font-size="8.00">prev: 0x600001e7d050</text>
</g>
<!-- Node0x600001e7d050&#45;&gt;Node0x600001e7d560 -->
<g id="edge11" class="edge">
<title>Node0x600001e7d050:n&#45;&gt;Node0x600001e7d560:n</title>
<path fill="none" stroke="red" d="M1330,-34C1342,-34 1347.25,-34 1355.88,-34"/>
<polygon fill="red" stroke="red" points="1356,-37.5 1366,-34 1356,-30.5 1356,-37.5"/>
</g>
<!-- Node0x600001e7d8f0 -->
<g id="node13" class="node">
<title>Node0x600001e7d8f0</title>
<polygon fill="none" stroke="black" points="1490,-9 1490,-77 1578,-77 1578,-9 1490,-9"/>
<text text-anchor="middle" x="1534" y="-66.6" font-family="Times,serif" font-size="8.00">word: cam</text>
<polyline fill="none" stroke="black" points="1490,-60 1578,-60 "/>
<text text-anchor="middle" x="1534" y="-49.6" font-family="Times,serif" font-size="8.00">size: 2</text>
<polyline fill="none" stroke="black" points="1490,-43 1578,-43 "/>
<text text-anchor="middle" x="1534" y="-32.6" font-family="Times,serif" font-size="8.00">next: 0x600001e7e370</text>
<polyline fill="none" stroke="black" points="1490,-26 1578,-26 "/>
<text text-anchor="middle" x="1534" y="-15.6" font-family="Times,serif" font-size="8.00">prev: 0x600001e7d560</text>
</g>
<!-- Node0x600001e7d560&#45;&gt;Node0x600001e7d8f0 -->
<g id="edge12" class="edge">
<title>Node0x600001e7d560:n&#45;&gt;Node0x600001e7d8f0:n</title>
<path fill="none" stroke="red" d="M1454,-34C1466,-34 1471.25,-34 1479.88,-34"/>
<polygon fill="red" stroke="red" points="1480,-37.5 1490,-34 1480,-30.5 1480,-37.5"/>
</g>
<!-- Node0x600001e7e370 -->
<g id="node14" class="node">
<title>Node0x600001e7e370</title>
<polygon fill="none" stroke="black" points="1614,-9 1614,-77 1701,-77 1701,-9 1614,-9"/>
<text text-anchor="middle" x="1657.5" y="-66.6" font-family="Times,serif" font-size="8.00">word: silver</text>
<polyline fill="none" stroke="black" points="1614,-60 1701,-60 "/>
<text text-anchor="middle" x="1657.5" y="-49.6" font-family="Times,serif" font-size="8.00">size: 10</text>
<polyline fill="none" stroke="black" points="1614,-43 1701,-43 "/>
<text text-anchor="middle" x="1657.5" y="-32.6" font-family="Times,serif" font-size="8.00">next: 0x600001e7e670</text>
<polyline fill="none" stroke="black" points="1614,-26 1701,-26 "/>
<text text-anchor="middle" x="1657.5" y="-15.6" font-family="Times,serif" font-size="8.00">prev: 0x600001e7d8f0</text>
</g>
<!-- Node0x600001e7d8f0&#45;&gt;Node0x600001e7e370 -->
<g id="edge13" class="edge">
<title>Node0x600001e7d8f0:n&#45;&gt;Node0x600001e7e370:n</title>
<path fill="none" stroke="red" d="M1578,-34C1590,-34 1595.25,-34 1603.88,-34"/>
<polygon fill="red" stroke="red" points="1604,-37.5 1614,-34 1604,-30.5 1604,-37.5"/>
</g>
<!-- Node0x600001e7e670 -->
<g id="node15" class="node">
<title>Node0x600001e7e670</title>
<polygon fill="none" stroke="black" points="1737,-9 1737,-77 1825,-77 1825,-9 1737,-9"/>
<text text-anchor="middle" x="1781" y="-66.6" font-family="Times,serif" font-size="8.00">word: unadvis</text>
<polyline fill="none" stroke="black" points="1737,-60 1825,-60 "/>
<text text-anchor="middle" x="1781" y="-49.6" font-family="Times,serif" font-size="8.00">size: 1</text>
<polyline fill="none" stroke="black" points="1737,-43 1825,-43 "/>
<text text-anchor="middle" x="1781" y="-32.6" font-family="Times,serif" font-size="8.00">next: 0x600001e40030</text>
<polyline fill="none" stroke="black" points="1737,-26 1825,-26 "/>
<text text-anchor="middle" x="1781" y="-15.6" font-family="Times,serif" font-size="8.00">prev: 0x600001e7e370</text>
</g>
<!-- Node0x600001e7e370&#45;&gt;Node0x600001e7e670 -->
<g id="edge14" class="edge">
<title>Node0x600001e7e370:n&#45;&gt;Node0x600001e7e670:n</title>
<path fill="none" stroke="red" d="M1701,-34C1713,-34 1718.25,-34 1726.88,-34"/>
<polygon fill="red" stroke="red" points="1727,-37.5 1737,-34 1727,-30.5 1727,-37.5"/>
</g>
<!-- Node0x600001e40030 -->
<g id="node16" class="node">
<title>Node0x600001e40030</title>
<polygon fill="none" stroke="black" points="1861,-9 1861,-77 1949,-77 1949,-9 1861,-9"/>
<text text-anchor="middle" x="1905" y="-66.6" font-family="Times,serif" font-size="8.00">word: stumbling</text>
<polyline fill="none" stroke="black" points="1861,-60 1949,-60 "/>
<text text-anchor="middle" x="1905" y="-49.6" font-family="Times,serif" font-size="8.00">size: 1</text>
<polyline fill="none" stroke="black" points="1861,-43 1949,-43 "/>
<text text-anchor="middle" x="1905" y="-32.6" font-family="Times,serif" font-size="8.00">next: 0x600001e41410</text>
<polyline fill="none" stroke="black" points="1861,-26 1949,-26 "/>
<text text-anchor="middle" x="1905" y="-15.6" font-family="Times,serif" font-size="8.00">prev: 0x600001e7e670</text>
</g>
<!-- Node0x600001e7e670&#45;&gt;Node0x600001e40030 -->
<g id="edge15" class="edge">
<title>Node0x600001e7e670:n&#45;&gt;Node0x600001e40030:n</title>
<path fill="none" stroke="red" d="M1825,-34C1837,-34 1842.25,-34 1850.88,-34"/>
<polygon fill="red" stroke="red" points="1851,-37.5 1861,-34 1851,-30.5 1851,-37.5"/>
</g>
<!-- Node0x600001e41410 -->
<g id="node17" class="node">
<title>Node0x600001e41410</title>
<polygon fill="none" stroke="black" points="1985,-9 1985,-77 2073,-77 2073,-9 1985,-9"/>
<text text-anchor="middle" x="2029" y="-66.6" font-family="Times,serif" font-size="8.00">word: stumble</text>
<polyline fill="none" stroke="black" points="1985,-60 2073,-60 "/>
<text text-anchor="middle" x="2029" y="-49.6" font-family="Times,serif" font-size="8.00">size: 1</text>
<polyline fill="none" stroke="black" points="1985,-43 2073,-43 "/>
<text text-anchor="middle" x="2029" y="-32.6" font-family="Times,serif" font-size="8.00">next: 0x600001e41e00</text>
<polyline fill="none" stroke="black" points="1985,-26 2073,-26 "/>
<text text-anchor="middle" x="2029" y="-15.6" font-family="Times,serif" font-size="8.00">prev: 0x600001e40030</text>
</g>
<!-- Node0x600001e40030&#45;&gt;Node0x600001e41410 -->
<g id="edge16" class="edge">
<title>Node0x600001e40030:n&#45;&gt;Node0x600001e41410:n</title>
<path fill="none" stroke="red" d="M1949,-34C1961,-34 1966.25,-34 1974.88,-34"/>
<polygon fill="red" stroke="red" points="1975,-37.5 1985,-34 1975,-30.5 1975,-37.5"/>
</g>
<!-- Node0x600001e41e00 -->
<g id="node18" class="node">
<title>Node0x600001e41e00</title>
<polygon fill="none" stroke="black" points="2109,-9 2109,-77 2197,-77 2197,-9 2109,-9"/>
<text text-anchor="middle" x="2153" y="-66.6" font-family="Times,serif" font-size="8.00">word: bench</text>
<polyline fill="none" stroke="black" points="2109,-60 2197,-60 "/>
<text text-anchor="middle" x="2153" y="-49.6" font-family="Times,serif" font-size="8.00">size: 1</text>
<polyline fill="none" stroke="black" points="2109,-43 2197,-43 "/>
<text text-anchor="middle" x="2153" y="-32.6" font-family="Times,serif" font-size="8.00">next: 0x600001e44c30</text>
<polyline fill="none" stroke="black" points="2109,-26 2197,-26 "/>
<text text-anchor="middle" x="2153" y="-15.6" font-family="Times,serif" font-size="8.00">prev: 0x600001e41410</text>
</g>
<!-- Node0x600001e41410&#45;&gt;Node0x600001e41e00 -->
<g id="edge17" class="edge">
<title>Node0x600001e41410:n&#45;&gt;Node0x600001e41e00:n</title>
<path fill="none" stroke="red" d="M2073,-34C2085,-34 2090.25,-34 2098.88,-34"/>
<polygon fill="red" stroke="red" points="2099,-37.5 2109,-34 2099,-30.5 2099,-37.5"/>
</g>
<!-- Node0x600001e44c30 -->
<g id="node19" class="node">
<title>Node0x600001e44c30</title>
<polygon fill="none" stroke="black" points="2233,-9 2233,-77 2321,-77 2321,-9 2233,-9"/>
<text text-anchor="middle" x="2277" y="-66.6" font-family="Times,serif" font-size="8.00">word: body</text>
<polyline fill="none" stroke="black" points="2233,-60 2321,-60 "/>
<text text-anchor="middle" x="2277" y="-49.6" font-family="Times,serif" font-size="8.00">size: 10</text>
<polyline fill="none" stroke="black" points="2233,-43 2321,-43 "/>
<text text-anchor="middle" x="2277" y="-32.6" font-family="Times,serif" font-size="8.00">next: 0x600001e46730</text>
<polyline fill="none" stroke="black" points="2233,-26 2321,-26 "/>
<text text-anchor="middle" x="2277" y="-15.6" font-family="Times,serif" font-size="8.00">prev: 0x600001e41e00</text>
</g>
<!-- Node0x600001e41e00&#45;&gt;Node0x600001e44c30 -->
<g id="edge18" class="edge">
<title>Node0x600001e41e00:n&#45;&gt;Node0x600001e44c30:n</title>
<path fill="none" stroke="red" d="M2197,-34C2209,-34 2214.25,-34 2222.88,-34"/>
<polygon fill="red" stroke="red" points="2223,-37.5 2233,-34 2223,-30.5 2223,-37.5"/>
</g>
<!-- Node0x600001e46730 -->
<g id="node20" class="node">
<title>Node0x600001e46730</title>
<polygon fill="none" stroke="black" points="2357,-9 2357,-77 2445,-77 2445,-9 2357,-9"/>
<text text-anchor="middle" x="2401" y="-66.6" font-family="Times,serif" font-size="8.00">word: injur</text>
<polyline fill="none" stroke="black" points="2357,-60 2445,-60 "/>
<text text-anchor="middle" x="2401" y="-49.6" font-family="Times,serif" font-size="8.00">size: 1</text>
<polyline fill="none" stroke="black" points="2357,-43 2445,-43 "/>
<text text-anchor="middle" x="2401" y="-32.6" font-family="Times,serif" font-size="8.00">next: 0x600001e47c00</text>
<polyline fill="none" stroke="black" points="2357,-26 2445,-26 "/>
<text text-anchor="middle" x="2401" y="-15.6" font-family="Times,serif" font-size="8.00">prev: 0x600001e44c30</text>
</g>
<!-- Node0x600001e44c30&#45;&gt;Node0x600001e46730 -->
<g id="edge19" class="edge">
<title>Node0x600001e44c30:n&#45;&gt;Node0x600001e46730:n</title>
<path fill="none" stroke="red" d="M2321,-34C2333,-34 2338.25,-34 2346.88,-34"/>
<polygon fill="red" stroke="red" points="2347,-37.5 2357,-34 2347,-30.5 2347,-37.5"/>
</g>
<!-- Node0x600001e47c00 -->
<g id="node21" class="node">
<title>Node0x600001e47c00</title>
<polygon fill="none" stroke="black" points="2481,-9 2481,-77 2569,-77 2569,-9 2481,-9"/>
<text text-anchor="middle" x="2525" y="-66.6" font-family="Times,serif" font-size="8.00">word: newly</text>
<polyline fill="none" stroke="black" points="2481,-60 2569,-60 "/>
<text text-anchor="middle" x="2525" y="-49.6" font-family="Times,serif" font-size="8.00">size: 2</text>
<polyline fill="none" stroke="black" points="2481,-43 2569,-43 "/>
<text text-anchor="middle" x="2525" y="-32.6" font-family="Times,serif" font-size="8.00">next: 0x600001e49650</text>
<polyline fill="none" stroke="black" points="2481,-26 2569,-26 "/>
<text text-anchor="middle" x="2525" y="-15.6" font-family="Times,serif" font-size="8.00">prev: 0x600001e46730</text>
</g>
<!-- Node0x600001e46730&#45;&gt;Node0x600001e47c00 -->
<g id="edge20" class="edge">
<title>Node0x600001e46730:n&#45;&gt;Node0x600001e47c00:n</title>
<path fill="none" stroke="red" d="M2445,-34C2457,-34 2462.25,-34 2470.88,-34"/>
<polygon fill="red" stroke="red" points="2471,-37.5 2481,-34 2471,-30.5 2471,-37.5"/>
</g>
<!-- Node0x600001e49650 -->
<g id="node22" class="node">
<title>Node0x600001e49650</title>
<polygon fill="none" stroke="black" points="2605,-9 2605,-77 2693,-77 2693,-9 2605,-9"/>
<text text-anchor="middle" x="2649" y="-66.6" font-family="Times,serif" font-size="8.00">word: griefs</text>
<polyline fill="none" stroke="black" points="2605,-60 2693,-60 "/>
<text text-anchor="middle" x="2649" y="-49.6" font-family="Times,serif" font-size="8.00">size: 2</text>
<polyline fill="none" stroke="black" points="2605,-43 2693,-43 "/>
<text text-anchor="middle" x="2649" y="-32.6" font-family="Times,serif" font-size="8.00">next: 0x600001e497d0</text>
<polyline fill="none" stroke="black" points="2605,-26 2693,-26 "/>
<text text-anchor="middle" x="2649" y="-15.6" font-family="Times,serif" font-size="8.00">prev: 0x600001e47c00</text>
</g>
<!-- Node0x600001e47c00&#45;&gt;Node0x600001e49650 -->
<g id="edge21" class="edge">
<title>Node0x600001e47c00:n&#45;&gt;Node0x600001e49650:n</title>
<path fill="none" stroke="red" d="M2569,-34C2581,-34 2586.25,-34 2594.88,-34"/>
<polygon fill="red" stroke="red" points="2595,-37.5 2605,-34 2595,-30.5 2595,-37.5"/>
</g>
<!-- Node0x600001e497d0 -->
<g id="node23" class="node">
<title>Node0x600001e497d0</title>
<polygon fill="none" stroke="black" points="2729,-9 2729,-77 2817,-77 2817,-9 2729,-9"/>
<text text-anchor="middle" x="2773" y="-66.6" font-family="Times,serif" font-size="8.00">word: Sole</text>
<polyline fill="none" stroke="black" points="2729,-60 2817,-60 "/>
<text text-anchor="middle" x="2773" y="-49.6" font-family="Times,serif" font-size="8.00">size: 1</text>
<polyline fill="none" stroke="black" points="2729,-43 2817,-43 "/>
<text text-anchor="middle" x="2773" y="-32.6" font-family="Times,serif" font-size="8.00">next: 0x600001e49a40</text>
<polyline fill="none" stroke="black" points="2729,-26 2817,-26 "/>
<text text-anchor="middle" x="2773" y="-15.6" font-family="Times,serif" font-size="8.00">prev: 0x600001e49650</text>
</g>
<!-- Node0x600001e49650&#45;&gt;Node0x600001e497d0 -->
<g id="edge22" class="edge">
<title>Node0x600001e49650:n&#45;&gt;Node0x600001e497d0:n</title>
<path fill="none" stroke="red" d="M2693,-34C2705,-34 2710.25,-34 2718.88,-34"/>
<polygon fill="red" stroke="red" points="2719,-37.5 2729,-34 2719,-30.5 2719,-37.5"/>
</g>
<!-- Node0x600001e49a40 -->
<g id="node24" class="node">
<title>Node0x600001e49a40</title>
<polygon fill="none" stroke="black" points="2853,-9 2853,-77 2941,-77 2941,-9 2853,-9"/>
<text text-anchor="middle" x="2897" y="-66.6" font-family="Times,serif" font-size="8.00">word: memory</text>
<polyline fill="none" stroke="black" points="2853,-60 2941,-60 "/>
<text text-anchor="middle" x="2897" y="-49.6" font-family="Times,serif" font-size="8.00">size: 1</text>
<polyline fill="none" stroke="black" points="2853,-43 2941,-43 "/>
<text text-anchor="middle" x="2897" y="-32.6" font-family="Times,serif" font-size="8.00">next: 0x600001e71560</text>
<polyline fill="none" stroke="black" points="2853,-26 2941,-26 "/>
<text text-anchor="middle" x="2897" y="-15.6" font-family="Times,serif" font-size="8.00">prev: 0x600001e497d0</text>
</g>
<!-- Node0x600001e497d0&#45;&gt;Node0x600001e49a40 -->
<g id="edge23" class="edge">
<title>Node0x600001e497d0:n&#45;&gt;Node0x600001e49a40:n</title>
<path fill="none" stroke="red" d="M2817,-34C2829,-34 2834.25,-34 2842.88,-34"/>
<polygon fill="red" stroke="red" points="2843,-37.5 2853,-34 2843,-30.5 2843,-37.5"/>
</g>
<!-- Node0x600001e71560 -->
<g id="node25" class="node">
<title>Node0x600001e71560</title>
<polygon fill="none" stroke="black" points="2977,-9 2977,-77 3065,-77 3065,-9 2977,-9"/>
<text text-anchor="middle" x="3021" y="-66.6" font-family="Times,serif" font-size="8.00">word: Hang</text>
<polyline fill="none" stroke="black" points="2977,-60 3065,-60 "/>
<text text-anchor="middle" x="3021" y="-49.6" font-family="Times,serif" font-size="8.00">size: 3</text>
<polyline fill="none" stroke="black" points="2977,-43 3065,-43 "/>
<text text-anchor="middle" x="3021" y="-32.6" font-family="Times,serif" font-size="8.00">next: 0x600001e4bf00</text>
<polyline fill="none" stroke="black" points="2977,-26 3065,-26 "/>
<text text-anchor="middle" x="3021" y="-15.6" font-family="Times,serif" font-size="8.00">prev: 0x600001e49a40</text>
</g>
<!-- Node0x600001e49a40&#45;&gt;Node0x600001e71560 -->
<g id="edge24" class="edge">
<title>Node0x600001e49a40:n&#45;&gt;Node0x600001e71560:n</title>
<path fill="none" stroke="red" d="M2941,-34C2953,-34 2958.25,-34 2966.88,-34"/>
<polygon fill="red" stroke="red" points="2967,-37.5 2977,-34 2967,-30.5 2967,-37.5"/>
</g>
<!-- Node0x600001e4bf00 -->
<g id="node26" class="node">
<title>Node0x600001e4bf00</title>
<polygon fill="none" stroke="black" points="3101,-9 3101,-77 3189,-77 3189,-9 3101,-9"/>
<text text-anchor="middle" x="3145" y="-66.6" font-family="Times,serif" font-size="8.00">word: Cynthia</text>
<polyline fill="none" stroke="black" points="3101,-60 3189,-60 "/>
<text text-anchor="middle" x="3145" y="-49.6" font-family="Times,serif" font-size="8.00">size: 1</text>
<polyline fill="none" stroke="black" points="3101,-43 3189,-43 "/>
<text text-anchor="middle" x="3145" y="-32.6" font-family="Times,serif" font-size="8.00">next: 0x600001e4c870</text>
<polyline fill="none" stroke="black" points="3101,-26 3189,-26 "/>
<text text-anchor="middle" x="3145" y="-15.6" font-family="Times,serif" font-size="8.00">prev: 0x600001e71560</text>
</g>
<!-- Node0x600001e71560&#45;&gt;Node0x600001e4bf00 -->
<g id="edge25" class="edge">
<title>Node0x600001e71560:n&#45;&gt;Node0x600001e4bf00:n</title>
<path fill="none" stroke="red" d="M3065,-34C3077,-34 3082.25,-34 3090.88,-34"/>
<polygon fill="red" stroke="red" points="3091,-37.5 3101,-34 3091,-30.5 3091,-37.5"/>
</g>
<!-- Node0x600001e4c870 -->
<g id="node27" class="node">
<title>Node0x600001e4c870</title>
<polygon fill="none" stroke="black" points="3225,-9 3225,-77 3312,-77 3312,-9 3225,-9"/>
<text text-anchor="middle" x="3268.5" y="-66.6" font-family="Times,serif" font-size="8.00">word: runagate</text>
<polyline fill="none" stroke="black" points="3225,-60 3312,-60 "/>
<text text-anchor="middle" x="3268.5" y="-49.6" font-family="Times,serif" font-size="8.00">size: 1</text>
<polyline fill="none" stroke="black" points="3225,-43 3312,-43 "/>
<text text-anchor="middle" x="3268.5" y="-32.6" font-family="Times,serif" font-size="8.00">next: 0x600001e71dd0</text>
<polyline fill="none" stroke="black" points="3225,-26 3312,-26 "/>
<text text-anchor="middle" x="3268.5" y="-15.6" font-family="Times,serif" font-size="8.00">prev: 0x600001e4bf00</text>
</g>
<!-- Node0x600001e4bf00&#45;&gt;Node0x600001e4c870 -->
<g id="edge26" class="edge">
<title>Node0x600001e4bf00:n&#45;&gt;Node0x600001e4c870:n</title>
<path fill="none" stroke="red" d="M3189,-34C3201,-34 3206.25,-34 3214.88,-34"/>
<polygon fill="red" stroke="red" points="3215,-37.5 3225,-34 3215,-30.5 3215,-37.5"/>
</g>
<!-- Node0x600001e71dd0 -->
<g id="node28" class="node">
<title>Node0x600001e71dd0</title>
<polygon fill="none" stroke="black" points="3348,-9 3348,-77 3436,-77 3436,-9 3348,-9"/>
<text text-anchor="middle" x="3392" y="-66.6" font-family="Times,serif" font-size="8.00">word: choplogic</text>
<polyline fill="none" stroke="black" points="3348,-60 3436,-60 "/>
<text text-anchor="middle" x="3392" y="-49.6" font-family="Times,serif" font-size="8.00">size: 1</text>
<polyline fill="none" stroke="black" points="3348,-43 3436,-43 "/>
<text text-anchor="middle" x="3392" y="-32.6" font-family="Times,serif" font-size="8.00">next: 0x600001e72010</text>
<polyline fill="none" stroke="black" points="3348,-26 3436,-26 "/>
<text text-anchor="middle" x="3392" y="-15.6" font-family="Times,serif" font-size="8.00">prev: 0x600001e4c870</text>
</g>
<!-- Node0x600001e4c870&#45;&gt;Node0x600001e71dd0 -->
<g id="edge27" class="edge">
<title>Node0x600001e4c870:n&#45;&gt;Node0x600001e71dd0:n</title>
<path fill="none" stroke="red" d="M3312,-34C3324,-34 3329.25,-34 3337.88,-34"/>
<polygon fill="red" stroke="red" points="3338,-37.5 3348,-34 3338,-30.5 3338,-37.5"/>
</g>
<!-- Node0x600001e72010 -->
<g id="node29" class="node">
<title>Node0x600001e72010</title>
<polygon fill="none" stroke="black" points="3472,-9 3472,-77 3560,-77 3560,-9 3472,-9"/>
<text text-anchor="middle" x="3516" y="-66.6" font-family="Times,serif" font-size="8.00">word: baggage</text>
<polyline fill="none" stroke="black" points="3472,-60 3560,-60 "/>
<text text-anchor="middle" x="3516" y="-49.6" font-family="Times,serif" font-size="8.00">size: 2</text>
<polyline fill="none" stroke="black" points="3472,-43 3560,-43 "/>
<text text-anchor="middle" x="3516" y="-32.6" font-family="Times,serif" font-size="8.00">next: 0x600001e50150</text>
<polyline fill="none" stroke="black" points="3472,-26 3560,-26 "/>
<text text-anchor="middle" x="3516" y="-15.6" font-family="Times,serif" font-size="8.00">prev: 0x600001e71dd0</text>
</g>
<!-- Node0x600001e71dd0&#45;&gt;Node0x600001e72010 -->
<g id="edge28" class="edge">
<title>Node0x600001e71dd0:n&#45;&gt;Node0x600001e72010:n</title>
<path fill="none" stroke="red" d="M3436,-34C3448,-34 3453.25,-34 3461.88,-34"/>
<polygon fill="red" stroke="red" points="3462,-37.5 3472,-34 3462,-30.5 3462,-37.5"/>
</g>
<!-- Node0x600001e50150 -->
<g id="node30" class="node">
<title>Node0x600001e50150</title>
<polygon fill="none" stroke="black" points="3596,-9 3596,-77 3684,-77 3684,-9 3596,-9"/>
<text text-anchor="middle" x="3640" y="-66.6" font-family="Times,serif" font-size="8.00">word: forerun</text>
<polyline fill="none" stroke="black" points="3596,-60 3684,-60 "/>
<text text-anchor="middle" x="3640" y="-49.6" font-family="Times,serif" font-size="8.00">size: 1</text>
<polyline fill="none" stroke="black" points="3596,-43 3684,-43 "/>
<text text-anchor="middle" x="3640" y="-32.6" font-family="Times,serif" font-size="8.00">next: 0x600001e55320</text>
<polyline fill="none" stroke="black" points="3596,-26 3684,-26 "/>
<text text-anchor="middle" x="3640" y="-15.6" font-family="Times,serif" font-size="8.00">prev: 0x600001e72010</text>
</g>
<!-- Node0x600001e72010&#45;&gt;Node0x600001e50150 -->
<g id="edge29" class="edge">
<title>Node0x600001e72010:n&#45;&gt;Node0x600001e50150:n</title>
<path fill="none" stroke="red" d="M3560,-34C3572,-34 3577.25,-34 3585.88,-34"/>
<polygon fill="red" stroke="red" points="3586,-37.5 3596,-34 3586,-30.5 3586,-37.5"/>
</g>
<!-- Node0x600001e55320 -->
<g id="node31" class="node">
<title>Node0x600001e55320</title>
<polygon fill="none" stroke="black" points="3720,-9 3720,-77 3808,-77 3808,-9 3720,-9"/>
<text text-anchor="middle" x="3764" y="-66.6" font-family="Times,serif" font-size="8.00">word: gory</text>
<polyline fill="none" stroke="black" points="3720,-60 3808,-60 "/>
<text text-anchor="middle" x="3764" y="-49.6" font-family="Times,serif" font-size="8.00">size: 1</text>
<polyline fill="none" stroke="black" points="3720,-43 3808,-43 "/>
<text text-anchor="middle" x="3764" y="-32.6" font-family="Times,serif" font-size="8.00">next: 0x600001e55500</text>
<polyline fill="none" stroke="black" points="3720,-26 3808,-26 "/>
<text text-anchor="middle" x="3764" y="-15.6" font-family="Times,serif" font-size="8.00">prev: 0x600001e50150</text>
</g>
<!-- Node0x600001e50150&#45;&gt;Node0x600001e55320 -->
<g id="edge30" class="edge">
<title>Node0x600001e50150:n&#45;&gt;Node0x600001e55320:n</title>
<path fill="none" stroke="red" d="M3684,-34C3696,-34 3701.25,-34 3709.88,-34"/>
<polygon fill="red" stroke="red" points="3710,-37.5 3720,-34 3710,-30.5 3710,-37.5"/>
</g>
<!-- Node0x600001e55500 -->
<g id="node32" class="node">
<title>Node0x600001e55500</title>
<polygon fill="none" stroke="black" points="3844,-9 3844,-77 3932,-77 3932,-9 3844,-9"/>
<text text-anchor="middle" x="3888" y="-66.6" font-family="Times,serif" font-size="8.00">word: thwarted</text>
<polyline fill="none" stroke="black" points="3844,-60 3932,-60 "/>
<text text-anchor="middle" x="3888" y="-49.6" font-family="Times,serif" font-size="8.00">size: 1</text>
<polyline fill="none" stroke="black" points="3844,-43 3932,-43 "/>
<text text-anchor="middle" x="3888" y="-32.6" font-family="Times,serif" font-size="8.00">next: 0x600001e55530</text>
<polyline fill="none" stroke="black" points="3844,-26 3932,-26 "/>
<text text-anchor="middle" x="3888" y="-15.6" font-family="Times,serif" font-size="8.00">prev: 0x600001e55320</text>
</g>
<!-- Node0x600001e55320&#45;&gt;Node0x600001e55500 -->
<g id="edge31" class="edge">
<title>Node0x600001e55320:n&#45;&gt;Node0x600001e55500:n</title>
<path fill="none" stroke="red" d="M3808,-34C3820,-34 3825.25,-34 3833.88,-34"/>
<polygon fill="red" stroke="red" points="3834,-37.5 3844,-34 3834,-30.5 3834,-37.5"/>
</g>
<!-- Node0x600001e55530 -->
<g id="node33" class="node">
<title>Node0x600001e55530</title>
<polygon fill="none" stroke="black" points="3968,-9 3968,-77 4056,-77 4056,-9 3968,-9"/>
<text text-anchor="middle" x="4012" y="-66.6" font-family="Times,serif" font-size="8.00">word: dispose</text>
<polyline fill="none" stroke="black" points="3968,-60 4056,-60 "/>
<text text-anchor="middle" x="4012" y="-49.6" font-family="Times,serif" font-size="8.00">size: 1</text>
<polyline fill="none" stroke="black" points="3968,-43 4056,-43 "/>
<text text-anchor="middle" x="4012" y="-32.6" font-family="Times,serif" font-size="8.00">next: 0x600001e55bf0</text>
<polyline fill="none" stroke="black" points="3968,-26 4056,-26 "/>
<text text-anchor="middle" x="4012" y="-15.6" font-family="Times,serif" font-size="8.00">prev: 0x600001e55500</text>
</g>
<!-- Node0x600001e55500&#45;&gt;Node0x600001e55530 -->
<g id="edge32" class="edge">
<title>Node0x600001e55500:n&#45;&gt;Node0x600001e55530:n</title>
<path fill="none" stroke="red" d="M3932,-34C3944,-34 3949.25,-34 3957.88,-34"/>
<polygon fill="red" stroke="red" points="3958,-37.5 3968,-34 3958,-30.5 3958,-37.5"/>
</g>
<!-- Node0x600001e55bf0 -->
<g id="node34" class="node">
<title>Node0x600001e55bf0</title>
<polygon fill="none" stroke="black" points="4092,-9 4092,-77 4180,-77 4180,-9 4092,-9"/>
<text text-anchor="middle" x="4136" y="-66.6" font-family="Times,serif" font-size="8.00">word: mista</text>
<polyline fill="none" stroke="black" points="4092,-60 4180,-60 "/>
<text text-anchor="middle" x="4136" y="-49.6" font-family="Times,serif" font-size="8.00">size: 1</text>
<polyline fill="none" stroke="black" points="4092,-43 4180,-43 "/>
<text text-anchor="middle" x="4136" y="-32.6" font-family="Times,serif" font-size="8.00">next: 0x0</text>
<polyline fill="none" stroke="black" points="4092,-26 4180,-26 "/>
<text text-anchor="middle" x="4136" y="-15.6" font-family="Times,serif" font-size="8.00">prev: 0x600001e55530</text>
</g>
<!-- Node0x600001e55530&#45;&gt;Node0x600001e55bf0 -->
<g id="edge33" class="edge">
<title>Node0x600001e55530:n&#45;&gt;Node0x600001e55bf0:n</title>
<path fill="none" stroke="red" d="M4056,-34C4068,-34 4073.25,-34 4081.88,-34"/>
<polygon fill="red" stroke="red" points="4082,-37.5 4092,-34 4082,-30.5 4082,-37.5"/>
</g>
</g>
</svg>
