<?xml version="1.0" encoding="UTF-8" standalone="no"?>
<!DOCTYPE svg PUBLIC "-//W3C//DTD SVG 1.1//EN"
 "http://www.w3.org/Graphics/SVG/1.1/DTD/svg11.dtd">
<!-- Generated by graphviz version 2.50.0 (20211204.2007)
 -->
<!-- Title: G Pages: 1 -->
<svg width="4075pt" height="117pt"
 viewBox="0.00 0.00 4075.00 117.00" xmlns="http://www.w3.org/2000/svg" xmlns:xlink="http://www.w3.org/1999/xlink">
<g id="graph0" class="graph" transform="scale(1 1) rotate(0) translate(4 113)">
<title>G</title>
<polygon fill="white" stroke="transparent" points="-4,4 -4,-113 4071,-113 4071,4 -4,4"/>
<g id="clust1" class="cluster">
<title>cluster610</title>
<polygon fill="none" stroke="black" points="8,-8 8,-101 95,-101 95,-8 8,-8"/>
<text text-anchor="middle" x="51.5" y="-85.8" font-family="Times,serif" font-size="14.00">610</text>
</g>
<g id="clust2" class="cluster">
<title>cluster611</title>
<polygon fill="none" stroke="black" points="131,-8 131,-101 219,-101 219,-8 131,-8"/>
<text text-anchor="middle" x="175" y="-85.8" font-family="Times,serif" font-size="14.00">611</text>
</g>
<g id="clust3" class="cluster">
<title>cluster612</title>
<polygon fill="none" stroke="black" points="255,-8 255,-101 343,-101 343,-8 255,-8"/>
<text text-anchor="middle" x="299" y="-85.8" font-family="Times,serif" font-size="14.00">612</text>
</g>
<g id="clust4" class="cluster">
<title>cluster613</title>
<polygon fill="none" stroke="black" points="379,-8 379,-101 466,-101 466,-8 379,-8"/>
<text text-anchor="middle" x="422.5" y="-85.8" font-family="Times,serif" font-size="14.00">613</text>
</g>
<g id="clust5" class="cluster">
<title>cluster614</title>
<polygon fill="none" stroke="black" points="502,-8 502,-101 590,-101 590,-8 502,-8"/>
<text text-anchor="middle" x="546" y="-85.8" font-family="Times,serif" font-size="14.00">614</text>
</g>
<g id="clust6" class="cluster">
<title>cluster615</title>
<polygon fill="none" stroke="black" points="626,-8 626,-101 714,-101 714,-8 626,-8"/>
<text text-anchor="middle" x="670" y="-85.8" font-family="Times,serif" font-size="14.00">615</text>
</g>
<g id="clust7" class="cluster">
<title>cluster616</title>
<polygon fill="none" stroke="black" points="750,-8 750,-101 838,-101 838,-8 750,-8"/>
<text text-anchor="middle" x="794" y="-85.8" font-family="Times,serif" font-size="14.00">616</text>
</g>
<g id="clust8" class="cluster">
<title>cluster617</title>
<polygon fill="none" stroke="black" points="874,-8 874,-101 961,-101 961,-8 874,-8"/>
<text text-anchor="middle" x="917.5" y="-85.8" font-family="Times,serif" font-size="14.00">617</text>
</g>
<g id="clust9" class="cluster">
<title>cluster618</title>
<polygon fill="none" stroke="black" points="997,-8 997,-101 1085,-101 1085,-8 997,-8"/>
<text text-anchor="middle" x="1041" y="-85.8" font-family="Times,serif" font-size="14.00">618</text>
</g>
<g id="clust10" class="cluster">
<title>cluster619</title>
<polygon fill="none" stroke="black" points="1121,-8 1121,-101 1209,-101 1209,-8 1121,-8"/>
<text text-anchor="middle" x="1165" y="-85.8" font-family="Times,serif" font-size="14.00">619</text>
</g>
<g id="clust11" class="cluster">
<title>cluster620</title>
<polygon fill="none" stroke="black" points="1245,-8 1245,-101 1333,-101 1333,-8 1245,-8"/>
<text text-anchor="middle" x="1289" y="-85.8" font-family="Times,serif" font-size="14.00">620</text>
</g>
<g id="clust12" class="cluster">
<title>cluster621</title>
<polygon fill="none" stroke="black" points="1369,-8 1369,-101 1456,-101 1456,-8 1369,-8"/>
<text text-anchor="middle" x="1412.5" y="-85.8" font-family="Times,serif" font-size="14.00">621</text>
</g>
<g id="clust13" class="cluster">
<title>cluster622</title>
<polygon fill="none" stroke="black" points="1492,-8 1492,-101 1580,-101 1580,-8 1492,-8"/>
<text text-anchor="middle" x="1536" y="-85.8" font-family="Times,serif" font-size="14.00">622</text>
</g>
<g id="clust14" class="cluster">
<title>cluster623</title>
<polygon fill="none" stroke="black" points="1616,-8 1616,-101 1704,-101 1704,-8 1616,-8"/>
<text text-anchor="middle" x="1660" y="-85.8" font-family="Times,serif" font-size="14.00">623</text>
</g>
<g id="clust15" class="cluster">
<title>cluster624</title>
<polygon fill="none" stroke="black" points="1740,-8 1740,-101 1828,-101 1828,-8 1740,-8"/>
<text text-anchor="middle" x="1784" y="-85.8" font-family="Times,serif" font-size="14.00">624</text>
</g>
<g id="clust16" class="cluster">
<title>cluster625</title>
<polygon fill="none" stroke="black" points="1864,-8 1864,-101 1952,-101 1952,-8 1864,-8"/>
<text text-anchor="middle" x="1908" y="-85.8" font-family="Times,serif" font-size="14.00">625</text>
</g>
<g id="clust17" class="cluster">
<title>cluster626</title>
<polygon fill="none" stroke="black" points="1988,-8 1988,-101 2076,-101 2076,-8 1988,-8"/>
<text text-anchor="middle" x="2032" y="-85.8" font-family="Times,serif" font-size="14.00">626</text>
</g>
<g id="clust18" class="cluster">
<title>cluster627</title>
<polygon fill="none" stroke="black" points="2112,-8 2112,-101 2200,-101 2200,-8 2112,-8"/>
<text text-anchor="middle" x="2156" y="-85.8" font-family="Times,serif" font-size="14.00">627</text>
</g>
<g id="clust19" class="cluster">
<title>cluster628</title>
<polygon fill="none" stroke="black" points="2236,-8 2236,-101 2324,-101 2324,-8 2236,-8"/>
<text text-anchor="middle" x="2280" y="-85.8" font-family="Times,serif" font-size="14.00">628</text>
</g>
<g id="clust20" class="cluster">
<title>cluster629</title>
<polygon fill="none" stroke="black" points="2360,-8 2360,-101 2448,-101 2448,-8 2360,-8"/>
<text text-anchor="middle" x="2404" y="-85.8" font-family="Times,serif" font-size="14.00">629</text>
</g>
<g id="clust21" class="cluster">
<title>cluster630</title>
<polygon fill="none" stroke="black" points="2484,-8 2484,-101 2571,-101 2571,-8 2484,-8"/>
<text text-anchor="middle" x="2527.5" y="-85.8" font-family="Times,serif" font-size="14.00">630</text>
</g>
<g id="clust22" class="cluster">
<title>cluster631</title>
<polygon fill="none" stroke="black" points="2607,-8 2607,-101 2695,-101 2695,-8 2607,-8"/>
<text text-anchor="middle" x="2651" y="-85.8" font-family="Times,serif" font-size="14.00">631</text>
</g>
<g id="clust23" class="cluster">
<title>cluster632</title>
<polygon fill="none" stroke="black" points="2731,-8 2731,-101 2819,-101 2819,-8 2731,-8"/>
<text text-anchor="middle" x="2775" y="-85.8" font-family="Times,serif" font-size="14.00">632</text>
</g>
<g id="clust24" class="cluster">
<title>cluster633</title>
<polygon fill="none" stroke="black" points="2855,-8 2855,-101 2943,-101 2943,-8 2855,-8"/>
<text text-anchor="middle" x="2899" y="-85.8" font-family="Times,serif" font-size="14.00">633</text>
</g>
<g id="clust25" class="cluster">
<title>cluster634</title>
<polygon fill="none" stroke="black" points="2979,-8 2979,-101 3067,-101 3067,-8 2979,-8"/>
<text text-anchor="middle" x="3023" y="-85.8" font-family="Times,serif" font-size="14.00">634</text>
</g>
<g id="clust26" class="cluster">
<title>cluster635</title>
<polygon fill="none" stroke="black" points="3103,-8 3103,-101 3191,-101 3191,-8 3103,-8"/>
<text text-anchor="middle" x="3147" y="-85.8" font-family="Times,serif" font-size="14.00">635</text>
</g>
<g id="clust27" class="cluster">
<title>cluster636</title>
<polygon fill="none" stroke="black" points="3227,-8 3227,-101 3315,-101 3315,-8 3227,-8"/>
<text text-anchor="middle" x="3271" y="-85.8" font-family="Times,serif" font-size="14.00">636</text>
</g>
<g id="clust28" class="cluster">
<title>cluster637</title>
<polygon fill="none" stroke="black" points="3351,-8 3351,-101 3439,-101 3439,-8 3351,-8"/>
<text text-anchor="middle" x="3395" y="-85.8" font-family="Times,serif" font-size="14.00">637</text>
</g>
<g id="clust29" class="cluster">
<title>cluster638</title>
<polygon fill="none" stroke="black" points="3475,-8 3475,-101 3563,-101 3563,-8 3475,-8"/>
<text text-anchor="middle" x="3519" y="-85.8" font-family="Times,serif" font-size="14.00">638</text>
</g>
<g id="clust30" class="cluster">
<title>cluster639</title>
<polygon fill="none" stroke="black" points="3599,-8 3599,-101 3687,-101 3687,-8 3599,-8"/>
<text text-anchor="middle" x="3643" y="-85.8" font-family="Times,serif" font-size="14.00">639</text>
</g>
<g id="clust31" class="cluster">
<title>cluster640</title>
<polygon fill="none" stroke="black" points="3723,-8 3723,-101 3811,-101 3811,-8 3723,-8"/>
<text text-anchor="middle" x="3767" y="-85.8" font-family="Times,serif" font-size="14.00">640</text>
</g>
<g id="clust32" class="cluster">
<title>cluster641</title>
<polygon fill="none" stroke="black" points="3847,-8 3847,-101 3935,-101 3935,-8 3847,-8"/>
<text text-anchor="middle" x="3891" y="-85.8" font-family="Times,serif" font-size="14.00">641</text>
</g>
<g id="clust33" class="cluster">
<title>cluster642</title>
<polygon fill="none" stroke="black" points="3971,-8 3971,-101 4059,-101 4059,-8 3971,-8"/>
<text text-anchor="middle" x="4015" y="-85.8" font-family="Times,serif" font-size="14.00">642</text>
</g>
<!-- Node0x600001e607e0 -->
<g id="node1" class="node">
<title>Node0x600001e607e0</title>
<polygon fill="none" stroke="black" points="8,-9 8,-77 95,-77 95,-9 8,-9"/>
<text text-anchor="middle" x="51.5" y="-66.6" font-family="Times,serif" font-size="8.00">word: MAN</text>
<polyline fill="none" stroke="black" points="8,-60 95,-60 "/>
<text text-anchor="middle" x="51.5" y="-49.6" font-family="Times,serif" font-size="8.00">size: 1</text>
<polyline fill="none" stroke="black" points="8,-43 95,-43 "/>
<text text-anchor="middle" x="51.5" y="-32.6" font-family="Times,serif" font-size="8.00">next: 0x600001e60c60</text>
<polyline fill="none" stroke="black" points="8,-26 95,-26 "/>
<text text-anchor="middle" x="51.5" y="-15.6" font-family="Times,serif" font-size="8.00">prev: 0x0</text>
</g>
<!-- Node0x600001e60c60 -->
<g id="node2" class="node">
<title>Node0x600001e60c60</title>
<polygon fill="none" stroke="black" points="131,-9 131,-77 219,-77 219,-9 131,-9"/>
<text text-anchor="middle" x="175" y="-66.6" font-family="Times,serif" font-size="8.00">word: s</text>
<polyline fill="none" stroke="black" points="131,-60 219,-60 "/>
<text text-anchor="middle" x="175" y="-49.6" font-family="Times,serif" font-size="8.00">size: 271</text>
<polyline fill="none" stroke="black" points="131,-43 219,-43 "/>
<text text-anchor="middle" x="175" y="-32.6" font-family="Times,serif" font-size="8.00">next: 0x600001e60f30</text>
<polyline fill="none" stroke="black" points="131,-26 219,-26 "/>
<text text-anchor="middle" x="175" y="-15.6" font-family="Times,serif" font-size="8.00">prev: 0x600001e607e0</text>
</g>
<!-- Node0x600001e607e0&#45;&gt;Node0x600001e60c60 -->
<g id="edge1" class="edge">
<title>Node0x600001e607e0:n&#45;&gt;Node0x600001e60c60:n</title>
<path fill="none" stroke="red" d="M95,-34C107,-34 112.25,-34 120.88,-34"/>
<polygon fill="red" stroke="red" points="121,-37.5 131,-34 121,-30.5 121,-37.5"/>
</g>
<!-- Node0x600001e60f30 -->
<g id="node3" class="node">
<title>Node0x600001e60f30</title>
<polygon fill="none" stroke="black" points="255,-9 255,-77 343,-77 343,-9 255,-9"/>
<text text-anchor="middle" x="299" y="-66.6" font-family="Times,serif" font-size="8.00">word: NURSE</text>
<polyline fill="none" stroke="black" points="255,-60 343,-60 "/>
<text text-anchor="middle" x="299" y="-49.6" font-family="Times,serif" font-size="8.00">size: 21</text>
<polyline fill="none" stroke="black" points="255,-43 343,-43 "/>
<text text-anchor="middle" x="299" y="-32.6" font-family="Times,serif" font-size="8.00">next: 0x600001e626a0</text>
<polyline fill="none" stroke="black" points="255,-26 343,-26 "/>
<text text-anchor="middle" x="299" y="-15.6" font-family="Times,serif" font-size="8.00">prev: 0x600001e60c60</text>
</g>
<!-- Node0x600001e60c60&#45;&gt;Node0x600001e60f30 -->
<g id="edge2" class="edge">
<title>Node0x600001e60c60:n&#45;&gt;Node0x600001e60f30:n</title>
<path fill="none" stroke="red" d="M219,-34C231,-34 236.25,-34 244.88,-34"/>
<polygon fill="red" stroke="red" points="245,-37.5 255,-34 245,-30.5 245,-37.5"/>
</g>
<!-- Node0x600001e626a0 -->
<g id="node4" class="node">
<title>Node0x600001e626a0</title>
<polygon fill="none" stroke="black" points="379,-9 379,-77 466,-77 466,-9 379,-9"/>
<text text-anchor="middle" x="422.5" y="-66.6" font-family="Times,serif" font-size="8.00">word: colliers</text>
<polyline fill="none" stroke="black" points="379,-60 466,-60 "/>
<text text-anchor="middle" x="422.5" y="-49.6" font-family="Times,serif" font-size="8.00">size: 1</text>
<polyline fill="none" stroke="black" points="379,-43 466,-43 "/>
<text text-anchor="middle" x="422.5" y="-32.6" font-family="Times,serif" font-size="8.00">next: 0x600001e62a90</text>
<polyline fill="none" stroke="black" points="379,-26 466,-26 "/>
<text text-anchor="middle" x="422.5" y="-15.6" font-family="Times,serif" font-size="8.00">prev: 0x600001e60f30</text>
</g>
<!-- Node0x600001e60f30&#45;&gt;Node0x600001e626a0 -->
<g id="edge3" class="edge">
<title>Node0x600001e60f30:n&#45;&gt;Node0x600001e626a0:n</title>
<path fill="none" stroke="red" d="M343,-34C355,-34 360.25,-34 368.88,-34"/>
<polygon fill="red" stroke="red" points="369,-37.5 379,-34 369,-30.5 369,-37.5"/>
</g>
<!-- Node0x600001e62a90 -->
<g id="node5" class="node">
<title>Node0x600001e62a90</title>
<polygon fill="none" stroke="black" points="502,-9 502,-77 590,-77 590,-9 502,-9"/>
<text text-anchor="middle" x="546" y="-66.6" font-family="Times,serif" font-size="8.00">word: To</text>
<polyline fill="none" stroke="black" points="502,-60 590,-60 "/>
<text text-anchor="middle" x="546" y="-49.6" font-family="Times,serif" font-size="8.00">size: 84</text>
<polyline fill="none" stroke="black" points="502,-43 590,-43 "/>
<text text-anchor="middle" x="546" y="-32.6" font-family="Times,serif" font-size="8.00">next: 0x600001e62be0</text>
<polyline fill="none" stroke="black" points="502,-26 590,-26 "/>
<text text-anchor="middle" x="546" y="-15.6" font-family="Times,serif" font-size="8.00">prev: 0x600001e626a0</text>
</g>
<!-- Node0x600001e626a0&#45;&gt;Node0x600001e62a90 -->
<g id="edge4" class="edge">
<title>Node0x600001e626a0:n&#45;&gt;Node0x600001e62a90:n</title>
<path fill="none" stroke="red" d="M466,-34C478,-34 483.25,-34 491.88,-34"/>
<polygon fill="red" stroke="red" points="492,-37.5 502,-34 492,-30.5 492,-37.5"/>
</g>
<!-- Node0x600001e62be0 -->
<g id="node6" class="node">
<title>Node0x600001e62be0</title>
<polygon fill="none" stroke="black" points="626,-9 626,-77 714,-77 714,-9 626,-9"/>
<text text-anchor="middle" x="670" y="-66.6" font-family="Times,serif" font-size="8.00">word: runn</text>
<polyline fill="none" stroke="black" points="626,-60 714,-60 "/>
<text text-anchor="middle" x="670" y="-49.6" font-family="Times,serif" font-size="8.00">size: 1</text>
<polyline fill="none" stroke="black" points="626,-43 714,-43 "/>
<text text-anchor="middle" x="670" y="-32.6" font-family="Times,serif" font-size="8.00">next: 0x600001e63f60</text>
<polyline fill="none" stroke="black" points="626,-26 714,-26 "/>
<text text-anchor="middle" x="670" y="-15.6" font-family="Times,serif" font-size="8.00">prev: 0x600001e62a90</text>
</g>
<!-- Node0x600001e62a90&#45;&gt;Node0x600001e62be0 -->
<g id="edge5" class="edge">
<title>Node0x600001e62a90:n&#45;&gt;Node0x600001e62be0:n</title>
<path fill="none" stroke="red" d="M590,-34C602,-34 607.25,-34 615.88,-34"/>
<polygon fill="red" stroke="red" points="616,-37.5 626,-34 616,-30.5 616,-37.5"/>
</g>
<!-- Node0x600001e63f60 -->
<g id="node7" class="node">
<title>Node0x600001e63f60</title>
<polygon fill="none" stroke="black" points="750,-9 750,-77 838,-77 838,-9 750,-9"/>
<text text-anchor="middle" x="794" y="-66.6" font-family="Times,serif" font-size="8.00">word: thumb</text>
<polyline fill="none" stroke="black" points="750,-60 838,-60 "/>
<text text-anchor="middle" x="794" y="-49.6" font-family="Times,serif" font-size="8.00">size: 6</text>
<polyline fill="none" stroke="black" points="750,-43 838,-43 "/>
<text text-anchor="middle" x="794" y="-32.6" font-family="Times,serif" font-size="8.00">next: 0x600001e68630</text>
<polyline fill="none" stroke="black" points="750,-26 838,-26 "/>
<text text-anchor="middle" x="794" y="-15.6" font-family="Times,serif" font-size="8.00">prev: 0x600001e62be0</text>
</g>
<!-- Node0x600001e62be0&#45;&gt;Node0x600001e63f60 -->
<g id="edge6" class="edge">
<title>Node0x600001e62be0:n&#45;&gt;Node0x600001e63f60:n</title>
<path fill="none" stroke="red" d="M714,-34C726,-34 731.25,-34 739.88,-34"/>
<polygon fill="red" stroke="red" points="740,-37.5 750,-34 740,-30.5 740,-37.5"/>
</g>
<!-- Node0x600001e68630 -->
<g id="node8" class="node">
<title>Node0x600001e68630</title>
<polygon fill="none" stroke="black" points="874,-9 874,-77 961,-77 961,-9 874,-9"/>
<text text-anchor="middle" x="917.5" y="-66.6" font-family="Times,serif" font-size="8.00">word: Turn</text>
<polyline fill="none" stroke="black" points="874,-60 961,-60 "/>
<text text-anchor="middle" x="917.5" y="-49.6" font-family="Times,serif" font-size="8.00">size: 5</text>
<polyline fill="none" stroke="black" points="874,-43 961,-43 "/>
<text text-anchor="middle" x="917.5" y="-32.6" font-family="Times,serif" font-size="8.00">next: 0x600001e69800</text>
<polyline fill="none" stroke="black" points="874,-26 961,-26 "/>
<text text-anchor="middle" x="917.5" y="-15.6" font-family="Times,serif" font-size="8.00">prev: 0x600001e63f60</text>
</g>
<!-- Node0x600001e63f60&#45;&gt;Node0x600001e68630 -->
<g id="edge7" class="edge">
<title>Node0x600001e63f60:n&#45;&gt;Node0x600001e68630:n</title>
<path fill="none" stroke="red" d="M838,-34C850,-34 855.25,-34 863.88,-34"/>
<polygon fill="red" stroke="red" points="864,-37.5 874,-34 864,-30.5 864,-37.5"/>
</g>
<!-- Node0x600001e69800 -->
<g id="node9" class="node">
<title>Node0x600001e69800</title>
<polygon fill="none" stroke="black" points="997,-9 997,-77 1085,-77 1085,-9 997,-9"/>
<text text-anchor="middle" x="1041" y="-66.6" font-family="Times,serif" font-size="8.00">word: streets</text>
<polyline fill="none" stroke="black" points="997,-60 1085,-60 "/>
<text text-anchor="middle" x="1041" y="-49.6" font-family="Times,serif" font-size="8.00">size: 4</text>
<polyline fill="none" stroke="black" points="997,-43 1085,-43 "/>
<text text-anchor="middle" x="1041" y="-32.6" font-family="Times,serif" font-size="8.00">next: 0x600001e6d890</text>
<polyline fill="none" stroke="black" points="997,-26 1085,-26 "/>
<text text-anchor="middle" x="1041" y="-15.6" font-family="Times,serif" font-size="8.00">prev: 0x600001e68630</text>
</g>
<!-- Node0x600001e68630&#45;&gt;Node0x600001e69800 -->
<g id="edge8" class="edge">
<title>Node0x600001e68630:n&#45;&gt;Node0x600001e69800:n</title>
<path fill="none" stroke="red" d="M961,-34C973,-34 978.25,-34 986.88,-34"/>
<polygon fill="red" stroke="red" points="987,-37.5 997,-34 987,-30.5 987,-37.5"/>
</g>
<!-- Node0x600001e6d890 -->
<g id="node10" class="node">
<title>Node0x600001e6d890</title>
<polygon fill="none" stroke="black" points="1121,-9 1121,-77 1209,-77 1209,-9 1121,-9"/>
<text text-anchor="middle" x="1165" y="-66.6" font-family="Times,serif" font-size="8.00">word: arrow</text>
<polyline fill="none" stroke="black" points="1121,-60 1209,-60 "/>
<text text-anchor="middle" x="1165" y="-49.6" font-family="Times,serif" font-size="8.00">size: 1</text>
<polyline fill="none" stroke="black" points="1121,-43 1209,-43 "/>
<text text-anchor="middle" x="1165" y="-32.6" font-family="Times,serif" font-size="8.00">next: 0x600001e6f600</text>
<polyline fill="none" stroke="black" points="1121,-26 1209,-26 "/>
<text text-anchor="middle" x="1165" y="-15.6" font-family="Times,serif" font-size="8.00">prev: 0x600001e69800</text>
</g>
<!-- Node0x600001e69800&#45;&gt;Node0x600001e6d890 -->
<g id="edge9" class="edge">
<title>Node0x600001e69800:n&#45;&gt;Node0x600001e6d890:n</title>
<path fill="none" stroke="red" d="M1085,-34C1097,-34 1102.25,-34 1110.88,-34"/>
<polygon fill="red" stroke="red" points="1111,-37.5 1121,-34 1111,-30.5 1111,-37.5"/>
</g>
<!-- Node0x600001e6f600 -->
<g id="node11" class="node">
<title>Node0x600001e6f600</title>
<polygon fill="none" stroke="black" points="1245,-9 1245,-77 1333,-77 1333,-9 1245,-9"/>
<text text-anchor="middle" x="1289" y="-66.6" font-family="Times,serif" font-size="8.00">word: delight</text>
<polyline fill="none" stroke="black" points="1245,-60 1333,-60 "/>
<text text-anchor="middle" x="1289" y="-49.6" font-family="Times,serif" font-size="8.00">size: 3</text>
<polyline fill="none" stroke="black" points="1245,-43 1333,-43 "/>
<text text-anchor="middle" x="1289" y="-32.6" font-family="Times,serif" font-size="8.00">next: 0x600001e64930</text>
<polyline fill="none" stroke="black" points="1245,-26 1333,-26 "/>
<text text-anchor="middle" x="1289" y="-15.6" font-family="Times,serif" font-size="8.00">prev: 0x600001e6d890</text>
</g>
<!-- Node0x600001e6d890&#45;&gt;Node0x600001e6f600 -->
<g id="edge10" class="edge">
<title>Node0x600001e6d890:n&#45;&gt;Node0x600001e6f600:n</title>
<path fill="none" stroke="red" d="M1209,-34C1221,-34 1226.25,-34 1234.88,-34"/>
<polygon fill="red" stroke="red" points="1235,-37.5 1245,-34 1235,-30.5 1235,-37.5"/>
</g>
<!-- Node0x600001e64930 -->
<g id="node12" class="node">
<title>Node0x600001e64930</title>
<polygon fill="none" stroke="black" points="1369,-9 1369,-77 1456,-77 1456,-9 1369,-9"/>
<text text-anchor="middle" x="1412.5" y="-66.6" font-family="Times,serif" font-size="8.00">word: year</text>
<polyline fill="none" stroke="black" points="1369,-60 1456,-60 "/>
<text text-anchor="middle" x="1412.5" y="-49.6" font-family="Times,serif" font-size="8.00">size: 3</text>
<polyline fill="none" stroke="black" points="1369,-43 1456,-43 "/>
<text text-anchor="middle" x="1412.5" y="-32.6" font-family="Times,serif" font-size="8.00">next: 0x600001e65350</text>
<polyline fill="none" stroke="black" points="1369,-26 1456,-26 "/>
<text text-anchor="middle" x="1412.5" y="-15.6" font-family="Times,serif" font-size="8.00">prev: 0x600001e6f600</text>
</g>
<!-- Node0x600001e6f600&#45;&gt;Node0x600001e64930 -->
<g id="edge11" class="edge">
<title>Node0x600001e6f600:n&#45;&gt;Node0x600001e64930:n</title>
<path fill="none" stroke="red" d="M1333,-34C1345,-34 1350.25,-34 1358.88,-34"/>
<polygon fill="red" stroke="red" points="1359,-37.5 1369,-34 1359,-30.5 1359,-37.5"/>
</g>
<!-- Node0x600001e65350 -->
<g id="node13" class="node">
<title>Node0x600001e65350</title>
<polygon fill="none" stroke="black" points="1492,-9 1492,-77 1580,-77 1580,-9 1492,-9"/>
<text text-anchor="middle" x="1536" y="-66.6" font-family="Times,serif" font-size="8.00">word: nay</text>
<polyline fill="none" stroke="black" points="1492,-60 1580,-60 "/>
<text text-anchor="middle" x="1536" y="-49.6" font-family="Times,serif" font-size="8.00">size: 5</text>
<polyline fill="none" stroke="black" points="1492,-43 1580,-43 "/>
<text text-anchor="middle" x="1536" y="-32.6" font-family="Times,serif" font-size="8.00">next: 0x600001e65470</text>
<polyline fill="none" stroke="black" points="1492,-26 1580,-26 "/>
<text text-anchor="middle" x="1536" y="-15.6" font-family="Times,serif" font-size="8.00">prev: 0x600001e64930</text>
</g>
<!-- Node0x600001e64930&#45;&gt;Node0x600001e65350 -->
<g id="edge12" class="edge">
<title>Node0x600001e64930:n&#45;&gt;Node0x600001e65350:n</title>
<path fill="none" stroke="red" d="M1456,-34C1468,-34 1473.25,-34 1481.88,-34"/>
<polygon fill="red" stroke="red" points="1482,-37.5 1492,-34 1482,-30.5 1482,-37.5"/>
</g>
<!-- Node0x600001e65470 -->
<g id="node14" class="node">
<title>Node0x600001e65470</title>
<polygon fill="none" stroke="black" points="1616,-9 1616,-77 1704,-77 1704,-9 1616,-9"/>
<text text-anchor="middle" x="1660" y="-66.6" font-family="Times,serif" font-size="8.00">word: soul</text>
<polyline fill="none" stroke="black" points="1616,-60 1704,-60 "/>
<text text-anchor="middle" x="1660" y="-49.6" font-family="Times,serif" font-size="8.00">size: 14</text>
<polyline fill="none" stroke="black" points="1616,-43 1704,-43 "/>
<text text-anchor="middle" x="1660" y="-32.6" font-family="Times,serif" font-size="8.00">next: 0x600001e66cd0</text>
<polyline fill="none" stroke="black" points="1616,-26 1704,-26 "/>
<text text-anchor="middle" x="1660" y="-15.6" font-family="Times,serif" font-size="8.00">prev: 0x600001e65350</text>
</g>
<!-- Node0x600001e65350&#45;&gt;Node0x600001e65470 -->
<g id="edge13" class="edge">
<title>Node0x600001e65350:n&#45;&gt;Node0x600001e65470:n</title>
<path fill="none" stroke="red" d="M1580,-34C1592,-34 1597.25,-34 1605.88,-34"/>
<polygon fill="red" stroke="red" points="1606,-37.5 1616,-34 1606,-30.5 1606,-37.5"/>
</g>
<!-- Node0x600001e66cd0 -->
<g id="node15" class="node">
<title>Node0x600001e66cd0</title>
<polygon fill="none" stroke="black" points="1740,-9 1740,-77 1828,-77 1828,-9 1740,-9"/>
<text text-anchor="middle" x="1784" y="-66.6" font-family="Times,serif" font-size="8.00">word: prompter</text>
<polyline fill="none" stroke="black" points="1740,-60 1828,-60 "/>
<text text-anchor="middle" x="1784" y="-49.6" font-family="Times,serif" font-size="8.00">size: 1</text>
<polyline fill="none" stroke="black" points="1740,-43 1828,-43 "/>
<text text-anchor="middle" x="1784" y="-32.6" font-family="Times,serif" font-size="8.00">next: 0x600001e763a0</text>
<polyline fill="none" stroke="black" points="1740,-26 1828,-26 "/>
<text text-anchor="middle" x="1784" y="-15.6" font-family="Times,serif" font-size="8.00">prev: 0x600001e65470</text>
</g>
<!-- Node0x600001e65470&#45;&gt;Node0x600001e66cd0 -->
<g id="edge14" class="edge">
<title>Node0x600001e65470:n&#45;&gt;Node0x600001e66cd0:n</title>
<path fill="none" stroke="red" d="M1704,-34C1716,-34 1721.25,-34 1729.88,-34"/>
<polygon fill="red" stroke="red" points="1730,-37.5 1740,-34 1730,-30.5 1730,-37.5"/>
</g>
<!-- Node0x600001e763a0 -->
<g id="node16" class="node">
<title>Node0x600001e763a0</title>
<polygon fill="none" stroke="black" points="1864,-9 1864,-77 1952,-77 1952,-9 1864,-9"/>
<text text-anchor="middle" x="1908" y="-66.6" font-family="Times,serif" font-size="8.00">word: girls</text>
<polyline fill="none" stroke="black" points="1864,-60 1952,-60 "/>
<text text-anchor="middle" x="1908" y="-49.6" font-family="Times,serif" font-size="8.00">size: 1</text>
<polyline fill="none" stroke="black" points="1864,-43 1952,-43 "/>
<text text-anchor="middle" x="1908" y="-32.6" font-family="Times,serif" font-size="8.00">next: 0x600001e77d20</text>
<polyline fill="none" stroke="black" points="1864,-26 1952,-26 "/>
<text text-anchor="middle" x="1908" y="-15.6" font-family="Times,serif" font-size="8.00">prev: 0x600001e66cd0</text>
</g>
<!-- Node0x600001e66cd0&#45;&gt;Node0x600001e763a0 -->
<g id="edge15" class="edge">
<title>Node0x600001e66cd0:n&#45;&gt;Node0x600001e763a0:n</title>
<path fill="none" stroke="red" d="M1828,-34C1840,-34 1845.25,-34 1853.88,-34"/>
<polygon fill="red" stroke="red" points="1854,-37.5 1864,-34 1854,-30.5 1854,-37.5"/>
</g>
<!-- Node0x600001e77d20 -->
<g id="node17" class="node">
<title>Node0x600001e77d20</title>
<polygon fill="none" stroke="black" points="1988,-9 1988,-77 2076,-77 2076,-9 1988,-9"/>
<text text-anchor="middle" x="2032" y="-66.6" font-family="Times,serif" font-size="8.00">word: foolish</text>
<polyline fill="none" stroke="black" points="1988,-60 2076,-60 "/>
<text text-anchor="middle" x="2032" y="-49.6" font-family="Times,serif" font-size="8.00">size: 2</text>
<polyline fill="none" stroke="black" points="1988,-43 2076,-43 "/>
<text text-anchor="middle" x="2032" y="-32.6" font-family="Times,serif" font-size="8.00">next: 0x600001e7e8e0</text>
<polyline fill="none" stroke="black" points="1988,-26 2076,-26 "/>
<text text-anchor="middle" x="2032" y="-15.6" font-family="Times,serif" font-size="8.00">prev: 0x600001e763a0</text>
</g>
<!-- Node0x600001e763a0&#45;&gt;Node0x600001e77d20 -->
<g id="edge16" class="edge">
<title>Node0x600001e763a0:n&#45;&gt;Node0x600001e77d20:n</title>
<path fill="none" stroke="red" d="M1952,-34C1964,-34 1969.25,-34 1977.88,-34"/>
<polygon fill="red" stroke="red" points="1978,-37.5 1988,-34 1978,-30.5 1978,-37.5"/>
</g>
<!-- Node0x600001e7e8e0 -->
<g id="node18" class="node">
<title>Node0x600001e7e8e0</title>
<polygon fill="none" stroke="black" points="2112,-9 2112,-77 2200,-77 2200,-9 2112,-9"/>
<text text-anchor="middle" x="2156" y="-66.6" font-family="Times,serif" font-size="8.00">word: exchange</text>
<polyline fill="none" stroke="black" points="2112,-60 2200,-60 "/>
<text text-anchor="middle" x="2156" y="-49.6" font-family="Times,serif" font-size="8.00">size: 3</text>
<polyline fill="none" stroke="black" points="2112,-43 2200,-43 "/>
<text text-anchor="middle" x="2156" y="-32.6" font-family="Times,serif" font-size="8.00">next: 0x600001e7e9a0</text>
<polyline fill="none" stroke="black" points="2112,-26 2200,-26 "/>
<text text-anchor="middle" x="2156" y="-15.6" font-family="Times,serif" font-size="8.00">prev: 0x600001e77d20</text>
</g>
<!-- Node0x600001e77d20&#45;&gt;Node0x600001e7e8e0 -->
<g id="edge17" class="edge">
<title>Node0x600001e77d20:n&#45;&gt;Node0x600001e7e8e0:n</title>
<path fill="none" stroke="red" d="M2076,-34C2088,-34 2093.25,-34 2101.88,-34"/>
<polygon fill="red" stroke="red" points="2102,-37.5 2112,-34 2102,-30.5 2102,-37.5"/>
</g>
<!-- Node0x600001e7e9a0 -->
<g id="node19" class="node">
<title>Node0x600001e7e9a0</title>
<polygon fill="none" stroke="black" points="2236,-9 2236,-77 2324,-77 2324,-9 2236,-9"/>
<text text-anchor="middle" x="2280" y="-66.6" font-family="Times,serif" font-size="8.00">word: request</text>
<polyline fill="none" stroke="black" points="2236,-60 2324,-60 "/>
<text text-anchor="middle" x="2280" y="-49.6" font-family="Times,serif" font-size="8.00">size: 1</text>
<polyline fill="none" stroke="black" points="2236,-43 2324,-43 "/>
<text text-anchor="middle" x="2280" y="-32.6" font-family="Times,serif" font-size="8.00">next: 0x600001e7f300</text>
<polyline fill="none" stroke="black" points="2236,-26 2324,-26 "/>
<text text-anchor="middle" x="2280" y="-15.6" font-family="Times,serif" font-size="8.00">prev: 0x600001e7e8e0</text>
</g>
<!-- Node0x600001e7e8e0&#45;&gt;Node0x600001e7e9a0 -->
<g id="edge18" class="edge">
<title>Node0x600001e7e8e0:n&#45;&gt;Node0x600001e7e9a0:n</title>
<path fill="none" stroke="red" d="M2200,-34C2212,-34 2217.25,-34 2225.88,-34"/>
<polygon fill="red" stroke="red" points="2226,-37.5 2236,-34 2226,-30.5 2226,-37.5"/>
</g>
<!-- Node0x600001e7f300 -->
<g id="node20" class="node">
<title>Node0x600001e7f300</title>
<polygon fill="none" stroke="black" points="2360,-9 2360,-77 2448,-77 2448,-9 2360,-9"/>
<text text-anchor="middle" x="2404" y="-66.6" font-family="Times,serif" font-size="8.00">word: almost</text>
<polyline fill="none" stroke="black" points="2360,-60 2448,-60 "/>
<text text-anchor="middle" x="2404" y="-49.6" font-family="Times,serif" font-size="8.00">size: 3</text>
<polyline fill="none" stroke="black" points="2360,-43 2448,-43 "/>
<text text-anchor="middle" x="2404" y="-32.6" font-family="Times,serif" font-size="8.00">next: 0x600001e42b20</text>
<polyline fill="none" stroke="black" points="2360,-26 2448,-26 "/>
<text text-anchor="middle" x="2404" y="-15.6" font-family="Times,serif" font-size="8.00">prev: 0x600001e7e9a0</text>
</g>
<!-- Node0x600001e7e9a0&#45;&gt;Node0x600001e7f300 -->
<g id="edge19" class="edge">
<title>Node0x600001e7e9a0:n&#45;&gt;Node0x600001e7f300:n</title>
<path fill="none" stroke="red" d="M2324,-34C2336,-34 2341.25,-34 2349.88,-34"/>
<polygon fill="red" stroke="red" points="2350,-37.5 2360,-34 2350,-30.5 2350,-37.5"/>
</g>
<!-- Node0x600001e42b20 -->
<g id="node21" class="node">
<title>Node0x600001e42b20</title>
<polygon fill="none" stroke="black" points="2484,-9 2484,-77 2571,-77 2571,-9 2484,-9"/>
<text text-anchor="middle" x="2527.5" y="-66.6" font-family="Times,serif" font-size="8.00">word: broad</text>
<polyline fill="none" stroke="black" points="2484,-60 2571,-60 "/>
<text text-anchor="middle" x="2527.5" y="-49.6" font-family="Times,serif" font-size="8.00">size: 4</text>
<polyline fill="none" stroke="black" points="2484,-43 2571,-43 "/>
<text text-anchor="middle" x="2527.5" y="-32.6" font-family="Times,serif" font-size="8.00">next: 0x600001e43750</text>
<polyline fill="none" stroke="black" points="2484,-26 2571,-26 "/>
<text text-anchor="middle" x="2527.5" y="-15.6" font-family="Times,serif" font-size="8.00">prev: 0x600001e7f300</text>
</g>
<!-- Node0x600001e7f300&#45;&gt;Node0x600001e42b20 -->
<g id="edge20" class="edge">
<title>Node0x600001e7f300:n&#45;&gt;Node0x600001e42b20:n</title>
<path fill="none" stroke="red" d="M2448,-34C2460,-34 2465.25,-34 2473.88,-34"/>
<polygon fill="red" stroke="red" points="2474,-37.5 2484,-34 2474,-30.5 2474,-37.5"/>
</g>
<!-- Node0x600001e43750 -->
<g id="node22" class="node">
<title>Node0x600001e43750</title>
<polygon fill="none" stroke="black" points="2607,-9 2607,-77 2695,-77 2695,-9 2607,-9"/>
<text text-anchor="middle" x="2651" y="-66.6" font-family="Times,serif" font-size="8.00">word: merchant</text>
<polyline fill="none" stroke="black" points="2607,-60 2695,-60 "/>
<text text-anchor="middle" x="2651" y="-49.6" font-family="Times,serif" font-size="8.00">size: 1</text>
<polyline fill="none" stroke="black" points="2607,-43 2695,-43 "/>
<text text-anchor="middle" x="2651" y="-32.6" font-family="Times,serif" font-size="8.00">next: 0x600001e44840</text>
<polyline fill="none" stroke="black" points="2607,-26 2695,-26 "/>
<text text-anchor="middle" x="2651" y="-15.6" font-family="Times,serif" font-size="8.00">prev: 0x600001e42b20</text>
</g>
<!-- Node0x600001e42b20&#45;&gt;Node0x600001e43750 -->
<g id="edge21" class="edge">
<title>Node0x600001e42b20:n&#45;&gt;Node0x600001e43750:n</title>
<path fill="none" stroke="red" d="M2571,-34C2583,-34 2588.25,-34 2596.88,-34"/>
<polygon fill="red" stroke="red" points="2597,-37.5 2607,-34 2597,-30.5 2597,-37.5"/>
</g>
<!-- Node0x600001e44840 -->
<g id="node23" class="node">
<title>Node0x600001e44840</title>
<polygon fill="none" stroke="black" points="2731,-9 2731,-77 2819,-77 2819,-9 2731,-9"/>
<text text-anchor="middle" x="2775" y="-66.6" font-family="Times,serif" font-size="8.00">word: folks</text>
<polyline fill="none" stroke="black" points="2731,-60 2819,-60 "/>
<text text-anchor="middle" x="2775" y="-49.6" font-family="Times,serif" font-size="8.00">size: 1</text>
<polyline fill="none" stroke="black" points="2731,-43 2819,-43 "/>
<text text-anchor="middle" x="2775" y="-32.6" font-family="Times,serif" font-size="8.00">next: 0x600001e49740</text>
<polyline fill="none" stroke="black" points="2731,-26 2819,-26 "/>
<text text-anchor="middle" x="2775" y="-15.6" font-family="Times,serif" font-size="8.00">prev: 0x600001e43750</text>
</g>
<!-- Node0x600001e43750&#45;&gt;Node0x600001e44840 -->
<g id="edge22" class="edge">
<title>Node0x600001e43750:n&#45;&gt;Node0x600001e44840:n</title>
<path fill="none" stroke="red" d="M2695,-34C2707,-34 2712.25,-34 2720.88,-34"/>
<polygon fill="red" stroke="red" points="2721,-37.5 2731,-34 2721,-30.5 2721,-37.5"/>
</g>
<!-- Node0x600001e49740 -->
<g id="node24" class="node">
<title>Node0x600001e49740</title>
<polygon fill="none" stroke="black" points="2855,-9 2855,-77 2943,-77 2943,-9 2855,-9"/>
<text text-anchor="middle" x="2899" y="-66.6" font-family="Times,serif" font-size="8.00">word: asham</text>
<polyline fill="none" stroke="black" points="2855,-60 2943,-60 "/>
<text text-anchor="middle" x="2899" y="-49.6" font-family="Times,serif" font-size="8.00">size: 1</text>
<polyline fill="none" stroke="black" points="2855,-43 2943,-43 "/>
<text text-anchor="middle" x="2899" y="-32.6" font-family="Times,serif" font-size="8.00">next: 0x600001e4a2b0</text>
<polyline fill="none" stroke="black" points="2855,-26 2943,-26 "/>
<text text-anchor="middle" x="2899" y="-15.6" font-family="Times,serif" font-size="8.00">prev: 0x600001e44840</text>
</g>
<!-- Node0x600001e44840&#45;&gt;Node0x600001e49740 -->
<g id="edge23" class="edge">
<title>Node0x600001e44840:n&#45;&gt;Node0x600001e49740:n</title>
<path fill="none" stroke="red" d="M2819,-34C2831,-34 2836.25,-34 2844.88,-34"/>
<polygon fill="red" stroke="red" points="2845,-37.5 2855,-34 2845,-30.5 2845,-37.5"/>
</g>
<!-- Node0x600001e4a2b0 -->
<g id="node25" class="node">
<title>Node0x600001e4a2b0</title>
<polygon fill="none" stroke="black" points="2979,-9 2979,-77 3067,-77 3067,-9 2979,-9"/>
<text text-anchor="middle" x="3023" y="-66.6" font-family="Times,serif" font-size="8.00">word: misterm</text>
<polyline fill="none" stroke="black" points="2979,-60 3067,-60 "/>
<text text-anchor="middle" x="3023" y="-49.6" font-family="Times,serif" font-size="8.00">size: 1</text>
<polyline fill="none" stroke="black" points="2979,-43 3067,-43 "/>
<text text-anchor="middle" x="3023" y="-32.6" font-family="Times,serif" font-size="8.00">next: 0x600001e4a790</text>
<polyline fill="none" stroke="black" points="2979,-26 3067,-26 "/>
<text text-anchor="middle" x="3023" y="-15.6" font-family="Times,serif" font-size="8.00">prev: 0x600001e49740</text>
</g>
<!-- Node0x600001e49740&#45;&gt;Node0x600001e4a2b0 -->
<g id="edge24" class="edge">
<title>Node0x600001e49740:n&#45;&gt;Node0x600001e4a2b0:n</title>
<path fill="none" stroke="red" d="M2943,-34C2955,-34 2960.25,-34 2968.88,-34"/>
<polygon fill="red" stroke="red" points="2969,-37.5 2979,-34 2969,-30.5 2969,-37.5"/>
</g>
<!-- Node0x600001e4a790 -->
<g id="node26" class="node">
<title>Node0x600001e4a790</title>
<polygon fill="none" stroke="black" points="3103,-9 3103,-77 3191,-77 3191,-9 3103,-9"/>
<text text-anchor="middle" x="3147" y="-66.6" font-family="Times,serif" font-size="8.00">word: sympathy</text>
<polyline fill="none" stroke="black" points="3103,-60 3191,-60 "/>
<text text-anchor="middle" x="3147" y="-49.6" font-family="Times,serif" font-size="8.00">size: 1</text>
<polyline fill="none" stroke="black" points="3103,-43 3191,-43 "/>
<text text-anchor="middle" x="3147" y="-32.6" font-family="Times,serif" font-size="8.00">next: 0x600001e4c8a0</text>
<polyline fill="none" stroke="black" points="3103,-26 3191,-26 "/>
<text text-anchor="middle" x="3147" y="-15.6" font-family="Times,serif" font-size="8.00">prev: 0x600001e4a2b0</text>
</g>
<!-- Node0x600001e4a2b0&#45;&gt;Node0x600001e4a790 -->
<g id="edge25" class="edge">
<title>Node0x600001e4a2b0:n&#45;&gt;Node0x600001e4a790:n</title>
<path fill="none" stroke="red" d="M3067,-34C3079,-34 3084.25,-34 3092.88,-34"/>
<polygon fill="red" stroke="red" points="3093,-37.5 3103,-34 3093,-30.5 3093,-37.5"/>
</g>
<!-- Node0x600001e4c8a0 -->
<g id="node27" class="node">
<title>Node0x600001e4c8a0</title>
<polygon fill="none" stroke="black" points="3227,-9 3227,-77 3315,-77 3315,-9 3227,-9"/>
<text text-anchor="middle" x="3271" y="-66.6" font-family="Times,serif" font-size="8.00">word: dram</text>
<polyline fill="none" stroke="black" points="3227,-60 3315,-60 "/>
<text text-anchor="middle" x="3271" y="-49.6" font-family="Times,serif" font-size="8.00">size: 2</text>
<polyline fill="none" stroke="black" points="3227,-43 3315,-43 "/>
<text text-anchor="middle" x="3271" y="-32.6" font-family="Times,serif" font-size="8.00">next: 0x600001e71b00</text>
<polyline fill="none" stroke="black" points="3227,-26 3315,-26 "/>
<text text-anchor="middle" x="3271" y="-15.6" font-family="Times,serif" font-size="8.00">prev: 0x600001e4a790</text>
</g>
<!-- Node0x600001e4a790&#45;&gt;Node0x600001e4c8a0 -->
<g id="edge26" class="edge">
<title>Node0x600001e4a790:n&#45;&gt;Node0x600001e4c8a0:n</title>
<path fill="none" stroke="red" d="M3191,-34C3203,-34 3208.25,-34 3216.88,-34"/>
<polygon fill="red" stroke="red" points="3217,-37.5 3227,-34 3217,-30.5 3217,-37.5"/>
</g>
<!-- Node0x600001e71b00 -->
<g id="node28" class="node">
<title>Node0x600001e71b00</title>
<polygon fill="none" stroke="black" points="3351,-9 3351,-77 3439,-77 3439,-9 3351,-9"/>
<text text-anchor="middle" x="3395" y="-66.6" font-family="Times,serif" font-size="8.00">word: flood</text>
<polyline fill="none" stroke="black" points="3351,-60 3439,-60 "/>
<text text-anchor="middle" x="3395" y="-49.6" font-family="Times,serif" font-size="8.00">size: 1</text>
<polyline fill="none" stroke="black" points="3351,-43 3439,-43 "/>
<text text-anchor="middle" x="3395" y="-32.6" font-family="Times,serif" font-size="8.00">next: 0x600001e722b0</text>
<polyline fill="none" stroke="black" points="3351,-26 3439,-26 "/>
<text text-anchor="middle" x="3395" y="-15.6" font-family="Times,serif" font-size="8.00">prev: 0x600001e4c8a0</text>
</g>
<!-- Node0x600001e4c8a0&#45;&gt;Node0x600001e71b00 -->
<g id="edge27" class="edge">
<title>Node0x600001e4c8a0:n&#45;&gt;Node0x600001e71b00:n</title>
<path fill="none" stroke="red" d="M3315,-34C3327,-34 3332.25,-34 3340.88,-34"/>
<polygon fill="red" stroke="red" points="3341,-37.5 3351,-34 3341,-30.5 3341,-37.5"/>
</g>
<!-- Node0x600001e722b0 -->
<g id="node29" class="node">
<title>Node0x600001e722b0</title>
<polygon fill="none" stroke="black" points="3475,-9 3475,-77 3563,-77 3563,-9 3475,-9"/>
<text text-anchor="middle" x="3519" y="-66.6" font-family="Times,serif" font-size="8.00">word: Smatter</text>
<polyline fill="none" stroke="black" points="3475,-60 3563,-60 "/>
<text text-anchor="middle" x="3519" y="-49.6" font-family="Times,serif" font-size="8.00">size: 1</text>
<polyline fill="none" stroke="black" points="3475,-43 3563,-43 "/>
<text text-anchor="middle" x="3519" y="-32.6" font-family="Times,serif" font-size="8.00">next: 0x600001e7b510</text>
<polyline fill="none" stroke="black" points="3475,-26 3563,-26 "/>
<text text-anchor="middle" x="3519" y="-15.6" font-family="Times,serif" font-size="8.00">prev: 0x600001e71b00</text>
</g>
<!-- Node0x600001e71b00&#45;&gt;Node0x600001e722b0 -->
<g id="edge28" class="edge">
<title>Node0x600001e71b00:n&#45;&gt;Node0x600001e722b0:n</title>
<path fill="none" stroke="red" d="M3439,-34C3451,-34 3456.25,-34 3464.88,-34"/>
<polygon fill="red" stroke="red" points="3465,-37.5 3475,-34 3465,-30.5 3465,-37.5"/>
</g>
<!-- Node0x600001e7b510 -->
<g id="node30" class="node">
<title>Node0x600001e7b510</title>
<polygon fill="none" stroke="black" points="3599,-9 3599,-77 3687,-77 3687,-9 3599,-9"/>
<text text-anchor="middle" x="3643" y="-66.6" font-family="Times,serif" font-size="8.00">word: slug</text>
<polyline fill="none" stroke="black" points="3599,-60 3687,-60 "/>
<text text-anchor="middle" x="3643" y="-49.6" font-family="Times,serif" font-size="8.00">size: 1</text>
<polyline fill="none" stroke="black" points="3599,-43 3687,-43 "/>
<text text-anchor="middle" x="3643" y="-32.6" font-family="Times,serif" font-size="8.00">next: 0x600001e54bd0</text>
<polyline fill="none" stroke="black" points="3599,-26 3687,-26 "/>
<text text-anchor="middle" x="3643" y="-15.6" font-family="Times,serif" font-size="8.00">prev: 0x600001e722b0</text>
</g>
<!-- Node0x600001e722b0&#45;&gt;Node0x600001e7b510 -->
<g id="edge29" class="edge">
<title>Node0x600001e722b0:n&#45;&gt;Node0x600001e7b510:n</title>
<path fill="none" stroke="red" d="M3563,-34C3575,-34 3580.25,-34 3588.88,-34"/>
<polygon fill="red" stroke="red" points="3589,-37.5 3599,-34 3589,-30.5 3589,-37.5"/>
</g>
<!-- Node0x600001e54bd0 -->
<g id="node31" class="node">
<title>Node0x600001e54bd0</title>
<polygon fill="none" stroke="black" points="3723,-9 3723,-77 3811,-77 3811,-9 3723,-9"/>
<text text-anchor="middle" x="3767" y="-66.6" font-family="Times,serif" font-size="8.00">word: monster</text>
<polyline fill="none" stroke="black" points="3723,-60 3811,-60 "/>
<text text-anchor="middle" x="3767" y="-49.6" font-family="Times,serif" font-size="8.00">size: 1</text>
<polyline fill="none" stroke="black" points="3723,-43 3811,-43 "/>
<text text-anchor="middle" x="3767" y="-32.6" font-family="Times,serif" font-size="8.00">next: 0x600001e554a0</text>
<polyline fill="none" stroke="black" points="3723,-26 3811,-26 "/>
<text text-anchor="middle" x="3767" y="-15.6" font-family="Times,serif" font-size="8.00">prev: 0x600001e7b510</text>
</g>
<!-- Node0x600001e7b510&#45;&gt;Node0x600001e54bd0 -->
<g id="edge30" class="edge">
<title>Node0x600001e7b510:n&#45;&gt;Node0x600001e54bd0:n</title>
<path fill="none" stroke="red" d="M3687,-34C3699,-34 3704.25,-34 3712.88,-34"/>
<polygon fill="red" stroke="red" points="3713,-37.5 3723,-34 3713,-30.5 3713,-37.5"/>
</g>
<!-- Node0x600001e554a0 -->
<g id="node32" class="node">
<title>Node0x600001e554a0</title>
<polygon fill="none" stroke="black" points="3847,-9 3847,-77 3935,-77 3935,-9 3847,-9"/>
<text text-anchor="middle" x="3891" y="-66.6" font-family="Times,serif" font-size="8.00">word: greater</text>
<polyline fill="none" stroke="black" points="3847,-60 3935,-60 "/>
<text text-anchor="middle" x="3891" y="-49.6" font-family="Times,serif" font-size="8.00">size: 1</text>
<polyline fill="none" stroke="black" points="3847,-43 3935,-43 "/>
<text text-anchor="middle" x="3891" y="-32.6" font-family="Times,serif" font-size="8.00">next: 0x600001e56640</text>
<polyline fill="none" stroke="black" points="3847,-26 3935,-26 "/>
<text text-anchor="middle" x="3891" y="-15.6" font-family="Times,serif" font-size="8.00">prev: 0x600001e54bd0</text>
</g>
<!-- Node0x600001e54bd0&#45;&gt;Node0x600001e554a0 -->
<g id="edge31" class="edge">
<title>Node0x600001e54bd0:n&#45;&gt;Node0x600001e554a0:n</title>
<path fill="none" stroke="red" d="M3811,-34C3823,-34 3828.25,-34 3836.88,-34"/>
<polygon fill="red" stroke="red" points="3837,-37.5 3847,-34 3837,-30.5 3837,-37.5"/>
</g>
<!-- Node0x600001e56640 -->
<g id="node33" class="node">
<title>Node0x600001e56640</title>
<polygon fill="none" stroke="black" points="3971,-9 3971,-77 4059,-77 4059,-9 3971,-9"/>
<text text-anchor="middle" x="4015" y="-66.6" font-family="Times,serif" font-size="8.00">word: Montage</text>
<polyline fill="none" stroke="black" points="3971,-60 4059,-60 "/>
<text text-anchor="middle" x="4015" y="-49.6" font-family="Times,serif" font-size="8.00">size: 1</text>
<polyline fill="none" stroke="black" points="3971,-43 4059,-43 "/>
<text text-anchor="middle" x="4015" y="-32.6" font-family="Times,serif" font-size="8.00">next: 0x0</text>
<polyline fill="none" stroke="black" points="3971,-26 4059,-26 "/>
<text text-anchor="middle" x="4015" y="-15.6" font-family="Times,serif" font-size="8.00">prev: 0x600001e554a0</text>
</g>
<!-- Node0x600001e554a0&#45;&gt;Node0x600001e56640 -->
<g id="edge32" class="edge">
<title>Node0x600001e554a0:n&#45;&gt;Node0x600001e56640:n</title>
<path fill="none" stroke="red" d="M3935,-34C3947,-34 3952.25,-34 3960.88,-34"/>
<polygon fill="red" stroke="red" points="3961,-37.5 3971,-34 3961,-30.5 3961,-37.5"/>
</g>
</g>
</svg>
