<?xml version="1.0" encoding="UTF-8" standalone="no"?>
<!DOCTYPE svg PUBLIC "-//W3C//DTD SVG 1.1//EN"
 "http://www.w3.org/Graphics/SVG/1.1/DTD/svg11.dtd">
<!-- Generated by graphviz version 2.50.0 (20211204.2007)
 -->
<!-- Title: G Pages: 1 -->
<svg width="3699pt" height="117pt"
 viewBox="0.00 0.00 3699.00 117.00" xmlns="http://www.w3.org/2000/svg" xmlns:xlink="http://www.w3.org/1999/xlink">
<g id="graph0" class="graph" transform="scale(1 1) rotate(0) translate(4 113)">
<title>G</title>
<polygon fill="white" stroke="transparent" points="-4,4 -4,-113 3695,-113 3695,4 -4,4"/>
<g id="clust1" class="cluster">
<title>cluster1878</title>
<polygon fill="none" stroke="black" points="8,-8 8,-101 95,-101 95,-8 8,-8"/>
<text text-anchor="middle" x="51.5" y="-85.8" font-family="Times,serif" font-size="14.00">1878</text>
</g>
<g id="clust2" class="cluster">
<title>cluster1879</title>
<polygon fill="none" stroke="black" points="131,-8 131,-101 218,-101 218,-8 131,-8"/>
<text text-anchor="middle" x="174.5" y="-85.8" font-family="Times,serif" font-size="14.00">1879</text>
</g>
<g id="clust3" class="cluster">
<title>cluster1880</title>
<polygon fill="none" stroke="black" points="254,-8 254,-101 342,-101 342,-8 254,-8"/>
<text text-anchor="middle" x="298" y="-85.8" font-family="Times,serif" font-size="14.00">1880</text>
</g>
<g id="clust4" class="cluster">
<title>cluster1881</title>
<polygon fill="none" stroke="black" points="378,-8 378,-101 465,-101 465,-8 378,-8"/>
<text text-anchor="middle" x="421.5" y="-85.8" font-family="Times,serif" font-size="14.00">1881</text>
</g>
<g id="clust5" class="cluster">
<title>cluster1882</title>
<polygon fill="none" stroke="black" points="501,-8 501,-101 589,-101 589,-8 501,-8"/>
<text text-anchor="middle" x="545" y="-85.8" font-family="Times,serif" font-size="14.00">1882</text>
</g>
<g id="clust6" class="cluster">
<title>cluster1883</title>
<polygon fill="none" stroke="black" points="625,-8 625,-101 712,-101 712,-8 625,-8"/>
<text text-anchor="middle" x="668.5" y="-85.8" font-family="Times,serif" font-size="14.00">1883</text>
</g>
<g id="clust7" class="cluster">
<title>cluster1884</title>
<polygon fill="none" stroke="black" points="748,-8 748,-101 836,-101 836,-8 748,-8"/>
<text text-anchor="middle" x="792" y="-85.8" font-family="Times,serif" font-size="14.00">1884</text>
</g>
<g id="clust8" class="cluster">
<title>cluster1885</title>
<polygon fill="none" stroke="black" points="872,-8 872,-101 960,-101 960,-8 872,-8"/>
<text text-anchor="middle" x="916" y="-85.8" font-family="Times,serif" font-size="14.00">1885</text>
</g>
<g id="clust9" class="cluster">
<title>cluster1886</title>
<polygon fill="none" stroke="black" points="996,-8 996,-101 1084,-101 1084,-8 996,-8"/>
<text text-anchor="middle" x="1040" y="-85.8" font-family="Times,serif" font-size="14.00">1886</text>
</g>
<g id="clust10" class="cluster">
<title>cluster1887</title>
<polygon fill="none" stroke="black" points="1120,-8 1120,-101 1208,-101 1208,-8 1120,-8"/>
<text text-anchor="middle" x="1164" y="-85.8" font-family="Times,serif" font-size="14.00">1887</text>
</g>
<g id="clust11" class="cluster">
<title>cluster1888</title>
<polygon fill="none" stroke="black" points="1244,-8 1244,-101 1331,-101 1331,-8 1244,-8"/>
<text text-anchor="middle" x="1287.5" y="-85.8" font-family="Times,serif" font-size="14.00">1888</text>
</g>
<g id="clust12" class="cluster">
<title>cluster1889</title>
<polygon fill="none" stroke="black" points="1367,-8 1367,-101 1455,-101 1455,-8 1367,-8"/>
<text text-anchor="middle" x="1411" y="-85.8" font-family="Times,serif" font-size="14.00">1889</text>
</g>
<g id="clust13" class="cluster">
<title>cluster1890</title>
<polygon fill="none" stroke="black" points="1491,-8 1491,-101 1579,-101 1579,-8 1491,-8"/>
<text text-anchor="middle" x="1535" y="-85.8" font-family="Times,serif" font-size="14.00">1890</text>
</g>
<g id="clust14" class="cluster">
<title>cluster1891</title>
<polygon fill="none" stroke="black" points="1615,-8 1615,-101 1703,-101 1703,-8 1615,-8"/>
<text text-anchor="middle" x="1659" y="-85.8" font-family="Times,serif" font-size="14.00">1891</text>
</g>
<g id="clust15" class="cluster">
<title>cluster1892</title>
<polygon fill="none" stroke="black" points="1739,-8 1739,-101 1827,-101 1827,-8 1739,-8"/>
<text text-anchor="middle" x="1783" y="-85.8" font-family="Times,serif" font-size="14.00">1892</text>
</g>
<g id="clust16" class="cluster">
<title>cluster1893</title>
<polygon fill="none" stroke="black" points="1863,-8 1863,-101 1950,-101 1950,-8 1863,-8"/>
<text text-anchor="middle" x="1906.5" y="-85.8" font-family="Times,serif" font-size="14.00">1893</text>
</g>
<g id="clust17" class="cluster">
<title>cluster1894</title>
<polygon fill="none" stroke="black" points="1986,-8 1986,-101 2073,-101 2073,-8 1986,-8"/>
<text text-anchor="middle" x="2029.5" y="-85.8" font-family="Times,serif" font-size="14.00">1894</text>
</g>
<g id="clust18" class="cluster">
<title>cluster1895</title>
<polygon fill="none" stroke="black" points="2109,-8 2109,-101 2197,-101 2197,-8 2109,-8"/>
<text text-anchor="middle" x="2153" y="-85.8" font-family="Times,serif" font-size="14.00">1895</text>
</g>
<g id="clust19" class="cluster">
<title>cluster1896</title>
<polygon fill="none" stroke="black" points="2233,-8 2233,-101 2321,-101 2321,-8 2233,-8"/>
<text text-anchor="middle" x="2277" y="-85.8" font-family="Times,serif" font-size="14.00">1896</text>
</g>
<g id="clust20" class="cluster">
<title>cluster1897</title>
<polygon fill="none" stroke="black" points="2357,-8 2357,-101 2445,-101 2445,-8 2357,-8"/>
<text text-anchor="middle" x="2401" y="-85.8" font-family="Times,serif" font-size="14.00">1897</text>
</g>
<g id="clust21" class="cluster">
<title>cluster1898</title>
<polygon fill="none" stroke="black" points="2481,-8 2481,-101 2569,-101 2569,-8 2481,-8"/>
<text text-anchor="middle" x="2525" y="-85.8" font-family="Times,serif" font-size="14.00">1898</text>
</g>
<g id="clust22" class="cluster">
<title>cluster1899</title>
<polygon fill="none" stroke="black" points="2605,-8 2605,-101 2693,-101 2693,-8 2605,-8"/>
<text text-anchor="middle" x="2649" y="-85.8" font-family="Times,serif" font-size="14.00">1899</text>
</g>
<g id="clust23" class="cluster">
<title>cluster1900</title>
<polygon fill="none" stroke="black" points="2729,-8 2729,-101 2817,-101 2817,-8 2729,-8"/>
<text text-anchor="middle" x="2773" y="-85.8" font-family="Times,serif" font-size="14.00">1900</text>
</g>
<g id="clust24" class="cluster">
<title>cluster1901</title>
<polygon fill="none" stroke="black" points="2853,-8 2853,-101 2940,-101 2940,-8 2853,-8"/>
<text text-anchor="middle" x="2896.5" y="-85.8" font-family="Times,serif" font-size="14.00">1901</text>
</g>
<g id="clust25" class="cluster">
<title>cluster1902</title>
<polygon fill="none" stroke="black" points="2976,-8 2976,-101 3064,-101 3064,-8 2976,-8"/>
<text text-anchor="middle" x="3020" y="-85.8" font-family="Times,serif" font-size="14.00">1902</text>
</g>
<g id="clust26" class="cluster">
<title>cluster1903</title>
<polygon fill="none" stroke="black" points="3100,-8 3100,-101 3187,-101 3187,-8 3100,-8"/>
<text text-anchor="middle" x="3143.5" y="-85.8" font-family="Times,serif" font-size="14.00">1903</text>
</g>
<g id="clust27" class="cluster">
<title>cluster1904</title>
<polygon fill="none" stroke="black" points="3223,-8 3223,-101 3311,-101 3311,-8 3223,-8"/>
<text text-anchor="middle" x="3267" y="-85.8" font-family="Times,serif" font-size="14.00">1904</text>
</g>
<g id="clust28" class="cluster">
<title>cluster1905</title>
<polygon fill="none" stroke="black" points="3347,-8 3347,-101 3435,-101 3435,-8 3347,-8"/>
<text text-anchor="middle" x="3391" y="-85.8" font-family="Times,serif" font-size="14.00">1905</text>
</g>
<g id="clust29" class="cluster">
<title>cluster1906</title>
<polygon fill="none" stroke="black" points="3471,-8 3471,-101 3559,-101 3559,-8 3471,-8"/>
<text text-anchor="middle" x="3515" y="-85.8" font-family="Times,serif" font-size="14.00">1906</text>
</g>
<g id="clust30" class="cluster">
<title>cluster1907</title>
<polygon fill="none" stroke="black" points="3595,-8 3595,-101 3683,-101 3683,-8 3595,-8"/>
<text text-anchor="middle" x="3639" y="-85.8" font-family="Times,serif" font-size="14.00">1907</text>
</g>
<!-- Node0x600000710cf0 -->
<g id="node1" class="node">
<title>Node0x600000710cf0</title>
<polygon fill="none" stroke="black" points="8,-9 8,-77 95,-77 95,-9 8,-9"/>
<text text-anchor="middle" x="51.5" y="-66.6" font-family="Times,serif" font-size="8.00">word: Mantua</text>
<polyline fill="none" stroke="black" points="8,-60 95,-60 "/>
<text text-anchor="middle" x="51.5" y="-49.6" font-family="Times,serif" font-size="8.00">size: 16</text>
<polyline fill="none" stroke="black" points="8,-43 95,-43 "/>
<text text-anchor="middle" x="51.5" y="-32.6" font-family="Times,serif" font-size="8.00">next: 0x6000007113e0</text>
<polyline fill="none" stroke="black" points="8,-26 95,-26 "/>
<text text-anchor="middle" x="51.5" y="-15.6" font-family="Times,serif" font-size="8.00">prev: 0x0</text>
</g>
<!-- Node0x6000007113e0 -->
<g id="node2" class="node">
<title>Node0x6000007113e0</title>
<polygon fill="none" stroke="black" points="131,-9 131,-77 218,-77 218,-9 131,-9"/>
<text text-anchor="middle" x="174.5" y="-66.6" font-family="Times,serif" font-size="8.00">word: Two</text>
<polyline fill="none" stroke="black" points="131,-60 218,-60 "/>
<text text-anchor="middle" x="174.5" y="-49.6" font-family="Times,serif" font-size="8.00">size: 5</text>
<polyline fill="none" stroke="black" points="131,-43 218,-43 "/>
<text text-anchor="middle" x="174.5" y="-32.6" font-family="Times,serif" font-size="8.00">next: 0x6000007136f0</text>
<polyline fill="none" stroke="black" points="131,-26 218,-26 "/>
<text text-anchor="middle" x="174.5" y="-15.6" font-family="Times,serif" font-size="8.00">prev: 0x600000710cf0</text>
</g>
<!-- Node0x600000710cf0&#45;&gt;Node0x6000007113e0 -->
<g id="edge1" class="edge">
<title>Node0x600000710cf0:n&#45;&gt;Node0x6000007113e0:n</title>
<path fill="none" stroke="red" d="M95,-34C107,-34 112.25,-34 120.88,-34"/>
<polygon fill="red" stroke="red" points="121,-37.5 131,-34 121,-30.5 121,-37.5"/>
</g>
<!-- Node0x6000007136f0 -->
<g id="node3" class="node">
<title>Node0x6000007136f0</title>
<polygon fill="none" stroke="black" points="254,-9 254,-77 342,-77 342,-9 254,-9"/>
<text text-anchor="middle" x="298" y="-66.6" font-family="Times,serif" font-size="8.00">word: able</text>
<polyline fill="none" stroke="black" points="254,-60 342,-60 "/>
<text text-anchor="middle" x="298" y="-49.6" font-family="Times,serif" font-size="8.00">size: 2</text>
<polyline fill="none" stroke="black" points="254,-43 342,-43 "/>
<text text-anchor="middle" x="298" y="-32.6" font-family="Times,serif" font-size="8.00">next: 0x600000713a20</text>
<polyline fill="none" stroke="black" points="254,-26 342,-26 "/>
<text text-anchor="middle" x="298" y="-15.6" font-family="Times,serif" font-size="8.00">prev: 0x6000007113e0</text>
</g>
<!-- Node0x6000007113e0&#45;&gt;Node0x6000007136f0 -->
<g id="edge2" class="edge">
<title>Node0x6000007113e0:n&#45;&gt;Node0x6000007136f0:n</title>
<path fill="none" stroke="red" d="M218,-34C230,-34 235.25,-34 243.88,-34"/>
<polygon fill="red" stroke="red" points="244,-37.5 254,-34 244,-30.5 244,-37.5"/>
</g>
<!-- Node0x600000713a20 -->
<g id="node4" class="node">
<title>Node0x600000713a20</title>
<polygon fill="none" stroke="black" points="378,-9 378,-77 465,-77 465,-9 378,-9"/>
<text text-anchor="middle" x="421.5" y="-66.6" font-family="Times,serif" font-size="8.00">word: Montagues</text>
<polyline fill="none" stroke="black" points="378,-60 465,-60 "/>
<text text-anchor="middle" x="421.5" y="-49.6" font-family="Times,serif" font-size="8.00">size: 5</text>
<polyline fill="none" stroke="black" points="378,-43 465,-43 "/>
<text text-anchor="middle" x="421.5" y="-32.6" font-family="Times,serif" font-size="8.00">next: 0x600000713cf0</text>
<polyline fill="none" stroke="black" points="378,-26 465,-26 "/>
<text text-anchor="middle" x="421.5" y="-15.6" font-family="Times,serif" font-size="8.00">prev: 0x6000007136f0</text>
</g>
<!-- Node0x6000007136f0&#45;&gt;Node0x600000713a20 -->
<g id="edge3" class="edge">
<title>Node0x6000007136f0:n&#45;&gt;Node0x600000713a20:n</title>
<path fill="none" stroke="red" d="M342,-34C354,-34 359.25,-34 367.88,-34"/>
<polygon fill="red" stroke="red" points="368,-37.5 378,-34 368,-30.5 368,-37.5"/>
</g>
<!-- Node0x600000713cf0 -->
<g id="node5" class="node">
<title>Node0x600000713cf0</title>
<polygon fill="none" stroke="black" points="501,-9 501,-77 589,-77 589,-9 501,-9"/>
<text text-anchor="middle" x="545" y="-66.6" font-family="Times,serif" font-size="8.00">word: law</text>
<polyline fill="none" stroke="black" points="501,-60 589,-60 "/>
<text text-anchor="middle" x="545" y="-49.6" font-family="Times,serif" font-size="8.00">size: 12</text>
<polyline fill="none" stroke="black" points="501,-43 589,-43 "/>
<text text-anchor="middle" x="545" y="-32.6" font-family="Times,serif" font-size="8.00">next: 0x600000713e10</text>
<polyline fill="none" stroke="black" points="501,-26 589,-26 "/>
<text text-anchor="middle" x="545" y="-15.6" font-family="Times,serif" font-size="8.00">prev: 0x600000713a20</text>
</g>
<!-- Node0x600000713a20&#45;&gt;Node0x600000713cf0 -->
<g id="edge4" class="edge">
<title>Node0x600000713a20:n&#45;&gt;Node0x600000713cf0:n</title>
<path fill="none" stroke="red" d="M465,-34C477,-34 482.25,-34 490.88,-34"/>
<polygon fill="red" stroke="red" points="491,-37.5 501,-34 491,-30.5 491,-37.5"/>
</g>
<!-- Node0x600000713e10 -->
<g id="node6" class="node">
<title>Node0x600000713e10</title>
<polygon fill="none" stroke="black" points="625,-9 625,-77 712,-77 712,-9 625,-9"/>
<text text-anchor="middle" x="668.5" y="-66.6" font-family="Times,serif" font-size="8.00">word: as</text>
<polyline fill="none" stroke="black" points="625,-60 712,-60 "/>
<text text-anchor="middle" x="668.5" y="-49.6" font-family="Times,serif" font-size="8.00">size: 121</text>
<polyline fill="none" stroke="black" points="625,-43 712,-43 "/>
<text text-anchor="middle" x="668.5" y="-32.6" font-family="Times,serif" font-size="8.00">next: 0x600000714e10</text>
<polyline fill="none" stroke="black" points="625,-26 712,-26 "/>
<text text-anchor="middle" x="668.5" y="-15.6" font-family="Times,serif" font-size="8.00">prev: 0x600000713cf0</text>
</g>
<!-- Node0x600000713cf0&#45;&gt;Node0x600000713e10 -->
<g id="edge5" class="edge">
<title>Node0x600000713cf0:n&#45;&gt;Node0x600000713e10:n</title>
<path fill="none" stroke="red" d="M589,-34C601,-34 606.25,-34 614.88,-34"/>
<polygon fill="red" stroke="red" points="615,-37.5 625,-34 615,-30.5 615,-37.5"/>
</g>
<!-- Node0x600000714e10 -->
<g id="node7" class="node">
<title>Node0x600000714e10</title>
<polygon fill="none" stroke="black" points="748,-9 748,-77 836,-77 836,-9 748,-9"/>
<text text-anchor="middle" x="792" y="-66.6" font-family="Times,serif" font-size="8.00">word: this</text>
<polyline fill="none" stroke="black" points="748,-60 836,-60 "/>
<text text-anchor="middle" x="792" y="-49.6" font-family="Times,serif" font-size="8.00">size: 185</text>
<polyline fill="none" stroke="black" points="748,-43 836,-43 "/>
<text text-anchor="middle" x="792" y="-32.6" font-family="Times,serif" font-size="8.00">next: 0x6000007181e0</text>
<polyline fill="none" stroke="black" points="748,-26 836,-26 "/>
<text text-anchor="middle" x="792" y="-15.6" font-family="Times,serif" font-size="8.00">prev: 0x600000713e10</text>
</g>
<!-- Node0x600000713e10&#45;&gt;Node0x600000714e10 -->
<g id="edge6" class="edge">
<title>Node0x600000713e10:n&#45;&gt;Node0x600000714e10:n</title>
<path fill="none" stroke="red" d="M712,-34C724,-34 729.25,-34 737.88,-34"/>
<polygon fill="red" stroke="red" points="738,-37.5 748,-34 738,-30.5 738,-37.5"/>
</g>
<!-- Node0x6000007181e0 -->
<g id="node8" class="node">
<title>Node0x6000007181e0</title>
<polygon fill="none" stroke="black" points="872,-9 872,-77 960,-77 960,-9 872,-9"/>
<text text-anchor="middle" x="916" y="-66.6" font-family="Times,serif" font-size="8.00">word: madam</text>
<polyline fill="none" stroke="black" points="872,-60 960,-60 "/>
<text text-anchor="middle" x="916" y="-49.6" font-family="Times,serif" font-size="8.00">size: 11</text>
<polyline fill="none" stroke="black" points="872,-43 960,-43 "/>
<text text-anchor="middle" x="916" y="-32.6" font-family="Times,serif" font-size="8.00">next: 0x60000071c390</text>
<polyline fill="none" stroke="black" points="872,-26 960,-26 "/>
<text text-anchor="middle" x="916" y="-15.6" font-family="Times,serif" font-size="8.00">prev: 0x600000714e10</text>
</g>
<!-- Node0x600000714e10&#45;&gt;Node0x6000007181e0 -->
<g id="edge7" class="edge">
<title>Node0x600000714e10:n&#45;&gt;Node0x6000007181e0:n</title>
<path fill="none" stroke="red" d="M836,-34C848,-34 853.25,-34 861.88,-34"/>
<polygon fill="red" stroke="red" points="862,-37.5 872,-34 862,-30.5 862,-37.5"/>
</g>
<!-- Node0x60000071c390 -->
<g id="node9" class="node">
<title>Node0x60000071c390</title>
<polygon fill="none" stroke="black" points="996,-9 996,-77 1084,-77 1084,-9 996,-9"/>
<text text-anchor="middle" x="1040" y="-66.6" font-family="Times,serif" font-size="8.00">word: Whereto</text>
<polyline fill="none" stroke="black" points="996,-60 1084,-60 "/>
<text text-anchor="middle" x="1040" y="-49.6" font-family="Times,serif" font-size="8.00">size: 1</text>
<polyline fill="none" stroke="black" points="996,-43 1084,-43 "/>
<text text-anchor="middle" x="1040" y="-32.6" font-family="Times,serif" font-size="8.00">next: 0x60000071bf90</text>
<polyline fill="none" stroke="black" points="996,-26 1084,-26 "/>
<text text-anchor="middle" x="1040" y="-15.6" font-family="Times,serif" font-size="8.00">prev: 0x6000007181e0</text>
</g>
<!-- Node0x6000007181e0&#45;&gt;Node0x60000071c390 -->
<g id="edge8" class="edge">
<title>Node0x6000007181e0:n&#45;&gt;Node0x60000071c390:n</title>
<path fill="none" stroke="red" d="M960,-34C972,-34 977.25,-34 985.88,-34"/>
<polygon fill="red" stroke="red" points="986,-37.5 996,-34 986,-30.5 986,-37.5"/>
</g>
<!-- Node0x60000071bf90 -->
<g id="node10" class="node">
<title>Node0x60000071bf90</title>
<polygon fill="none" stroke="black" points="1120,-9 1120,-77 1208,-77 1208,-9 1120,-9"/>
<text text-anchor="middle" x="1164" y="-66.6" font-family="Times,serif" font-size="8.00">word: language</text>
<polyline fill="none" stroke="black" points="1120,-60 1208,-60 "/>
<text text-anchor="middle" x="1164" y="-49.6" font-family="Times,serif" font-size="8.00">size: 1</text>
<polyline fill="none" stroke="black" points="1120,-43 1208,-43 "/>
<text text-anchor="middle" x="1164" y="-32.6" font-family="Times,serif" font-size="8.00">next: 0x60000071c6c0</text>
<polyline fill="none" stroke="black" points="1120,-26 1208,-26 "/>
<text text-anchor="middle" x="1164" y="-15.6" font-family="Times,serif" font-size="8.00">prev: 0x60000071c390</text>
</g>
<!-- Node0x60000071c390&#45;&gt;Node0x60000071bf90 -->
<g id="edge9" class="edge">
<title>Node0x60000071c390:n&#45;&gt;Node0x60000071bf90:n</title>
<path fill="none" stroke="red" d="M1084,-34C1096,-34 1101.25,-34 1109.88,-34"/>
<polygon fill="red" stroke="red" points="1110,-37.5 1120,-34 1110,-30.5 1110,-37.5"/>
</g>
<!-- Node0x60000071c6c0 -->
<g id="node11" class="node">
<title>Node0x60000071c6c0</title>
<polygon fill="none" stroke="black" points="1244,-9 1244,-77 1331,-77 1331,-9 1244,-9"/>
<text text-anchor="middle" x="1287.5" y="-66.6" font-family="Times,serif" font-size="8.00">word: Livia</text>
<polyline fill="none" stroke="black" points="1244,-60 1331,-60 "/>
<text text-anchor="middle" x="1287.5" y="-49.6" font-family="Times,serif" font-size="8.00">size: 1</text>
<polyline fill="none" stroke="black" points="1244,-43 1331,-43 "/>
<text text-anchor="middle" x="1287.5" y="-32.6" font-family="Times,serif" font-size="8.00">next: 0x600000708840</text>
<polyline fill="none" stroke="black" points="1244,-26 1331,-26 "/>
<text text-anchor="middle" x="1287.5" y="-15.6" font-family="Times,serif" font-size="8.00">prev: 0x60000071bf90</text>
</g>
<!-- Node0x60000071bf90&#45;&gt;Node0x60000071c6c0 -->
<g id="edge10" class="edge">
<title>Node0x60000071bf90:n&#45;&gt;Node0x60000071c6c0:n</title>
<path fill="none" stroke="red" d="M1208,-34C1220,-34 1225.25,-34 1233.88,-34"/>
<polygon fill="red" stroke="red" points="1234,-37.5 1244,-34 1234,-30.5 1234,-37.5"/>
</g>
<!-- Node0x600000708840 -->
<g id="node12" class="node">
<title>Node0x600000708840</title>
<polygon fill="none" stroke="black" points="1367,-9 1367,-77 1455,-77 1455,-9 1367,-9"/>
<text text-anchor="middle" x="1411" y="-66.6" font-family="Times,serif" font-size="8.00">word: wean</text>
<polyline fill="none" stroke="black" points="1367,-60 1455,-60 "/>
<text text-anchor="middle" x="1411" y="-49.6" font-family="Times,serif" font-size="8.00">size: 1</text>
<polyline fill="none" stroke="black" points="1367,-43 1455,-43 "/>
<text text-anchor="middle" x="1411" y="-32.6" font-family="Times,serif" font-size="8.00">next: 0x600000708ab0</text>
<polyline fill="none" stroke="black" points="1367,-26 1455,-26 "/>
<text text-anchor="middle" x="1411" y="-15.6" font-family="Times,serif" font-size="8.00">prev: 0x60000071c6c0</text>
</g>
<!-- Node0x60000071c6c0&#45;&gt;Node0x600000708840 -->
<g id="edge11" class="edge">
<title>Node0x60000071c6c0:n&#45;&gt;Node0x600000708840:n</title>
<path fill="none" stroke="red" d="M1331,-34C1343,-34 1348.25,-34 1356.88,-34"/>
<polygon fill="red" stroke="red" points="1357,-37.5 1367,-34 1357,-30.5 1357,-37.5"/>
</g>
<!-- Node0x600000708ab0 -->
<g id="node13" class="node">
<title>Node0x600000708ab0</title>
<polygon fill="none" stroke="black" points="1491,-9 1491,-77 1579,-77 1579,-9 1491,-9"/>
<text text-anchor="middle" x="1535" y="-66.6" font-family="Times,serif" font-size="8.00">word: fool</text>
<polyline fill="none" stroke="black" points="1491,-60 1579,-60 "/>
<text text-anchor="middle" x="1535" y="-49.6" font-family="Times,serif" font-size="8.00">size: 7</text>
<polyline fill="none" stroke="black" points="1491,-43 1579,-43 "/>
<text text-anchor="middle" x="1535" y="-32.6" font-family="Times,serif" font-size="8.00">next: 0x600000705620</text>
<polyline fill="none" stroke="black" points="1491,-26 1579,-26 "/>
<text text-anchor="middle" x="1535" y="-15.6" font-family="Times,serif" font-size="8.00">prev: 0x600000708840</text>
</g>
<!-- Node0x600000708840&#45;&gt;Node0x600000708ab0 -->
<g id="edge12" class="edge">
<title>Node0x600000708840:n&#45;&gt;Node0x600000708ab0:n</title>
<path fill="none" stroke="red" d="M1455,-34C1467,-34 1472.25,-34 1480.88,-34"/>
<polygon fill="red" stroke="red" points="1481,-37.5 1491,-34 1481,-30.5 1481,-37.5"/>
</g>
<!-- Node0x600000705620 -->
<g id="node14" class="node">
<title>Node0x600000705620</title>
<polygon fill="none" stroke="black" points="1615,-9 1615,-77 1703,-77 1703,-9 1615,-9"/>
<text text-anchor="middle" x="1659" y="-66.6" font-family="Times,serif" font-size="8.00">word: candle</text>
<polyline fill="none" stroke="black" points="1615,-60 1703,-60 "/>
<text text-anchor="middle" x="1659" y="-49.6" font-family="Times,serif" font-size="8.00">size: 1</text>
<polyline fill="none" stroke="black" points="1615,-43 1703,-43 "/>
<text text-anchor="middle" x="1659" y="-32.6" font-family="Times,serif" font-size="8.00">next: 0x60000071f720</text>
<polyline fill="none" stroke="black" points="1615,-26 1703,-26 "/>
<text text-anchor="middle" x="1659" y="-15.6" font-family="Times,serif" font-size="8.00">prev: 0x600000708ab0</text>
</g>
<!-- Node0x600000708ab0&#45;&gt;Node0x600000705620 -->
<g id="edge13" class="edge">
<title>Node0x600000708ab0:n&#45;&gt;Node0x600000705620:n</title>
<path fill="none" stroke="red" d="M1579,-34C1591,-34 1596.25,-34 1604.88,-34"/>
<polygon fill="red" stroke="red" points="1605,-37.5 1615,-34 1605,-30.5 1605,-37.5"/>
</g>
<!-- Node0x60000071f720 -->
<g id="node15" class="node">
<title>Node0x60000071f720</title>
<polygon fill="none" stroke="black" points="1739,-9 1739,-77 1827,-77 1827,-9 1739,-9"/>
<text text-anchor="middle" x="1783" y="-66.6" font-family="Times,serif" font-size="8.00">word: thirty</text>
<polyline fill="none" stroke="black" points="1739,-60 1827,-60 "/>
<text text-anchor="middle" x="1783" y="-49.6" font-family="Times,serif" font-size="8.00">size: 2</text>
<polyline fill="none" stroke="black" points="1739,-43 1827,-43 "/>
<text text-anchor="middle" x="1783" y="-32.6" font-family="Times,serif" font-size="8.00">next: 0x60000071fe40</text>
<polyline fill="none" stroke="black" points="1739,-26 1827,-26 "/>
<text text-anchor="middle" x="1783" y="-15.6" font-family="Times,serif" font-size="8.00">prev: 0x600000705620</text>
</g>
<!-- Node0x600000705620&#45;&gt;Node0x60000071f720 -->
<g id="edge14" class="edge">
<title>Node0x600000705620:n&#45;&gt;Node0x60000071f720:n</title>
<path fill="none" stroke="red" d="M1703,-34C1715,-34 1720.25,-34 1728.88,-34"/>
<polygon fill="red" stroke="red" points="1729,-37.5 1739,-34 1729,-30.5 1729,-37.5"/>
</g>
<!-- Node0x60000071fe40 -->
<g id="node16" class="node">
<title>Node0x60000071fe40</title>
<polygon fill="none" stroke="black" points="1863,-9 1863,-77 1950,-77 1950,-9 1863,-9"/>
<text text-anchor="middle" x="1906.5" y="-66.6" font-family="Times,serif" font-size="8.00">word: solemnity</text>
<polyline fill="none" stroke="black" points="1863,-60 1950,-60 "/>
<text text-anchor="middle" x="1906.5" y="-49.6" font-family="Times,serif" font-size="8.00">size: 3</text>
<polyline fill="none" stroke="black" points="1863,-43 1950,-43 "/>
<text text-anchor="middle" x="1906.5" y="-32.6" font-family="Times,serif" font-size="8.00">next: 0x600000700990</text>
<polyline fill="none" stroke="black" points="1863,-26 1950,-26 "/>
<text text-anchor="middle" x="1906.5" y="-15.6" font-family="Times,serif" font-size="8.00">prev: 0x60000071f720</text>
</g>
<!-- Node0x60000071f720&#45;&gt;Node0x60000071fe40 -->
<g id="edge15" class="edge">
<title>Node0x60000071f720:n&#45;&gt;Node0x60000071fe40:n</title>
<path fill="none" stroke="red" d="M1827,-34C1839,-34 1844.25,-34 1852.88,-34"/>
<polygon fill="red" stroke="red" points="1853,-37.5 1863,-34 1853,-30.5 1853,-37.5"/>
</g>
<!-- Node0x600000700990 -->
<g id="node17" class="node">
<title>Node0x600000700990</title>
<polygon fill="none" stroke="black" points="1986,-9 1986,-77 2073,-77 2073,-9 1986,-9"/>
<text text-anchor="middle" x="2029.5" y="-66.6" font-family="Times,serif" font-size="8.00">word: Saints</text>
<polyline fill="none" stroke="black" points="1986,-60 2073,-60 "/>
<text text-anchor="middle" x="2029.5" y="-49.6" font-family="Times,serif" font-size="8.00">size: 1</text>
<polyline fill="none" stroke="black" points="1986,-43 2073,-43 "/>
<text text-anchor="middle" x="2029.5" y="-32.6" font-family="Times,serif" font-size="8.00">next: 0x600000702760</text>
<polyline fill="none" stroke="black" points="1986,-26 2073,-26 "/>
<text text-anchor="middle" x="2029.5" y="-15.6" font-family="Times,serif" font-size="8.00">prev: 0x60000071fe40</text>
</g>
<!-- Node0x60000071fe40&#45;&gt;Node0x600000700990 -->
<g id="edge16" class="edge">
<title>Node0x60000071fe40:n&#45;&gt;Node0x600000700990:n</title>
<path fill="none" stroke="red" d="M1950,-34C1962,-34 1967.25,-34 1975.88,-34"/>
<polygon fill="red" stroke="red" points="1976,-37.5 1986,-34 1976,-30.5 1976,-37.5"/>
</g>
<!-- Node0x600000702760 -->
<g id="node18" class="node">
<title>Node0x600000702760</title>
<polygon fill="none" stroke="black" points="2109,-9 2109,-77 2197,-77 2197,-9 2109,-9"/>
<text text-anchor="middle" x="2153" y="-66.6" font-family="Times,serif" font-size="8.00">word: bold</text>
<polyline fill="none" stroke="black" points="2109,-60 2197,-60 "/>
<text text-anchor="middle" x="2153" y="-49.6" font-family="Times,serif" font-size="8.00">size: 4</text>
<polyline fill="none" stroke="black" points="2109,-43 2197,-43 "/>
<text text-anchor="middle" x="2153" y="-32.6" font-family="Times,serif" font-size="8.00">next: 0x600000702790</text>
<polyline fill="none" stroke="black" points="2109,-26 2197,-26 "/>
<text text-anchor="middle" x="2153" y="-15.6" font-family="Times,serif" font-size="8.00">prev: 0x600000700990</text>
</g>
<!-- Node0x600000700990&#45;&gt;Node0x600000702760 -->
<g id="edge17" class="edge">
<title>Node0x600000700990:n&#45;&gt;Node0x600000702760:n</title>
<path fill="none" stroke="red" d="M2073,-34C2085,-34 2090.25,-34 2098.88,-34"/>
<polygon fill="red" stroke="red" points="2099,-37.5 2109,-34 2099,-30.5 2099,-37.5"/>
</g>
<!-- Node0x600000702790 -->
<g id="node19" class="node">
<title>Node0x600000702790</title>
<polygon fill="none" stroke="black" points="2233,-9 2233,-77 2321,-77 2321,-9 2233,-9"/>
<text text-anchor="middle" x="2277" y="-66.6" font-family="Times,serif" font-size="8.00">word: fairest</text>
<polyline fill="none" stroke="black" points="2233,-60 2321,-60 "/>
<text text-anchor="middle" x="2277" y="-49.6" font-family="Times,serif" font-size="8.00">size: 1</text>
<polyline fill="none" stroke="black" points="2233,-43 2321,-43 "/>
<text text-anchor="middle" x="2277" y="-32.6" font-family="Times,serif" font-size="8.00">next: 0x600000733930</text>
<polyline fill="none" stroke="black" points="2233,-26 2321,-26 "/>
<text text-anchor="middle" x="2277" y="-15.6" font-family="Times,serif" font-size="8.00">prev: 0x600000702760</text>
</g>
<!-- Node0x600000702760&#45;&gt;Node0x600000702790 -->
<g id="edge18" class="edge">
<title>Node0x600000702760:n&#45;&gt;Node0x600000702790:n</title>
<path fill="none" stroke="red" d="M2197,-34C2209,-34 2214.25,-34 2222.88,-34"/>
<polygon fill="red" stroke="red" points="2223,-37.5 2233,-34 2223,-30.5 2223,-37.5"/>
</g>
<!-- Node0x600000733930 -->
<g id="node20" class="node">
<title>Node0x600000733930</title>
<polygon fill="none" stroke="black" points="2357,-9 2357,-77 2445,-77 2445,-9 2357,-9"/>
<text text-anchor="middle" x="2401" y="-66.6" font-family="Times,serif" font-size="8.00">word: Petrarch</text>
<polyline fill="none" stroke="black" points="2357,-60 2445,-60 "/>
<text text-anchor="middle" x="2401" y="-49.6" font-family="Times,serif" font-size="8.00">size: 1</text>
<polyline fill="none" stroke="black" points="2357,-43 2445,-43 "/>
<text text-anchor="middle" x="2401" y="-32.6" font-family="Times,serif" font-size="8.00">next: 0x600000737120</text>
<polyline fill="none" stroke="black" points="2357,-26 2445,-26 "/>
<text text-anchor="middle" x="2401" y="-15.6" font-family="Times,serif" font-size="8.00">prev: 0x600000702790</text>
</g>
<!-- Node0x600000702790&#45;&gt;Node0x600000733930 -->
<g id="edge19" class="edge">
<title>Node0x600000702790:n&#45;&gt;Node0x600000733930:n</title>
<path fill="none" stroke="red" d="M2321,-34C2333,-34 2338.25,-34 2346.88,-34"/>
<polygon fill="red" stroke="red" points="2347,-37.5 2357,-34 2347,-30.5 2347,-37.5"/>
</g>
<!-- Node0x600000737120 -->
<g id="node21" class="node">
<title>Node0x600000737120</title>
<polygon fill="none" stroke="black" points="2481,-9 2481,-77 2569,-77 2569,-9 2481,-9"/>
<text text-anchor="middle" x="2525" y="-66.6" font-family="Times,serif" font-size="8.00">word: confessor</text>
<polyline fill="none" stroke="black" points="2481,-60 2569,-60 "/>
<text text-anchor="middle" x="2525" y="-49.6" font-family="Times,serif" font-size="8.00">size: 2</text>
<polyline fill="none" stroke="black" points="2481,-43 2569,-43 "/>
<text text-anchor="middle" x="2525" y="-32.6" font-family="Times,serif" font-size="8.00">next: 0x6000007399b0</text>
<polyline fill="none" stroke="black" points="2481,-26 2569,-26 "/>
<text text-anchor="middle" x="2525" y="-15.6" font-family="Times,serif" font-size="8.00">prev: 0x600000733930</text>
</g>
<!-- Node0x600000733930&#45;&gt;Node0x600000737120 -->
<g id="edge20" class="edge">
<title>Node0x600000733930:n&#45;&gt;Node0x600000737120:n</title>
<path fill="none" stroke="red" d="M2445,-34C2457,-34 2462.25,-34 2470.88,-34"/>
<polygon fill="red" stroke="red" points="2471,-37.5 2481,-34 2471,-30.5 2471,-37.5"/>
</g>
<!-- Node0x6000007399b0 -->
<g id="node22" class="node">
<title>Node0x6000007399b0</title>
<polygon fill="none" stroke="black" points="2605,-9 2605,-77 2693,-77 2693,-9 2605,-9"/>
<text text-anchor="middle" x="2649" y="-66.6" font-family="Times,serif" font-size="8.00">word: excuses</text>
<polyline fill="none" stroke="black" points="2605,-60 2693,-60 "/>
<text text-anchor="middle" x="2649" y="-49.6" font-family="Times,serif" font-size="8.00">size: 1</text>
<polyline fill="none" stroke="black" points="2605,-43 2693,-43 "/>
<text text-anchor="middle" x="2649" y="-32.6" font-family="Times,serif" font-size="8.00">next: 0x60000073fea0</text>
<polyline fill="none" stroke="black" points="2605,-26 2693,-26 "/>
<text text-anchor="middle" x="2649" y="-15.6" font-family="Times,serif" font-size="8.00">prev: 0x600000737120</text>
</g>
<!-- Node0x600000737120&#45;&gt;Node0x6000007399b0 -->
<g id="edge21" class="edge">
<title>Node0x600000737120:n&#45;&gt;Node0x6000007399b0:n</title>
<path fill="none" stroke="red" d="M2569,-34C2581,-34 2586.25,-34 2594.88,-34"/>
<polygon fill="red" stroke="red" points="2595,-37.5 2605,-34 2595,-30.5 2595,-37.5"/>
</g>
<!-- Node0x60000073fea0 -->
<g id="node23" class="node">
<title>Node0x60000073fea0</title>
<polygon fill="none" stroke="black" points="2729,-9 2729,-77 2817,-77 2817,-9 2729,-9"/>
<text text-anchor="middle" x="2773" y="-66.6" font-family="Times,serif" font-size="8.00">word: comforted</text>
<polyline fill="none" stroke="black" points="2729,-60 2817,-60 "/>
<text text-anchor="middle" x="2773" y="-49.6" font-family="Times,serif" font-size="8.00">size: 1</text>
<polyline fill="none" stroke="black" points="2729,-43 2817,-43 "/>
<text text-anchor="middle" x="2773" y="-32.6" font-family="Times,serif" font-size="8.00">next: 0x600000721aa0</text>
<polyline fill="none" stroke="black" points="2729,-26 2817,-26 "/>
<text text-anchor="middle" x="2773" y="-15.6" font-family="Times,serif" font-size="8.00">prev: 0x6000007399b0</text>
</g>
<!-- Node0x6000007399b0&#45;&gt;Node0x60000073fea0 -->
<g id="edge22" class="edge">
<title>Node0x6000007399b0:n&#45;&gt;Node0x60000073fea0:n</title>
<path fill="none" stroke="red" d="M2693,-34C2705,-34 2710.25,-34 2718.88,-34"/>
<polygon fill="red" stroke="red" points="2719,-37.5 2729,-34 2719,-30.5 2719,-37.5"/>
</g>
<!-- Node0x600000721aa0 -->
<g id="node24" class="node">
<title>Node0x600000721aa0</title>
<polygon fill="none" stroke="black" points="2853,-9 2853,-77 2940,-77 2940,-9 2853,-9"/>
<text text-anchor="middle" x="2896.5" y="-66.6" font-family="Times,serif" font-size="8.00">word: shrieks</text>
<polyline fill="none" stroke="black" points="2853,-60 2940,-60 "/>
<text text-anchor="middle" x="2896.5" y="-49.6" font-family="Times,serif" font-size="8.00">size: 1</text>
<polyline fill="none" stroke="black" points="2853,-43 2940,-43 "/>
<text text-anchor="middle" x="2896.5" y="-32.6" font-family="Times,serif" font-size="8.00">next: 0x600000721fe0</text>
<polyline fill="none" stroke="black" points="2853,-26 2940,-26 "/>
<text text-anchor="middle" x="2896.5" y="-15.6" font-family="Times,serif" font-size="8.00">prev: 0x60000073fea0</text>
</g>
<!-- Node0x60000073fea0&#45;&gt;Node0x600000721aa0 -->
<g id="edge23" class="edge">
<title>Node0x60000073fea0:n&#45;&gt;Node0x600000721aa0:n</title>
<path fill="none" stroke="red" d="M2817,-34C2829,-34 2834.25,-34 2842.88,-34"/>
<polygon fill="red" stroke="red" points="2843,-37.5 2853,-34 2843,-30.5 2843,-37.5"/>
</g>
<!-- Node0x600000721fe0 -->
<g id="node25" class="node">
<title>Node0x600000721fe0</title>
<polygon fill="none" stroke="black" points="2976,-9 2976,-77 3064,-77 3064,-9 2976,-9"/>
<text text-anchor="middle" x="3020" y="-66.6" font-family="Times,serif" font-size="8.00">word: cost</text>
<polyline fill="none" stroke="black" points="2976,-60 3064,-60 "/>
<text text-anchor="middle" x="3020" y="-49.6" font-family="Times,serif" font-size="8.00">size: 1</text>
<polyline fill="none" stroke="black" points="2976,-43 3064,-43 "/>
<text text-anchor="middle" x="3020" y="-32.6" font-family="Times,serif" font-size="8.00">next: 0x60000070ad90</text>
<polyline fill="none" stroke="black" points="2976,-26 3064,-26 "/>
<text text-anchor="middle" x="3020" y="-15.6" font-family="Times,serif" font-size="8.00">prev: 0x600000721aa0</text>
</g>
<!-- Node0x600000721aa0&#45;&gt;Node0x600000721fe0 -->
<g id="edge24" class="edge">
<title>Node0x600000721aa0:n&#45;&gt;Node0x600000721fe0:n</title>
<path fill="none" stroke="red" d="M2940,-34C2952,-34 2957.25,-34 2965.88,-34"/>
<polygon fill="red" stroke="red" points="2966,-37.5 2976,-34 2966,-30.5 2966,-37.5"/>
</g>
<!-- Node0x60000070ad90 -->
<g id="node26" class="node">
<title>Node0x60000070ad90</title>
<polygon fill="none" stroke="black" points="3100,-9 3100,-77 3187,-77 3187,-9 3100,-9"/>
<text text-anchor="middle" x="3143.5" y="-66.6" font-family="Times,serif" font-size="8.00">word: bells</text>
<polyline fill="none" stroke="black" points="3100,-60 3187,-60 "/>
<text text-anchor="middle" x="3143.5" y="-49.6" font-family="Times,serif" font-size="8.00">size: 1</text>
<polyline fill="none" stroke="black" points="3100,-43 3187,-43 "/>
<text text-anchor="middle" x="3143.5" y="-32.6" font-family="Times,serif" font-size="8.00">next: 0x60000070bb70</text>
<polyline fill="none" stroke="black" points="3100,-26 3187,-26 "/>
<text text-anchor="middle" x="3143.5" y="-15.6" font-family="Times,serif" font-size="8.00">prev: 0x600000721fe0</text>
</g>
<!-- Node0x600000721fe0&#45;&gt;Node0x60000070ad90 -->
<g id="edge25" class="edge">
<title>Node0x600000721fe0:n&#45;&gt;Node0x60000070ad90:n</title>
<path fill="none" stroke="red" d="M3064,-34C3076,-34 3081.25,-34 3089.88,-34"/>
<polygon fill="red" stroke="red" points="3090,-37.5 3100,-34 3090,-30.5 3090,-37.5"/>
</g>
<!-- Node0x60000070bb70 -->
<g id="node27" class="node">
<title>Node0x60000070bb70</title>
<polygon fill="none" stroke="black" points="3223,-9 3223,-77 3311,-77 3311,-9 3223,-9"/>
<text text-anchor="middle" x="3267" y="-66.6" font-family="Times,serif" font-size="8.00">word: Culling</text>
<polyline fill="none" stroke="black" points="3223,-60 3311,-60 "/>
<text text-anchor="middle" x="3267" y="-49.6" font-family="Times,serif" font-size="8.00">size: 1</text>
<polyline fill="none" stroke="black" points="3223,-43 3311,-43 "/>
<text text-anchor="middle" x="3267" y="-32.6" font-family="Times,serif" font-size="8.00">next: 0x600000725b60</text>
<polyline fill="none" stroke="black" points="3223,-26 3311,-26 "/>
<text text-anchor="middle" x="3267" y="-15.6" font-family="Times,serif" font-size="8.00">prev: 0x60000070ad90</text>
</g>
<!-- Node0x60000070ad90&#45;&gt;Node0x60000070bb70 -->
<g id="edge26" class="edge">
<title>Node0x60000070ad90:n&#45;&gt;Node0x60000070bb70:n</title>
<path fill="none" stroke="red" d="M3187,-34C3199,-34 3204.25,-34 3212.88,-34"/>
<polygon fill="red" stroke="red" points="3213,-37.5 3223,-34 3213,-30.5 3213,-37.5"/>
</g>
<!-- Node0x600000725b60 -->
<g id="node28" class="node">
<title>Node0x600000725b60</title>
<polygon fill="none" stroke="black" points="3347,-9 3347,-77 3435,-77 3435,-9 3347,-9"/>
<text text-anchor="middle" x="3391" y="-66.6" font-family="Times,serif" font-size="8.00">word: ensign</text>
<polyline fill="none" stroke="black" points="3347,-60 3435,-60 "/>
<text text-anchor="middle" x="3391" y="-49.6" font-family="Times,serif" font-size="8.00">size: 1</text>
<polyline fill="none" stroke="black" points="3347,-43 3435,-43 "/>
<text text-anchor="middle" x="3391" y="-32.6" font-family="Times,serif" font-size="8.00">next: 0x6000007262e0</text>
<polyline fill="none" stroke="black" points="3347,-26 3435,-26 "/>
<text text-anchor="middle" x="3391" y="-15.6" font-family="Times,serif" font-size="8.00">prev: 0x60000070bb70</text>
</g>
<!-- Node0x60000070bb70&#45;&gt;Node0x600000725b60 -->
<g id="edge27" class="edge">
<title>Node0x60000070bb70:n&#45;&gt;Node0x600000725b60:n</title>
<path fill="none" stroke="red" d="M3311,-34C3323,-34 3328.25,-34 3336.88,-34"/>
<polygon fill="red" stroke="red" points="3337,-37.5 3347,-34 3337,-30.5 3337,-37.5"/>
</g>
<!-- Node0x6000007262e0 -->
<g id="node29" class="node">
<title>Node0x6000007262e0</title>
<polygon fill="none" stroke="black" points="3471,-9 3471,-77 3559,-77 3559,-9 3471,-9"/>
<text text-anchor="middle" x="3515" y="-66.6" font-family="Times,serif" font-size="8.00">word: discern</text>
<polyline fill="none" stroke="black" points="3471,-60 3559,-60 "/>
<text text-anchor="middle" x="3515" y="-49.6" font-family="Times,serif" font-size="8.00">size: 1</text>
<polyline fill="none" stroke="black" points="3471,-43 3559,-43 "/>
<text text-anchor="middle" x="3515" y="-32.6" font-family="Times,serif" font-size="8.00">next: 0x600000727000</text>
<polyline fill="none" stroke="black" points="3471,-26 3559,-26 "/>
<text text-anchor="middle" x="3515" y="-15.6" font-family="Times,serif" font-size="8.00">prev: 0x600000725b60</text>
</g>
<!-- Node0x600000725b60&#45;&gt;Node0x6000007262e0 -->
<g id="edge28" class="edge">
<title>Node0x600000725b60:n&#45;&gt;Node0x6000007262e0:n</title>
<path fill="none" stroke="red" d="M3435,-34C3447,-34 3452.25,-34 3460.88,-34"/>
<polygon fill="red" stroke="red" points="3461,-37.5 3471,-34 3461,-30.5 3461,-37.5"/>
</g>
<!-- Node0x600000727000 -->
<g id="node30" class="node">
<title>Node0x600000727000</title>
<polygon fill="none" stroke="black" points="3595,-9 3595,-77 3683,-77 3683,-9 3595,-9"/>
<text text-anchor="middle" x="3639" y="-66.6" font-family="Times,serif" font-size="8.00">word: Meantime</text>
<polyline fill="none" stroke="black" points="3595,-60 3683,-60 "/>
<text text-anchor="middle" x="3639" y="-49.6" font-family="Times,serif" font-size="8.00">size: 2</text>
<polyline fill="none" stroke="black" points="3595,-43 3683,-43 "/>
<text text-anchor="middle" x="3639" y="-32.6" font-family="Times,serif" font-size="8.00">next: 0x0</text>
<polyline fill="none" stroke="black" points="3595,-26 3683,-26 "/>
<text text-anchor="middle" x="3639" y="-15.6" font-family="Times,serif" font-size="8.00">prev: 0x6000007262e0</text>
</g>
<!-- Node0x6000007262e0&#45;&gt;Node0x600000727000 -->
<g id="edge29" class="edge">
<title>Node0x6000007262e0:n&#45;&gt;Node0x600000727000:n</title>
<path fill="none" stroke="red" d="M3559,-34C3571,-34 3576.25,-34 3584.88,-34"/>
<polygon fill="red" stroke="red" points="3585,-37.5 3595,-34 3585,-30.5 3585,-37.5"/>
</g>
</g>
</svg>
