<?xml version="1.0" encoding="UTF-8" standalone="no"?>
<!DOCTYPE svg PUBLIC "-//W3C//DTD SVG 1.1//EN"
 "http://www.w3.org/Graphics/SVG/1.1/DTD/svg11.dtd">
<!-- Generated by graphviz version 2.50.0 (20211204.2007)
 -->
<!-- Title: G Pages: 1 -->
<svg width="4199pt" height="117pt"
 viewBox="0.00 0.00 4199.00 117.00" xmlns="http://www.w3.org/2000/svg" xmlns:xlink="http://www.w3.org/1999/xlink">
<g id="graph0" class="graph" transform="scale(1 1) rotate(0) translate(4 113)">
<title>G</title>
<polygon fill="white" stroke="transparent" points="-4,4 -4,-113 4195,-113 4195,4 -4,4"/>
<g id="clust5" class="cluster">
<title>cluster689</title>
<polygon fill="none" stroke="black" points="503,-8 503,-101 591,-101 591,-8 503,-8"/>
<text text-anchor="middle" x="547" y="-85.8" font-family="Times,serif" font-size="14.00">689</text>
</g>
<g id="clust2" class="cluster">
<title>cluster686</title>
<polygon fill="none" stroke="black" points="131,-8 131,-101 219,-101 219,-8 131,-8"/>
<text text-anchor="middle" x="175" y="-85.8" font-family="Times,serif" font-size="14.00">686</text>
</g>
<g id="clust4" class="cluster">
<title>cluster688</title>
<polygon fill="none" stroke="black" points="379,-8 379,-101 467,-101 467,-8 379,-8"/>
<text text-anchor="middle" x="423" y="-85.8" font-family="Times,serif" font-size="14.00">688</text>
</g>
<g id="clust3" class="cluster">
<title>cluster687</title>
<polygon fill="none" stroke="black" points="255,-8 255,-101 343,-101 343,-8 255,-8"/>
<text text-anchor="middle" x="299" y="-85.8" font-family="Times,serif" font-size="14.00">687</text>
</g>
<g id="clust1" class="cluster">
<title>cluster685</title>
<polygon fill="none" stroke="black" points="8,-8 8,-101 95,-101 95,-8 8,-8"/>
<text text-anchor="middle" x="51.5" y="-85.8" font-family="Times,serif" font-size="14.00">685</text>
</g>
<g id="clust6" class="cluster">
<title>cluster690</title>
<polygon fill="none" stroke="black" points="627,-8 627,-101 715,-101 715,-8 627,-8"/>
<text text-anchor="middle" x="671" y="-85.8" font-family="Times,serif" font-size="14.00">690</text>
</g>
<g id="clust7" class="cluster">
<title>cluster691</title>
<polygon fill="none" stroke="black" points="751,-8 751,-101 839,-101 839,-8 751,-8"/>
<text text-anchor="middle" x="795" y="-85.8" font-family="Times,serif" font-size="14.00">691</text>
</g>
<g id="clust8" class="cluster">
<title>cluster692</title>
<polygon fill="none" stroke="black" points="875,-8 875,-101 963,-101 963,-8 875,-8"/>
<text text-anchor="middle" x="919" y="-85.8" font-family="Times,serif" font-size="14.00">692</text>
</g>
<g id="clust9" class="cluster">
<title>cluster693</title>
<polygon fill="none" stroke="black" points="999,-8 999,-101 1087,-101 1087,-8 999,-8"/>
<text text-anchor="middle" x="1043" y="-85.8" font-family="Times,serif" font-size="14.00">693</text>
</g>
<g id="clust10" class="cluster">
<title>cluster694</title>
<polygon fill="none" stroke="black" points="1123,-8 1123,-101 1211,-101 1211,-8 1123,-8"/>
<text text-anchor="middle" x="1167" y="-85.8" font-family="Times,serif" font-size="14.00">694</text>
</g>
<g id="clust11" class="cluster">
<title>cluster695</title>
<polygon fill="none" stroke="black" points="1247,-8 1247,-101 1335,-101 1335,-8 1247,-8"/>
<text text-anchor="middle" x="1291" y="-85.8" font-family="Times,serif" font-size="14.00">695</text>
</g>
<g id="clust12" class="cluster">
<title>cluster696</title>
<polygon fill="none" stroke="black" points="1371,-8 1371,-101 1458,-101 1458,-8 1371,-8"/>
<text text-anchor="middle" x="1414.5" y="-85.8" font-family="Times,serif" font-size="14.00">696</text>
</g>
<g id="clust13" class="cluster">
<title>cluster697</title>
<polygon fill="none" stroke="black" points="1494,-8 1494,-101 1582,-101 1582,-8 1494,-8"/>
<text text-anchor="middle" x="1538" y="-85.8" font-family="Times,serif" font-size="14.00">697</text>
</g>
<g id="clust14" class="cluster">
<title>cluster698</title>
<polygon fill="none" stroke="black" points="1618,-8 1618,-101 1706,-101 1706,-8 1618,-8"/>
<text text-anchor="middle" x="1662" y="-85.8" font-family="Times,serif" font-size="14.00">698</text>
</g>
<g id="clust15" class="cluster">
<title>cluster699</title>
<polygon fill="none" stroke="black" points="1742,-8 1742,-101 1829,-101 1829,-8 1742,-8"/>
<text text-anchor="middle" x="1785.5" y="-85.8" font-family="Times,serif" font-size="14.00">699</text>
</g>
<g id="clust16" class="cluster">
<title>cluster700</title>
<polygon fill="none" stroke="black" points="1865,-8 1865,-101 1953,-101 1953,-8 1865,-8"/>
<text text-anchor="middle" x="1909" y="-85.8" font-family="Times,serif" font-size="14.00">700</text>
</g>
<g id="clust17" class="cluster">
<title>cluster701</title>
<polygon fill="none" stroke="black" points="1989,-8 1989,-101 2076,-101 2076,-8 1989,-8"/>
<text text-anchor="middle" x="2032.5" y="-85.8" font-family="Times,serif" font-size="14.00">701</text>
</g>
<g id="clust18" class="cluster">
<title>cluster702</title>
<polygon fill="none" stroke="black" points="2112,-8 2112,-101 2200,-101 2200,-8 2112,-8"/>
<text text-anchor="middle" x="2156" y="-85.8" font-family="Times,serif" font-size="14.00">702</text>
</g>
<g id="clust19" class="cluster">
<title>cluster703</title>
<polygon fill="none" stroke="black" points="2236,-8 2236,-101 2324,-101 2324,-8 2236,-8"/>
<text text-anchor="middle" x="2280" y="-85.8" font-family="Times,serif" font-size="14.00">703</text>
</g>
<g id="clust20" class="cluster">
<title>cluster704</title>
<polygon fill="none" stroke="black" points="2360,-8 2360,-101 2448,-101 2448,-8 2360,-8"/>
<text text-anchor="middle" x="2404" y="-85.8" font-family="Times,serif" font-size="14.00">704</text>
</g>
<g id="clust21" class="cluster">
<title>cluster705</title>
<polygon fill="none" stroke="black" points="2484,-8 2484,-101 2571,-101 2571,-8 2484,-8"/>
<text text-anchor="middle" x="2527.5" y="-85.8" font-family="Times,serif" font-size="14.00">705</text>
</g>
<g id="clust22" class="cluster">
<title>cluster706</title>
<polygon fill="none" stroke="black" points="2607,-8 2607,-101 2695,-101 2695,-8 2607,-8"/>
<text text-anchor="middle" x="2651" y="-85.8" font-family="Times,serif" font-size="14.00">706</text>
</g>
<g id="clust23" class="cluster">
<title>cluster707</title>
<polygon fill="none" stroke="black" points="2731,-8 2731,-101 2819,-101 2819,-8 2731,-8"/>
<text text-anchor="middle" x="2775" y="-85.8" font-family="Times,serif" font-size="14.00">707</text>
</g>
<g id="clust24" class="cluster">
<title>cluster708</title>
<polygon fill="none" stroke="black" points="2855,-8 2855,-101 2943,-101 2943,-8 2855,-8"/>
<text text-anchor="middle" x="2899" y="-85.8" font-family="Times,serif" font-size="14.00">708</text>
</g>
<g id="clust25" class="cluster">
<title>cluster709</title>
<polygon fill="none" stroke="black" points="2979,-8 2979,-101 3067,-101 3067,-8 2979,-8"/>
<text text-anchor="middle" x="3023" y="-85.8" font-family="Times,serif" font-size="14.00">709</text>
</g>
<g id="clust26" class="cluster">
<title>cluster710</title>
<polygon fill="none" stroke="black" points="3103,-8 3103,-101 3191,-101 3191,-8 3103,-8"/>
<text text-anchor="middle" x="3147" y="-85.8" font-family="Times,serif" font-size="14.00">710</text>
</g>
<g id="clust27" class="cluster">
<title>cluster711</title>
<polygon fill="none" stroke="black" points="3227,-8 3227,-101 3315,-101 3315,-8 3227,-8"/>
<text text-anchor="middle" x="3271" y="-85.8" font-family="Times,serif" font-size="14.00">711</text>
</g>
<g id="clust28" class="cluster">
<title>cluster712</title>
<polygon fill="none" stroke="black" points="3351,-8 3351,-101 3439,-101 3439,-8 3351,-8"/>
<text text-anchor="middle" x="3395" y="-85.8" font-family="Times,serif" font-size="14.00">712</text>
</g>
<g id="clust29" class="cluster">
<title>cluster713</title>
<polygon fill="none" stroke="black" points="3475,-8 3475,-101 3563,-101 3563,-8 3475,-8"/>
<text text-anchor="middle" x="3519" y="-85.8" font-family="Times,serif" font-size="14.00">713</text>
</g>
<g id="clust30" class="cluster">
<title>cluster714</title>
<polygon fill="none" stroke="black" points="3599,-8 3599,-101 3687,-101 3687,-8 3599,-8"/>
<text text-anchor="middle" x="3643" y="-85.8" font-family="Times,serif" font-size="14.00">714</text>
</g>
<g id="clust31" class="cluster">
<title>cluster715</title>
<polygon fill="none" stroke="black" points="3723,-8 3723,-101 3811,-101 3811,-8 3723,-8"/>
<text text-anchor="middle" x="3767" y="-85.8" font-family="Times,serif" font-size="14.00">715</text>
</g>
<g id="clust32" class="cluster">
<title>cluster716</title>
<polygon fill="none" stroke="black" points="3847,-8 3847,-101 3935,-101 3935,-8 3847,-8"/>
<text text-anchor="middle" x="3891" y="-85.8" font-family="Times,serif" font-size="14.00">716</text>
</g>
<g id="clust33" class="cluster">
<title>cluster717</title>
<polygon fill="none" stroke="black" points="3971,-8 3971,-101 4059,-101 4059,-8 3971,-8"/>
<text text-anchor="middle" x="4015" y="-85.8" font-family="Times,serif" font-size="14.00">717</text>
</g>
<g id="clust34" class="cluster">
<title>cluster718</title>
<polygon fill="none" stroke="black" points="4095,-8 4095,-101 4183,-101 4183,-8 4095,-8"/>
<text text-anchor="middle" x="4139" y="-85.8" font-family="Times,serif" font-size="14.00">718</text>
</g>
<!-- Node0x600001e60540 -->
<g id="node1" class="node">
<title>Node0x600001e60540</title>
<polygon fill="none" stroke="black" points="8,-9 8,-77 95,-77 95,-9 8,-9"/>
<text text-anchor="middle" x="51.5" y="-66.6" font-family="Times,serif" font-size="8.00">word: the</text>
<polyline fill="none" stroke="black" points="8,-60 95,-60 "/>
<text text-anchor="middle" x="51.5" y="-49.6" font-family="Times,serif" font-size="8.00">size: 607</text>
<polyline fill="none" stroke="black" points="8,-43 95,-43 "/>
<text text-anchor="middle" x="51.5" y="-32.6" font-family="Times,serif" font-size="8.00">next: 0x600001e606c0</text>
<polyline fill="none" stroke="black" points="8,-26 95,-26 "/>
<text text-anchor="middle" x="51.5" y="-15.6" font-family="Times,serif" font-size="8.00">prev: 0x0</text>
</g>
<!-- Node0x600001e606c0 -->
<g id="node2" class="node">
<title>Node0x600001e606c0</title>
<polygon fill="none" stroke="black" points="131,-9 131,-77 219,-77 219,-9 131,-9"/>
<text text-anchor="middle" x="175" y="-66.6" font-family="Times,serif" font-size="8.00">word: with</text>
<polyline fill="none" stroke="black" points="131,-60 219,-60 "/>
<text text-anchor="middle" x="175" y="-49.6" font-family="Times,serif" font-size="8.00">size: 232</text>
<polyline fill="none" stroke="black" points="131,-43 219,-43 "/>
<text text-anchor="middle" x="175" y="-32.6" font-family="Times,serif" font-size="8.00">next: 0x600001e60bd0</text>
<polyline fill="none" stroke="black" points="131,-26 219,-26 "/>
<text text-anchor="middle" x="175" y="-15.6" font-family="Times,serif" font-size="8.00">prev: 0x600001e60540</text>
</g>
<!-- Node0x600001e60540&#45;&gt;Node0x600001e606c0 -->
<g id="edge1" class="edge">
<title>Node0x600001e60540:n&#45;&gt;Node0x600001e606c0:n</title>
<path fill="none" stroke="red" d="M95,-34C107,-34 112.25,-34 120.88,-34"/>
<polygon fill="red" stroke="red" points="121,-37.5 131,-34 121,-30.5 121,-37.5"/>
</g>
<!-- Node0x600001e60bd0 -->
<g id="node3" class="node">
<title>Node0x600001e60bd0</title>
<polygon fill="none" stroke="black" points="255,-9 255,-77 343,-77 343,-9 255,-9"/>
<text text-anchor="middle" x="299" y="-66.6" font-family="Times,serif" font-size="8.00">word: SAMSON</text>
<polyline fill="none" stroke="black" points="255,-60 343,-60 "/>
<text text-anchor="middle" x="299" y="-49.6" font-family="Times,serif" font-size="8.00">size: 3</text>
<polyline fill="none" stroke="black" points="255,-43 343,-43 "/>
<text text-anchor="middle" x="299" y="-32.6" font-family="Times,serif" font-size="8.00">next: 0x600001e63450</text>
<polyline fill="none" stroke="black" points="255,-26 343,-26 "/>
<text text-anchor="middle" x="299" y="-15.6" font-family="Times,serif" font-size="8.00">prev: 0x600001e606c0</text>
</g>
<!-- Node0x600001e606c0&#45;&gt;Node0x600001e60bd0 -->
<g id="edge2" class="edge">
<title>Node0x600001e606c0:n&#45;&gt;Node0x600001e60bd0:n</title>
<path fill="none" stroke="red" d="M219,-34C231,-34 236.25,-34 244.88,-34"/>
<polygon fill="red" stroke="red" points="245,-37.5 255,-34 245,-30.5 245,-37.5"/>
</g>
<!-- Node0x600001e63450 -->
<g id="node4" class="node">
<title>Node0x600001e63450</title>
<polygon fill="none" stroke="black" points="379,-9 379,-77 467,-77 467,-9 379,-9"/>
<text text-anchor="middle" x="423" y="-66.6" font-family="Times,serif" font-size="8.00">word: off</text>
<polyline fill="none" stroke="black" points="379,-60 467,-60 "/>
<text text-anchor="middle" x="423" y="-49.6" font-family="Times,serif" font-size="8.00">size: 11</text>
<polyline fill="none" stroke="black" points="379,-43 467,-43 "/>
<text text-anchor="middle" x="423" y="-32.6" font-family="Times,serif" font-size="8.00">next: 0x600001e69740</text>
<polyline fill="none" stroke="black" points="379,-26 467,-26 "/>
<text text-anchor="middle" x="423" y="-15.6" font-family="Times,serif" font-size="8.00">prev: 0x600001e60bd0</text>
</g>
<!-- Node0x600001e60bd0&#45;&gt;Node0x600001e63450 -->
<g id="edge3" class="edge">
<title>Node0x600001e60bd0:n&#45;&gt;Node0x600001e63450:n</title>
<path fill="none" stroke="red" d="M343,-34C355,-34 360.25,-34 368.88,-34"/>
<polygon fill="red" stroke="red" points="369,-37.5 379,-34 369,-30.5 369,-37.5"/>
</g>
<!-- Node0x600001e69740 -->
<g id="node5" class="node">
<title>Node0x600001e69740</title>
<polygon fill="none" stroke="black" points="503,-9 503,-77 591,-77 591,-9 503,-9"/>
<text text-anchor="middle" x="547" y="-66.6" font-family="Times,serif" font-size="8.00">word: By</text>
<polyline fill="none" stroke="black" points="503,-60 591,-60 "/>
<text text-anchor="middle" x="547" y="-49.6" font-family="Times,serif" font-size="8.00">size: 32</text>
<polyline fill="none" stroke="black" points="503,-43 591,-43 "/>
<text text-anchor="middle" x="547" y="-32.6" font-family="Times,serif" font-size="8.00">next: 0x600001e69860</text>
<polyline fill="none" stroke="black" points="503,-26 591,-26 "/>
<text text-anchor="middle" x="547" y="-15.6" font-family="Times,serif" font-size="8.00">prev: 0x600001e63450</text>
</g>
<!-- Node0x600001e63450&#45;&gt;Node0x600001e69740 -->
<g id="edge4" class="edge">
<title>Node0x600001e63450:n&#45;&gt;Node0x600001e69740:n</title>
<path fill="none" stroke="red" d="M467,-34C479,-34 484.25,-34 492.88,-34"/>
<polygon fill="red" stroke="red" points="493,-37.5 503,-34 493,-30.5 493,-37.5"/>
</g>
<!-- Node0x600001e69860 -->
<g id="node6" class="node">
<title>Node0x600001e69860</title>
<polygon fill="none" stroke="black" points="627,-9 627,-77 715,-77 715,-9 627,-9"/>
<text text-anchor="middle" x="671" y="-66.6" font-family="Times,serif" font-size="8.00">word: citizens</text>
<polyline fill="none" stroke="black" points="627,-60 715,-60 "/>
<text text-anchor="middle" x="671" y="-49.6" font-family="Times,serif" font-size="8.00">size: 2</text>
<polyline fill="none" stroke="black" points="627,-43 715,-43 "/>
<text text-anchor="middle" x="671" y="-32.6" font-family="Times,serif" font-size="8.00">next: 0x600001e69950</text>
<polyline fill="none" stroke="black" points="627,-26 715,-26 "/>
<text text-anchor="middle" x="671" y="-15.6" font-family="Times,serif" font-size="8.00">prev: 0x600001e69740</text>
</g>
<!-- Node0x600001e69740&#45;&gt;Node0x600001e69860 -->
<g id="edge5" class="edge">
<title>Node0x600001e69740:n&#45;&gt;Node0x600001e69860:n</title>
<path fill="none" stroke="red" d="M591,-34C603,-34 608.25,-34 616.88,-34"/>
<polygon fill="red" stroke="red" points="617,-37.5 627,-34 617,-30.5 617,-37.5"/>
</g>
<!-- Node0x600001e69950 -->
<g id="node7" class="node">
<title>Node0x600001e69950</title>
<polygon fill="none" stroke="black" points="751,-9 751,-77 839,-77 839,-9 751,-9"/>
<text text-anchor="middle" x="795" y="-66.6" font-family="Times,serif" font-size="8.00">word: wield</text>
<polyline fill="none" stroke="black" points="751,-60 839,-60 "/>
<text text-anchor="middle" x="795" y="-49.6" font-family="Times,serif" font-size="8.00">size: 1</text>
<polyline fill="none" stroke="black" points="751,-43 839,-43 "/>
<text text-anchor="middle" x="795" y="-32.6" font-family="Times,serif" font-size="8.00">next: 0x600001e69b60</text>
<polyline fill="none" stroke="black" points="751,-26 839,-26 "/>
<text text-anchor="middle" x="795" y="-15.6" font-family="Times,serif" font-size="8.00">prev: 0x600001e69860</text>
</g>
<!-- Node0x600001e69860&#45;&gt;Node0x600001e69950 -->
<g id="edge6" class="edge">
<title>Node0x600001e69860:n&#45;&gt;Node0x600001e69950:n</title>
<path fill="none" stroke="red" d="M715,-34C727,-34 732.25,-34 740.88,-34"/>
<polygon fill="red" stroke="red" points="741,-37.5 751,-34 741,-30.5 741,-37.5"/>
</g>
<!-- Node0x600001e69b60 -->
<g id="node8" class="node">
<title>Node0x600001e69b60</title>
<polygon fill="none" stroke="black" points="875,-9 875,-77 963,-77 963,-9 875,-9"/>
<text text-anchor="middle" x="919" y="-66.6" font-family="Times,serif" font-size="8.00">word: rest</text>
<polyline fill="none" stroke="black" points="875,-60 963,-60 "/>
<text text-anchor="middle" x="919" y="-49.6" font-family="Times,serif" font-size="8.00">size: 14</text>
<polyline fill="none" stroke="black" points="875,-43 963,-43 "/>
<text text-anchor="middle" x="919" y="-32.6" font-family="Times,serif" font-size="8.00">next: 0x600001e6ce40</text>
<polyline fill="none" stroke="black" points="875,-26 963,-26 "/>
<text text-anchor="middle" x="919" y="-15.6" font-family="Times,serif" font-size="8.00">prev: 0x600001e69950</text>
</g>
<!-- Node0x600001e69950&#45;&gt;Node0x600001e69b60 -->
<g id="edge7" class="edge">
<title>Node0x600001e69950:n&#45;&gt;Node0x600001e69b60:n</title>
<path fill="none" stroke="red" d="M839,-34C851,-34 856.25,-34 864.88,-34"/>
<polygon fill="red" stroke="red" points="865,-37.5 875,-34 865,-30.5 865,-37.5"/>
</g>
<!-- Node0x600001e6ce40 -->
<g id="node9" class="node">
<title>Node0x600001e6ce40</title>
<polygon fill="none" stroke="black" points="999,-9 999,-77 1087,-77 1087,-9 999,-9"/>
<text text-anchor="middle" x="1043" y="-66.6" font-family="Times,serif" font-size="8.00">word: such</text>
<polyline fill="none" stroke="black" points="999,-60 1087,-60 "/>
<text text-anchor="middle" x="1043" y="-49.6" font-family="Times,serif" font-size="8.00">size: 41</text>
<polyline fill="none" stroke="black" points="999,-43 1087,-43 "/>
<text text-anchor="middle" x="1043" y="-32.6" font-family="Times,serif" font-size="8.00">next: 0x600001e6e0d0</text>
<polyline fill="none" stroke="black" points="999,-26 1087,-26 "/>
<text text-anchor="middle" x="1043" y="-15.6" font-family="Times,serif" font-size="8.00">prev: 0x600001e69b60</text>
</g>
<!-- Node0x600001e69b60&#45;&gt;Node0x600001e6ce40 -->
<g id="edge8" class="edge">
<title>Node0x600001e69b60:n&#45;&gt;Node0x600001e6ce40:n</title>
<path fill="none" stroke="red" d="M963,-34C975,-34 980.25,-34 988.88,-34"/>
<polygon fill="red" stroke="red" points="989,-37.5 999,-34 989,-30.5 989,-37.5"/>
</g>
<!-- Node0x600001e6e0d0 -->
<g id="node10" class="node">
<title>Node0x600001e6e0d0</title>
<polygon fill="none" stroke="black" points="1123,-9 1123,-77 1211,-77 1211,-9 1123,-9"/>
<text text-anchor="middle" x="1167" y="-66.6" font-family="Times,serif" font-size="8.00">word: dead</text>
<polyline fill="none" stroke="black" points="1123,-60 1211,-60 "/>
<text text-anchor="middle" x="1167" y="-49.6" font-family="Times,serif" font-size="8.00">size: 48</text>
<polyline fill="none" stroke="black" points="1123,-43 1211,-43 "/>
<text text-anchor="middle" x="1167" y="-32.6" font-family="Times,serif" font-size="8.00">next: 0x600001e6f1b0</text>
<polyline fill="none" stroke="black" points="1123,-26 1211,-26 "/>
<text text-anchor="middle" x="1167" y="-15.6" font-family="Times,serif" font-size="8.00">prev: 0x600001e6ce40</text>
</g>
<!-- Node0x600001e6ce40&#45;&gt;Node0x600001e6e0d0 -->
<g id="edge9" class="edge">
<title>Node0x600001e6ce40:n&#45;&gt;Node0x600001e6e0d0:n</title>
<path fill="none" stroke="red" d="M1087,-34C1099,-34 1104.25,-34 1112.88,-34"/>
<polygon fill="red" stroke="red" points="1113,-37.5 1123,-34 1113,-30.5 1113,-37.5"/>
</g>
<!-- Node0x600001e6f1b0 -->
<g id="node11" class="node">
<title>Node0x600001e6f1b0</title>
<polygon fill="none" stroke="black" points="1247,-9 1247,-77 1335,-77 1335,-9 1247,-9"/>
<text text-anchor="middle" x="1291" y="-66.6" font-family="Times,serif" font-size="8.00">word: feast</text>
<polyline fill="none" stroke="black" points="1247,-60 1335,-60 "/>
<text text-anchor="middle" x="1291" y="-49.6" font-family="Times,serif" font-size="8.00">size: 6</text>
<polyline fill="none" stroke="black" points="1247,-43 1335,-43 "/>
<text text-anchor="middle" x="1291" y="-32.6" font-family="Times,serif" font-size="8.00">next: 0x600001e701b0</text>
<polyline fill="none" stroke="black" points="1247,-26 1335,-26 "/>
<text text-anchor="middle" x="1291" y="-15.6" font-family="Times,serif" font-size="8.00">prev: 0x600001e6e0d0</text>
</g>
<!-- Node0x600001e6e0d0&#45;&gt;Node0x600001e6f1b0 -->
<g id="edge10" class="edge">
<title>Node0x600001e6e0d0:n&#45;&gt;Node0x600001e6f1b0:n</title>
<path fill="none" stroke="red" d="M1211,-34C1223,-34 1228.25,-34 1236.88,-34"/>
<polygon fill="red" stroke="red" points="1237,-37.5 1247,-34 1237,-30.5 1237,-37.5"/>
</g>
<!-- Node0x600001e701b0 -->
<g id="node12" class="node">
<title>Node0x600001e701b0</title>
<polygon fill="none" stroke="black" points="1371,-9 1371,-77 1458,-77 1458,-9 1371,-9"/>
<text text-anchor="middle" x="1414.5" y="-66.6" font-family="Times,serif" font-size="8.00">word: desperate</text>
<polyline fill="none" stroke="black" points="1371,-60 1458,-60 "/>
<text text-anchor="middle" x="1414.5" y="-49.6" font-family="Times,serif" font-size="8.00">size: 8</text>
<polyline fill="none" stroke="black" points="1371,-43 1458,-43 "/>
<text text-anchor="middle" x="1414.5" y="-32.6" font-family="Times,serif" font-size="8.00">next: 0x600001e75920</text>
<polyline fill="none" stroke="black" points="1371,-26 1458,-26 "/>
<text text-anchor="middle" x="1414.5" y="-15.6" font-family="Times,serif" font-size="8.00">prev: 0x600001e6f1b0</text>
</g>
<!-- Node0x600001e6f1b0&#45;&gt;Node0x600001e701b0 -->
<g id="edge11" class="edge">
<title>Node0x600001e6f1b0:n&#45;&gt;Node0x600001e701b0:n</title>
<path fill="none" stroke="red" d="M1335,-34C1347,-34 1352.25,-34 1360.88,-34"/>
<polygon fill="red" stroke="red" points="1361,-37.5 1371,-34 1361,-30.5 1361,-37.5"/>
</g>
<!-- Node0x600001e75920 -->
<g id="node13" class="node">
<title>Node0x600001e75920</title>
<polygon fill="none" stroke="black" points="1494,-9 1494,-77 1582,-77 1582,-9 1494,-9"/>
<text text-anchor="middle" x="1538" y="-66.6" font-family="Times,serif" font-size="8.00">word: hall</text>
<polyline fill="none" stroke="black" points="1494,-60 1582,-60 "/>
<text text-anchor="middle" x="1538" y="-49.6" font-family="Times,serif" font-size="8.00">size: 3</text>
<polyline fill="none" stroke="black" points="1494,-43 1582,-43 "/>
<text text-anchor="middle" x="1538" y="-32.6" font-family="Times,serif" font-size="8.00">next: 0x600001e770f0</text>
<polyline fill="none" stroke="black" points="1494,-26 1582,-26 "/>
<text text-anchor="middle" x="1538" y="-15.6" font-family="Times,serif" font-size="8.00">prev: 0x600001e701b0</text>
</g>
<!-- Node0x600001e701b0&#45;&gt;Node0x600001e75920 -->
<g id="edge12" class="edge">
<title>Node0x600001e701b0:n&#45;&gt;Node0x600001e75920:n</title>
<path fill="none" stroke="red" d="M1458,-34C1470,-34 1475.25,-34 1483.88,-34"/>
<polygon fill="red" stroke="red" points="1484,-37.5 1494,-34 1484,-30.5 1484,-37.5"/>
</g>
<!-- Node0x600001e770f0 -->
<g id="node14" class="node">
<title>Node0x600001e770f0</title>
<polygon fill="none" stroke="black" points="1618,-9 1618,-77 1706,-77 1706,-9 1618,-9"/>
<text text-anchor="middle" x="1662" y="-66.6" font-family="Times,serif" font-size="8.00">word: town</text>
<polyline fill="none" stroke="black" points="1618,-60 1706,-60 "/>
<text text-anchor="middle" x="1662" y="-49.6" font-family="Times,serif" font-size="8.00">size: 4</text>
<polyline fill="none" stroke="black" points="1618,-43 1706,-43 "/>
<text text-anchor="middle" x="1662" y="-32.6" font-family="Times,serif" font-size="8.00">next: 0x600001e77870</text>
<polyline fill="none" stroke="black" points="1618,-26 1706,-26 "/>
<text text-anchor="middle" x="1662" y="-15.6" font-family="Times,serif" font-size="8.00">prev: 0x600001e75920</text>
</g>
<!-- Node0x600001e75920&#45;&gt;Node0x600001e770f0 -->
<g id="edge13" class="edge">
<title>Node0x600001e75920:n&#45;&gt;Node0x600001e770f0:n</title>
<path fill="none" stroke="red" d="M1582,-34C1594,-34 1599.25,-34 1607.88,-34"/>
<polygon fill="red" stroke="red" points="1608,-37.5 1618,-34 1608,-30.5 1608,-37.5"/>
</g>
<!-- Node0x600001e77870 -->
<g id="node15" class="node">
<title>Node0x600001e77870</title>
<polygon fill="none" stroke="black" points="1742,-9 1742,-77 1829,-77 1829,-9 1742,-9"/>
<text text-anchor="middle" x="1785.5" y="-66.6" font-family="Times,serif" font-size="8.00">word: touch</text>
<polyline fill="none" stroke="black" points="1742,-60 1829,-60 "/>
<text text-anchor="middle" x="1785.5" y="-49.6" font-family="Times,serif" font-size="8.00">size: 3</text>
<polyline fill="none" stroke="black" points="1742,-43 1829,-43 "/>
<text text-anchor="middle" x="1785.5" y="-32.6" font-family="Times,serif" font-size="8.00">next: 0x600001e6ff30</text>
<polyline fill="none" stroke="black" points="1742,-26 1829,-26 "/>
<text text-anchor="middle" x="1785.5" y="-15.6" font-family="Times,serif" font-size="8.00">prev: 0x600001e770f0</text>
</g>
<!-- Node0x600001e770f0&#45;&gt;Node0x600001e77870 -->
<g id="edge14" class="edge">
<title>Node0x600001e770f0:n&#45;&gt;Node0x600001e77870:n</title>
<path fill="none" stroke="red" d="M1706,-34C1718,-34 1723.25,-34 1731.88,-34"/>
<polygon fill="red" stroke="red" points="1732,-37.5 1742,-34 1732,-30.5 1732,-37.5"/>
</g>
<!-- Node0x600001e6ff30 -->
<g id="node16" class="node">
<title>Node0x600001e6ff30</title>
<polygon fill="none" stroke="black" points="1865,-9 1865,-77 1953,-77 1953,-9 1865,-9"/>
<text text-anchor="middle" x="1909" y="-66.6" font-family="Times,serif" font-size="8.00">word: likeness</text>
<polyline fill="none" stroke="black" points="1865,-60 1953,-60 "/>
<text text-anchor="middle" x="1909" y="-49.6" font-family="Times,serif" font-size="8.00">size: 3</text>
<polyline fill="none" stroke="black" points="1865,-43 1953,-43 "/>
<text text-anchor="middle" x="1909" y="-32.6" font-family="Times,serif" font-size="8.00">next: 0x600001e7d5c0</text>
<polyline fill="none" stroke="black" points="1865,-26 1953,-26 "/>
<text text-anchor="middle" x="1909" y="-15.6" font-family="Times,serif" font-size="8.00">prev: 0x600001e77870</text>
</g>
<!-- Node0x600001e77870&#45;&gt;Node0x600001e6ff30 -->
<g id="edge15" class="edge">
<title>Node0x600001e77870:n&#45;&gt;Node0x600001e6ff30:n</title>
<path fill="none" stroke="red" d="M1829,-34C1841,-34 1846.25,-34 1854.88,-34"/>
<polygon fill="red" stroke="red" points="1855,-37.5 1865,-34 1855,-30.5 1855,-37.5"/>
</g>
<!-- Node0x600001e7d5c0 -->
<g id="node17" class="node">
<title>Node0x600001e7d5c0</title>
<polygon fill="none" stroke="black" points="1989,-9 1989,-77 2076,-77 2076,-9 1989,-9"/>
<text text-anchor="middle" x="2032.5" y="-66.6" font-family="Times,serif" font-size="8.00">word: doff</text>
<polyline fill="none" stroke="black" points="1989,-60 2076,-60 "/>
<text text-anchor="middle" x="2032.5" y="-49.6" font-family="Times,serif" font-size="8.00">size: 1</text>
<polyline fill="none" stroke="black" points="1989,-43 2076,-43 "/>
<text text-anchor="middle" x="2032.5" y="-32.6" font-family="Times,serif" font-size="8.00">next: 0x600001e7e760</text>
<polyline fill="none" stroke="black" points="1989,-26 2076,-26 "/>
<text text-anchor="middle" x="2032.5" y="-15.6" font-family="Times,serif" font-size="8.00">prev: 0x600001e6ff30</text>
</g>
<!-- Node0x600001e6ff30&#45;&gt;Node0x600001e7d5c0 -->
<g id="edge16" class="edge">
<title>Node0x600001e6ff30:n&#45;&gt;Node0x600001e7d5c0:n</title>
<path fill="none" stroke="red" d="M1953,-34C1965,-34 1970.25,-34 1978.88,-34"/>
<polygon fill="red" stroke="red" points="1979,-37.5 1989,-34 1979,-30.5 1979,-37.5"/>
</g>
<!-- Node0x600001e7e760 -->
<g id="node18" class="node">
<title>Node0x600001e7e760</title>
<polygon fill="none" stroke="black" points="2112,-9 2112,-77 2200,-77 2200,-9 2112,-9"/>
<text text-anchor="middle" x="2156" y="-66.6" font-family="Times,serif" font-size="8.00">word: Sweet</text>
<polyline fill="none" stroke="black" points="2112,-60 2200,-60 "/>
<text text-anchor="middle" x="2156" y="-49.6" font-family="Times,serif" font-size="8.00">size: 6</text>
<polyline fill="none" stroke="black" points="2112,-43 2200,-43 "/>
<text text-anchor="middle" x="2156" y="-32.6" font-family="Times,serif" font-size="8.00">next: 0x600001e7e850</text>
<polyline fill="none" stroke="black" points="2112,-26 2200,-26 "/>
<text text-anchor="middle" x="2156" y="-15.6" font-family="Times,serif" font-size="8.00">prev: 0x600001e7d5c0</text>
</g>
<!-- Node0x600001e7d5c0&#45;&gt;Node0x600001e7e760 -->
<g id="edge17" class="edge">
<title>Node0x600001e7d5c0:n&#45;&gt;Node0x600001e7e760:n</title>
<path fill="none" stroke="red" d="M2076,-34C2088,-34 2093.25,-34 2101.88,-34"/>
<polygon fill="red" stroke="red" points="2102,-37.5 2112,-34 2102,-30.5 2102,-37.5"/>
</g>
<!-- Node0x600001e7e850 -->
<g id="node19" class="node">
<title>Node0x600001e7e850</title>
<polygon fill="none" stroke="black" points="2236,-9 2236,-77 2324,-77 2324,-9 2236,-9"/>
<text text-anchor="middle" x="2280" y="-66.6" font-family="Times,serif" font-size="8.00">word: unsatisfied</text>
<polyline fill="none" stroke="black" points="2236,-60 2324,-60 "/>
<text text-anchor="middle" x="2280" y="-49.6" font-family="Times,serif" font-size="8.00">size: 1</text>
<polyline fill="none" stroke="black" points="2236,-43 2324,-43 "/>
<text text-anchor="middle" x="2280" y="-32.6" font-family="Times,serif" font-size="8.00">next: 0x600001e7f5d0</text>
<polyline fill="none" stroke="black" points="2236,-26 2324,-26 "/>
<text text-anchor="middle" x="2280" y="-15.6" font-family="Times,serif" font-size="8.00">prev: 0x600001e7e760</text>
</g>
<!-- Node0x600001e7e760&#45;&gt;Node0x600001e7e850 -->
<g id="edge18" class="edge">
<title>Node0x600001e7e760:n&#45;&gt;Node0x600001e7e850:n</title>
<path fill="none" stroke="red" d="M2200,-34C2212,-34 2217.25,-34 2225.88,-34"/>
<polygon fill="red" stroke="red" points="2226,-37.5 2236,-34 2226,-30.5 2226,-37.5"/>
</g>
<!-- Node0x600001e7f5d0 -->
<g id="node20" class="node">
<title>Node0x600001e7f5d0</title>
<polygon fill="none" stroke="black" points="2360,-9 2360,-77 2448,-77 2448,-9 2360,-9"/>
<text text-anchor="middle" x="2404" y="-66.6" font-family="Times,serif" font-size="8.00">word: Sleep</text>
<polyline fill="none" stroke="black" points="2360,-60 2448,-60 "/>
<text text-anchor="middle" x="2404" y="-49.6" font-family="Times,serif" font-size="8.00">size: 2</text>
<polyline fill="none" stroke="black" points="2360,-43 2448,-43 "/>
<text text-anchor="middle" x="2404" y="-32.6" font-family="Times,serif" font-size="8.00">next: 0x600001e424c0</text>
<polyline fill="none" stroke="black" points="2360,-26 2448,-26 "/>
<text text-anchor="middle" x="2404" y="-15.6" font-family="Times,serif" font-size="8.00">prev: 0x600001e7e850</text>
</g>
<!-- Node0x600001e7e850&#45;&gt;Node0x600001e7f5d0 -->
<g id="edge19" class="edge">
<title>Node0x600001e7e850:n&#45;&gt;Node0x600001e7f5d0:n</title>
<path fill="none" stroke="red" d="M2324,-34C2336,-34 2341.25,-34 2349.88,-34"/>
<polygon fill="red" stroke="red" points="2350,-37.5 2360,-34 2350,-30.5 2350,-37.5"/>
</g>
<!-- Node0x600001e424c0 -->
<g id="node21" class="node">
<title>Node0x600001e424c0</title>
<polygon fill="none" stroke="black" points="2484,-9 2484,-77 2571,-77 2571,-9 2484,-9"/>
<text text-anchor="middle" x="2527.5" y="-66.6" font-family="Times,serif" font-size="8.00">word: cursy</text>
<polyline fill="none" stroke="black" points="2484,-60 2571,-60 "/>
<text text-anchor="middle" x="2527.5" y="-49.6" font-family="Times,serif" font-size="8.00">size: 1</text>
<polyline fill="none" stroke="black" points="2484,-43 2571,-43 "/>
<text text-anchor="middle" x="2527.5" y="-32.6" font-family="Times,serif" font-size="8.00">next: 0x600001e43510</text>
<polyline fill="none" stroke="black" points="2484,-26 2571,-26 "/>
<text text-anchor="middle" x="2527.5" y="-15.6" font-family="Times,serif" font-size="8.00">prev: 0x600001e7f5d0</text>
</g>
<!-- Node0x600001e7f5d0&#45;&gt;Node0x600001e424c0 -->
<g id="edge20" class="edge">
<title>Node0x600001e7f5d0:n&#45;&gt;Node0x600001e424c0:n</title>
<path fill="none" stroke="red" d="M2448,-34C2460,-34 2465.25,-34 2473.88,-34"/>
<polygon fill="red" stroke="red" points="2474,-37.5 2484,-34 2474,-30.5 2474,-37.5"/>
</g>
<!-- Node0x600001e43510 -->
<g id="node22" class="node">
<title>Node0x600001e43510</title>
<polygon fill="none" stroke="black" points="2607,-9 2607,-77 2695,-77 2695,-9 2607,-9"/>
<text text-anchor="middle" x="2651" y="-66.6" font-family="Times,serif" font-size="8.00">word: hoar</text>
<polyline fill="none" stroke="black" points="2607,-60 2695,-60 "/>
<text text-anchor="middle" x="2651" y="-49.6" font-family="Times,serif" font-size="8.00">size: 4</text>
<polyline fill="none" stroke="black" points="2607,-43 2695,-43 "/>
<text text-anchor="middle" x="2651" y="-32.6" font-family="Times,serif" font-size="8.00">next: 0x600001e449c0</text>
<polyline fill="none" stroke="black" points="2607,-26 2695,-26 "/>
<text text-anchor="middle" x="2651" y="-15.6" font-family="Times,serif" font-size="8.00">prev: 0x600001e424c0</text>
</g>
<!-- Node0x600001e424c0&#45;&gt;Node0x600001e43510 -->
<g id="edge21" class="edge">
<title>Node0x600001e424c0:n&#45;&gt;Node0x600001e43510:n</title>
<path fill="none" stroke="red" d="M2571,-34C2583,-34 2588.25,-34 2596.88,-34"/>
<polygon fill="red" stroke="red" points="2597,-37.5 2607,-34 2597,-30.5 2597,-37.5"/>
</g>
<!-- Node0x600001e449c0 -->
<g id="node23" class="node">
<title>Node0x600001e449c0</title>
<polygon fill="none" stroke="black" points="2731,-9 2731,-77 2819,-77 2819,-9 2731,-9"/>
<text text-anchor="middle" x="2775" y="-66.6" font-family="Times,serif" font-size="8.00">word: Though</text>
<polyline fill="none" stroke="black" points="2731,-60 2819,-60 "/>
<text text-anchor="middle" x="2775" y="-49.6" font-family="Times,serif" font-size="8.00">size: 3</text>
<polyline fill="none" stroke="black" points="2731,-43 2819,-43 "/>
<text text-anchor="middle" x="2775" y="-32.6" font-family="Times,serif" font-size="8.00">next: 0x600001e450b0</text>
<polyline fill="none" stroke="black" points="2731,-26 2819,-26 "/>
<text text-anchor="middle" x="2775" y="-15.6" font-family="Times,serif" font-size="8.00">prev: 0x600001e43510</text>
</g>
<!-- Node0x600001e43510&#45;&gt;Node0x600001e449c0 -->
<g id="edge22" class="edge">
<title>Node0x600001e43510:n&#45;&gt;Node0x600001e449c0:n</title>
<path fill="none" stroke="red" d="M2695,-34C2707,-34 2712.25,-34 2720.88,-34"/>
<polygon fill="red" stroke="red" points="2721,-37.5 2731,-34 2721,-30.5 2721,-37.5"/>
</g>
<!-- Node0x600001e450b0 -->
<g id="node24" class="node">
<title>Node0x600001e450b0</title>
<polygon fill="none" stroke="black" points="2855,-9 2855,-77 2943,-77 2943,-9 2855,-9"/>
<text text-anchor="middle" x="2899" y="-66.6" font-family="Times,serif" font-size="8.00">word: Hie</text>
<polyline fill="none" stroke="black" points="2855,-60 2943,-60 "/>
<text text-anchor="middle" x="2899" y="-49.6" font-family="Times,serif" font-size="8.00">size: 6</text>
<polyline fill="none" stroke="black" points="2855,-43 2943,-43 "/>
<text text-anchor="middle" x="2899" y="-32.6" font-family="Times,serif" font-size="8.00">next: 0x600001e453e0</text>
<polyline fill="none" stroke="black" points="2855,-26 2943,-26 "/>
<text text-anchor="middle" x="2899" y="-15.6" font-family="Times,serif" font-size="8.00">prev: 0x600001e449c0</text>
</g>
<!-- Node0x600001e449c0&#45;&gt;Node0x600001e450b0 -->
<g id="edge23" class="edge">
<title>Node0x600001e449c0:n&#45;&gt;Node0x600001e450b0:n</title>
<path fill="none" stroke="red" d="M2819,-34C2831,-34 2836.25,-34 2844.88,-34"/>
<polygon fill="red" stroke="red" points="2845,-37.5 2855,-34 2845,-30.5 2845,-37.5"/>
</g>
<!-- Node0x600001e453e0 -->
<g id="node25" class="node">
<title>Node0x600001e453e0</title>
<polygon fill="none" stroke="black" points="2979,-9 2979,-77 3067,-77 3067,-9 2979,-9"/>
<text text-anchor="middle" x="3023" y="-66.6" font-family="Times,serif" font-size="8.00">word: ends</text>
<polyline fill="none" stroke="black" points="2979,-60 3067,-60 "/>
<text text-anchor="middle" x="3023" y="-49.6" font-family="Times,serif" font-size="8.00">size: 1</text>
<polyline fill="none" stroke="black" points="2979,-43 3067,-43 "/>
<text text-anchor="middle" x="3023" y="-32.6" font-family="Times,serif" font-size="8.00">next: 0x600001e47990</text>
<polyline fill="none" stroke="black" points="2979,-26 3067,-26 "/>
<text text-anchor="middle" x="3023" y="-15.6" font-family="Times,serif" font-size="8.00">prev: 0x600001e450b0</text>
</g>
<!-- Node0x600001e450b0&#45;&gt;Node0x600001e453e0 -->
<g id="edge24" class="edge">
<title>Node0x600001e450b0:n&#45;&gt;Node0x600001e453e0:n</title>
<path fill="none" stroke="red" d="M2943,-34C2955,-34 2960.25,-34 2968.88,-34"/>
<polygon fill="red" stroke="red" points="2969,-37.5 2979,-34 2969,-30.5 2969,-37.5"/>
</g>
<!-- Node0x600001e47990 -->
<g id="node26" class="node">
<title>Node0x600001e47990</title>
<polygon fill="none" stroke="black" points="3103,-9 3103,-77 3191,-77 3191,-9 3103,-9"/>
<text text-anchor="middle" x="3147" y="-66.6" font-family="Times,serif" font-size="8.00">word: point</text>
<polyline fill="none" stroke="black" points="3103,-60 3191,-60 "/>
<text text-anchor="middle" x="3147" y="-49.6" font-family="Times,serif" font-size="8.00">size: 5</text>
<polyline fill="none" stroke="black" points="3103,-43 3191,-43 "/>
<text text-anchor="middle" x="3147" y="-32.6" font-family="Times,serif" font-size="8.00">next: 0x600001e49500</text>
<polyline fill="none" stroke="black" points="3103,-26 3191,-26 "/>
<text text-anchor="middle" x="3147" y="-15.6" font-family="Times,serif" font-size="8.00">prev: 0x600001e453e0</text>
</g>
<!-- Node0x600001e453e0&#45;&gt;Node0x600001e47990 -->
<g id="edge25" class="edge">
<title>Node0x600001e453e0:n&#45;&gt;Node0x600001e47990:n</title>
<path fill="none" stroke="red" d="M3067,-34C3079,-34 3084.25,-34 3092.88,-34"/>
<polygon fill="red" stroke="red" points="3093,-37.5 3103,-34 3093,-30.5 3093,-37.5"/>
</g>
<!-- Node0x600001e49500 -->
<g id="node27" class="node">
<title>Node0x600001e49500</title>
<polygon fill="none" stroke="black" points="3227,-9 3227,-77 3315,-77 3315,-9 3227,-9"/>
<text text-anchor="middle" x="3271" y="-66.6" font-family="Times,serif" font-size="8.00">word: gorgeous</text>
<polyline fill="none" stroke="black" points="3227,-60 3315,-60 "/>
<text text-anchor="middle" x="3271" y="-49.6" font-family="Times,serif" font-size="8.00">size: 1</text>
<polyline fill="none" stroke="black" points="3227,-43 3315,-43 "/>
<text text-anchor="middle" x="3271" y="-32.6" font-family="Times,serif" font-size="8.00">next: 0x600001e797a0</text>
<polyline fill="none" stroke="black" points="3227,-26 3315,-26 "/>
<text text-anchor="middle" x="3271" y="-15.6" font-family="Times,serif" font-size="8.00">prev: 0x600001e47990</text>
</g>
<!-- Node0x600001e47990&#45;&gt;Node0x600001e49500 -->
<g id="edge26" class="edge">
<title>Node0x600001e47990:n&#45;&gt;Node0x600001e49500:n</title>
<path fill="none" stroke="red" d="M3191,-34C3203,-34 3208.25,-34 3216.88,-34"/>
<polygon fill="red" stroke="red" points="3217,-37.5 3227,-34 3217,-30.5 3217,-37.5"/>
</g>
<!-- Node0x600001e797a0 -->
<g id="node28" class="node">
<title>Node0x600001e797a0</title>
<polygon fill="none" stroke="black" points="3351,-9 3351,-77 3439,-77 3439,-9 3351,-9"/>
<text text-anchor="middle" x="3395" y="-66.6" font-family="Times,serif" font-size="8.00">word: pulse</text>
<polyline fill="none" stroke="black" points="3351,-60 3439,-60 "/>
<text text-anchor="middle" x="3395" y="-49.6" font-family="Times,serif" font-size="8.00">size: 1</text>
<polyline fill="none" stroke="black" points="3351,-43 3439,-43 "/>
<text text-anchor="middle" x="3395" y="-32.6" font-family="Times,serif" font-size="8.00">next: 0x600001e79cb0</text>
<polyline fill="none" stroke="black" points="3351,-26 3439,-26 "/>
<text text-anchor="middle" x="3395" y="-15.6" font-family="Times,serif" font-size="8.00">prev: 0x600001e49500</text>
</g>
<!-- Node0x600001e49500&#45;&gt;Node0x600001e797a0 -->
<g id="edge27" class="edge">
<title>Node0x600001e49500:n&#45;&gt;Node0x600001e797a0:n</title>
<path fill="none" stroke="red" d="M3315,-34C3327,-34 3332.25,-34 3340.88,-34"/>
<polygon fill="red" stroke="red" points="3341,-37.5 3351,-34 3341,-30.5 3341,-37.5"/>
</g>
<!-- Node0x600001e79cb0 -->
<g id="node29" class="node">
<title>Node0x600001e79cb0</title>
<polygon fill="none" stroke="black" points="3475,-9 3475,-77 3563,-77 3563,-9 3475,-9"/>
<text text-anchor="middle" x="3519" y="-66.6" font-family="Times,serif" font-size="8.00">word: kindred</text>
<polyline fill="none" stroke="black" points="3475,-60 3563,-60 "/>
<text text-anchor="middle" x="3519" y="-49.6" font-family="Times,serif" font-size="8.00">size: 3</text>
<polyline fill="none" stroke="black" points="3475,-43 3563,-43 "/>
<text text-anchor="middle" x="3519" y="-32.6" font-family="Times,serif" font-size="8.00">next: 0x600001e7a9d0</text>
<polyline fill="none" stroke="black" points="3475,-26 3563,-26 "/>
<text text-anchor="middle" x="3519" y="-15.6" font-family="Times,serif" font-size="8.00">prev: 0x600001e797a0</text>
</g>
<!-- Node0x600001e797a0&#45;&gt;Node0x600001e79cb0 -->
<g id="edge28" class="edge">
<title>Node0x600001e797a0:n&#45;&gt;Node0x600001e79cb0:n</title>
<path fill="none" stroke="red" d="M3439,-34C3451,-34 3456.25,-34 3464.88,-34"/>
<polygon fill="red" stroke="red" points="3465,-37.5 3475,-34 3465,-30.5 3465,-37.5"/>
</g>
<!-- Node0x600001e7a9d0 -->
<g id="node30" class="node">
<title>Node0x600001e7a9d0</title>
<polygon fill="none" stroke="black" points="3599,-9 3599,-77 3687,-77 3687,-9 3599,-9"/>
<text text-anchor="middle" x="3643" y="-66.6" font-family="Times,serif" font-size="8.00">word: mouth</text>
<polyline fill="none" stroke="black" points="3599,-60 3687,-60 "/>
<text text-anchor="middle" x="3643" y="-49.6" font-family="Times,serif" font-size="8.00">size: 2</text>
<polyline fill="none" stroke="black" points="3599,-43 3687,-43 "/>
<text text-anchor="middle" x="3643" y="-32.6" font-family="Times,serif" font-size="8.00">next: 0x600001e7b2a0</text>
<polyline fill="none" stroke="black" points="3599,-26 3687,-26 "/>
<text text-anchor="middle" x="3643" y="-15.6" font-family="Times,serif" font-size="8.00">prev: 0x600001e79cb0</text>
</g>
<!-- Node0x600001e79cb0&#45;&gt;Node0x600001e7a9d0 -->
<g id="edge29" class="edge">
<title>Node0x600001e79cb0:n&#45;&gt;Node0x600001e7a9d0:n</title>
<path fill="none" stroke="red" d="M3563,-34C3575,-34 3580.25,-34 3588.88,-34"/>
<polygon fill="red" stroke="red" points="3589,-37.5 3599,-34 3589,-30.5 3589,-37.5"/>
</g>
<!-- Node0x600001e7b2a0 -->
<g id="node31" class="node">
<title>Node0x600001e7b2a0</title>
<polygon fill="none" stroke="black" points="3723,-9 3723,-77 3811,-77 3811,-9 3723,-9"/>
<text text-anchor="middle" x="3767" y="-66.6" font-family="Times,serif" font-size="8.00">word: lesser</text>
<polyline fill="none" stroke="black" points="3723,-60 3811,-60 "/>
<text text-anchor="middle" x="3767" y="-49.6" font-family="Times,serif" font-size="8.00">size: 1</text>
<polyline fill="none" stroke="black" points="3723,-43 3811,-43 "/>
<text text-anchor="middle" x="3767" y="-32.6" font-family="Times,serif" font-size="8.00">next: 0x600001e548d0</text>
<polyline fill="none" stroke="black" points="3723,-26 3811,-26 "/>
<text text-anchor="middle" x="3767" y="-15.6" font-family="Times,serif" font-size="8.00">prev: 0x600001e7a9d0</text>
</g>
<!-- Node0x600001e7a9d0&#45;&gt;Node0x600001e7b2a0 -->
<g id="edge30" class="edge">
<title>Node0x600001e7a9d0:n&#45;&gt;Node0x600001e7b2a0:n</title>
<path fill="none" stroke="red" d="M3687,-34C3699,-34 3704.25,-34 3712.88,-34"/>
<polygon fill="red" stroke="red" points="3713,-37.5 3723,-34 3713,-30.5 3713,-37.5"/>
</g>
<!-- Node0x600001e548d0 -->
<g id="node32" class="node">
<title>Node0x600001e548d0</title>
<polygon fill="none" stroke="black" points="3847,-9 3847,-77 3935,-77 3935,-9 3847,-9"/>
<text text-anchor="middle" x="3891" y="-66.6" font-family="Times,serif" font-size="8.00">word: triumphant</text>
<polyline fill="none" stroke="black" points="3847,-60 3935,-60 "/>
<text text-anchor="middle" x="3891" y="-49.6" font-family="Times,serif" font-size="8.00">size: 1</text>
<polyline fill="none" stroke="black" points="3847,-43 3935,-43 "/>
<text text-anchor="middle" x="3891" y="-32.6" font-family="Times,serif" font-size="8.00">next: 0x600001e54d20</text>
<polyline fill="none" stroke="black" points="3847,-26 3935,-26 "/>
<text text-anchor="middle" x="3891" y="-15.6" font-family="Times,serif" font-size="8.00">prev: 0x600001e7b2a0</text>
</g>
<!-- Node0x600001e7b2a0&#45;&gt;Node0x600001e548d0 -->
<g id="edge31" class="edge">
<title>Node0x600001e7b2a0:n&#45;&gt;Node0x600001e548d0:n</title>
<path fill="none" stroke="red" d="M3811,-34C3823,-34 3828.25,-34 3836.88,-34"/>
<polygon fill="red" stroke="red" points="3837,-37.5 3847,-34 3837,-30.5 3837,-37.5"/>
</g>
<!-- Node0x600001e54d20 -->
<g id="node33" class="node">
<title>Node0x600001e54d20</title>
<polygon fill="none" stroke="black" points="3971,-9 3971,-77 4059,-77 4059,-9 3971,-9"/>
<text text-anchor="middle" x="4015" y="-66.6" font-family="Times,serif" font-size="8.00">word: inauspicious</text>
<polyline fill="none" stroke="black" points="3971,-60 4059,-60 "/>
<text text-anchor="middle" x="4015" y="-49.6" font-family="Times,serif" font-size="8.00">size: 1</text>
<polyline fill="none" stroke="black" points="3971,-43 4059,-43 "/>
<text text-anchor="middle" x="4015" y="-32.6" font-family="Times,serif" font-size="8.00">next: 0x600001e56070</text>
<polyline fill="none" stroke="black" points="3971,-26 4059,-26 "/>
<text text-anchor="middle" x="4015" y="-15.6" font-family="Times,serif" font-size="8.00">prev: 0x600001e548d0</text>
</g>
<!-- Node0x600001e548d0&#45;&gt;Node0x600001e54d20 -->
<g id="edge32" class="edge">
<title>Node0x600001e548d0:n&#45;&gt;Node0x600001e54d20:n</title>
<path fill="none" stroke="red" d="M3935,-34C3947,-34 3952.25,-34 3960.88,-34"/>
<polygon fill="red" stroke="red" points="3961,-37.5 3971,-34 3961,-30.5 3961,-37.5"/>
</g>
<!-- Node0x600001e56070 -->
<g id="node34" class="node">
<title>Node0x600001e56070</title>
<polygon fill="none" stroke="black" points="4095,-9 4095,-77 4183,-77 4183,-9 4095,-9"/>
<text text-anchor="middle" x="4139" y="-66.6" font-family="Times,serif" font-size="8.00">word: condemned</text>
<polyline fill="none" stroke="black" points="4095,-60 4183,-60 "/>
<text text-anchor="middle" x="4139" y="-49.6" font-family="Times,serif" font-size="8.00">size: 1</text>
<polyline fill="none" stroke="black" points="4095,-43 4183,-43 "/>
<text text-anchor="middle" x="4139" y="-32.6" font-family="Times,serif" font-size="8.00">next: 0x0</text>
<polyline fill="none" stroke="black" points="4095,-26 4183,-26 "/>
<text text-anchor="middle" x="4139" y="-15.6" font-family="Times,serif" font-size="8.00">prev: 0x600001e54d20</text>
</g>
<!-- Node0x600001e54d20&#45;&gt;Node0x600001e56070 -->
<g id="edge33" class="edge">
<title>Node0x600001e54d20:n&#45;&gt;Node0x600001e56070:n</title>
<path fill="none" stroke="red" d="M4059,-34C4071,-34 4076.25,-34 4084.88,-34"/>
<polygon fill="red" stroke="red" points="4085,-37.5 4095,-34 4085,-30.5 4085,-37.5"/>
</g>
</g>
</svg>
