<?xml version="1.0" encoding="UTF-8" standalone="no"?>
<!DOCTYPE svg PUBLIC "-//W3C//DTD SVG 1.1//EN"
 "http://www.w3.org/Graphics/SVG/1.1/DTD/svg11.dtd">
<!-- Generated by graphviz version 2.50.0 (20211204.2007)
 -->
<!-- Title: G Pages: 1 -->
<svg width="3702pt" height="117pt"
 viewBox="0.00 0.00 3702.00 117.00" xmlns="http://www.w3.org/2000/svg" xmlns:xlink="http://www.w3.org/1999/xlink">
<g id="graph0" class="graph" transform="scale(1 1) rotate(0) translate(4 113)">
<title>G</title>
<polygon fill="white" stroke="transparent" points="-4,4 -4,-113 3698,-113 3698,4 -4,4"/>
<g id="clust1" class="cluster">
<title>cluster3818</title>
<polygon fill="none" stroke="black" points="8,-8 8,-101 95,-101 95,-8 8,-8"/>
<text text-anchor="middle" x="51.5" y="-85.8" font-family="Times,serif" font-size="14.00">3818</text>
</g>
<g id="clust2" class="cluster">
<title>cluster3819</title>
<polygon fill="none" stroke="black" points="131,-8 131,-101 219,-101 219,-8 131,-8"/>
<text text-anchor="middle" x="175" y="-85.8" font-family="Times,serif" font-size="14.00">3819</text>
</g>
<g id="clust3" class="cluster">
<title>cluster3820</title>
<polygon fill="none" stroke="black" points="255,-8 255,-101 343,-101 343,-8 255,-8"/>
<text text-anchor="middle" x="299" y="-85.8" font-family="Times,serif" font-size="14.00">3820</text>
</g>
<g id="clust4" class="cluster">
<title>cluster3821</title>
<polygon fill="none" stroke="black" points="379,-8 379,-101 466,-101 466,-8 379,-8"/>
<text text-anchor="middle" x="422.5" y="-85.8" font-family="Times,serif" font-size="14.00">3821</text>
</g>
<g id="clust5" class="cluster">
<title>cluster3822</title>
<polygon fill="none" stroke="black" points="502,-8 502,-101 590,-101 590,-8 502,-8"/>
<text text-anchor="middle" x="546" y="-85.8" font-family="Times,serif" font-size="14.00">3822</text>
</g>
<g id="clust6" class="cluster">
<title>cluster3823</title>
<polygon fill="none" stroke="black" points="626,-8 626,-101 714,-101 714,-8 626,-8"/>
<text text-anchor="middle" x="670" y="-85.8" font-family="Times,serif" font-size="14.00">3823</text>
</g>
<g id="clust7" class="cluster">
<title>cluster3824</title>
<polygon fill="none" stroke="black" points="750,-8 750,-101 838,-101 838,-8 750,-8"/>
<text text-anchor="middle" x="794" y="-85.8" font-family="Times,serif" font-size="14.00">3824</text>
</g>
<g id="clust8" class="cluster">
<title>cluster3825</title>
<polygon fill="none" stroke="black" points="874,-8 874,-101 962,-101 962,-8 874,-8"/>
<text text-anchor="middle" x="918" y="-85.8" font-family="Times,serif" font-size="14.00">3825</text>
</g>
<g id="clust9" class="cluster">
<title>cluster3826</title>
<polygon fill="none" stroke="black" points="998,-8 998,-101 1086,-101 1086,-8 998,-8"/>
<text text-anchor="middle" x="1042" y="-85.8" font-family="Times,serif" font-size="14.00">3826</text>
</g>
<g id="clust10" class="cluster">
<title>cluster3827</title>
<polygon fill="none" stroke="black" points="1122,-8 1122,-101 1210,-101 1210,-8 1122,-8"/>
<text text-anchor="middle" x="1166" y="-85.8" font-family="Times,serif" font-size="14.00">3827</text>
</g>
<g id="clust11" class="cluster">
<title>cluster3828</title>
<polygon fill="none" stroke="black" points="1246,-8 1246,-101 1334,-101 1334,-8 1246,-8"/>
<text text-anchor="middle" x="1290" y="-85.8" font-family="Times,serif" font-size="14.00">3828</text>
</g>
<g id="clust12" class="cluster">
<title>cluster3829</title>
<polygon fill="none" stroke="black" points="1370,-8 1370,-101 1458,-101 1458,-8 1370,-8"/>
<text text-anchor="middle" x="1414" y="-85.8" font-family="Times,serif" font-size="14.00">3829</text>
</g>
<g id="clust13" class="cluster">
<title>cluster3830</title>
<polygon fill="none" stroke="black" points="1494,-8 1494,-101 1582,-101 1582,-8 1494,-8"/>
<text text-anchor="middle" x="1538" y="-85.8" font-family="Times,serif" font-size="14.00">3830</text>
</g>
<g id="clust14" class="cluster">
<title>cluster3831</title>
<polygon fill="none" stroke="black" points="1618,-8 1618,-101 1706,-101 1706,-8 1618,-8"/>
<text text-anchor="middle" x="1662" y="-85.8" font-family="Times,serif" font-size="14.00">3831</text>
</g>
<g id="clust15" class="cluster">
<title>cluster3832</title>
<polygon fill="none" stroke="black" points="1742,-8 1742,-101 1829,-101 1829,-8 1742,-8"/>
<text text-anchor="middle" x="1785.5" y="-85.8" font-family="Times,serif" font-size="14.00">3832</text>
</g>
<g id="clust16" class="cluster">
<title>cluster3833</title>
<polygon fill="none" stroke="black" points="1865,-8 1865,-101 1952,-101 1952,-8 1865,-8"/>
<text text-anchor="middle" x="1908.5" y="-85.8" font-family="Times,serif" font-size="14.00">3833</text>
</g>
<g id="clust17" class="cluster">
<title>cluster3834</title>
<polygon fill="none" stroke="black" points="1988,-8 1988,-101 2076,-101 2076,-8 1988,-8"/>
<text text-anchor="middle" x="2032" y="-85.8" font-family="Times,serif" font-size="14.00">3834</text>
</g>
<g id="clust18" class="cluster">
<title>cluster3835</title>
<polygon fill="none" stroke="black" points="2112,-8 2112,-101 2200,-101 2200,-8 2112,-8"/>
<text text-anchor="middle" x="2156" y="-85.8" font-family="Times,serif" font-size="14.00">3835</text>
</g>
<g id="clust19" class="cluster">
<title>cluster3836</title>
<polygon fill="none" stroke="black" points="2236,-8 2236,-101 2324,-101 2324,-8 2236,-8"/>
<text text-anchor="middle" x="2280" y="-85.8" font-family="Times,serif" font-size="14.00">3836</text>
</g>
<g id="clust20" class="cluster">
<title>cluster3837</title>
<polygon fill="none" stroke="black" points="2360,-8 2360,-101 2448,-101 2448,-8 2360,-8"/>
<text text-anchor="middle" x="2404" y="-85.8" font-family="Times,serif" font-size="14.00">3837</text>
</g>
<g id="clust21" class="cluster">
<title>cluster3838</title>
<polygon fill="none" stroke="black" points="2484,-8 2484,-101 2572,-101 2572,-8 2484,-8"/>
<text text-anchor="middle" x="2528" y="-85.8" font-family="Times,serif" font-size="14.00">3838</text>
</g>
<g id="clust22" class="cluster">
<title>cluster3839</title>
<polygon fill="none" stroke="black" points="2608,-8 2608,-101 2695,-101 2695,-8 2608,-8"/>
<text text-anchor="middle" x="2651.5" y="-85.8" font-family="Times,serif" font-size="14.00">3839</text>
</g>
<g id="clust23" class="cluster">
<title>cluster3840</title>
<polygon fill="none" stroke="black" points="2731,-8 2731,-101 2819,-101 2819,-8 2731,-8"/>
<text text-anchor="middle" x="2775" y="-85.8" font-family="Times,serif" font-size="14.00">3840</text>
</g>
<g id="clust24" class="cluster">
<title>cluster3841</title>
<polygon fill="none" stroke="black" points="2855,-8 2855,-101 2943,-101 2943,-8 2855,-8"/>
<text text-anchor="middle" x="2899" y="-85.8" font-family="Times,serif" font-size="14.00">3841</text>
</g>
<g id="clust25" class="cluster">
<title>cluster3842</title>
<polygon fill="none" stroke="black" points="2979,-8 2979,-101 3067,-101 3067,-8 2979,-8"/>
<text text-anchor="middle" x="3023" y="-85.8" font-family="Times,serif" font-size="14.00">3842</text>
</g>
<g id="clust26" class="cluster">
<title>cluster3843</title>
<polygon fill="none" stroke="black" points="3103,-8 3103,-101 3190,-101 3190,-8 3103,-8"/>
<text text-anchor="middle" x="3146.5" y="-85.8" font-family="Times,serif" font-size="14.00">3843</text>
</g>
<g id="clust27" class="cluster">
<title>cluster3844</title>
<polygon fill="none" stroke="black" points="3226,-8 3226,-101 3314,-101 3314,-8 3226,-8"/>
<text text-anchor="middle" x="3270" y="-85.8" font-family="Times,serif" font-size="14.00">3844</text>
</g>
<g id="clust28" class="cluster">
<title>cluster3845</title>
<polygon fill="none" stroke="black" points="3350,-8 3350,-101 3438,-101 3438,-8 3350,-8"/>
<text text-anchor="middle" x="3394" y="-85.8" font-family="Times,serif" font-size="14.00">3845</text>
</g>
<g id="clust29" class="cluster">
<title>cluster3846</title>
<polygon fill="none" stroke="black" points="3474,-8 3474,-101 3562,-101 3562,-8 3474,-8"/>
<text text-anchor="middle" x="3518" y="-85.8" font-family="Times,serif" font-size="14.00">3846</text>
</g>
<g id="clust30" class="cluster">
<title>cluster3847</title>
<polygon fill="none" stroke="black" points="3598,-8 3598,-101 3686,-101 3686,-8 3598,-8"/>
<text text-anchor="middle" x="3642" y="-85.8" font-family="Times,serif" font-size="14.00">3847</text>
</g>
<!-- Node0x600001e631e0 -->
<g id="node1" class="node">
<title>Node0x600001e631e0</title>
<polygon fill="none" stroke="black" points="8,-9 8,-77 95,-77 95,-9 8,-9"/>
<text text-anchor="middle" x="51.5" y="-66.6" font-family="Times,serif" font-size="8.00">word: between</text>
<polyline fill="none" stroke="black" points="8,-60 95,-60 "/>
<text text-anchor="middle" x="51.5" y="-49.6" font-family="Times,serif" font-size="8.00">size: 3</text>
<polyline fill="none" stroke="black" points="8,-43 95,-43 "/>
<text text-anchor="middle" x="51.5" y="-32.6" font-family="Times,serif" font-size="8.00">next: 0x600001e6aee0</text>
<polyline fill="none" stroke="black" points="8,-26 95,-26 "/>
<text text-anchor="middle" x="51.5" y="-15.6" font-family="Times,serif" font-size="8.00">prev: 0x0</text>
</g>
<!-- Node0x600001e6aee0 -->
<g id="node2" class="node">
<title>Node0x600001e6aee0</title>
<polygon fill="none" stroke="black" points="131,-9 131,-77 219,-77 219,-9 131,-9"/>
<text text-anchor="middle" x="175" y="-66.6" font-family="Times,serif" font-size="8.00">word: humour</text>
<polyline fill="none" stroke="black" points="131,-60 219,-60 "/>
<text text-anchor="middle" x="175" y="-49.6" font-family="Times,serif" font-size="8.00">size: 3</text>
<polyline fill="none" stroke="black" points="131,-43 219,-43 "/>
<text text-anchor="middle" x="175" y="-32.6" font-family="Times,serif" font-size="8.00">next: 0x600001e6bf60</text>
<polyline fill="none" stroke="black" points="131,-26 219,-26 "/>
<text text-anchor="middle" x="175" y="-15.6" font-family="Times,serif" font-size="8.00">prev: 0x600001e631e0</text>
</g>
<!-- Node0x600001e631e0&#45;&gt;Node0x600001e6aee0 -->
<g id="edge1" class="edge">
<title>Node0x600001e631e0:n&#45;&gt;Node0x600001e6aee0:n</title>
<path fill="none" stroke="red" d="M95,-34C107,-34 112.25,-34 120.88,-34"/>
<polygon fill="red" stroke="red" points="121,-37.5 131,-34 121,-30.5 121,-37.5"/>
</g>
<!-- Node0x600001e6bf60 -->
<g id="node3" class="node">
<title>Node0x600001e6bf60</title>
<polygon fill="none" stroke="black" points="255,-9 255,-77 343,-77 343,-9 255,-9"/>
<text text-anchor="middle" x="299" y="-66.6" font-family="Times,serif" font-size="8.00">word: grievance</text>
<polyline fill="none" stroke="black" points="255,-60 343,-60 "/>
<text text-anchor="middle" x="299" y="-49.6" font-family="Times,serif" font-size="8.00">size: 1</text>
<polyline fill="none" stroke="black" points="255,-43 343,-43 "/>
<text text-anchor="middle" x="299" y="-32.6" font-family="Times,serif" font-size="8.00">next: 0x600001e65410</text>
<polyline fill="none" stroke="black" points="255,-26 343,-26 "/>
<text text-anchor="middle" x="299" y="-15.6" font-family="Times,serif" font-size="8.00">prev: 0x600001e6aee0</text>
</g>
<!-- Node0x600001e6aee0&#45;&gt;Node0x600001e6bf60 -->
<g id="edge2" class="edge">
<title>Node0x600001e6aee0:n&#45;&gt;Node0x600001e6bf60:n</title>
<path fill="none" stroke="red" d="M219,-34C231,-34 236.25,-34 244.88,-34"/>
<polygon fill="red" stroke="red" points="245,-37.5 255,-34 245,-30.5 245,-37.5"/>
</g>
<!-- Node0x600001e65410 -->
<g id="node4" class="node">
<title>Node0x600001e65410</title>
<polygon fill="none" stroke="black" points="379,-9 379,-77 466,-77 466,-9 379,-9"/>
<text text-anchor="middle" x="422.5" y="-66.6" font-family="Times,serif" font-size="8.00">word: brow</text>
<polyline fill="none" stroke="black" points="379,-60 466,-60 "/>
<text text-anchor="middle" x="422.5" y="-49.6" font-family="Times,serif" font-size="8.00">size: 5</text>
<polyline fill="none" stroke="black" points="379,-43 466,-43 "/>
<text text-anchor="middle" x="422.5" y="-32.6" font-family="Times,serif" font-size="8.00">next: 0x600001e746c0</text>
<polyline fill="none" stroke="black" points="379,-26 466,-26 "/>
<text text-anchor="middle" x="422.5" y="-15.6" font-family="Times,serif" font-size="8.00">prev: 0x600001e6bf60</text>
</g>
<!-- Node0x600001e6bf60&#45;&gt;Node0x600001e65410 -->
<g id="edge3" class="edge">
<title>Node0x600001e6bf60:n&#45;&gt;Node0x600001e65410:n</title>
<path fill="none" stroke="red" d="M343,-34C355,-34 360.25,-34 368.88,-34"/>
<polygon fill="red" stroke="red" points="369,-37.5 379,-34 369,-30.5 369,-37.5"/>
</g>
<!-- Node0x600001e746c0 -->
<g id="node5" class="node">
<title>Node0x600001e746c0</title>
<polygon fill="none" stroke="black" points="502,-9 502,-77 590,-77 590,-9 502,-9"/>
<text text-anchor="middle" x="546" y="-66.6" font-family="Times,serif" font-size="8.00">word: gallops</text>
<polyline fill="none" stroke="black" points="502,-60 590,-60 "/>
<text text-anchor="middle" x="546" y="-49.6" font-family="Times,serif" font-size="8.00">size: 2</text>
<polyline fill="none" stroke="black" points="502,-43 590,-43 "/>
<text text-anchor="middle" x="546" y="-32.6" font-family="Times,serif" font-size="8.00">next: 0x600001e7dd70</text>
<polyline fill="none" stroke="black" points="502,-26 590,-26 "/>
<text text-anchor="middle" x="546" y="-15.6" font-family="Times,serif" font-size="8.00">prev: 0x600001e65410</text>
</g>
<!-- Node0x600001e65410&#45;&gt;Node0x600001e746c0 -->
<g id="edge4" class="edge">
<title>Node0x600001e65410:n&#45;&gt;Node0x600001e746c0:n</title>
<path fill="none" stroke="red" d="M466,-34C478,-34 483.25,-34 491.88,-34"/>
<polygon fill="red" stroke="red" points="492,-37.5 502,-34 492,-30.5 492,-37.5"/>
</g>
<!-- Node0x600001e7dd70 -->
<g id="node6" class="node">
<title>Node0x600001e7dd70</title>
<polygon fill="none" stroke="black" points="626,-9 626,-77 714,-77 714,-9 626,-9"/>
<text text-anchor="middle" x="670" y="-66.6" font-family="Times,serif" font-size="8.00">word: wash</text>
<polyline fill="none" stroke="black" points="626,-60 714,-60 "/>
<text text-anchor="middle" x="670" y="-49.6" font-family="Times,serif" font-size="8.00">size: 4</text>
<polyline fill="none" stroke="black" points="626,-43 714,-43 "/>
<text text-anchor="middle" x="670" y="-32.6" font-family="Times,serif" font-size="8.00">next: 0x600001e7e460</text>
<polyline fill="none" stroke="black" points="626,-26 714,-26 "/>
<text text-anchor="middle" x="670" y="-15.6" font-family="Times,serif" font-size="8.00">prev: 0x600001e746c0</text>
</g>
<!-- Node0x600001e746c0&#45;&gt;Node0x600001e7dd70 -->
<g id="edge5" class="edge">
<title>Node0x600001e746c0:n&#45;&gt;Node0x600001e7dd70:n</title>
<path fill="none" stroke="red" d="M590,-34C602,-34 607.25,-34 615.88,-34"/>
<polygon fill="red" stroke="red" points="616,-37.5 626,-34 616,-30.5 616,-37.5"/>
</g>
<!-- Node0x600001e7e460 -->
<g id="node7" class="node">
<title>Node0x600001e7e460</title>
<polygon fill="none" stroke="black" points="750,-9 750,-77 838,-77 838,-9 750,-9"/>
<text text-anchor="middle" x="794" y="-66.6" font-family="Times,serif" font-size="8.00">word: orb</text>
<polyline fill="none" stroke="black" points="750,-60 838,-60 "/>
<text text-anchor="middle" x="794" y="-49.6" font-family="Times,serif" font-size="8.00">size: 1</text>
<polyline fill="none" stroke="black" points="750,-43 838,-43 "/>
<text text-anchor="middle" x="794" y="-32.6" font-family="Times,serif" font-size="8.00">next: 0x600001e7ebe0</text>
<polyline fill="none" stroke="black" points="750,-26 838,-26 "/>
<text text-anchor="middle" x="794" y="-15.6" font-family="Times,serif" font-size="8.00">prev: 0x600001e7dd70</text>
</g>
<!-- Node0x600001e7dd70&#45;&gt;Node0x600001e7e460 -->
<g id="edge6" class="edge">
<title>Node0x600001e7dd70:n&#45;&gt;Node0x600001e7e460:n</title>
<path fill="none" stroke="red" d="M714,-34C726,-34 731.25,-34 739.88,-34"/>
<polygon fill="red" stroke="red" points="740,-37.5 750,-34 740,-30.5 740,-37.5"/>
</g>
<!-- Node0x600001e7ebe0 -->
<g id="node8" class="node">
<title>Node0x600001e7ebe0</title>
<polygon fill="none" stroke="black" points="874,-9 874,-77 962,-77 962,-9 874,-9"/>
<text text-anchor="middle" x="918" y="-66.6" font-family="Times,serif" font-size="8.00">word: Thy</text>
<polyline fill="none" stroke="black" points="874,-60 962,-60 "/>
<text text-anchor="middle" x="918" y="-49.6" font-family="Times,serif" font-size="8.00">size: 19</text>
<polyline fill="none" stroke="black" points="874,-43 962,-43 "/>
<text text-anchor="middle" x="918" y="-32.6" font-family="Times,serif" font-size="8.00">next: 0x600001e40930</text>
<polyline fill="none" stroke="black" points="874,-26 962,-26 "/>
<text text-anchor="middle" x="918" y="-15.6" font-family="Times,serif" font-size="8.00">prev: 0x600001e7e460</text>
</g>
<!-- Node0x600001e7e460&#45;&gt;Node0x600001e7ebe0 -->
<g id="edge7" class="edge">
<title>Node0x600001e7e460:n&#45;&gt;Node0x600001e7ebe0:n</title>
<path fill="none" stroke="red" d="M838,-34C850,-34 855.25,-34 863.88,-34"/>
<polygon fill="red" stroke="red" points="864,-37.5 874,-34 864,-30.5 864,-37.5"/>
</g>
<!-- Node0x600001e40930 -->
<g id="node9" class="node">
<title>Node0x600001e40930</title>
<polygon fill="none" stroke="black" points="998,-9 998,-77 1086,-77 1086,-9 998,-9"/>
<text text-anchor="middle" x="1042" y="-66.6" font-family="Times,serif" font-size="8.00">word: Wast</text>
<polyline fill="none" stroke="black" points="998,-60 1086,-60 "/>
<text text-anchor="middle" x="1042" y="-49.6" font-family="Times,serif" font-size="8.00">size: 1</text>
<polyline fill="none" stroke="black" points="998,-43 1086,-43 "/>
<text text-anchor="middle" x="1042" y="-32.6" font-family="Times,serif" font-size="8.00">next: 0x600001e41aa0</text>
<polyline fill="none" stroke="black" points="998,-26 1086,-26 "/>
<text text-anchor="middle" x="1042" y="-15.6" font-family="Times,serif" font-size="8.00">prev: 0x600001e7ebe0</text>
</g>
<!-- Node0x600001e7ebe0&#45;&gt;Node0x600001e40930 -->
<g id="edge8" class="edge">
<title>Node0x600001e7ebe0:n&#45;&gt;Node0x600001e40930:n</title>
<path fill="none" stroke="red" d="M962,-34C974,-34 979.25,-34 987.88,-34"/>
<polygon fill="red" stroke="red" points="988,-37.5 998,-34 988,-30.5 988,-37.5"/>
</g>
<!-- Node0x600001e41aa0 -->
<g id="node10" class="node">
<title>Node0x600001e41aa0</title>
<polygon fill="none" stroke="black" points="1122,-9 1122,-77 1210,-77 1210,-9 1122,-9"/>
<text text-anchor="middle" x="1166" y="-66.6" font-family="Times,serif" font-size="8.00">word: hay</text>
<polyline fill="none" stroke="black" points="1122,-60 1210,-60 "/>
<text text-anchor="middle" x="1166" y="-49.6" font-family="Times,serif" font-size="8.00">size: 1</text>
<polyline fill="none" stroke="black" points="1122,-43 1210,-43 "/>
<text text-anchor="middle" x="1166" y="-32.6" font-family="Times,serif" font-size="8.00">next: 0x600001e41d10</text>
<polyline fill="none" stroke="black" points="1122,-26 1210,-26 "/>
<text text-anchor="middle" x="1166" y="-15.6" font-family="Times,serif" font-size="8.00">prev: 0x600001e40930</text>
</g>
<!-- Node0x600001e40930&#45;&gt;Node0x600001e41aa0 -->
<g id="edge9" class="edge">
<title>Node0x600001e40930:n&#45;&gt;Node0x600001e41aa0:n</title>
<path fill="none" stroke="red" d="M1086,-34C1098,-34 1103.25,-34 1111.88,-34"/>
<polygon fill="red" stroke="red" points="1112,-37.5 1122,-34 1112,-30.5 1112,-37.5"/>
</g>
<!-- Node0x600001e41d10 -->
<g id="node11" class="node">
<title>Node0x600001e41d10</title>
<polygon fill="none" stroke="black" points="1246,-9 1246,-77 1334,-77 1334,-9 1246,-9"/>
<text text-anchor="middle" x="1290" y="-66.6" font-family="Times,serif" font-size="8.00">word: fashion</text>
<polyline fill="none" stroke="black" points="1246,-60 1334,-60 "/>
<text text-anchor="middle" x="1290" y="-49.6" font-family="Times,serif" font-size="8.00">size: 1</text>
<polyline fill="none" stroke="black" points="1246,-43 1334,-43 "/>
<text text-anchor="middle" x="1290" y="-32.6" font-family="Times,serif" font-size="8.00">next: 0x600001e42220</text>
<polyline fill="none" stroke="black" points="1246,-26 1334,-26 "/>
<text text-anchor="middle" x="1290" y="-15.6" font-family="Times,serif" font-size="8.00">prev: 0x600001e41aa0</text>
</g>
<!-- Node0x600001e41aa0&#45;&gt;Node0x600001e41d10 -->
<g id="edge10" class="edge">
<title>Node0x600001e41aa0:n&#45;&gt;Node0x600001e41d10:n</title>
<path fill="none" stroke="red" d="M1210,-34C1222,-34 1227.25,-34 1235.88,-34"/>
<polygon fill="red" stroke="red" points="1236,-37.5 1246,-34 1236,-30.5 1236,-37.5"/>
</g>
<!-- Node0x600001e42220 -->
<g id="node12" class="node">
<title>Node0x600001e42220</title>
<polygon fill="none" stroke="black" points="1370,-9 1370,-77 1458,-77 1458,-9 1370,-9"/>
<text text-anchor="middle" x="1414" y="-66.6" font-family="Times,serif" font-size="8.00">word: jour</text>
<polyline fill="none" stroke="black" points="1370,-60 1458,-60 "/>
<text text-anchor="middle" x="1414" y="-49.6" font-family="Times,serif" font-size="8.00">size: 1</text>
<polyline fill="none" stroke="black" points="1370,-43 1458,-43 "/>
<text text-anchor="middle" x="1414" y="-32.6" font-family="Times,serif" font-size="8.00">next: 0x600001e42490</text>
<polyline fill="none" stroke="black" points="1370,-26 1458,-26 "/>
<text text-anchor="middle" x="1414" y="-15.6" font-family="Times,serif" font-size="8.00">prev: 0x600001e41d10</text>
</g>
<!-- Node0x600001e41d10&#45;&gt;Node0x600001e42220 -->
<g id="edge11" class="edge">
<title>Node0x600001e41d10:n&#45;&gt;Node0x600001e42220:n</title>
<path fill="none" stroke="red" d="M1334,-34C1346,-34 1351.25,-34 1359.88,-34"/>
<polygon fill="red" stroke="red" points="1360,-37.5 1370,-34 1360,-30.5 1360,-37.5"/>
</g>
<!-- Node0x600001e42490 -->
<g id="node13" class="node">
<title>Node0x600001e42490</title>
<polygon fill="none" stroke="black" points="1494,-9 1494,-77 1582,-77 1582,-9 1494,-9"/>
<text text-anchor="middle" x="1538" y="-66.6" font-family="Times,serif" font-size="8.00">word: Meaning</text>
<polyline fill="none" stroke="black" points="1494,-60 1582,-60 "/>
<text text-anchor="middle" x="1538" y="-49.6" font-family="Times,serif" font-size="8.00">size: 2</text>
<polyline fill="none" stroke="black" points="1494,-43 1582,-43 "/>
<text text-anchor="middle" x="1538" y="-32.6" font-family="Times,serif" font-size="8.00">next: 0x600001e42af0</text>
<polyline fill="none" stroke="black" points="1494,-26 1582,-26 "/>
<text text-anchor="middle" x="1538" y="-15.6" font-family="Times,serif" font-size="8.00">prev: 0x600001e42220</text>
</g>
<!-- Node0x600001e42220&#45;&gt;Node0x600001e42490 -->
<g id="edge12" class="edge">
<title>Node0x600001e42220:n&#45;&gt;Node0x600001e42490:n</title>
<path fill="none" stroke="red" d="M1458,-34C1470,-34 1475.25,-34 1483.88,-34"/>
<polygon fill="red" stroke="red" points="1484,-37.5 1494,-34 1484,-30.5 1484,-37.5"/>
</g>
<!-- Node0x600001e42af0 -->
<g id="node14" class="node">
<title>Node0x600001e42af0</title>
<polygon fill="none" stroke="black" points="1618,-9 1618,-77 1706,-77 1706,-9 1618,-9"/>
<text text-anchor="middle" x="1662" y="-66.6" font-family="Times,serif" font-size="8.00">word: ell</text>
<polyline fill="none" stroke="black" points="1618,-60 1706,-60 "/>
<text text-anchor="middle" x="1662" y="-49.6" font-family="Times,serif" font-size="8.00">size: 1</text>
<polyline fill="none" stroke="black" points="1618,-43 1706,-43 "/>
<text text-anchor="middle" x="1662" y="-32.6" font-family="Times,serif" font-size="8.00">next: 0x600001e43f90</text>
<polyline fill="none" stroke="black" points="1618,-26 1706,-26 "/>
<text text-anchor="middle" x="1662" y="-15.6" font-family="Times,serif" font-size="8.00">prev: 0x600001e42490</text>
</g>
<!-- Node0x600001e42490&#45;&gt;Node0x600001e42af0 -->
<g id="edge13" class="edge">
<title>Node0x600001e42490:n&#45;&gt;Node0x600001e42af0:n</title>
<path fill="none" stroke="red" d="M1582,-34C1594,-34 1599.25,-34 1607.88,-34"/>
<polygon fill="red" stroke="red" points="1608,-37.5 1618,-34 1608,-30.5 1608,-37.5"/>
</g>
<!-- Node0x600001e43f90 -->
<g id="node15" class="node">
<title>Node0x600001e43f90</title>
<polygon fill="none" stroke="black" points="1742,-9 1742,-77 1829,-77 1829,-9 1742,-9"/>
<text text-anchor="middle" x="1785.5" y="-66.6" font-family="Times,serif" font-size="8.00">word: quit</text>
<polyline fill="none" stroke="black" points="1742,-60 1829,-60 "/>
<text text-anchor="middle" x="1785.5" y="-49.6" font-family="Times,serif" font-size="8.00">size: 1</text>
<polyline fill="none" stroke="black" points="1742,-43 1829,-43 "/>
<text text-anchor="middle" x="1785.5" y="-32.6" font-family="Times,serif" font-size="8.00">next: 0x600001e45410</text>
<polyline fill="none" stroke="black" points="1742,-26 1829,-26 "/>
<text text-anchor="middle" x="1785.5" y="-15.6" font-family="Times,serif" font-size="8.00">prev: 0x600001e42af0</text>
</g>
<!-- Node0x600001e42af0&#45;&gt;Node0x600001e43f90 -->
<g id="edge14" class="edge">
<title>Node0x600001e42af0:n&#45;&gt;Node0x600001e43f90:n</title>
<path fill="none" stroke="red" d="M1706,-34C1718,-34 1723.25,-34 1731.88,-34"/>
<polygon fill="red" stroke="red" points="1732,-37.5 1742,-34 1732,-30.5 1732,-37.5"/>
</g>
<!-- Node0x600001e45410 -->
<g id="node16" class="node">
<title>Node0x600001e45410</title>
<polygon fill="none" stroke="black" points="1865,-9 1865,-77 1952,-77 1952,-9 1865,-9"/>
<text text-anchor="middle" x="1908.5" y="-66.6" font-family="Times,serif" font-size="8.00">word: triumph</text>
<polyline fill="none" stroke="black" points="1865,-60 1952,-60 "/>
<text text-anchor="middle" x="1908.5" y="-49.6" font-family="Times,serif" font-size="8.00">size: 2</text>
<polyline fill="none" stroke="black" points="1865,-43 1952,-43 "/>
<text text-anchor="middle" x="1908.5" y="-32.6" font-family="Times,serif" font-size="8.00">next: 0x600001e48a50</text>
<polyline fill="none" stroke="black" points="1865,-26 1952,-26 "/>
<text text-anchor="middle" x="1908.5" y="-15.6" font-family="Times,serif" font-size="8.00">prev: 0x600001e43f90</text>
</g>
<!-- Node0x600001e43f90&#45;&gt;Node0x600001e45410 -->
<g id="edge15" class="edge">
<title>Node0x600001e43f90:n&#45;&gt;Node0x600001e45410:n</title>
<path fill="none" stroke="red" d="M1829,-34C1841,-34 1846.25,-34 1854.88,-34"/>
<polygon fill="red" stroke="red" points="1855,-37.5 1865,-34 1855,-30.5 1855,-37.5"/>
</g>
<!-- Node0x600001e48a50 -->
<g id="node17" class="node">
<title>Node0x600001e48a50</title>
<polygon fill="none" stroke="black" points="1988,-9 1988,-77 2076,-77 2076,-9 1988,-9"/>
<text text-anchor="middle" x="2032" y="-66.6" font-family="Times,serif" font-size="8.00">word: brings</text>
<polyline fill="none" stroke="black" points="1988,-60 2076,-60 "/>
<text text-anchor="middle" x="2032" y="-49.6" font-family="Times,serif" font-size="8.00">size: 2</text>
<polyline fill="none" stroke="black" points="1988,-43 2076,-43 "/>
<text text-anchor="middle" x="2032" y="-32.6" font-family="Times,serif" font-size="8.00">next: 0x600001e49860</text>
<polyline fill="none" stroke="black" points="1988,-26 2076,-26 "/>
<text text-anchor="middle" x="2032" y="-15.6" font-family="Times,serif" font-size="8.00">prev: 0x600001e45410</text>
</g>
<!-- Node0x600001e45410&#45;&gt;Node0x600001e48a50 -->
<g id="edge16" class="edge">
<title>Node0x600001e45410:n&#45;&gt;Node0x600001e48a50:n</title>
<path fill="none" stroke="red" d="M1952,-34C1964,-34 1969.25,-34 1977.88,-34"/>
<polygon fill="red" stroke="red" points="1978,-37.5 1988,-34 1978,-30.5 1978,-37.5"/>
</g>
<!-- Node0x600001e49860 -->
<g id="node18" class="node">
<title>Node0x600001e49860</title>
<polygon fill="none" stroke="black" points="2112,-9 2112,-77 2200,-77 2200,-9 2112,-9"/>
<text text-anchor="middle" x="2156" y="-66.6" font-family="Times,serif" font-size="8.00">word: beast</text>
<polyline fill="none" stroke="black" points="2112,-60 2200,-60 "/>
<text text-anchor="middle" x="2156" y="-49.6" font-family="Times,serif" font-size="8.00">size: 3</text>
<polyline fill="none" stroke="black" points="2112,-43 2200,-43 "/>
<text text-anchor="middle" x="2156" y="-32.6" font-family="Times,serif" font-size="8.00">next: 0x600001e4be70</text>
<polyline fill="none" stroke="black" points="2112,-26 2200,-26 "/>
<text text-anchor="middle" x="2156" y="-15.6" font-family="Times,serif" font-size="8.00">prev: 0x600001e48a50</text>
</g>
<!-- Node0x600001e48a50&#45;&gt;Node0x600001e49860 -->
<g id="edge17" class="edge">
<title>Node0x600001e48a50:n&#45;&gt;Node0x600001e49860:n</title>
<path fill="none" stroke="red" d="M2076,-34C2088,-34 2093.25,-34 2101.88,-34"/>
<polygon fill="red" stroke="red" points="2102,-37.5 2112,-34 2102,-30.5 2102,-37.5"/>
</g>
<!-- Node0x600001e4be70 -->
<g id="node19" class="node">
<title>Node0x600001e4be70</title>
<polygon fill="none" stroke="black" points="2236,-9 2236,-77 2324,-77 2324,-9 2236,-9"/>
<text text-anchor="middle" x="2280" y="-66.6" font-family="Times,serif" font-size="8.00">word: ta</text>
<polyline fill="none" stroke="black" points="2236,-60 2324,-60 "/>
<text text-anchor="middle" x="2280" y="-49.6" font-family="Times,serif" font-size="8.00">size: 2</text>
<polyline fill="none" stroke="black" points="2236,-43 2324,-43 "/>
<text text-anchor="middle" x="2280" y="-32.6" font-family="Times,serif" font-size="8.00">next: 0x600001e4c300</text>
<polyline fill="none" stroke="black" points="2236,-26 2324,-26 "/>
<text text-anchor="middle" x="2280" y="-15.6" font-family="Times,serif" font-size="8.00">prev: 0x600001e49860</text>
</g>
<!-- Node0x600001e49860&#45;&gt;Node0x600001e4be70 -->
<g id="edge18" class="edge">
<title>Node0x600001e49860:n&#45;&gt;Node0x600001e4be70:n</title>
<path fill="none" stroke="red" d="M2200,-34C2212,-34 2217.25,-34 2225.88,-34"/>
<polygon fill="red" stroke="red" points="2226,-37.5 2236,-34 2226,-30.5 2226,-37.5"/>
</g>
<!-- Node0x600001e4c300 -->
<g id="node20" class="node">
<title>Node0x600001e4c300</title>
<polygon fill="none" stroke="black" points="2360,-9 2360,-77 2448,-77 2448,-9 2360,-9"/>
<text text-anchor="middle" x="2404" y="-66.6" font-family="Times,serif" font-size="8.00">word: divining</text>
<polyline fill="none" stroke="black" points="2360,-60 2448,-60 "/>
<text text-anchor="middle" x="2404" y="-49.6" font-family="Times,serif" font-size="8.00">size: 1</text>
<polyline fill="none" stroke="black" points="2360,-43 2448,-43 "/>
<text text-anchor="middle" x="2404" y="-32.6" font-family="Times,serif" font-size="8.00">next: 0x600001e4c3f0</text>
<polyline fill="none" stroke="black" points="2360,-26 2448,-26 "/>
<text text-anchor="middle" x="2404" y="-15.6" font-family="Times,serif" font-size="8.00">prev: 0x600001e4be70</text>
</g>
<!-- Node0x600001e4be70&#45;&gt;Node0x600001e4c300 -->
<g id="edge19" class="edge">
<title>Node0x600001e4be70:n&#45;&gt;Node0x600001e4c300:n</title>
<path fill="none" stroke="red" d="M2324,-34C2336,-34 2341.25,-34 2349.88,-34"/>
<polygon fill="red" stroke="red" points="2350,-37.5 2360,-34 2350,-30.5 2350,-37.5"/>
</g>
<!-- Node0x600001e4c3f0 -->
<g id="node21" class="node">
<title>Node0x600001e4c3f0</title>
<polygon fill="none" stroke="black" points="2484,-9 2484,-77 2572,-77 2572,-9 2484,-9"/>
<text text-anchor="middle" x="2528" y="-66.6" font-family="Times,serif" font-size="8.00">word: Dry</text>
<polyline fill="none" stroke="black" points="2484,-60 2572,-60 "/>
<text text-anchor="middle" x="2528" y="-49.6" font-family="Times,serif" font-size="8.00">size: 2</text>
<polyline fill="none" stroke="black" points="2484,-43 2572,-43 "/>
<text text-anchor="middle" x="2528" y="-32.6" font-family="Times,serif" font-size="8.00">next: 0x600001e4c4e0</text>
<polyline fill="none" stroke="black" points="2484,-26 2572,-26 "/>
<text text-anchor="middle" x="2528" y="-15.6" font-family="Times,serif" font-size="8.00">prev: 0x600001e4c300</text>
</g>
<!-- Node0x600001e4c300&#45;&gt;Node0x600001e4c3f0 -->
<g id="edge20" class="edge">
<title>Node0x600001e4c300:n&#45;&gt;Node0x600001e4c3f0:n</title>
<path fill="none" stroke="red" d="M2448,-34C2460,-34 2465.25,-34 2473.88,-34"/>
<polygon fill="red" stroke="red" points="2474,-37.5 2484,-34 2474,-30.5 2474,-37.5"/>
</g>
<!-- Node0x600001e4c4e0 -->
<g id="node22" class="node">
<title>Node0x600001e4c4e0</title>
<polygon fill="none" stroke="black" points="2608,-9 2608,-77 2695,-77 2695,-9 2608,-9"/>
<text text-anchor="middle" x="2651.5" y="-66.6" font-family="Times,serif" font-size="8.00">word: renown</text>
<polyline fill="none" stroke="black" points="2608,-60 2695,-60 "/>
<text text-anchor="middle" x="2651.5" y="-49.6" font-family="Times,serif" font-size="8.00">size: 1</text>
<polyline fill="none" stroke="black" points="2608,-43 2695,-43 "/>
<text text-anchor="middle" x="2651.5" y="-32.6" font-family="Times,serif" font-size="8.00">next: 0x600001e4ca80</text>
<polyline fill="none" stroke="black" points="2608,-26 2695,-26 "/>
<text text-anchor="middle" x="2651.5" y="-15.6" font-family="Times,serif" font-size="8.00">prev: 0x600001e4c3f0</text>
</g>
<!-- Node0x600001e4c3f0&#45;&gt;Node0x600001e4c4e0 -->
<g id="edge21" class="edge">
<title>Node0x600001e4c3f0:n&#45;&gt;Node0x600001e4c4e0:n</title>
<path fill="none" stroke="red" d="M2572,-34C2584,-34 2589.25,-34 2597.88,-34"/>
<polygon fill="red" stroke="red" points="2598,-37.5 2608,-34 2598,-30.5 2598,-37.5"/>
</g>
<!-- Node0x600001e4ca80 -->
<g id="node23" class="node">
<title>Node0x600001e4ca80</title>
<polygon fill="none" stroke="black" points="2731,-9 2731,-77 2819,-77 2819,-9 2731,-9"/>
<text text-anchor="middle" x="2775" y="-66.6" font-family="Times,serif" font-size="8.00">word: careful</text>
<polyline fill="none" stroke="black" points="2731,-60 2819,-60 "/>
<text text-anchor="middle" x="2775" y="-49.6" font-family="Times,serif" font-size="8.00">size: 1</text>
<polyline fill="none" stroke="black" points="2731,-43 2819,-43 "/>
<text text-anchor="middle" x="2775" y="-32.6" font-family="Times,serif" font-size="8.00">next: 0x600001e72310</text>
<polyline fill="none" stroke="black" points="2731,-26 2819,-26 "/>
<text text-anchor="middle" x="2775" y="-15.6" font-family="Times,serif" font-size="8.00">prev: 0x600001e4c4e0</text>
</g>
<!-- Node0x600001e4c4e0&#45;&gt;Node0x600001e4ca80 -->
<g id="edge22" class="edge">
<title>Node0x600001e4c4e0:n&#45;&gt;Node0x600001e4ca80:n</title>
<path fill="none" stroke="red" d="M2695,-34C2707,-34 2712.25,-34 2720.88,-34"/>
<polygon fill="red" stroke="red" points="2721,-37.5 2731,-34 2721,-30.5 2721,-37.5"/>
</g>
<!-- Node0x600001e72310 -->
<g id="node24" class="node">
<title>Node0x600001e72310</title>
<polygon fill="none" stroke="black" points="2855,-9 2855,-77 2943,-77 2943,-9 2855,-9"/>
<text text-anchor="middle" x="2899" y="-66.6" font-family="Times,serif" font-size="8.00">word: treason</text>
<polyline fill="none" stroke="black" points="2855,-60 2943,-60 "/>
<text text-anchor="middle" x="2899" y="-49.6" font-family="Times,serif" font-size="8.00">size: 1</text>
<polyline fill="none" stroke="black" points="2855,-43 2943,-43 "/>
<text text-anchor="middle" x="2899" y="-32.6" font-family="Times,serif" font-size="8.00">next: 0x600001e78ff0</text>
<polyline fill="none" stroke="black" points="2855,-26 2943,-26 "/>
<text text-anchor="middle" x="2899" y="-15.6" font-family="Times,serif" font-size="8.00">prev: 0x600001e4ca80</text>
</g>
<!-- Node0x600001e4ca80&#45;&gt;Node0x600001e72310 -->
<g id="edge23" class="edge">
<title>Node0x600001e4ca80:n&#45;&gt;Node0x600001e72310:n</title>
<path fill="none" stroke="red" d="M2819,-34C2831,-34 2836.25,-34 2844.88,-34"/>
<polygon fill="red" stroke="red" points="2845,-37.5 2855,-34 2845,-30.5 2845,-37.5"/>
</g>
<!-- Node0x600001e78ff0 -->
<g id="node25" class="node">
<title>Node0x600001e78ff0</title>
<polygon fill="none" stroke="black" points="2979,-9 2979,-77 3067,-77 3067,-9 2979,-9"/>
<text text-anchor="middle" x="3023" y="-66.6" font-family="Times,serif" font-size="8.00">word: deed</text>
<polyline fill="none" stroke="black" points="2979,-60 3067,-60 "/>
<text text-anchor="middle" x="3023" y="-49.6" font-family="Times,serif" font-size="8.00">size: 1</text>
<polyline fill="none" stroke="black" points="2979,-43 3067,-43 "/>
<text text-anchor="middle" x="3023" y="-32.6" font-family="Times,serif" font-size="8.00">next: 0x600001e7a280</text>
<polyline fill="none" stroke="black" points="2979,-26 3067,-26 "/>
<text text-anchor="middle" x="3023" y="-15.6" font-family="Times,serif" font-size="8.00">prev: 0x600001e72310</text>
</g>
<!-- Node0x600001e72310&#45;&gt;Node0x600001e78ff0 -->
<g id="edge24" class="edge">
<title>Node0x600001e72310:n&#45;&gt;Node0x600001e78ff0:n</title>
<path fill="none" stroke="red" d="M2943,-34C2955,-34 2960.25,-34 2968.88,-34"/>
<polygon fill="red" stroke="red" points="2969,-37.5 2979,-34 2969,-30.5 2969,-37.5"/>
</g>
<!-- Node0x600001e7a280 -->
<g id="node26" class="node">
<title>Node0x600001e7a280</title>
<polygon fill="none" stroke="black" points="3103,-9 3103,-77 3190,-77 3190,-9 3103,-9"/>
<text text-anchor="middle" x="3146.5" y="-66.6" font-family="Times,serif" font-size="8.00">word: stepping</text>
<polyline fill="none" stroke="black" points="3103,-60 3190,-60 "/>
<text text-anchor="middle" x="3146.5" y="-49.6" font-family="Times,serif" font-size="8.00">size: 1</text>
<polyline fill="none" stroke="black" points="3103,-43 3190,-43 "/>
<text text-anchor="middle" x="3146.5" y="-32.6" font-family="Times,serif" font-size="8.00">next: 0x600001e7b8a0</text>
<polyline fill="none" stroke="black" points="3103,-26 3190,-26 "/>
<text text-anchor="middle" x="3146.5" y="-15.6" font-family="Times,serif" font-size="8.00">prev: 0x600001e78ff0</text>
</g>
<!-- Node0x600001e78ff0&#45;&gt;Node0x600001e7a280 -->
<g id="edge25" class="edge">
<title>Node0x600001e78ff0:n&#45;&gt;Node0x600001e7a280:n</title>
<path fill="none" stroke="red" d="M3067,-34C3079,-34 3084.25,-34 3092.88,-34"/>
<polygon fill="red" stroke="red" points="3093,-37.5 3103,-34 3093,-30.5 3093,-37.5"/>
</g>
<!-- Node0x600001e7b8a0 -->
<g id="node27" class="node">
<title>Node0x600001e7b8a0</title>
<polygon fill="none" stroke="black" points="3226,-9 3226,-77 3314,-77 3314,-9 3226,-9"/>
<text text-anchor="middle" x="3270" y="-66.6" font-family="Times,serif" font-size="8.00">word: Flower</text>
<polyline fill="none" stroke="black" points="3226,-60 3314,-60 "/>
<text text-anchor="middle" x="3270" y="-49.6" font-family="Times,serif" font-size="8.00">size: 1</text>
<polyline fill="none" stroke="black" points="3226,-43 3314,-43 "/>
<text text-anchor="middle" x="3270" y="-32.6" font-family="Times,serif" font-size="8.00">next: 0x600001e7ba80</text>
<polyline fill="none" stroke="black" points="3226,-26 3314,-26 "/>
<text text-anchor="middle" x="3270" y="-15.6" font-family="Times,serif" font-size="8.00">prev: 0x600001e7a280</text>
</g>
<!-- Node0x600001e7a280&#45;&gt;Node0x600001e7b8a0 -->
<g id="edge26" class="edge">
<title>Node0x600001e7a280:n&#45;&gt;Node0x600001e7b8a0:n</title>
<path fill="none" stroke="red" d="M3190,-34C3202,-34 3207.25,-34 3215.88,-34"/>
<polygon fill="red" stroke="red" points="3216,-37.5 3226,-34 3216,-30.5 3216,-37.5"/>
</g>
<!-- Node0x600001e7ba80 -->
<g id="node28" class="node">
<title>Node0x600001e7ba80</title>
<polygon fill="none" stroke="black" points="3350,-9 3350,-77 3438,-77 3438,-9 3350,-9"/>
<text text-anchor="middle" x="3394" y="-66.6" font-family="Times,serif" font-size="8.00">word: Beguil</text>
<polyline fill="none" stroke="black" points="3350,-60 3438,-60 "/>
<text text-anchor="middle" x="3394" y="-49.6" font-family="Times,serif" font-size="8.00">size: 1</text>
<polyline fill="none" stroke="black" points="3350,-43 3438,-43 "/>
<text text-anchor="middle" x="3394" y="-32.6" font-family="Times,serif" font-size="8.00">next: 0x600001e50660</text>
<polyline fill="none" stroke="black" points="3350,-26 3438,-26 "/>
<text text-anchor="middle" x="3394" y="-15.6" font-family="Times,serif" font-size="8.00">prev: 0x600001e7b8a0</text>
</g>
<!-- Node0x600001e7b8a0&#45;&gt;Node0x600001e7ba80 -->
<g id="edge27" class="edge">
<title>Node0x600001e7b8a0:n&#45;&gt;Node0x600001e7ba80:n</title>
<path fill="none" stroke="red" d="M3314,-34C3326,-34 3331.25,-34 3339.88,-34"/>
<polygon fill="red" stroke="red" points="3340,-37.5 3350,-34 3340,-30.5 3340,-37.5"/>
</g>
<!-- Node0x600001e50660 -->
<g id="node29" class="node">
<title>Node0x600001e50660</title>
<polygon fill="none" stroke="black" points="3474,-9 3474,-77 3562,-77 3562,-9 3474,-9"/>
<text text-anchor="middle" x="3518" y="-66.6" font-family="Times,serif" font-size="8.00">word: liquid</text>
<polyline fill="none" stroke="black" points="3474,-60 3562,-60 "/>
<text text-anchor="middle" x="3518" y="-49.6" font-family="Times,serif" font-size="8.00">size: 1</text>
<polyline fill="none" stroke="black" points="3474,-43 3562,-43 "/>
<text text-anchor="middle" x="3518" y="-32.6" font-family="Times,serif" font-size="8.00">next: 0x600001e54c60</text>
<polyline fill="none" stroke="black" points="3474,-26 3562,-26 "/>
<text text-anchor="middle" x="3518" y="-15.6" font-family="Times,serif" font-size="8.00">prev: 0x600001e7ba80</text>
</g>
<!-- Node0x600001e7ba80&#45;&gt;Node0x600001e50660 -->
<g id="edge28" class="edge">
<title>Node0x600001e7ba80:n&#45;&gt;Node0x600001e50660:n</title>
<path fill="none" stroke="red" d="M3438,-34C3450,-34 3455.25,-34 3463.88,-34"/>
<polygon fill="red" stroke="red" points="3464,-37.5 3474,-34 3464,-30.5 3464,-37.5"/>
</g>
<!-- Node0x600001e54c60 -->
<g id="node30" class="node">
<title>Node0x600001e54c60</title>
<polygon fill="none" stroke="black" points="3598,-9 3598,-77 3686,-77 3686,-9 3598,-9"/>
<text text-anchor="middle" x="3642" y="-66.6" font-family="Times,serif" font-size="8.00">word: Depart</text>
<polyline fill="none" stroke="black" points="3598,-60 3686,-60 "/>
<text text-anchor="middle" x="3642" y="-49.6" font-family="Times,serif" font-size="8.00">size: 1</text>
<polyline fill="none" stroke="black" points="3598,-43 3686,-43 "/>
<text text-anchor="middle" x="3642" y="-32.6" font-family="Times,serif" font-size="8.00">next: 0x0</text>
<polyline fill="none" stroke="black" points="3598,-26 3686,-26 "/>
<text text-anchor="middle" x="3642" y="-15.6" font-family="Times,serif" font-size="8.00">prev: 0x600001e50660</text>
</g>
<!-- Node0x600001e50660&#45;&gt;Node0x600001e54c60 -->
<g id="edge29" class="edge">
<title>Node0x600001e50660:n&#45;&gt;Node0x600001e54c60:n</title>
<path fill="none" stroke="red" d="M3562,-34C3574,-34 3579.25,-34 3587.88,-34"/>
<polygon fill="red" stroke="red" points="3588,-37.5 3598,-34 3588,-30.5 3588,-37.5"/>
</g>
</g>
</svg>
