<?xml version="1.0" encoding="UTF-8" standalone="no"?>
<!DOCTYPE svg PUBLIC "-//W3C//DTD SVG 1.1//EN"
 "http://www.w3.org/Graphics/SVG/1.1/DTD/svg11.dtd">
<!-- Generated by graphviz version 2.50.0 (20211204.2007)
 -->
<!-- Title: G Pages: 1 -->
<svg width="4197pt" height="117pt"
 viewBox="0.00 0.00 4197.00 117.00" xmlns="http://www.w3.org/2000/svg" xmlns:xlink="http://www.w3.org/1999/xlink">
<g id="graph0" class="graph" transform="scale(1 1) rotate(0) translate(4 113)">
<title>G</title>
<polygon fill="white" stroke="transparent" points="-4,4 -4,-113 4193,-113 4193,4 -4,4"/>
<g id="clust1" class="cluster">
<title>cluster3235</title>
<polygon fill="none" stroke="black" points="8,-8 8,-101 95,-101 95,-8 8,-8"/>
<text text-anchor="middle" x="51.5" y="-85.8" font-family="Times,serif" font-size="14.00">3235</text>
</g>
<g id="clust2" class="cluster">
<title>cluster3236</title>
<polygon fill="none" stroke="black" points="131,-8 131,-101 218,-101 218,-8 131,-8"/>
<text text-anchor="middle" x="174.5" y="-85.8" font-family="Times,serif" font-size="14.00">3236</text>
</g>
<g id="clust3" class="cluster">
<title>cluster3237</title>
<polygon fill="none" stroke="black" points="254,-8 254,-101 342,-101 342,-8 254,-8"/>
<text text-anchor="middle" x="298" y="-85.8" font-family="Times,serif" font-size="14.00">3237</text>
</g>
<g id="clust4" class="cluster">
<title>cluster3238</title>
<polygon fill="none" stroke="black" points="378,-8 378,-101 466,-101 466,-8 378,-8"/>
<text text-anchor="middle" x="422" y="-85.8" font-family="Times,serif" font-size="14.00">3238</text>
</g>
<g id="clust5" class="cluster">
<title>cluster3239</title>
<polygon fill="none" stroke="black" points="502,-8 502,-101 590,-101 590,-8 502,-8"/>
<text text-anchor="middle" x="546" y="-85.8" font-family="Times,serif" font-size="14.00">3239</text>
</g>
<g id="clust6" class="cluster">
<title>cluster3240</title>
<polygon fill="none" stroke="black" points="626,-8 626,-101 714,-101 714,-8 626,-8"/>
<text text-anchor="middle" x="670" y="-85.8" font-family="Times,serif" font-size="14.00">3240</text>
</g>
<g id="clust7" class="cluster">
<title>cluster3241</title>
<polygon fill="none" stroke="black" points="750,-8 750,-101 838,-101 838,-8 750,-8"/>
<text text-anchor="middle" x="794" y="-85.8" font-family="Times,serif" font-size="14.00">3241</text>
</g>
<g id="clust8" class="cluster">
<title>cluster3242</title>
<polygon fill="none" stroke="black" points="874,-8 874,-101 962,-101 962,-8 874,-8"/>
<text text-anchor="middle" x="918" y="-85.8" font-family="Times,serif" font-size="14.00">3242</text>
</g>
<g id="clust9" class="cluster">
<title>cluster3243</title>
<polygon fill="none" stroke="black" points="998,-8 998,-101 1086,-101 1086,-8 998,-8"/>
<text text-anchor="middle" x="1042" y="-85.8" font-family="Times,serif" font-size="14.00">3243</text>
</g>
<g id="clust10" class="cluster">
<title>cluster3244</title>
<polygon fill="none" stroke="black" points="1122,-8 1122,-101 1210,-101 1210,-8 1122,-8"/>
<text text-anchor="middle" x="1166" y="-85.8" font-family="Times,serif" font-size="14.00">3244</text>
</g>
<g id="clust11" class="cluster">
<title>cluster3245</title>
<polygon fill="none" stroke="black" points="1246,-8 1246,-101 1334,-101 1334,-8 1246,-8"/>
<text text-anchor="middle" x="1290" y="-85.8" font-family="Times,serif" font-size="14.00">3245</text>
</g>
<g id="clust12" class="cluster">
<title>cluster3246</title>
<polygon fill="none" stroke="black" points="1370,-8 1370,-101 1458,-101 1458,-8 1370,-8"/>
<text text-anchor="middle" x="1414" y="-85.8" font-family="Times,serif" font-size="14.00">3246</text>
</g>
<g id="clust13" class="cluster">
<title>cluster3247</title>
<polygon fill="none" stroke="black" points="1494,-8 1494,-101 1581,-101 1581,-8 1494,-8"/>
<text text-anchor="middle" x="1537.5" y="-85.8" font-family="Times,serif" font-size="14.00">3247</text>
</g>
<g id="clust14" class="cluster">
<title>cluster3248</title>
<polygon fill="none" stroke="black" points="1617,-8 1617,-101 1705,-101 1705,-8 1617,-8"/>
<text text-anchor="middle" x="1661" y="-85.8" font-family="Times,serif" font-size="14.00">3248</text>
</g>
<g id="clust15" class="cluster">
<title>cluster3249</title>
<polygon fill="none" stroke="black" points="1741,-8 1741,-101 1829,-101 1829,-8 1741,-8"/>
<text text-anchor="middle" x="1785" y="-85.8" font-family="Times,serif" font-size="14.00">3249</text>
</g>
<g id="clust16" class="cluster">
<title>cluster3250</title>
<polygon fill="none" stroke="black" points="1865,-8 1865,-101 1953,-101 1953,-8 1865,-8"/>
<text text-anchor="middle" x="1909" y="-85.8" font-family="Times,serif" font-size="14.00">3250</text>
</g>
<g id="clust17" class="cluster">
<title>cluster3251</title>
<polygon fill="none" stroke="black" points="1989,-8 1989,-101 2077,-101 2077,-8 1989,-8"/>
<text text-anchor="middle" x="2033" y="-85.8" font-family="Times,serif" font-size="14.00">3251</text>
</g>
<g id="clust18" class="cluster">
<title>cluster3252</title>
<polygon fill="none" stroke="black" points="2113,-8 2113,-101 2201,-101 2201,-8 2113,-8"/>
<text text-anchor="middle" x="2157" y="-85.8" font-family="Times,serif" font-size="14.00">3252</text>
</g>
<g id="clust19" class="cluster">
<title>cluster3253</title>
<polygon fill="none" stroke="black" points="2237,-8 2237,-101 2323,-101 2323,-8 2237,-8"/>
<text text-anchor="middle" x="2280" y="-85.8" font-family="Times,serif" font-size="14.00">3253</text>
</g>
<g id="clust20" class="cluster">
<title>cluster3254</title>
<polygon fill="none" stroke="black" points="2359,-8 2359,-101 2447,-101 2447,-8 2359,-8"/>
<text text-anchor="middle" x="2403" y="-85.8" font-family="Times,serif" font-size="14.00">3254</text>
</g>
<g id="clust21" class="cluster">
<title>cluster3255</title>
<polygon fill="none" stroke="black" points="2483,-8 2483,-101 2570,-101 2570,-8 2483,-8"/>
<text text-anchor="middle" x="2526.5" y="-85.8" font-family="Times,serif" font-size="14.00">3255</text>
</g>
<g id="clust22" class="cluster">
<title>cluster3256</title>
<polygon fill="none" stroke="black" points="2606,-8 2606,-101 2694,-101 2694,-8 2606,-8"/>
<text text-anchor="middle" x="2650" y="-85.8" font-family="Times,serif" font-size="14.00">3256</text>
</g>
<g id="clust23" class="cluster">
<title>cluster3257</title>
<polygon fill="none" stroke="black" points="2730,-8 2730,-101 2818,-101 2818,-8 2730,-8"/>
<text text-anchor="middle" x="2774" y="-85.8" font-family="Times,serif" font-size="14.00">3257</text>
</g>
<g id="clust24" class="cluster">
<title>cluster3258</title>
<polygon fill="none" stroke="black" points="2854,-8 2854,-101 2942,-101 2942,-8 2854,-8"/>
<text text-anchor="middle" x="2898" y="-85.8" font-family="Times,serif" font-size="14.00">3258</text>
</g>
<g id="clust25" class="cluster">
<title>cluster3259</title>
<polygon fill="none" stroke="black" points="2978,-8 2978,-101 3066,-101 3066,-8 2978,-8"/>
<text text-anchor="middle" x="3022" y="-85.8" font-family="Times,serif" font-size="14.00">3259</text>
</g>
<g id="clust26" class="cluster">
<title>cluster3260</title>
<polygon fill="none" stroke="black" points="3102,-8 3102,-101 3190,-101 3190,-8 3102,-8"/>
<text text-anchor="middle" x="3146" y="-85.8" font-family="Times,serif" font-size="14.00">3260</text>
</g>
<g id="clust27" class="cluster">
<title>cluster3261</title>
<polygon fill="none" stroke="black" points="3226,-8 3226,-101 3314,-101 3314,-8 3226,-8"/>
<text text-anchor="middle" x="3270" y="-85.8" font-family="Times,serif" font-size="14.00">3261</text>
</g>
<g id="clust28" class="cluster">
<title>cluster3262</title>
<polygon fill="none" stroke="black" points="3350,-8 3350,-101 3437,-101 3437,-8 3350,-8"/>
<text text-anchor="middle" x="3393.5" y="-85.8" font-family="Times,serif" font-size="14.00">3262</text>
</g>
<g id="clust29" class="cluster">
<title>cluster3263</title>
<polygon fill="none" stroke="black" points="3473,-8 3473,-101 3561,-101 3561,-8 3473,-8"/>
<text text-anchor="middle" x="3517" y="-85.8" font-family="Times,serif" font-size="14.00">3263</text>
</g>
<g id="clust30" class="cluster">
<title>cluster3264</title>
<polygon fill="none" stroke="black" points="3597,-8 3597,-101 3685,-101 3685,-8 3597,-8"/>
<text text-anchor="middle" x="3641" y="-85.8" font-family="Times,serif" font-size="14.00">3264</text>
</g>
<g id="clust31" class="cluster">
<title>cluster3265</title>
<polygon fill="none" stroke="black" points="3721,-8 3721,-101 3809,-101 3809,-8 3721,-8"/>
<text text-anchor="middle" x="3765" y="-85.8" font-family="Times,serif" font-size="14.00">3265</text>
</g>
<g id="clust32" class="cluster">
<title>cluster3266</title>
<polygon fill="none" stroke="black" points="3845,-8 3845,-101 3933,-101 3933,-8 3845,-8"/>
<text text-anchor="middle" x="3889" y="-85.8" font-family="Times,serif" font-size="14.00">3266</text>
</g>
<g id="clust33" class="cluster">
<title>cluster3267</title>
<polygon fill="none" stroke="black" points="3969,-8 3969,-101 4057,-101 4057,-8 3969,-8"/>
<text text-anchor="middle" x="4013" y="-85.8" font-family="Times,serif" font-size="14.00">3267</text>
</g>
<g id="clust34" class="cluster">
<title>cluster3268</title>
<polygon fill="none" stroke="black" points="4093,-8 4093,-101 4181,-101 4181,-8 4093,-8"/>
<text text-anchor="middle" x="4137" y="-85.8" font-family="Times,serif" font-size="14.00">3268</text>
</g>
<!-- Node0x600001e61fe0 -->
<g id="node1" class="node">
<title>Node0x600001e61fe0</title>
<polygon fill="none" stroke="black" points="8,-9 8,-77 95,-77 95,-9 8,-9"/>
<text text-anchor="middle" x="51.5" y="-66.6" font-family="Times,serif" font-size="8.00">word: traffic</text>
<polyline fill="none" stroke="black" points="8,-60 95,-60 "/>
<text text-anchor="middle" x="51.5" y="-49.6" font-family="Times,serif" font-size="8.00">size: 1</text>
<polyline fill="none" stroke="black" points="8,-43 95,-43 "/>
<text text-anchor="middle" x="51.5" y="-32.6" font-family="Times,serif" font-size="8.00">next: 0x600001e625b0</text>
<polyline fill="none" stroke="black" points="8,-26 95,-26 "/>
<text text-anchor="middle" x="51.5" y="-15.6" font-family="Times,serif" font-size="8.00">prev: 0x0</text>
</g>
<!-- Node0x600001e625b0 -->
<g id="node2" class="node">
<title>Node0x600001e625b0</title>
<polygon fill="none" stroke="black" points="131,-9 131,-77 218,-77 218,-9 131,-9"/>
<text text-anchor="middle" x="174.5" y="-66.6" font-family="Times,serif" font-size="8.00">word: No</text>
<polyline fill="none" stroke="black" points="131,-60 218,-60 "/>
<text text-anchor="middle" x="174.5" y="-49.6" font-family="Times,serif" font-size="8.00">size: 29</text>
<polyline fill="none" stroke="black" points="131,-43 218,-43 "/>
<text text-anchor="middle" x="174.5" y="-32.6" font-family="Times,serif" font-size="8.00">next: 0x600001e68270</text>
<polyline fill="none" stroke="black" points="131,-26 218,-26 "/>
<text text-anchor="middle" x="174.5" y="-15.6" font-family="Times,serif" font-size="8.00">prev: 0x600001e61fe0</text>
</g>
<!-- Node0x600001e61fe0&#45;&gt;Node0x600001e625b0 -->
<g id="edge1" class="edge">
<title>Node0x600001e61fe0:n&#45;&gt;Node0x600001e625b0:n</title>
<path fill="none" stroke="red" d="M95,-34C107,-34 112.25,-34 120.88,-34"/>
<polygon fill="red" stroke="red" points="121,-37.5 131,-34 121,-30.5 121,-37.5"/>
</g>
<!-- Node0x600001e68270 -->
<g id="node3" class="node">
<title>Node0x600001e68270</title>
<polygon fill="none" stroke="black" points="254,-9 254,-77 342,-77 342,-9 254,-9"/>
<text text-anchor="middle" x="298" y="-66.6" font-family="Times,serif" font-size="8.00">word: Abr</text>
<polyline fill="none" stroke="black" points="254,-60 342,-60 "/>
<text text-anchor="middle" x="298" y="-49.6" font-family="Times,serif" font-size="8.00">size: 1</text>
<polyline fill="none" stroke="black" points="254,-43 342,-43 "/>
<text text-anchor="middle" x="298" y="-32.6" font-family="Times,serif" font-size="8.00">next: 0x600001e69020</text>
<polyline fill="none" stroke="black" points="254,-26 342,-26 "/>
<text text-anchor="middle" x="298" y="-15.6" font-family="Times,serif" font-size="8.00">prev: 0x600001e625b0</text>
</g>
<!-- Node0x600001e625b0&#45;&gt;Node0x600001e68270 -->
<g id="edge2" class="edge">
<title>Node0x600001e625b0:n&#45;&gt;Node0x600001e68270:n</title>
<path fill="none" stroke="red" d="M218,-34C230,-34 235.25,-34 243.88,-34"/>
<polygon fill="red" stroke="red" points="244,-37.5 254,-34 244,-30.5 244,-37.5"/>
</g>
<!-- Node0x600001e69020 -->
<g id="node4" class="node">
<title>Node0x600001e69020</title>
<polygon fill="none" stroke="black" points="378,-9 378,-77 466,-77 466,-9 378,-9"/>
<text text-anchor="middle" x="422" y="-66.6" font-family="Times,serif" font-size="8.00">word: go</text>
<polyline fill="none" stroke="black" points="378,-60 466,-60 "/>
<text text-anchor="middle" x="422" y="-49.6" font-family="Times,serif" font-size="8.00">size: 47</text>
<polyline fill="none" stroke="black" points="378,-43 466,-43 "/>
<text text-anchor="middle" x="422" y="-32.6" font-family="Times,serif" font-size="8.00">next: 0x600001e69c50</text>
<polyline fill="none" stroke="black" points="378,-26 466,-26 "/>
<text text-anchor="middle" x="422" y="-15.6" font-family="Times,serif" font-size="8.00">prev: 0x600001e68270</text>
</g>
<!-- Node0x600001e68270&#45;&gt;Node0x600001e69020 -->
<g id="edge3" class="edge">
<title>Node0x600001e68270:n&#45;&gt;Node0x600001e69020:n</title>
<path fill="none" stroke="red" d="M342,-34C354,-34 359.25,-34 367.88,-34"/>
<polygon fill="red" stroke="red" points="368,-37.5 378,-34 368,-30.5 368,-37.5"/>
</g>
<!-- Node0x600001e69c50 -->
<g id="node5" class="node">
<title>Node0x600001e69c50</title>
<polygon fill="none" stroke="black" points="502,-9 502,-77 590,-77 590,-9 502,-9"/>
<text text-anchor="middle" x="546" y="-66.6" font-family="Times,serif" font-size="8.00">word: pleasure</text>
<polyline fill="none" stroke="black" points="502,-60 590,-60 "/>
<text text-anchor="middle" x="546" y="-49.6" font-family="Times,serif" font-size="8.00">size: 5</text>
<polyline fill="none" stroke="black" points="502,-43 590,-43 "/>
<text text-anchor="middle" x="546" y="-32.6" font-family="Times,serif" font-size="8.00">next: 0x600001e6a5b0</text>
<polyline fill="none" stroke="black" points="502,-26 590,-26 "/>
<text text-anchor="middle" x="546" y="-15.6" font-family="Times,serif" font-size="8.00">prev: 0x600001e69020</text>
</g>
<!-- Node0x600001e69020&#45;&gt;Node0x600001e69c50 -->
<g id="edge4" class="edge">
<title>Node0x600001e69020:n&#45;&gt;Node0x600001e69c50:n</title>
<path fill="none" stroke="red" d="M466,-34C478,-34 483.25,-34 491.88,-34"/>
<polygon fill="red" stroke="red" points="492,-37.5 502,-34 492,-30.5 492,-37.5"/>
</g>
<!-- Node0x600001e6a5b0 -->
<g id="node6" class="node">
<title>Node0x600001e6a5b0</title>
<polygon fill="none" stroke="black" points="626,-9 626,-77 714,-77 714,-9 626,-9"/>
<text text-anchor="middle" x="670" y="-66.6" font-family="Times,serif" font-size="8.00">word: O</text>
<polyline fill="none" stroke="black" points="626,-60 714,-60 "/>
<text text-anchor="middle" x="670" y="-49.6" font-family="Times,serif" font-size="8.00">size: 153</text>
<polyline fill="none" stroke="black" points="626,-43 714,-43 "/>
<text text-anchor="middle" x="670" y="-32.6" font-family="Times,serif" font-size="8.00">next: 0x600001e6a940</text>
<polyline fill="none" stroke="black" points="626,-26 714,-26 "/>
<text text-anchor="middle" x="670" y="-15.6" font-family="Times,serif" font-size="8.00">prev: 0x600001e69c50</text>
</g>
<!-- Node0x600001e69c50&#45;&gt;Node0x600001e6a5b0 -->
<g id="edge5" class="edge">
<title>Node0x600001e69c50:n&#45;&gt;Node0x600001e6a5b0:n</title>
<path fill="none" stroke="red" d="M590,-34C602,-34 607.25,-34 615.88,-34"/>
<polygon fill="red" stroke="red" points="616,-37.5 626,-34 616,-30.5 616,-37.5"/>
</g>
<!-- Node0x600001e6a940 -->
<g id="node7" class="node">
<title>Node0x600001e6a940</title>
<polygon fill="none" stroke="black" points="750,-9 750,-77 838,-77 838,-9 750,-9"/>
<text text-anchor="middle" x="794" y="-66.6" font-family="Times,serif" font-size="8.00">word: abroad</text>
<polyline fill="none" stroke="black" points="750,-60 838,-60 "/>
<text text-anchor="middle" x="794" y="-49.6" font-family="Times,serif" font-size="8.00">size: 4</text>
<polyline fill="none" stroke="black" points="750,-43 838,-43 "/>
<text text-anchor="middle" x="794" y="-32.6" font-family="Times,serif" font-size="8.00">next: 0x600001e6ac70</text>
<polyline fill="none" stroke="black" points="750,-26 838,-26 "/>
<text text-anchor="middle" x="794" y="-15.6" font-family="Times,serif" font-size="8.00">prev: 0x600001e6a5b0</text>
</g>
<!-- Node0x600001e6a5b0&#45;&gt;Node0x600001e6a940 -->
<g id="edge6" class="edge">
<title>Node0x600001e6a5b0:n&#45;&gt;Node0x600001e6a940:n</title>
<path fill="none" stroke="red" d="M714,-34C726,-34 731.25,-34 739.88,-34"/>
<polygon fill="red" stroke="red" points="740,-37.5 750,-34 740,-30.5 740,-37.5"/>
</g>
<!-- Node0x600001e6ac70 -->
<g id="node8" class="node">
<title>Node0x600001e6ac70</title>
<polygon fill="none" stroke="black" points="874,-9 874,-77 962,-77 962,-9 874,-9"/>
<text text-anchor="middle" x="918" y="-66.6" font-family="Times,serif" font-size="8.00">word: measuring</text>
<polyline fill="none" stroke="black" points="874,-60 962,-60 "/>
<text text-anchor="middle" x="918" y="-49.6" font-family="Times,serif" font-size="8.00">size: 1</text>
<polyline fill="none" stroke="black" points="874,-43 962,-43 "/>
<text text-anchor="middle" x="918" y="-32.6" font-family="Times,serif" font-size="8.00">next: 0x600001e6b9c0</text>
<polyline fill="none" stroke="black" points="874,-26 962,-26 "/>
<text text-anchor="middle" x="918" y="-15.6" font-family="Times,serif" font-size="8.00">prev: 0x600001e6a940</text>
</g>
<!-- Node0x600001e6a940&#45;&gt;Node0x600001e6ac70 -->
<g id="edge7" class="edge">
<title>Node0x600001e6a940:n&#45;&gt;Node0x600001e6ac70:n</title>
<path fill="none" stroke="red" d="M838,-34C850,-34 855.25,-34 863.88,-34"/>
<polygon fill="red" stroke="red" points="864,-37.5 874,-34 864,-30.5 864,-37.5"/>
</g>
<!-- Node0x600001e6b9c0 -->
<g id="node9" class="node">
<title>Node0x600001e6b9c0</title>
<polygon fill="none" stroke="black" points="998,-9 998,-77 1086,-77 1086,-9 998,-9"/>
<text text-anchor="middle" x="1042" y="-66.6" font-family="Times,serif" font-size="8.00">word: Both</text>
<polyline fill="none" stroke="black" points="998,-60 1086,-60 "/>
<text text-anchor="middle" x="1042" y="-49.6" font-family="Times,serif" font-size="8.00">size: 4</text>
<polyline fill="none" stroke="black" points="998,-43 1086,-43 "/>
<text text-anchor="middle" x="1042" y="-32.6" font-family="Times,serif" font-size="8.00">next: 0x600001e64570</text>
<polyline fill="none" stroke="black" points="998,-26 1086,-26 "/>
<text text-anchor="middle" x="1042" y="-15.6" font-family="Times,serif" font-size="8.00">prev: 0x600001e6ac70</text>
</g>
<!-- Node0x600001e6ac70&#45;&gt;Node0x600001e6b9c0 -->
<g id="edge8" class="edge">
<title>Node0x600001e6ac70:n&#45;&gt;Node0x600001e6b9c0:n</title>
<path fill="none" stroke="red" d="M962,-34C974,-34 979.25,-34 987.88,-34"/>
<polygon fill="red" stroke="red" points="988,-37.5 998,-34 988,-30.5 988,-37.5"/>
</g>
<!-- Node0x600001e64570 -->
<g id="node10" class="node">
<title>Node0x600001e64570</title>
<polygon fill="none" stroke="black" points="1122,-9 1122,-77 1210,-77 1210,-9 1122,-9"/>
<text text-anchor="middle" x="1166" y="-66.6" font-family="Times,serif" font-size="8.00">word: Herself</text>
<polyline fill="none" stroke="black" points="1122,-60 1210,-60 "/>
<text text-anchor="middle" x="1166" y="-49.6" font-family="Times,serif" font-size="8.00">size: 1</text>
<polyline fill="none" stroke="black" points="1122,-43 1210,-43 "/>
<text text-anchor="middle" x="1166" y="-32.6" font-family="Times,serif" font-size="8.00">next: 0x600001e74990</text>
<polyline fill="none" stroke="black" points="1122,-26 1210,-26 "/>
<text text-anchor="middle" x="1166" y="-15.6" font-family="Times,serif" font-size="8.00">prev: 0x600001e6b9c0</text>
</g>
<!-- Node0x600001e6b9c0&#45;&gt;Node0x600001e64570 -->
<g id="edge9" class="edge">
<title>Node0x600001e6b9c0:n&#45;&gt;Node0x600001e64570:n</title>
<path fill="none" stroke="red" d="M1086,-34C1098,-34 1103.25,-34 1111.88,-34"/>
<polygon fill="red" stroke="red" points="1112,-37.5 1122,-34 1112,-30.5 1112,-37.5"/>
</g>
<!-- Node0x600001e74990 -->
<g id="node11" class="node">
<title>Node0x600001e74990</title>
<polygon fill="none" stroke="black" points="1246,-9 1246,-77 1334,-77 1334,-9 1246,-9"/>
<text text-anchor="middle" x="1290" y="-66.6" font-family="Times,serif" font-size="8.00">word: breaths</text>
<polyline fill="none" stroke="black" points="1246,-60 1334,-60 "/>
<text text-anchor="middle" x="1290" y="-49.6" font-family="Times,serif" font-size="8.00">size: 1</text>
<polyline fill="none" stroke="black" points="1246,-43 1334,-43 "/>
<text text-anchor="middle" x="1290" y="-32.6" font-family="Times,serif" font-size="8.00">next: 0x600001e74f90</text>
<polyline fill="none" stroke="black" points="1246,-26 1334,-26 "/>
<text text-anchor="middle" x="1290" y="-15.6" font-family="Times,serif" font-size="8.00">prev: 0x600001e64570</text>
</g>
<!-- Node0x600001e64570&#45;&gt;Node0x600001e74990 -->
<g id="edge10" class="edge">
<title>Node0x600001e64570:n&#45;&gt;Node0x600001e74990:n</title>
<path fill="none" stroke="red" d="M1210,-34C1222,-34 1227.25,-34 1235.88,-34"/>
<polygon fill="red" stroke="red" points="1236,-37.5 1246,-34 1236,-30.5 1236,-37.5"/>
</g>
<!-- Node0x600001e74f90 -->
<g id="node12" class="node">
<title>Node0x600001e74f90</title>
<polygon fill="none" stroke="black" points="1370,-9 1370,-77 1458,-77 1458,-9 1370,-9"/>
<text text-anchor="middle" x="1414" y="-66.6" font-family="Times,serif" font-size="8.00">word: thus</text>
<polyline fill="none" stroke="black" points="1370,-60 1458,-60 "/>
<text text-anchor="middle" x="1414" y="-49.6" font-family="Times,serif" font-size="8.00">size: 5</text>
<polyline fill="none" stroke="black" points="1370,-43 1458,-43 "/>
<text text-anchor="middle" x="1414" y="-32.6" font-family="Times,serif" font-size="8.00">next: 0x600001e711a0</text>
<polyline fill="none" stroke="black" points="1370,-26 1458,-26 "/>
<text text-anchor="middle" x="1414" y="-15.6" font-family="Times,serif" font-size="8.00">prev: 0x600001e74990</text>
</g>
<!-- Node0x600001e74990&#45;&gt;Node0x600001e74f90 -->
<g id="edge11" class="edge">
<title>Node0x600001e74990:n&#45;&gt;Node0x600001e74f90:n</title>
<path fill="none" stroke="red" d="M1334,-34C1346,-34 1351.25,-34 1359.88,-34"/>
<polygon fill="red" stroke="red" points="1360,-37.5 1370,-34 1360,-30.5 1360,-37.5"/>
</g>
<!-- Node0x600001e711a0 -->
<g id="node13" class="node">
<title>Node0x600001e711a0</title>
<polygon fill="none" stroke="black" points="1494,-9 1494,-77 1581,-77 1581,-9 1494,-9"/>
<text text-anchor="middle" x="1537.5" y="-66.6" font-family="Times,serif" font-size="8.00">word: thence</text>
<polyline fill="none" stroke="black" points="1494,-60 1581,-60 "/>
<text text-anchor="middle" x="1537.5" y="-49.6" font-family="Times,serif" font-size="8.00">size: 2</text>
<polyline fill="none" stroke="black" points="1494,-43 1581,-43 "/>
<text text-anchor="middle" x="1537.5" y="-32.6" font-family="Times,serif" font-size="8.00">next: 0x600001e7ca80</text>
<polyline fill="none" stroke="black" points="1494,-26 1581,-26 "/>
<text text-anchor="middle" x="1537.5" y="-15.6" font-family="Times,serif" font-size="8.00">prev: 0x600001e74f90</text>
</g>
<!-- Node0x600001e74f90&#45;&gt;Node0x600001e711a0 -->
<g id="edge12" class="edge">
<title>Node0x600001e74f90:n&#45;&gt;Node0x600001e711a0:n</title>
<path fill="none" stroke="red" d="M1458,-34C1470,-34 1475.25,-34 1483.88,-34"/>
<polygon fill="red" stroke="red" points="1484,-37.5 1494,-34 1484,-30.5 1484,-37.5"/>
</g>
<!-- Node0x600001e7ca80 -->
<g id="node14" class="node">
<title>Node0x600001e7ca80</title>
<polygon fill="none" stroke="black" points="1617,-9 1617,-77 1705,-77 1705,-9 1617,-9"/>
<text text-anchor="middle" x="1661" y="-66.6" font-family="Times,serif" font-size="8.00">word: soft</text>
<polyline fill="none" stroke="black" points="1617,-60 1705,-60 "/>
<text text-anchor="middle" x="1661" y="-49.6" font-family="Times,serif" font-size="8.00">size: 4</text>
<polyline fill="none" stroke="black" points="1617,-43 1705,-43 "/>
<text text-anchor="middle" x="1661" y="-32.6" font-family="Times,serif" font-size="8.00">next: 0x600001e7cc30</text>
<polyline fill="none" stroke="black" points="1617,-26 1705,-26 "/>
<text text-anchor="middle" x="1661" y="-15.6" font-family="Times,serif" font-size="8.00">prev: 0x600001e711a0</text>
</g>
<!-- Node0x600001e711a0&#45;&gt;Node0x600001e7ca80 -->
<g id="edge13" class="edge">
<title>Node0x600001e711a0:n&#45;&gt;Node0x600001e7ca80:n</title>
<path fill="none" stroke="red" d="M1581,-34C1593,-34 1598.25,-34 1606.88,-34"/>
<polygon fill="red" stroke="red" points="1607,-37.5 1617,-34 1607,-30.5 1607,-37.5"/>
</g>
<!-- Node0x600001e7cc30 -->
<g id="node15" class="node">
<title>Node0x600001e7cc30</title>
<polygon fill="none" stroke="black" points="1741,-9 1741,-77 1829,-77 1829,-9 1741,-9"/>
<text text-anchor="middle" x="1785" y="-66.6" font-family="Times,serif" font-size="8.00">word: green</text>
<polyline fill="none" stroke="black" points="1741,-60 1829,-60 "/>
<text text-anchor="middle" x="1785" y="-49.6" font-family="Times,serif" font-size="8.00">size: 4</text>
<polyline fill="none" stroke="black" points="1741,-43 1829,-43 "/>
<text text-anchor="middle" x="1785" y="-32.6" font-family="Times,serif" font-size="8.00">next: 0x600001e7de60</text>
<polyline fill="none" stroke="black" points="1741,-26 1829,-26 "/>
<text text-anchor="middle" x="1785" y="-15.6" font-family="Times,serif" font-size="8.00">prev: 0x600001e7ca80</text>
</g>
<!-- Node0x600001e7ca80&#45;&gt;Node0x600001e7cc30 -->
<g id="edge14" class="edge">
<title>Node0x600001e7ca80:n&#45;&gt;Node0x600001e7cc30:n</title>
<path fill="none" stroke="red" d="M1705,-34C1717,-34 1722.25,-34 1730.88,-34"/>
<polygon fill="red" stroke="red" points="1731,-37.5 1741,-34 1731,-30.5 1731,-37.5"/>
</g>
<!-- Node0x600001e7de60 -->
<g id="node16" class="node">
<title>Node0x600001e7de60</title>
<polygon fill="none" stroke="black" points="1865,-9 1865,-77 1953,-77 1953,-9 1865,-9"/>
<text text-anchor="middle" x="1909" y="-66.6" font-family="Times,serif" font-size="8.00">word: bepaint</text>
<polyline fill="none" stroke="black" points="1865,-60 1953,-60 "/>
<text text-anchor="middle" x="1909" y="-49.6" font-family="Times,serif" font-size="8.00">size: 1</text>
<polyline fill="none" stroke="black" points="1865,-43 1953,-43 "/>
<text text-anchor="middle" x="1909" y="-32.6" font-family="Times,serif" font-size="8.00">next: 0x600001e7de90</text>
<polyline fill="none" stroke="black" points="1865,-26 1953,-26 "/>
<text text-anchor="middle" x="1909" y="-15.6" font-family="Times,serif" font-size="8.00">prev: 0x600001e7cc30</text>
</g>
<!-- Node0x600001e7cc30&#45;&gt;Node0x600001e7de60 -->
<g id="edge15" class="edge">
<title>Node0x600001e7cc30:n&#45;&gt;Node0x600001e7de60:n</title>
<path fill="none" stroke="red" d="M1829,-34C1841,-34 1846.25,-34 1854.88,-34"/>
<polygon fill="red" stroke="red" points="1855,-37.5 1865,-34 1855,-30.5 1855,-37.5"/>
</g>
<!-- Node0x600001e7de90 -->
<g id="node17" class="node">
<title>Node0x600001e7de90</title>
<polygon fill="none" stroke="black" points="1989,-9 1989,-77 2077,-77 2077,-9 1989,-9"/>
<text text-anchor="middle" x="2033" y="-66.6" font-family="Times,serif" font-size="8.00">word: Fain</text>
<polyline fill="none" stroke="black" points="1989,-60 2077,-60 "/>
<text text-anchor="middle" x="2033" y="-49.6" font-family="Times,serif" font-size="8.00">size: 1</text>
<polyline fill="none" stroke="black" points="1989,-43 2077,-43 "/>
<text text-anchor="middle" x="2033" y="-32.6" font-family="Times,serif" font-size="8.00">next: 0x600001e7ff90</text>
<polyline fill="none" stroke="black" points="1989,-26 2077,-26 "/>
<text text-anchor="middle" x="2033" y="-15.6" font-family="Times,serif" font-size="8.00">prev: 0x600001e7de60</text>
</g>
<!-- Node0x600001e7de60&#45;&gt;Node0x600001e7de90 -->
<g id="edge16" class="edge">
<title>Node0x600001e7de60:n&#45;&gt;Node0x600001e7de90:n</title>
<path fill="none" stroke="red" d="M1953,-34C1965,-34 1970.25,-34 1978.88,-34"/>
<polygon fill="red" stroke="red" points="1979,-37.5 1989,-34 1979,-30.5 1979,-37.5"/>
</g>
<!-- Node0x600001e7ff90 -->
<g id="node18" class="node">
<title>Node0x600001e7ff90</title>
<polygon fill="none" stroke="black" points="2113,-9 2113,-77 2201,-77 2201,-9 2113,-9"/>
<text text-anchor="middle" x="2157" y="-66.6" font-family="Times,serif" font-size="8.00">word: aught</text>
<polyline fill="none" stroke="black" points="2113,-60 2201,-60 "/>
<text text-anchor="middle" x="2157" y="-49.6" font-family="Times,serif" font-size="8.00">size: 2</text>
<polyline fill="none" stroke="black" points="2113,-43 2201,-43 "/>
<text text-anchor="middle" x="2157" y="-32.6" font-family="Times,serif" font-size="8.00">next: 0x600001e41080</text>
<polyline fill="none" stroke="black" points="2113,-26 2201,-26 "/>
<text text-anchor="middle" x="2157" y="-15.6" font-family="Times,serif" font-size="8.00">prev: 0x600001e7de90</text>
</g>
<!-- Node0x600001e7de90&#45;&gt;Node0x600001e7ff90 -->
<g id="edge17" class="edge">
<title>Node0x600001e7de90:n&#45;&gt;Node0x600001e7ff90:n</title>
<path fill="none" stroke="red" d="M2077,-34C2089,-34 2094.25,-34 2102.88,-34"/>
<polygon fill="red" stroke="red" points="2103,-37.5 2113,-34 2103,-30.5 2103,-37.5"/>
</g>
<!-- Node0x600001e41080 -->
<g id="node19" class="node">
<title>Node0x600001e41080</title>
<polygon fill="none" stroke="black" points="2237,-9 2237,-77 2323,-77 2323,-9 2237,-9"/>
<text text-anchor="middle" x="2280" y="-66.6" font-family="Times,serif" font-size="8.00">word: stain</text>
<polyline fill="none" stroke="black" points="2237,-60 2323,-60 "/>
<text text-anchor="middle" x="2280" y="-49.6" font-family="Times,serif" font-size="8.00">size: 3</text>
<polyline fill="none" stroke="black" points="2237,-43 2323,-43 "/>
<text text-anchor="middle" x="2280" y="-32.6" font-family="Times,serif" font-size="8.00">next: 0x600001e42f40</text>
<polyline fill="none" stroke="black" points="2237,-26 2323,-26 "/>
<text text-anchor="middle" x="2280" y="-15.6" font-family="Times,serif" font-size="8.00">prev: 0x600001e7ff90</text>
</g>
<!-- Node0x600001e7ff90&#45;&gt;Node0x600001e41080 -->
<g id="edge18" class="edge">
<title>Node0x600001e7ff90:n&#45;&gt;Node0x600001e41080:n</title>
<path fill="none" stroke="red" d="M2201,-34C2213,-34 2218.25,-34 2226.88,-34"/>
<polygon fill="red" stroke="red" points="2227,-37.5 2237,-34 2227,-30.5 2227,-37.5"/>
</g>
<!-- Node0x600001e42f40 -->
<g id="node20" class="node">
<title>Node0x600001e42f40</title>
<polygon fill="none" stroke="black" points="2359,-9 2359,-77 2447,-77 2447,-9 2359,-9"/>
<text text-anchor="middle" x="2403" y="-66.6" font-family="Times,serif" font-size="8.00">word: argument</text>
<polyline fill="none" stroke="black" points="2359,-60 2447,-60 "/>
<text text-anchor="middle" x="2403" y="-49.6" font-family="Times,serif" font-size="8.00">size: 1</text>
<polyline fill="none" stroke="black" points="2359,-43 2447,-43 "/>
<text text-anchor="middle" x="2403" y="-32.6" font-family="Times,serif" font-size="8.00">next: 0x600001e430c0</text>
<polyline fill="none" stroke="black" points="2359,-26 2447,-26 "/>
<text text-anchor="middle" x="2403" y="-15.6" font-family="Times,serif" font-size="8.00">prev: 0x600001e41080</text>
</g>
<!-- Node0x600001e41080&#45;&gt;Node0x600001e42f40 -->
<g id="edge19" class="edge">
<title>Node0x600001e41080:n&#45;&gt;Node0x600001e42f40:n</title>
<path fill="none" stroke="red" d="M2323,-34C2335,-34 2340.25,-34 2348.88,-34"/>
<polygon fill="red" stroke="red" points="2349,-37.5 2359,-34 2349,-30.5 2349,-37.5"/>
</g>
<!-- Node0x600001e430c0 -->
<g id="node21" class="node">
<title>Node0x600001e430c0</title>
<polygon fill="none" stroke="black" points="2483,-9 2483,-77 2570,-77 2570,-9 2483,-9"/>
<text text-anchor="middle" x="2526.5" y="-66.6" font-family="Times,serif" font-size="8.00">word: gentlewoman</text>
<polyline fill="none" stroke="black" points="2483,-60 2570,-60 "/>
<text text-anchor="middle" x="2526.5" y="-49.6" font-family="Times,serif" font-size="8.00">size: 4</text>
<polyline fill="none" stroke="black" points="2483,-43 2570,-43 "/>
<text text-anchor="middle" x="2526.5" y="-32.6" font-family="Times,serif" font-size="8.00">next: 0x600001e43840</text>
<polyline fill="none" stroke="black" points="2483,-26 2570,-26 "/>
<text text-anchor="middle" x="2526.5" y="-15.6" font-family="Times,serif" font-size="8.00">prev: 0x600001e42f40</text>
</g>
<!-- Node0x600001e42f40&#45;&gt;Node0x600001e430c0 -->
<g id="edge20" class="edge">
<title>Node0x600001e42f40:n&#45;&gt;Node0x600001e430c0:n</title>
<path fill="none" stroke="red" d="M2447,-34C2459,-34 2464.25,-34 2472.88,-34"/>
<polygon fill="red" stroke="red" points="2473,-37.5 2483,-34 2473,-30.5 2473,-37.5"/>
</g>
<!-- Node0x600001e43840 -->
<g id="node22" class="node">
<title>Node0x600001e43840</title>
<polygon fill="none" stroke="black" points="2606,-9 2606,-77 2694,-77 2694,-9 2606,-9"/>
<text text-anchor="middle" x="2650" y="-66.6" font-family="Times,serif" font-size="8.00">word: lustier</text>
<polyline fill="none" stroke="black" points="2606,-60 2694,-60 "/>
<text text-anchor="middle" x="2650" y="-49.6" font-family="Times,serif" font-size="8.00">size: 1</text>
<polyline fill="none" stroke="black" points="2606,-43 2694,-43 "/>
<text text-anchor="middle" x="2650" y="-32.6" font-family="Times,serif" font-size="8.00">next: 0x600001e46dc0</text>
<polyline fill="none" stroke="black" points="2606,-26 2694,-26 "/>
<text text-anchor="middle" x="2650" y="-15.6" font-family="Times,serif" font-size="8.00">prev: 0x600001e430c0</text>
</g>
<!-- Node0x600001e430c0&#45;&gt;Node0x600001e43840 -->
<g id="edge21" class="edge">
<title>Node0x600001e430c0:n&#45;&gt;Node0x600001e43840:n</title>
<path fill="none" stroke="red" d="M2570,-34C2582,-34 2587.25,-34 2595.88,-34"/>
<polygon fill="red" stroke="red" points="2596,-37.5 2606,-34 2596,-30.5 2596,-37.5"/>
</g>
<!-- Node0x600001e46dc0 -->
<g id="node23" class="node">
<title>Node0x600001e46dc0</title>
<polygon fill="none" stroke="black" points="2730,-9 2730,-77 2818,-77 2818,-9 2730,-9"/>
<text text-anchor="middle" x="2774" y="-66.6" font-family="Times,serif" font-size="8.00">word: arithmetic</text>
<polyline fill="none" stroke="black" points="2730,-60 2818,-60 "/>
<text text-anchor="middle" x="2774" y="-49.6" font-family="Times,serif" font-size="8.00">size: 1</text>
<polyline fill="none" stroke="black" points="2730,-43 2818,-43 "/>
<text text-anchor="middle" x="2774" y="-32.6" font-family="Times,serif" font-size="8.00">next: 0x600001e48750</text>
<polyline fill="none" stroke="black" points="2730,-26 2818,-26 "/>
<text text-anchor="middle" x="2774" y="-15.6" font-family="Times,serif" font-size="8.00">prev: 0x600001e43840</text>
</g>
<!-- Node0x600001e43840&#45;&gt;Node0x600001e46dc0 -->
<g id="edge22" class="edge">
<title>Node0x600001e43840:n&#45;&gt;Node0x600001e46dc0:n</title>
<path fill="none" stroke="red" d="M2694,-34C2706,-34 2711.25,-34 2719.88,-34"/>
<polygon fill="red" stroke="red" points="2720,-37.5 2730,-34 2720,-30.5 2720,-37.5"/>
</g>
<!-- Node0x600001e48750 -->
<g id="node24" class="node">
<title>Node0x600001e48750</title>
<polygon fill="none" stroke="black" points="2854,-9 2854,-77 2942,-77 2942,-9 2854,-9"/>
<text text-anchor="middle" x="2898" y="-66.6" font-family="Times,serif" font-size="8.00">word: mantle</text>
<polyline fill="none" stroke="black" points="2854,-60 2942,-60 "/>
<text text-anchor="middle" x="2898" y="-49.6" font-family="Times,serif" font-size="8.00">size: 1</text>
<polyline fill="none" stroke="black" points="2854,-43 2942,-43 "/>
<text text-anchor="middle" x="2898" y="-32.6" font-family="Times,serif" font-size="8.00">next: 0x600001e49b30</text>
<polyline fill="none" stroke="black" points="2854,-26 2942,-26 "/>
<text text-anchor="middle" x="2898" y="-15.6" font-family="Times,serif" font-size="8.00">prev: 0x600001e46dc0</text>
</g>
<!-- Node0x600001e46dc0&#45;&gt;Node0x600001e48750 -->
<g id="edge23" class="edge">
<title>Node0x600001e46dc0:n&#45;&gt;Node0x600001e48750:n</title>
<path fill="none" stroke="red" d="M2818,-34C2830,-34 2835.25,-34 2843.88,-34"/>
<polygon fill="red" stroke="red" points="2844,-37.5 2854,-34 2844,-30.5 2844,-37.5"/>
</g>
<!-- Node0x600001e49b30 -->
<g id="node25" class="node">
<title>Node0x600001e49b30</title>
<polygon fill="none" stroke="black" points="2978,-9 2978,-77 3066,-77 3066,-9 2978,-9"/>
<text text-anchor="middle" x="3022" y="-66.6" font-family="Times,serif" font-size="8.00">word: Tybalts</text>
<polyline fill="none" stroke="black" points="2978,-60 3066,-60 "/>
<text text-anchor="middle" x="3022" y="-49.6" font-family="Times,serif" font-size="8.00">size: 1</text>
<polyline fill="none" stroke="black" points="2978,-43 3066,-43 "/>
<text text-anchor="middle" x="3022" y="-32.6" font-family="Times,serif" font-size="8.00">next: 0x600001e4b030</text>
<polyline fill="none" stroke="black" points="2978,-26 3066,-26 "/>
<text text-anchor="middle" x="3022" y="-15.6" font-family="Times,serif" font-size="8.00">prev: 0x600001e48750</text>
</g>
<!-- Node0x600001e48750&#45;&gt;Node0x600001e49b30 -->
<g id="edge24" class="edge">
<title>Node0x600001e48750:n&#45;&gt;Node0x600001e49b30:n</title>
<path fill="none" stroke="red" d="M2942,-34C2954,-34 2959.25,-34 2967.88,-34"/>
<polygon fill="red" stroke="red" points="2968,-37.5 2978,-34 2968,-30.5 2968,-37.5"/>
</g>
<!-- Node0x600001e4b030 -->
<g id="node26" class="node">
<title>Node0x600001e4b030</title>
<polygon fill="none" stroke="black" points="3102,-9 3102,-77 3190,-77 3190,-9 3102,-9"/>
<text text-anchor="middle" x="3146" y="-66.6" font-family="Times,serif" font-size="8.00">word: defence</text>
<polyline fill="none" stroke="black" points="3102,-60 3190,-60 "/>
<text text-anchor="middle" x="3146" y="-49.6" font-family="Times,serif" font-size="8.00">size: 1</text>
<polyline fill="none" stroke="black" points="3102,-43 3190,-43 "/>
<text text-anchor="middle" x="3146" y="-32.6" font-family="Times,serif" font-size="8.00">next: 0x600001e4bf60</text>
<polyline fill="none" stroke="black" points="3102,-26 3190,-26 "/>
<text text-anchor="middle" x="3146" y="-15.6" font-family="Times,serif" font-size="8.00">prev: 0x600001e49b30</text>
</g>
<!-- Node0x600001e49b30&#45;&gt;Node0x600001e4b030 -->
<g id="edge25" class="edge">
<title>Node0x600001e49b30:n&#45;&gt;Node0x600001e4b030:n</title>
<path fill="none" stroke="red" d="M3066,-34C3078,-34 3083.25,-34 3091.88,-34"/>
<polygon fill="red" stroke="red" points="3092,-37.5 3102,-34 3092,-30.5 3092,-37.5"/>
</g>
<!-- Node0x600001e4bf60 -->
<g id="node27" class="node">
<title>Node0x600001e4bf60</title>
<polygon fill="none" stroke="black" points="3226,-9 3226,-77 3314,-77 3314,-9 3226,-9"/>
<text text-anchor="middle" x="3270" y="-66.6" font-family="Times,serif" font-size="8.00">word: vaulty</text>
<polyline fill="none" stroke="black" points="3226,-60 3314,-60 "/>
<text text-anchor="middle" x="3270" y="-49.6" font-family="Times,serif" font-size="8.00">size: 1</text>
<polyline fill="none" stroke="black" points="3226,-43 3314,-43 "/>
<text text-anchor="middle" x="3270" y="-32.6" font-family="Times,serif" font-size="8.00">next: 0x600001e71d70</text>
<polyline fill="none" stroke="black" points="3226,-26 3314,-26 "/>
<text text-anchor="middle" x="3270" y="-15.6" font-family="Times,serif" font-size="8.00">prev: 0x600001e4b030</text>
</g>
<!-- Node0x600001e4b030&#45;&gt;Node0x600001e4bf60 -->
<g id="edge26" class="edge">
<title>Node0x600001e4b030:n&#45;&gt;Node0x600001e4bf60:n</title>
<path fill="none" stroke="red" d="M3190,-34C3202,-34 3207.25,-34 3215.88,-34"/>
<polygon fill="red" stroke="red" points="3216,-37.5 3226,-34 3216,-30.5 3216,-37.5"/>
</g>
<!-- Node0x600001e71d70 -->
<g id="node28" class="node">
<title>Node0x600001e71d70</title>
<polygon fill="none" stroke="black" points="3350,-9 3350,-77 3437,-77 3437,-9 3350,-9"/>
<text text-anchor="middle" x="3393.5" y="-66.6" font-family="Times,serif" font-size="8.00">word: thankful</text>
<polyline fill="none" stroke="black" points="3350,-60 3437,-60 "/>
<text text-anchor="middle" x="3393.5" y="-49.6" font-family="Times,serif" font-size="8.00">size: 2</text>
<polyline fill="none" stroke="black" points="3350,-43 3437,-43 "/>
<text text-anchor="middle" x="3393.5" y="-32.6" font-family="Times,serif" font-size="8.00">next: 0x600001e72250</text>
<polyline fill="none" stroke="black" points="3350,-26 3437,-26 "/>
<text text-anchor="middle" x="3393.5" y="-15.6" font-family="Times,serif" font-size="8.00">prev: 0x600001e4bf60</text>
</g>
<!-- Node0x600001e4bf60&#45;&gt;Node0x600001e71d70 -->
<g id="edge27" class="edge">
<title>Node0x600001e4bf60:n&#45;&gt;Node0x600001e71d70:n</title>
<path fill="none" stroke="red" d="M3314,-34C3326,-34 3331.25,-34 3339.88,-34"/>
<polygon fill="red" stroke="red" points="3340,-37.5 3350,-34 3340,-30.5 3340,-37.5"/>
</g>
<!-- Node0x600001e72250 -->
<g id="node29" class="node">
<title>Node0x600001e72250</title>
<polygon fill="none" stroke="black" points="3473,-9 3473,-77 3561,-77 3561,-9 3473,-9"/>
<text text-anchor="middle" x="3517" y="-66.6" font-family="Times,serif" font-size="8.00">word: Wisdom</text>
<polyline fill="none" stroke="black" points="3473,-60 3561,-60 "/>
<text text-anchor="middle" x="3517" y="-49.6" font-family="Times,serif" font-size="8.00">size: 1</text>
<polyline fill="none" stroke="black" points="3473,-43 3561,-43 "/>
<text text-anchor="middle" x="3517" y="-32.6" font-family="Times,serif" font-size="8.00">next: 0x600001e72700</text>
<polyline fill="none" stroke="black" points="3473,-26 3561,-26 "/>
<text text-anchor="middle" x="3517" y="-15.6" font-family="Times,serif" font-size="8.00">prev: 0x600001e71d70</text>
</g>
<!-- Node0x600001e71d70&#45;&gt;Node0x600001e72250 -->
<g id="edge28" class="edge">
<title>Node0x600001e71d70:n&#45;&gt;Node0x600001e72250:n</title>
<path fill="none" stroke="red" d="M3437,-34C3449,-34 3454.25,-34 3462.88,-34"/>
<polygon fill="red" stroke="red" points="3463,-37.5 3473,-34 3463,-30.5 3463,-37.5"/>
</g>
<!-- Node0x600001e72700 -->
<g id="node30" class="node">
<title>Node0x600001e72700</title>
<polygon fill="none" stroke="black" points="3597,-9 3597,-77 3685,-77 3685,-9 3597,-9"/>
<text text-anchor="middle" x="3641" y="-66.6" font-family="Times,serif" font-size="8.00">word: starve</text>
<polyline fill="none" stroke="black" points="3597,-60 3685,-60 "/>
<text text-anchor="middle" x="3641" y="-49.6" font-family="Times,serif" font-size="8.00">size: 1</text>
<polyline fill="none" stroke="black" points="3597,-43 3685,-43 "/>
<text text-anchor="middle" x="3641" y="-32.6" font-family="Times,serif" font-size="8.00">next: 0x600001e727c0</text>
<polyline fill="none" stroke="black" points="3597,-26 3685,-26 "/>
<text text-anchor="middle" x="3641" y="-15.6" font-family="Times,serif" font-size="8.00">prev: 0x600001e72250</text>
</g>
<!-- Node0x600001e72250&#45;&gt;Node0x600001e72700 -->
<g id="edge29" class="edge">
<title>Node0x600001e72250:n&#45;&gt;Node0x600001e72700:n</title>
<path fill="none" stroke="red" d="M3561,-34C3573,-34 3578.25,-34 3586.88,-34"/>
<polygon fill="red" stroke="red" points="3587,-37.5 3597,-34 3587,-30.5 3587,-37.5"/>
</g>
<!-- Node0x600001e727c0 -->
<g id="node31" class="node">
<title>Node0x600001e727c0</title>
<polygon fill="none" stroke="black" points="3721,-9 3721,-77 3809,-77 3809,-9 3721,-9"/>
<text text-anchor="middle" x="3765" y="-66.6" font-family="Times,serif" font-size="8.00">word: sitting</text>
<polyline fill="none" stroke="black" points="3721,-60 3809,-60 "/>
<text text-anchor="middle" x="3765" y="-49.6" font-family="Times,serif" font-size="8.00">size: 1</text>
<polyline fill="none" stroke="black" points="3721,-43 3809,-43 "/>
<text text-anchor="middle" x="3765" y="-32.6" font-family="Times,serif" font-size="8.00">next: 0x600001e788d0</text>
<polyline fill="none" stroke="black" points="3721,-26 3809,-26 "/>
<text text-anchor="middle" x="3765" y="-15.6" font-family="Times,serif" font-size="8.00">prev: 0x600001e72700</text>
</g>
<!-- Node0x600001e72700&#45;&gt;Node0x600001e727c0 -->
<g id="edge30" class="edge">
<title>Node0x600001e72700:n&#45;&gt;Node0x600001e727c0:n</title>
<path fill="none" stroke="red" d="M3685,-34C3697,-34 3702.25,-34 3710.88,-34"/>
<polygon fill="red" stroke="red" points="3711,-37.5 3721,-34 3711,-30.5 3711,-37.5"/>
</g>
<!-- Node0x600001e788d0 -->
<g id="node32" class="node">
<title>Node0x600001e788d0</title>
<polygon fill="none" stroke="black" points="3845,-9 3845,-77 3933,-77 3933,-9 3845,-9"/>
<text text-anchor="middle" x="3889" y="-66.6" font-family="Times,serif" font-size="8.00">word: wicked</text>
<polyline fill="none" stroke="black" points="3845,-60 3933,-60 "/>
<text text-anchor="middle" x="3889" y="-49.6" font-family="Times,serif" font-size="8.00">size: 1</text>
<polyline fill="none" stroke="black" points="3845,-43 3933,-43 "/>
<text text-anchor="middle" x="3889" y="-32.6" font-family="Times,serif" font-size="8.00">next: 0x600001e799e0</text>
<polyline fill="none" stroke="black" points="3845,-26 3933,-26 "/>
<text text-anchor="middle" x="3889" y="-15.6" font-family="Times,serif" font-size="8.00">prev: 0x600001e727c0</text>
</g>
<!-- Node0x600001e727c0&#45;&gt;Node0x600001e788d0 -->
<g id="edge31" class="edge">
<title>Node0x600001e727c0:n&#45;&gt;Node0x600001e788d0:n</title>
<path fill="none" stroke="red" d="M3809,-34C3821,-34 3826.25,-34 3834.88,-34"/>
<polygon fill="red" stroke="red" points="3835,-37.5 3845,-34 3835,-30.5 3835,-37.5"/>
</g>
<!-- Node0x600001e799e0 -->
<g id="node33" class="node">
<title>Node0x600001e799e0</title>
<polygon fill="none" stroke="black" points="3969,-9 3969,-77 4057,-77 4057,-9 3969,-9"/>
<text text-anchor="middle" x="4013" y="-66.6" font-family="Times,serif" font-size="8.00">word: supple</text>
<polyline fill="none" stroke="black" points="3969,-60 4057,-60 "/>
<text text-anchor="middle" x="4013" y="-49.6" font-family="Times,serif" font-size="8.00">size: 1</text>
<polyline fill="none" stroke="black" points="3969,-43 4057,-43 "/>
<text text-anchor="middle" x="4013" y="-32.6" font-family="Times,serif" font-size="8.00">next: 0x600001e55dd0</text>
<polyline fill="none" stroke="black" points="3969,-26 4057,-26 "/>
<text text-anchor="middle" x="4013" y="-15.6" font-family="Times,serif" font-size="8.00">prev: 0x600001e788d0</text>
</g>
<!-- Node0x600001e788d0&#45;&gt;Node0x600001e799e0 -->
<g id="edge32" class="edge">
<title>Node0x600001e788d0:n&#45;&gt;Node0x600001e799e0:n</title>
<path fill="none" stroke="red" d="M3933,-34C3945,-34 3950.25,-34 3958.88,-34"/>
<polygon fill="red" stroke="red" points="3959,-37.5 3969,-34 3959,-30.5 3959,-37.5"/>
</g>
<!-- Node0x600001e55dd0 -->
<g id="node34" class="node">
<title>Node0x600001e55dd0</title>
<polygon fill="none" stroke="black" points="4093,-9 4093,-77 4181,-77 4181,-9 4093,-9"/>
<text text-anchor="middle" x="4137" y="-66.6" font-family="Times,serif" font-size="8.00">word: clear</text>
<polyline fill="none" stroke="black" points="4093,-60 4181,-60 "/>
<text text-anchor="middle" x="4137" y="-49.6" font-family="Times,serif" font-size="8.00">size: 1</text>
<polyline fill="none" stroke="black" points="4093,-43 4181,-43 "/>
<text text-anchor="middle" x="4137" y="-32.6" font-family="Times,serif" font-size="8.00">next: 0x0</text>
<polyline fill="none" stroke="black" points="4093,-26 4181,-26 "/>
<text text-anchor="middle" x="4137" y="-15.6" font-family="Times,serif" font-size="8.00">prev: 0x600001e799e0</text>
</g>
<!-- Node0x600001e799e0&#45;&gt;Node0x600001e55dd0 -->
<g id="edge33" class="edge">
<title>Node0x600001e799e0:n&#45;&gt;Node0x600001e55dd0:n</title>
<path fill="none" stroke="red" d="M4057,-34C4069,-34 4074.25,-34 4082.88,-34"/>
<polygon fill="red" stroke="red" points="4083,-37.5 4093,-34 4083,-30.5 4083,-37.5"/>
</g>
</g>
</svg>
