<?xml version="1.0" encoding="UTF-8" standalone="no"?>
<!DOCTYPE svg PUBLIC "-//W3C//DTD SVG 1.1//EN"
 "http://www.w3.org/Graphics/SVG/1.1/DTD/svg11.dtd">
<!-- Generated by graphviz version 2.50.0 (20211204.2007)
 -->
<!-- Title: G Pages: 1 -->
<svg width="3951pt" height="117pt"
 viewBox="0.00 0.00 3951.00 117.00" xmlns="http://www.w3.org/2000/svg" xmlns:xlink="http://www.w3.org/1999/xlink">
<g id="graph0" class="graph" transform="scale(1 1) rotate(0) translate(4 113)">
<title>G</title>
<polygon fill="white" stroke="transparent" points="-4,4 -4,-113 3947,-113 3947,4 -4,4"/>
<g id="clust1" class="cluster">
<title>cluster1728</title>
<polygon fill="none" stroke="black" points="8,-8 8,-101 95,-101 95,-8 8,-8"/>
<text text-anchor="middle" x="51.5" y="-85.8" font-family="Times,serif" font-size="14.00">1728</text>
</g>
<g id="clust2" class="cluster">
<title>cluster1729</title>
<polygon fill="none" stroke="black" points="131,-8 131,-101 218,-101 218,-8 131,-8"/>
<text text-anchor="middle" x="174.5" y="-85.8" font-family="Times,serif" font-size="14.00">1729</text>
</g>
<g id="clust3" class="cluster">
<title>cluster1730</title>
<polygon fill="none" stroke="black" points="254,-8 254,-101 342,-101 342,-8 254,-8"/>
<text text-anchor="middle" x="298" y="-85.8" font-family="Times,serif" font-size="14.00">1730</text>
</g>
<g id="clust4" class="cluster">
<title>cluster1731</title>
<polygon fill="none" stroke="black" points="378,-8 378,-101 466,-101 466,-8 378,-8"/>
<text text-anchor="middle" x="422" y="-85.8" font-family="Times,serif" font-size="14.00">1731</text>
</g>
<g id="clust5" class="cluster">
<title>cluster1732</title>
<polygon fill="none" stroke="black" points="502,-8 502,-101 590,-101 590,-8 502,-8"/>
<text text-anchor="middle" x="546" y="-85.8" font-family="Times,serif" font-size="14.00">1732</text>
</g>
<g id="clust6" class="cluster">
<title>cluster1733</title>
<polygon fill="none" stroke="black" points="626,-8 626,-101 714,-101 714,-8 626,-8"/>
<text text-anchor="middle" x="670" y="-85.8" font-family="Times,serif" font-size="14.00">1733</text>
</g>
<g id="clust7" class="cluster">
<title>cluster1734</title>
<polygon fill="none" stroke="black" points="750,-8 750,-101 838,-101 838,-8 750,-8"/>
<text text-anchor="middle" x="794" y="-85.8" font-family="Times,serif" font-size="14.00">1734</text>
</g>
<g id="clust8" class="cluster">
<title>cluster1735</title>
<polygon fill="none" stroke="black" points="874,-8 874,-101 962,-101 962,-8 874,-8"/>
<text text-anchor="middle" x="918" y="-85.8" font-family="Times,serif" font-size="14.00">1735</text>
</g>
<g id="clust9" class="cluster">
<title>cluster1736</title>
<polygon fill="none" stroke="black" points="998,-8 998,-101 1086,-101 1086,-8 998,-8"/>
<text text-anchor="middle" x="1042" y="-85.8" font-family="Times,serif" font-size="14.00">1736</text>
</g>
<g id="clust10" class="cluster">
<title>cluster1737</title>
<polygon fill="none" stroke="black" points="1122,-8 1122,-101 1210,-101 1210,-8 1122,-8"/>
<text text-anchor="middle" x="1166" y="-85.8" font-family="Times,serif" font-size="14.00">1737</text>
</g>
<g id="clust11" class="cluster">
<title>cluster1738</title>
<polygon fill="none" stroke="black" points="1246,-8 1246,-101 1334,-101 1334,-8 1246,-8"/>
<text text-anchor="middle" x="1290" y="-85.8" font-family="Times,serif" font-size="14.00">1738</text>
</g>
<g id="clust12" class="cluster">
<title>cluster1739</title>
<polygon fill="none" stroke="black" points="1370,-8 1370,-101 1458,-101 1458,-8 1370,-8"/>
<text text-anchor="middle" x="1414" y="-85.8" font-family="Times,serif" font-size="14.00">1739</text>
</g>
<g id="clust13" class="cluster">
<title>cluster1740</title>
<polygon fill="none" stroke="black" points="1494,-8 1494,-101 1581,-101 1581,-8 1494,-8"/>
<text text-anchor="middle" x="1537.5" y="-85.8" font-family="Times,serif" font-size="14.00">1740</text>
</g>
<g id="clust14" class="cluster">
<title>cluster1741</title>
<polygon fill="none" stroke="black" points="1617,-8 1617,-101 1704,-101 1704,-8 1617,-8"/>
<text text-anchor="middle" x="1660.5" y="-85.8" font-family="Times,serif" font-size="14.00">1741</text>
</g>
<g id="clust15" class="cluster">
<title>cluster1742</title>
<polygon fill="none" stroke="black" points="1740,-8 1740,-101 1828,-101 1828,-8 1740,-8"/>
<text text-anchor="middle" x="1784" y="-85.8" font-family="Times,serif" font-size="14.00">1742</text>
</g>
<g id="clust16" class="cluster">
<title>cluster1743</title>
<polygon fill="none" stroke="black" points="1864,-8 1864,-101 1952,-101 1952,-8 1864,-8"/>
<text text-anchor="middle" x="1908" y="-85.8" font-family="Times,serif" font-size="14.00">1743</text>
</g>
<g id="clust17" class="cluster">
<title>cluster1744</title>
<polygon fill="none" stroke="black" points="1988,-8 1988,-101 2075,-101 2075,-8 1988,-8"/>
<text text-anchor="middle" x="2031.5" y="-85.8" font-family="Times,serif" font-size="14.00">1744</text>
</g>
<g id="clust18" class="cluster">
<title>cluster1745</title>
<polygon fill="none" stroke="black" points="2111,-8 2111,-101 2199,-101 2199,-8 2111,-8"/>
<text text-anchor="middle" x="2155" y="-85.8" font-family="Times,serif" font-size="14.00">1745</text>
</g>
<g id="clust19" class="cluster">
<title>cluster1746</title>
<polygon fill="none" stroke="black" points="2235,-8 2235,-101 2323,-101 2323,-8 2235,-8"/>
<text text-anchor="middle" x="2279" y="-85.8" font-family="Times,serif" font-size="14.00">1746</text>
</g>
<g id="clust20" class="cluster">
<title>cluster1747</title>
<polygon fill="none" stroke="black" points="2359,-8 2359,-101 2447,-101 2447,-8 2359,-8"/>
<text text-anchor="middle" x="2403" y="-85.8" font-family="Times,serif" font-size="14.00">1747</text>
</g>
<g id="clust21" class="cluster">
<title>cluster1748</title>
<polygon fill="none" stroke="black" points="2483,-8 2483,-101 2571,-101 2571,-8 2483,-8"/>
<text text-anchor="middle" x="2527" y="-85.8" font-family="Times,serif" font-size="14.00">1748</text>
</g>
<g id="clust22" class="cluster">
<title>cluster1749</title>
<polygon fill="none" stroke="black" points="2607,-8 2607,-101 2695,-101 2695,-8 2607,-8"/>
<text text-anchor="middle" x="2651" y="-85.8" font-family="Times,serif" font-size="14.00">1749</text>
</g>
<g id="clust23" class="cluster">
<title>cluster1750</title>
<polygon fill="none" stroke="black" points="2731,-8 2731,-101 2819,-101 2819,-8 2731,-8"/>
<text text-anchor="middle" x="2775" y="-85.8" font-family="Times,serif" font-size="14.00">1750</text>
</g>
<g id="clust24" class="cluster">
<title>cluster1751</title>
<polygon fill="none" stroke="black" points="2855,-8 2855,-101 2943,-101 2943,-8 2855,-8"/>
<text text-anchor="middle" x="2899" y="-85.8" font-family="Times,serif" font-size="14.00">1751</text>
</g>
<g id="clust25" class="cluster">
<title>cluster1752</title>
<polygon fill="none" stroke="black" points="2979,-8 2979,-101 3067,-101 3067,-8 2979,-8"/>
<text text-anchor="middle" x="3023" y="-85.8" font-family="Times,serif" font-size="14.00">1752</text>
</g>
<g id="clust26" class="cluster">
<title>cluster1753</title>
<polygon fill="none" stroke="black" points="3103,-8 3103,-101 3191,-101 3191,-8 3103,-8"/>
<text text-anchor="middle" x="3147" y="-85.8" font-family="Times,serif" font-size="14.00">1753</text>
</g>
<g id="clust27" class="cluster">
<title>cluster1754</title>
<polygon fill="none" stroke="black" points="3227,-8 3227,-101 3315,-101 3315,-8 3227,-8"/>
<text text-anchor="middle" x="3271" y="-85.8" font-family="Times,serif" font-size="14.00">1754</text>
</g>
<g id="clust28" class="cluster">
<title>cluster1755</title>
<polygon fill="none" stroke="black" points="3351,-8 3351,-101 3439,-101 3439,-8 3351,-8"/>
<text text-anchor="middle" x="3395" y="-85.8" font-family="Times,serif" font-size="14.00">1755</text>
</g>
<g id="clust29" class="cluster">
<title>cluster1756</title>
<polygon fill="none" stroke="black" points="3475,-8 3475,-101 3563,-101 3563,-8 3475,-8"/>
<text text-anchor="middle" x="3519" y="-85.8" font-family="Times,serif" font-size="14.00">1756</text>
</g>
<g id="clust30" class="cluster">
<title>cluster1757</title>
<polygon fill="none" stroke="black" points="3599,-8 3599,-101 3687,-101 3687,-8 3599,-8"/>
<text text-anchor="middle" x="3643" y="-85.8" font-family="Times,serif" font-size="14.00">1757</text>
</g>
<g id="clust31" class="cluster">
<title>cluster1758</title>
<polygon fill="none" stroke="black" points="3723,-8 3723,-101 3811,-101 3811,-8 3723,-8"/>
<text text-anchor="middle" x="3767" y="-85.8" font-family="Times,serif" font-size="14.00">1758</text>
</g>
<g id="clust32" class="cluster">
<title>cluster1759</title>
<polygon fill="none" stroke="black" points="3847,-8 3847,-101 3935,-101 3935,-8 3847,-8"/>
<text text-anchor="middle" x="3891" y="-85.8" font-family="Times,serif" font-size="14.00">1759</text>
</g>
<!-- Node0x600001e62f10 -->
<g id="node1" class="node">
<title>Node0x600001e62f10</title>
<polygon fill="none" stroke="black" points="8,-9 8,-77 95,-77 95,-9 8,-9"/>
<text text-anchor="middle" x="51.5" y="-66.6" font-family="Times,serif" font-size="8.00">word: Tis</text>
<polyline fill="none" stroke="black" points="8,-60 95,-60 "/>
<text text-anchor="middle" x="51.5" y="-49.6" font-family="Times,serif" font-size="8.00">size: 21</text>
<polyline fill="none" stroke="black" points="8,-43 95,-43 "/>
<text text-anchor="middle" x="51.5" y="-32.6" font-family="Times,serif" font-size="8.00">next: 0x600001e697a0</text>
<polyline fill="none" stroke="black" points="8,-26 95,-26 "/>
<text text-anchor="middle" x="51.5" y="-15.6" font-family="Times,serif" font-size="8.00">prev: 0x0</text>
</g>
<!-- Node0x600001e697a0 -->
<g id="node2" class="node">
<title>Node0x600001e697a0</title>
<polygon fill="none" stroke="black" points="131,-9 131,-77 218,-77 218,-9 131,-9"/>
<text text-anchor="middle" x="174.5" y="-66.6" font-family="Times,serif" font-size="8.00">word: disturb</text>
<polyline fill="none" stroke="black" points="131,-60 218,-60 "/>
<text text-anchor="middle" x="174.5" y="-49.6" font-family="Times,serif" font-size="8.00">size: 3</text>
<polyline fill="none" stroke="black" points="131,-43 218,-43 "/>
<text text-anchor="middle" x="174.5" y="-32.6" font-family="Times,serif" font-size="8.00">next: 0x600001e69cb0</text>
<polyline fill="none" stroke="black" points="131,-26 218,-26 "/>
<text text-anchor="middle" x="174.5" y="-15.6" font-family="Times,serif" font-size="8.00">prev: 0x600001e62f10</text>
</g>
<!-- Node0x600001e62f10&#45;&gt;Node0x600001e697a0 -->
<g id="edge1" class="edge">
<title>Node0x600001e62f10:n&#45;&gt;Node0x600001e697a0:n</title>
<path fill="none" stroke="red" d="M95,-34C107,-34 112.25,-34 120.88,-34"/>
<polygon fill="red" stroke="red" points="121,-37.5 131,-34 121,-30.5 121,-37.5"/>
</g>
<!-- Node0x600001e69cb0 -->
<g id="node3" class="node">
<title>Node0x600001e69cb0</title>
<polygon fill="none" stroke="black" points="254,-9 254,-77 342,-77 342,-9 254,-9"/>
<text text-anchor="middle" x="298" y="-66.6" font-family="Times,serif" font-size="8.00">word: Freetown</text>
<polyline fill="none" stroke="black" points="254,-60 342,-60 "/>
<text text-anchor="middle" x="298" y="-49.6" font-family="Times,serif" font-size="8.00">size: 1</text>
<polyline fill="none" stroke="black" points="254,-43 342,-43 "/>
<text text-anchor="middle" x="298" y="-32.6" font-family="Times,serif" font-size="8.00">next: 0x600001e6a640</text>
<polyline fill="none" stroke="black" points="254,-26 342,-26 "/>
<text text-anchor="middle" x="298" y="-15.6" font-family="Times,serif" font-size="8.00">prev: 0x600001e697a0</text>
</g>
<!-- Node0x600001e697a0&#45;&gt;Node0x600001e69cb0 -->
<g id="edge2" class="edge">
<title>Node0x600001e697a0:n&#45;&gt;Node0x600001e69cb0:n</title>
<path fill="none" stroke="red" d="M218,-34C230,-34 235.25,-34 243.88,-34"/>
<polygon fill="red" stroke="red" points="244,-37.5 254,-34 244,-30.5 244,-37.5"/>
</g>
<!-- Node0x600001e6a640 -->
<g id="node4" class="node">
<title>Node0x600001e6a640</title>
<polygon fill="none" stroke="black" points="378,-9 378,-77 466,-77 466,-9 378,-9"/>
<text text-anchor="middle" x="422" y="-66.6" font-family="Times,serif" font-size="8.00">word: Right</text>
<polyline fill="none" stroke="black" points="378,-60 466,-60 "/>
<text text-anchor="middle" x="422" y="-49.6" font-family="Times,serif" font-size="8.00">size: 2</text>
<polyline fill="none" stroke="black" points="378,-43 466,-43 "/>
<text text-anchor="middle" x="422" y="-32.6" font-family="Times,serif" font-size="8.00">next: 0x600001e6d290</text>
<polyline fill="none" stroke="black" points="378,-26 466,-26 "/>
<text text-anchor="middle" x="422" y="-15.6" font-family="Times,serif" font-size="8.00">prev: 0x600001e69cb0</text>
</g>
<!-- Node0x600001e69cb0&#45;&gt;Node0x600001e6a640 -->
<g id="edge3" class="edge">
<title>Node0x600001e69cb0:n&#45;&gt;Node0x600001e6a640:n</title>
<path fill="none" stroke="red" d="M342,-34C354,-34 359.25,-34 367.88,-34"/>
<polygon fill="red" stroke="red" points="368,-37.5 378,-34 368,-30.5 368,-37.5"/>
</g>
<!-- Node0x600001e6d290 -->
<g id="node5" class="node">
<title>Node0x600001e6d290</title>
<polygon fill="none" stroke="black" points="502,-9 502,-77 590,-77 590,-9 502,-9"/>
<text text-anchor="middle" x="546" y="-66.6" font-family="Times,serif" font-size="8.00">word: choking</text>
<polyline fill="none" stroke="black" points="502,-60 590,-60 "/>
<text text-anchor="middle" x="546" y="-49.6" font-family="Times,serif" font-size="8.00">size: 1</text>
<polyline fill="none" stroke="black" points="502,-43 590,-43 "/>
<text text-anchor="middle" x="546" y="-32.6" font-family="Times,serif" font-size="8.00">next: 0x600001e6dcb0</text>
<polyline fill="none" stroke="black" points="502,-26 590,-26 "/>
<text text-anchor="middle" x="546" y="-15.6" font-family="Times,serif" font-size="8.00">prev: 0x600001e6a640</text>
</g>
<!-- Node0x600001e6a640&#45;&gt;Node0x600001e6d290 -->
<g id="edge4" class="edge">
<title>Node0x600001e6a640:n&#45;&gt;Node0x600001e6d290:n</title>
<path fill="none" stroke="red" d="M466,-34C478,-34 483.25,-34 491.88,-34"/>
<polygon fill="red" stroke="red" points="492,-37.5 502,-34 492,-30.5 492,-37.5"/>
</g>
<!-- Node0x600001e6dcb0 -->
<g id="node6" class="node">
<title>Node0x600001e6dcb0</title>
<polygon fill="none" stroke="black" points="626,-9 626,-77 714,-77 714,-9 626,-9"/>
<text text-anchor="middle" x="670" y="-66.6" font-family="Times,serif" font-size="8.00">word: only</text>
<polyline fill="none" stroke="black" points="626,-60 714,-60 "/>
<text text-anchor="middle" x="670" y="-49.6" font-family="Times,serif" font-size="8.00">size: 9</text>
<polyline fill="none" stroke="black" points="626,-43 714,-43 "/>
<text text-anchor="middle" x="670" y="-32.6" font-family="Times,serif" font-size="8.00">next: 0x600001e70330</text>
<polyline fill="none" stroke="black" points="626,-26 714,-26 "/>
<text text-anchor="middle" x="670" y="-15.6" font-family="Times,serif" font-size="8.00">prev: 0x600001e6d290</text>
</g>
<!-- Node0x600001e6d290&#45;&gt;Node0x600001e6dcb0 -->
<g id="edge5" class="edge">
<title>Node0x600001e6d290:n&#45;&gt;Node0x600001e6dcb0:n</title>
<path fill="none" stroke="red" d="M590,-34C602,-34 607.25,-34 615.88,-34"/>
<polygon fill="red" stroke="red" points="616,-37.5 626,-34 616,-30.5 616,-37.5"/>
</g>
<!-- Node0x600001e70330 -->
<g id="node7" class="node">
<title>Node0x600001e70330</title>
<polygon fill="none" stroke="black" points="750,-9 750,-77 838,-77 838,-9 750,-9"/>
<text text-anchor="middle" x="794" y="-66.6" font-family="Times,serif" font-size="8.00">word: leaf</text>
<polyline fill="none" stroke="black" points="750,-60 838,-60 "/>
<text text-anchor="middle" x="794" y="-49.6" font-family="Times,serif" font-size="8.00">size: 1</text>
<polyline fill="none" stroke="black" points="750,-43 838,-43 "/>
<text text-anchor="middle" x="794" y="-32.6" font-family="Times,serif" font-size="8.00">next: 0x600001e74390</text>
<polyline fill="none" stroke="black" points="750,-26 838,-26 "/>
<text text-anchor="middle" x="794" y="-15.6" font-family="Times,serif" font-size="8.00">prev: 0x600001e6dcb0</text>
</g>
<!-- Node0x600001e6dcb0&#45;&gt;Node0x600001e70330 -->
<g id="edge6" class="edge">
<title>Node0x600001e6dcb0:n&#45;&gt;Node0x600001e70330:n</title>
<path fill="none" stroke="red" d="M714,-34C726,-34 731.25,-34 739.88,-34"/>
<polygon fill="red" stroke="red" points="740,-37.5 750,-34 740,-30.5 740,-37.5"/>
</g>
<!-- Node0x600001e74390 -->
<g id="node8" class="node">
<title>Node0x600001e74390</title>
<polygon fill="none" stroke="black" points="874,-9 874,-77 962,-77 962,-9 874,-9"/>
<text text-anchor="middle" x="918" y="-66.6" font-family="Times,serif" font-size="8.00">word: grey</text>
<polyline fill="none" stroke="black" points="874,-60 962,-60 "/>
<text text-anchor="middle" x="918" y="-49.6" font-family="Times,serif" font-size="8.00">size: 3</text>
<polyline fill="none" stroke="black" points="874,-43 962,-43 "/>
<text text-anchor="middle" x="918" y="-32.6" font-family="Times,serif" font-size="8.00">next: 0x600001e773c0</text>
<polyline fill="none" stroke="black" points="874,-26 962,-26 "/>
<text text-anchor="middle" x="918" y="-15.6" font-family="Times,serif" font-size="8.00">prev: 0x600001e70330</text>
</g>
<!-- Node0x600001e70330&#45;&gt;Node0x600001e74390 -->
<g id="edge7" class="edge">
<title>Node0x600001e70330:n&#45;&gt;Node0x600001e74390:n</title>
<path fill="none" stroke="red" d="M838,-34C850,-34 855.25,-34 863.88,-34"/>
<polygon fill="red" stroke="red" points="864,-37.5 874,-34 864,-30.5 864,-37.5"/>
</g>
<!-- Node0x600001e773c0 -->
<g id="node9" class="node">
<title>Node0x600001e773c0</title>
<polygon fill="none" stroke="black" points="998,-9 998,-77 1086,-77 1086,-9 998,-9"/>
<text text-anchor="middle" x="1042" y="-66.6" font-family="Times,serif" font-size="8.00">word: chance</text>
<polyline fill="none" stroke="black" points="998,-60 1086,-60 "/>
<text text-anchor="middle" x="1042" y="-49.6" font-family="Times,serif" font-size="8.00">size: 3</text>
<polyline fill="none" stroke="black" points="998,-43 1086,-43 "/>
<text text-anchor="middle" x="1042" y="-32.6" font-family="Times,serif" font-size="8.00">next: 0x600001e7c0c0</text>
<polyline fill="none" stroke="black" points="998,-26 1086,-26 "/>
<text text-anchor="middle" x="1042" y="-15.6" font-family="Times,serif" font-size="8.00">prev: 0x600001e74390</text>
</g>
<!-- Node0x600001e74390&#45;&gt;Node0x600001e773c0 -->
<g id="edge8" class="edge">
<title>Node0x600001e74390:n&#45;&gt;Node0x600001e773c0:n</title>
<path fill="none" stroke="red" d="M962,-34C974,-34 979.25,-34 987.88,-34"/>
<polygon fill="red" stroke="red" points="988,-37.5 998,-34 988,-30.5 988,-37.5"/>
</g>
<!-- Node0x600001e7c0c0 -->
<g id="node10" class="node">
<title>Node0x600001e7c0c0</title>
<polygon fill="none" stroke="black" points="1122,-9 1122,-77 1210,-77 1210,-9 1122,-9"/>
<text text-anchor="middle" x="1166" y="-66.6" font-family="Times,serif" font-size="8.00">word: purblind</text>
<polyline fill="none" stroke="black" points="1122,-60 1210,-60 "/>
<text text-anchor="middle" x="1166" y="-49.6" font-family="Times,serif" font-size="8.00">size: 1</text>
<polyline fill="none" stroke="black" points="1122,-43 1210,-43 "/>
<text text-anchor="middle" x="1166" y="-32.6" font-family="Times,serif" font-size="8.00">next: 0x600001e7d9b0</text>
<polyline fill="none" stroke="black" points="1122,-26 1210,-26 "/>
<text text-anchor="middle" x="1166" y="-15.6" font-family="Times,serif" font-size="8.00">prev: 0x600001e773c0</text>
</g>
<!-- Node0x600001e773c0&#45;&gt;Node0x600001e7c0c0 -->
<g id="edge9" class="edge">
<title>Node0x600001e773c0:n&#45;&gt;Node0x600001e7c0c0:n</title>
<path fill="none" stroke="red" d="M1086,-34C1098,-34 1103.25,-34 1111.88,-34"/>
<polygon fill="red" stroke="red" points="1112,-37.5 1122,-34 1112,-30.5 1112,-37.5"/>
</g>
<!-- Node0x600001e7d9b0 -->
<g id="node11" class="node">
<title>Node0x600001e7d9b0</title>
<polygon fill="none" stroke="black" points="1246,-9 1246,-77 1334,-77 1334,-9 1246,-9"/>
<text text-anchor="middle" x="1290" y="-66.6" font-family="Times,serif" font-size="8.00">word: erperch</text>
<polyline fill="none" stroke="black" points="1246,-60 1334,-60 "/>
<text text-anchor="middle" x="1290" y="-49.6" font-family="Times,serif" font-size="8.00">size: 1</text>
<polyline fill="none" stroke="black" points="1246,-43 1334,-43 "/>
<text text-anchor="middle" x="1290" y="-32.6" font-family="Times,serif" font-size="8.00">next: 0x600001e7ef70</text>
<polyline fill="none" stroke="black" points="1246,-26 1334,-26 "/>
<text text-anchor="middle" x="1290" y="-15.6" font-family="Times,serif" font-size="8.00">prev: 0x600001e7c0c0</text>
</g>
<!-- Node0x600001e7c0c0&#45;&gt;Node0x600001e7d9b0 -->
<g id="edge10" class="edge">
<title>Node0x600001e7c0c0:n&#45;&gt;Node0x600001e7d9b0:n</title>
<path fill="none" stroke="red" d="M1210,-34C1222,-34 1227.25,-34 1235.88,-34"/>
<polygon fill="red" stroke="red" points="1236,-37.5 1246,-34 1236,-30.5 1236,-37.5"/>
</g>
<!-- Node0x600001e7ef70 -->
<g id="node12" class="node">
<title>Node0x600001e7ef70</title>
<polygon fill="none" stroke="black" points="1370,-9 1370,-77 1458,-77 1458,-9 1370,-9"/>
<text text-anchor="middle" x="1414" y="-66.6" font-family="Times,serif" font-size="8.00">word: falconer</text>
<polyline fill="none" stroke="black" points="1370,-60 1458,-60 "/>
<text text-anchor="middle" x="1414" y="-49.6" font-family="Times,serif" font-size="8.00">size: 1</text>
<polyline fill="none" stroke="black" points="1370,-43 1458,-43 "/>
<text text-anchor="middle" x="1414" y="-32.6" font-family="Times,serif" font-size="8.00">next: 0x600001e7fd80</text>
<polyline fill="none" stroke="black" points="1370,-26 1458,-26 "/>
<text text-anchor="middle" x="1414" y="-15.6" font-family="Times,serif" font-size="8.00">prev: 0x600001e7d9b0</text>
</g>
<!-- Node0x600001e7d9b0&#45;&gt;Node0x600001e7ef70 -->
<g id="edge11" class="edge">
<title>Node0x600001e7d9b0:n&#45;&gt;Node0x600001e7ef70:n</title>
<path fill="none" stroke="red" d="M1334,-34C1346,-34 1351.25,-34 1359.88,-34"/>
<polygon fill="red" stroke="red" points="1360,-37.5 1370,-34 1360,-30.5 1360,-37.5"/>
</g>
<!-- Node0x600001e7fd80 -->
<g id="node13" class="node">
<title>Node0x600001e7fd80</title>
<polygon fill="none" stroke="black" points="1494,-9 1494,-77 1581,-77 1581,-9 1494,-9"/>
<text text-anchor="middle" x="1537.5" y="-66.6" font-family="Times,serif" font-size="8.00">word: sucking</text>
<polyline fill="none" stroke="black" points="1494,-60 1581,-60 "/>
<text text-anchor="middle" x="1537.5" y="-49.6" font-family="Times,serif" font-size="8.00">size: 1</text>
<polyline fill="none" stroke="black" points="1494,-43 1581,-43 "/>
<text text-anchor="middle" x="1537.5" y="-32.6" font-family="Times,serif" font-size="8.00">next: 0x600001e41e60</text>
<polyline fill="none" stroke="black" points="1494,-26 1581,-26 "/>
<text text-anchor="middle" x="1537.5" y="-15.6" font-family="Times,serif" font-size="8.00">prev: 0x600001e7ef70</text>
</g>
<!-- Node0x600001e7ef70&#45;&gt;Node0x600001e7fd80 -->
<g id="edge12" class="edge">
<title>Node0x600001e7ef70:n&#45;&gt;Node0x600001e7fd80:n</title>
<path fill="none" stroke="red" d="M1458,-34C1470,-34 1475.25,-34 1483.88,-34"/>
<polygon fill="red" stroke="red" points="1484,-37.5 1494,-34 1484,-30.5 1484,-37.5"/>
</g>
<!-- Node0x600001e41e60 -->
<g id="node14" class="node">
<title>Node0x600001e41e60</title>
<polygon fill="none" stroke="black" points="1617,-9 1617,-77 1704,-77 1704,-9 1617,-9"/>
<text text-anchor="middle" x="1660.5" y="-66.6" font-family="Times,serif" font-size="8.00">word: roe</text>
<polyline fill="none" stroke="black" points="1617,-60 1704,-60 "/>
<text text-anchor="middle" x="1660.5" y="-49.6" font-family="Times,serif" font-size="8.00">size: 1</text>
<polyline fill="none" stroke="black" points="1617,-43 1704,-43 "/>
<text text-anchor="middle" x="1660.5" y="-32.6" font-family="Times,serif" font-size="8.00">next: 0x600001e426a0</text>
<polyline fill="none" stroke="black" points="1617,-26 1704,-26 "/>
<text text-anchor="middle" x="1660.5" y="-15.6" font-family="Times,serif" font-size="8.00">prev: 0x600001e7fd80</text>
</g>
<!-- Node0x600001e7fd80&#45;&gt;Node0x600001e41e60 -->
<g id="edge13" class="edge">
<title>Node0x600001e7fd80:n&#45;&gt;Node0x600001e41e60:n</title>
<path fill="none" stroke="red" d="M1581,-34C1593,-34 1598.25,-34 1606.88,-34"/>
<polygon fill="red" stroke="red" points="1607,-37.5 1617,-34 1607,-30.5 1607,-37.5"/>
</g>
<!-- Node0x600001e426a0 -->
<g id="node15" class="node">
<title>Node0x600001e426a0</title>
<polygon fill="none" stroke="black" points="1740,-9 1740,-77 1828,-77 1828,-9 1740,-9"/>
<text text-anchor="middle" x="1784" y="-66.6" font-family="Times,serif" font-size="8.00">word: remain</text>
<polyline fill="none" stroke="black" points="1740,-60 1828,-60 "/>
<text text-anchor="middle" x="1784" y="-49.6" font-family="Times,serif" font-size="8.00">size: 2</text>
<polyline fill="none" stroke="black" points="1740,-43 1828,-43 "/>
<text text-anchor="middle" x="1784" y="-32.6" font-family="Times,serif" font-size="8.00">next: 0x600001e449f0</text>
<polyline fill="none" stroke="black" points="1740,-26 1828,-26 "/>
<text text-anchor="middle" x="1784" y="-15.6" font-family="Times,serif" font-size="8.00">prev: 0x600001e41e60</text>
</g>
<!-- Node0x600001e41e60&#45;&gt;Node0x600001e426a0 -->
<g id="edge14" class="edge">
<title>Node0x600001e41e60:n&#45;&gt;Node0x600001e426a0:n</title>
<path fill="none" stroke="red" d="M1704,-34C1716,-34 1721.25,-34 1729.88,-34"/>
<polygon fill="red" stroke="red" points="1730,-37.5 1740,-34 1730,-30.5 1730,-37.5"/>
</g>
<!-- Node0x600001e449f0 -->
<g id="node16" class="node">
<title>Node0x600001e449f0</title>
<polygon fill="none" stroke="black" points="1864,-9 1864,-77 1952,-77 1952,-9 1864,-9"/>
<text text-anchor="middle" x="1908" y="-66.6" font-family="Times,serif" font-size="8.00">word: merrily</text>
<polyline fill="none" stroke="black" points="1864,-60 1952,-60 "/>
<text text-anchor="middle" x="1908" y="-49.6" font-family="Times,serif" font-size="8.00">size: 1</text>
<polyline fill="none" stroke="black" points="1864,-43 1952,-43 "/>
<text text-anchor="middle" x="1908" y="-32.6" font-family="Times,serif" font-size="8.00">next: 0x600001e45020</text>
<polyline fill="none" stroke="black" points="1864,-26 1952,-26 "/>
<text text-anchor="middle" x="1908" y="-15.6" font-family="Times,serif" font-size="8.00">prev: 0x600001e426a0</text>
</g>
<!-- Node0x600001e426a0&#45;&gt;Node0x600001e449f0 -->
<g id="edge15" class="edge">
<title>Node0x600001e426a0:n&#45;&gt;Node0x600001e449f0:n</title>
<path fill="none" stroke="red" d="M1828,-34C1840,-34 1845.25,-34 1853.88,-34"/>
<polygon fill="red" stroke="red" points="1854,-37.5 1864,-34 1854,-30.5 1854,-37.5"/>
</g>
<!-- Node0x600001e45020 -->
<g id="node17" class="node">
<title>Node0x600001e45020</title>
<polygon fill="none" stroke="black" points="1988,-9 1988,-77 2075,-77 2075,-9 1988,-9"/>
<text text-anchor="middle" x="2031.5" y="-66.6" font-family="Times,serif" font-size="8.00">word: got</text>
<polyline fill="none" stroke="black" points="1988,-60 2075,-60 "/>
<text text-anchor="middle" x="2031.5" y="-49.6" font-family="Times,serif" font-size="8.00">size: 3</text>
<polyline fill="none" stroke="black" points="1988,-43 2075,-43 "/>
<text text-anchor="middle" x="2031.5" y="-32.6" font-family="Times,serif" font-size="8.00">next: 0x600001e474b0</text>
<polyline fill="none" stroke="black" points="1988,-26 2075,-26 "/>
<text text-anchor="middle" x="2031.5" y="-15.6" font-family="Times,serif" font-size="8.00">prev: 0x600001e449f0</text>
</g>
<!-- Node0x600001e449f0&#45;&gt;Node0x600001e45020 -->
<g id="edge16" class="edge">
<title>Node0x600001e449f0:n&#45;&gt;Node0x600001e45020:n</title>
<path fill="none" stroke="red" d="M1952,-34C1964,-34 1969.25,-34 1977.88,-34"/>
<polygon fill="red" stroke="red" points="1978,-37.5 1988,-34 1978,-30.5 1978,-37.5"/>
</g>
<!-- Node0x600001e474b0 -->
<g id="node18" class="node">
<title>Node0x600001e474b0</title>
<polygon fill="none" stroke="black" points="2111,-9 2111,-77 2199,-77 2199,-9 2111,-9"/>
<text text-anchor="middle" x="2155" y="-66.6" font-family="Times,serif" font-size="8.00">word: Citizen</text>
<polyline fill="none" stroke="black" points="2111,-60 2199,-60 "/>
<text text-anchor="middle" x="2155" y="-49.6" font-family="Times,serif" font-size="8.00">size: 2</text>
<polyline fill="none" stroke="black" points="2111,-43 2199,-43 "/>
<text text-anchor="middle" x="2155" y="-32.6" font-family="Times,serif" font-size="8.00">next: 0x600001e481b0</text>
<polyline fill="none" stroke="black" points="2111,-26 2199,-26 "/>
<text text-anchor="middle" x="2155" y="-15.6" font-family="Times,serif" font-size="8.00">prev: 0x600001e45020</text>
</g>
<!-- Node0x600001e45020&#45;&gt;Node0x600001e474b0 -->
<g id="edge17" class="edge">
<title>Node0x600001e45020:n&#45;&gt;Node0x600001e474b0:n</title>
<path fill="none" stroke="red" d="M2075,-34C2087,-34 2092.25,-34 2100.88,-34"/>
<polygon fill="red" stroke="red" points="2101,-37.5 2111,-34 2101,-30.5 2101,-37.5"/>
</g>
<!-- Node0x600001e481b0 -->
<g id="node19" class="node">
<title>Node0x600001e481b0</title>
<polygon fill="none" stroke="black" points="2235,-9 2235,-77 2323,-77 2323,-9 2235,-9"/>
<text text-anchor="middle" x="2279" y="-66.6" font-family="Times,serif" font-size="8.00">word: Phoebus</text>
<polyline fill="none" stroke="black" points="2235,-60 2323,-60 "/>
<text text-anchor="middle" x="2279" y="-49.6" font-family="Times,serif" font-size="8.00">size: 1</text>
<polyline fill="none" stroke="black" points="2235,-43 2323,-43 "/>
<text text-anchor="middle" x="2279" y="-32.6" font-family="Times,serif" font-size="8.00">next: 0x600001e48d20</text>
<polyline fill="none" stroke="black" points="2235,-26 2323,-26 "/>
<text text-anchor="middle" x="2279" y="-15.6" font-family="Times,serif" font-size="8.00">prev: 0x600001e474b0</text>
</g>
<!-- Node0x600001e474b0&#45;&gt;Node0x600001e481b0 -->
<g id="edge18" class="edge">
<title>Node0x600001e474b0:n&#45;&gt;Node0x600001e481b0:n</title>
<path fill="none" stroke="red" d="M2199,-34C2211,-34 2216.25,-34 2224.88,-34"/>
<polygon fill="red" stroke="red" points="2225,-37.5 2235,-34 2225,-30.5 2225,-37.5"/>
</g>
<!-- Node0x600001e48d20 -->
<g id="node20" class="node">
<title>Node0x600001e48d20</title>
<polygon fill="none" stroke="black" points="2359,-9 2359,-77 2447,-77 2447,-9 2359,-9"/>
<text text-anchor="middle" x="2403" y="-66.6" font-family="Times,serif" font-size="8.00">word: Brief</text>
<polyline fill="none" stroke="black" points="2359,-60 2447,-60 "/>
<text text-anchor="middle" x="2403" y="-49.6" font-family="Times,serif" font-size="8.00">size: 1</text>
<polyline fill="none" stroke="black" points="2359,-43 2447,-43 "/>
<text text-anchor="middle" x="2403" y="-32.6" font-family="Times,serif" font-size="8.00">next: 0x600001e49d40</text>
<polyline fill="none" stroke="black" points="2359,-26 2447,-26 "/>
<text text-anchor="middle" x="2403" y="-15.6" font-family="Times,serif" font-size="8.00">prev: 0x600001e481b0</text>
</g>
<!-- Node0x600001e481b0&#45;&gt;Node0x600001e48d20 -->
<g id="edge19" class="edge">
<title>Node0x600001e481b0:n&#45;&gt;Node0x600001e48d20:n</title>
<path fill="none" stroke="red" d="M2323,-34C2335,-34 2340.25,-34 2348.88,-34"/>
<polygon fill="red" stroke="red" points="2349,-37.5 2359,-34 2349,-30.5 2349,-37.5"/>
</g>
<!-- Node0x600001e49d40 -->
<g id="node21" class="node">
<title>Node0x600001e49d40</title>
<polygon fill="none" stroke="black" points="2483,-9 2483,-77 2571,-77 2571,-9 2483,-9"/>
<text text-anchor="middle" x="2527" y="-66.6" font-family="Times,serif" font-size="8.00">word: wailing</text>
<polyline fill="none" stroke="black" points="2483,-60 2571,-60 "/>
<text text-anchor="middle" x="2527" y="-49.6" font-family="Times,serif" font-size="8.00">size: 1</text>
<polyline fill="none" stroke="black" points="2483,-43 2571,-43 "/>
<text text-anchor="middle" x="2527" y="-32.6" font-family="Times,serif" font-size="8.00">next: 0x600001e4aac0</text>
<polyline fill="none" stroke="black" points="2483,-26 2571,-26 "/>
<text text-anchor="middle" x="2527" y="-15.6" font-family="Times,serif" font-size="8.00">prev: 0x600001e48d20</text>
</g>
<!-- Node0x600001e48d20&#45;&gt;Node0x600001e49d40 -->
<g id="edge20" class="edge">
<title>Node0x600001e48d20:n&#45;&gt;Node0x600001e49d40:n</title>
<path fill="none" stroke="red" d="M2447,-34C2459,-34 2464.25,-34 2472.88,-34"/>
<polygon fill="red" stroke="red" points="2473,-37.5 2483,-34 2473,-30.5 2473,-37.5"/>
</g>
<!-- Node0x600001e4aac0 -->
<g id="node22" class="node">
<title>Node0x600001e4aac0</title>
<polygon fill="none" stroke="black" points="2607,-9 2607,-77 2695,-77 2695,-9 2607,-9"/>
<text text-anchor="middle" x="2651" y="-66.6" font-family="Times,serif" font-size="8.00">word: cursed</text>
<polyline fill="none" stroke="black" points="2607,-60 2695,-60 "/>
<text text-anchor="middle" x="2651" y="-49.6" font-family="Times,serif" font-size="8.00">size: 2</text>
<polyline fill="none" stroke="black" points="2607,-43 2695,-43 "/>
<text text-anchor="middle" x="2651" y="-32.6" font-family="Times,serif" font-size="8.00">next: 0x600001e4b630</text>
<polyline fill="none" stroke="black" points="2607,-26 2695,-26 "/>
<text text-anchor="middle" x="2651" y="-15.6" font-family="Times,serif" font-size="8.00">prev: 0x600001e49d40</text>
</g>
<!-- Node0x600001e49d40&#45;&gt;Node0x600001e4aac0 -->
<g id="edge21" class="edge">
<title>Node0x600001e49d40:n&#45;&gt;Node0x600001e4aac0:n</title>
<path fill="none" stroke="red" d="M2571,-34C2583,-34 2588.25,-34 2596.88,-34"/>
<polygon fill="red" stroke="red" points="2597,-37.5 2607,-34 2597,-30.5 2597,-37.5"/>
</g>
<!-- Node0x600001e4b630 -->
<g id="node23" class="node">
<title>Node0x600001e4b630</title>
<polygon fill="none" stroke="black" points="2731,-9 2731,-77 2819,-77 2819,-9 2731,-9"/>
<text text-anchor="middle" x="2775" y="-66.6" font-family="Times,serif" font-size="8.00">word: unluckily</text>
<polyline fill="none" stroke="black" points="2731,-60 2819,-60 "/>
<text text-anchor="middle" x="2775" y="-49.6" font-family="Times,serif" font-size="8.00">size: 1</text>
<polyline fill="none" stroke="black" points="2731,-43 2819,-43 "/>
<text text-anchor="middle" x="2775" y="-32.6" font-family="Times,serif" font-size="8.00">next: 0x600001e4c540</text>
<polyline fill="none" stroke="black" points="2731,-26 2819,-26 "/>
<text text-anchor="middle" x="2775" y="-15.6" font-family="Times,serif" font-size="8.00">prev: 0x600001e4aac0</text>
</g>
<!-- Node0x600001e4aac0&#45;&gt;Node0x600001e4b630 -->
<g id="edge22" class="edge">
<title>Node0x600001e4aac0:n&#45;&gt;Node0x600001e4b630:n</title>
<path fill="none" stroke="red" d="M2695,-34C2707,-34 2712.25,-34 2720.88,-34"/>
<polygon fill="red" stroke="red" points="2721,-37.5 2731,-34 2721,-30.5 2721,-37.5"/>
</g>
<!-- Node0x600001e4c540 -->
<g id="node24" class="node">
<title>Node0x600001e4c540</title>
<polygon fill="none" stroke="black" points="2855,-9 2855,-77 2943,-77 2943,-9 2855,-9"/>
<text text-anchor="middle" x="2899" y="-66.6" font-family="Times,serif" font-size="8.00">word: Ho</text>
<polyline fill="none" stroke="black" points="2855,-60 2943,-60 "/>
<text text-anchor="middle" x="2899" y="-49.6" font-family="Times,serif" font-size="8.00">size: 1</text>
<polyline fill="none" stroke="black" points="2855,-43 2943,-43 "/>
<text text-anchor="middle" x="2899" y="-32.6" font-family="Times,serif" font-size="8.00">next: 0x600001e71da0</text>
<polyline fill="none" stroke="black" points="2855,-26 2943,-26 "/>
<text text-anchor="middle" x="2899" y="-15.6" font-family="Times,serif" font-size="8.00">prev: 0x600001e4b630</text>
</g>
<!-- Node0x600001e4b630&#45;&gt;Node0x600001e4c540 -->
<g id="edge23" class="edge">
<title>Node0x600001e4b630:n&#45;&gt;Node0x600001e4c540:n</title>
<path fill="none" stroke="red" d="M2819,-34C2831,-34 2836.25,-34 2844.88,-34"/>
<polygon fill="red" stroke="red" points="2845,-37.5 2855,-34 2845,-30.5 2845,-37.5"/>
</g>
<!-- Node0x600001e71da0 -->
<g id="node25" class="node">
<title>Node0x600001e71da0</title>
<polygon fill="none" stroke="black" points="2979,-9 2979,-77 3067,-77 3067,-9 2979,-9"/>
<text text-anchor="middle" x="3023" y="-66.6" font-family="Times,serif" font-size="8.00">word: Proud</text>
<polyline fill="none" stroke="black" points="2979,-60 3067,-60 "/>
<text text-anchor="middle" x="3023" y="-49.6" font-family="Times,serif" font-size="8.00">size: 2</text>
<polyline fill="none" stroke="black" points="2979,-43 3067,-43 "/>
<text text-anchor="middle" x="3023" y="-32.6" font-family="Times,serif" font-size="8.00">next: 0x600001e7a0a0</text>
<polyline fill="none" stroke="black" points="2979,-26 3067,-26 "/>
<text text-anchor="middle" x="3023" y="-15.6" font-family="Times,serif" font-size="8.00">prev: 0x600001e4c540</text>
</g>
<!-- Node0x600001e4c540&#45;&gt;Node0x600001e71da0 -->
<g id="edge24" class="edge">
<title>Node0x600001e4c540:n&#45;&gt;Node0x600001e71da0:n</title>
<path fill="none" stroke="red" d="M2943,-34C2955,-34 2960.25,-34 2968.88,-34"/>
<polygon fill="red" stroke="red" points="2969,-37.5 2979,-34 2969,-30.5 2969,-37.5"/>
</g>
<!-- Node0x600001e7a0a0 -->
<g id="node26" class="node">
<title>Node0x600001e7a0a0</title>
<polygon fill="none" stroke="black" points="3103,-9 3103,-77 3191,-77 3191,-9 3103,-9"/>
<text text-anchor="middle" x="3147" y="-66.6" font-family="Times,serif" font-size="8.00">word: harlotry</text>
<polyline fill="none" stroke="black" points="3103,-60 3191,-60 "/>
<text text-anchor="middle" x="3147" y="-49.6" font-family="Times,serif" font-size="8.00">size: 1</text>
<polyline fill="none" stroke="black" points="3103,-43 3191,-43 "/>
<text text-anchor="middle" x="3147" y="-32.6" font-family="Times,serif" font-size="8.00">next: 0x600001e72c70</text>
<polyline fill="none" stroke="black" points="3103,-26 3191,-26 "/>
<text text-anchor="middle" x="3147" y="-15.6" font-family="Times,serif" font-size="8.00">prev: 0x600001e71da0</text>
</g>
<!-- Node0x600001e71da0&#45;&gt;Node0x600001e7a0a0 -->
<g id="edge25" class="edge">
<title>Node0x600001e71da0:n&#45;&gt;Node0x600001e7a0a0:n</title>
<path fill="none" stroke="red" d="M3067,-34C3079,-34 3084.25,-34 3092.88,-34"/>
<polygon fill="red" stroke="red" points="3093,-37.5 3103,-34 3093,-30.5 3093,-37.5"/>
</g>
<!-- Node0x600001e72c70 -->
<g id="node27" class="node">
<title>Node0x600001e72c70</title>
<polygon fill="none" stroke="black" points="3227,-9 3227,-77 3315,-77 3315,-9 3227,-9"/>
<text text-anchor="middle" x="3271" y="-66.6" font-family="Times,serif" font-size="8.00">word: merriment</text>
<polyline fill="none" stroke="black" points="3227,-60 3315,-60 "/>
<text text-anchor="middle" x="3271" y="-49.6" font-family="Times,serif" font-size="8.00">size: 1</text>
<polyline fill="none" stroke="black" points="3227,-43 3315,-43 "/>
<text text-anchor="middle" x="3271" y="-32.6" font-family="Times,serif" font-size="8.00">next: 0x600001e50000</text>
<polyline fill="none" stroke="black" points="3227,-26 3315,-26 "/>
<text text-anchor="middle" x="3271" y="-15.6" font-family="Times,serif" font-size="8.00">prev: 0x600001e7a0a0</text>
</g>
<!-- Node0x600001e7a0a0&#45;&gt;Node0x600001e72c70 -->
<g id="edge26" class="edge">
<title>Node0x600001e7a0a0:n&#45;&gt;Node0x600001e72c70:n</title>
<path fill="none" stroke="red" d="M3191,-34C3203,-34 3208.25,-34 3216.88,-34"/>
<polygon fill="red" stroke="red" points="3217,-37.5 3227,-34 3217,-30.5 3217,-37.5"/>
</g>
<!-- Node0x600001e50000 -->
<g id="node28" class="node">
<title>Node0x600001e50000</title>
<polygon fill="none" stroke="black" points="3351,-9 3351,-77 3439,-77 3439,-9 3351,-9"/>
<text text-anchor="middle" x="3395" y="-66.6" font-family="Times,serif" font-size="8.00">word: thinly</text>
<polyline fill="none" stroke="black" points="3351,-60 3439,-60 "/>
<text text-anchor="middle" x="3395" y="-49.6" font-family="Times,serif" font-size="8.00">size: 1</text>
<polyline fill="none" stroke="black" points="3351,-43 3439,-43 "/>
<text text-anchor="middle" x="3395" y="-32.6" font-family="Times,serif" font-size="8.00">next: 0x600001e55c20</text>
<polyline fill="none" stroke="black" points="3351,-26 3439,-26 "/>
<text text-anchor="middle" x="3395" y="-15.6" font-family="Times,serif" font-size="8.00">prev: 0x600001e72c70</text>
</g>
<!-- Node0x600001e72c70&#45;&gt;Node0x600001e50000 -->
<g id="edge27" class="edge">
<title>Node0x600001e72c70:n&#45;&gt;Node0x600001e50000:n</title>
<path fill="none" stroke="red" d="M3315,-34C3327,-34 3332.25,-34 3340.88,-34"/>
<polygon fill="red" stroke="red" points="3341,-37.5 3351,-34 3341,-30.5 3341,-37.5"/>
</g>
<!-- Node0x600001e55c20 -->
<g id="node29" class="node">
<title>Node0x600001e55c20</title>
<polygon fill="none" stroke="black" points="3475,-9 3475,-77 3563,-77 3563,-9 3475,-9"/>
<text text-anchor="middle" x="3519" y="-66.6" font-family="Times,serif" font-size="8.00">word: missheathed</text>
<polyline fill="none" stroke="black" points="3475,-60 3563,-60 "/>
<text text-anchor="middle" x="3519" y="-49.6" font-family="Times,serif" font-size="8.00">size: 1</text>
<polyline fill="none" stroke="black" points="3475,-43 3563,-43 "/>
<text text-anchor="middle" x="3519" y="-32.6" font-family="Times,serif" font-size="8.00">next: 0x600001e55ce0</text>
<polyline fill="none" stroke="black" points="3475,-26 3563,-26 "/>
<text text-anchor="middle" x="3519" y="-15.6" font-family="Times,serif" font-size="8.00">prev: 0x600001e50000</text>
</g>
<!-- Node0x600001e50000&#45;&gt;Node0x600001e55c20 -->
<g id="edge28" class="edge">
<title>Node0x600001e50000:n&#45;&gt;Node0x600001e55c20:n</title>
<path fill="none" stroke="red" d="M3439,-34C3451,-34 3456.25,-34 3464.88,-34"/>
<polygon fill="red" stroke="red" points="3465,-37.5 3475,-34 3465,-30.5 3465,-37.5"/>
</g>
<!-- Node0x600001e55ce0 -->
<g id="node30" class="node">
<title>Node0x600001e55ce0</title>
<polygon fill="none" stroke="black" points="3599,-9 3599,-77 3687,-77 3687,-9 3599,-9"/>
<text text-anchor="middle" x="3643" y="-66.6" font-family="Times,serif" font-size="8.00">word: tonight</text>
<polyline fill="none" stroke="black" points="3599,-60 3687,-60 "/>
<text text-anchor="middle" x="3643" y="-49.6" font-family="Times,serif" font-size="8.00">size: 1</text>
<polyline fill="none" stroke="black" points="3599,-43 3687,-43 "/>
<text text-anchor="middle" x="3643" y="-32.6" font-family="Times,serif" font-size="8.00">next: 0x600001e56010</text>
<polyline fill="none" stroke="black" points="3599,-26 3687,-26 "/>
<text text-anchor="middle" x="3643" y="-15.6" font-family="Times,serif" font-size="8.00">prev: 0x600001e55c20</text>
</g>
<!-- Node0x600001e55c20&#45;&gt;Node0x600001e55ce0 -->
<g id="edge29" class="edge">
<title>Node0x600001e55c20:n&#45;&gt;Node0x600001e55ce0:n</title>
<path fill="none" stroke="red" d="M3563,-34C3575,-34 3580.25,-34 3588.88,-34"/>
<polygon fill="red" stroke="red" points="3589,-37.5 3599,-34 3589,-30.5 3589,-37.5"/>
</g>
<!-- Node0x600001e56010 -->
<g id="node31" class="node">
<title>Node0x600001e56010</title>
<polygon fill="none" stroke="black" points="3723,-9 3723,-77 3811,-77 3811,-9 3723,-9"/>
<text text-anchor="middle" x="3767" y="-66.6" font-family="Times,serif" font-size="8.00">word: purge</text>
<polyline fill="none" stroke="black" points="3723,-60 3811,-60 "/>
<text text-anchor="middle" x="3767" y="-49.6" font-family="Times,serif" font-size="8.00">size: 1</text>
<polyline fill="none" stroke="black" points="3723,-43 3811,-43 "/>
<text text-anchor="middle" x="3767" y="-32.6" font-family="Times,serif" font-size="8.00">next: 0x600001e562e0</text>
<polyline fill="none" stroke="black" points="3723,-26 3811,-26 "/>
<text text-anchor="middle" x="3767" y="-15.6" font-family="Times,serif" font-size="8.00">prev: 0x600001e55ce0</text>
</g>
<!-- Node0x600001e55ce0&#45;&gt;Node0x600001e56010 -->
<g id="edge30" class="edge">
<title>Node0x600001e55ce0:n&#45;&gt;Node0x600001e56010:n</title>
<path fill="none" stroke="red" d="M3687,-34C3699,-34 3704.25,-34 3712.88,-34"/>
<polygon fill="red" stroke="red" points="3713,-37.5 3723,-34 3713,-30.5 3713,-37.5"/>
</g>
<!-- Node0x600001e562e0 -->
<g id="node32" class="node">
<title>Node0x600001e562e0</title>
<polygon fill="none" stroke="black" points="3847,-9 3847,-77 3935,-77 3935,-9 3847,-9"/>
<text text-anchor="middle" x="3891" y="-66.6" font-family="Times,serif" font-size="8.00">word: prefixed</text>
<polyline fill="none" stroke="black" points="3847,-60 3935,-60 "/>
<text text-anchor="middle" x="3891" y="-49.6" font-family="Times,serif" font-size="8.00">size: 1</text>
<polyline fill="none" stroke="black" points="3847,-43 3935,-43 "/>
<text text-anchor="middle" x="3891" y="-32.6" font-family="Times,serif" font-size="8.00">next: 0x0</text>
<polyline fill="none" stroke="black" points="3847,-26 3935,-26 "/>
<text text-anchor="middle" x="3891" y="-15.6" font-family="Times,serif" font-size="8.00">prev: 0x600001e56010</text>
</g>
<!-- Node0x600001e56010&#45;&gt;Node0x600001e562e0 -->
<g id="edge31" class="edge">
<title>Node0x600001e56010:n&#45;&gt;Node0x600001e562e0:n</title>
<path fill="none" stroke="red" d="M3811,-34C3823,-34 3828.25,-34 3836.88,-34"/>
<polygon fill="red" stroke="red" points="3837,-37.5 3847,-34 3837,-30.5 3837,-37.5"/>
</g>
</g>
</svg>
