<?xml version="1.0" encoding="UTF-8" standalone="no"?>
<!DOCTYPE svg PUBLIC "-//W3C//DTD SVG 1.1//EN"
 "http://www.w3.org/Graphics/SVG/1.1/DTD/svg11.dtd">
<!-- Generated by graphviz version 2.50.0 (20211204.2007)
 -->
<!-- Title: G Pages: 1 -->
<svg width="4198pt" height="117pt"
 viewBox="0.00 0.00 4198.00 117.00" xmlns="http://www.w3.org/2000/svg" xmlns:xlink="http://www.w3.org/1999/xlink">
<g id="graph0" class="graph" transform="scale(1 1) rotate(0) translate(4 113)">
<title>G</title>
<polygon fill="white" stroke="transparent" points="-4,4 -4,-113 4194,-113 4194,4 -4,4"/>
<g id="clust3" class="cluster">
<title>cluster2885</title>
<polygon fill="none" stroke="black" points="254,-8 254,-101 341,-101 341,-8 254,-8"/>
<text text-anchor="middle" x="297.5" y="-85.8" font-family="Times,serif" font-size="14.00">2885</text>
</g>
<g id="clust4" class="cluster">
<title>cluster2886</title>
<polygon fill="none" stroke="black" points="377,-8 377,-101 465,-101 465,-8 377,-8"/>
<text text-anchor="middle" x="421" y="-85.8" font-family="Times,serif" font-size="14.00">2886</text>
</g>
<g id="clust5" class="cluster">
<title>cluster2887</title>
<polygon fill="none" stroke="black" points="501,-8 501,-101 588,-101 588,-8 501,-8"/>
<text text-anchor="middle" x="544.5" y="-85.8" font-family="Times,serif" font-size="14.00">2887</text>
</g>
<g id="clust6" class="cluster">
<title>cluster2888</title>
<polygon fill="none" stroke="black" points="624,-8 624,-101 712,-101 712,-8 624,-8"/>
<text text-anchor="middle" x="668" y="-85.8" font-family="Times,serif" font-size="14.00">2888</text>
</g>
<g id="clust7" class="cluster">
<title>cluster2889</title>
<polygon fill="none" stroke="black" points="748,-8 748,-101 836,-101 836,-8 748,-8"/>
<text text-anchor="middle" x="792" y="-85.8" font-family="Times,serif" font-size="14.00">2889</text>
</g>
<g id="clust8" class="cluster">
<title>cluster2890</title>
<polygon fill="none" stroke="black" points="872,-8 872,-101 960,-101 960,-8 872,-8"/>
<text text-anchor="middle" x="916" y="-85.8" font-family="Times,serif" font-size="14.00">2890</text>
</g>
<g id="clust9" class="cluster">
<title>cluster2891</title>
<polygon fill="none" stroke="black" points="996,-8 996,-101 1084,-101 1084,-8 996,-8"/>
<text text-anchor="middle" x="1040" y="-85.8" font-family="Times,serif" font-size="14.00">2891</text>
</g>
<g id="clust10" class="cluster">
<title>cluster2892</title>
<polygon fill="none" stroke="black" points="1120,-8 1120,-101 1208,-101 1208,-8 1120,-8"/>
<text text-anchor="middle" x="1164" y="-85.8" font-family="Times,serif" font-size="14.00">2892</text>
</g>
<g id="clust11" class="cluster">
<title>cluster2893</title>
<polygon fill="none" stroke="black" points="1244,-8 1244,-101 1332,-101 1332,-8 1244,-8"/>
<text text-anchor="middle" x="1288" y="-85.8" font-family="Times,serif" font-size="14.00">2893</text>
</g>
<g id="clust12" class="cluster">
<title>cluster2894</title>
<polygon fill="none" stroke="black" points="1368,-8 1368,-101 1456,-101 1456,-8 1368,-8"/>
<text text-anchor="middle" x="1412" y="-85.8" font-family="Times,serif" font-size="14.00">2894</text>
</g>
<g id="clust13" class="cluster">
<title>cluster2895</title>
<polygon fill="none" stroke="black" points="1492,-8 1492,-101 1580,-101 1580,-8 1492,-8"/>
<text text-anchor="middle" x="1536" y="-85.8" font-family="Times,serif" font-size="14.00">2895</text>
</g>
<g id="clust14" class="cluster">
<title>cluster2896</title>
<polygon fill="none" stroke="black" points="1616,-8 1616,-101 1704,-101 1704,-8 1616,-8"/>
<text text-anchor="middle" x="1660" y="-85.8" font-family="Times,serif" font-size="14.00">2896</text>
</g>
<g id="clust15" class="cluster">
<title>cluster2897</title>
<polygon fill="none" stroke="black" points="1740,-8 1740,-101 1828,-101 1828,-8 1740,-8"/>
<text text-anchor="middle" x="1784" y="-85.8" font-family="Times,serif" font-size="14.00">2897</text>
</g>
<g id="clust16" class="cluster">
<title>cluster2898</title>
<polygon fill="none" stroke="black" points="1864,-8 1864,-101 1952,-101 1952,-8 1864,-8"/>
<text text-anchor="middle" x="1908" y="-85.8" font-family="Times,serif" font-size="14.00">2898</text>
</g>
<g id="clust17" class="cluster">
<title>cluster2899</title>
<polygon fill="none" stroke="black" points="1988,-8 1988,-101 2075,-101 2075,-8 1988,-8"/>
<text text-anchor="middle" x="2031.5" y="-85.8" font-family="Times,serif" font-size="14.00">2899</text>
</g>
<g id="clust18" class="cluster">
<title>cluster2900</title>
<polygon fill="none" stroke="black" points="2111,-8 2111,-101 2198,-101 2198,-8 2111,-8"/>
<text text-anchor="middle" x="2154.5" y="-85.8" font-family="Times,serif" font-size="14.00">2900</text>
</g>
<g id="clust19" class="cluster">
<title>cluster2901</title>
<polygon fill="none" stroke="black" points="2234,-8 2234,-101 2322,-101 2322,-8 2234,-8"/>
<text text-anchor="middle" x="2278" y="-85.8" font-family="Times,serif" font-size="14.00">2901</text>
</g>
<g id="clust20" class="cluster">
<title>cluster2902</title>
<polygon fill="none" stroke="black" points="2358,-8 2358,-101 2446,-101 2446,-8 2358,-8"/>
<text text-anchor="middle" x="2402" y="-85.8" font-family="Times,serif" font-size="14.00">2902</text>
</g>
<g id="clust21" class="cluster">
<title>cluster2903</title>
<polygon fill="none" stroke="black" points="2482,-8 2482,-101 2570,-101 2570,-8 2482,-8"/>
<text text-anchor="middle" x="2526" y="-85.8" font-family="Times,serif" font-size="14.00">2903</text>
</g>
<g id="clust22" class="cluster">
<title>cluster2904</title>
<polygon fill="none" stroke="black" points="2606,-8 2606,-101 2694,-101 2694,-8 2606,-8"/>
<text text-anchor="middle" x="2650" y="-85.8" font-family="Times,serif" font-size="14.00">2904</text>
</g>
<g id="clust23" class="cluster">
<title>cluster2905</title>
<polygon fill="none" stroke="black" points="2730,-8 2730,-101 2818,-101 2818,-8 2730,-8"/>
<text text-anchor="middle" x="2774" y="-85.8" font-family="Times,serif" font-size="14.00">2905</text>
</g>
<g id="clust24" class="cluster">
<title>cluster2906</title>
<polygon fill="none" stroke="black" points="2854,-8 2854,-101 2942,-101 2942,-8 2854,-8"/>
<text text-anchor="middle" x="2898" y="-85.8" font-family="Times,serif" font-size="14.00">2906</text>
</g>
<g id="clust25" class="cluster">
<title>cluster2907</title>
<polygon fill="none" stroke="black" points="2978,-8 2978,-101 3066,-101 3066,-8 2978,-8"/>
<text text-anchor="middle" x="3022" y="-85.8" font-family="Times,serif" font-size="14.00">2907</text>
</g>
<g id="clust26" class="cluster">
<title>cluster2908</title>
<polygon fill="none" stroke="black" points="3102,-8 3102,-101 3190,-101 3190,-8 3102,-8"/>
<text text-anchor="middle" x="3146" y="-85.8" font-family="Times,serif" font-size="14.00">2908</text>
</g>
<g id="clust27" class="cluster">
<title>cluster2909</title>
<polygon fill="none" stroke="black" points="3226,-8 3226,-101 3314,-101 3314,-8 3226,-8"/>
<text text-anchor="middle" x="3270" y="-85.8" font-family="Times,serif" font-size="14.00">2909</text>
</g>
<g id="clust28" class="cluster">
<title>cluster2910</title>
<polygon fill="none" stroke="black" points="3350,-8 3350,-101 3438,-101 3438,-8 3350,-8"/>
<text text-anchor="middle" x="3394" y="-85.8" font-family="Times,serif" font-size="14.00">2910</text>
</g>
<g id="clust29" class="cluster">
<title>cluster2911</title>
<polygon fill="none" stroke="black" points="3474,-8 3474,-101 3562,-101 3562,-8 3474,-8"/>
<text text-anchor="middle" x="3518" y="-85.8" font-family="Times,serif" font-size="14.00">2911</text>
</g>
<g id="clust30" class="cluster">
<title>cluster2912</title>
<polygon fill="none" stroke="black" points="3598,-8 3598,-101 3686,-101 3686,-8 3598,-8"/>
<text text-anchor="middle" x="3642" y="-85.8" font-family="Times,serif" font-size="14.00">2912</text>
</g>
<g id="clust31" class="cluster">
<title>cluster2913</title>
<polygon fill="none" stroke="black" points="3722,-8 3722,-101 3810,-101 3810,-8 3722,-8"/>
<text text-anchor="middle" x="3766" y="-85.8" font-family="Times,serif" font-size="14.00">2913</text>
</g>
<g id="clust32" class="cluster">
<title>cluster2914</title>
<polygon fill="none" stroke="black" points="3846,-8 3846,-101 3934,-101 3934,-8 3846,-8"/>
<text text-anchor="middle" x="3890" y="-85.8" font-family="Times,serif" font-size="14.00">2914</text>
</g>
<g id="clust33" class="cluster">
<title>cluster2915</title>
<polygon fill="none" stroke="black" points="3970,-8 3970,-101 4058,-101 4058,-8 3970,-8"/>
<text text-anchor="middle" x="4014" y="-85.8" font-family="Times,serif" font-size="14.00">2915</text>
</g>
<g id="clust34" class="cluster">
<title>cluster2916</title>
<polygon fill="none" stroke="black" points="4094,-8 4094,-101 4182,-101 4182,-8 4094,-8"/>
<text text-anchor="middle" x="4138" y="-85.8" font-family="Times,serif" font-size="14.00">2916</text>
</g>
<g id="clust1" class="cluster">
<title>cluster2883</title>
<polygon fill="none" stroke="black" points="8,-8 8,-101 94,-101 94,-8 8,-8"/>
<text text-anchor="middle" x="51" y="-85.8" font-family="Times,serif" font-size="14.00">2883</text>
</g>
<g id="clust2" class="cluster">
<title>cluster2884</title>
<polygon fill="none" stroke="black" points="130,-8 130,-101 218,-101 218,-8 130,-8"/>
<text text-anchor="middle" x="174" y="-85.8" font-family="Times,serif" font-size="14.00">2884</text>
</g>
<!-- Node0x600001e60d20 -->
<g id="node1" class="node">
<title>Node0x600001e60d20</title>
<polygon fill="none" stroke="black" points="8,-9 8,-77 94,-77 94,-9 8,-9"/>
<text text-anchor="middle" x="51" y="-66.6" font-family="Times,serif" font-size="8.00">word: THREE</text>
<polyline fill="none" stroke="black" points="8,-60 94,-60 "/>
<text text-anchor="middle" x="51" y="-49.6" font-family="Times,serif" font-size="8.00">size: 1</text>
<polyline fill="none" stroke="black" points="8,-43 94,-43 "/>
<text text-anchor="middle" x="51" y="-32.6" font-family="Times,serif" font-size="8.00">next: 0x600001e615f0</text>
<polyline fill="none" stroke="black" points="8,-26 94,-26 "/>
<text text-anchor="middle" x="51" y="-15.6" font-family="Times,serif" font-size="8.00">prev: 0x0</text>
</g>
<!-- Node0x600001e615f0 -->
<g id="node2" class="node">
<title>Node0x600001e615f0</title>
<polygon fill="none" stroke="black" points="130,-9 130,-77 218,-77 218,-9 130,-9"/>
<text text-anchor="middle" x="174" y="-66.6" font-family="Times,serif" font-size="8.00">word: From</text>
<polyline fill="none" stroke="black" points="130,-60 218,-60 "/>
<text text-anchor="middle" x="174" y="-49.6" font-family="Times,serif" font-size="8.00">size: 6</text>
<polyline fill="none" stroke="black" points="130,-43 218,-43 "/>
<text text-anchor="middle" x="174" y="-32.6" font-family="Times,serif" font-size="8.00">next: 0x600001e63ba0</text>
<polyline fill="none" stroke="black" points="130,-26 218,-26 "/>
<text text-anchor="middle" x="174" y="-15.6" font-family="Times,serif" font-size="8.00">prev: 0x600001e60d20</text>
</g>
<!-- Node0x600001e60d20&#45;&gt;Node0x600001e615f0 -->
<g id="edge1" class="edge">
<title>Node0x600001e60d20:n&#45;&gt;Node0x600001e615f0:n</title>
<path fill="none" stroke="red" d="M94,-34C106,-34 111.25,-34 119.88,-34"/>
<polygon fill="red" stroke="red" points="120,-37.5 130,-34 120,-30.5 120,-37.5"/>
</g>
<!-- Node0x600001e63ba0 -->
<g id="node3" class="node">
<title>Node0x600001e63ba0</title>
<polygon fill="none" stroke="black" points="254,-9 254,-77 341,-77 341,-9 254,-9"/>
<text text-anchor="middle" x="297.5" y="-66.6" font-family="Times,serif" font-size="8.00">word: How</text>
<polyline fill="none" stroke="black" points="254,-60 341,-60 "/>
<text text-anchor="middle" x="297.5" y="-49.6" font-family="Times,serif" font-size="8.00">size: 30</text>
<polyline fill="none" stroke="black" points="254,-43 341,-43 "/>
<text text-anchor="middle" x="297.5" y="-32.6" font-family="Times,serif" font-size="8.00">next: 0x600001e680f0</text>
<polyline fill="none" stroke="black" points="254,-26 341,-26 "/>
<text text-anchor="middle" x="297.5" y="-15.6" font-family="Times,serif" font-size="8.00">prev: 0x600001e615f0</text>
</g>
<!-- Node0x600001e615f0&#45;&gt;Node0x600001e63ba0 -->
<g id="edge2" class="edge">
<title>Node0x600001e615f0:n&#45;&gt;Node0x600001e63ba0:n</title>
<path fill="none" stroke="red" d="M218,-34C230,-34 235.25,-34 243.88,-34"/>
<polygon fill="red" stroke="red" points="244,-37.5 254,-34 244,-30.5 244,-37.5"/>
</g>
<!-- Node0x600001e680f0 -->
<g id="node4" class="node">
<title>Node0x600001e680f0</title>
<polygon fill="none" stroke="black" points="377,-9 377,-77 465,-77 465,-9 377,-9"/>
<text text-anchor="middle" x="421" y="-66.6" font-family="Times,serif" font-size="8.00">word: good</text>
<polyline fill="none" stroke="black" points="377,-60 465,-60 "/>
<text text-anchor="middle" x="421" y="-49.6" font-family="Times,serif" font-size="8.00">size: 62</text>
<polyline fill="none" stroke="black" points="377,-43 465,-43 "/>
<text text-anchor="middle" x="421" y="-32.6" font-family="Times,serif" font-size="8.00">next: 0x600001e69080</text>
<polyline fill="none" stroke="black" points="377,-26 465,-26 "/>
<text text-anchor="middle" x="421" y="-15.6" font-family="Times,serif" font-size="8.00">prev: 0x600001e63ba0</text>
</g>
<!-- Node0x600001e63ba0&#45;&gt;Node0x600001e680f0 -->
<g id="edge3" class="edge">
<title>Node0x600001e63ba0:n&#45;&gt;Node0x600001e680f0:n</title>
<path fill="none" stroke="red" d="M341,-34C353,-34 358.25,-34 366.88,-34"/>
<polygon fill="red" stroke="red" points="367,-37.5 377,-34 367,-30.5 367,-37.5"/>
</g>
<!-- Node0x600001e69080 -->
<g id="node5" class="node">
<title>Node0x600001e69080</title>
<polygon fill="none" stroke="black" points="501,-9 501,-77 588,-77 588,-9 501,-9"/>
<text text-anchor="middle" x="544.5" y="-66.6" font-family="Times,serif" font-size="8.00">word: foot</text>
<polyline fill="none" stroke="black" points="501,-60 588,-60 "/>
<text text-anchor="middle" x="544.5" y="-49.6" font-family="Times,serif" font-size="8.00">size: 9</text>
<polyline fill="none" stroke="black" points="501,-43 588,-43 "/>
<text text-anchor="middle" x="544.5" y="-32.6" font-family="Times,serif" font-size="8.00">next: 0x600001e694d0</text>
<polyline fill="none" stroke="black" points="501,-26 588,-26 "/>
<text text-anchor="middle" x="544.5" y="-15.6" font-family="Times,serif" font-size="8.00">prev: 0x600001e680f0</text>
</g>
<!-- Node0x600001e680f0&#45;&gt;Node0x600001e69080 -->
<g id="edge4" class="edge">
<title>Node0x600001e680f0:n&#45;&gt;Node0x600001e69080:n</title>
<path fill="none" stroke="red" d="M465,-34C477,-34 482.25,-34 490.88,-34"/>
<polygon fill="red" stroke="red" points="491,-37.5 501,-34 491,-30.5 491,-37.5"/>
</g>
<!-- Node0x600001e694d0 -->
<g id="node6" class="node">
<title>Node0x600001e694d0</title>
<polygon fill="none" stroke="black" points="624,-9 624,-77 712,-77 712,-9 624,-9"/>
<text text-anchor="middle" x="668" y="-66.6" font-family="Times,serif" font-size="8.00">word: pain</text>
<polyline fill="none" stroke="black" points="624,-60 712,-60 "/>
<text text-anchor="middle" x="668" y="-49.6" font-family="Times,serif" font-size="8.00">size: 3</text>
<polyline fill="none" stroke="black" points="624,-43 712,-43 "/>
<text text-anchor="middle" x="668" y="-32.6" font-family="Times,serif" font-size="8.00">next: 0x600001e6a2b0</text>
<polyline fill="none" stroke="black" points="624,-26 712,-26 "/>
<text text-anchor="middle" x="668" y="-15.6" font-family="Times,serif" font-size="8.00">prev: 0x600001e69080</text>
</g>
<!-- Node0x600001e69080&#45;&gt;Node0x600001e694d0 -->
<g id="edge5" class="edge">
<title>Node0x600001e69080:n&#45;&gt;Node0x600001e694d0:n</title>
<path fill="none" stroke="red" d="M588,-34C600,-34 605.25,-34 613.88,-34"/>
<polygon fill="red" stroke="red" points="614,-37.5 624,-34 614,-30.5 614,-37.5"/>
</g>
<!-- Node0x600001e6a2b0 -->
<g id="node7" class="node">
<title>Node0x600001e6a2b0</title>
<polygon fill="none" stroke="black" points="748,-9 748,-77 836,-77 836,-9 748,-9"/>
<text text-anchor="middle" x="792" y="-66.6" font-family="Times,serif" font-size="8.00">word: about</text>
<polyline fill="none" stroke="black" points="748,-60 836,-60 "/>
<text text-anchor="middle" x="792" y="-49.6" font-family="Times,serif" font-size="8.00">size: 12</text>
<polyline fill="none" stroke="black" points="748,-43 836,-43 "/>
<text text-anchor="middle" x="792" y="-32.6" font-family="Times,serif" font-size="8.00">next: 0x600001e6b330</text>
<polyline fill="none" stroke="black" points="748,-26 836,-26 "/>
<text text-anchor="middle" x="792" y="-15.6" font-family="Times,serif" font-size="8.00">prev: 0x600001e694d0</text>
</g>
<!-- Node0x600001e694d0&#45;&gt;Node0x600001e6a2b0 -->
<g id="edge6" class="edge">
<title>Node0x600001e694d0:n&#45;&gt;Node0x600001e6a2b0:n</title>
<path fill="none" stroke="red" d="M712,-34C724,-34 729.25,-34 737.88,-34"/>
<polygon fill="red" stroke="red" points="738,-37.5 748,-34 738,-30.5 738,-37.5"/>
</g>
<!-- Node0x600001e6b330 -->
<g id="node8" class="node">
<title>Node0x600001e6b330</title>
<polygon fill="none" stroke="black" points="872,-9 872,-77 960,-77 960,-9 872,-9"/>
<text text-anchor="middle" x="916" y="-66.6" font-family="Times,serif" font-size="8.00">word: bean</text>
<polyline fill="none" stroke="black" points="872,-60 960,-60 "/>
<text text-anchor="middle" x="916" y="-49.6" font-family="Times,serif" font-size="8.00">size: 1</text>
<polyline fill="none" stroke="black" points="872,-43 960,-43 "/>
<text text-anchor="middle" x="916" y="-32.6" font-family="Times,serif" font-size="8.00">next: 0x600001e6cc90</text>
<polyline fill="none" stroke="black" points="872,-26 960,-26 "/>
<text text-anchor="middle" x="916" y="-15.6" font-family="Times,serif" font-size="8.00">prev: 0x600001e6a2b0</text>
</g>
<!-- Node0x600001e6a2b0&#45;&gt;Node0x600001e6b330 -->
<g id="edge7" class="edge">
<title>Node0x600001e6a2b0:n&#45;&gt;Node0x600001e6b330:n</title>
<path fill="none" stroke="red" d="M836,-34C848,-34 853.25,-34 861.88,-34"/>
<polygon fill="red" stroke="red" points="862,-37.5 872,-34 862,-30.5 862,-37.5"/>
</g>
<!-- Node0x600001e6cc90 -->
<g id="node9" class="node">
<title>Node0x600001e6cc90</title>
<polygon fill="none" stroke="black" points="996,-9 996,-77 1084,-77 1084,-9 996,-9"/>
<text text-anchor="middle" x="1040" y="-66.6" font-family="Times,serif" font-size="8.00">word: no</text>
<polyline fill="none" stroke="black" points="996,-60 1084,-60 "/>
<text text-anchor="middle" x="1040" y="-49.6" font-family="Times,serif" font-size="8.00">size: 73</text>
<polyline fill="none" stroke="black" points="996,-43 1084,-43 "/>
<text text-anchor="middle" x="1040" y="-32.6" font-family="Times,serif" font-size="8.00">next: 0x600001e701e0</text>
<polyline fill="none" stroke="black" points="996,-26 1084,-26 "/>
<text text-anchor="middle" x="1040" y="-15.6" font-family="Times,serif" font-size="8.00">prev: 0x600001e6b330</text>
</g>
<!-- Node0x600001e6b330&#45;&gt;Node0x600001e6cc90 -->
<g id="edge8" class="edge">
<title>Node0x600001e6b330:n&#45;&gt;Node0x600001e6cc90:n</title>
<path fill="none" stroke="red" d="M960,-34C972,-34 977.25,-34 985.88,-34"/>
<polygon fill="red" stroke="red" points="986,-37.5 996,-34 986,-30.5 986,-37.5"/>
</g>
<!-- Node0x600001e701e0 -->
<g id="node10" class="node">
<title>Node0x600001e701e0</title>
<polygon fill="none" stroke="black" points="1120,-9 1120,-77 1208,-77 1208,-9 1120,-9"/>
<text text-anchor="middle" x="1164" y="-66.6" font-family="Times,serif" font-size="8.00">word: cures</text>
<polyline fill="none" stroke="black" points="1120,-60 1208,-60 "/>
<text text-anchor="middle" x="1164" y="-49.6" font-family="Times,serif" font-size="8.00">size: 1</text>
<polyline fill="none" stroke="black" points="1120,-43 1208,-43 "/>
<text text-anchor="middle" x="1164" y="-32.6" font-family="Times,serif" font-size="8.00">next: 0x600001e66760</text>
<polyline fill="none" stroke="black" points="1120,-26 1208,-26 "/>
<text text-anchor="middle" x="1164" y="-15.6" font-family="Times,serif" font-size="8.00">prev: 0x600001e6cc90</text>
</g>
<!-- Node0x600001e6cc90&#45;&gt;Node0x600001e701e0 -->
<g id="edge9" class="edge">
<title>Node0x600001e6cc90:n&#45;&gt;Node0x600001e701e0:n</title>
<path fill="none" stroke="red" d="M1084,-34C1096,-34 1101.25,-34 1109.88,-34"/>
<polygon fill="red" stroke="red" points="1110,-37.5 1120,-34 1110,-30.5 1110,-37.5"/>
</g>
<!-- Node0x600001e66760 -->
<g id="node11" class="node">
<title>Node0x600001e66760</title>
<polygon fill="none" stroke="black" points="1244,-9 1244,-77 1332,-77 1332,-9 1244,-9"/>
<text text-anchor="middle" x="1288" y="-66.6" font-family="Times,serif" font-size="8.00">word: pantry</text>
<polyline fill="none" stroke="black" points="1244,-60 1332,-60 "/>
<text text-anchor="middle" x="1288" y="-49.6" font-family="Times,serif" font-size="8.00">size: 1</text>
<polyline fill="none" stroke="black" points="1244,-43 1332,-43 "/>
<text text-anchor="middle" x="1288" y="-32.6" font-family="Times,serif" font-size="8.00">next: 0x600001e75410</text>
<polyline fill="none" stroke="black" points="1244,-26 1332,-26 "/>
<text text-anchor="middle" x="1288" y="-15.6" font-family="Times,serif" font-size="8.00">prev: 0x600001e701e0</text>
</g>
<!-- Node0x600001e701e0&#45;&gt;Node0x600001e66760 -->
<g id="edge10" class="edge">
<title>Node0x600001e701e0:n&#45;&gt;Node0x600001e66760:n</title>
<path fill="none" stroke="red" d="M1208,-34C1220,-34 1225.25,-34 1233.88,-34"/>
<polygon fill="red" stroke="red" points="1234,-37.5 1244,-34 1234,-30.5 1234,-37.5"/>
</g>
<!-- Node0x600001e75410 -->
<g id="node12" class="node">
<title>Node0x600001e75410</title>
<polygon fill="none" stroke="black" points="1368,-9 1368,-77 1456,-77 1456,-9 1368,-9"/>
<text text-anchor="middle" x="1412" y="-66.6" font-family="Times,serif" font-size="8.00">word: Begot</text>
<polyline fill="none" stroke="black" points="1368,-60 1456,-60 "/>
<text text-anchor="middle" x="1412" y="-49.6" font-family="Times,serif" font-size="8.00">size: 1</text>
<polyline fill="none" stroke="black" points="1368,-43 1456,-43 "/>
<text text-anchor="middle" x="1412" y="-32.6" font-family="Times,serif" font-size="8.00">next: 0x600001e75d70</text>
<polyline fill="none" stroke="black" points="1368,-26 1456,-26 "/>
<text text-anchor="middle" x="1412" y="-15.6" font-family="Times,serif" font-size="8.00">prev: 0x600001e66760</text>
</g>
<!-- Node0x600001e66760&#45;&gt;Node0x600001e75410 -->
<g id="edge11" class="edge">
<title>Node0x600001e66760:n&#45;&gt;Node0x600001e75410:n</title>
<path fill="none" stroke="red" d="M1332,-34C1344,-34 1349.25,-34 1357.88,-34"/>
<polygon fill="red" stroke="red" points="1358,-37.5 1368,-34 1358,-30.5 1358,-37.5"/>
</g>
<!-- Node0x600001e75d70 -->
<g id="node13" class="node">
<title>Node0x600001e75d70</title>
<polygon fill="none" stroke="black" points="1492,-9 1492,-77 1580,-77 1580,-9 1492,-9"/>
<text text-anchor="middle" x="1536" y="-66.6" font-family="Times,serif" font-size="8.00">word: boy</text>
<polyline fill="none" stroke="black" points="1492,-60 1580,-60 "/>
<text text-anchor="middle" x="1536" y="-49.6" font-family="Times,serif" font-size="8.00">size: 11</text>
<polyline fill="none" stroke="black" points="1492,-43 1580,-43 "/>
<text text-anchor="middle" x="1536" y="-32.6" font-family="Times,serif" font-size="8.00">next: 0x600001e77d50</text>
<polyline fill="none" stroke="black" points="1492,-26 1580,-26 "/>
<text text-anchor="middle" x="1536" y="-15.6" font-family="Times,serif" font-size="8.00">prev: 0x600001e75410</text>
</g>
<!-- Node0x600001e75410&#45;&gt;Node0x600001e75d70 -->
<g id="edge12" class="edge">
<title>Node0x600001e75410:n&#45;&gt;Node0x600001e75d70:n</title>
<path fill="none" stroke="red" d="M1456,-34C1468,-34 1473.25,-34 1481.88,-34"/>
<polygon fill="red" stroke="red" points="1482,-37.5 1492,-34 1482,-30.5 1482,-37.5"/>
</g>
<!-- Node0x600001e77d50 -->
<g id="node14" class="node">
<title>Node0x600001e77d50</title>
<polygon fill="none" stroke="black" points="1616,-9 1616,-77 1704,-77 1704,-9 1616,-9"/>
<text text-anchor="middle" x="1660" y="-66.6" font-family="Times,serif" font-size="8.00">word: banquet</text>
<polyline fill="none" stroke="black" points="1616,-60 1704,-60 "/>
<text text-anchor="middle" x="1660" y="-49.6" font-family="Times,serif" font-size="8.00">size: 1</text>
<polyline fill="none" stroke="black" points="1616,-43 1704,-43 "/>
<text text-anchor="middle" x="1660" y="-32.6" font-family="Times,serif" font-size="8.00">next: 0x600001e7e430</text>
<polyline fill="none" stroke="black" points="1616,-26 1704,-26 "/>
<text text-anchor="middle" x="1660" y="-15.6" font-family="Times,serif" font-size="8.00">prev: 0x600001e75d70</text>
</g>
<!-- Node0x600001e75d70&#45;&gt;Node0x600001e77d50 -->
<g id="edge13" class="edge">
<title>Node0x600001e75d70:n&#45;&gt;Node0x600001e77d50:n</title>
<path fill="none" stroke="red" d="M1580,-34C1592,-34 1597.25,-34 1605.88,-34"/>
<polygon fill="red" stroke="red" points="1606,-37.5 1616,-34 1606,-30.5 1606,-37.5"/>
</g>
<!-- Node0x600001e7e430 -->
<g id="node15" class="node">
<title>Node0x600001e7e430</title>
<polygon fill="none" stroke="black" points="1740,-9 1740,-77 1828,-77 1828,-9 1740,-9"/>
<text text-anchor="middle" x="1784" y="-66.6" font-family="Times,serif" font-size="8.00">word: circled</text>
<polyline fill="none" stroke="black" points="1740,-60 1828,-60 "/>
<text text-anchor="middle" x="1784" y="-49.6" font-family="Times,serif" font-size="8.00">size: 1</text>
<polyline fill="none" stroke="black" points="1740,-43 1828,-43 "/>
<text text-anchor="middle" x="1784" y="-32.6" font-family="Times,serif" font-size="8.00">next: 0x600001e7e4f0</text>
<polyline fill="none" stroke="black" points="1740,-26 1828,-26 "/>
<text text-anchor="middle" x="1784" y="-15.6" font-family="Times,serif" font-size="8.00">prev: 0x600001e77d50</text>
</g>
<!-- Node0x600001e77d50&#45;&gt;Node0x600001e7e430 -->
<g id="edge14" class="edge">
<title>Node0x600001e77d50:n&#45;&gt;Node0x600001e7e430:n</title>
<path fill="none" stroke="red" d="M1704,-34C1716,-34 1721.25,-34 1729.88,-34"/>
<polygon fill="red" stroke="red" points="1730,-37.5 1740,-34 1730,-30.5 1730,-37.5"/>
</g>
<!-- Node0x600001e7e4f0 -->
<g id="node16" class="node">
<title>Node0x600001e7e4f0</title>
<polygon fill="none" stroke="black" points="1864,-9 1864,-77 1952,-77 1952,-9 1864,-9"/>
<text text-anchor="middle" x="1908" y="-66.6" font-family="Times,serif" font-size="8.00">word: variable</text>
<polyline fill="none" stroke="black" points="1864,-60 1952,-60 "/>
<text text-anchor="middle" x="1908" y="-49.6" font-family="Times,serif" font-size="8.00">size: 1</text>
<polyline fill="none" stroke="black" points="1864,-43 1952,-43 "/>
<text text-anchor="middle" x="1908" y="-32.6" font-family="Times,serif" font-size="8.00">next: 0x600001e7f720</text>
<polyline fill="none" stroke="black" points="1864,-26 1952,-26 "/>
<text text-anchor="middle" x="1908" y="-15.6" font-family="Times,serif" font-size="8.00">prev: 0x600001e7e430</text>
</g>
<!-- Node0x600001e7e430&#45;&gt;Node0x600001e7e4f0 -->
<g id="edge15" class="edge">
<title>Node0x600001e7e430:n&#45;&gt;Node0x600001e7e4f0:n</title>
<path fill="none" stroke="red" d="M1828,-34C1840,-34 1845.25,-34 1853.88,-34"/>
<polygon fill="red" stroke="red" points="1854,-37.5 1864,-34 1854,-30.5 1854,-37.5"/>
</g>
<!-- Node0x600001e7f720 -->
<g id="node17" class="node">
<title>Node0x600001e7f720</title>
<polygon fill="none" stroke="black" points="1988,-9 1988,-77 2075,-77 2075,-9 1988,-9"/>
<text text-anchor="middle" x="2031.5" y="-66.6" font-family="Times,serif" font-size="8.00">word: basket</text>
<polyline fill="none" stroke="black" points="1988,-60 2075,-60 "/>
<text text-anchor="middle" x="2031.5" y="-49.6" font-family="Times,serif" font-size="8.00">size: 1</text>
<polyline fill="none" stroke="black" points="1988,-43 2075,-43 "/>
<text text-anchor="middle" x="2031.5" y="-32.6" font-family="Times,serif" font-size="8.00">next: 0x600001e40150</text>
<polyline fill="none" stroke="black" points="1988,-26 2075,-26 "/>
<text text-anchor="middle" x="2031.5" y="-15.6" font-family="Times,serif" font-size="8.00">prev: 0x600001e7e4f0</text>
</g>
<!-- Node0x600001e7e4f0&#45;&gt;Node0x600001e7f720 -->
<g id="edge16" class="edge">
<title>Node0x600001e7e4f0:n&#45;&gt;Node0x600001e7f720:n</title>
<path fill="none" stroke="red" d="M1952,-34C1964,-34 1969.25,-34 1977.88,-34"/>
<polygon fill="red" stroke="red" points="1978,-37.5 1988,-34 1978,-30.5 1978,-37.5"/>
</g>
<!-- Node0x600001e40150 -->
<g id="node18" class="node">
<title>Node0x600001e40150</title>
<polygon fill="none" stroke="black" points="2111,-9 2111,-77 2198,-77 2198,-9 2111,-9"/>
<text text-anchor="middle" x="2154.5" y="-66.6" font-family="Times,serif" font-size="8.00">word: misapplied</text>
<polyline fill="none" stroke="black" points="2111,-60 2198,-60 "/>
<text text-anchor="middle" x="2154.5" y="-49.6" font-family="Times,serif" font-size="8.00">size: 1</text>
<polyline fill="none" stroke="black" points="2111,-43 2198,-43 "/>
<text text-anchor="middle" x="2154.5" y="-32.6" font-family="Times,serif" font-size="8.00">next: 0x600001e44360</text>
<polyline fill="none" stroke="black" points="2111,-26 2198,-26 "/>
<text text-anchor="middle" x="2154.5" y="-15.6" font-family="Times,serif" font-size="8.00">prev: 0x600001e7f720</text>
</g>
<!-- Node0x600001e7f720&#45;&gt;Node0x600001e40150 -->
<g id="edge17" class="edge">
<title>Node0x600001e7f720:n&#45;&gt;Node0x600001e40150:n</title>
<path fill="none" stroke="red" d="M2075,-34C2087,-34 2092.25,-34 2100.88,-34"/>
<polygon fill="red" stroke="red" points="2101,-37.5 2111,-34 2101,-30.5 2101,-37.5"/>
</g>
<!-- Node0x600001e44360 -->
<g id="node19" class="node">
<title>Node0x600001e44360</title>
<polygon fill="none" stroke="black" points="2234,-9 2234,-77 2322,-77 2322,-9 2234,-9"/>
<text text-anchor="middle" x="2278" y="-66.6" font-family="Times,serif" font-size="8.00">word: sententious</text>
<polyline fill="none" stroke="black" points="2234,-60 2322,-60 "/>
<text text-anchor="middle" x="2278" y="-49.6" font-family="Times,serif" font-size="8.00">size: 1</text>
<polyline fill="none" stroke="black" points="2234,-43 2322,-43 "/>
<text text-anchor="middle" x="2278" y="-32.6" font-family="Times,serif" font-size="8.00">next: 0x600001e455c0</text>
<polyline fill="none" stroke="black" points="2234,-26 2322,-26 "/>
<text text-anchor="middle" x="2278" y="-15.6" font-family="Times,serif" font-size="8.00">prev: 0x600001e40150</text>
</g>
<!-- Node0x600001e40150&#45;&gt;Node0x600001e44360 -->
<g id="edge18" class="edge">
<title>Node0x600001e40150:n&#45;&gt;Node0x600001e44360:n</title>
<path fill="none" stroke="red" d="M2198,-34C2210,-34 2215.25,-34 2223.88,-34"/>
<polygon fill="red" stroke="red" points="2224,-37.5 2234,-34 2224,-30.5 2224,-37.5"/>
</g>
<!-- Node0x600001e455c0 -->
<g id="node20" class="node">
<title>Node0x600001e455c0</title>
<polygon fill="none" stroke="black" points="2358,-9 2358,-77 2446,-77 2446,-9 2358,-9"/>
<text text-anchor="middle" x="2402" y="-66.6" font-family="Times,serif" font-size="8.00">word: tardy</text>
<polyline fill="none" stroke="black" points="2358,-60 2446,-60 "/>
<text text-anchor="middle" x="2402" y="-49.6" font-family="Times,serif" font-size="8.00">size: 1</text>
<polyline fill="none" stroke="black" points="2358,-43 2446,-43 "/>
<text text-anchor="middle" x="2402" y="-32.6" font-family="Times,serif" font-size="8.00">next: 0x600001e46520</text>
<polyline fill="none" stroke="black" points="2358,-26 2446,-26 "/>
<text text-anchor="middle" x="2402" y="-15.6" font-family="Times,serif" font-size="8.00">prev: 0x600001e44360</text>
</g>
<!-- Node0x600001e44360&#45;&gt;Node0x600001e455c0 -->
<g id="edge19" class="edge">
<title>Node0x600001e44360:n&#45;&gt;Node0x600001e455c0:n</title>
<path fill="none" stroke="red" d="M2322,-34C2334,-34 2339.25,-34 2347.88,-34"/>
<polygon fill="red" stroke="red" points="2348,-37.5 2358,-34 2348,-30.5 2348,-37.5"/>
</g>
<!-- Node0x600001e46520 -->
<g id="node21" class="node">
<title>Node0x600001e46520</title>
<polygon fill="none" stroke="black" points="2482,-9 2482,-77 2570,-77 2570,-9 2482,-9"/>
<text text-anchor="middle" x="2526" y="-66.6" font-family="Times,serif" font-size="8.00">word: coldly</text>
<polyline fill="none" stroke="black" points="2482,-60 2570,-60 "/>
<text text-anchor="middle" x="2526" y="-49.6" font-family="Times,serif" font-size="8.00">size: 1</text>
<polyline fill="none" stroke="black" points="2482,-43 2570,-43 "/>
<text text-anchor="middle" x="2526" y="-32.6" font-family="Times,serif" font-size="8.00">next: 0x600001e47300</text>
<polyline fill="none" stroke="black" points="2482,-26 2570,-26 "/>
<text text-anchor="middle" x="2526" y="-15.6" font-family="Times,serif" font-size="8.00">prev: 0x600001e455c0</text>
</g>
<!-- Node0x600001e455c0&#45;&gt;Node0x600001e46520 -->
<g id="edge20" class="edge">
<title>Node0x600001e455c0:n&#45;&gt;Node0x600001e46520:n</title>
<path fill="none" stroke="red" d="M2446,-34C2458,-34 2463.25,-34 2471.88,-34"/>
<polygon fill="red" stroke="red" points="2472,-37.5 2482,-34 2472,-30.5 2472,-37.5"/>
</g>
<!-- Node0x600001e47300 -->
<g id="node22" class="node">
<title>Node0x600001e47300</title>
<polygon fill="none" stroke="black" points="2606,-9 2606,-77 2694,-77 2694,-9 2606,-9"/>
<text text-anchor="middle" x="2650" y="-66.6" font-family="Times,serif" font-size="8.00">word: Staying</text>
<polyline fill="none" stroke="black" points="2606,-60 2694,-60 "/>
<text text-anchor="middle" x="2650" y="-49.6" font-family="Times,serif" font-size="8.00">size: 1</text>
<polyline fill="none" stroke="black" points="2606,-43 2694,-43 "/>
<text text-anchor="middle" x="2650" y="-32.6" font-family="Times,serif" font-size="8.00">next: 0x600001e48060</text>
<polyline fill="none" stroke="black" points="2606,-26 2694,-26 "/>
<text text-anchor="middle" x="2650" y="-15.6" font-family="Times,serif" font-size="8.00">prev: 0x600001e46520</text>
</g>
<!-- Node0x600001e46520&#45;&gt;Node0x600001e47300 -->
<g id="edge21" class="edge">
<title>Node0x600001e46520:n&#45;&gt;Node0x600001e47300:n</title>
<path fill="none" stroke="red" d="M2570,-34C2582,-34 2587.25,-34 2595.88,-34"/>
<polygon fill="red" stroke="red" points="2596,-37.5 2606,-34 2596,-30.5 2596,-37.5"/>
</g>
<!-- Node0x600001e48060 -->
<g id="node23" class="node">
<title>Node0x600001e48060</title>
<polygon fill="none" stroke="black" points="2730,-9 2730,-77 2818,-77 2818,-9 2730,-9"/>
<text text-anchor="middle" x="2774" y="-66.6" font-family="Times,serif" font-size="8.00">word: Bear</text>
<polyline fill="none" stroke="black" points="2730,-60 2818,-60 "/>
<text text-anchor="middle" x="2774" y="-49.6" font-family="Times,serif" font-size="8.00">size: 1</text>
<polyline fill="none" stroke="black" points="2730,-43 2818,-43 "/>
<text text-anchor="middle" x="2774" y="-32.6" font-family="Times,serif" font-size="8.00">next: 0x600001e715c0</text>
<polyline fill="none" stroke="black" points="2730,-26 2818,-26 "/>
<text text-anchor="middle" x="2774" y="-15.6" font-family="Times,serif" font-size="8.00">prev: 0x600001e47300</text>
</g>
<!-- Node0x600001e47300&#45;&gt;Node0x600001e48060 -->
<g id="edge22" class="edge">
<title>Node0x600001e47300:n&#45;&gt;Node0x600001e48060:n</title>
<path fill="none" stroke="red" d="M2694,-34C2706,-34 2711.25,-34 2719.88,-34"/>
<polygon fill="red" stroke="red" points="2720,-37.5 2730,-34 2720,-30.5 2720,-37.5"/>
</g>
<!-- Node0x600001e715c0 -->
<g id="node24" class="node">
<title>Node0x600001e715c0</title>
<polygon fill="none" stroke="black" points="2854,-9 2854,-77 2942,-77 2942,-9 2854,-9"/>
<text text-anchor="middle" x="2898" y="-66.6" font-family="Times,serif" font-size="8.00">word: prevails</text>
<polyline fill="none" stroke="black" points="2854,-60 2942,-60 "/>
<text text-anchor="middle" x="2898" y="-49.6" font-family="Times,serif" font-size="8.00">size: 1</text>
<polyline fill="none" stroke="black" points="2854,-43 2942,-43 "/>
<text text-anchor="middle" x="2898" y="-32.6" font-family="Times,serif" font-size="8.00">next: 0x600001e4b000</text>
<polyline fill="none" stroke="black" points="2854,-26 2942,-26 "/>
<text text-anchor="middle" x="2898" y="-15.6" font-family="Times,serif" font-size="8.00">prev: 0x600001e48060</text>
</g>
<!-- Node0x600001e48060&#45;&gt;Node0x600001e715c0 -->
<g id="edge23" class="edge">
<title>Node0x600001e48060:n&#45;&gt;Node0x600001e715c0:n</title>
<path fill="none" stroke="red" d="M2818,-34C2830,-34 2835.25,-34 2843.88,-34"/>
<polygon fill="red" stroke="red" points="2844,-37.5 2854,-34 2844,-30.5 2844,-37.5"/>
</g>
<!-- Node0x600001e4b000 -->
<g id="node25" class="node">
<title>Node0x600001e4b000</title>
<polygon fill="none" stroke="black" points="2978,-9 2978,-77 3066,-77 3066,-9 2978,-9"/>
<text text-anchor="middle" x="3022" y="-66.6" font-family="Times,serif" font-size="8.00">word: dismemb</text>
<polyline fill="none" stroke="black" points="2978,-60 3066,-60 "/>
<text text-anchor="middle" x="3022" y="-49.6" font-family="Times,serif" font-size="8.00">size: 1</text>
<polyline fill="none" stroke="black" points="2978,-43 3066,-43 "/>
<text text-anchor="middle" x="3022" y="-32.6" font-family="Times,serif" font-size="8.00">next: 0x600001e722e0</text>
<polyline fill="none" stroke="black" points="2978,-26 3066,-26 "/>
<text text-anchor="middle" x="3022" y="-15.6" font-family="Times,serif" font-size="8.00">prev: 0x600001e715c0</text>
</g>
<!-- Node0x600001e715c0&#45;&gt;Node0x600001e4b000 -->
<g id="edge24" class="edge">
<title>Node0x600001e715c0:n&#45;&gt;Node0x600001e4b000:n</title>
<path fill="none" stroke="red" d="M2942,-34C2954,-34 2959.25,-34 2967.88,-34"/>
<polygon fill="red" stroke="red" points="2968,-37.5 2978,-34 2968,-30.5 2968,-37.5"/>
</g>
<!-- Node0x600001e722e0 -->
<g id="node26" class="node">
<title>Node0x600001e722e0</title>
<polygon fill="none" stroke="black" points="3102,-9 3102,-77 3190,-77 3190,-9 3102,-9"/>
<text text-anchor="middle" x="3146" y="-66.6" font-family="Times,serif" font-size="8.00">word: gossips</text>
<polyline fill="none" stroke="black" points="3102,-60 3190,-60 "/>
<text text-anchor="middle" x="3146" y="-49.6" font-family="Times,serif" font-size="8.00">size: 1</text>
<polyline fill="none" stroke="black" points="3102,-43 3190,-43 "/>
<text text-anchor="middle" x="3146" y="-32.6" font-family="Times,serif" font-size="8.00">next: 0x600001e79200</text>
<polyline fill="none" stroke="black" points="3102,-26 3190,-26 "/>
<text text-anchor="middle" x="3146" y="-15.6" font-family="Times,serif" font-size="8.00">prev: 0x600001e4b000</text>
</g>
<!-- Node0x600001e4b000&#45;&gt;Node0x600001e722e0 -->
<g id="edge25" class="edge">
<title>Node0x600001e4b000:n&#45;&gt;Node0x600001e722e0:n</title>
<path fill="none" stroke="red" d="M3066,-34C3078,-34 3083.25,-34 3091.88,-34"/>
<polygon fill="red" stroke="red" points="3092,-37.5 3102,-34 3092,-30.5 3092,-37.5"/>
</g>
<!-- Node0x600001e79200 -->
<g id="node27" class="node">
<title>Node0x600001e79200</title>
<polygon fill="none" stroke="black" points="3226,-9 3226,-77 3314,-77 3314,-9 3226,-9"/>
<text text-anchor="middle" x="3270" y="-66.6" font-family="Times,serif" font-size="8.00">word: execution</text>
<polyline fill="none" stroke="black" points="3226,-60 3314,-60 "/>
<text text-anchor="middle" x="3270" y="-49.6" font-family="Times,serif" font-size="8.00">size: 1</text>
<polyline fill="none" stroke="black" points="3226,-43 3314,-43 "/>
<text text-anchor="middle" x="3270" y="-32.6" font-family="Times,serif" font-size="8.00">next: 0x600001e79e90</text>
<polyline fill="none" stroke="black" points="3226,-26 3314,-26 "/>
<text text-anchor="middle" x="3270" y="-15.6" font-family="Times,serif" font-size="8.00">prev: 0x600001e722e0</text>
</g>
<!-- Node0x600001e722e0&#45;&gt;Node0x600001e79200 -->
<g id="edge26" class="edge">
<title>Node0x600001e722e0:n&#45;&gt;Node0x600001e79200:n</title>
<path fill="none" stroke="red" d="M3190,-34C3202,-34 3207.25,-34 3215.88,-34"/>
<polygon fill="red" stroke="red" points="3216,-37.5 3226,-34 3216,-30.5 3216,-37.5"/>
</g>
<!-- Node0x600001e79e90 -->
<g id="node28" class="node">
<title>Node0x600001e79e90</title>
<polygon fill="none" stroke="black" points="3350,-9 3350,-77 3438,-77 3438,-9 3350,-9"/>
<text text-anchor="middle" x="3394" y="-66.6" font-family="Times,serif" font-size="8.00">word: Servingman</text>
<polyline fill="none" stroke="black" points="3350,-60 3438,-60 "/>
<text text-anchor="middle" x="3394" y="-49.6" font-family="Times,serif" font-size="8.00">size: 4</text>
<polyline fill="none" stroke="black" points="3350,-43 3438,-43 "/>
<text text-anchor="middle" x="3394" y="-32.6" font-family="Times,serif" font-size="8.00">next: 0x600001e7aa90</text>
<polyline fill="none" stroke="black" points="3350,-26 3438,-26 "/>
<text text-anchor="middle" x="3394" y="-15.6" font-family="Times,serif" font-size="8.00">prev: 0x600001e79200</text>
</g>
<!-- Node0x600001e79200&#45;&gt;Node0x600001e79e90 -->
<g id="edge27" class="edge">
<title>Node0x600001e79200:n&#45;&gt;Node0x600001e79e90:n</title>
<path fill="none" stroke="red" d="M3314,-34C3326,-34 3331.25,-34 3339.88,-34"/>
<polygon fill="red" stroke="red" points="3340,-37.5 3350,-34 3340,-30.5 3340,-37.5"/>
</g>
<!-- Node0x600001e7aa90 -->
<g id="node29" class="node">
<title>Node0x600001e7aa90</title>
<polygon fill="none" stroke="black" points="3474,-9 3474,-77 3562,-77 3562,-9 3474,-9"/>
<text text-anchor="middle" x="3518" y="-66.6" font-family="Times,serif" font-size="8.00">word: horrible</text>
<polyline fill="none" stroke="black" points="3474,-60 3562,-60 "/>
<text text-anchor="middle" x="3518" y="-49.6" font-family="Times,serif" font-size="8.00">size: 1</text>
<polyline fill="none" stroke="black" points="3474,-43 3562,-43 "/>
<text text-anchor="middle" x="3518" y="-32.6" font-family="Times,serif" font-size="8.00">next: 0x600001e7b030</text>
<polyline fill="none" stroke="black" points="3474,-26 3562,-26 "/>
<text text-anchor="middle" x="3518" y="-15.6" font-family="Times,serif" font-size="8.00">prev: 0x600001e79e90</text>
</g>
<!-- Node0x600001e79e90&#45;&gt;Node0x600001e7aa90 -->
<g id="edge28" class="edge">
<title>Node0x600001e79e90:n&#45;&gt;Node0x600001e7aa90:n</title>
<path fill="none" stroke="red" d="M3438,-34C3450,-34 3455.25,-34 3463.88,-34"/>
<polygon fill="red" stroke="red" points="3464,-37.5 3474,-34 3464,-30.5 3464,-37.5"/>
</g>
<!-- Node0x600001e7b030 -->
<g id="node30" class="node">
<title>Node0x600001e7b030</title>
<polygon fill="none" stroke="black" points="3598,-9 3598,-77 3686,-77 3686,-9 3598,-9"/>
<text text-anchor="middle" x="3642" y="-66.6" font-family="Times,serif" font-size="8.00">word: pastry</text>
<polyline fill="none" stroke="black" points="3598,-60 3686,-60 "/>
<text text-anchor="middle" x="3642" y="-49.6" font-family="Times,serif" font-size="8.00">size: 1</text>
<polyline fill="none" stroke="black" points="3598,-43 3686,-43 "/>
<text text-anchor="middle" x="3642" y="-32.6" font-family="Times,serif" font-size="8.00">next: 0x600001e501b0</text>
<polyline fill="none" stroke="black" points="3598,-26 3686,-26 "/>
<text text-anchor="middle" x="3642" y="-15.6" font-family="Times,serif" font-size="8.00">prev: 0x600001e7aa90</text>
</g>
<!-- Node0x600001e7aa90&#45;&gt;Node0x600001e7b030 -->
<g id="edge29" class="edge">
<title>Node0x600001e7aa90:n&#45;&gt;Node0x600001e7b030:n</title>
<path fill="none" stroke="red" d="M3562,-34C3574,-34 3579.25,-34 3587.88,-34"/>
<polygon fill="red" stroke="red" points="3588,-37.5 3598,-34 3588,-30.5 3588,-37.5"/>
</g>
<!-- Node0x600001e501b0 -->
<g id="node31" class="node">
<title>Node0x600001e501b0</title>
<polygon fill="none" stroke="black" points="3722,-9 3722,-77 3810,-77 3810,-9 3722,-9"/>
<text text-anchor="middle" x="3766" y="-66.6" font-family="Times,serif" font-size="8.00">word: Apoth</text>
<polyline fill="none" stroke="black" points="3722,-60 3810,-60 "/>
<text text-anchor="middle" x="3766" y="-49.6" font-family="Times,serif" font-size="8.00">size: 4</text>
<polyline fill="none" stroke="black" points="3722,-43 3810,-43 "/>
<text text-anchor="middle" x="3766" y="-32.6" font-family="Times,serif" font-size="8.00">next: 0x600001e4d230</text>
<polyline fill="none" stroke="black" points="3722,-26 3810,-26 "/>
<text text-anchor="middle" x="3766" y="-15.6" font-family="Times,serif" font-size="8.00">prev: 0x600001e7b030</text>
</g>
<!-- Node0x600001e7b030&#45;&gt;Node0x600001e501b0 -->
<g id="edge30" class="edge">
<title>Node0x600001e7b030:n&#45;&gt;Node0x600001e501b0:n</title>
<path fill="none" stroke="red" d="M3686,-34C3698,-34 3703.25,-34 3711.88,-34"/>
<polygon fill="red" stroke="red" points="3712,-37.5 3722,-34 3712,-30.5 3712,-37.5"/>
</g>
<!-- Node0x600001e4d230 -->
<g id="node32" class="node">
<title>Node0x600001e4d230</title>
<polygon fill="none" stroke="black" points="3846,-9 3846,-77 3934,-77 3934,-9 3846,-9"/>
<text text-anchor="middle" x="3890" y="-66.6" font-family="Times,serif" font-size="8.00">word: Retires</text>
<polyline fill="none" stroke="black" points="3846,-60 3934,-60 "/>
<text text-anchor="middle" x="3890" y="-49.6" font-family="Times,serif" font-size="8.00">size: 2</text>
<polyline fill="none" stroke="black" points="3846,-43 3934,-43 "/>
<text text-anchor="middle" x="3890" y="-32.6" font-family="Times,serif" font-size="8.00">next: 0x600001e4d410</text>
<polyline fill="none" stroke="black" points="3846,-26 3934,-26 "/>
<text text-anchor="middle" x="3890" y="-15.6" font-family="Times,serif" font-size="8.00">prev: 0x600001e501b0</text>
</g>
<!-- Node0x600001e501b0&#45;&gt;Node0x600001e4d230 -->
<g id="edge31" class="edge">
<title>Node0x600001e501b0:n&#45;&gt;Node0x600001e4d230:n</title>
<path fill="none" stroke="red" d="M3810,-34C3822,-34 3827.25,-34 3835.88,-34"/>
<polygon fill="red" stroke="red" points="3836,-37.5 3846,-34 3836,-30.5 3836,-37.5"/>
</g>
<!-- Node0x600001e4d410 -->
<g id="node33" class="node">
<title>Node0x600001e4d410</title>
<polygon fill="none" stroke="black" points="3970,-9 3970,-77 4058,-77 4058,-9 3970,-9"/>
<text text-anchor="middle" x="4014" y="-66.6" font-family="Times,serif" font-size="8.00">word: wanders</text>
<polyline fill="none" stroke="black" points="3970,-60 4058,-60 "/>
<text text-anchor="middle" x="4014" y="-49.6" font-family="Times,serif" font-size="8.00">size: 1</text>
<polyline fill="none" stroke="black" points="3970,-43 4058,-43 "/>
<text text-anchor="middle" x="4014" y="-32.6" font-family="Times,serif" font-size="8.00">next: 0x600001e54030</text>
<polyline fill="none" stroke="black" points="3970,-26 4058,-26 "/>
<text text-anchor="middle" x="4014" y="-15.6" font-family="Times,serif" font-size="8.00">prev: 0x600001e4d230</text>
</g>
<!-- Node0x600001e4d230&#45;&gt;Node0x600001e4d410 -->
<g id="edge32" class="edge">
<title>Node0x600001e4d230:n&#45;&gt;Node0x600001e4d410:n</title>
<path fill="none" stroke="red" d="M3934,-34C3946,-34 3951.25,-34 3959.88,-34"/>
<polygon fill="red" stroke="red" points="3960,-37.5 3970,-34 3960,-30.5 3960,-37.5"/>
</g>
<!-- Node0x600001e54030 -->
<g id="node34" class="node">
<title>Node0x600001e54030</title>
<polygon fill="none" stroke="black" points="4094,-9 4094,-77 4182,-77 4182,-9 4094,-9"/>
<text text-anchor="middle" x="4138" y="-66.6" font-family="Times,serif" font-size="8.00">word: employment</text>
<polyline fill="none" stroke="black" points="4094,-60 4182,-60 "/>
<text text-anchor="middle" x="4138" y="-49.6" font-family="Times,serif" font-size="8.00">size: 1</text>
<polyline fill="none" stroke="black" points="4094,-43 4182,-43 "/>
<text text-anchor="middle" x="4138" y="-32.6" font-family="Times,serif" font-size="8.00">next: 0x0</text>
<polyline fill="none" stroke="black" points="4094,-26 4182,-26 "/>
<text text-anchor="middle" x="4138" y="-15.6" font-family="Times,serif" font-size="8.00">prev: 0x600001e4d410</text>
</g>
<!-- Node0x600001e4d410&#45;&gt;Node0x600001e54030 -->
<g id="edge33" class="edge">
<title>Node0x600001e4d410:n&#45;&gt;Node0x600001e54030:n</title>
<path fill="none" stroke="red" d="M4058,-34C4070,-34 4075.25,-34 4083.88,-34"/>
<polygon fill="red" stroke="red" points="4084,-37.5 4094,-34 4084,-30.5 4084,-37.5"/>
</g>
</g>
</svg>
