<?xml version="1.0" encoding="UTF-8" standalone="no"?>
<!DOCTYPE svg PUBLIC "-//W3C//DTD SVG 1.1//EN"
 "http://www.w3.org/Graphics/SVG/1.1/DTD/svg11.dtd">
<!-- Generated by graphviz version 2.50.0 (20211204.2007)
 -->
<!-- Title: G Pages: 1 -->
<svg width="4319pt" height="117pt"
 viewBox="0.00 0.00 4319.00 117.00" xmlns="http://www.w3.org/2000/svg" xmlns:xlink="http://www.w3.org/1999/xlink">
<g id="graph0" class="graph" transform="scale(1 1) rotate(0) translate(4 113)">
<title>G</title>
<polygon fill="white" stroke="transparent" points="-4,4 -4,-113 4315,-113 4315,4 -4,4"/>
<g id="clust14" class="cluster">
<title>cluster1506</title>
<polygon fill="none" stroke="black" points="1616,-8 1616,-101 1703,-101 1703,-8 1616,-8"/>
<text text-anchor="middle" x="1659.5" y="-85.8" font-family="Times,serif" font-size="14.00">1506</text>
</g>
<g id="clust1" class="cluster">
<title>cluster1493</title>
<polygon fill="none" stroke="black" points="8,-8 8,-101 95,-101 95,-8 8,-8"/>
<text text-anchor="middle" x="51.5" y="-85.8" font-family="Times,serif" font-size="14.00">1493</text>
</g>
<g id="clust2" class="cluster">
<title>cluster1494</title>
<polygon fill="none" stroke="black" points="131,-8 131,-101 219,-101 219,-8 131,-8"/>
<text text-anchor="middle" x="175" y="-85.8" font-family="Times,serif" font-size="14.00">1494</text>
</g>
<g id="clust3" class="cluster">
<title>cluster1495</title>
<polygon fill="none" stroke="black" points="255,-8 255,-101 343,-101 343,-8 255,-8"/>
<text text-anchor="middle" x="299" y="-85.8" font-family="Times,serif" font-size="14.00">1495</text>
</g>
<g id="clust4" class="cluster">
<title>cluster1496</title>
<polygon fill="none" stroke="black" points="379,-8 379,-101 466,-101 466,-8 379,-8"/>
<text text-anchor="middle" x="422.5" y="-85.8" font-family="Times,serif" font-size="14.00">1496</text>
</g>
<g id="clust5" class="cluster">
<title>cluster1497</title>
<polygon fill="none" stroke="black" points="502,-8 502,-101 590,-101 590,-8 502,-8"/>
<text text-anchor="middle" x="546" y="-85.8" font-family="Times,serif" font-size="14.00">1497</text>
</g>
<g id="clust6" class="cluster">
<title>cluster1498</title>
<polygon fill="none" stroke="black" points="626,-8 626,-101 714,-101 714,-8 626,-8"/>
<text text-anchor="middle" x="670" y="-85.8" font-family="Times,serif" font-size="14.00">1498</text>
</g>
<g id="clust7" class="cluster">
<title>cluster1499</title>
<polygon fill="none" stroke="black" points="750,-8 750,-101 838,-101 838,-8 750,-8"/>
<text text-anchor="middle" x="794" y="-85.8" font-family="Times,serif" font-size="14.00">1499</text>
</g>
<g id="clust8" class="cluster">
<title>cluster1500</title>
<polygon fill="none" stroke="black" points="874,-8 874,-101 962,-101 962,-8 874,-8"/>
<text text-anchor="middle" x="918" y="-85.8" font-family="Times,serif" font-size="14.00">1500</text>
</g>
<g id="clust9" class="cluster">
<title>cluster1501</title>
<polygon fill="none" stroke="black" points="998,-8 998,-101 1086,-101 1086,-8 998,-8"/>
<text text-anchor="middle" x="1042" y="-85.8" font-family="Times,serif" font-size="14.00">1501</text>
</g>
<g id="clust10" class="cluster">
<title>cluster1502</title>
<polygon fill="none" stroke="black" points="1122,-8 1122,-101 1210,-101 1210,-8 1122,-8"/>
<text text-anchor="middle" x="1166" y="-85.8" font-family="Times,serif" font-size="14.00">1502</text>
</g>
<g id="clust11" class="cluster">
<title>cluster1503</title>
<polygon fill="none" stroke="black" points="1246,-8 1246,-101 1334,-101 1334,-8 1246,-8"/>
<text text-anchor="middle" x="1290" y="-85.8" font-family="Times,serif" font-size="14.00">1503</text>
</g>
<g id="clust12" class="cluster">
<title>cluster1504</title>
<polygon fill="none" stroke="black" points="1370,-8 1370,-101 1457,-101 1457,-8 1370,-8"/>
<text text-anchor="middle" x="1413.5" y="-85.8" font-family="Times,serif" font-size="14.00">1504</text>
</g>
<g id="clust13" class="cluster">
<title>cluster1505</title>
<polygon fill="none" stroke="black" points="1493,-8 1493,-101 1580,-101 1580,-8 1493,-8"/>
<text text-anchor="middle" x="1536.5" y="-85.8" font-family="Times,serif" font-size="14.00">1505</text>
</g>
<g id="clust15" class="cluster">
<title>cluster1507</title>
<polygon fill="none" stroke="black" points="1739,-8 1739,-101 1827,-101 1827,-8 1739,-8"/>
<text text-anchor="middle" x="1783" y="-85.8" font-family="Times,serif" font-size="14.00">1507</text>
</g>
<g id="clust16" class="cluster">
<title>cluster1508</title>
<polygon fill="none" stroke="black" points="1863,-8 1863,-101 1951,-101 1951,-8 1863,-8"/>
<text text-anchor="middle" x="1907" y="-85.8" font-family="Times,serif" font-size="14.00">1508</text>
</g>
<g id="clust17" class="cluster">
<title>cluster1509</title>
<polygon fill="none" stroke="black" points="1987,-8 1987,-101 2075,-101 2075,-8 1987,-8"/>
<text text-anchor="middle" x="2031" y="-85.8" font-family="Times,serif" font-size="14.00">1509</text>
</g>
<g id="clust18" class="cluster">
<title>cluster1510</title>
<polygon fill="none" stroke="black" points="2111,-8 2111,-101 2199,-101 2199,-8 2111,-8"/>
<text text-anchor="middle" x="2155" y="-85.8" font-family="Times,serif" font-size="14.00">1510</text>
</g>
<g id="clust19" class="cluster">
<title>cluster1511</title>
<polygon fill="none" stroke="black" points="2235,-8 2235,-101 2322,-101 2322,-8 2235,-8"/>
<text text-anchor="middle" x="2278.5" y="-85.8" font-family="Times,serif" font-size="14.00">1511</text>
</g>
<g id="clust20" class="cluster">
<title>cluster1512</title>
<polygon fill="none" stroke="black" points="2358,-8 2358,-101 2446,-101 2446,-8 2358,-8"/>
<text text-anchor="middle" x="2402" y="-85.8" font-family="Times,serif" font-size="14.00">1512</text>
</g>
<g id="clust21" class="cluster">
<title>cluster1513</title>
<polygon fill="none" stroke="black" points="2482,-8 2482,-101 2570,-101 2570,-8 2482,-8"/>
<text text-anchor="middle" x="2526" y="-85.8" font-family="Times,serif" font-size="14.00">1513</text>
</g>
<g id="clust22" class="cluster">
<title>cluster1514</title>
<polygon fill="none" stroke="black" points="2606,-8 2606,-101 2694,-101 2694,-8 2606,-8"/>
<text text-anchor="middle" x="2650" y="-85.8" font-family="Times,serif" font-size="14.00">1514</text>
</g>
<g id="clust23" class="cluster">
<title>cluster1515</title>
<polygon fill="none" stroke="black" points="2730,-8 2730,-101 2817,-101 2817,-8 2730,-8"/>
<text text-anchor="middle" x="2773.5" y="-85.8" font-family="Times,serif" font-size="14.00">1515</text>
</g>
<g id="clust24" class="cluster">
<title>cluster1516</title>
<polygon fill="none" stroke="black" points="2853,-8 2853,-101 2941,-101 2941,-8 2853,-8"/>
<text text-anchor="middle" x="2897" y="-85.8" font-family="Times,serif" font-size="14.00">1516</text>
</g>
<g id="clust25" class="cluster">
<title>cluster1517</title>
<polygon fill="none" stroke="black" points="2977,-8 2977,-101 3065,-101 3065,-8 2977,-8"/>
<text text-anchor="middle" x="3021" y="-85.8" font-family="Times,serif" font-size="14.00">1517</text>
</g>
<g id="clust26" class="cluster">
<title>cluster1518</title>
<polygon fill="none" stroke="black" points="3101,-8 3101,-101 3189,-101 3189,-8 3101,-8"/>
<text text-anchor="middle" x="3145" y="-85.8" font-family="Times,serif" font-size="14.00">1518</text>
</g>
<g id="clust27" class="cluster">
<title>cluster1519</title>
<polygon fill="none" stroke="black" points="3225,-8 3225,-101 3313,-101 3313,-8 3225,-8"/>
<text text-anchor="middle" x="3269" y="-85.8" font-family="Times,serif" font-size="14.00">1519</text>
</g>
<g id="clust28" class="cluster">
<title>cluster1520</title>
<polygon fill="none" stroke="black" points="3349,-8 3349,-101 3437,-101 3437,-8 3349,-8"/>
<text text-anchor="middle" x="3393" y="-85.8" font-family="Times,serif" font-size="14.00">1520</text>
</g>
<g id="clust29" class="cluster">
<title>cluster1521</title>
<polygon fill="none" stroke="black" points="3473,-8 3473,-101 3561,-101 3561,-8 3473,-8"/>
<text text-anchor="middle" x="3517" y="-85.8" font-family="Times,serif" font-size="14.00">1521</text>
</g>
<g id="clust30" class="cluster">
<title>cluster1522</title>
<polygon fill="none" stroke="black" points="3597,-8 3597,-101 3685,-101 3685,-8 3597,-8"/>
<text text-anchor="middle" x="3641" y="-85.8" font-family="Times,serif" font-size="14.00">1522</text>
</g>
<g id="clust31" class="cluster">
<title>cluster1523</title>
<polygon fill="none" stroke="black" points="3721,-8 3721,-101 3809,-101 3809,-8 3721,-8"/>
<text text-anchor="middle" x="3765" y="-85.8" font-family="Times,serif" font-size="14.00">1523</text>
</g>
<g id="clust32" class="cluster">
<title>cluster1524</title>
<polygon fill="none" stroke="black" points="3845,-8 3845,-101 3932,-101 3932,-8 3845,-8"/>
<text text-anchor="middle" x="3888.5" y="-85.8" font-family="Times,serif" font-size="14.00">1524</text>
</g>
<g id="clust33" class="cluster">
<title>cluster1525</title>
<polygon fill="none" stroke="black" points="3968,-8 3968,-101 4056,-101 4056,-8 3968,-8"/>
<text text-anchor="middle" x="4012" y="-85.8" font-family="Times,serif" font-size="14.00">1525</text>
</g>
<g id="clust34" class="cluster">
<title>cluster1526</title>
<polygon fill="none" stroke="black" points="4092,-8 4092,-101 4180,-101 4180,-8 4092,-8"/>
<text text-anchor="middle" x="4136" y="-85.8" font-family="Times,serif" font-size="14.00">1526</text>
</g>
<g id="clust35" class="cluster">
<title>cluster1527</title>
<polygon fill="none" stroke="black" points="4216,-8 4216,-101 4303,-101 4303,-8 4216,-8"/>
<text text-anchor="middle" x="4259.5" y="-85.8" font-family="Times,serif" font-size="14.00">1527</text>
</g>
<!-- Node0x600000711d70 -->
<g id="node1" class="node">
<title>Node0x600000711d70</title>
<polygon fill="none" stroke="black" points="8,-9 8,-77 95,-77 95,-9 8,-9"/>
<text text-anchor="middle" x="51.5" y="-66.6" font-family="Times,serif" font-size="8.00">word: And</text>
<polyline fill="none" stroke="black" points="8,-60 95,-60 "/>
<text text-anchor="middle" x="51.5" y="-49.6" font-family="Times,serif" font-size="8.00">size: 229</text>
<polyline fill="none" stroke="black" points="8,-43 95,-43 "/>
<text text-anchor="middle" x="51.5" y="-32.6" font-family="Times,serif" font-size="8.00">next: 0x6000007129a0</text>
<polyline fill="none" stroke="black" points="8,-26 95,-26 "/>
<text text-anchor="middle" x="51.5" y="-15.6" font-family="Times,serif" font-size="8.00">prev: 0x0</text>
</g>
<!-- Node0x6000007129a0 -->
<g id="node2" class="node">
<title>Node0x6000007129a0</title>
<polygon fill="none" stroke="black" points="131,-9 131,-77 219,-77 219,-9 131,-9"/>
<text text-anchor="middle" x="175" y="-66.6" font-family="Times,serif" font-size="8.00">word: thou</text>
<polyline fill="none" stroke="black" points="131,-60 219,-60 "/>
<text text-anchor="middle" x="175" y="-49.6" font-family="Times,serif" font-size="8.00">size: 236</text>
<polyline fill="none" stroke="black" points="131,-43 219,-43 "/>
<text text-anchor="middle" x="175" y="-32.6" font-family="Times,serif" font-size="8.00">next: 0x6000007167f0</text>
<polyline fill="none" stroke="black" points="131,-26 219,-26 "/>
<text text-anchor="middle" x="175" y="-15.6" font-family="Times,serif" font-size="8.00">prev: 0x600000711d70</text>
</g>
<!-- Node0x600000711d70&#45;&gt;Node0x6000007129a0 -->
<g id="edge1" class="edge">
<title>Node0x600000711d70:n&#45;&gt;Node0x6000007129a0:n</title>
<path fill="none" stroke="red" d="M95,-34C107,-34 112.25,-34 120.88,-34"/>
<polygon fill="red" stroke="red" points="121,-37.5 131,-34 121,-30.5 121,-37.5"/>
</g>
<!-- Node0x6000007167f0 -->
<g id="node3" class="node">
<title>Node0x6000007167f0</title>
<polygon fill="none" stroke="black" points="255,-9 255,-77 343,-77 343,-9 255,-9"/>
<text text-anchor="middle" x="299" y="-66.6" font-family="Times,serif" font-size="8.00">word: hour</text>
<polyline fill="none" stroke="black" points="255,-60 343,-60 "/>
<text text-anchor="middle" x="299" y="-49.6" font-family="Times,serif" font-size="8.00">size: 16</text>
<polyline fill="none" stroke="black" points="255,-43 343,-43 "/>
<text text-anchor="middle" x="299" y="-32.6" font-family="Times,serif" font-size="8.00">next: 0x6000007193b0</text>
<polyline fill="none" stroke="black" points="255,-26 343,-26 "/>
<text text-anchor="middle" x="299" y="-15.6" font-family="Times,serif" font-size="8.00">prev: 0x6000007129a0</text>
</g>
<!-- Node0x6000007129a0&#45;&gt;Node0x6000007167f0 -->
<g id="edge2" class="edge">
<title>Node0x6000007129a0:n&#45;&gt;Node0x6000007167f0:n</title>
<path fill="none" stroke="red" d="M219,-34C231,-34 236.25,-34 244.88,-34"/>
<polygon fill="red" stroke="red" points="245,-37.5 255,-34 245,-30.5 245,-37.5"/>
</g>
<!-- Node0x6000007193b0 -->
<g id="node4" class="node">
<title>Node0x6000007193b0</title>
<polygon fill="none" stroke="black" points="379,-9 379,-77 466,-77 466,-9 379,-9"/>
<text text-anchor="middle" x="422.5" y="-66.6" font-family="Times,serif" font-size="8.00">word: gall</text>
<polyline fill="none" stroke="black" points="379,-60 466,-60 "/>
<text text-anchor="middle" x="422.5" y="-49.6" font-family="Times,serif" font-size="8.00">size: 2</text>
<polyline fill="none" stroke="black" points="379,-43 466,-43 "/>
<text text-anchor="middle" x="422.5" y="-32.6" font-family="Times,serif" font-size="8.00">next: 0x60000071b420</text>
<polyline fill="none" stroke="black" points="379,-26 466,-26 "/>
<text text-anchor="middle" x="422.5" y="-15.6" font-family="Times,serif" font-size="8.00">prev: 0x6000007167f0</text>
</g>
<!-- Node0x6000007167f0&#45;&gt;Node0x6000007193b0 -->
<g id="edge3" class="edge">
<title>Node0x6000007167f0:n&#45;&gt;Node0x6000007193b0:n</title>
<path fill="none" stroke="red" d="M343,-34C355,-34 360.25,-34 368.88,-34"/>
<polygon fill="red" stroke="red" points="369,-37.5 379,-34 369,-30.5 369,-37.5"/>
</g>
<!-- Node0x60000071b420 -->
<g id="node5" class="node">
<title>Node0x60000071b420</title>
<polygon fill="none" stroke="black" points="502,-9 502,-77 590,-77 590,-9 502,-9"/>
<text text-anchor="middle" x="546" y="-66.6" font-family="Times,serif" font-size="8.00">word: trudge</text>
<polyline fill="none" stroke="black" points="502,-60 590,-60 "/>
<text text-anchor="middle" x="546" y="-49.6" font-family="Times,serif" font-size="8.00">size: 2</text>
<polyline fill="none" stroke="black" points="502,-43 590,-43 "/>
<text text-anchor="middle" x="546" y="-32.6" font-family="Times,serif" font-size="8.00">next: 0x60000071c8a0</text>
<polyline fill="none" stroke="black" points="502,-26 590,-26 "/>
<text text-anchor="middle" x="546" y="-15.6" font-family="Times,serif" font-size="8.00">prev: 0x6000007193b0</text>
</g>
<!-- Node0x6000007193b0&#45;&gt;Node0x60000071b420 -->
<g id="edge4" class="edge">
<title>Node0x6000007193b0:n&#45;&gt;Node0x60000071b420:n</title>
<path fill="none" stroke="red" d="M466,-34C478,-34 483.25,-34 491.88,-34"/>
<polygon fill="red" stroke="red" points="492,-37.5 502,-34 492,-30.5 492,-37.5"/>
</g>
<!-- Node0x60000071c8a0 -->
<g id="node6" class="node">
<title>Node0x60000071c8a0</title>
<polygon fill="none" stroke="black" points="626,-9 626,-77 714,-77 714,-9 626,-9"/>
<text text-anchor="middle" x="670" y="-66.6" font-family="Times,serif" font-size="8.00">word: Indeed</text>
<polyline fill="none" stroke="black" points="626,-60 714,-60 "/>
<text text-anchor="middle" x="670" y="-49.6" font-family="Times,serif" font-size="8.00">size: 2</text>
<polyline fill="none" stroke="black" points="626,-43 714,-43 "/>
<text text-anchor="middle" x="670" y="-32.6" font-family="Times,serif" font-size="8.00">next: 0x600000704810</text>
<polyline fill="none" stroke="black" points="626,-26 714,-26 "/>
<text text-anchor="middle" x="670" y="-15.6" font-family="Times,serif" font-size="8.00">prev: 0x60000071b420</text>
</g>
<!-- Node0x60000071b420&#45;&gt;Node0x60000071c8a0 -->
<g id="edge5" class="edge">
<title>Node0x60000071b420:n&#45;&gt;Node0x60000071c8a0:n</title>
<path fill="none" stroke="red" d="M590,-34C602,-34 607.25,-34 615.88,-34"/>
<polygon fill="red" stroke="red" points="616,-37.5 626,-34 616,-30.5 616,-37.5"/>
</g>
<!-- Node0x600000704810 -->
<g id="node7" class="node">
<title>Node0x600000704810</title>
<polygon fill="none" stroke="black" points="750,-9 750,-77 838,-77 838,-9 750,-9"/>
<text text-anchor="middle" x="794" y="-66.6" font-family="Times,serif" font-size="8.00">word: speech</text>
<polyline fill="none" stroke="black" points="750,-60 838,-60 "/>
<text text-anchor="middle" x="794" y="-49.6" font-family="Times,serif" font-size="8.00">size: 1</text>
<polyline fill="none" stroke="black" points="750,-43 838,-43 "/>
<text text-anchor="middle" x="794" y="-32.6" font-family="Times,serif" font-size="8.00">next: 0x6000007054a0</text>
<polyline fill="none" stroke="black" points="750,-26 838,-26 "/>
<text text-anchor="middle" x="794" y="-15.6" font-family="Times,serif" font-size="8.00">prev: 0x60000071c8a0</text>
</g>
<!-- Node0x60000071c8a0&#45;&gt;Node0x600000704810 -->
<g id="edge6" class="edge">
<title>Node0x60000071c8a0:n&#45;&gt;Node0x600000704810:n</title>
<path fill="none" stroke="red" d="M714,-34C726,-34 731.25,-34 739.88,-34"/>
<polygon fill="red" stroke="red" points="740,-37.5 750,-34 740,-30.5 740,-37.5"/>
</g>
<!-- Node0x6000007054a0 -->
<g id="node8" class="node">
<title>Node0x6000007054a0</title>
<polygon fill="none" stroke="black" points="874,-9 874,-77 962,-77 962,-9 874,-9"/>
<text text-anchor="middle" x="918" y="-66.6" font-family="Times,serif" font-size="8.00">word: wantons</text>
<polyline fill="none" stroke="black" points="874,-60 962,-60 "/>
<text text-anchor="middle" x="918" y="-49.6" font-family="Times,serif" font-size="8.00">size: 1</text>
<polyline fill="none" stroke="black" points="874,-43 962,-43 "/>
<text text-anchor="middle" x="918" y="-32.6" font-family="Times,serif" font-size="8.00">next: 0x60000071db00</text>
<polyline fill="none" stroke="black" points="874,-26 962,-26 "/>
<text text-anchor="middle" x="918" y="-15.6" font-family="Times,serif" font-size="8.00">prev: 0x600000704810</text>
</g>
<!-- Node0x600000704810&#45;&gt;Node0x6000007054a0 -->
<g id="edge7" class="edge">
<title>Node0x600000704810:n&#45;&gt;Node0x6000007054a0:n</title>
<path fill="none" stroke="red" d="M838,-34C850,-34 855.25,-34 863.88,-34"/>
<polygon fill="red" stroke="red" points="864,-37.5 874,-34 864,-30.5 864,-37.5"/>
</g>
<!-- Node0x60000071db00 -->
<g id="node9" class="node">
<title>Node0x60000071db00</title>
<polygon fill="none" stroke="black" points="998,-9 998,-77 1086,-77 1086,-9 998,-9"/>
<text text-anchor="middle" x="1042" y="-66.6" font-family="Times,serif" font-size="8.00">word: driveth</text>
<polyline fill="none" stroke="black" points="998,-60 1086,-60 "/>
<text text-anchor="middle" x="1042" y="-49.6" font-family="Times,serif" font-size="8.00">size: 1</text>
<polyline fill="none" stroke="black" points="998,-43 1086,-43 "/>
<text text-anchor="middle" x="1042" y="-32.6" font-family="Times,serif" font-size="8.00">next: 0x60000071db90</text>
<polyline fill="none" stroke="black" points="998,-26 1086,-26 "/>
<text text-anchor="middle" x="1042" y="-15.6" font-family="Times,serif" font-size="8.00">prev: 0x6000007054a0</text>
</g>
<!-- Node0x6000007054a0&#45;&gt;Node0x60000071db00 -->
<g id="edge8" class="edge">
<title>Node0x6000007054a0:n&#45;&gt;Node0x60000071db00:n</title>
<path fill="none" stroke="red" d="M962,-34C974,-34 979.25,-34 987.88,-34"/>
<polygon fill="red" stroke="red" points="988,-37.5 998,-34 988,-30.5 988,-37.5"/>
</g>
<!-- Node0x60000071db90 -->
<g id="node10" class="node">
<title>Node0x60000071db90</title>
<polygon fill="none" stroke="black" points="1122,-9 1122,-77 1210,-77 1210,-9 1122,-9"/>
<text text-anchor="middle" x="1166" y="-66.6" font-family="Times,serif" font-size="8.00">word: foreign</text>
<polyline fill="none" stroke="black" points="1122,-60 1210,-60 "/>
<text text-anchor="middle" x="1166" y="-49.6" font-family="Times,serif" font-size="8.00">size: 1</text>
<polyline fill="none" stroke="black" points="1122,-43 1210,-43 "/>
<text text-anchor="middle" x="1166" y="-32.6" font-family="Times,serif" font-size="8.00">next: 0x60000071f540</text>
<polyline fill="none" stroke="black" points="1122,-26 1210,-26 "/>
<text text-anchor="middle" x="1166" y="-15.6" font-family="Times,serif" font-size="8.00">prev: 0x60000071db00</text>
</g>
<!-- Node0x60000071db00&#45;&gt;Node0x60000071db90 -->
<g id="edge9" class="edge">
<title>Node0x60000071db00:n&#45;&gt;Node0x60000071db90:n</title>
<path fill="none" stroke="red" d="M1086,-34C1098,-34 1103.25,-34 1111.88,-34"/>
<polygon fill="red" stroke="red" points="1112,-37.5 1122,-34 1112,-30.5 1112,-37.5"/>
</g>
<!-- Node0x60000071f540 -->
<g id="node11" class="node">
<title>Node0x60000071f540</title>
<polygon fill="none" stroke="black" points="1246,-9 1246,-77 1334,-77 1334,-9 1246,-9"/>
<text text-anchor="middle" x="1290" y="-66.6" font-family="Times,serif" font-size="8.00">word: tables</text>
<polyline fill="none" stroke="black" points="1246,-60 1334,-60 "/>
<text text-anchor="middle" x="1290" y="-49.6" font-family="Times,serif" font-size="8.00">size: 1</text>
<polyline fill="none" stroke="black" points="1246,-43 1334,-43 "/>
<text text-anchor="middle" x="1290" y="-32.6" font-family="Times,serif" font-size="8.00">next: 0x60000071f990</text>
<polyline fill="none" stroke="black" points="1246,-26 1334,-26 "/>
<text text-anchor="middle" x="1290" y="-15.6" font-family="Times,serif" font-size="8.00">prev: 0x60000071db90</text>
</g>
<!-- Node0x60000071db90&#45;&gt;Node0x60000071f540 -->
<g id="edge10" class="edge">
<title>Node0x60000071db90:n&#45;&gt;Node0x60000071f540:n</title>
<path fill="none" stroke="red" d="M1210,-34C1222,-34 1227.25,-34 1235.88,-34"/>
<polygon fill="red" stroke="red" points="1236,-37.5 1246,-34 1236,-30.5 1236,-37.5"/>
</g>
<!-- Node0x60000071f990 -->
<g id="node12" class="node">
<title>Node0x60000071f990</title>
<polygon fill="none" stroke="black" points="1370,-9 1370,-77 1457,-77 1457,-9 1370,-9"/>
<text text-anchor="middle" x="1413.5" y="-66.6" font-family="Times,serif" font-size="8.00">word: hangs</text>
<polyline fill="none" stroke="black" points="1370,-60 1457,-60 "/>
<text text-anchor="middle" x="1413.5" y="-49.6" font-family="Times,serif" font-size="8.00">size: 2</text>
<polyline fill="none" stroke="black" points="1370,-43 1457,-43 "/>
<text text-anchor="middle" x="1413.5" y="-32.6" font-family="Times,serif" font-size="8.00">next: 0x60000071fea0</text>
<polyline fill="none" stroke="black" points="1370,-26 1457,-26 "/>
<text text-anchor="middle" x="1413.5" y="-15.6" font-family="Times,serif" font-size="8.00">prev: 0x60000071f540</text>
</g>
<!-- Node0x60000071f540&#45;&gt;Node0x60000071f990 -->
<g id="edge11" class="edge">
<title>Node0x60000071f540:n&#45;&gt;Node0x60000071f990:n</title>
<path fill="none" stroke="red" d="M1334,-34C1346,-34 1351.25,-34 1359.88,-34"/>
<polygon fill="red" stroke="red" points="1360,-37.5 1370,-34 1360,-30.5 1360,-37.5"/>
</g>
<!-- Node0x60000071fea0 -->
<g id="node13" class="node">
<title>Node0x60000071fea0</title>
<polygon fill="none" stroke="black" points="1493,-9 1493,-77 1580,-77 1580,-9 1493,-9"/>
<text text-anchor="middle" x="1536.5" y="-66.6" font-family="Times,serif" font-size="8.00">word: kin</text>
<polyline fill="none" stroke="black" points="1493,-60 1580,-60 "/>
<text text-anchor="middle" x="1536.5" y="-49.6" font-family="Times,serif" font-size="8.00">size: 1</text>
<polyline fill="none" stroke="black" points="1493,-43 1580,-43 "/>
<text text-anchor="middle" x="1536.5" y="-32.6" font-family="Times,serif" font-size="8.00">next: 0x600000700b70</text>
<polyline fill="none" stroke="black" points="1493,-26 1580,-26 "/>
<text text-anchor="middle" x="1536.5" y="-15.6" font-family="Times,serif" font-size="8.00">prev: 0x60000071f990</text>
</g>
<!-- Node0x60000071f990&#45;&gt;Node0x60000071fea0 -->
<g id="edge12" class="edge">
<title>Node0x60000071f990:n&#45;&gt;Node0x60000071fea0:n</title>
<path fill="none" stroke="red" d="M1457,-34C1469,-34 1474.25,-34 1482.88,-34"/>
<polygon fill="red" stroke="red" points="1483,-37.5 1493,-34 1483,-30.5 1483,-37.5"/>
</g>
<!-- Node0x600000700b70 -->
<g id="node14" class="node">
<title>Node0x600000700b70</title>
<polygon fill="none" stroke="black" points="1616,-9 1616,-77 1703,-77 1703,-9 1616,-9"/>
<text text-anchor="middle" x="1659.5" y="-66.6" font-family="Times,serif" font-size="8.00">word: chinks</text>
<polyline fill="none" stroke="black" points="1616,-60 1703,-60 "/>
<text text-anchor="middle" x="1659.5" y="-49.6" font-family="Times,serif" font-size="8.00">size: 1</text>
<polyline fill="none" stroke="black" points="1616,-43 1703,-43 "/>
<text text-anchor="middle" x="1659.5" y="-32.6" font-family="Times,serif" font-size="8.00">next: 0x600000702dc0</text>
<polyline fill="none" stroke="black" points="1616,-26 1703,-26 "/>
<text text-anchor="middle" x="1659.5" y="-15.6" font-family="Times,serif" font-size="8.00">prev: 0x60000071fea0</text>
</g>
<!-- Node0x60000071fea0&#45;&gt;Node0x600000700b70 -->
<g id="edge13" class="edge">
<title>Node0x60000071fea0:n&#45;&gt;Node0x600000700b70:n</title>
<path fill="none" stroke="red" d="M1580,-34C1592,-34 1597.25,-34 1605.88,-34"/>
<polygon fill="red" stroke="red" points="1606,-37.5 1616,-34 1606,-30.5 1606,-37.5"/>
</g>
<!-- Node0x600000702dc0 -->
<g id="node15" class="node">
<title>Node0x600000702dc0</title>
<polygon fill="none" stroke="black" points="1739,-9 1739,-77 1827,-77 1827,-9 1739,-9"/>
<text text-anchor="middle" x="1783" y="-66.6" font-family="Times,serif" font-size="8.00">word: Juiet</text>
<polyline fill="none" stroke="black" points="1739,-60 1827,-60 "/>
<text text-anchor="middle" x="1783" y="-49.6" font-family="Times,serif" font-size="8.00">size: 5</text>
<polyline fill="none" stroke="black" points="1739,-43 1827,-43 "/>
<text text-anchor="middle" x="1783" y="-32.6" font-family="Times,serif" font-size="8.00">next: 0x600000703c30</text>
<polyline fill="none" stroke="black" points="1739,-26 1827,-26 "/>
<text text-anchor="middle" x="1783" y="-15.6" font-family="Times,serif" font-size="8.00">prev: 0x600000700b70</text>
</g>
<!-- Node0x600000700b70&#45;&gt;Node0x600000702dc0 -->
<g id="edge14" class="edge">
<title>Node0x600000700b70:n&#45;&gt;Node0x600000702dc0:n</title>
<path fill="none" stroke="red" d="M1703,-34C1715,-34 1720.25,-34 1728.88,-34"/>
<polygon fill="red" stroke="red" points="1729,-37.5 1739,-34 1729,-30.5 1729,-37.5"/>
</g>
<!-- Node0x600000703c30 -->
<g id="node16" class="node">
<title>Node0x600000703c30</title>
<polygon fill="none" stroke="black" points="1863,-9 1863,-77 1951,-77 1951,-9 1863,-9"/>
<text text-anchor="middle" x="1907" y="-66.6" font-family="Times,serif" font-size="8.00">word: overheard</text>
<polyline fill="none" stroke="black" points="1863,-60 1951,-60 "/>
<text text-anchor="middle" x="1907" y="-49.6" font-family="Times,serif" font-size="8.00">size: 1</text>
<polyline fill="none" stroke="black" points="1863,-43 1951,-43 "/>
<text text-anchor="middle" x="1907" y="-32.6" font-family="Times,serif" font-size="8.00">next: 0x600000730c90</text>
<polyline fill="none" stroke="black" points="1863,-26 1951,-26 "/>
<text text-anchor="middle" x="1907" y="-15.6" font-family="Times,serif" font-size="8.00">prev: 0x600000702dc0</text>
</g>
<!-- Node0x600000702dc0&#45;&gt;Node0x600000703c30 -->
<g id="edge15" class="edge">
<title>Node0x600000702dc0:n&#45;&gt;Node0x600000703c30:n</title>
<path fill="none" stroke="red" d="M1827,-34C1839,-34 1844.25,-34 1852.88,-34"/>
<polygon fill="red" stroke="red" points="1853,-37.5 1863,-34 1853,-30.5 1853,-37.5"/>
</g>
<!-- Node0x600000730c90 -->
<g id="node17" class="node">
<title>Node0x600000730c90</title>
<polygon fill="none" stroke="black" points="1987,-9 1987,-77 2075,-77 2075,-9 1987,-9"/>
<text text-anchor="middle" x="2031" y="-66.6" font-family="Times,serif" font-size="8.00">word: company</text>
<polyline fill="none" stroke="black" points="1987,-60 2075,-60 "/>
<text text-anchor="middle" x="2031" y="-49.6" font-family="Times,serif" font-size="8.00">size: 6</text>
<polyline fill="none" stroke="black" points="1987,-43 2075,-43 "/>
<text text-anchor="middle" x="2031" y="-32.6" font-family="Times,serif" font-size="8.00">next: 0x6000007318f0</text>
<polyline fill="none" stroke="black" points="1987,-26 2075,-26 "/>
<text text-anchor="middle" x="2031" y="-15.6" font-family="Times,serif" font-size="8.00">prev: 0x600000703c30</text>
</g>
<!-- Node0x600000703c30&#45;&gt;Node0x600000730c90 -->
<g id="edge16" class="edge">
<title>Node0x600000703c30:n&#45;&gt;Node0x600000730c90:n</title>
<path fill="none" stroke="red" d="M1951,-34C1963,-34 1968.25,-34 1976.88,-34"/>
<polygon fill="red" stroke="red" points="1977,-37.5 1987,-34 1977,-30.5 1977,-37.5"/>
</g>
<!-- Node0x6000007318f0 -->
<g id="node18" class="node">
<title>Node0x6000007318f0</title>
<polygon fill="none" stroke="black" points="2111,-9 2111,-77 2199,-77 2199,-9 2111,-9"/>
<text text-anchor="middle" x="2155" y="-66.6" font-family="Times,serif" font-size="8.00">word: stones</text>
<polyline fill="none" stroke="black" points="2111,-60 2199,-60 "/>
<text text-anchor="middle" x="2155" y="-49.6" font-family="Times,serif" font-size="8.00">size: 2</text>
<polyline fill="none" stroke="black" points="2111,-43 2199,-43 "/>
<text text-anchor="middle" x="2155" y="-32.6" font-family="Times,serif" font-size="8.00">next: 0x6000007319e0</text>
<polyline fill="none" stroke="black" points="2111,-26 2199,-26 "/>
<text text-anchor="middle" x="2155" y="-15.6" font-family="Times,serif" font-size="8.00">prev: 0x600000730c90</text>
</g>
<!-- Node0x600000730c90&#45;&gt;Node0x6000007318f0 -->
<g id="edge17" class="edge">
<title>Node0x600000730c90:n&#45;&gt;Node0x6000007318f0:n</title>
<path fill="none" stroke="red" d="M2075,-34C2087,-34 2092.25,-34 2100.88,-34"/>
<polygon fill="red" stroke="red" points="2101,-37.5 2111,-34 2101,-30.5 2101,-37.5"/>
</g>
<!-- Node0x6000007319e0 -->
<g id="node19" class="node">
<title>Node0x6000007319e0</title>
<polygon fill="none" stroke="black" points="2235,-9 2235,-77 2322,-77 2322,-9 2235,-9"/>
<text text-anchor="middle" x="2278.5" y="-66.6" font-family="Times,serif" font-size="8.00">word: Revolts</text>
<polyline fill="none" stroke="black" points="2235,-60 2322,-60 "/>
<text text-anchor="middle" x="2278.5" y="-49.6" font-family="Times,serif" font-size="8.00">size: 1</text>
<polyline fill="none" stroke="black" points="2235,-43 2322,-43 "/>
<text text-anchor="middle" x="2278.5" y="-32.6" font-family="Times,serif" font-size="8.00">next: 0x600000731e30</text>
<polyline fill="none" stroke="black" points="2235,-26 2322,-26 "/>
<text text-anchor="middle" x="2278.5" y="-15.6" font-family="Times,serif" font-size="8.00">prev: 0x6000007318f0</text>
</g>
<!-- Node0x6000007318f0&#45;&gt;Node0x6000007319e0 -->
<g id="edge18" class="edge">
<title>Node0x6000007318f0:n&#45;&gt;Node0x6000007319e0:n</title>
<path fill="none" stroke="red" d="M2199,-34C2211,-34 2216.25,-34 2224.88,-34"/>
<polygon fill="red" stroke="red" points="2225,-37.5 2235,-34 2225,-30.5 2225,-37.5"/>
</g>
<!-- Node0x600000731e30 -->
<g id="node20" class="node">
<title>Node0x600000731e30</title>
<polygon fill="none" stroke="black" points="2358,-9 2358,-77 2446,-77 2446,-9 2358,-9"/>
<text text-anchor="middle" x="2402" y="-66.6" font-family="Times,serif" font-size="8.00">word: encamp</text>
<polyline fill="none" stroke="black" points="2358,-60 2446,-60 "/>
<text text-anchor="middle" x="2402" y="-49.6" font-family="Times,serif" font-size="8.00">size: 1</text>
<polyline fill="none" stroke="black" points="2358,-43 2446,-43 "/>
<text text-anchor="middle" x="2402" y="-32.6" font-family="Times,serif" font-size="8.00">next: 0x600000734d50</text>
<polyline fill="none" stroke="black" points="2358,-26 2446,-26 "/>
<text text-anchor="middle" x="2402" y="-15.6" font-family="Times,serif" font-size="8.00">prev: 0x6000007319e0</text>
</g>
<!-- Node0x6000007319e0&#45;&gt;Node0x600000731e30 -->
<g id="edge19" class="edge">
<title>Node0x6000007319e0:n&#45;&gt;Node0x600000731e30:n</title>
<path fill="none" stroke="red" d="M2322,-34C2334,-34 2339.25,-34 2347.88,-34"/>
<polygon fill="red" stroke="red" points="2348,-37.5 2358,-34 2348,-30.5 2348,-37.5"/>
</g>
<!-- Node0x600000734d50 -->
<g id="node21" class="node">
<title>Node0x600000734d50</title>
<polygon fill="none" stroke="black" points="2482,-9 2482,-77 2570,-77 2570,-9 2482,-9"/>
<text text-anchor="middle" x="2526" y="-66.6" font-family="Times,serif" font-size="8.00">word: confidence</text>
<polyline fill="none" stroke="black" points="2482,-60 2570,-60 "/>
<text text-anchor="middle" x="2526" y="-49.6" font-family="Times,serif" font-size="8.00">size: 1</text>
<polyline fill="none" stroke="black" points="2482,-43 2570,-43 "/>
<text text-anchor="middle" x="2526" y="-32.6" font-family="Times,serif" font-size="8.00">next: 0x6000007355f0</text>
<polyline fill="none" stroke="black" points="2482,-26 2570,-26 "/>
<text text-anchor="middle" x="2526" y="-15.6" font-family="Times,serif" font-size="8.00">prev: 0x600000731e30</text>
</g>
<!-- Node0x600000731e30&#45;&gt;Node0x600000734d50 -->
<g id="edge20" class="edge">
<title>Node0x600000731e30:n&#45;&gt;Node0x600000734d50:n</title>
<path fill="none" stroke="red" d="M2446,-34C2458,-34 2463.25,-34 2471.88,-34"/>
<polygon fill="red" stroke="red" points="2472,-37.5 2482,-34 2472,-30.5 2472,-37.5"/>
</g>
<!-- Node0x6000007355f0 -->
<g id="node22" class="node">
<title>Node0x6000007355f0</title>
<polygon fill="none" stroke="black" points="2606,-9 2606,-77 2694,-77 2694,-9 2606,-9"/>
<text text-anchor="middle" x="2650" y="-66.6" font-family="Times,serif" font-size="8.00">word: protest</text>
<polyline fill="none" stroke="black" points="2606,-60 2694,-60 "/>
<text text-anchor="middle" x="2650" y="-49.6" font-family="Times,serif" font-size="8.00">size: 3</text>
<polyline fill="none" stroke="black" points="2606,-43 2694,-43 "/>
<text text-anchor="middle" x="2650" y="-32.6" font-family="Times,serif" font-size="8.00">next: 0x600000736a60</text>
<polyline fill="none" stroke="black" points="2606,-26 2694,-26 "/>
<text text-anchor="middle" x="2650" y="-15.6" font-family="Times,serif" font-size="8.00">prev: 0x600000734d50</text>
</g>
<!-- Node0x600000734d50&#45;&gt;Node0x6000007355f0 -->
<g id="edge21" class="edge">
<title>Node0x600000734d50:n&#45;&gt;Node0x6000007355f0:n</title>
<path fill="none" stroke="red" d="M2570,-34C2582,-34 2587.25,-34 2595.88,-34"/>
<polygon fill="red" stroke="red" points="2596,-37.5 2606,-34 2596,-30.5 2596,-37.5"/>
</g>
<!-- Node0x600000736a60 -->
<g id="node23" class="node">
<title>Node0x600000736a60</title>
<polygon fill="none" stroke="black" points="2730,-9 2730,-77 2817,-77 2817,-9 2730,-9"/>
<text text-anchor="middle" x="2773.5" y="-66.6" font-family="Times,serif" font-size="8.00">word: hie</text>
<polyline fill="none" stroke="black" points="2730,-60 2817,-60 "/>
<text text-anchor="middle" x="2773.5" y="-49.6" font-family="Times,serif" font-size="8.00">size: 2</text>
<polyline fill="none" stroke="black" points="2730,-43 2817,-43 "/>
<text text-anchor="middle" x="2773.5" y="-32.6" font-family="Times,serif" font-size="8.00">next: 0x600000738990</text>
<polyline fill="none" stroke="black" points="2730,-26 2817,-26 "/>
<text text-anchor="middle" x="2773.5" y="-15.6" font-family="Times,serif" font-size="8.00">prev: 0x6000007355f0</text>
</g>
<!-- Node0x6000007355f0&#45;&gt;Node0x600000736a60 -->
<g id="edge22" class="edge">
<title>Node0x6000007355f0:n&#45;&gt;Node0x600000736a60:n</title>
<path fill="none" stroke="red" d="M2694,-34C2706,-34 2711.25,-34 2719.88,-34"/>
<polygon fill="red" stroke="red" points="2720,-37.5 2730,-34 2720,-30.5 2720,-37.5"/>
</g>
<!-- Node0x600000738990 -->
<g id="node24" class="node">
<title>Node0x600000738990</title>
<polygon fill="none" stroke="black" points="2853,-9 2853,-77 2941,-77 2941,-9 2853,-9"/>
<text text-anchor="middle" x="2897" y="-66.6" font-family="Times,serif" font-size="8.00">word: effeminate</text>
<polyline fill="none" stroke="black" points="2853,-60 2941,-60 "/>
<text text-anchor="middle" x="2897" y="-49.6" font-family="Times,serif" font-size="8.00">size: 1</text>
<polyline fill="none" stroke="black" points="2853,-43 2941,-43 "/>
<text text-anchor="middle" x="2897" y="-32.6" font-family="Times,serif" font-size="8.00">next: 0x600000739cb0</text>
<polyline fill="none" stroke="black" points="2853,-26 2941,-26 "/>
<text text-anchor="middle" x="2897" y="-15.6" font-family="Times,serif" font-size="8.00">prev: 0x600000736a60</text>
</g>
<!-- Node0x600000736a60&#45;&gt;Node0x600000738990 -->
<g id="edge23" class="edge">
<title>Node0x600000736a60:n&#45;&gt;Node0x600000738990:n</title>
<path fill="none" stroke="red" d="M2817,-34C2829,-34 2834.25,-34 2842.88,-34"/>
<polygon fill="red" stroke="red" points="2843,-37.5 2853,-34 2843,-30.5 2843,-37.5"/>
</g>
<!-- Node0x600000739cb0 -->
<g id="node25" class="node">
<title>Node0x600000739cb0</title>
<polygon fill="none" stroke="black" points="2977,-9 2977,-77 3065,-77 3065,-9 2977,-9"/>
<text text-anchor="middle" x="3021" y="-66.6" font-family="Times,serif" font-size="8.00">word: Spread</text>
<polyline fill="none" stroke="black" points="2977,-60 3065,-60 "/>
<text text-anchor="middle" x="3021" y="-49.6" font-family="Times,serif" font-size="8.00">size: 1</text>
<polyline fill="none" stroke="black" points="2977,-43 3065,-43 "/>
<text text-anchor="middle" x="3021" y="-32.6" font-family="Times,serif" font-size="8.00">next: 0x60000073a070</text>
<polyline fill="none" stroke="black" points="2977,-26 3065,-26 "/>
<text text-anchor="middle" x="3021" y="-15.6" font-family="Times,serif" font-size="8.00">prev: 0x600000738990</text>
</g>
<!-- Node0x600000738990&#45;&gt;Node0x600000739cb0 -->
<g id="edge24" class="edge">
<title>Node0x600000738990:n&#45;&gt;Node0x600000739cb0:n</title>
<path fill="none" stroke="red" d="M2941,-34C2953,-34 2958.25,-34 2966.88,-34"/>
<polygon fill="red" stroke="red" points="2967,-37.5 2977,-34 2967,-30.5 2967,-37.5"/>
</g>
<!-- Node0x60000073a070 -->
<g id="node26" class="node">
<title>Node0x60000073a070</title>
<polygon fill="none" stroke="black" points="3101,-9 3101,-77 3189,-77 3189,-9 3101,-9"/>
<text text-anchor="middle" x="3145" y="-66.6" font-family="Times,serif" font-size="8.00">word: maidenhoods</text>
<polyline fill="none" stroke="black" points="3101,-60 3189,-60 "/>
<text text-anchor="middle" x="3145" y="-49.6" font-family="Times,serif" font-size="8.00">size: 1</text>
<polyline fill="none" stroke="black" points="3101,-43 3189,-43 "/>
<text text-anchor="middle" x="3145" y="-32.6" font-family="Times,serif" font-size="8.00">next: 0x60000073abb0</text>
<polyline fill="none" stroke="black" points="3101,-26 3189,-26 "/>
<text text-anchor="middle" x="3145" y="-15.6" font-family="Times,serif" font-size="8.00">prev: 0x600000739cb0</text>
</g>
<!-- Node0x600000739cb0&#45;&gt;Node0x60000073a070 -->
<g id="edge25" class="edge">
<title>Node0x600000739cb0:n&#45;&gt;Node0x60000073a070:n</title>
<path fill="none" stroke="red" d="M3065,-34C3077,-34 3082.25,-34 3090.88,-34"/>
<polygon fill="red" stroke="red" points="3091,-37.5 3101,-34 3091,-30.5 3091,-37.5"/>
</g>
<!-- Node0x60000073abb0 -->
<g id="node27" class="node">
<title>Node0x60000073abb0</title>
<polygon fill="none" stroke="black" points="3225,-9 3225,-77 3313,-77 3313,-9 3225,-9"/>
<text text-anchor="middle" x="3269" y="-66.6" font-family="Times,serif" font-size="8.00">word: dragon</text>
<polyline fill="none" stroke="black" points="3225,-60 3313,-60 "/>
<text text-anchor="middle" x="3269" y="-49.6" font-family="Times,serif" font-size="8.00">size: 1</text>
<polyline fill="none" stroke="black" points="3225,-43 3313,-43 "/>
<text text-anchor="middle" x="3269" y="-32.6" font-family="Times,serif" font-size="8.00">next: 0x60000073dbc0</text>
<polyline fill="none" stroke="black" points="3225,-26 3313,-26 "/>
<text text-anchor="middle" x="3269" y="-15.6" font-family="Times,serif" font-size="8.00">prev: 0x60000073a070</text>
</g>
<!-- Node0x60000073a070&#45;&gt;Node0x60000073abb0 -->
<g id="edge26" class="edge">
<title>Node0x60000073a070:n&#45;&gt;Node0x60000073abb0:n</title>
<path fill="none" stroke="red" d="M3189,-34C3201,-34 3206.25,-34 3214.88,-34"/>
<polygon fill="red" stroke="red" points="3215,-37.5 3225,-34 3215,-30.5 3215,-37.5"/>
</g>
<!-- Node0x60000073dbc0 -->
<g id="node28" class="node">
<title>Node0x60000073dbc0</title>
<polygon fill="none" stroke="black" points="3349,-9 3349,-77 3437,-77 3437,-9 3349,-9"/>
<text text-anchor="middle" x="3393" y="-66.6" font-family="Times,serif" font-size="8.00">word: pomegranate</text>
<polyline fill="none" stroke="black" points="3349,-60 3437,-60 "/>
<text text-anchor="middle" x="3393" y="-49.6" font-family="Times,serif" font-size="8.00">size: 1</text>
<polyline fill="none" stroke="black" points="3349,-43 3437,-43 "/>
<text text-anchor="middle" x="3393" y="-32.6" font-family="Times,serif" font-size="8.00">next: 0x60000073e1c0</text>
<polyline fill="none" stroke="black" points="3349,-26 3437,-26 "/>
<text text-anchor="middle" x="3393" y="-15.6" font-family="Times,serif" font-size="8.00">prev: 0x60000073abb0</text>
</g>
<!-- Node0x60000073abb0&#45;&gt;Node0x60000073dbc0 -->
<g id="edge27" class="edge">
<title>Node0x60000073abb0:n&#45;&gt;Node0x60000073dbc0:n</title>
<path fill="none" stroke="red" d="M3313,-34C3325,-34 3330.25,-34 3338.88,-34"/>
<polygon fill="red" stroke="red" points="3339,-37.5 3349,-34 3339,-30.5 3339,-37.5"/>
</g>
<!-- Node0x60000073e1c0 -->
<g id="node29" class="node">
<title>Node0x60000073e1c0</title>
<polygon fill="none" stroke="black" points="3473,-9 3473,-77 3561,-77 3561,-9 3473,-9"/>
<text text-anchor="middle" x="3517" y="-66.6" font-family="Times,serif" font-size="8.00">word: hunt</text>
<polyline fill="none" stroke="black" points="3473,-60 3561,-60 "/>
<text text-anchor="middle" x="3517" y="-49.6" font-family="Times,serif" font-size="8.00">size: 2</text>
<polyline fill="none" stroke="black" points="3473,-43 3561,-43 "/>
<text text-anchor="middle" x="3517" y="-32.6" font-family="Times,serif" font-size="8.00">next: 0x60000073ee50</text>
<polyline fill="none" stroke="black" points="3473,-26 3561,-26 "/>
<text text-anchor="middle" x="3517" y="-15.6" font-family="Times,serif" font-size="8.00">prev: 0x60000073dbc0</text>
</g>
<!-- Node0x60000073dbc0&#45;&gt;Node0x60000073e1c0 -->
<g id="edge28" class="edge">
<title>Node0x60000073dbc0:n&#45;&gt;Node0x60000073e1c0:n</title>
<path fill="none" stroke="red" d="M3437,-34C3449,-34 3454.25,-34 3462.88,-34"/>
<polygon fill="red" stroke="red" points="3463,-37.5 3473,-34 3463,-30.5 3463,-37.5"/>
</g>
<!-- Node0x60000073ee50 -->
<g id="node30" class="node">
<title>Node0x60000073ee50</title>
<polygon fill="none" stroke="black" points="3597,-9 3597,-77 3685,-77 3685,-9 3597,-9"/>
<text text-anchor="middle" x="3641" y="-66.6" font-family="Times,serif" font-size="8.00">word: tempest</text>
<polyline fill="none" stroke="black" points="3597,-60 3685,-60 "/>
<text text-anchor="middle" x="3641" y="-49.6" font-family="Times,serif" font-size="8.00">size: 1</text>
<polyline fill="none" stroke="black" points="3597,-43 3685,-43 "/>
<text text-anchor="middle" x="3641" y="-32.6" font-family="Times,serif" font-size="8.00">next: 0x60000073fae0</text>
<polyline fill="none" stroke="black" points="3597,-26 3685,-26 "/>
<text text-anchor="middle" x="3641" y="-15.6" font-family="Times,serif" font-size="8.00">prev: 0x60000073e1c0</text>
</g>
<!-- Node0x60000073e1c0&#45;&gt;Node0x60000073ee50 -->
<g id="edge29" class="edge">
<title>Node0x60000073e1c0:n&#45;&gt;Node0x60000073ee50:n</title>
<path fill="none" stroke="red" d="M3561,-34C3573,-34 3578.25,-34 3586.88,-34"/>
<polygon fill="red" stroke="red" points="3587,-37.5 3597,-34 3587,-30.5 3587,-37.5"/>
</g>
<!-- Node0x60000073fae0 -->
<g id="node31" class="node">
<title>Node0x60000073fae0</title>
<polygon fill="none" stroke="black" points="3721,-9 3721,-77 3809,-77 3809,-9 3721,-9"/>
<text text-anchor="middle" x="3765" y="-66.6" font-family="Times,serif" font-size="8.00">word: cast</text>
<polyline fill="none" stroke="black" points="3721,-60 3809,-60 "/>
<text text-anchor="middle" x="3765" y="-49.6" font-family="Times,serif" font-size="8.00">size: 1</text>
<polyline fill="none" stroke="black" points="3721,-43 3809,-43 "/>
<text text-anchor="middle" x="3765" y="-32.6" font-family="Times,serif" font-size="8.00">next: 0x600000720150</text>
<polyline fill="none" stroke="black" points="3721,-26 3809,-26 "/>
<text text-anchor="middle" x="3765" y="-15.6" font-family="Times,serif" font-size="8.00">prev: 0x60000073ee50</text>
</g>
<!-- Node0x60000073ee50&#45;&gt;Node0x60000073fae0 -->
<g id="edge30" class="edge">
<title>Node0x60000073ee50:n&#45;&gt;Node0x60000073fae0:n</title>
<path fill="none" stroke="red" d="M3685,-34C3697,-34 3702.25,-34 3710.88,-34"/>
<polygon fill="red" stroke="red" points="3711,-37.5 3721,-34 3711,-30.5 3711,-37.5"/>
</g>
<!-- Node0x600000720150 -->
<g id="node32" class="node">
<title>Node0x600000720150</title>
<polygon fill="none" stroke="black" points="3845,-9 3845,-77 3932,-77 3932,-9 3845,-9"/>
<text text-anchor="middle" x="3888.5" y="-66.6" font-family="Times,serif" font-size="8.00">word: Immoderately</text>
<polyline fill="none" stroke="black" points="3845,-60 3932,-60 "/>
<text text-anchor="middle" x="3888.5" y="-49.6" font-family="Times,serif" font-size="8.00">size: 1</text>
<polyline fill="none" stroke="black" points="3845,-43 3932,-43 "/>
<text text-anchor="middle" x="3888.5" y="-32.6" font-family="Times,serif" font-size="8.00">next: 0x60000070b000</text>
<polyline fill="none" stroke="black" points="3845,-26 3932,-26 "/>
<text text-anchor="middle" x="3888.5" y="-15.6" font-family="Times,serif" font-size="8.00">prev: 0x60000073fae0</text>
</g>
<!-- Node0x60000073fae0&#45;&gt;Node0x600000720150 -->
<g id="edge31" class="edge">
<title>Node0x60000073fae0:n&#45;&gt;Node0x600000720150:n</title>
<path fill="none" stroke="red" d="M3809,-34C3821,-34 3826.25,-34 3834.88,-34"/>
<polygon fill="red" stroke="red" points="3835,-37.5 3845,-34 3835,-30.5 3835,-37.5"/>
</g>
<!-- Node0x60000070b000 -->
<g id="node33" class="node">
<title>Node0x60000070b000</title>
<polygon fill="none" stroke="black" points="3968,-9 3968,-77 4056,-77 4056,-9 3968,-9"/>
<text text-anchor="middle" x="4012" y="-66.6" font-family="Times,serif" font-size="8.00">word: Heart</text>
<polyline fill="none" stroke="black" points="3968,-60 4056,-60 "/>
<text text-anchor="middle" x="4012" y="-49.6" font-family="Times,serif" font-size="8.00">size: 4</text>
<polyline fill="none" stroke="black" points="3968,-43 4056,-43 "/>
<text text-anchor="middle" x="4012" y="-32.6" font-family="Times,serif" font-size="8.00">next: 0x60000070bf90</text>
<polyline fill="none" stroke="black" points="3968,-26 4056,-26 "/>
<text text-anchor="middle" x="4012" y="-15.6" font-family="Times,serif" font-size="8.00">prev: 0x600000720150</text>
</g>
<!-- Node0x600000720150&#45;&gt;Node0x60000070b000 -->
<g id="edge32" class="edge">
<title>Node0x600000720150:n&#45;&gt;Node0x60000070b000:n</title>
<path fill="none" stroke="red" d="M3932,-34C3944,-34 3949.25,-34 3957.88,-34"/>
<polygon fill="red" stroke="red" points="3958,-37.5 3968,-34 3958,-30.5 3958,-37.5"/>
</g>
<!-- Node0x60000070bf90 -->
<g id="node34" class="node">
<title>Node0x60000070bf90</title>
<polygon fill="none" stroke="black" points="4092,-9 4092,-77 4180,-77 4180,-9 4092,-9"/>
<text text-anchor="middle" x="4136" y="-66.6" font-family="Times,serif" font-size="8.00">word: packthread</text>
<polyline fill="none" stroke="black" points="4092,-60 4180,-60 "/>
<text text-anchor="middle" x="4136" y="-49.6" font-family="Times,serif" font-size="8.00">size: 1</text>
<polyline fill="none" stroke="black" points="4092,-43 4180,-43 "/>
<text text-anchor="middle" x="4136" y="-32.6" font-family="Times,serif" font-size="8.00">next: 0x6000007242a0</text>
<polyline fill="none" stroke="black" points="4092,-26 4180,-26 "/>
<text text-anchor="middle" x="4136" y="-15.6" font-family="Times,serif" font-size="8.00">prev: 0x60000070b000</text>
</g>
<!-- Node0x60000070b000&#45;&gt;Node0x60000070bf90 -->
<g id="edge33" class="edge">
<title>Node0x60000070b000:n&#45;&gt;Node0x60000070bf90:n</title>
<path fill="none" stroke="red" d="M4056,-34C4068,-34 4073.25,-34 4081.88,-34"/>
<polygon fill="red" stroke="red" points="4082,-37.5 4092,-34 4082,-30.5 4082,-37.5"/>
</g>
<!-- Node0x6000007242a0 -->
<g id="node35" class="node">
<title>Node0x6000007242a0</title>
<polygon fill="none" stroke="black" points="4216,-9 4216,-77 4303,-77 4303,-9 4216,-9"/>
<text text-anchor="middle" x="4259.5" y="-66.6" font-family="Times,serif" font-size="8.00">word: taker</text>
<polyline fill="none" stroke="black" points="4216,-60 4303,-60 "/>
<text text-anchor="middle" x="4259.5" y="-49.6" font-family="Times,serif" font-size="8.00">size: 1</text>
<polyline fill="none" stroke="black" points="4216,-43 4303,-43 "/>
<text text-anchor="middle" x="4259.5" y="-32.6" font-family="Times,serif" font-size="8.00">next: 0x0</text>
<polyline fill="none" stroke="black" points="4216,-26 4303,-26 "/>
<text text-anchor="middle" x="4259.5" y="-15.6" font-family="Times,serif" font-size="8.00">prev: 0x60000070bf90</text>
</g>
<!-- Node0x60000070bf90&#45;&gt;Node0x6000007242a0 -->
<g id="edge34" class="edge">
<title>Node0x60000070bf90:n&#45;&gt;Node0x6000007242a0:n</title>
<path fill="none" stroke="red" d="M4180,-34C4192,-34 4197.25,-34 4205.88,-34"/>
<polygon fill="red" stroke="red" points="4206,-37.5 4216,-34 4206,-30.5 4206,-37.5"/>
</g>
</g>
</svg>
