<?xml version="1.0" encoding="UTF-8" standalone="no"?>
<!DOCTYPE svg PUBLIC "-//W3C//DTD SVG 1.1//EN"
 "http://www.w3.org/Graphics/SVG/1.1/DTD/svg11.dtd">
<!-- Generated by graphviz version 2.50.0 (20211204.2007)
 -->
<!-- Title: G Pages: 1 -->
<svg width="4073pt" height="117pt"
 viewBox="0.00 0.00 4073.00 117.00" xmlns="http://www.w3.org/2000/svg" xmlns:xlink="http://www.w3.org/1999/xlink">
<g id="graph0" class="graph" transform="scale(1 1) rotate(0) translate(4 113)">
<title>G</title>
<polygon fill="white" stroke="transparent" points="-4,4 -4,-113 4069,-113 4069,4 -4,4"/>
<g id="clust3" class="cluster">
<title>cluster612</title>
<polygon fill="none" stroke="black" points="255,-8 255,-101 343,-101 343,-8 255,-8"/>
<text text-anchor="middle" x="299" y="-85.8" font-family="Times,serif" font-size="14.00">612</text>
</g>
<g id="clust1" class="cluster">
<title>cluster610</title>
<polygon fill="none" stroke="black" points="8,-8 8,-101 95,-101 95,-8 8,-8"/>
<text text-anchor="middle" x="51.5" y="-85.8" font-family="Times,serif" font-size="14.00">610</text>
</g>
<g id="clust2" class="cluster">
<title>cluster611</title>
<polygon fill="none" stroke="black" points="131,-8 131,-101 219,-101 219,-8 131,-8"/>
<text text-anchor="middle" x="175" y="-85.8" font-family="Times,serif" font-size="14.00">611</text>
</g>
<g id="clust4" class="cluster">
<title>cluster613</title>
<polygon fill="none" stroke="black" points="379,-8 379,-101 466,-101 466,-8 379,-8"/>
<text text-anchor="middle" x="422.5" y="-85.8" font-family="Times,serif" font-size="14.00">613</text>
</g>
<g id="clust5" class="cluster">
<title>cluster614</title>
<polygon fill="none" stroke="black" points="502,-8 502,-101 590,-101 590,-8 502,-8"/>
<text text-anchor="middle" x="546" y="-85.8" font-family="Times,serif" font-size="14.00">614</text>
</g>
<g id="clust6" class="cluster">
<title>cluster615</title>
<polygon fill="none" stroke="black" points="626,-8 626,-101 714,-101 714,-8 626,-8"/>
<text text-anchor="middle" x="670" y="-85.8" font-family="Times,serif" font-size="14.00">615</text>
</g>
<g id="clust7" class="cluster">
<title>cluster616</title>
<polygon fill="none" stroke="black" points="750,-8 750,-101 838,-101 838,-8 750,-8"/>
<text text-anchor="middle" x="794" y="-85.8" font-family="Times,serif" font-size="14.00">616</text>
</g>
<g id="clust8" class="cluster">
<title>cluster617</title>
<polygon fill="none" stroke="black" points="874,-8 874,-101 961,-101 961,-8 874,-8"/>
<text text-anchor="middle" x="917.5" y="-85.8" font-family="Times,serif" font-size="14.00">617</text>
</g>
<g id="clust9" class="cluster">
<title>cluster618</title>
<polygon fill="none" stroke="black" points="997,-8 997,-101 1085,-101 1085,-8 997,-8"/>
<text text-anchor="middle" x="1041" y="-85.8" font-family="Times,serif" font-size="14.00">618</text>
</g>
<g id="clust10" class="cluster">
<title>cluster619</title>
<polygon fill="none" stroke="black" points="1121,-8 1121,-101 1208,-101 1208,-8 1121,-8"/>
<text text-anchor="middle" x="1164.5" y="-85.8" font-family="Times,serif" font-size="14.00">619</text>
</g>
<g id="clust11" class="cluster">
<title>cluster620</title>
<polygon fill="none" stroke="black" points="1244,-8 1244,-101 1332,-101 1332,-8 1244,-8"/>
<text text-anchor="middle" x="1288" y="-85.8" font-family="Times,serif" font-size="14.00">620</text>
</g>
<g id="clust12" class="cluster">
<title>cluster621</title>
<polygon fill="none" stroke="black" points="1368,-8 1368,-101 1456,-101 1456,-8 1368,-8"/>
<text text-anchor="middle" x="1412" y="-85.8" font-family="Times,serif" font-size="14.00">621</text>
</g>
<g id="clust13" class="cluster">
<title>cluster622</title>
<polygon fill="none" stroke="black" points="1492,-8 1492,-101 1580,-101 1580,-8 1492,-8"/>
<text text-anchor="middle" x="1536" y="-85.8" font-family="Times,serif" font-size="14.00">622</text>
</g>
<g id="clust14" class="cluster">
<title>cluster623</title>
<polygon fill="none" stroke="black" points="1616,-8 1616,-101 1704,-101 1704,-8 1616,-8"/>
<text text-anchor="middle" x="1660" y="-85.8" font-family="Times,serif" font-size="14.00">623</text>
</g>
<g id="clust15" class="cluster">
<title>cluster624</title>
<polygon fill="none" stroke="black" points="1740,-8 1740,-101 1828,-101 1828,-8 1740,-8"/>
<text text-anchor="middle" x="1784" y="-85.8" font-family="Times,serif" font-size="14.00">624</text>
</g>
<g id="clust16" class="cluster">
<title>cluster625</title>
<polygon fill="none" stroke="black" points="1864,-8 1864,-101 1952,-101 1952,-8 1864,-8"/>
<text text-anchor="middle" x="1908" y="-85.8" font-family="Times,serif" font-size="14.00">625</text>
</g>
<g id="clust17" class="cluster">
<title>cluster626</title>
<polygon fill="none" stroke="black" points="1988,-8 1988,-101 2075,-101 2075,-8 1988,-8"/>
<text text-anchor="middle" x="2031.5" y="-85.8" font-family="Times,serif" font-size="14.00">626</text>
</g>
<g id="clust18" class="cluster">
<title>cluster627</title>
<polygon fill="none" stroke="black" points="2111,-8 2111,-101 2199,-101 2199,-8 2111,-8"/>
<text text-anchor="middle" x="2155" y="-85.8" font-family="Times,serif" font-size="14.00">627</text>
</g>
<g id="clust19" class="cluster">
<title>cluster628</title>
<polygon fill="none" stroke="black" points="2235,-8 2235,-101 2323,-101 2323,-8 2235,-8"/>
<text text-anchor="middle" x="2279" y="-85.8" font-family="Times,serif" font-size="14.00">628</text>
</g>
<g id="clust20" class="cluster">
<title>cluster629</title>
<polygon fill="none" stroke="black" points="2359,-8 2359,-101 2447,-101 2447,-8 2359,-8"/>
<text text-anchor="middle" x="2403" y="-85.8" font-family="Times,serif" font-size="14.00">629</text>
</g>
<g id="clust21" class="cluster">
<title>cluster630</title>
<polygon fill="none" stroke="black" points="2483,-8 2483,-101 2570,-101 2570,-8 2483,-8"/>
<text text-anchor="middle" x="2526.5" y="-85.8" font-family="Times,serif" font-size="14.00">630</text>
</g>
<g id="clust22" class="cluster">
<title>cluster631</title>
<polygon fill="none" stroke="black" points="2606,-8 2606,-101 2694,-101 2694,-8 2606,-8"/>
<text text-anchor="middle" x="2650" y="-85.8" font-family="Times,serif" font-size="14.00">631</text>
</g>
<g id="clust23" class="cluster">
<title>cluster632</title>
<polygon fill="none" stroke="black" points="2730,-8 2730,-101 2818,-101 2818,-8 2730,-8"/>
<text text-anchor="middle" x="2774" y="-85.8" font-family="Times,serif" font-size="14.00">632</text>
</g>
<g id="clust24" class="cluster">
<title>cluster633</title>
<polygon fill="none" stroke="black" points="2854,-8 2854,-101 2942,-101 2942,-8 2854,-8"/>
<text text-anchor="middle" x="2898" y="-85.8" font-family="Times,serif" font-size="14.00">633</text>
</g>
<g id="clust25" class="cluster">
<title>cluster634</title>
<polygon fill="none" stroke="black" points="2978,-8 2978,-101 3066,-101 3066,-8 2978,-8"/>
<text text-anchor="middle" x="3022" y="-85.8" font-family="Times,serif" font-size="14.00">634</text>
</g>
<g id="clust26" class="cluster">
<title>cluster635</title>
<polygon fill="none" stroke="black" points="3102,-8 3102,-101 3190,-101 3190,-8 3102,-8"/>
<text text-anchor="middle" x="3146" y="-85.8" font-family="Times,serif" font-size="14.00">635</text>
</g>
<g id="clust27" class="cluster">
<title>cluster636</title>
<polygon fill="none" stroke="black" points="3226,-8 3226,-101 3314,-101 3314,-8 3226,-8"/>
<text text-anchor="middle" x="3270" y="-85.8" font-family="Times,serif" font-size="14.00">636</text>
</g>
<g id="clust28" class="cluster">
<title>cluster637</title>
<polygon fill="none" stroke="black" points="3350,-8 3350,-101 3438,-101 3438,-8 3350,-8"/>
<text text-anchor="middle" x="3394" y="-85.8" font-family="Times,serif" font-size="14.00">637</text>
</g>
<g id="clust29" class="cluster">
<title>cluster638</title>
<polygon fill="none" stroke="black" points="3474,-8 3474,-101 3562,-101 3562,-8 3474,-8"/>
<text text-anchor="middle" x="3518" y="-85.8" font-family="Times,serif" font-size="14.00">638</text>
</g>
<g id="clust30" class="cluster">
<title>cluster639</title>
<polygon fill="none" stroke="black" points="3598,-8 3598,-101 3685,-101 3685,-8 3598,-8"/>
<text text-anchor="middle" x="3641.5" y="-85.8" font-family="Times,serif" font-size="14.00">639</text>
</g>
<g id="clust31" class="cluster">
<title>cluster640</title>
<polygon fill="none" stroke="black" points="3721,-8 3721,-101 3809,-101 3809,-8 3721,-8"/>
<text text-anchor="middle" x="3765" y="-85.8" font-family="Times,serif" font-size="14.00">640</text>
</g>
<g id="clust32" class="cluster">
<title>cluster641</title>
<polygon fill="none" stroke="black" points="3845,-8 3845,-101 3933,-101 3933,-8 3845,-8"/>
<text text-anchor="middle" x="3889" y="-85.8" font-family="Times,serif" font-size="14.00">641</text>
</g>
<g id="clust33" class="cluster">
<title>cluster642</title>
<polygon fill="none" stroke="black" points="3969,-8 3969,-101 4057,-101 4057,-8 3969,-8"/>
<text text-anchor="middle" x="4013" y="-85.8" font-family="Times,serif" font-size="14.00">642</text>
</g>
<!-- Node0x6000007107e0 -->
<g id="node1" class="node">
<title>Node0x6000007107e0</title>
<polygon fill="none" stroke="black" points="8,-9 8,-77 95,-77 95,-9 8,-9"/>
<text text-anchor="middle" x="51.5" y="-66.6" font-family="Times,serif" font-size="8.00">word: MAN</text>
<polyline fill="none" stroke="black" points="8,-60 95,-60 "/>
<text text-anchor="middle" x="51.5" y="-49.6" font-family="Times,serif" font-size="8.00">size: 1</text>
<polyline fill="none" stroke="black" points="8,-43 95,-43 "/>
<text text-anchor="middle" x="51.5" y="-32.6" font-family="Times,serif" font-size="8.00">next: 0x600000710c60</text>
<polyline fill="none" stroke="black" points="8,-26 95,-26 "/>
<text text-anchor="middle" x="51.5" y="-15.6" font-family="Times,serif" font-size="8.00">prev: 0x0</text>
</g>
<!-- Node0x600000710c60 -->
<g id="node2" class="node">
<title>Node0x600000710c60</title>
<polygon fill="none" stroke="black" points="131,-9 131,-77 219,-77 219,-9 131,-9"/>
<text text-anchor="middle" x="175" y="-66.6" font-family="Times,serif" font-size="8.00">word: s</text>
<polyline fill="none" stroke="black" points="131,-60 219,-60 "/>
<text text-anchor="middle" x="175" y="-49.6" font-family="Times,serif" font-size="8.00">size: 271</text>
<polyline fill="none" stroke="black" points="131,-43 219,-43 "/>
<text text-anchor="middle" x="175" y="-32.6" font-family="Times,serif" font-size="8.00">next: 0x600000710f30</text>
<polyline fill="none" stroke="black" points="131,-26 219,-26 "/>
<text text-anchor="middle" x="175" y="-15.6" font-family="Times,serif" font-size="8.00">prev: 0x6000007107e0</text>
</g>
<!-- Node0x6000007107e0&#45;&gt;Node0x600000710c60 -->
<g id="edge1" class="edge">
<title>Node0x6000007107e0:n&#45;&gt;Node0x600000710c60:n</title>
<path fill="none" stroke="red" d="M95,-34C107,-34 112.25,-34 120.88,-34"/>
<polygon fill="red" stroke="red" points="121,-37.5 131,-34 121,-30.5 121,-37.5"/>
</g>
<!-- Node0x600000710f30 -->
<g id="node3" class="node">
<title>Node0x600000710f30</title>
<polygon fill="none" stroke="black" points="255,-9 255,-77 343,-77 343,-9 255,-9"/>
<text text-anchor="middle" x="299" y="-66.6" font-family="Times,serif" font-size="8.00">word: NURSE</text>
<polyline fill="none" stroke="black" points="255,-60 343,-60 "/>
<text text-anchor="middle" x="299" y="-49.6" font-family="Times,serif" font-size="8.00">size: 21</text>
<polyline fill="none" stroke="black" points="255,-43 343,-43 "/>
<text text-anchor="middle" x="299" y="-32.6" font-family="Times,serif" font-size="8.00">next: 0x6000007126a0</text>
<polyline fill="none" stroke="black" points="255,-26 343,-26 "/>
<text text-anchor="middle" x="299" y="-15.6" font-family="Times,serif" font-size="8.00">prev: 0x600000710c60</text>
</g>
<!-- Node0x600000710c60&#45;&gt;Node0x600000710f30 -->
<g id="edge2" class="edge">
<title>Node0x600000710c60:n&#45;&gt;Node0x600000710f30:n</title>
<path fill="none" stroke="red" d="M219,-34C231,-34 236.25,-34 244.88,-34"/>
<polygon fill="red" stroke="red" points="245,-37.5 255,-34 245,-30.5 245,-37.5"/>
</g>
<!-- Node0x6000007126a0 -->
<g id="node4" class="node">
<title>Node0x6000007126a0</title>
<polygon fill="none" stroke="black" points="379,-9 379,-77 466,-77 466,-9 379,-9"/>
<text text-anchor="middle" x="422.5" y="-66.6" font-family="Times,serif" font-size="8.00">word: colliers</text>
<polyline fill="none" stroke="black" points="379,-60 466,-60 "/>
<text text-anchor="middle" x="422.5" y="-49.6" font-family="Times,serif" font-size="8.00">size: 1</text>
<polyline fill="none" stroke="black" points="379,-43 466,-43 "/>
<text text-anchor="middle" x="422.5" y="-32.6" font-family="Times,serif" font-size="8.00">next: 0x600000712a90</text>
<polyline fill="none" stroke="black" points="379,-26 466,-26 "/>
<text text-anchor="middle" x="422.5" y="-15.6" font-family="Times,serif" font-size="8.00">prev: 0x600000710f30</text>
</g>
<!-- Node0x600000710f30&#45;&gt;Node0x6000007126a0 -->
<g id="edge3" class="edge">
<title>Node0x600000710f30:n&#45;&gt;Node0x6000007126a0:n</title>
<path fill="none" stroke="red" d="M343,-34C355,-34 360.25,-34 368.88,-34"/>
<polygon fill="red" stroke="red" points="369,-37.5 379,-34 369,-30.5 369,-37.5"/>
</g>
<!-- Node0x600000712a90 -->
<g id="node5" class="node">
<title>Node0x600000712a90</title>
<polygon fill="none" stroke="black" points="502,-9 502,-77 590,-77 590,-9 502,-9"/>
<text text-anchor="middle" x="546" y="-66.6" font-family="Times,serif" font-size="8.00">word: To</text>
<polyline fill="none" stroke="black" points="502,-60 590,-60 "/>
<text text-anchor="middle" x="546" y="-49.6" font-family="Times,serif" font-size="8.00">size: 84</text>
<polyline fill="none" stroke="black" points="502,-43 590,-43 "/>
<text text-anchor="middle" x="546" y="-32.6" font-family="Times,serif" font-size="8.00">next: 0x600000712be0</text>
<polyline fill="none" stroke="black" points="502,-26 590,-26 "/>
<text text-anchor="middle" x="546" y="-15.6" font-family="Times,serif" font-size="8.00">prev: 0x6000007126a0</text>
</g>
<!-- Node0x6000007126a0&#45;&gt;Node0x600000712a90 -->
<g id="edge4" class="edge">
<title>Node0x6000007126a0:n&#45;&gt;Node0x600000712a90:n</title>
<path fill="none" stroke="red" d="M466,-34C478,-34 483.25,-34 491.88,-34"/>
<polygon fill="red" stroke="red" points="492,-37.5 502,-34 492,-30.5 492,-37.5"/>
</g>
<!-- Node0x600000712be0 -->
<g id="node6" class="node">
<title>Node0x600000712be0</title>
<polygon fill="none" stroke="black" points="626,-9 626,-77 714,-77 714,-9 626,-9"/>
<text text-anchor="middle" x="670" y="-66.6" font-family="Times,serif" font-size="8.00">word: runn</text>
<polyline fill="none" stroke="black" points="626,-60 714,-60 "/>
<text text-anchor="middle" x="670" y="-49.6" font-family="Times,serif" font-size="8.00">size: 1</text>
<polyline fill="none" stroke="black" points="626,-43 714,-43 "/>
<text text-anchor="middle" x="670" y="-32.6" font-family="Times,serif" font-size="8.00">next: 0x600000713f60</text>
<polyline fill="none" stroke="black" points="626,-26 714,-26 "/>
<text text-anchor="middle" x="670" y="-15.6" font-family="Times,serif" font-size="8.00">prev: 0x600000712a90</text>
</g>
<!-- Node0x600000712a90&#45;&gt;Node0x600000712be0 -->
<g id="edge5" class="edge">
<title>Node0x600000712a90:n&#45;&gt;Node0x600000712be0:n</title>
<path fill="none" stroke="red" d="M590,-34C602,-34 607.25,-34 615.88,-34"/>
<polygon fill="red" stroke="red" points="616,-37.5 626,-34 616,-30.5 616,-37.5"/>
</g>
<!-- Node0x600000713f60 -->
<g id="node7" class="node">
<title>Node0x600000713f60</title>
<polygon fill="none" stroke="black" points="750,-9 750,-77 838,-77 838,-9 750,-9"/>
<text text-anchor="middle" x="794" y="-66.6" font-family="Times,serif" font-size="8.00">word: thumb</text>
<polyline fill="none" stroke="black" points="750,-60 838,-60 "/>
<text text-anchor="middle" x="794" y="-49.6" font-family="Times,serif" font-size="8.00">size: 6</text>
<polyline fill="none" stroke="black" points="750,-43 838,-43 "/>
<text text-anchor="middle" x="794" y="-32.6" font-family="Times,serif" font-size="8.00">next: 0x600000714720</text>
<polyline fill="none" stroke="black" points="750,-26 838,-26 "/>
<text text-anchor="middle" x="794" y="-15.6" font-family="Times,serif" font-size="8.00">prev: 0x600000712be0</text>
</g>
<!-- Node0x600000712be0&#45;&gt;Node0x600000713f60 -->
<g id="edge6" class="edge">
<title>Node0x600000712be0:n&#45;&gt;Node0x600000713f60:n</title>
<path fill="none" stroke="red" d="M714,-34C726,-34 731.25,-34 739.88,-34"/>
<polygon fill="red" stroke="red" points="740,-37.5 750,-34 740,-30.5 740,-37.5"/>
</g>
<!-- Node0x600000714720 -->
<g id="node8" class="node">
<title>Node0x600000714720</title>
<polygon fill="none" stroke="black" points="874,-9 874,-77 961,-77 961,-9 874,-9"/>
<text text-anchor="middle" x="917.5" y="-66.6" font-family="Times,serif" font-size="8.00">word: Turn</text>
<polyline fill="none" stroke="black" points="874,-60 961,-60 "/>
<text text-anchor="middle" x="917.5" y="-49.6" font-family="Times,serif" font-size="8.00">size: 5</text>
<polyline fill="none" stroke="black" points="874,-43 961,-43 "/>
<text text-anchor="middle" x="917.5" y="-32.6" font-family="Times,serif" font-size="8.00">next: 0x6000007158f0</text>
<polyline fill="none" stroke="black" points="874,-26 961,-26 "/>
<text text-anchor="middle" x="917.5" y="-15.6" font-family="Times,serif" font-size="8.00">prev: 0x600000713f60</text>
</g>
<!-- Node0x600000713f60&#45;&gt;Node0x600000714720 -->
<g id="edge7" class="edge">
<title>Node0x600000713f60:n&#45;&gt;Node0x600000714720:n</title>
<path fill="none" stroke="red" d="M838,-34C850,-34 855.25,-34 863.88,-34"/>
<polygon fill="red" stroke="red" points="864,-37.5 874,-34 864,-30.5 864,-37.5"/>
</g>
<!-- Node0x6000007158f0 -->
<g id="node9" class="node">
<title>Node0x6000007158f0</title>
<polygon fill="none" stroke="black" points="997,-9 997,-77 1085,-77 1085,-9 997,-9"/>
<text text-anchor="middle" x="1041" y="-66.6" font-family="Times,serif" font-size="8.00">word: streets</text>
<polyline fill="none" stroke="black" points="997,-60 1085,-60 "/>
<text text-anchor="middle" x="1041" y="-49.6" font-family="Times,serif" font-size="8.00">size: 4</text>
<polyline fill="none" stroke="black" points="997,-43 1085,-43 "/>
<text text-anchor="middle" x="1041" y="-32.6" font-family="Times,serif" font-size="8.00">next: 0x600000719980</text>
<polyline fill="none" stroke="black" points="997,-26 1085,-26 "/>
<text text-anchor="middle" x="1041" y="-15.6" font-family="Times,serif" font-size="8.00">prev: 0x600000714720</text>
</g>
<!-- Node0x600000714720&#45;&gt;Node0x6000007158f0 -->
<g id="edge8" class="edge">
<title>Node0x600000714720:n&#45;&gt;Node0x6000007158f0:n</title>
<path fill="none" stroke="red" d="M961,-34C973,-34 978.25,-34 986.88,-34"/>
<polygon fill="red" stroke="red" points="987,-37.5 997,-34 987,-30.5 987,-37.5"/>
</g>
<!-- Node0x600000719980 -->
<g id="node10" class="node">
<title>Node0x600000719980</title>
<polygon fill="none" stroke="black" points="1121,-9 1121,-77 1208,-77 1208,-9 1121,-9"/>
<text text-anchor="middle" x="1164.5" y="-66.6" font-family="Times,serif" font-size="8.00">word: arrow</text>
<polyline fill="none" stroke="black" points="1121,-60 1208,-60 "/>
<text text-anchor="middle" x="1164.5" y="-49.6" font-family="Times,serif" font-size="8.00">size: 1</text>
<polyline fill="none" stroke="black" points="1121,-43 1208,-43 "/>
<text text-anchor="middle" x="1164.5" y="-32.6" font-family="Times,serif" font-size="8.00">next: 0x60000071b150</text>
<polyline fill="none" stroke="black" points="1121,-26 1208,-26 "/>
<text text-anchor="middle" x="1164.5" y="-15.6" font-family="Times,serif" font-size="8.00">prev: 0x6000007158f0</text>
</g>
<!-- Node0x6000007158f0&#45;&gt;Node0x600000719980 -->
<g id="edge9" class="edge">
<title>Node0x6000007158f0:n&#45;&gt;Node0x600000719980:n</title>
<path fill="none" stroke="red" d="M1085,-34C1097,-34 1102.25,-34 1110.88,-34"/>
<polygon fill="red" stroke="red" points="1111,-37.5 1121,-34 1111,-30.5 1111,-37.5"/>
</g>
<!-- Node0x60000071b150 -->
<g id="node11" class="node">
<title>Node0x60000071b150</title>
<polygon fill="none" stroke="black" points="1244,-9 1244,-77 1332,-77 1332,-9 1244,-9"/>
<text text-anchor="middle" x="1288" y="-66.6" font-family="Times,serif" font-size="8.00">word: delight</text>
<polyline fill="none" stroke="black" points="1244,-60 1332,-60 "/>
<text text-anchor="middle" x="1288" y="-49.6" font-family="Times,serif" font-size="8.00">size: 3</text>
<polyline fill="none" stroke="black" points="1244,-43 1332,-43 "/>
<text text-anchor="middle" x="1288" y="-32.6" font-family="Times,serif" font-size="8.00">next: 0x6000007082a0</text>
<polyline fill="none" stroke="black" points="1244,-26 1332,-26 "/>
<text text-anchor="middle" x="1288" y="-15.6" font-family="Times,serif" font-size="8.00">prev: 0x600000719980</text>
</g>
<!-- Node0x600000719980&#45;&gt;Node0x60000071b150 -->
<g id="edge10" class="edge">
<title>Node0x600000719980:n&#45;&gt;Node0x60000071b150:n</title>
<path fill="none" stroke="red" d="M1208,-34C1220,-34 1225.25,-34 1233.88,-34"/>
<polygon fill="red" stroke="red" points="1234,-37.5 1244,-34 1234,-30.5 1234,-37.5"/>
</g>
<!-- Node0x6000007082a0 -->
<g id="node12" class="node">
<title>Node0x6000007082a0</title>
<polygon fill="none" stroke="black" points="1368,-9 1368,-77 1456,-77 1456,-9 1368,-9"/>
<text text-anchor="middle" x="1412" y="-66.6" font-family="Times,serif" font-size="8.00">word: year</text>
<polyline fill="none" stroke="black" points="1368,-60 1456,-60 "/>
<text text-anchor="middle" x="1412" y="-49.6" font-family="Times,serif" font-size="8.00">size: 3</text>
<polyline fill="none" stroke="black" points="1368,-43 1456,-43 "/>
<text text-anchor="middle" x="1412" y="-32.6" font-family="Times,serif" font-size="8.00">next: 0x600000708cc0</text>
<polyline fill="none" stroke="black" points="1368,-26 1456,-26 "/>
<text text-anchor="middle" x="1412" y="-15.6" font-family="Times,serif" font-size="8.00">prev: 0x60000071b150</text>
</g>
<!-- Node0x60000071b150&#45;&gt;Node0x6000007082a0 -->
<g id="edge11" class="edge">
<title>Node0x60000071b150:n&#45;&gt;Node0x6000007082a0:n</title>
<path fill="none" stroke="red" d="M1332,-34C1344,-34 1349.25,-34 1357.88,-34"/>
<polygon fill="red" stroke="red" points="1358,-37.5 1368,-34 1358,-30.5 1358,-37.5"/>
</g>
<!-- Node0x600000708cc0 -->
<g id="node13" class="node">
<title>Node0x600000708cc0</title>
<polygon fill="none" stroke="black" points="1492,-9 1492,-77 1580,-77 1580,-9 1492,-9"/>
<text text-anchor="middle" x="1536" y="-66.6" font-family="Times,serif" font-size="8.00">word: nay</text>
<polyline fill="none" stroke="black" points="1492,-60 1580,-60 "/>
<text text-anchor="middle" x="1536" y="-49.6" font-family="Times,serif" font-size="8.00">size: 5</text>
<polyline fill="none" stroke="black" points="1492,-43 1580,-43 "/>
<text text-anchor="middle" x="1536" y="-32.6" font-family="Times,serif" font-size="8.00">next: 0x600000708de0</text>
<polyline fill="none" stroke="black" points="1492,-26 1580,-26 "/>
<text text-anchor="middle" x="1536" y="-15.6" font-family="Times,serif" font-size="8.00">prev: 0x6000007082a0</text>
</g>
<!-- Node0x6000007082a0&#45;&gt;Node0x600000708cc0 -->
<g id="edge12" class="edge">
<title>Node0x6000007082a0:n&#45;&gt;Node0x600000708cc0:n</title>
<path fill="none" stroke="red" d="M1456,-34C1468,-34 1473.25,-34 1481.88,-34"/>
<polygon fill="red" stroke="red" points="1482,-37.5 1492,-34 1482,-30.5 1482,-37.5"/>
</g>
<!-- Node0x600000708de0 -->
<g id="node14" class="node">
<title>Node0x600000708de0</title>
<polygon fill="none" stroke="black" points="1616,-9 1616,-77 1704,-77 1704,-9 1616,-9"/>
<text text-anchor="middle" x="1660" y="-66.6" font-family="Times,serif" font-size="8.00">word: soul</text>
<polyline fill="none" stroke="black" points="1616,-60 1704,-60 "/>
<text text-anchor="middle" x="1660" y="-49.6" font-family="Times,serif" font-size="8.00">size: 14</text>
<polyline fill="none" stroke="black" points="1616,-43 1704,-43 "/>
<text text-anchor="middle" x="1660" y="-32.6" font-family="Times,serif" font-size="8.00">next: 0x600000704b40</text>
<polyline fill="none" stroke="black" points="1616,-26 1704,-26 "/>
<text text-anchor="middle" x="1660" y="-15.6" font-family="Times,serif" font-size="8.00">prev: 0x600000708cc0</text>
</g>
<!-- Node0x600000708cc0&#45;&gt;Node0x600000708de0 -->
<g id="edge13" class="edge">
<title>Node0x600000708cc0:n&#45;&gt;Node0x600000708de0:n</title>
<path fill="none" stroke="red" d="M1580,-34C1592,-34 1597.25,-34 1605.88,-34"/>
<polygon fill="red" stroke="red" points="1606,-37.5 1616,-34 1606,-30.5 1606,-37.5"/>
</g>
<!-- Node0x600000704b40 -->
<g id="node15" class="node">
<title>Node0x600000704b40</title>
<polygon fill="none" stroke="black" points="1740,-9 1740,-77 1828,-77 1828,-9 1740,-9"/>
<text text-anchor="middle" x="1784" y="-66.6" font-family="Times,serif" font-size="8.00">word: prompter</text>
<polyline fill="none" stroke="black" points="1740,-60 1828,-60 "/>
<text text-anchor="middle" x="1784" y="-49.6" font-family="Times,serif" font-size="8.00">size: 1</text>
<polyline fill="none" stroke="black" points="1740,-43 1828,-43 "/>
<text text-anchor="middle" x="1784" y="-32.6" font-family="Times,serif" font-size="8.00">next: 0x60000071f450</text>
<polyline fill="none" stroke="black" points="1740,-26 1828,-26 "/>
<text text-anchor="middle" x="1784" y="-15.6" font-family="Times,serif" font-size="8.00">prev: 0x600000708de0</text>
</g>
<!-- Node0x600000708de0&#45;&gt;Node0x600000704b40 -->
<g id="edge14" class="edge">
<title>Node0x600000708de0:n&#45;&gt;Node0x600000704b40:n</title>
<path fill="none" stroke="red" d="M1704,-34C1716,-34 1721.25,-34 1729.88,-34"/>
<polygon fill="red" stroke="red" points="1730,-37.5 1740,-34 1730,-30.5 1730,-37.5"/>
</g>
<!-- Node0x60000071f450 -->
<g id="node16" class="node">
<title>Node0x60000071f450</title>
<polygon fill="none" stroke="black" points="1864,-9 1864,-77 1952,-77 1952,-9 1864,-9"/>
<text text-anchor="middle" x="1908" y="-66.6" font-family="Times,serif" font-size="8.00">word: girls</text>
<polyline fill="none" stroke="black" points="1864,-60 1952,-60 "/>
<text text-anchor="middle" x="1908" y="-49.6" font-family="Times,serif" font-size="8.00">size: 1</text>
<polyline fill="none" stroke="black" points="1864,-43 1952,-43 "/>
<text text-anchor="middle" x="1908" y="-32.6" font-family="Times,serif" font-size="8.00">next: 0x600000700c90</text>
<polyline fill="none" stroke="black" points="1864,-26 1952,-26 "/>
<text text-anchor="middle" x="1908" y="-15.6" font-family="Times,serif" font-size="8.00">prev: 0x600000704b40</text>
</g>
<!-- Node0x600000704b40&#45;&gt;Node0x60000071f450 -->
<g id="edge15" class="edge">
<title>Node0x600000704b40:n&#45;&gt;Node0x60000071f450:n</title>
<path fill="none" stroke="red" d="M1828,-34C1840,-34 1845.25,-34 1853.88,-34"/>
<polygon fill="red" stroke="red" points="1854,-37.5 1864,-34 1854,-30.5 1854,-37.5"/>
</g>
<!-- Node0x600000700c90 -->
<g id="node17" class="node">
<title>Node0x600000700c90</title>
<polygon fill="none" stroke="black" points="1988,-9 1988,-77 2075,-77 2075,-9 1988,-9"/>
<text text-anchor="middle" x="2031.5" y="-66.6" font-family="Times,serif" font-size="8.00">word: foolish</text>
<polyline fill="none" stroke="black" points="1988,-60 2075,-60 "/>
<text text-anchor="middle" x="2031.5" y="-49.6" font-family="Times,serif" font-size="8.00">size: 2</text>
<polyline fill="none" stroke="black" points="1988,-43 2075,-43 "/>
<text text-anchor="middle" x="2031.5" y="-32.6" font-family="Times,serif" font-size="8.00">next: 0x6000007302d0</text>
<polyline fill="none" stroke="black" points="1988,-26 2075,-26 "/>
<text text-anchor="middle" x="2031.5" y="-15.6" font-family="Times,serif" font-size="8.00">prev: 0x60000071f450</text>
</g>
<!-- Node0x60000071f450&#45;&gt;Node0x600000700c90 -->
<g id="edge16" class="edge">
<title>Node0x60000071f450:n&#45;&gt;Node0x600000700c90:n</title>
<path fill="none" stroke="red" d="M1952,-34C1964,-34 1969.25,-34 1977.88,-34"/>
<polygon fill="red" stroke="red" points="1978,-37.5 1988,-34 1978,-30.5 1978,-37.5"/>
</g>
<!-- Node0x6000007302d0 -->
<g id="node18" class="node">
<title>Node0x6000007302d0</title>
<polygon fill="none" stroke="black" points="2111,-9 2111,-77 2199,-77 2199,-9 2111,-9"/>
<text text-anchor="middle" x="2155" y="-66.6" font-family="Times,serif" font-size="8.00">word: exchange</text>
<polyline fill="none" stroke="black" points="2111,-60 2199,-60 "/>
<text text-anchor="middle" x="2155" y="-49.6" font-family="Times,serif" font-size="8.00">size: 3</text>
<polyline fill="none" stroke="black" points="2111,-43 2199,-43 "/>
<text text-anchor="middle" x="2155" y="-32.6" font-family="Times,serif" font-size="8.00">next: 0x600000730390</text>
<polyline fill="none" stroke="black" points="2111,-26 2199,-26 "/>
<text text-anchor="middle" x="2155" y="-15.6" font-family="Times,serif" font-size="8.00">prev: 0x600000700c90</text>
</g>
<!-- Node0x600000700c90&#45;&gt;Node0x6000007302d0 -->
<g id="edge17" class="edge">
<title>Node0x600000700c90:n&#45;&gt;Node0x6000007302d0:n</title>
<path fill="none" stroke="red" d="M2075,-34C2087,-34 2092.25,-34 2100.88,-34"/>
<polygon fill="red" stroke="red" points="2101,-37.5 2111,-34 2101,-30.5 2101,-37.5"/>
</g>
<!-- Node0x600000730390 -->
<g id="node19" class="node">
<title>Node0x600000730390</title>
<polygon fill="none" stroke="black" points="2235,-9 2235,-77 2323,-77 2323,-9 2235,-9"/>
<text text-anchor="middle" x="2279" y="-66.6" font-family="Times,serif" font-size="8.00">word: request</text>
<polyline fill="none" stroke="black" points="2235,-60 2323,-60 "/>
<text text-anchor="middle" x="2279" y="-49.6" font-family="Times,serif" font-size="8.00">size: 1</text>
<polyline fill="none" stroke="black" points="2235,-43 2323,-43 "/>
<text text-anchor="middle" x="2279" y="-32.6" font-family="Times,serif" font-size="8.00">next: 0x600000730cf0</text>
<polyline fill="none" stroke="black" points="2235,-26 2323,-26 "/>
<text text-anchor="middle" x="2279" y="-15.6" font-family="Times,serif" font-size="8.00">prev: 0x6000007302d0</text>
</g>
<!-- Node0x6000007302d0&#45;&gt;Node0x600000730390 -->
<g id="edge18" class="edge">
<title>Node0x6000007302d0:n&#45;&gt;Node0x600000730390:n</title>
<path fill="none" stroke="red" d="M2199,-34C2211,-34 2216.25,-34 2224.88,-34"/>
<polygon fill="red" stroke="red" points="2225,-37.5 2235,-34 2225,-30.5 2225,-37.5"/>
</g>
<!-- Node0x600000730cf0 -->
<g id="node20" class="node">
<title>Node0x600000730cf0</title>
<polygon fill="none" stroke="black" points="2359,-9 2359,-77 2447,-77 2447,-9 2359,-9"/>
<text text-anchor="middle" x="2403" y="-66.6" font-family="Times,serif" font-size="8.00">word: almost</text>
<polyline fill="none" stroke="black" points="2359,-60 2447,-60 "/>
<text text-anchor="middle" x="2403" y="-49.6" font-family="Times,serif" font-size="8.00">size: 3</text>
<polyline fill="none" stroke="black" points="2359,-43 2447,-43 "/>
<text text-anchor="middle" x="2403" y="-32.6" font-family="Times,serif" font-size="8.00">next: 0x600000734510</text>
<polyline fill="none" stroke="black" points="2359,-26 2447,-26 "/>
<text text-anchor="middle" x="2403" y="-15.6" font-family="Times,serif" font-size="8.00">prev: 0x600000730390</text>
</g>
<!-- Node0x600000730390&#45;&gt;Node0x600000730cf0 -->
<g id="edge19" class="edge">
<title>Node0x600000730390:n&#45;&gt;Node0x600000730cf0:n</title>
<path fill="none" stroke="red" d="M2323,-34C2335,-34 2340.25,-34 2348.88,-34"/>
<polygon fill="red" stroke="red" points="2349,-37.5 2359,-34 2349,-30.5 2349,-37.5"/>
</g>
<!-- Node0x600000734510 -->
<g id="node21" class="node">
<title>Node0x600000734510</title>
<polygon fill="none" stroke="black" points="2483,-9 2483,-77 2570,-77 2570,-9 2483,-9"/>
<text text-anchor="middle" x="2526.5" y="-66.6" font-family="Times,serif" font-size="8.00">word: broad</text>
<polyline fill="none" stroke="black" points="2483,-60 2570,-60 "/>
<text text-anchor="middle" x="2526.5" y="-49.6" font-family="Times,serif" font-size="8.00">size: 4</text>
<polyline fill="none" stroke="black" points="2483,-43 2570,-43 "/>
<text text-anchor="middle" x="2526.5" y="-32.6" font-family="Times,serif" font-size="8.00">next: 0x600000735140</text>
<polyline fill="none" stroke="black" points="2483,-26 2570,-26 "/>
<text text-anchor="middle" x="2526.5" y="-15.6" font-family="Times,serif" font-size="8.00">prev: 0x600000730cf0</text>
</g>
<!-- Node0x600000730cf0&#45;&gt;Node0x600000734510 -->
<g id="edge20" class="edge">
<title>Node0x600000730cf0:n&#45;&gt;Node0x600000734510:n</title>
<path fill="none" stroke="red" d="M2447,-34C2459,-34 2464.25,-34 2472.88,-34"/>
<polygon fill="red" stroke="red" points="2473,-37.5 2483,-34 2473,-30.5 2473,-37.5"/>
</g>
<!-- Node0x600000735140 -->
<g id="node22" class="node">
<title>Node0x600000735140</title>
<polygon fill="none" stroke="black" points="2606,-9 2606,-77 2694,-77 2694,-9 2606,-9"/>
<text text-anchor="middle" x="2650" y="-66.6" font-family="Times,serif" font-size="8.00">word: merchant</text>
<polyline fill="none" stroke="black" points="2606,-60 2694,-60 "/>
<text text-anchor="middle" x="2650" y="-49.6" font-family="Times,serif" font-size="8.00">size: 1</text>
<polyline fill="none" stroke="black" points="2606,-43 2694,-43 "/>
<text text-anchor="middle" x="2650" y="-32.6" font-family="Times,serif" font-size="8.00">next: 0x600000736220</text>
<polyline fill="none" stroke="black" points="2606,-26 2694,-26 "/>
<text text-anchor="middle" x="2650" y="-15.6" font-family="Times,serif" font-size="8.00">prev: 0x600000734510</text>
</g>
<!-- Node0x600000734510&#45;&gt;Node0x600000735140 -->
<g id="edge21" class="edge">
<title>Node0x600000734510:n&#45;&gt;Node0x600000735140:n</title>
<path fill="none" stroke="red" d="M2570,-34C2582,-34 2587.25,-34 2595.88,-34"/>
<polygon fill="red" stroke="red" points="2596,-37.5 2606,-34 2596,-30.5 2596,-37.5"/>
</g>
<!-- Node0x600000736220 -->
<g id="node23" class="node">
<title>Node0x600000736220</title>
<polygon fill="none" stroke="black" points="2730,-9 2730,-77 2818,-77 2818,-9 2730,-9"/>
<text text-anchor="middle" x="2774" y="-66.6" font-family="Times,serif" font-size="8.00">word: folks</text>
<polyline fill="none" stroke="black" points="2730,-60 2818,-60 "/>
<text text-anchor="middle" x="2774" y="-49.6" font-family="Times,serif" font-size="8.00">size: 1</text>
<polyline fill="none" stroke="black" points="2730,-43 2818,-43 "/>
<text text-anchor="middle" x="2774" y="-32.6" font-family="Times,serif" font-size="8.00">next: 0x60000073b120</text>
<polyline fill="none" stroke="black" points="2730,-26 2818,-26 "/>
<text text-anchor="middle" x="2774" y="-15.6" font-family="Times,serif" font-size="8.00">prev: 0x600000735140</text>
</g>
<!-- Node0x600000735140&#45;&gt;Node0x600000736220 -->
<g id="edge22" class="edge">
<title>Node0x600000735140:n&#45;&gt;Node0x600000736220:n</title>
<path fill="none" stroke="red" d="M2694,-34C2706,-34 2711.25,-34 2719.88,-34"/>
<polygon fill="red" stroke="red" points="2720,-37.5 2730,-34 2720,-30.5 2720,-37.5"/>
</g>
<!-- Node0x60000073b120 -->
<g id="node24" class="node">
<title>Node0x60000073b120</title>
<polygon fill="none" stroke="black" points="2854,-9 2854,-77 2942,-77 2942,-9 2854,-9"/>
<text text-anchor="middle" x="2898" y="-66.6" font-family="Times,serif" font-size="8.00">word: asham</text>
<polyline fill="none" stroke="black" points="2854,-60 2942,-60 "/>
<text text-anchor="middle" x="2898" y="-49.6" font-family="Times,serif" font-size="8.00">size: 1</text>
<polyline fill="none" stroke="black" points="2854,-43 2942,-43 "/>
<text text-anchor="middle" x="2898" y="-32.6" font-family="Times,serif" font-size="8.00">next: 0x60000073bc90</text>
<polyline fill="none" stroke="black" points="2854,-26 2942,-26 "/>
<text text-anchor="middle" x="2898" y="-15.6" font-family="Times,serif" font-size="8.00">prev: 0x600000736220</text>
</g>
<!-- Node0x600000736220&#45;&gt;Node0x60000073b120 -->
<g id="edge23" class="edge">
<title>Node0x600000736220:n&#45;&gt;Node0x60000073b120:n</title>
<path fill="none" stroke="red" d="M2818,-34C2830,-34 2835.25,-34 2843.88,-34"/>
<polygon fill="red" stroke="red" points="2844,-37.5 2854,-34 2844,-30.5 2844,-37.5"/>
</g>
<!-- Node0x60000073bc90 -->
<g id="node25" class="node">
<title>Node0x60000073bc90</title>
<polygon fill="none" stroke="black" points="2978,-9 2978,-77 3066,-77 3066,-9 2978,-9"/>
<text text-anchor="middle" x="3022" y="-66.6" font-family="Times,serif" font-size="8.00">word: misterm</text>
<polyline fill="none" stroke="black" points="2978,-60 3066,-60 "/>
<text text-anchor="middle" x="3022" y="-49.6" font-family="Times,serif" font-size="8.00">size: 1</text>
<polyline fill="none" stroke="black" points="2978,-43 3066,-43 "/>
<text text-anchor="middle" x="3022" y="-32.6" font-family="Times,serif" font-size="8.00">next: 0x60000073c7e0</text>
<polyline fill="none" stroke="black" points="2978,-26 3066,-26 "/>
<text text-anchor="middle" x="3022" y="-15.6" font-family="Times,serif" font-size="8.00">prev: 0x60000073b120</text>
</g>
<!-- Node0x60000073b120&#45;&gt;Node0x60000073bc90 -->
<g id="edge24" class="edge">
<title>Node0x60000073b120:n&#45;&gt;Node0x60000073bc90:n</title>
<path fill="none" stroke="red" d="M2942,-34C2954,-34 2959.25,-34 2967.88,-34"/>
<polygon fill="red" stroke="red" points="2968,-37.5 2978,-34 2968,-30.5 2968,-37.5"/>
</g>
<!-- Node0x60000073c7e0 -->
<g id="node26" class="node">
<title>Node0x60000073c7e0</title>
<polygon fill="none" stroke="black" points="3102,-9 3102,-77 3190,-77 3190,-9 3102,-9"/>
<text text-anchor="middle" x="3146" y="-66.6" font-family="Times,serif" font-size="8.00">word: sympathy</text>
<polyline fill="none" stroke="black" points="3102,-60 3190,-60 "/>
<text text-anchor="middle" x="3146" y="-49.6" font-family="Times,serif" font-size="8.00">size: 1</text>
<polyline fill="none" stroke="black" points="3102,-43 3190,-43 "/>
<text text-anchor="middle" x="3146" y="-32.6" font-family="Times,serif" font-size="8.00">next: 0x60000073e8e0</text>
<polyline fill="none" stroke="black" points="3102,-26 3190,-26 "/>
<text text-anchor="middle" x="3146" y="-15.6" font-family="Times,serif" font-size="8.00">prev: 0x60000073bc90</text>
</g>
<!-- Node0x60000073bc90&#45;&gt;Node0x60000073c7e0 -->
<g id="edge25" class="edge">
<title>Node0x60000073bc90:n&#45;&gt;Node0x60000073c7e0:n</title>
<path fill="none" stroke="red" d="M3066,-34C3078,-34 3083.25,-34 3091.88,-34"/>
<polygon fill="red" stroke="red" points="3092,-37.5 3102,-34 3092,-30.5 3092,-37.5"/>
</g>
<!-- Node0x60000073e8e0 -->
<g id="node27" class="node">
<title>Node0x60000073e8e0</title>
<polygon fill="none" stroke="black" points="3226,-9 3226,-77 3314,-77 3314,-9 3226,-9"/>
<text text-anchor="middle" x="3270" y="-66.6" font-family="Times,serif" font-size="8.00">word: dram</text>
<polyline fill="none" stroke="black" points="3226,-60 3314,-60 "/>
<text text-anchor="middle" x="3270" y="-49.6" font-family="Times,serif" font-size="8.00">size: 2</text>
<polyline fill="none" stroke="black" points="3226,-43 3314,-43 "/>
<text text-anchor="middle" x="3270" y="-32.6" font-family="Times,serif" font-size="8.00">next: 0x60000073edc0</text>
<polyline fill="none" stroke="black" points="3226,-26 3314,-26 "/>
<text text-anchor="middle" x="3270" y="-15.6" font-family="Times,serif" font-size="8.00">prev: 0x60000073c7e0</text>
</g>
<!-- Node0x60000073c7e0&#45;&gt;Node0x60000073e8e0 -->
<g id="edge26" class="edge">
<title>Node0x60000073c7e0:n&#45;&gt;Node0x60000073e8e0:n</title>
<path fill="none" stroke="red" d="M3190,-34C3202,-34 3207.25,-34 3215.88,-34"/>
<polygon fill="red" stroke="red" points="3216,-37.5 3226,-34 3216,-30.5 3216,-37.5"/>
</g>
<!-- Node0x60000073edc0 -->
<g id="node28" class="node">
<title>Node0x60000073edc0</title>
<polygon fill="none" stroke="black" points="3350,-9 3350,-77 3438,-77 3438,-9 3350,-9"/>
<text text-anchor="middle" x="3394" y="-66.6" font-family="Times,serif" font-size="8.00">word: flood</text>
<polyline fill="none" stroke="black" points="3350,-60 3438,-60 "/>
<text text-anchor="middle" x="3394" y="-49.6" font-family="Times,serif" font-size="8.00">size: 1</text>
<polyline fill="none" stroke="black" points="3350,-43 3438,-43 "/>
<text text-anchor="middle" x="3394" y="-32.6" font-family="Times,serif" font-size="8.00">next: 0x60000073f570</text>
<polyline fill="none" stroke="black" points="3350,-26 3438,-26 "/>
<text text-anchor="middle" x="3394" y="-15.6" font-family="Times,serif" font-size="8.00">prev: 0x60000073e8e0</text>
</g>
<!-- Node0x60000073e8e0&#45;&gt;Node0x60000073edc0 -->
<g id="edge27" class="edge">
<title>Node0x60000073e8e0:n&#45;&gt;Node0x60000073edc0:n</title>
<path fill="none" stroke="red" d="M3314,-34C3326,-34 3331.25,-34 3339.88,-34"/>
<polygon fill="red" stroke="red" points="3340,-37.5 3350,-34 3340,-30.5 3340,-37.5"/>
</g>
<!-- Node0x60000073f570 -->
<g id="node29" class="node">
<title>Node0x60000073f570</title>
<polygon fill="none" stroke="black" points="3474,-9 3474,-77 3562,-77 3562,-9 3474,-9"/>
<text text-anchor="middle" x="3518" y="-66.6" font-family="Times,serif" font-size="8.00">word: Smatter</text>
<polyline fill="none" stroke="black" points="3474,-60 3562,-60 "/>
<text text-anchor="middle" x="3518" y="-49.6" font-family="Times,serif" font-size="8.00">size: 1</text>
<polyline fill="none" stroke="black" points="3474,-43 3562,-43 "/>
<text text-anchor="middle" x="3518" y="-32.6" font-family="Times,serif" font-size="8.00">next: 0x60000070a310</text>
<polyline fill="none" stroke="black" points="3474,-26 3562,-26 "/>
<text text-anchor="middle" x="3518" y="-15.6" font-family="Times,serif" font-size="8.00">prev: 0x60000073edc0</text>
</g>
<!-- Node0x60000073edc0&#45;&gt;Node0x60000073f570 -->
<g id="edge28" class="edge">
<title>Node0x60000073edc0:n&#45;&gt;Node0x60000073f570:n</title>
<path fill="none" stroke="red" d="M3438,-34C3450,-34 3455.25,-34 3463.88,-34"/>
<polygon fill="red" stroke="red" points="3464,-37.5 3474,-34 3464,-30.5 3464,-37.5"/>
</g>
<!-- Node0x60000070a310 -->
<g id="node30" class="node">
<title>Node0x60000070a310</title>
<polygon fill="none" stroke="black" points="3598,-9 3598,-77 3685,-77 3685,-9 3598,-9"/>
<text text-anchor="middle" x="3641.5" y="-66.6" font-family="Times,serif" font-size="8.00">word: slug</text>
<polyline fill="none" stroke="black" points="3598,-60 3685,-60 "/>
<text text-anchor="middle" x="3641.5" y="-49.6" font-family="Times,serif" font-size="8.00">size: 1</text>
<polyline fill="none" stroke="black" points="3598,-43 3685,-43 "/>
<text text-anchor="middle" x="3641.5" y="-32.6" font-family="Times,serif" font-size="8.00">next: 0x600000725d70</text>
<polyline fill="none" stroke="black" points="3598,-26 3685,-26 "/>
<text text-anchor="middle" x="3641.5" y="-15.6" font-family="Times,serif" font-size="8.00">prev: 0x60000073f570</text>
</g>
<!-- Node0x60000073f570&#45;&gt;Node0x60000070a310 -->
<g id="edge29" class="edge">
<title>Node0x60000073f570:n&#45;&gt;Node0x60000070a310:n</title>
<path fill="none" stroke="red" d="M3562,-34C3574,-34 3579.25,-34 3587.88,-34"/>
<polygon fill="red" stroke="red" points="3588,-37.5 3598,-34 3588,-30.5 3588,-37.5"/>
</g>
<!-- Node0x600000725d70 -->
<g id="node31" class="node">
<title>Node0x600000725d70</title>
<polygon fill="none" stroke="black" points="3721,-9 3721,-77 3809,-77 3809,-9 3721,-9"/>
<text text-anchor="middle" x="3765" y="-66.6" font-family="Times,serif" font-size="8.00">word: monster</text>
<polyline fill="none" stroke="black" points="3721,-60 3809,-60 "/>
<text text-anchor="middle" x="3765" y="-49.6" font-family="Times,serif" font-size="8.00">size: 1</text>
<polyline fill="none" stroke="black" points="3721,-43 3809,-43 "/>
<text text-anchor="middle" x="3765" y="-32.6" font-family="Times,serif" font-size="8.00">next: 0x600000726640</text>
<polyline fill="none" stroke="black" points="3721,-26 3809,-26 "/>
<text text-anchor="middle" x="3765" y="-15.6" font-family="Times,serif" font-size="8.00">prev: 0x60000070a310</text>
</g>
<!-- Node0x60000070a310&#45;&gt;Node0x600000725d70 -->
<g id="edge30" class="edge">
<title>Node0x60000070a310:n&#45;&gt;Node0x600000725d70:n</title>
<path fill="none" stroke="red" d="M3685,-34C3697,-34 3702.25,-34 3710.88,-34"/>
<polygon fill="red" stroke="red" points="3711,-37.5 3721,-34 3711,-30.5 3711,-37.5"/>
</g>
<!-- Node0x600000726640 -->
<g id="node32" class="node">
<title>Node0x600000726640</title>
<polygon fill="none" stroke="black" points="3845,-9 3845,-77 3933,-77 3933,-9 3845,-9"/>
<text text-anchor="middle" x="3889" y="-66.6" font-family="Times,serif" font-size="8.00">word: greater</text>
<polyline fill="none" stroke="black" points="3845,-60 3933,-60 "/>
<text text-anchor="middle" x="3889" y="-49.6" font-family="Times,serif" font-size="8.00">size: 1</text>
<polyline fill="none" stroke="black" points="3845,-43 3933,-43 "/>
<text text-anchor="middle" x="3889" y="-32.6" font-family="Times,serif" font-size="8.00">next: 0x6000007277e0</text>
<polyline fill="none" stroke="black" points="3845,-26 3933,-26 "/>
<text text-anchor="middle" x="3889" y="-15.6" font-family="Times,serif" font-size="8.00">prev: 0x600000725d70</text>
</g>
<!-- Node0x600000725d70&#45;&gt;Node0x600000726640 -->
<g id="edge31" class="edge">
<title>Node0x600000725d70:n&#45;&gt;Node0x600000726640:n</title>
<path fill="none" stroke="red" d="M3809,-34C3821,-34 3826.25,-34 3834.88,-34"/>
<polygon fill="red" stroke="red" points="3835,-37.5 3845,-34 3835,-30.5 3835,-37.5"/>
</g>
<!-- Node0x6000007277e0 -->
<g id="node33" class="node">
<title>Node0x6000007277e0</title>
<polygon fill="none" stroke="black" points="3969,-9 3969,-77 4057,-77 4057,-9 3969,-9"/>
<text text-anchor="middle" x="4013" y="-66.6" font-family="Times,serif" font-size="8.00">word: Montage</text>
<polyline fill="none" stroke="black" points="3969,-60 4057,-60 "/>
<text text-anchor="middle" x="4013" y="-49.6" font-family="Times,serif" font-size="8.00">size: 1</text>
<polyline fill="none" stroke="black" points="3969,-43 4057,-43 "/>
<text text-anchor="middle" x="4013" y="-32.6" font-family="Times,serif" font-size="8.00">next: 0x0</text>
<polyline fill="none" stroke="black" points="3969,-26 4057,-26 "/>
<text text-anchor="middle" x="4013" y="-15.6" font-family="Times,serif" font-size="8.00">prev: 0x600000726640</text>
</g>
<!-- Node0x600000726640&#45;&gt;Node0x6000007277e0 -->
<g id="edge32" class="edge">
<title>Node0x600000726640:n&#45;&gt;Node0x6000007277e0:n</title>
<path fill="none" stroke="red" d="M3933,-34C3945,-34 3950.25,-34 3958.88,-34"/>
<polygon fill="red" stroke="red" points="3959,-37.5 3969,-34 3959,-30.5 3959,-37.5"/>
</g>
</g>
</svg>
