<?xml version="1.0" encoding="UTF-8" standalone="no"?>
<!DOCTYPE svg PUBLIC "-//W3C//DTD SVG 1.1//EN"
 "http://www.w3.org/Graphics/SVG/1.1/DTD/svg11.dtd">
<!-- Generated by graphviz version 2.50.0 (20211204.2007)
 -->
<!-- Title: G Pages: 1 -->
<svg width="4318pt" height="117pt"
 viewBox="0.00 0.00 4318.00 117.00" xmlns="http://www.w3.org/2000/svg" xmlns:xlink="http://www.w3.org/1999/xlink">
<g id="graph0" class="graph" transform="scale(1 1) rotate(0) translate(4 113)">
<title>G</title>
<polygon fill="white" stroke="transparent" points="-4,4 -4,-113 4314,-113 4314,4 -4,4"/>
<g id="clust1" class="cluster">
<title>cluster1095</title>
<polygon fill="none" stroke="black" points="8,-8 8,-101 94,-101 94,-8 8,-8"/>
<text text-anchor="middle" x="51" y="-85.8" font-family="Times,serif" font-size="14.00">1095</text>
</g>
<g id="clust2" class="cluster">
<title>cluster1096</title>
<polygon fill="none" stroke="black" points="130,-8 130,-101 218,-101 218,-8 130,-8"/>
<text text-anchor="middle" x="174" y="-85.8" font-family="Times,serif" font-size="14.00">1096</text>
</g>
<g id="clust3" class="cluster">
<title>cluster1097</title>
<polygon fill="none" stroke="black" points="254,-8 254,-101 341,-101 341,-8 254,-8"/>
<text text-anchor="middle" x="297.5" y="-85.8" font-family="Times,serif" font-size="14.00">1097</text>
</g>
<g id="clust4" class="cluster">
<title>cluster1098</title>
<polygon fill="none" stroke="black" points="377,-8 377,-101 465,-101 465,-8 377,-8"/>
<text text-anchor="middle" x="421" y="-85.8" font-family="Times,serif" font-size="14.00">1098</text>
</g>
<g id="clust5" class="cluster">
<title>cluster1099</title>
<polygon fill="none" stroke="black" points="501,-8 501,-101 589,-101 589,-8 501,-8"/>
<text text-anchor="middle" x="545" y="-85.8" font-family="Times,serif" font-size="14.00">1099</text>
</g>
<g id="clust6" class="cluster">
<title>cluster1100</title>
<polygon fill="none" stroke="black" points="625,-8 625,-101 713,-101 713,-8 625,-8"/>
<text text-anchor="middle" x="669" y="-85.8" font-family="Times,serif" font-size="14.00">1100</text>
</g>
<g id="clust7" class="cluster">
<title>cluster1101</title>
<polygon fill="none" stroke="black" points="749,-8 749,-101 837,-101 837,-8 749,-8"/>
<text text-anchor="middle" x="793" y="-85.8" font-family="Times,serif" font-size="14.00">1101</text>
</g>
<g id="clust8" class="cluster">
<title>cluster1102</title>
<polygon fill="none" stroke="black" points="873,-8 873,-101 961,-101 961,-8 873,-8"/>
<text text-anchor="middle" x="917" y="-85.8" font-family="Times,serif" font-size="14.00">1102</text>
</g>
<g id="clust9" class="cluster">
<title>cluster1103</title>
<polygon fill="none" stroke="black" points="997,-8 997,-101 1085,-101 1085,-8 997,-8"/>
<text text-anchor="middle" x="1041" y="-85.8" font-family="Times,serif" font-size="14.00">1103</text>
</g>
<g id="clust10" class="cluster">
<title>cluster1104</title>
<polygon fill="none" stroke="black" points="1121,-8 1121,-101 1209,-101 1209,-8 1121,-8"/>
<text text-anchor="middle" x="1165" y="-85.8" font-family="Times,serif" font-size="14.00">1104</text>
</g>
<g id="clust11" class="cluster">
<title>cluster1105</title>
<polygon fill="none" stroke="black" points="1245,-8 1245,-101 1333,-101 1333,-8 1245,-8"/>
<text text-anchor="middle" x="1289" y="-85.8" font-family="Times,serif" font-size="14.00">1105</text>
</g>
<g id="clust12" class="cluster">
<title>cluster1106</title>
<polygon fill="none" stroke="black" points="1369,-8 1369,-101 1457,-101 1457,-8 1369,-8"/>
<text text-anchor="middle" x="1413" y="-85.8" font-family="Times,serif" font-size="14.00">1106</text>
</g>
<g id="clust13" class="cluster">
<title>cluster1107</title>
<polygon fill="none" stroke="black" points="1493,-8 1493,-101 1581,-101 1581,-8 1493,-8"/>
<text text-anchor="middle" x="1537" y="-85.8" font-family="Times,serif" font-size="14.00">1107</text>
</g>
<g id="clust14" class="cluster">
<title>cluster1108</title>
<polygon fill="none" stroke="black" points="1617,-8 1617,-101 1705,-101 1705,-8 1617,-8"/>
<text text-anchor="middle" x="1661" y="-85.8" font-family="Times,serif" font-size="14.00">1108</text>
</g>
<g id="clust15" class="cluster">
<title>cluster1109</title>
<polygon fill="none" stroke="black" points="1741,-8 1741,-101 1829,-101 1829,-8 1741,-8"/>
<text text-anchor="middle" x="1785" y="-85.8" font-family="Times,serif" font-size="14.00">1109</text>
</g>
<g id="clust16" class="cluster">
<title>cluster1110</title>
<polygon fill="none" stroke="black" points="1865,-8 1865,-101 1952,-101 1952,-8 1865,-8"/>
<text text-anchor="middle" x="1908.5" y="-85.8" font-family="Times,serif" font-size="14.00">1110</text>
</g>
<g id="clust17" class="cluster">
<title>cluster1111</title>
<polygon fill="none" stroke="black" points="1988,-8 1988,-101 2076,-101 2076,-8 1988,-8"/>
<text text-anchor="middle" x="2032" y="-85.8" font-family="Times,serif" font-size="14.00">1111</text>
</g>
<g id="clust18" class="cluster">
<title>cluster1112</title>
<polygon fill="none" stroke="black" points="2112,-8 2112,-101 2200,-101 2200,-8 2112,-8"/>
<text text-anchor="middle" x="2156" y="-85.8" font-family="Times,serif" font-size="14.00">1112</text>
</g>
<g id="clust19" class="cluster">
<title>cluster1113</title>
<polygon fill="none" stroke="black" points="2236,-8 2236,-101 2323,-101 2323,-8 2236,-8"/>
<text text-anchor="middle" x="2279.5" y="-85.8" font-family="Times,serif" font-size="14.00">1113</text>
</g>
<g id="clust20" class="cluster">
<title>cluster1114</title>
<polygon fill="none" stroke="black" points="2359,-8 2359,-101 2447,-101 2447,-8 2359,-8"/>
<text text-anchor="middle" x="2403" y="-85.8" font-family="Times,serif" font-size="14.00">1114</text>
</g>
<g id="clust21" class="cluster">
<title>cluster1115</title>
<polygon fill="none" stroke="black" points="2483,-8 2483,-101 2571,-101 2571,-8 2483,-8"/>
<text text-anchor="middle" x="2527" y="-85.8" font-family="Times,serif" font-size="14.00">1115</text>
</g>
<g id="clust22" class="cluster">
<title>cluster1116</title>
<polygon fill="none" stroke="black" points="2607,-8 2607,-101 2695,-101 2695,-8 2607,-8"/>
<text text-anchor="middle" x="2651" y="-85.8" font-family="Times,serif" font-size="14.00">1116</text>
</g>
<g id="clust23" class="cluster">
<title>cluster1117</title>
<polygon fill="none" stroke="black" points="2731,-8 2731,-101 2818,-101 2818,-8 2731,-8"/>
<text text-anchor="middle" x="2774.5" y="-85.8" font-family="Times,serif" font-size="14.00">1117</text>
</g>
<g id="clust24" class="cluster">
<title>cluster1118</title>
<polygon fill="none" stroke="black" points="2854,-8 2854,-101 2942,-101 2942,-8 2854,-8"/>
<text text-anchor="middle" x="2898" y="-85.8" font-family="Times,serif" font-size="14.00">1118</text>
</g>
<g id="clust25" class="cluster">
<title>cluster1119</title>
<polygon fill="none" stroke="black" points="2978,-8 2978,-101 3065,-101 3065,-8 2978,-8"/>
<text text-anchor="middle" x="3021.5" y="-85.8" font-family="Times,serif" font-size="14.00">1119</text>
</g>
<g id="clust26" class="cluster">
<title>cluster1120</title>
<polygon fill="none" stroke="black" points="3101,-8 3101,-101 3188,-101 3188,-8 3101,-8"/>
<text text-anchor="middle" x="3144.5" y="-85.8" font-family="Times,serif" font-size="14.00">1120</text>
</g>
<g id="clust27" class="cluster">
<title>cluster1121</title>
<polygon fill="none" stroke="black" points="3224,-8 3224,-101 3312,-101 3312,-8 3224,-8"/>
<text text-anchor="middle" x="3268" y="-85.8" font-family="Times,serif" font-size="14.00">1121</text>
</g>
<g id="clust28" class="cluster">
<title>cluster1122</title>
<polygon fill="none" stroke="black" points="3348,-8 3348,-101 3436,-101 3436,-8 3348,-8"/>
<text text-anchor="middle" x="3392" y="-85.8" font-family="Times,serif" font-size="14.00">1122</text>
</g>
<g id="clust29" class="cluster">
<title>cluster1123</title>
<polygon fill="none" stroke="black" points="3472,-8 3472,-101 3560,-101 3560,-8 3472,-8"/>
<text text-anchor="middle" x="3516" y="-85.8" font-family="Times,serif" font-size="14.00">1123</text>
</g>
<g id="clust30" class="cluster">
<title>cluster1124</title>
<polygon fill="none" stroke="black" points="3596,-8 3596,-101 3684,-101 3684,-8 3596,-8"/>
<text text-anchor="middle" x="3640" y="-85.8" font-family="Times,serif" font-size="14.00">1124</text>
</g>
<g id="clust31" class="cluster">
<title>cluster1125</title>
<polygon fill="none" stroke="black" points="3720,-8 3720,-101 3808,-101 3808,-8 3720,-8"/>
<text text-anchor="middle" x="3764" y="-85.8" font-family="Times,serif" font-size="14.00">1125</text>
</g>
<g id="clust32" class="cluster">
<title>cluster1126</title>
<polygon fill="none" stroke="black" points="3844,-8 3844,-101 3932,-101 3932,-8 3844,-8"/>
<text text-anchor="middle" x="3888" y="-85.8" font-family="Times,serif" font-size="14.00">1126</text>
</g>
<g id="clust33" class="cluster">
<title>cluster1127</title>
<polygon fill="none" stroke="black" points="3968,-8 3968,-101 4055,-101 4055,-8 3968,-8"/>
<text text-anchor="middle" x="4011.5" y="-85.8" font-family="Times,serif" font-size="14.00">1127</text>
</g>
<g id="clust34" class="cluster">
<title>cluster1128</title>
<polygon fill="none" stroke="black" points="4091,-8 4091,-101 4179,-101 4179,-8 4091,-8"/>
<text text-anchor="middle" x="4135" y="-85.8" font-family="Times,serif" font-size="14.00">1128</text>
</g>
<g id="clust35" class="cluster">
<title>cluster1129</title>
<polygon fill="none" stroke="black" points="4215,-8 4215,-101 4302,-101 4302,-8 4215,-8"/>
<text text-anchor="middle" x="4258.5" y="-85.8" font-family="Times,serif" font-size="14.00">1129</text>
</g>
<!-- Node0x600001e63bd0 -->
<g id="node1" class="node">
<title>Node0x600001e63bd0</title>
<polygon fill="none" stroke="black" points="8,-9 8,-77 94,-77 94,-9 8,-9"/>
<text text-anchor="middle" x="51" y="-66.6" font-family="Times,serif" font-size="8.00">word: turn</text>
<polyline fill="none" stroke="black" points="8,-60 94,-60 "/>
<text text-anchor="middle" x="51" y="-49.6" font-family="Times,serif" font-size="8.00">size: 8</text>
<polyline fill="none" stroke="black" points="8,-43 94,-43 "/>
<text text-anchor="middle" x="51" y="-32.6" font-family="Times,serif" font-size="8.00">next: 0x600001e68f60</text>
<polyline fill="none" stroke="black" points="8,-26 94,-26 "/>
<text text-anchor="middle" x="51" y="-15.6" font-family="Times,serif" font-size="8.00">prev: 0x0</text>
</g>
<!-- Node0x600001e68f60 -->
<g id="node2" class="node">
<title>Node0x600001e68f60</title>
<polygon fill="none" stroke="black" points="130,-9 130,-77 218,-77 218,-9 130,-9"/>
<text text-anchor="middle" x="174" y="-66.6" font-family="Times,serif" font-size="8.00">word: Mont</text>
<polyline fill="none" stroke="black" points="130,-60 218,-60 "/>
<text text-anchor="middle" x="174" y="-49.6" font-family="Times,serif" font-size="8.00">size: 12</text>
<polyline fill="none" stroke="black" points="130,-43 218,-43 "/>
<text text-anchor="middle" x="174" y="-32.6" font-family="Times,serif" font-size="8.00">next: 0x600001e69680</text>
<polyline fill="none" stroke="black" points="130,-26 218,-26 "/>
<text text-anchor="middle" x="174" y="-15.6" font-family="Times,serif" font-size="8.00">prev: 0x600001e63bd0</text>
</g>
<!-- Node0x600001e63bd0&#45;&gt;Node0x600001e68f60 -->
<g id="edge1" class="edge">
<title>Node0x600001e63bd0:n&#45;&gt;Node0x600001e68f60:n</title>
<path fill="none" stroke="red" d="M94,-34C106,-34 111.25,-34 119.88,-34"/>
<polygon fill="red" stroke="red" points="120,-37.5 130,-34 120,-30.5 120,-37.5"/>
</g>
<!-- Node0x600001e69680 -->
<g id="node3" class="node">
<title>Node0x600001e69680</title>
<polygon fill="none" stroke="black" points="254,-9 254,-77 341,-77 341,-9 254,-9"/>
<text text-anchor="middle" x="297.5" y="-66.6" font-family="Times,serif" font-size="8.00">word: Three</text>
<polyline fill="none" stroke="black" points="254,-60 341,-60 "/>
<text text-anchor="middle" x="297.5" y="-49.6" font-family="Times,serif" font-size="8.00">size: 2</text>
<polyline fill="none" stroke="black" points="254,-43 341,-43 "/>
<text text-anchor="middle" x="297.5" y="-32.6" font-family="Times,serif" font-size="8.00">next: 0x600001e6aa30</text>
<polyline fill="none" stroke="black" points="254,-26 341,-26 "/>
<text text-anchor="middle" x="297.5" y="-15.6" font-family="Times,serif" font-size="8.00">prev: 0x600001e68f60</text>
</g>
<!-- Node0x600001e68f60&#45;&gt;Node0x600001e69680 -->
<g id="edge2" class="edge">
<title>Node0x600001e68f60:n&#45;&gt;Node0x600001e69680:n</title>
<path fill="none" stroke="red" d="M218,-34C230,-34 235.25,-34 243.88,-34"/>
<polygon fill="red" stroke="red" points="244,-37.5 254,-34 244,-30.5 244,-37.5"/>
</g>
<!-- Node0x600001e6aa30 -->
<g id="node4" class="node">
<title>Node0x600001e6aa30</title>
<polygon fill="none" stroke="black" points="377,-9 377,-77 465,-77 465,-9 377,-9"/>
<text text-anchor="middle" x="421" y="-66.6" font-family="Times,serif" font-size="8.00">word: rooteth</text>
<polyline fill="none" stroke="black" points="377,-60 465,-60 "/>
<text text-anchor="middle" x="421" y="-49.6" font-family="Times,serif" font-size="8.00">size: 1</text>
<polyline fill="none" stroke="black" points="377,-43 465,-43 "/>
<text text-anchor="middle" x="421" y="-32.6" font-family="Times,serif" font-size="8.00">next: 0x600001e6e9a0</text>
<polyline fill="none" stroke="black" points="377,-26 465,-26 "/>
<text text-anchor="middle" x="421" y="-15.6" font-family="Times,serif" font-size="8.00">prev: 0x600001e69680</text>
</g>
<!-- Node0x600001e69680&#45;&gt;Node0x600001e6aa30 -->
<g id="edge3" class="edge">
<title>Node0x600001e69680:n&#45;&gt;Node0x600001e6aa30:n</title>
<path fill="none" stroke="red" d="M341,-34C353,-34 358.25,-34 366.88,-34"/>
<polygon fill="red" stroke="red" points="367,-37.5 377,-34 367,-30.5 367,-37.5"/>
</g>
<!-- Node0x600001e6e9a0 -->
<g id="node5" class="node">
<title>Node0x600001e6e9a0</title>
<polygon fill="none" stroke="black" points="501,-9 501,-77 589,-77 589,-9 501,-9"/>
<text text-anchor="middle" x="545" y="-66.6" font-family="Times,serif" font-size="8.00">word: reckoning</text>
<polyline fill="none" stroke="black" points="501,-60 589,-60 "/>
<text text-anchor="middle" x="545" y="-49.6" font-family="Times,serif" font-size="8.00">size: 1</text>
<polyline fill="none" stroke="black" points="501,-43 589,-43 "/>
<text text-anchor="middle" x="545" y="-32.6" font-family="Times,serif" font-size="8.00">next: 0x600001e64990</text>
<polyline fill="none" stroke="black" points="501,-26 589,-26 "/>
<text text-anchor="middle" x="545" y="-15.6" font-family="Times,serif" font-size="8.00">prev: 0x600001e6aa30</text>
</g>
<!-- Node0x600001e6aa30&#45;&gt;Node0x600001e6e9a0 -->
<g id="edge4" class="edge">
<title>Node0x600001e6aa30:n&#45;&gt;Node0x600001e6e9a0:n</title>
<path fill="none" stroke="red" d="M465,-34C477,-34 482.25,-34 490.88,-34"/>
<polygon fill="red" stroke="red" points="491,-37.5 501,-34 491,-30.5 491,-37.5"/>
</g>
<!-- Node0x600001e64990 -->
<g id="node6" class="node">
<title>Node0x600001e64990</title>
<polygon fill="none" stroke="black" points="625,-9 625,-77 713,-77 713,-9 625,-9"/>
<text text-anchor="middle" x="669" y="-66.6" font-family="Times,serif" font-size="8.00">word: lamb</text>
<polyline fill="none" stroke="black" points="625,-60 713,-60 "/>
<text text-anchor="middle" x="669" y="-49.6" font-family="Times,serif" font-size="8.00">size: 4</text>
<polyline fill="none" stroke="black" points="625,-43 713,-43 "/>
<text text-anchor="middle" x="669" y="-32.6" font-family="Times,serif" font-size="8.00">next: 0x600001e65d40</text>
<polyline fill="none" stroke="black" points="625,-26 713,-26 "/>
<text text-anchor="middle" x="669" y="-15.6" font-family="Times,serif" font-size="8.00">prev: 0x600001e6e9a0</text>
</g>
<!-- Node0x600001e6e9a0&#45;&gt;Node0x600001e64990 -->
<g id="edge5" class="edge">
<title>Node0x600001e6e9a0:n&#45;&gt;Node0x600001e64990:n</title>
<path fill="none" stroke="red" d="M589,-34C601,-34 606.25,-34 614.88,-34"/>
<polygon fill="red" stroke="red" points="615,-37.5 625,-34 615,-30.5 615,-37.5"/>
</g>
<!-- Node0x600001e65d40 -->
<g id="node7" class="node">
<title>Node0x600001e65d40</title>
<polygon fill="none" stroke="black" points="749,-9 749,-77 837,-77 837,-9 749,-9"/>
<text text-anchor="middle" x="793" y="-66.6" font-family="Times,serif" font-size="8.00">word: wisdom</text>
<polyline fill="none" stroke="black" points="749,-60 837,-60 "/>
<text text-anchor="middle" x="793" y="-49.6" font-family="Times,serif" font-size="8.00">size: 3</text>
<polyline fill="none" stroke="black" points="749,-43 837,-43 "/>
<text text-anchor="middle" x="793" y="-32.6" font-family="Times,serif" font-size="8.00">next: 0x600001e67060</text>
<polyline fill="none" stroke="black" points="749,-26 837,-26 "/>
<text text-anchor="middle" x="793" y="-15.6" font-family="Times,serif" font-size="8.00">prev: 0x600001e64990</text>
</g>
<!-- Node0x600001e64990&#45;&gt;Node0x600001e65d40 -->
<g id="edge6" class="edge">
<title>Node0x600001e64990:n&#45;&gt;Node0x600001e65d40:n</title>
<path fill="none" stroke="red" d="M713,-34C725,-34 730.25,-34 738.88,-34"/>
<polygon fill="red" stroke="red" points="739,-37.5 749,-34 739,-30.5 739,-37.5"/>
</g>
<!-- Node0x600001e67060 -->
<g id="node8" class="node">
<title>Node0x600001e67060</title>
<polygon fill="none" stroke="black" points="873,-9 873,-77 961,-77 961,-9 873,-9"/>
<text text-anchor="middle" x="917" y="-66.6" font-family="Times,serif" font-size="8.00">word: enpierced</text>
<polyline fill="none" stroke="black" points="873,-60 961,-60 "/>
<text text-anchor="middle" x="917" y="-49.6" font-family="Times,serif" font-size="8.00">size: 1</text>
<polyline fill="none" stroke="black" points="873,-43 961,-43 "/>
<text text-anchor="middle" x="917" y="-32.6" font-family="Times,serif" font-size="8.00">next: 0x600001e740c0</text>
<polyline fill="none" stroke="black" points="873,-26 961,-26 "/>
<text text-anchor="middle" x="917" y="-15.6" font-family="Times,serif" font-size="8.00">prev: 0x600001e65d40</text>
</g>
<!-- Node0x600001e65d40&#45;&gt;Node0x600001e67060 -->
<g id="edge7" class="edge">
<title>Node0x600001e65d40:n&#45;&gt;Node0x600001e67060:n</title>
<path fill="none" stroke="red" d="M837,-34C849,-34 854.25,-34 862.88,-34"/>
<polygon fill="red" stroke="red" points="863,-37.5 873,-34 863,-30.5 863,-37.5"/>
</g>
<!-- Node0x600001e740c0 -->
<g id="node9" class="node">
<title>Node0x600001e740c0</title>
<polygon fill="none" stroke="black" points="997,-9 997,-77 1085,-77 1085,-9 997,-9"/>
<text text-anchor="middle" x="1041" y="-66.6" font-family="Times,serif" font-size="8.00">word: smallest</text>
<polyline fill="none" stroke="black" points="997,-60 1085,-60 "/>
<text text-anchor="middle" x="1041" y="-49.6" font-family="Times,serif" font-size="8.00">size: 1</text>
<polyline fill="none" stroke="black" points="997,-43 1085,-43 "/>
<text text-anchor="middle" x="1041" y="-32.6" font-family="Times,serif" font-size="8.00">next: 0x600001e76580</text>
<polyline fill="none" stroke="black" points="997,-26 1085,-26 "/>
<text text-anchor="middle" x="1041" y="-15.6" font-family="Times,serif" font-size="8.00">prev: 0x600001e67060</text>
</g>
<!-- Node0x600001e67060&#45;&gt;Node0x600001e740c0 -->
<g id="edge8" class="edge">
<title>Node0x600001e67060:n&#45;&gt;Node0x600001e740c0:n</title>
<path fill="none" stroke="red" d="M961,-34C973,-34 978.25,-34 986.88,-34"/>
<polygon fill="red" stroke="red" points="987,-37.5 997,-34 987,-30.5 987,-37.5"/>
</g>
<!-- Node0x600001e76580 -->
<g id="node10" class="node">
<title>Node0x600001e76580</title>
<polygon fill="none" stroke="black" points="1121,-9 1121,-77 1209,-77 1209,-9 1121,-9"/>
<text text-anchor="middle" x="1165" y="-66.6" font-family="Times,serif" font-size="8.00">word: sit</text>
<polyline fill="none" stroke="black" points="1121,-60 1209,-60 "/>
<text text-anchor="middle" x="1165" y="-49.6" font-family="Times,serif" font-size="8.00">size: 7</text>
<polyline fill="none" stroke="black" points="1121,-43 1209,-43 "/>
<text text-anchor="middle" x="1165" y="-32.6" font-family="Times,serif" font-size="8.00">next: 0x600001e775d0</text>
<polyline fill="none" stroke="black" points="1121,-26 1209,-26 "/>
<text text-anchor="middle" x="1165" y="-15.6" font-family="Times,serif" font-size="8.00">prev: 0x600001e740c0</text>
</g>
<!-- Node0x600001e740c0&#45;&gt;Node0x600001e76580 -->
<g id="edge9" class="edge">
<title>Node0x600001e740c0:n&#45;&gt;Node0x600001e76580:n</title>
<path fill="none" stroke="red" d="M1085,-34C1097,-34 1102.25,-34 1110.88,-34"/>
<polygon fill="red" stroke="red" points="1111,-37.5 1121,-34 1111,-30.5 1111,-37.5"/>
</g>
<!-- Node0x600001e775d0 -->
<g id="node11" class="node">
<title>Node0x600001e775d0</title>
<polygon fill="none" stroke="black" points="1245,-9 1245,-77 1333,-77 1333,-9 1245,-9"/>
<text text-anchor="middle" x="1289" y="-66.6" font-family="Times,serif" font-size="8.00">word: different</text>
<polyline fill="none" stroke="black" points="1245,-60 1333,-60 "/>
<text text-anchor="middle" x="1289" y="-49.6" font-family="Times,serif" font-size="8.00">size: 2</text>
<polyline fill="none" stroke="black" points="1245,-43 1333,-43 "/>
<text text-anchor="middle" x="1289" y="-32.6" font-family="Times,serif" font-size="8.00">next: 0x600001e78270</text>
<polyline fill="none" stroke="black" points="1245,-26 1333,-26 "/>
<text text-anchor="middle" x="1289" y="-15.6" font-family="Times,serif" font-size="8.00">prev: 0x600001e76580</text>
</g>
<!-- Node0x600001e76580&#45;&gt;Node0x600001e775d0 -->
<g id="edge10" class="edge">
<title>Node0x600001e76580:n&#45;&gt;Node0x600001e775d0:n</title>
<path fill="none" stroke="red" d="M1209,-34C1221,-34 1226.25,-34 1234.88,-34"/>
<polygon fill="red" stroke="red" points="1235,-37.5 1245,-34 1235,-30.5 1235,-37.5"/>
</g>
<!-- Node0x600001e78270 -->
<g id="node12" class="node">
<title>Node0x600001e78270</title>
<polygon fill="none" stroke="black" points="1369,-9 1369,-77 1457,-77 1457,-9 1369,-9"/>
<text text-anchor="middle" x="1413" y="-66.6" font-family="Times,serif" font-size="8.00">word: strangers</text>
<polyline fill="none" stroke="black" points="1369,-60 1457,-60 "/>
<text text-anchor="middle" x="1413" y="-49.6" font-family="Times,serif" font-size="8.00">size: 1</text>
<polyline fill="none" stroke="black" points="1369,-43 1457,-43 "/>
<text text-anchor="middle" x="1413" y="-32.6" font-family="Times,serif" font-size="8.00">next: 0x600001e7e550</text>
<polyline fill="none" stroke="black" points="1369,-26 1457,-26 "/>
<text text-anchor="middle" x="1413" y="-15.6" font-family="Times,serif" font-size="8.00">prev: 0x600001e775d0</text>
</g>
<!-- Node0x600001e775d0&#45;&gt;Node0x600001e78270 -->
<g id="edge11" class="edge">
<title>Node0x600001e775d0:n&#45;&gt;Node0x600001e78270:n</title>
<path fill="none" stroke="red" d="M1333,-34C1345,-34 1350.25,-34 1358.88,-34"/>
<polygon fill="red" stroke="red" points="1359,-37.5 1369,-34 1359,-30.5 1359,-37.5"/>
</g>
<!-- Node0x600001e7e550 -->
<g id="node13" class="node">
<title>Node0x600001e7e550</title>
<polygon fill="none" stroke="black" points="1493,-9 1493,-77 1581,-77 1581,-9 1493,-9"/>
<text text-anchor="middle" x="1537" y="-66.6" font-family="Times,serif" font-size="8.00">word: god</text>
<polyline fill="none" stroke="black" points="1493,-60 1581,-60 "/>
<text text-anchor="middle" x="1537" y="-49.6" font-family="Times,serif" font-size="8.00">size: 2</text>
<polyline fill="none" stroke="black" points="1493,-43 1581,-43 "/>
<text text-anchor="middle" x="1537" y="-32.6" font-family="Times,serif" font-size="8.00">next: 0x600001e7eac0</text>
<polyline fill="none" stroke="black" points="1493,-26 1581,-26 "/>
<text text-anchor="middle" x="1537" y="-15.6" font-family="Times,serif" font-size="8.00">prev: 0x600001e78270</text>
</g>
<!-- Node0x600001e78270&#45;&gt;Node0x600001e7e550 -->
<g id="edge12" class="edge">
<title>Node0x600001e78270:n&#45;&gt;Node0x600001e7e550:n</title>
<path fill="none" stroke="red" d="M1457,-34C1469,-34 1474.25,-34 1482.88,-34"/>
<polygon fill="red" stroke="red" points="1483,-37.5 1493,-34 1483,-30.5 1483,-37.5"/>
</g>
<!-- Node0x600001e7eac0 -->
<g id="node14" class="node">
<title>Node0x600001e7eac0</title>
<polygon fill="none" stroke="black" points="1617,-9 1617,-77 1705,-77 1705,-9 1617,-9"/>
<text text-anchor="middle" x="1661" y="-66.6" font-family="Times,serif" font-size="8.00">word: Dear</text>
<polyline fill="none" stroke="black" points="1617,-60 1705,-60 "/>
<text text-anchor="middle" x="1661" y="-49.6" font-family="Times,serif" font-size="8.00">size: 1</text>
<polyline fill="none" stroke="black" points="1617,-43 1705,-43 "/>
<text text-anchor="middle" x="1661" y="-32.6" font-family="Times,serif" font-size="8.00">next: 0x600001e7f240</text>
<polyline fill="none" stroke="black" points="1617,-26 1705,-26 "/>
<text text-anchor="middle" x="1661" y="-15.6" font-family="Times,serif" font-size="8.00">prev: 0x600001e7e550</text>
</g>
<!-- Node0x600001e7e550&#45;&gt;Node0x600001e7eac0 -->
<g id="edge13" class="edge">
<title>Node0x600001e7e550:n&#45;&gt;Node0x600001e7eac0:n</title>
<path fill="none" stroke="red" d="M1581,-34C1593,-34 1598.25,-34 1606.88,-34"/>
<polygon fill="red" stroke="red" points="1607,-37.5 1617,-34 1607,-30.5 1607,-37.5"/>
</g>
<!-- Node0x600001e7f240 -->
<g id="node15" class="node">
<title>Node0x600001e7f240</title>
<polygon fill="none" stroke="black" points="1741,-9 1741,-77 1829,-77 1829,-9 1741,-9"/>
<text text-anchor="middle" x="1785" y="-66.6" font-family="Times,serif" font-size="8.00">word: forgot</text>
<polyline fill="none" stroke="black" points="1741,-60 1829,-60 "/>
<text text-anchor="middle" x="1785" y="-49.6" font-family="Times,serif" font-size="8.00">size: 2</text>
<polyline fill="none" stroke="black" points="1741,-43 1829,-43 "/>
<text text-anchor="middle" x="1785" y="-32.6" font-family="Times,serif" font-size="8.00">next: 0x600001e41290</text>
<polyline fill="none" stroke="black" points="1741,-26 1829,-26 "/>
<text text-anchor="middle" x="1785" y="-15.6" font-family="Times,serif" font-size="8.00">prev: 0x600001e7eac0</text>
</g>
<!-- Node0x600001e7eac0&#45;&gt;Node0x600001e7f240 -->
<g id="edge14" class="edge">
<title>Node0x600001e7eac0:n&#45;&gt;Node0x600001e7f240:n</title>
<path fill="none" stroke="red" d="M1705,-34C1717,-34 1722.25,-34 1730.88,-34"/>
<polygon fill="red" stroke="red" points="1731,-37.5 1741,-34 1731,-30.5 1731,-37.5"/>
</g>
<!-- Node0x600001e41290 -->
<g id="node16" class="node">
<title>Node0x600001e41290</title>
<polygon fill="none" stroke="black" points="1865,-9 1865,-77 1952,-77 1952,-9 1865,-9"/>
<text text-anchor="middle" x="1908.5" y="-66.6" font-family="Times,serif" font-size="8.00">word: waverer</text>
<polyline fill="none" stroke="black" points="1865,-60 1952,-60 "/>
<text text-anchor="middle" x="1908.5" y="-49.6" font-family="Times,serif" font-size="8.00">size: 1</text>
<polyline fill="none" stroke="black" points="1865,-43 1952,-43 "/>
<text text-anchor="middle" x="1908.5" y="-32.6" font-family="Times,serif" font-size="8.00">next: 0x600001e434b0</text>
<polyline fill="none" stroke="black" points="1865,-26 1952,-26 "/>
<text text-anchor="middle" x="1908.5" y="-15.6" font-family="Times,serif" font-size="8.00">prev: 0x600001e7f240</text>
</g>
<!-- Node0x600001e7f240&#45;&gt;Node0x600001e41290 -->
<g id="edge15" class="edge">
<title>Node0x600001e7f240:n&#45;&gt;Node0x600001e41290:n</title>
<path fill="none" stroke="red" d="M1829,-34C1841,-34 1846.25,-34 1854.88,-34"/>
<polygon fill="red" stroke="red" points="1855,-37.5 1865,-34 1855,-30.5 1855,-37.5"/>
</g>
<!-- Node0x600001e434b0 -->
<g id="node17" class="node">
<title>Node0x600001e434b0</title>
<polygon fill="none" stroke="black" points="1988,-9 1988,-77 2076,-77 2076,-9 1988,-9"/>
<text text-anchor="middle" x="2032" y="-66.6" font-family="Times,serif" font-size="8.00">word: something</text>
<polyline fill="none" stroke="black" points="1988,-60 2076,-60 "/>
<text text-anchor="middle" x="2032" y="-49.6" font-family="Times,serif" font-size="8.00">size: 4</text>
<polyline fill="none" stroke="black" points="1988,-43 2076,-43 "/>
<text text-anchor="middle" x="2032" y="-32.6" font-family="Times,serif" font-size="8.00">next: 0x600001e44f00</text>
<polyline fill="none" stroke="black" points="1988,-26 2076,-26 "/>
<text text-anchor="middle" x="2032" y="-15.6" font-family="Times,serif" font-size="8.00">prev: 0x600001e41290</text>
</g>
<!-- Node0x600001e41290&#45;&gt;Node0x600001e434b0 -->
<g id="edge16" class="edge">
<title>Node0x600001e41290:n&#45;&gt;Node0x600001e434b0:n</title>
<path fill="none" stroke="red" d="M1952,-34C1964,-34 1969.25,-34 1977.88,-34"/>
<polygon fill="red" stroke="red" points="1978,-37.5 1988,-34 1978,-30.5 1978,-37.5"/>
</g>
<!-- Node0x600001e44f00 -->
<g id="node18" class="node">
<title>Node0x600001e44f00</title>
<polygon fill="none" stroke="black" points="2112,-9 2112,-77 2200,-77 2200,-9 2112,-9"/>
<text text-anchor="middle" x="2156" y="-66.6" font-family="Times,serif" font-size="8.00">word: repliest</text>
<polyline fill="none" stroke="black" points="2112,-60 2200,-60 "/>
<text text-anchor="middle" x="2156" y="-49.6" font-family="Times,serif" font-size="8.00">size: 1</text>
<polyline fill="none" stroke="black" points="2112,-43 2200,-43 "/>
<text text-anchor="middle" x="2156" y="-32.6" font-family="Times,serif" font-size="8.00">next: 0x600001e45860</text>
<polyline fill="none" stroke="black" points="2112,-26 2200,-26 "/>
<text text-anchor="middle" x="2156" y="-15.6" font-family="Times,serif" font-size="8.00">prev: 0x600001e434b0</text>
</g>
<!-- Node0x600001e434b0&#45;&gt;Node0x600001e44f00 -->
<g id="edge17" class="edge">
<title>Node0x600001e434b0:n&#45;&gt;Node0x600001e44f00:n</title>
<path fill="none" stroke="red" d="M2076,-34C2088,-34 2093.25,-34 2101.88,-34"/>
<polygon fill="red" stroke="red" points="2102,-37.5 2112,-34 2102,-30.5 2102,-37.5"/>
</g>
<!-- Node0x600001e45860 -->
<g id="node19" class="node">
<title>Node0x600001e45860</title>
<polygon fill="none" stroke="black" points="2236,-9 2236,-77 2323,-77 2323,-9 2236,-9"/>
<text text-anchor="middle" x="2279.5" y="-66.6" font-family="Times,serif" font-size="8.00">word: Unfold</text>
<polyline fill="none" stroke="black" points="2236,-60 2323,-60 "/>
<text text-anchor="middle" x="2279.5" y="-49.6" font-family="Times,serif" font-size="8.00">size: 1</text>
<polyline fill="none" stroke="black" points="2236,-43 2323,-43 "/>
<text text-anchor="middle" x="2279.5" y="-32.6" font-family="Times,serif" font-size="8.00">next: 0x600001e46010</text>
<polyline fill="none" stroke="black" points="2236,-26 2323,-26 "/>
<text text-anchor="middle" x="2279.5" y="-15.6" font-family="Times,serif" font-size="8.00">prev: 0x600001e44f00</text>
</g>
<!-- Node0x600001e44f00&#45;&gt;Node0x600001e45860 -->
<g id="edge18" class="edge">
<title>Node0x600001e44f00:n&#45;&gt;Node0x600001e45860:n</title>
<path fill="none" stroke="red" d="M2200,-34C2212,-34 2217.25,-34 2225.88,-34"/>
<polygon fill="red" stroke="red" points="2226,-37.5 2236,-34 2226,-30.5 2226,-37.5"/>
</g>
<!-- Node0x600001e46010 -->
<g id="node20" class="node">
<title>Node0x600001e46010</title>
<polygon fill="none" stroke="black" points="2359,-9 2359,-77 2447,-77 2447,-9 2359,-9"/>
<text text-anchor="middle" x="2403" y="-66.6" font-family="Times,serif" font-size="8.00">word: addle</text>
<polyline fill="none" stroke="black" points="2359,-60 2447,-60 "/>
<text text-anchor="middle" x="2403" y="-49.6" font-family="Times,serif" font-size="8.00">size: 1</text>
<polyline fill="none" stroke="black" points="2359,-43 2447,-43 "/>
<text text-anchor="middle" x="2403" y="-32.6" font-family="Times,serif" font-size="8.00">next: 0x600001e46880</text>
<polyline fill="none" stroke="black" points="2359,-26 2447,-26 "/>
<text text-anchor="middle" x="2403" y="-15.6" font-family="Times,serif" font-size="8.00">prev: 0x600001e45860</text>
</g>
<!-- Node0x600001e45860&#45;&gt;Node0x600001e46010 -->
<g id="edge19" class="edge">
<title>Node0x600001e45860:n&#45;&gt;Node0x600001e46010:n</title>
<path fill="none" stroke="red" d="M2323,-34C2335,-34 2340.25,-34 2348.88,-34"/>
<polygon fill="red" stroke="red" points="2349,-37.5 2359,-34 2349,-30.5 2349,-37.5"/>
</g>
<!-- Node0x600001e46880 -->
<g id="node21" class="node">
<title>Node0x600001e46880</title>
<polygon fill="none" stroke="black" points="2483,-9 2483,-77 2571,-77 2571,-9 2483,-9"/>
<text text-anchor="middle" x="2527" y="-66.6" font-family="Times,serif" font-size="8.00">word: carries</text>
<polyline fill="none" stroke="black" points="2483,-60 2571,-60 "/>
<text text-anchor="middle" x="2527" y="-49.6" font-family="Times,serif" font-size="8.00">size: 1</text>
<polyline fill="none" stroke="black" points="2483,-43 2571,-43 "/>
<text text-anchor="middle" x="2527" y="-32.6" font-family="Times,serif" font-size="8.00">next: 0x600001e46df0</text>
<polyline fill="none" stroke="black" points="2483,-26 2571,-26 "/>
<text text-anchor="middle" x="2527" y="-15.6" font-family="Times,serif" font-size="8.00">prev: 0x600001e46010</text>
</g>
<!-- Node0x600001e46010&#45;&gt;Node0x600001e46880 -->
<g id="edge20" class="edge">
<title>Node0x600001e46010:n&#45;&gt;Node0x600001e46880:n</title>
<path fill="none" stroke="red" d="M2447,-34C2459,-34 2464.25,-34 2472.88,-34"/>
<polygon fill="red" stroke="red" points="2473,-37.5 2483,-34 2473,-30.5 2473,-37.5"/>
</g>
<!-- Node0x600001e46df0 -->
<g id="node22" class="node">
<title>Node0x600001e46df0</title>
<polygon fill="none" stroke="black" points="2607,-9 2607,-77 2695,-77 2695,-9 2607,-9"/>
<text text-anchor="middle" x="2651" y="-66.6" font-family="Times,serif" font-size="8.00">word: thought</text>
<polyline fill="none" stroke="black" points="2607,-60 2695,-60 "/>
<text text-anchor="middle" x="2651" y="-49.6" font-family="Times,serif" font-size="8.00">size: 9</text>
<polyline fill="none" stroke="black" points="2607,-43 2695,-43 "/>
<text text-anchor="middle" x="2651" y="-32.6" font-family="Times,serif" font-size="8.00">next: 0x600001e47690</text>
<polyline fill="none" stroke="black" points="2607,-26 2695,-26 "/>
<text text-anchor="middle" x="2651" y="-15.6" font-family="Times,serif" font-size="8.00">prev: 0x600001e46880</text>
</g>
<!-- Node0x600001e46880&#45;&gt;Node0x600001e46df0 -->
<g id="edge21" class="edge">
<title>Node0x600001e46880:n&#45;&gt;Node0x600001e46df0:n</title>
<path fill="none" stroke="red" d="M2571,-34C2583,-34 2588.25,-34 2596.88,-34"/>
<polygon fill="red" stroke="red" points="2597,-37.5 2607,-34 2597,-30.5 2597,-37.5"/>
</g>
<!-- Node0x600001e47690 -->
<g id="node23" class="node">
<title>Node0x600001e47690</title>
<polygon fill="none" stroke="black" points="2731,-9 2731,-77 2818,-77 2818,-9 2731,-9"/>
<text text-anchor="middle" x="2774.5" y="-66.6" font-family="Times,serif" font-size="8.00">word: slew</text>
<polyline fill="none" stroke="black" points="2731,-60 2818,-60 "/>
<text text-anchor="middle" x="2774.5" y="-49.6" font-family="Times,serif" font-size="8.00">size: 5</text>
<polyline fill="none" stroke="black" points="2731,-43 2818,-43 "/>
<text text-anchor="middle" x="2774.5" y="-32.6" font-family="Times,serif" font-size="8.00">next: 0x600001e48f90</text>
<polyline fill="none" stroke="black" points="2731,-26 2818,-26 "/>
<text text-anchor="middle" x="2774.5" y="-15.6" font-family="Times,serif" font-size="8.00">prev: 0x600001e46df0</text>
</g>
<!-- Node0x600001e46df0&#45;&gt;Node0x600001e47690 -->
<g id="edge22" class="edge">
<title>Node0x600001e46df0:n&#45;&gt;Node0x600001e47690:n</title>
<path fill="none" stroke="red" d="M2695,-34C2707,-34 2712.25,-34 2720.88,-34"/>
<polygon fill="red" stroke="red" points="2721,-37.5 2731,-34 2721,-30.5 2721,-37.5"/>
</g>
<!-- Node0x600001e48f90 -->
<g id="node24" class="node">
<title>Node0x600001e48f90</title>
<polygon fill="none" stroke="black" points="2854,-9 2854,-77 2942,-77 2942,-9 2854,-9"/>
<text text-anchor="middle" x="2898" y="-66.6" font-family="Times,serif" font-size="8.00">word: resign</text>
<polyline fill="none" stroke="black" points="2854,-60 2942,-60 "/>
<text text-anchor="middle" x="2898" y="-49.6" font-family="Times,serif" font-size="8.00">size: 1</text>
<polyline fill="none" stroke="black" points="2854,-43 2942,-43 "/>
<text text-anchor="middle" x="2898" y="-32.6" font-family="Times,serif" font-size="8.00">next: 0x600001e49bf0</text>
<polyline fill="none" stroke="black" points="2854,-26 2942,-26 "/>
<text text-anchor="middle" x="2898" y="-15.6" font-family="Times,serif" font-size="8.00">prev: 0x600001e47690</text>
</g>
<!-- Node0x600001e47690&#45;&gt;Node0x600001e48f90 -->
<g id="edge23" class="edge">
<title>Node0x600001e47690:n&#45;&gt;Node0x600001e48f90:n</title>
<path fill="none" stroke="red" d="M2818,-34C2830,-34 2835.25,-34 2843.88,-34"/>
<polygon fill="red" stroke="red" points="2844,-37.5 2854,-34 2844,-30.5 2844,-37.5"/>
</g>
<!-- Node0x600001e49bf0 -->
<g id="node25" class="node">
<title>Node0x600001e49bf0</title>
<polygon fill="none" stroke="black" points="2978,-9 2978,-77 3065,-77 3065,-9 2978,-9"/>
<text text-anchor="middle" x="3021.5" y="-66.6" font-family="Times,serif" font-size="8.00">word: modern</text>
<polyline fill="none" stroke="black" points="2978,-60 3065,-60 "/>
<text text-anchor="middle" x="3021.5" y="-49.6" font-family="Times,serif" font-size="8.00">size: 1</text>
<polyline fill="none" stroke="black" points="2978,-43 3065,-43 "/>
<text text-anchor="middle" x="3021.5" y="-32.6" font-family="Times,serif" font-size="8.00">next: 0x600001e78720</text>
<polyline fill="none" stroke="black" points="2978,-26 3065,-26 "/>
<text text-anchor="middle" x="3021.5" y="-15.6" font-family="Times,serif" font-size="8.00">prev: 0x600001e48f90</text>
</g>
<!-- Node0x600001e48f90&#45;&gt;Node0x600001e49bf0 -->
<g id="edge24" class="edge">
<title>Node0x600001e48f90:n&#45;&gt;Node0x600001e49bf0:n</title>
<path fill="none" stroke="red" d="M2942,-34C2954,-34 2959.25,-34 2967.88,-34"/>
<polygon fill="red" stroke="red" points="2968,-37.5 2978,-34 2968,-30.5 2968,-37.5"/>
</g>
<!-- Node0x600001e78720 -->
<g id="node26" class="node">
<title>Node0x600001e78720</title>
<polygon fill="none" stroke="black" points="3101,-9 3101,-77 3188,-77 3188,-9 3101,-9"/>
<text text-anchor="middle" x="3144.5" y="-66.6" font-family="Times,serif" font-size="8.00">word: simpleness</text>
<polyline fill="none" stroke="black" points="3101,-60 3188,-60 "/>
<text text-anchor="middle" x="3144.5" y="-49.6" font-family="Times,serif" font-size="8.00">size: 1</text>
<polyline fill="none" stroke="black" points="3101,-43 3188,-43 "/>
<text text-anchor="middle" x="3144.5" y="-32.6" font-family="Times,serif" font-size="8.00">next: 0x600001e4a850</text>
<polyline fill="none" stroke="black" points="3101,-26 3188,-26 "/>
<text text-anchor="middle" x="3144.5" y="-15.6" font-family="Times,serif" font-size="8.00">prev: 0x600001e49bf0</text>
</g>
<!-- Node0x600001e49bf0&#45;&gt;Node0x600001e78720 -->
<g id="edge25" class="edge">
<title>Node0x600001e49bf0:n&#45;&gt;Node0x600001e78720:n</title>
<path fill="none" stroke="red" d="M3065,-34C3077,-34 3082.25,-34 3090.88,-34"/>
<polygon fill="red" stroke="red" points="3091,-37.5 3101,-34 3091,-30.5 3091,-37.5"/>
</g>
<!-- Node0x600001e4a850 -->
<g id="node27" class="node">
<title>Node0x600001e4a850</title>
<polygon fill="none" stroke="black" points="3224,-9 3224,-77 3312,-77 3312,-9 3224,-9"/>
<text text-anchor="middle" x="3268" y="-66.6" font-family="Times,serif" font-size="8.00">word: weeping</text>
<polyline fill="none" stroke="black" points="3224,-60 3312,-60 "/>
<text text-anchor="middle" x="3268" y="-49.6" font-family="Times,serif" font-size="8.00">size: 3</text>
<polyline fill="none" stroke="black" points="3224,-43 3312,-43 "/>
<text text-anchor="middle" x="3268" y="-32.6" font-family="Times,serif" font-size="8.00">next: 0x600001e71d10</text>
<polyline fill="none" stroke="black" points="3224,-26 3312,-26 "/>
<text text-anchor="middle" x="3268" y="-15.6" font-family="Times,serif" font-size="8.00">prev: 0x600001e78720</text>
</g>
<!-- Node0x600001e78720&#45;&gt;Node0x600001e4a850 -->
<g id="edge26" class="edge">
<title>Node0x600001e78720:n&#45;&gt;Node0x600001e4a850:n</title>
<path fill="none" stroke="red" d="M3188,-34C3200,-34 3205.25,-34 3213.88,-34"/>
<polygon fill="red" stroke="red" points="3214,-37.5 3224,-34 3214,-30.5 3214,-37.5"/>
</g>
<!-- Node0x600001e71d10 -->
<g id="node28" class="node">
<title>Node0x600001e71d10</title>
<polygon fill="none" stroke="black" points="3348,-9 3348,-77 3436,-77 3436,-9 3348,-9"/>
<text text-anchor="middle" x="3392" y="-66.6" font-family="Times,serif" font-size="8.00">word: worthy</text>
<polyline fill="none" stroke="black" points="3348,-60 3436,-60 "/>
<text text-anchor="middle" x="3392" y="-49.6" font-family="Times,serif" font-size="8.00">size: 1</text>
<polyline fill="none" stroke="black" points="3348,-43 3436,-43 "/>
<text text-anchor="middle" x="3392" y="-32.6" font-family="Times,serif" font-size="8.00">next: 0x600001e78de0</text>
<polyline fill="none" stroke="black" points="3348,-26 3436,-26 "/>
<text text-anchor="middle" x="3392" y="-15.6" font-family="Times,serif" font-size="8.00">prev: 0x600001e4a850</text>
</g>
<!-- Node0x600001e4a850&#45;&gt;Node0x600001e71d10 -->
<g id="edge27" class="edge">
<title>Node0x600001e4a850:n&#45;&gt;Node0x600001e71d10:n</title>
<path fill="none" stroke="red" d="M3312,-34C3324,-34 3329.25,-34 3337.88,-34"/>
<polygon fill="red" stroke="red" points="3338,-37.5 3348,-34 3338,-30.5 3338,-37.5"/>
</g>
<!-- Node0x600001e78de0 -->
<g id="node29" class="node">
<title>Node0x600001e78de0</title>
<polygon fill="none" stroke="black" points="3472,-9 3472,-77 3560,-77 3560,-9 3472,-9"/>
<text text-anchor="middle" x="3516" y="-66.6" font-family="Times,serif" font-size="8.00">word: serves</text>
<polyline fill="none" stroke="black" points="3472,-60 3560,-60 "/>
<text text-anchor="middle" x="3516" y="-49.6" font-family="Times,serif" font-size="8.00">size: 1</text>
<polyline fill="none" stroke="black" points="3472,-43 3560,-43 "/>
<text text-anchor="middle" x="3516" y="-32.6" font-family="Times,serif" font-size="8.00">next: 0x600001e794d0</text>
<polyline fill="none" stroke="black" points="3472,-26 3560,-26 "/>
<text text-anchor="middle" x="3516" y="-15.6" font-family="Times,serif" font-size="8.00">prev: 0x600001e71d10</text>
</g>
<!-- Node0x600001e71d10&#45;&gt;Node0x600001e78de0 -->
<g id="edge28" class="edge">
<title>Node0x600001e71d10:n&#45;&gt;Node0x600001e78de0:n</title>
<path fill="none" stroke="red" d="M3436,-34C3448,-34 3453.25,-34 3461.88,-34"/>
<polygon fill="red" stroke="red" points="3462,-37.5 3472,-34 3462,-30.5 3462,-37.5"/>
</g>
<!-- Node0x600001e794d0 -->
<g id="node30" class="node">
<title>Node0x600001e794d0</title>
<polygon fill="none" stroke="black" points="3596,-9 3596,-77 3684,-77 3684,-9 3596,-9"/>
<text text-anchor="middle" x="3640" y="-66.6" font-family="Times,serif" font-size="8.00">word: ercover</text>
<polyline fill="none" stroke="black" points="3596,-60 3684,-60 "/>
<text text-anchor="middle" x="3640" y="-49.6" font-family="Times,serif" font-size="8.00">size: 1</text>
<polyline fill="none" stroke="black" points="3596,-43 3684,-43 "/>
<text text-anchor="middle" x="3640" y="-32.6" font-family="Times,serif" font-size="8.00">next: 0x600001e7b5d0</text>
<polyline fill="none" stroke="black" points="3596,-26 3684,-26 "/>
<text text-anchor="middle" x="3640" y="-15.6" font-family="Times,serif" font-size="8.00">prev: 0x600001e78de0</text>
</g>
<!-- Node0x600001e78de0&#45;&gt;Node0x600001e794d0 -->
<g id="edge29" class="edge">
<title>Node0x600001e78de0:n&#45;&gt;Node0x600001e794d0:n</title>
<path fill="none" stroke="red" d="M3560,-34C3572,-34 3577.25,-34 3585.88,-34"/>
<polygon fill="red" stroke="red" points="3586,-37.5 3596,-34 3586,-30.5 3586,-37.5"/>
</g>
<!-- Node0x600001e7b5d0 -->
<g id="node31" class="node">
<title>Node0x600001e7b5d0</title>
<polygon fill="none" stroke="black" points="3720,-9 3720,-77 3808,-77 3808,-9 3720,-9"/>
<text text-anchor="middle" x="3764" y="-66.6" font-family="Times,serif" font-size="8.00">word: fright</text>
<polyline fill="none" stroke="black" points="3720,-60 3808,-60 "/>
<text text-anchor="middle" x="3764" y="-49.6" font-family="Times,serif" font-size="8.00">size: 1</text>
<polyline fill="none" stroke="black" points="3720,-43 3808,-43 "/>
<text text-anchor="middle" x="3764" y="-32.6" font-family="Times,serif" font-size="8.00">next: 0x600001e72fd0</text>
<polyline fill="none" stroke="black" points="3720,-26 3808,-26 "/>
<text text-anchor="middle" x="3764" y="-15.6" font-family="Times,serif" font-size="8.00">prev: 0x600001e794d0</text>
</g>
<!-- Node0x600001e794d0&#45;&gt;Node0x600001e7b5d0 -->
<g id="edge30" class="edge">
<title>Node0x600001e794d0:n&#45;&gt;Node0x600001e7b5d0:n</title>
<path fill="none" stroke="red" d="M3684,-34C3696,-34 3701.25,-34 3709.88,-34"/>
<polygon fill="red" stroke="red" points="3710,-37.5 3720,-34 3710,-30.5 3710,-37.5"/>
</g>
<!-- Node0x600001e72fd0 -->
<g id="node32" class="node">
<title>Node0x600001e72fd0</title>
<polygon fill="none" stroke="black" points="3844,-9 3844,-77 3932,-77 3932,-9 3844,-9"/>
<text text-anchor="middle" x="3888" y="-66.6" font-family="Times,serif" font-size="8.00">word: amended</text>
<polyline fill="none" stroke="black" points="3844,-60 3932,-60 "/>
<text text-anchor="middle" x="3888" y="-49.6" font-family="Times,serif" font-size="8.00">size: 1</text>
<polyline fill="none" stroke="black" points="3844,-43 3932,-43 "/>
<text text-anchor="middle" x="3888" y="-32.6" font-family="Times,serif" font-size="8.00">next: 0x600001e73360</text>
<polyline fill="none" stroke="black" points="3844,-26 3932,-26 "/>
<text text-anchor="middle" x="3888" y="-15.6" font-family="Times,serif" font-size="8.00">prev: 0x600001e7b5d0</text>
</g>
<!-- Node0x600001e7b5d0&#45;&gt;Node0x600001e72fd0 -->
<g id="edge31" class="edge">
<title>Node0x600001e7b5d0:n&#45;&gt;Node0x600001e72fd0:n</title>
<path fill="none" stroke="red" d="M3808,-34C3820,-34 3825.25,-34 3833.88,-34"/>
<polygon fill="red" stroke="red" points="3834,-37.5 3844,-34 3834,-30.5 3834,-37.5"/>
</g>
<!-- Node0x600001e73360 -->
<g id="node33" class="node">
<title>Node0x600001e73360</title>
<polygon fill="none" stroke="black" points="3968,-9 3968,-77 4055,-77 4055,-9 3968,-9"/>
<text text-anchor="middle" x="4011.5" y="-66.6" font-family="Times,serif" font-size="8.00">word: Simon</text>
<polyline fill="none" stroke="black" points="3968,-60 4055,-60 "/>
<text text-anchor="middle" x="4011.5" y="-49.6" font-family="Times,serif" font-size="8.00">size: 1</text>
<polyline fill="none" stroke="black" points="3968,-43 4055,-43 "/>
<text text-anchor="middle" x="4011.5" y="-32.6" font-family="Times,serif" font-size="8.00">next: 0x600001e73cf0</text>
<polyline fill="none" stroke="black" points="3968,-26 4055,-26 "/>
<text text-anchor="middle" x="4011.5" y="-15.6" font-family="Times,serif" font-size="8.00">prev: 0x600001e72fd0</text>
</g>
<!-- Node0x600001e72fd0&#45;&gt;Node0x600001e73360 -->
<g id="edge32" class="edge">
<title>Node0x600001e72fd0:n&#45;&gt;Node0x600001e73360:n</title>
<path fill="none" stroke="red" d="M3932,-34C3944,-34 3949.25,-34 3957.88,-34"/>
<polygon fill="red" stroke="red" points="3958,-37.5 3968,-34 3958,-30.5 3958,-37.5"/>
</g>
<!-- Node0x600001e73cf0 -->
<g id="node34" class="node">
<title>Node0x600001e73cf0</title>
<polygon fill="none" stroke="black" points="4091,-9 4091,-77 4179,-77 4179,-9 4091,-9"/>
<text text-anchor="middle" x="4135" y="-66.6" font-family="Times,serif" font-size="8.00">word: stuff</text>
<polyline fill="none" stroke="black" points="4091,-60 4179,-60 "/>
<text text-anchor="middle" x="4135" y="-49.6" font-family="Times,serif" font-size="8.00">size: 1</text>
<polyline fill="none" stroke="black" points="4091,-43 4179,-43 "/>
<text text-anchor="middle" x="4135" y="-32.6" font-family="Times,serif" font-size="8.00">next: 0x600001e73e70</text>
<polyline fill="none" stroke="black" points="4091,-26 4179,-26 "/>
<text text-anchor="middle" x="4135" y="-15.6" font-family="Times,serif" font-size="8.00">prev: 0x600001e73360</text>
</g>
<!-- Node0x600001e73360&#45;&gt;Node0x600001e73cf0 -->
<g id="edge33" class="edge">
<title>Node0x600001e73360:n&#45;&gt;Node0x600001e73cf0:n</title>
<path fill="none" stroke="red" d="M4055,-34C4067,-34 4072.25,-34 4080.88,-34"/>
<polygon fill="red" stroke="red" points="4081,-37.5 4091,-34 4081,-30.5 4081,-37.5"/>
</g>
<!-- Node0x600001e73e70 -->
<g id="node35" class="node">
<title>Node0x600001e73e70</title>
<polygon fill="none" stroke="black" points="4215,-9 4215,-77 4302,-77 4302,-9 4215,-9"/>
<text text-anchor="middle" x="4258.5" y="-66.6" font-family="Times,serif" font-size="8.00">word: earthen</text>
<polyline fill="none" stroke="black" points="4215,-60 4302,-60 "/>
<text text-anchor="middle" x="4258.5" y="-49.6" font-family="Times,serif" font-size="8.00">size: 1</text>
<polyline fill="none" stroke="black" points="4215,-43 4302,-43 "/>
<text text-anchor="middle" x="4258.5" y="-32.6" font-family="Times,serif" font-size="8.00">next: 0x0</text>
<polyline fill="none" stroke="black" points="4215,-26 4302,-26 "/>
<text text-anchor="middle" x="4258.5" y="-15.6" font-family="Times,serif" font-size="8.00">prev: 0x600001e73cf0</text>
</g>
<!-- Node0x600001e73cf0&#45;&gt;Node0x600001e73e70 -->
<g id="edge34" class="edge">
<title>Node0x600001e73cf0:n&#45;&gt;Node0x600001e73e70:n</title>
<path fill="none" stroke="red" d="M4179,-34C4191,-34 4196.25,-34 4204.88,-34"/>
<polygon fill="red" stroke="red" points="4205,-37.5 4215,-34 4205,-30.5 4205,-37.5"/>
</g>
</g>
</svg>
