<?xml version="1.0" encoding="UTF-8" standalone="no"?>
<!DOCTYPE svg PUBLIC "-//W3C//DTD SVG 1.1//EN"
 "http://www.w3.org/Graphics/SVG/1.1/DTD/svg11.dtd">
<!-- Generated by graphviz version 2.50.0 (20211204.2007)
 -->
<!-- Title: G Pages: 1 -->
<svg width="4323pt" height="117pt"
 viewBox="0.00 0.00 4323.00 117.00" xmlns="http://www.w3.org/2000/svg" xmlns:xlink="http://www.w3.org/1999/xlink">
<g id="graph0" class="graph" transform="scale(1 1) rotate(0) translate(4 113)">
<title>G</title>
<polygon fill="white" stroke="transparent" points="-4,4 -4,-113 4319,-113 4319,4 -4,4"/>
<g id="clust1" class="cluster">
<title>cluster1843</title>
<polygon fill="none" stroke="black" points="8,-8 8,-101 95,-101 95,-8 8,-8"/>
<text text-anchor="middle" x="51.5" y="-85.8" font-family="Times,serif" font-size="14.00">1843</text>
</g>
<g id="clust2" class="cluster">
<title>cluster1844</title>
<polygon fill="none" stroke="black" points="131,-8 131,-101 219,-101 219,-8 131,-8"/>
<text text-anchor="middle" x="175" y="-85.8" font-family="Times,serif" font-size="14.00">1844</text>
</g>
<g id="clust3" class="cluster">
<title>cluster1845</title>
<polygon fill="none" stroke="black" points="255,-8 255,-101 343,-101 343,-8 255,-8"/>
<text text-anchor="middle" x="299" y="-85.8" font-family="Times,serif" font-size="14.00">1845</text>
</g>
<g id="clust4" class="cluster">
<title>cluster1846</title>
<polygon fill="none" stroke="black" points="379,-8 379,-101 467,-101 467,-8 379,-8"/>
<text text-anchor="middle" x="423" y="-85.8" font-family="Times,serif" font-size="14.00">1846</text>
</g>
<g id="clust5" class="cluster">
<title>cluster1847</title>
<polygon fill="none" stroke="black" points="503,-8 503,-101 591,-101 591,-8 503,-8"/>
<text text-anchor="middle" x="547" y="-85.8" font-family="Times,serif" font-size="14.00">1847</text>
</g>
<g id="clust6" class="cluster">
<title>cluster1848</title>
<polygon fill="none" stroke="black" points="627,-8 627,-101 715,-101 715,-8 627,-8"/>
<text text-anchor="middle" x="671" y="-85.8" font-family="Times,serif" font-size="14.00">1848</text>
</g>
<g id="clust7" class="cluster">
<title>cluster1849</title>
<polygon fill="none" stroke="black" points="751,-8 751,-101 839,-101 839,-8 751,-8"/>
<text text-anchor="middle" x="795" y="-85.8" font-family="Times,serif" font-size="14.00">1849</text>
</g>
<g id="clust8" class="cluster">
<title>cluster1850</title>
<polygon fill="none" stroke="black" points="875,-8 875,-101 963,-101 963,-8 875,-8"/>
<text text-anchor="middle" x="919" y="-85.8" font-family="Times,serif" font-size="14.00">1850</text>
</g>
<g id="clust9" class="cluster">
<title>cluster1851</title>
<polygon fill="none" stroke="black" points="999,-8 999,-101 1087,-101 1087,-8 999,-8"/>
<text text-anchor="middle" x="1043" y="-85.8" font-family="Times,serif" font-size="14.00">1851</text>
</g>
<g id="clust10" class="cluster">
<title>cluster1852</title>
<polygon fill="none" stroke="black" points="1123,-8 1123,-101 1211,-101 1211,-8 1123,-8"/>
<text text-anchor="middle" x="1167" y="-85.8" font-family="Times,serif" font-size="14.00">1852</text>
</g>
<g id="clust11" class="cluster">
<title>cluster1853</title>
<polygon fill="none" stroke="black" points="1247,-8 1247,-101 1334,-101 1334,-8 1247,-8"/>
<text text-anchor="middle" x="1290.5" y="-85.8" font-family="Times,serif" font-size="14.00">1853</text>
</g>
<g id="clust12" class="cluster">
<title>cluster1854</title>
<polygon fill="none" stroke="black" points="1370,-8 1370,-101 1458,-101 1458,-8 1370,-8"/>
<text text-anchor="middle" x="1414" y="-85.8" font-family="Times,serif" font-size="14.00">1854</text>
</g>
<g id="clust13" class="cluster">
<title>cluster1855</title>
<polygon fill="none" stroke="black" points="1494,-8 1494,-101 1582,-101 1582,-8 1494,-8"/>
<text text-anchor="middle" x="1538" y="-85.8" font-family="Times,serif" font-size="14.00">1855</text>
</g>
<g id="clust14" class="cluster">
<title>cluster1856</title>
<polygon fill="none" stroke="black" points="1618,-8 1618,-101 1706,-101 1706,-8 1618,-8"/>
<text text-anchor="middle" x="1662" y="-85.8" font-family="Times,serif" font-size="14.00">1856</text>
</g>
<g id="clust15" class="cluster">
<title>cluster1857</title>
<polygon fill="none" stroke="black" points="1742,-8 1742,-101 1830,-101 1830,-8 1742,-8"/>
<text text-anchor="middle" x="1786" y="-85.8" font-family="Times,serif" font-size="14.00">1857</text>
</g>
<g id="clust16" class="cluster">
<title>cluster1858</title>
<polygon fill="none" stroke="black" points="1866,-8 1866,-101 1954,-101 1954,-8 1866,-8"/>
<text text-anchor="middle" x="1910" y="-85.8" font-family="Times,serif" font-size="14.00">1858</text>
</g>
<g id="clust17" class="cluster">
<title>cluster1859</title>
<polygon fill="none" stroke="black" points="1990,-8 1990,-101 2078,-101 2078,-8 1990,-8"/>
<text text-anchor="middle" x="2034" y="-85.8" font-family="Times,serif" font-size="14.00">1859</text>
</g>
<g id="clust18" class="cluster">
<title>cluster1860</title>
<polygon fill="none" stroke="black" points="2114,-8 2114,-101 2202,-101 2202,-8 2114,-8"/>
<text text-anchor="middle" x="2158" y="-85.8" font-family="Times,serif" font-size="14.00">1860</text>
</g>
<g id="clust19" class="cluster">
<title>cluster1861</title>
<polygon fill="none" stroke="black" points="2238,-8 2238,-101 2326,-101 2326,-8 2238,-8"/>
<text text-anchor="middle" x="2282" y="-85.8" font-family="Times,serif" font-size="14.00">1861</text>
</g>
<g id="clust20" class="cluster">
<title>cluster1862</title>
<polygon fill="none" stroke="black" points="2362,-8 2362,-101 2450,-101 2450,-8 2362,-8"/>
<text text-anchor="middle" x="2406" y="-85.8" font-family="Times,serif" font-size="14.00">1862</text>
</g>
<g id="clust21" class="cluster">
<title>cluster1863</title>
<polygon fill="none" stroke="black" points="2486,-8 2486,-101 2574,-101 2574,-8 2486,-8"/>
<text text-anchor="middle" x="2530" y="-85.8" font-family="Times,serif" font-size="14.00">1863</text>
</g>
<g id="clust22" class="cluster">
<title>cluster1864</title>
<polygon fill="none" stroke="black" points="2610,-8 2610,-101 2697,-101 2697,-8 2610,-8"/>
<text text-anchor="middle" x="2653.5" y="-85.8" font-family="Times,serif" font-size="14.00">1864</text>
</g>
<g id="clust23" class="cluster">
<title>cluster1865</title>
<polygon fill="none" stroke="black" points="2733,-8 2733,-101 2821,-101 2821,-8 2733,-8"/>
<text text-anchor="middle" x="2777" y="-85.8" font-family="Times,serif" font-size="14.00">1865</text>
</g>
<g id="clust24" class="cluster">
<title>cluster1866</title>
<polygon fill="none" stroke="black" points="2857,-8 2857,-101 2944,-101 2944,-8 2857,-8"/>
<text text-anchor="middle" x="2900.5" y="-85.8" font-family="Times,serif" font-size="14.00">1866</text>
</g>
<g id="clust25" class="cluster">
<title>cluster1867</title>
<polygon fill="none" stroke="black" points="2980,-8 2980,-101 3068,-101 3068,-8 2980,-8"/>
<text text-anchor="middle" x="3024" y="-85.8" font-family="Times,serif" font-size="14.00">1867</text>
</g>
<g id="clust26" class="cluster">
<title>cluster1868</title>
<polygon fill="none" stroke="black" points="3104,-8 3104,-101 3192,-101 3192,-8 3104,-8"/>
<text text-anchor="middle" x="3148" y="-85.8" font-family="Times,serif" font-size="14.00">1868</text>
</g>
<g id="clust27" class="cluster">
<title>cluster1869</title>
<polygon fill="none" stroke="black" points="3228,-8 3228,-101 3316,-101 3316,-8 3228,-8"/>
<text text-anchor="middle" x="3272" y="-85.8" font-family="Times,serif" font-size="14.00">1869</text>
</g>
<g id="clust28" class="cluster">
<title>cluster1870</title>
<polygon fill="none" stroke="black" points="3352,-8 3352,-101 3440,-101 3440,-8 3352,-8"/>
<text text-anchor="middle" x="3396" y="-85.8" font-family="Times,serif" font-size="14.00">1870</text>
</g>
<g id="clust29" class="cluster">
<title>cluster1871</title>
<polygon fill="none" stroke="black" points="3476,-8 3476,-101 3563,-101 3563,-8 3476,-8"/>
<text text-anchor="middle" x="3519.5" y="-85.8" font-family="Times,serif" font-size="14.00">1871</text>
</g>
<g id="clust30" class="cluster">
<title>cluster1872</title>
<polygon fill="none" stroke="black" points="3599,-8 3599,-101 3687,-101 3687,-8 3599,-8"/>
<text text-anchor="middle" x="3643" y="-85.8" font-family="Times,serif" font-size="14.00">1872</text>
</g>
<g id="clust31" class="cluster">
<title>cluster1873</title>
<polygon fill="none" stroke="black" points="3723,-8 3723,-101 3811,-101 3811,-8 3723,-8"/>
<text text-anchor="middle" x="3767" y="-85.8" font-family="Times,serif" font-size="14.00">1873</text>
</g>
<g id="clust32" class="cluster">
<title>cluster1874</title>
<polygon fill="none" stroke="black" points="3847,-8 3847,-101 3935,-101 3935,-8 3847,-8"/>
<text text-anchor="middle" x="3891" y="-85.8" font-family="Times,serif" font-size="14.00">1874</text>
</g>
<g id="clust33" class="cluster">
<title>cluster1875</title>
<polygon fill="none" stroke="black" points="3971,-8 3971,-101 4059,-101 4059,-8 3971,-8"/>
<text text-anchor="middle" x="4015" y="-85.8" font-family="Times,serif" font-size="14.00">1875</text>
</g>
<g id="clust34" class="cluster">
<title>cluster1876</title>
<polygon fill="none" stroke="black" points="4095,-8 4095,-101 4183,-101 4183,-8 4095,-8"/>
<text text-anchor="middle" x="4139" y="-85.8" font-family="Times,serif" font-size="14.00">1876</text>
</g>
<g id="clust35" class="cluster">
<title>cluster1877</title>
<polygon fill="none" stroke="black" points="4219,-8 4219,-101 4307,-101 4307,-8 4219,-8"/>
<text text-anchor="middle" x="4263" y="-85.8" font-family="Times,serif" font-size="14.00">1877</text>
</g>
<!-- Node0x600000715260 -->
<g id="node1" class="node">
<title>Node0x600000715260</title>
<polygon fill="none" stroke="black" points="8,-9 8,-77 95,-77 95,-9 8,-9"/>
<text text-anchor="middle" x="51.5" y="-66.6" font-family="Times,serif" font-size="8.00">word: subjects</text>
<polyline fill="none" stroke="black" points="8,-60 95,-60 "/>
<text text-anchor="middle" x="51.5" y="-49.6" font-family="Times,serif" font-size="8.00">size: 1</text>
<polyline fill="none" stroke="black" points="8,-43 95,-43 "/>
<text text-anchor="middle" x="51.5" y="-32.6" font-family="Times,serif" font-size="8.00">next: 0x600000715a70</text>
<polyline fill="none" stroke="black" points="8,-26 95,-26 "/>
<text text-anchor="middle" x="51.5" y="-15.6" font-family="Times,serif" font-size="8.00">prev: 0x0</text>
</g>
<!-- Node0x600000715a70 -->
<g id="node2" class="node">
<title>Node0x600000715a70</title>
<polygon fill="none" stroke="black" points="131,-9 131,-77 219,-77 219,-9 131,-9"/>
<text text-anchor="middle" x="175" y="-66.6" font-family="Times,serif" font-size="8.00">word: Cank</text>
<polyline fill="none" stroke="black" points="131,-60 219,-60 "/>
<text text-anchor="middle" x="175" y="-49.6" font-family="Times,serif" font-size="8.00">size: 1</text>
<polyline fill="none" stroke="black" points="131,-43 219,-43 "/>
<text text-anchor="middle" x="175" y="-32.6" font-family="Times,serif" font-size="8.00">next: 0x600000717c90</text>
<polyline fill="none" stroke="black" points="131,-26 219,-26 "/>
<text text-anchor="middle" x="175" y="-15.6" font-family="Times,serif" font-size="8.00">prev: 0x600000715260</text>
</g>
<!-- Node0x600000715260&#45;&gt;Node0x600000715a70 -->
<g id="edge1" class="edge">
<title>Node0x600000715260:n&#45;&gt;Node0x600000715a70:n</title>
<path fill="none" stroke="red" d="M95,-34C107,-34 112.25,-34 120.88,-34"/>
<polygon fill="red" stroke="red" points="121,-37.5 131,-34 121,-30.5 121,-37.5"/>
</g>
<!-- Node0x600000717c90 -->
<g id="node3" class="node">
<title>Node0x600000717c90</title>
<polygon fill="none" stroke="black" points="255,-9 255,-77 343,-77 343,-9 255,-9"/>
<text text-anchor="middle" x="299" y="-66.6" font-family="Times,serif" font-size="8.00">word: worm</text>
<polyline fill="none" stroke="black" points="255,-60 343,-60 "/>
<text text-anchor="middle" x="299" y="-49.6" font-family="Times,serif" font-size="8.00">size: 2</text>
<polyline fill="none" stroke="black" points="255,-43 343,-43 "/>
<text text-anchor="middle" x="299" y="-32.6" font-family="Times,serif" font-size="8.00">next: 0x600000718c00</text>
<polyline fill="none" stroke="black" points="255,-26 343,-26 "/>
<text text-anchor="middle" x="299" y="-15.6" font-family="Times,serif" font-size="8.00">prev: 0x600000715a70</text>
</g>
<!-- Node0x600000715a70&#45;&gt;Node0x600000717c90 -->
<g id="edge2" class="edge">
<title>Node0x600000715a70:n&#45;&gt;Node0x600000717c90:n</title>
<path fill="none" stroke="red" d="M219,-34C231,-34 236.25,-34 244.88,-34"/>
<polygon fill="red" stroke="red" points="245,-37.5 255,-34 245,-30.5 245,-37.5"/>
</g>
<!-- Node0x600000718c00 -->
<g id="node4" class="node">
<title>Node0x600000718c00</title>
<polygon fill="none" stroke="black" points="379,-9 379,-77 467,-77 467,-9 379,-9"/>
<text text-anchor="middle" x="423" y="-66.6" font-family="Times,serif" font-size="8.00">word: smoke</text>
<polyline fill="none" stroke="black" points="379,-60 467,-60 "/>
<text text-anchor="middle" x="423" y="-49.6" font-family="Times,serif" font-size="8.00">size: 2</text>
<polyline fill="none" stroke="black" points="379,-43 467,-43 "/>
<text text-anchor="middle" x="423" y="-32.6" font-family="Times,serif" font-size="8.00">next: 0x60000071a790</text>
<polyline fill="none" stroke="black" points="379,-26 467,-26 "/>
<text text-anchor="middle" x="423" y="-15.6" font-family="Times,serif" font-size="8.00">prev: 0x600000717c90</text>
</g>
<!-- Node0x600000717c90&#45;&gt;Node0x600000718c00 -->
<g id="edge3" class="edge">
<title>Node0x600000717c90:n&#45;&gt;Node0x600000718c00:n</title>
<path fill="none" stroke="red" d="M343,-34C355,-34 360.25,-34 368.88,-34"/>
<polygon fill="red" stroke="red" points="369,-37.5 379,-34 369,-30.5 369,-37.5"/>
</g>
<!-- Node0x60000071a790 -->
<g id="node5" class="node">
<title>Node0x60000071a790</title>
<polygon fill="none" stroke="black" points="503,-9 503,-77 591,-77 591,-9 503,-9"/>
<text text-anchor="middle" x="547" y="-66.6" font-family="Times,serif" font-size="8.00">word: passing</text>
<polyline fill="none" stroke="black" points="503,-60 591,-60 "/>
<text text-anchor="middle" x="547" y="-49.6" font-family="Times,serif" font-size="8.00">size: 2</text>
<polyline fill="none" stroke="black" points="503,-43 591,-43 "/>
<text text-anchor="middle" x="547" y="-32.6" font-family="Times,serif" font-size="8.00">next: 0x60000071ad60</text>
<polyline fill="none" stroke="black" points="503,-26 591,-26 "/>
<text text-anchor="middle" x="547" y="-15.6" font-family="Times,serif" font-size="8.00">prev: 0x600000718c00</text>
</g>
<!-- Node0x600000718c00&#45;&gt;Node0x60000071a790 -->
<g id="edge4" class="edge">
<title>Node0x600000718c00:n&#45;&gt;Node0x60000071a790:n</title>
<path fill="none" stroke="red" d="M467,-34C479,-34 484.25,-34 492.88,-34"/>
<polygon fill="red" stroke="red" points="493,-37.5 503,-34 493,-30.5 493,-37.5"/>
</g>
<!-- Node0x60000071ad60 -->
<g id="node6" class="node">
<title>Node0x60000071ad60</title>
<polygon fill="none" stroke="black" points="627,-9 627,-77 715,-77 715,-9 627,-9"/>
<text text-anchor="middle" x="671" y="-66.6" font-family="Times,serif" font-size="8.00">word: fourteen</text>
<polyline fill="none" stroke="black" points="627,-60 715,-60 "/>
<text text-anchor="middle" x="671" y="-49.6" font-family="Times,serif" font-size="8.00">size: 6</text>
<polyline fill="none" stroke="black" points="627,-43 715,-43 "/>
<text text-anchor="middle" x="671" y="-32.6" font-family="Times,serif" font-size="8.00">next: 0x60000071c450</text>
<polyline fill="none" stroke="black" points="627,-26 715,-26 "/>
<text text-anchor="middle" x="671" y="-15.6" font-family="Times,serif" font-size="8.00">prev: 0x60000071a790</text>
</g>
<!-- Node0x60000071a790&#45;&gt;Node0x60000071ad60 -->
<g id="edge5" class="edge">
<title>Node0x60000071a790:n&#45;&gt;Node0x60000071ad60:n</title>
<path fill="none" stroke="red" d="M591,-34C603,-34 608.25,-34 616.88,-34"/>
<polygon fill="red" stroke="red" points="617,-37.5 627,-34 617,-30.5 617,-37.5"/>
</g>
<!-- Node0x60000071c450 -->
<g id="node7" class="node">
<title>Node0x60000071c450</title>
<polygon fill="none" stroke="black" points="751,-9 751,-77 839,-77 839,-9 751,-9"/>
<text text-anchor="middle" x="795" y="-66.6" font-family="Times,serif" font-size="8.00">word: One</text>
<polyline fill="none" stroke="black" points="751,-60 839,-60 "/>
<text text-anchor="middle" x="795" y="-49.6" font-family="Times,serif" font-size="8.00">size: 12</text>
<polyline fill="none" stroke="black" points="751,-43 839,-43 "/>
<text text-anchor="middle" x="795" y="-32.6" font-family="Times,serif" font-size="8.00">next: 0x60000071b8d0</text>
<polyline fill="none" stroke="black" points="751,-26 839,-26 "/>
<text text-anchor="middle" x="795" y="-15.6" font-family="Times,serif" font-size="8.00">prev: 0x60000071ad60</text>
</g>
<!-- Node0x60000071ad60&#45;&gt;Node0x60000071c450 -->
<g id="edge6" class="edge">
<title>Node0x60000071ad60:n&#45;&gt;Node0x60000071c450:n</title>
<path fill="none" stroke="red" d="M715,-34C727,-34 732.25,-34 740.88,-34"/>
<polygon fill="red" stroke="red" points="741,-37.5 751,-34 741,-30.5 741,-37.5"/>
</g>
<!-- Node0x60000071b8d0 -->
<g id="node8" class="node">
<title>Node0x60000071b8d0</title>
<polygon fill="none" stroke="black" points="875,-9 875,-77 963,-77 963,-9 875,-9"/>
<text text-anchor="middle" x="919" y="-66.6" font-family="Times,serif" font-size="8.00">word: lessoned</text>
<polyline fill="none" stroke="black" points="875,-60 963,-60 "/>
<text text-anchor="middle" x="919" y="-49.6" font-family="Times,serif" font-size="8.00">size: 1</text>
<polyline fill="none" stroke="black" points="875,-43 963,-43 "/>
<text text-anchor="middle" x="919" y="-32.6" font-family="Times,serif" font-size="8.00">next: 0x60000071b900</text>
<polyline fill="none" stroke="black" points="875,-26 963,-26 "/>
<text text-anchor="middle" x="919" y="-15.6" font-family="Times,serif" font-size="8.00">prev: 0x60000071c450</text>
</g>
<!-- Node0x60000071c450&#45;&gt;Node0x60000071b8d0 -->
<g id="edge7" class="edge">
<title>Node0x60000071c450:n&#45;&gt;Node0x60000071b8d0:n</title>
<path fill="none" stroke="red" d="M839,-34C851,-34 856.25,-34 864.88,-34"/>
<polygon fill="red" stroke="red" points="865,-37.5 875,-34 865,-30.5 865,-37.5"/>
</g>
<!-- Node0x60000071b900 -->
<g id="node9" class="node">
<title>Node0x60000071b900</title>
<polygon fill="none" stroke="black" points="999,-9 999,-77 1087,-77 1087,-9 999,-9"/>
<text text-anchor="middle" x="1043" y="-66.6" font-family="Times,serif" font-size="8.00">word: anguish</text>
<polyline fill="none" stroke="black" points="999,-60 1087,-60 "/>
<text text-anchor="middle" x="1043" y="-49.6" font-family="Times,serif" font-size="8.00">size: 1</text>
<polyline fill="none" stroke="black" points="999,-43 1087,-43 "/>
<text text-anchor="middle" x="1043" y="-32.6" font-family="Times,serif" font-size="8.00">next: 0x60000071bf00</text>
<polyline fill="none" stroke="black" points="999,-26 1087,-26 "/>
<text text-anchor="middle" x="1043" y="-15.6" font-family="Times,serif" font-size="8.00">prev: 0x60000071b8d0</text>
</g>
<!-- Node0x60000071b8d0&#45;&gt;Node0x60000071b900 -->
<g id="edge8" class="edge">
<title>Node0x60000071b8d0:n&#45;&gt;Node0x60000071b900:n</title>
<path fill="none" stroke="red" d="M963,-34C975,-34 980.25,-34 988.88,-34"/>
<polygon fill="red" stroke="red" points="989,-37.5 999,-34 989,-30.5 989,-37.5"/>
</g>
<!-- Node0x60000071bf00 -->
<g id="node10" class="node">
<title>Node0x60000071bf00</title>
<polygon fill="none" stroke="black" points="1123,-9 1123,-77 1211,-77 1211,-9 1123,-9"/>
<text text-anchor="middle" x="1167" y="-66.6" font-family="Times,serif" font-size="8.00">word: Perhaps</text>
<polyline fill="none" stroke="black" points="1123,-60 1211,-60 "/>
<text text-anchor="middle" x="1167" y="-49.6" font-family="Times,serif" font-size="8.00">size: 1</text>
<polyline fill="none" stroke="black" points="1123,-43 1211,-43 "/>
<text text-anchor="middle" x="1167" y="-32.6" font-family="Times,serif" font-size="8.00">next: 0x60000071cea0</text>
<polyline fill="none" stroke="black" points="1123,-26 1211,-26 "/>
<text text-anchor="middle" x="1167" y="-15.6" font-family="Times,serif" font-size="8.00">prev: 0x60000071b900</text>
</g>
<!-- Node0x60000071b900&#45;&gt;Node0x60000071bf00 -->
<g id="edge9" class="edge">
<title>Node0x60000071b900:n&#45;&gt;Node0x60000071bf00:n</title>
<path fill="none" stroke="red" d="M1087,-34C1099,-34 1104.25,-34 1112.88,-34"/>
<polygon fill="red" stroke="red" points="1113,-37.5 1123,-34 1113,-30.5 1113,-37.5"/>
</g>
<!-- Node0x60000071cea0 -->
<g id="node11" class="node">
<title>Node0x60000071cea0</title>
<polygon fill="none" stroke="black" points="1247,-9 1247,-77 1334,-77 1334,-9 1247,-9"/>
<text text-anchor="middle" x="1290.5" y="-66.6" font-family="Times,serif" font-size="8.00">word: match</text>
<polyline fill="none" stroke="black" points="1247,-60 1334,-60 "/>
<text text-anchor="middle" x="1290.5" y="-49.6" font-family="Times,serif" font-size="8.00">size: 6</text>
<polyline fill="none" stroke="black" points="1247,-43 1334,-43 "/>
<text text-anchor="middle" x="1290.5" y="-32.6" font-family="Times,serif" font-size="8.00">next: 0x600000708ae0</text>
<polyline fill="none" stroke="black" points="1247,-26 1334,-26 "/>
<text text-anchor="middle" x="1290.5" y="-15.6" font-family="Times,serif" font-size="8.00">prev: 0x60000071bf00</text>
</g>
<!-- Node0x60000071bf00&#45;&gt;Node0x60000071cea0 -->
<g id="edge10" class="edge">
<title>Node0x60000071bf00:n&#45;&gt;Node0x60000071cea0:n</title>
<path fill="none" stroke="red" d="M1211,-34C1223,-34 1228.25,-34 1236.88,-34"/>
<polygon fill="red" stroke="red" points="1237,-37.5 1247,-34 1237,-30.5 1237,-37.5"/>
</g>
<!-- Node0x600000708ae0 -->
<g id="node12" class="node">
<title>Node0x600000708ae0</title>
<polygon fill="none" stroke="black" points="1370,-9 1370,-77 1458,-77 1458,-9 1370,-9"/>
<text text-anchor="middle" x="1414" y="-66.6" font-family="Times,serif" font-size="8.00">word: tetchy</text>
<polyline fill="none" stroke="black" points="1370,-60 1458,-60 "/>
<text text-anchor="middle" x="1414" y="-49.6" font-family="Times,serif" font-size="8.00">size: 1</text>
<polyline fill="none" stroke="black" points="1370,-43 1458,-43 "/>
<text text-anchor="middle" x="1414" y="-32.6" font-family="Times,serif" font-size="8.00">next: 0x6000007092c0</text>
<polyline fill="none" stroke="black" points="1370,-26 1458,-26 "/>
<text text-anchor="middle" x="1414" y="-15.6" font-family="Times,serif" font-size="8.00">prev: 0x60000071cea0</text>
</g>
<!-- Node0x60000071cea0&#45;&gt;Node0x600000708ae0 -->
<g id="edge11" class="edge">
<title>Node0x60000071cea0:n&#45;&gt;Node0x600000708ae0:n</title>
<path fill="none" stroke="red" d="M1334,-34C1346,-34 1351.25,-34 1359.88,-34"/>
<polygon fill="red" stroke="red" points="1360,-37.5 1370,-34 1360,-30.5 1360,-37.5"/>
</g>
<!-- Node0x6000007092c0 -->
<g id="node13" class="node">
<title>Node0x6000007092c0</title>
<polygon fill="none" stroke="black" points="1494,-9 1494,-77 1582,-77 1582,-9 1494,-9"/>
<text text-anchor="middle" x="1538" y="-66.6" font-family="Times,serif" font-size="8.00">word: bitterly</text>
<polyline fill="none" stroke="black" points="1494,-60 1582,-60 "/>
<text text-anchor="middle" x="1538" y="-49.6" font-family="Times,serif" font-size="8.00">size: 2</text>
<polyline fill="none" stroke="black" points="1494,-43 1582,-43 "/>
<text text-anchor="middle" x="1538" y="-32.6" font-family="Times,serif" font-size="8.00">next: 0x600000705410</text>
<polyline fill="none" stroke="black" points="1494,-26 1582,-26 "/>
<text text-anchor="middle" x="1538" y="-15.6" font-family="Times,serif" font-size="8.00">prev: 0x600000708ae0</text>
</g>
<!-- Node0x600000708ae0&#45;&gt;Node0x6000007092c0 -->
<g id="edge12" class="edge">
<title>Node0x600000708ae0:n&#45;&gt;Node0x6000007092c0:n</title>
<path fill="none" stroke="red" d="M1458,-34C1470,-34 1475.25,-34 1483.88,-34"/>
<polygon fill="red" stroke="red" points="1484,-37.5 1494,-34 1484,-30.5 1484,-37.5"/>
</g>
<!-- Node0x600000705410 -->
<g id="node14" class="node">
<title>Node0x600000705410</title>
<polygon fill="none" stroke="black" points="1618,-9 1618,-77 1706,-77 1706,-9 1618,-9"/>
<text text-anchor="middle" x="1662" y="-66.6" font-family="Times,serif" font-size="8.00">word: sooner</text>
<polyline fill="none" stroke="black" points="1618,-60 1706,-60 "/>
<text text-anchor="middle" x="1662" y="-49.6" font-family="Times,serif" font-size="8.00">size: 1</text>
<polyline fill="none" stroke="black" points="1618,-43 1706,-43 "/>
<text text-anchor="middle" x="1662" y="-32.6" font-family="Times,serif" font-size="8.00">next: 0x6000007054d0</text>
<polyline fill="none" stroke="black" points="1618,-26 1706,-26 "/>
<text text-anchor="middle" x="1662" y="-15.6" font-family="Times,serif" font-size="8.00">prev: 0x6000007092c0</text>
</g>
<!-- Node0x6000007092c0&#45;&gt;Node0x600000705410 -->
<g id="edge13" class="edge">
<title>Node0x6000007092c0:n&#45;&gt;Node0x600000705410:n</title>
<path fill="none" stroke="red" d="M1582,-34C1594,-34 1599.25,-34 1607.88,-34"/>
<polygon fill="red" stroke="red" points="1608,-37.5 1618,-34 1608,-30.5 1608,-37.5"/>
</g>
<!-- Node0x6000007054d0 -->
<g id="node15" class="node">
<title>Node0x6000007054d0</title>
<polygon fill="none" stroke="black" points="1742,-9 1742,-77 1830,-77 1830,-9 1742,-9"/>
<text text-anchor="middle" x="1786" y="-66.6" font-family="Times,serif" font-size="8.00">word: Tickle</text>
<polyline fill="none" stroke="black" points="1742,-60 1830,-60 "/>
<text text-anchor="middle" x="1786" y="-49.6" font-family="Times,serif" font-size="8.00">size: 1</text>
<polyline fill="none" stroke="black" points="1742,-43 1830,-43 "/>
<text text-anchor="middle" x="1786" y="-32.6" font-family="Times,serif" font-size="8.00">next: 0x600000705920</text>
<polyline fill="none" stroke="black" points="1742,-26 1830,-26 "/>
<text text-anchor="middle" x="1786" y="-15.6" font-family="Times,serif" font-size="8.00">prev: 0x600000705410</text>
</g>
<!-- Node0x600000705410&#45;&gt;Node0x6000007054d0 -->
<g id="edge14" class="edge">
<title>Node0x600000705410:n&#45;&gt;Node0x6000007054d0:n</title>
<path fill="none" stroke="red" d="M1706,-34C1718,-34 1723.25,-34 1731.88,-34"/>
<polygon fill="red" stroke="red" points="1732,-37.5 1742,-34 1732,-30.5 1732,-37.5"/>
</g>
<!-- Node0x600000705920 -->
<g id="node16" class="node">
<title>Node0x600000705920</title>
<polygon fill="none" stroke="black" points="1866,-9 1866,-77 1954,-77 1954,-9 1866,-9"/>
<text text-anchor="middle" x="1910" y="-66.6" font-family="Times,serif" font-size="8.00">word: lamps</text>
<polyline fill="none" stroke="black" points="1866,-60 1954,-60 "/>
<text text-anchor="middle" x="1910" y="-49.6" font-family="Times,serif" font-size="8.00">size: 1</text>
<polyline fill="none" stroke="black" points="1866,-43 1954,-43 "/>
<text text-anchor="middle" x="1910" y="-32.6" font-family="Times,serif" font-size="8.00">next: 0x60000071d5c0</text>
<polyline fill="none" stroke="black" points="1866,-26 1954,-26 "/>
<text text-anchor="middle" x="1910" y="-15.6" font-family="Times,serif" font-size="8.00">prev: 0x6000007054d0</text>
</g>
<!-- Node0x6000007054d0&#45;&gt;Node0x600000705920 -->
<g id="edge15" class="edge">
<title>Node0x6000007054d0:n&#45;&gt;Node0x600000705920:n</title>
<path fill="none" stroke="red" d="M1830,-34C1842,-34 1847.25,-34 1855.88,-34"/>
<polygon fill="red" stroke="red" points="1856,-37.5 1866,-34 1856,-30.5 1856,-37.5"/>
</g>
<!-- Node0x60000071d5c0 -->
<g id="node17" class="node">
<title>Node0x60000071d5c0</title>
<polygon fill="none" stroke="black" points="1990,-9 1990,-77 2078,-77 2078,-9 1990,-9"/>
<text text-anchor="middle" x="2034" y="-66.6" font-family="Times,serif" font-size="8.00">word: cricket</text>
<polyline fill="none" stroke="black" points="1990,-60 2078,-60 "/>
<text text-anchor="middle" x="2034" y="-49.6" font-family="Times,serif" font-size="8.00">size: 1</text>
<polyline fill="none" stroke="black" points="1990,-43 2078,-43 "/>
<text text-anchor="middle" x="2034" y="-32.6" font-family="Times,serif" font-size="8.00">next: 0x600000701b90</text>
<polyline fill="none" stroke="black" points="1990,-26 2078,-26 "/>
<text text-anchor="middle" x="2034" y="-15.6" font-family="Times,serif" font-size="8.00">prev: 0x600000705920</text>
</g>
<!-- Node0x600000705920&#45;&gt;Node0x60000071d5c0 -->
<g id="edge16" class="edge">
<title>Node0x600000705920:n&#45;&gt;Node0x60000071d5c0:n</title>
<path fill="none" stroke="red" d="M1954,-34C1966,-34 1971.25,-34 1979.88,-34"/>
<polygon fill="red" stroke="red" points="1980,-37.5 1990,-34 1980,-30.5 1980,-37.5"/>
</g>
<!-- Node0x600000701b90 -->
<g id="node18" class="node">
<title>Node0x600000701b90</title>
<polygon fill="none" stroke="black" points="2114,-9 2114,-77 2202,-77 2202,-9 2114,-9"/>
<text text-anchor="middle" x="2158" y="-66.6" font-family="Times,serif" font-size="8.00">word: Cophetua</text>
<polyline fill="none" stroke="black" points="2114,-60 2202,-60 "/>
<text text-anchor="middle" x="2158" y="-49.6" font-family="Times,serif" font-size="8.00">size: 1</text>
<polyline fill="none" stroke="black" points="2114,-43 2202,-43 "/>
<text text-anchor="middle" x="2158" y="-32.6" font-family="Times,serif" font-size="8.00">next: 0x6000007027c0</text>
<polyline fill="none" stroke="black" points="2114,-26 2202,-26 "/>
<text text-anchor="middle" x="2158" y="-15.6" font-family="Times,serif" font-size="8.00">prev: 0x60000071d5c0</text>
</g>
<!-- Node0x60000071d5c0&#45;&gt;Node0x600000701b90 -->
<g id="edge17" class="edge">
<title>Node0x60000071d5c0:n&#45;&gt;Node0x600000701b90:n</title>
<path fill="none" stroke="red" d="M2078,-34C2090,-34 2095.25,-34 2103.88,-34"/>
<polygon fill="red" stroke="red" points="2104,-37.5 2114,-34 2104,-30.5 2104,-37.5"/>
</g>
<!-- Node0x6000007027c0 -->
<g id="node19" class="node">
<title>Node0x6000007027c0</title>
<polygon fill="none" stroke="black" points="2238,-9 2238,-77 2326,-77 2326,-9 2238,-9"/>
<text text-anchor="middle" x="2282" y="-66.6" font-family="Times,serif" font-size="8.00">word: Having</text>
<polyline fill="none" stroke="black" points="2238,-60 2326,-60 "/>
<text text-anchor="middle" x="2282" y="-49.6" font-family="Times,serif" font-size="8.00">size: 2</text>
<polyline fill="none" stroke="black" points="2238,-43 2326,-43 "/>
<text text-anchor="middle" x="2282" y="-32.6" font-family="Times,serif" font-size="8.00">next: 0x600000702e20</text>
<polyline fill="none" stroke="black" points="2238,-26 2326,-26 "/>
<text text-anchor="middle" x="2282" y="-15.6" font-family="Times,serif" font-size="8.00">prev: 0x600000701b90</text>
</g>
<!-- Node0x600000701b90&#45;&gt;Node0x6000007027c0 -->
<g id="edge18" class="edge">
<title>Node0x600000701b90:n&#45;&gt;Node0x6000007027c0:n</title>
<path fill="none" stroke="red" d="M2202,-34C2214,-34 2219.25,-34 2227.88,-34"/>
<polygon fill="red" stroke="red" points="2228,-37.5 2238,-34 2228,-30.5 2228,-37.5"/>
</g>
<!-- Node0x600000702e20 -->
<g id="node20" class="node">
<title>Node0x600000702e20</title>
<polygon fill="none" stroke="black" points="2362,-9 2362,-77 2450,-77 2450,-9 2362,-9"/>
<text text-anchor="middle" x="2406" y="-66.6" font-family="Times,serif" font-size="8.00">word: Belonging</text>
<polyline fill="none" stroke="black" points="2362,-60 2450,-60 "/>
<text text-anchor="middle" x="2406" y="-49.6" font-family="Times,serif" font-size="8.00">size: 1</text>
<polyline fill="none" stroke="black" points="2362,-43 2450,-43 "/>
<text text-anchor="middle" x="2406" y="-32.6" font-family="Times,serif" font-size="8.00">next: 0x600000703f00</text>
<polyline fill="none" stroke="black" points="2362,-26 2450,-26 "/>
<text text-anchor="middle" x="2406" y="-15.6" font-family="Times,serif" font-size="8.00">prev: 0x6000007027c0</text>
</g>
<!-- Node0x6000007027c0&#45;&gt;Node0x600000702e20 -->
<g id="edge19" class="edge">
<title>Node0x6000007027c0:n&#45;&gt;Node0x600000702e20:n</title>
<path fill="none" stroke="red" d="M2326,-34C2338,-34 2343.25,-34 2351.88,-34"/>
<polygon fill="red" stroke="red" points="2352,-37.5 2362,-34 2352,-30.5 2352,-37.5"/>
</g>
<!-- Node0x600000703f00 -->
<g id="node21" class="node">
<title>Node0x600000703f00</title>
<polygon fill="none" stroke="black" points="2486,-9 2486,-77 2574,-77 2574,-9 2486,-9"/>
<text text-anchor="middle" x="2530" y="-66.6" font-family="Times,serif" font-size="8.00">word: gracious</text>
<polyline fill="none" stroke="black" points="2486,-60 2574,-60 "/>
<text text-anchor="middle" x="2530" y="-49.6" font-family="Times,serif" font-size="8.00">size: 1</text>
<polyline fill="none" stroke="black" points="2486,-43 2574,-43 "/>
<text text-anchor="middle" x="2530" y="-32.6" font-family="Times,serif" font-size="8.00">next: 0x600000731830</text>
<polyline fill="none" stroke="black" points="2486,-26 2574,-26 "/>
<text text-anchor="middle" x="2530" y="-15.6" font-family="Times,serif" font-size="8.00">prev: 0x600000702e20</text>
</g>
<!-- Node0x600000702e20&#45;&gt;Node0x600000703f00 -->
<g id="edge20" class="edge">
<title>Node0x600000702e20:n&#45;&gt;Node0x600000703f00:n</title>
<path fill="none" stroke="red" d="M2450,-34C2462,-34 2467.25,-34 2475.88,-34"/>
<polygon fill="red" stroke="red" points="2476,-37.5 2486,-34 2476,-30.5 2476,-37.5"/>
</g>
<!-- Node0x600000731830 -->
<g id="node22" class="node">
<title>Node0x600000731830</title>
<polygon fill="none" stroke="black" points="2610,-9 2610,-77 2697,-77 2697,-9 2610,-9"/>
<text text-anchor="middle" x="2653.5" y="-66.6" font-family="Times,serif" font-size="8.00">word: mickle</text>
<polyline fill="none" stroke="black" points="2610,-60 2697,-60 "/>
<text text-anchor="middle" x="2653.5" y="-49.6" font-family="Times,serif" font-size="8.00">size: 1</text>
<polyline fill="none" stroke="black" points="2610,-43 2697,-43 "/>
<text text-anchor="middle" x="2653.5" y="-32.6" font-family="Times,serif" font-size="8.00">next: 0x600000732f40</text>
<polyline fill="none" stroke="black" points="2610,-26 2697,-26 "/>
<text text-anchor="middle" x="2653.5" y="-15.6" font-family="Times,serif" font-size="8.00">prev: 0x600000703f00</text>
</g>
<!-- Node0x600000703f00&#45;&gt;Node0x600000731830 -->
<g id="edge21" class="edge">
<title>Node0x600000703f00:n&#45;&gt;Node0x600000731830:n</title>
<path fill="none" stroke="red" d="M2574,-34C2586,-34 2591.25,-34 2599.88,-34"/>
<polygon fill="red" stroke="red" points="2600,-37.5 2610,-34 2600,-30.5 2600,-37.5"/>
</g>
<!-- Node0x600000732f40 -->
<g id="node23" class="node">
<title>Node0x600000732f40</title>
<polygon fill="none" stroke="black" points="2733,-9 2733,-77 2821,-77 2821,-9 2733,-9"/>
<text text-anchor="middle" x="2777" y="-66.6" font-family="Times,serif" font-size="8.00">word: challenge</text>
<polyline fill="none" stroke="black" points="2733,-60 2821,-60 "/>
<text text-anchor="middle" x="2777" y="-49.6" font-family="Times,serif" font-size="8.00">size: 2</text>
<polyline fill="none" stroke="black" points="2733,-43 2821,-43 "/>
<text text-anchor="middle" x="2777" y="-32.6" font-family="Times,serif" font-size="8.00">next: 0x6000007334e0</text>
<polyline fill="none" stroke="black" points="2733,-26 2821,-26 "/>
<text text-anchor="middle" x="2777" y="-15.6" font-family="Times,serif" font-size="8.00">prev: 0x600000731830</text>
</g>
<!-- Node0x600000731830&#45;&gt;Node0x600000732f40 -->
<g id="edge22" class="edge">
<title>Node0x600000731830:n&#45;&gt;Node0x600000732f40:n</title>
<path fill="none" stroke="red" d="M2697,-34C2709,-34 2714.25,-34 2722.88,-34"/>
<polygon fill="red" stroke="red" points="2723,-37.5 2733,-34 2723,-30.5 2723,-37.5"/>
</g>
<!-- Node0x6000007334e0 -->
<g id="node24" class="node">
<title>Node0x6000007334e0</title>
<polygon fill="none" stroke="black" points="2857,-9 2857,-77 2944,-77 2944,-9 2857,-9"/>
<text text-anchor="middle" x="2900.5" y="-66.6" font-family="Times,serif" font-size="8.00">word: lisping</text>
<polyline fill="none" stroke="black" points="2857,-60 2944,-60 "/>
<text text-anchor="middle" x="2900.5" y="-49.6" font-family="Times,serif" font-size="8.00">size: 1</text>
<polyline fill="none" stroke="black" points="2857,-43 2944,-43 "/>
<text text-anchor="middle" x="2900.5" y="-32.6" font-family="Times,serif" font-size="8.00">next: 0x600000734270</text>
<polyline fill="none" stroke="black" points="2857,-26 2944,-26 "/>
<text text-anchor="middle" x="2900.5" y="-15.6" font-family="Times,serif" font-size="8.00">prev: 0x600000732f40</text>
</g>
<!-- Node0x600000732f40&#45;&gt;Node0x6000007334e0 -->
<g id="edge23" class="edge">
<title>Node0x600000732f40:n&#45;&gt;Node0x6000007334e0:n</title>
<path fill="none" stroke="red" d="M2821,-34C2833,-34 2838.25,-34 2846.88,-34"/>
<polygon fill="red" stroke="red" points="2847,-37.5 2857,-34 2847,-30.5 2847,-37.5"/>
</g>
<!-- Node0x600000734270 -->
<g id="node25" class="node">
<title>Node0x600000734270</title>
<polygon fill="none" stroke="black" points="2980,-9 2980,-77 3068,-77 3068,-9 2980,-9"/>
<text text-anchor="middle" x="3024" y="-66.6" font-family="Times,serif" font-size="8.00">word: swits</text>
<polyline fill="none" stroke="black" points="2980,-60 3068,-60 "/>
<text text-anchor="middle" x="3024" y="-49.6" font-family="Times,serif" font-size="8.00">size: 1</text>
<polyline fill="none" stroke="black" points="2980,-43 3068,-43 "/>
<text text-anchor="middle" x="3024" y="-32.6" font-family="Times,serif" font-size="8.00">next: 0x600000735800</text>
<polyline fill="none" stroke="black" points="2980,-26 3068,-26 "/>
<text text-anchor="middle" x="3024" y="-15.6" font-family="Times,serif" font-size="8.00">prev: 0x6000007334e0</text>
</g>
<!-- Node0x6000007334e0&#45;&gt;Node0x600000734270 -->
<g id="edge24" class="edge">
<title>Node0x6000007334e0:n&#45;&gt;Node0x600000734270:n</title>
<path fill="none" stroke="red" d="M2944,-34C2956,-34 2961.25,-34 2969.88,-34"/>
<polygon fill="red" stroke="red" points="2970,-37.5 2980,-34 2970,-30.5 2970,-37.5"/>
</g>
<!-- Node0x600000735800 -->
<g id="node26" class="node">
<title>Node0x600000735800</title>
<polygon fill="none" stroke="black" points="3104,-9 3104,-77 3192,-77 3192,-9 3104,-9"/>
<text text-anchor="middle" x="3148" y="-66.6" font-family="Times,serif" font-size="8.00">word: bring</text>
<polyline fill="none" stroke="black" points="3104,-60 3192,-60 "/>
<text text-anchor="middle" x="3148" y="-49.6" font-family="Times,serif" font-size="8.00">size: 10</text>
<polyline fill="none" stroke="black" points="3104,-43 3192,-43 "/>
<text text-anchor="middle" x="3148" y="-32.6" font-family="Times,serif" font-size="8.00">next: 0x600000736ac0</text>
<polyline fill="none" stroke="black" points="3104,-26 3192,-26 "/>
<text text-anchor="middle" x="3148" y="-15.6" font-family="Times,serif" font-size="8.00">prev: 0x600000734270</text>
</g>
<!-- Node0x600000734270&#45;&gt;Node0x600000735800 -->
<g id="edge25" class="edge">
<title>Node0x600000734270:n&#45;&gt;Node0x600000735800:n</title>
<path fill="none" stroke="red" d="M3068,-34C3080,-34 3085.25,-34 3093.88,-34"/>
<polygon fill="red" stroke="red" points="3094,-37.5 3104,-34 3094,-30.5 3094,-37.5"/>
</g>
<!-- Node0x600000736ac0 -->
<g id="node27" class="node">
<title>Node0x600000736ac0</title>
<polygon fill="none" stroke="black" points="3228,-9 3228,-77 3316,-77 3316,-9 3228,-9"/>
<text text-anchor="middle" x="3272" y="-66.6" font-family="Times,serif" font-size="8.00">word: church</text>
<polyline fill="none" stroke="black" points="3228,-60 3316,-60 "/>
<text text-anchor="middle" x="3272" y="-49.6" font-family="Times,serif" font-size="8.00">size: 6</text>
<polyline fill="none" stroke="black" points="3228,-43 3316,-43 "/>
<text text-anchor="middle" x="3272" y="-32.6" font-family="Times,serif" font-size="8.00">next: 0x6000007373f0</text>
<polyline fill="none" stroke="black" points="3228,-26 3316,-26 "/>
<text text-anchor="middle" x="3272" y="-15.6" font-family="Times,serif" font-size="8.00">prev: 0x600000735800</text>
</g>
<!-- Node0x600000735800&#45;&gt;Node0x600000736ac0 -->
<g id="edge26" class="edge">
<title>Node0x600000735800:n&#45;&gt;Node0x600000736ac0:n</title>
<path fill="none" stroke="red" d="M3192,-34C3204,-34 3209.25,-34 3217.88,-34"/>
<polygon fill="red" stroke="red" points="3218,-37.5 3228,-34 3218,-30.5 3218,-37.5"/>
</g>
<!-- Node0x6000007373f0 -->
<g id="node28" class="node">
<title>Node0x6000007373f0</title>
<polygon fill="none" stroke="black" points="3352,-9 3352,-77 3440,-77 3440,-9 3352,-9"/>
<text text-anchor="middle" x="3396" y="-66.6" font-family="Times,serif" font-size="8.00">word: excess</text>
<polyline fill="none" stroke="black" points="3352,-60 3440,-60 "/>
<text text-anchor="middle" x="3396" y="-49.6" font-family="Times,serif" font-size="8.00">size: 1</text>
<polyline fill="none" stroke="black" points="3352,-43 3440,-43 "/>
<text text-anchor="middle" x="3396" y="-32.6" font-family="Times,serif" font-size="8.00">next: 0x600000738510</text>
<polyline fill="none" stroke="black" points="3352,-26 3440,-26 "/>
<text text-anchor="middle" x="3396" y="-15.6" font-family="Times,serif" font-size="8.00">prev: 0x600000736ac0</text>
</g>
<!-- Node0x600000736ac0&#45;&gt;Node0x6000007373f0 -->
<g id="edge27" class="edge">
<title>Node0x600000736ac0:n&#45;&gt;Node0x6000007373f0:n</title>
<path fill="none" stroke="red" d="M3316,-34C3328,-34 3333.25,-34 3341.88,-34"/>
<polygon fill="red" stroke="red" points="3342,-37.5 3352,-34 3342,-30.5 3342,-37.5"/>
</g>
<!-- Node0x600000738510 -->
<g id="node29" class="node">
<title>Node0x600000738510</title>
<polygon fill="none" stroke="black" points="3476,-9 3476,-77 3563,-77 3563,-9 3476,-9"/>
<text text-anchor="middle" x="3519.5" y="-66.6" font-family="Times,serif" font-size="8.00">word: followers</text>
<polyline fill="none" stroke="black" points="3476,-60 3563,-60 "/>
<text text-anchor="middle" x="3519.5" y="-49.6" font-family="Times,serif" font-size="8.00">size: 1</text>
<polyline fill="none" stroke="black" points="3476,-43 3563,-43 "/>
<text text-anchor="middle" x="3519.5" y="-32.6" font-family="Times,serif" font-size="8.00">next: 0x60000073c150</text>
<polyline fill="none" stroke="black" points="3476,-26 3563,-26 "/>
<text text-anchor="middle" x="3519.5" y="-15.6" font-family="Times,serif" font-size="8.00">prev: 0x6000007373f0</text>
</g>
<!-- Node0x6000007373f0&#45;&gt;Node0x600000738510 -->
<g id="edge28" class="edge">
<title>Node0x6000007373f0:n&#45;&gt;Node0x600000738510:n</title>
<path fill="none" stroke="red" d="M3440,-34C3452,-34 3457.25,-34 3465.88,-34"/>
<polygon fill="red" stroke="red" points="3466,-37.5 3476,-34 3466,-30.5 3466,-37.5"/>
</g>
<!-- Node0x60000073c150 -->
<g id="node30" class="node">
<title>Node0x60000073c150</title>
<polygon fill="none" stroke="black" points="3599,-9 3599,-77 3687,-77 3687,-9 3599,-9"/>
<text text-anchor="middle" x="3643" y="-66.6" font-family="Times,serif" font-size="8.00">word: Howling</text>
<polyline fill="none" stroke="black" points="3599,-60 3687,-60 "/>
<text text-anchor="middle" x="3643" y="-49.6" font-family="Times,serif" font-size="8.00">size: 1</text>
<polyline fill="none" stroke="black" points="3599,-43 3687,-43 "/>
<text text-anchor="middle" x="3643" y="-32.6" font-family="Times,serif" font-size="8.00">next: 0x60000073c210</text>
<polyline fill="none" stroke="black" points="3599,-26 3687,-26 "/>
<text text-anchor="middle" x="3643" y="-15.6" font-family="Times,serif" font-size="8.00">prev: 0x600000738510</text>
</g>
<!-- Node0x600000738510&#45;&gt;Node0x60000073c150 -->
<g id="edge29" class="edge">
<title>Node0x600000738510:n&#45;&gt;Node0x60000073c150:n</title>
<path fill="none" stroke="red" d="M3563,-34C3575,-34 3580.25,-34 3588.88,-34"/>
<polygon fill="red" stroke="red" points="3589,-37.5 3599,-34 3589,-30.5 3589,-37.5"/>
</g>
<!-- Node0x60000073c210 -->
<g id="node31" class="node">
<title>Node0x60000073c210</title>
<polygon fill="none" stroke="black" points="3723,-9 3723,-77 3811,-77 3811,-9 3723,-9"/>
<text text-anchor="middle" x="3767" y="-66.6" font-family="Times,serif" font-size="8.00">word: profess</text>
<polyline fill="none" stroke="black" points="3723,-60 3811,-60 "/>
<text text-anchor="middle" x="3767" y="-49.6" font-family="Times,serif" font-size="8.00">size: 1</text>
<polyline fill="none" stroke="black" points="3723,-43 3811,-43 "/>
<text text-anchor="middle" x="3767" y="-32.6" font-family="Times,serif" font-size="8.00">next: 0x60000073d950</text>
<polyline fill="none" stroke="black" points="3723,-26 3811,-26 "/>
<text text-anchor="middle" x="3767" y="-15.6" font-family="Times,serif" font-size="8.00">prev: 0x60000073c150</text>
</g>
<!-- Node0x60000073c150&#45;&gt;Node0x60000073c210 -->
<g id="edge30" class="edge">
<title>Node0x60000073c150:n&#45;&gt;Node0x60000073c210:n</title>
<path fill="none" stroke="red" d="M3687,-34C3699,-34 3704.25,-34 3712.88,-34"/>
<polygon fill="red" stroke="red" points="3713,-37.5 3723,-34 3713,-30.5 3713,-37.5"/>
</g>
<!-- Node0x60000073d950 -->
<g id="node32" class="node">
<title>Node0x60000073d950</title>
<polygon fill="none" stroke="black" points="3847,-9 3847,-77 3935,-77 3935,-9 3847,-9"/>
<text text-anchor="middle" x="3891" y="-66.6" font-family="Times,serif" font-size="8.00">word: hark</text>
<polyline fill="none" stroke="black" points="3847,-60 3935,-60 "/>
<text text-anchor="middle" x="3891" y="-49.6" font-family="Times,serif" font-size="8.00">size: 1</text>
<polyline fill="none" stroke="black" points="3847,-43 3935,-43 "/>
<text text-anchor="middle" x="3891" y="-32.6" font-family="Times,serif" font-size="8.00">next: 0x60000070b450</text>
<polyline fill="none" stroke="black" points="3847,-26 3935,-26 "/>
<text text-anchor="middle" x="3891" y="-15.6" font-family="Times,serif" font-size="8.00">prev: 0x60000073c210</text>
</g>
<!-- Node0x60000073c210&#45;&gt;Node0x60000073d950 -->
<g id="edge31" class="edge">
<title>Node0x60000073c210:n&#45;&gt;Node0x60000073d950:n</title>
<path fill="none" stroke="red" d="M3811,-34C3823,-34 3828.25,-34 3836.88,-34"/>
<polygon fill="red" stroke="red" points="3837,-37.5 3847,-34 3837,-30.5 3837,-37.5"/>
</g>
<!-- Node0x60000070b450 -->
<g id="node33" class="node">
<title>Node0x60000070b450</title>
<polygon fill="none" stroke="black" points="3971,-9 3971,-77 4059,-77 4059,-9 3971,-9"/>
<text text-anchor="middle" x="4015" y="-66.6" font-family="Times,serif" font-size="8.00">word: James</text>
<polyline fill="none" stroke="black" points="3971,-60 4059,-60 "/>
<text text-anchor="middle" x="4015" y="-49.6" font-family="Times,serif" font-size="8.00">size: 1</text>
<polyline fill="none" stroke="black" points="3971,-43 4059,-43 "/>
<text text-anchor="middle" x="4015" y="-32.6" font-family="Times,serif" font-size="8.00">next: 0x600000724060</text>
<polyline fill="none" stroke="black" points="3971,-26 4059,-26 "/>
<text text-anchor="middle" x="4015" y="-15.6" font-family="Times,serif" font-size="8.00">prev: 0x60000073d950</text>
</g>
<!-- Node0x60000073d950&#45;&gt;Node0x60000070b450 -->
<g id="edge32" class="edge">
<title>Node0x60000073d950:n&#45;&gt;Node0x60000070b450:n</title>
<path fill="none" stroke="red" d="M3935,-34C3947,-34 3952.25,-34 3960.88,-34"/>
<polygon fill="red" stroke="red" points="3961,-37.5 3971,-34 3961,-30.5 3961,-37.5"/>
</g>
<!-- Node0x600000724060 -->
<g id="node34" class="node">
<title>Node0x600000724060</title>
<polygon fill="none" stroke="black" points="4095,-9 4095,-77 4183,-77 4183,-9 4095,-9"/>
<text text-anchor="middle" x="4139" y="-66.6" font-family="Times,serif" font-size="8.00">word: Noting</text>
<polyline fill="none" stroke="black" points="4095,-60 4183,-60 "/>
<text text-anchor="middle" x="4139" y="-49.6" font-family="Times,serif" font-size="8.00">size: 1</text>
<polyline fill="none" stroke="black" points="4095,-43 4183,-43 "/>
<text text-anchor="middle" x="4139" y="-32.6" font-family="Times,serif" font-size="8.00">next: 0x600000725a10</text>
<polyline fill="none" stroke="black" points="4095,-26 4183,-26 "/>
<text text-anchor="middle" x="4139" y="-15.6" font-family="Times,serif" font-size="8.00">prev: 0x60000070b450</text>
</g>
<!-- Node0x60000070b450&#45;&gt;Node0x600000724060 -->
<g id="edge33" class="edge">
<title>Node0x60000070b450:n&#45;&gt;Node0x600000724060:n</title>
<path fill="none" stroke="red" d="M4059,-34C4071,-34 4076.25,-34 4084.88,-34"/>
<polygon fill="red" stroke="red" points="4085,-37.5 4095,-34 4085,-30.5 4085,-37.5"/>
</g>
<!-- Node0x600000725a10 -->
<g id="node35" class="node">
<title>Node0x600000725a10</title>
<polygon fill="none" stroke="black" points="4219,-9 4219,-77 4307,-77 4307,-9 4219,-9"/>
<text text-anchor="middle" x="4263" y="-66.6" font-family="Times,serif" font-size="8.00">word: rode</text>
<polyline fill="none" stroke="black" points="4219,-60 4307,-60 "/>
<text text-anchor="middle" x="4263" y="-49.6" font-family="Times,serif" font-size="8.00">size: 1</text>
<polyline fill="none" stroke="black" points="4219,-43 4307,-43 "/>
<text text-anchor="middle" x="4263" y="-32.6" font-family="Times,serif" font-size="8.00">next: 0x0</text>
<polyline fill="none" stroke="black" points="4219,-26 4307,-26 "/>
<text text-anchor="middle" x="4263" y="-15.6" font-family="Times,serif" font-size="8.00">prev: 0x600000724060</text>
</g>
<!-- Node0x600000724060&#45;&gt;Node0x600000725a10 -->
<g id="edge34" class="edge">
<title>Node0x600000724060:n&#45;&gt;Node0x600000725a10:n</title>
<path fill="none" stroke="red" d="M4183,-34C4195,-34 4200.25,-34 4208.88,-34"/>
<polygon fill="red" stroke="red" points="4209,-37.5 4219,-34 4209,-30.5 4209,-37.5"/>
</g>
</g>
</svg>
