<?xml version="1.0" encoding="UTF-8" standalone="no"?>
<!DOCTYPE svg PUBLIC "-//W3C//DTD SVG 1.1//EN"
 "http://www.w3.org/Graphics/SVG/1.1/DTD/svg11.dtd">
<!-- Generated by graphviz version 2.50.0 (20211204.2007)
 -->
<!-- Title: G Pages: 1 -->
<svg width="4194pt" height="117pt"
 viewBox="0.00 0.00 4194.00 117.00" xmlns="http://www.w3.org/2000/svg" xmlns:xlink="http://www.w3.org/1999/xlink">
<g id="graph0" class="graph" transform="scale(1 1) rotate(0) translate(4 113)">
<title>G</title>
<polygon fill="white" stroke="transparent" points="-4,4 -4,-113 4190,-113 4190,4 -4,4"/>
<g id="clust1" class="cluster">
<title>cluster3235</title>
<polygon fill="none" stroke="black" points="8,-8 8,-101 95,-101 95,-8 8,-8"/>
<text text-anchor="middle" x="51.5" y="-85.8" font-family="Times,serif" font-size="14.00">3235</text>
</g>
<g id="clust2" class="cluster">
<title>cluster3236</title>
<polygon fill="none" stroke="black" points="131,-8 131,-101 218,-101 218,-8 131,-8"/>
<text text-anchor="middle" x="174.5" y="-85.8" font-family="Times,serif" font-size="14.00">3236</text>
</g>
<g id="clust3" class="cluster">
<title>cluster3237</title>
<polygon fill="none" stroke="black" points="254,-8 254,-101 342,-101 342,-8 254,-8"/>
<text text-anchor="middle" x="298" y="-85.8" font-family="Times,serif" font-size="14.00">3237</text>
</g>
<g id="clust4" class="cluster">
<title>cluster3238</title>
<polygon fill="none" stroke="black" points="378,-8 378,-101 466,-101 466,-8 378,-8"/>
<text text-anchor="middle" x="422" y="-85.8" font-family="Times,serif" font-size="14.00">3238</text>
</g>
<g id="clust5" class="cluster">
<title>cluster3239</title>
<polygon fill="none" stroke="black" points="502,-8 502,-101 590,-101 590,-8 502,-8"/>
<text text-anchor="middle" x="546" y="-85.8" font-family="Times,serif" font-size="14.00">3239</text>
</g>
<g id="clust6" class="cluster">
<title>cluster3240</title>
<polygon fill="none" stroke="black" points="626,-8 626,-101 714,-101 714,-8 626,-8"/>
<text text-anchor="middle" x="670" y="-85.8" font-family="Times,serif" font-size="14.00">3240</text>
</g>
<g id="clust7" class="cluster">
<title>cluster3241</title>
<polygon fill="none" stroke="black" points="750,-8 750,-101 838,-101 838,-8 750,-8"/>
<text text-anchor="middle" x="794" y="-85.8" font-family="Times,serif" font-size="14.00">3241</text>
</g>
<g id="clust8" class="cluster">
<title>cluster3242</title>
<polygon fill="none" stroke="black" points="874,-8 874,-101 962,-101 962,-8 874,-8"/>
<text text-anchor="middle" x="918" y="-85.8" font-family="Times,serif" font-size="14.00">3242</text>
</g>
<g id="clust9" class="cluster">
<title>cluster3243</title>
<polygon fill="none" stroke="black" points="998,-8 998,-101 1086,-101 1086,-8 998,-8"/>
<text text-anchor="middle" x="1042" y="-85.8" font-family="Times,serif" font-size="14.00">3243</text>
</g>
<g id="clust10" class="cluster">
<title>cluster3244</title>
<polygon fill="none" stroke="black" points="1122,-8 1122,-101 1210,-101 1210,-8 1122,-8"/>
<text text-anchor="middle" x="1166" y="-85.8" font-family="Times,serif" font-size="14.00">3244</text>
</g>
<g id="clust11" class="cluster">
<title>cluster3245</title>
<polygon fill="none" stroke="black" points="1246,-8 1246,-101 1333,-101 1333,-8 1246,-8"/>
<text text-anchor="middle" x="1289.5" y="-85.8" font-family="Times,serif" font-size="14.00">3245</text>
</g>
<g id="clust12" class="cluster">
<title>cluster3246</title>
<polygon fill="none" stroke="black" points="1369,-8 1369,-101 1457,-101 1457,-8 1369,-8"/>
<text text-anchor="middle" x="1413" y="-85.8" font-family="Times,serif" font-size="14.00">3246</text>
</g>
<g id="clust13" class="cluster">
<title>cluster3247</title>
<polygon fill="none" stroke="black" points="1493,-8 1493,-101 1581,-101 1581,-8 1493,-8"/>
<text text-anchor="middle" x="1537" y="-85.8" font-family="Times,serif" font-size="14.00">3247</text>
</g>
<g id="clust14" class="cluster">
<title>cluster3248</title>
<polygon fill="none" stroke="black" points="1617,-8 1617,-101 1705,-101 1705,-8 1617,-8"/>
<text text-anchor="middle" x="1661" y="-85.8" font-family="Times,serif" font-size="14.00">3248</text>
</g>
<g id="clust15" class="cluster">
<title>cluster3249</title>
<polygon fill="none" stroke="black" points="1741,-8 1741,-101 1829,-101 1829,-8 1741,-8"/>
<text text-anchor="middle" x="1785" y="-85.8" font-family="Times,serif" font-size="14.00">3249</text>
</g>
<g id="clust16" class="cluster">
<title>cluster3250</title>
<polygon fill="none" stroke="black" points="1865,-8 1865,-101 1953,-101 1953,-8 1865,-8"/>
<text text-anchor="middle" x="1909" y="-85.8" font-family="Times,serif" font-size="14.00">3250</text>
</g>
<g id="clust17" class="cluster">
<title>cluster3251</title>
<polygon fill="none" stroke="black" points="1989,-8 1989,-101 2077,-101 2077,-8 1989,-8"/>
<text text-anchor="middle" x="2033" y="-85.8" font-family="Times,serif" font-size="14.00">3251</text>
</g>
<g id="clust18" class="cluster">
<title>cluster3252</title>
<polygon fill="none" stroke="black" points="2113,-8 2113,-101 2201,-101 2201,-8 2113,-8"/>
<text text-anchor="middle" x="2157" y="-85.8" font-family="Times,serif" font-size="14.00">3252</text>
</g>
<g id="clust19" class="cluster">
<title>cluster3253</title>
<polygon fill="none" stroke="black" points="2237,-8 2237,-101 2325,-101 2325,-8 2237,-8"/>
<text text-anchor="middle" x="2281" y="-85.8" font-family="Times,serif" font-size="14.00">3253</text>
</g>
<g id="clust20" class="cluster">
<title>cluster3254</title>
<polygon fill="none" stroke="black" points="2361,-8 2361,-101 2449,-101 2449,-8 2361,-8"/>
<text text-anchor="middle" x="2405" y="-85.8" font-family="Times,serif" font-size="14.00">3254</text>
</g>
<g id="clust21" class="cluster">
<title>cluster3255</title>
<polygon fill="none" stroke="black" points="2485,-8 2485,-101 2573,-101 2573,-8 2485,-8"/>
<text text-anchor="middle" x="2529" y="-85.8" font-family="Times,serif" font-size="14.00">3255</text>
</g>
<g id="clust22" class="cluster">
<title>cluster3256</title>
<polygon fill="none" stroke="black" points="2609,-8 2609,-101 2697,-101 2697,-8 2609,-8"/>
<text text-anchor="middle" x="2653" y="-85.8" font-family="Times,serif" font-size="14.00">3256</text>
</g>
<g id="clust23" class="cluster">
<title>cluster3257</title>
<polygon fill="none" stroke="black" points="2733,-8 2733,-101 2821,-101 2821,-8 2733,-8"/>
<text text-anchor="middle" x="2777" y="-85.8" font-family="Times,serif" font-size="14.00">3257</text>
</g>
<g id="clust24" class="cluster">
<title>cluster3258</title>
<polygon fill="none" stroke="black" points="2857,-8 2857,-101 2945,-101 2945,-8 2857,-8"/>
<text text-anchor="middle" x="2901" y="-85.8" font-family="Times,serif" font-size="14.00">3258</text>
</g>
<g id="clust25" class="cluster">
<title>cluster3259</title>
<polygon fill="none" stroke="black" points="2981,-8 2981,-101 3069,-101 3069,-8 2981,-8"/>
<text text-anchor="middle" x="3025" y="-85.8" font-family="Times,serif" font-size="14.00">3259</text>
</g>
<g id="clust26" class="cluster">
<title>cluster3260</title>
<polygon fill="none" stroke="black" points="3105,-8 3105,-101 3193,-101 3193,-8 3105,-8"/>
<text text-anchor="middle" x="3149" y="-85.8" font-family="Times,serif" font-size="14.00">3260</text>
</g>
<g id="clust27" class="cluster">
<title>cluster3261</title>
<polygon fill="none" stroke="black" points="3229,-8 3229,-101 3317,-101 3317,-8 3229,-8"/>
<text text-anchor="middle" x="3273" y="-85.8" font-family="Times,serif" font-size="14.00">3261</text>
</g>
<g id="clust28" class="cluster">
<title>cluster3262</title>
<polygon fill="none" stroke="black" points="3353,-8 3353,-101 3440,-101 3440,-8 3353,-8"/>
<text text-anchor="middle" x="3396.5" y="-85.8" font-family="Times,serif" font-size="14.00">3262</text>
</g>
<g id="clust29" class="cluster">
<title>cluster3263</title>
<polygon fill="none" stroke="black" points="3476,-8 3476,-101 3563,-101 3563,-8 3476,-8"/>
<text text-anchor="middle" x="3519.5" y="-85.8" font-family="Times,serif" font-size="14.00">3263</text>
</g>
<g id="clust30" class="cluster">
<title>cluster3264</title>
<polygon fill="none" stroke="black" points="3599,-8 3599,-101 3686,-101 3686,-8 3599,-8"/>
<text text-anchor="middle" x="3642.5" y="-85.8" font-family="Times,serif" font-size="14.00">3264</text>
</g>
<g id="clust31" class="cluster">
<title>cluster3265</title>
<polygon fill="none" stroke="black" points="3722,-8 3722,-101 3809,-101 3809,-8 3722,-8"/>
<text text-anchor="middle" x="3765.5" y="-85.8" font-family="Times,serif" font-size="14.00">3265</text>
</g>
<g id="clust32" class="cluster">
<title>cluster3266</title>
<polygon fill="none" stroke="black" points="3845,-8 3845,-101 3932,-101 3932,-8 3845,-8"/>
<text text-anchor="middle" x="3888.5" y="-85.8" font-family="Times,serif" font-size="14.00">3266</text>
</g>
<g id="clust33" class="cluster">
<title>cluster3267</title>
<polygon fill="none" stroke="black" points="3968,-8 3968,-101 4054,-101 4054,-8 3968,-8"/>
<text text-anchor="middle" x="4011" y="-85.8" font-family="Times,serif" font-size="14.00">3267</text>
</g>
<g id="clust34" class="cluster">
<title>cluster3268</title>
<polygon fill="none" stroke="black" points="4090,-8 4090,-101 4178,-101 4178,-8 4090,-8"/>
<text text-anchor="middle" x="4134" y="-85.8" font-family="Times,serif" font-size="14.00">3268</text>
</g>
<!-- Node0x600000711fe0 -->
<g id="node1" class="node">
<title>Node0x600000711fe0</title>
<polygon fill="none" stroke="black" points="8,-9 8,-77 95,-77 95,-9 8,-9"/>
<text text-anchor="middle" x="51.5" y="-66.6" font-family="Times,serif" font-size="8.00">word: traffic</text>
<polyline fill="none" stroke="black" points="8,-60 95,-60 "/>
<text text-anchor="middle" x="51.5" y="-49.6" font-family="Times,serif" font-size="8.00">size: 1</text>
<polyline fill="none" stroke="black" points="8,-43 95,-43 "/>
<text text-anchor="middle" x="51.5" y="-32.6" font-family="Times,serif" font-size="8.00">next: 0x6000007125b0</text>
<polyline fill="none" stroke="black" points="8,-26 95,-26 "/>
<text text-anchor="middle" x="51.5" y="-15.6" font-family="Times,serif" font-size="8.00">prev: 0x0</text>
</g>
<!-- Node0x6000007125b0 -->
<g id="node2" class="node">
<title>Node0x6000007125b0</title>
<polygon fill="none" stroke="black" points="131,-9 131,-77 218,-77 218,-9 131,-9"/>
<text text-anchor="middle" x="174.5" y="-66.6" font-family="Times,serif" font-size="8.00">word: No</text>
<polyline fill="none" stroke="black" points="131,-60 218,-60 "/>
<text text-anchor="middle" x="174.5" y="-49.6" font-family="Times,serif" font-size="8.00">size: 29</text>
<polyline fill="none" stroke="black" points="131,-43 218,-43 "/>
<text text-anchor="middle" x="174.5" y="-32.6" font-family="Times,serif" font-size="8.00">next: 0x600000714360</text>
<polyline fill="none" stroke="black" points="131,-26 218,-26 "/>
<text text-anchor="middle" x="174.5" y="-15.6" font-family="Times,serif" font-size="8.00">prev: 0x600000711fe0</text>
</g>
<!-- Node0x600000711fe0&#45;&gt;Node0x6000007125b0 -->
<g id="edge1" class="edge">
<title>Node0x600000711fe0:n&#45;&gt;Node0x6000007125b0:n</title>
<path fill="none" stroke="red" d="M95,-34C107,-34 112.25,-34 120.88,-34"/>
<polygon fill="red" stroke="red" points="121,-37.5 131,-34 121,-30.5 121,-37.5"/>
</g>
<!-- Node0x600000714360 -->
<g id="node3" class="node">
<title>Node0x600000714360</title>
<polygon fill="none" stroke="black" points="254,-9 254,-77 342,-77 342,-9 254,-9"/>
<text text-anchor="middle" x="298" y="-66.6" font-family="Times,serif" font-size="8.00">word: Abr</text>
<polyline fill="none" stroke="black" points="254,-60 342,-60 "/>
<text text-anchor="middle" x="298" y="-49.6" font-family="Times,serif" font-size="8.00">size: 1</text>
<polyline fill="none" stroke="black" points="254,-43 342,-43 "/>
<text text-anchor="middle" x="298" y="-32.6" font-family="Times,serif" font-size="8.00">next: 0x600000715110</text>
<polyline fill="none" stroke="black" points="254,-26 342,-26 "/>
<text text-anchor="middle" x="298" y="-15.6" font-family="Times,serif" font-size="8.00">prev: 0x6000007125b0</text>
</g>
<!-- Node0x6000007125b0&#45;&gt;Node0x600000714360 -->
<g id="edge2" class="edge">
<title>Node0x6000007125b0:n&#45;&gt;Node0x600000714360:n</title>
<path fill="none" stroke="red" d="M218,-34C230,-34 235.25,-34 243.88,-34"/>
<polygon fill="red" stroke="red" points="244,-37.5 254,-34 244,-30.5 244,-37.5"/>
</g>
<!-- Node0x600000715110 -->
<g id="node4" class="node">
<title>Node0x600000715110</title>
<polygon fill="none" stroke="black" points="378,-9 378,-77 466,-77 466,-9 378,-9"/>
<text text-anchor="middle" x="422" y="-66.6" font-family="Times,serif" font-size="8.00">word: go</text>
<polyline fill="none" stroke="black" points="378,-60 466,-60 "/>
<text text-anchor="middle" x="422" y="-49.6" font-family="Times,serif" font-size="8.00">size: 47</text>
<polyline fill="none" stroke="black" points="378,-43 466,-43 "/>
<text text-anchor="middle" x="422" y="-32.6" font-family="Times,serif" font-size="8.00">next: 0x600000715d40</text>
<polyline fill="none" stroke="black" points="378,-26 466,-26 "/>
<text text-anchor="middle" x="422" y="-15.6" font-family="Times,serif" font-size="8.00">prev: 0x600000714360</text>
</g>
<!-- Node0x600000714360&#45;&gt;Node0x600000715110 -->
<g id="edge3" class="edge">
<title>Node0x600000714360:n&#45;&gt;Node0x600000715110:n</title>
<path fill="none" stroke="red" d="M342,-34C354,-34 359.25,-34 367.88,-34"/>
<polygon fill="red" stroke="red" points="368,-37.5 378,-34 368,-30.5 368,-37.5"/>
</g>
<!-- Node0x600000715d40 -->
<g id="node5" class="node">
<title>Node0x600000715d40</title>
<polygon fill="none" stroke="black" points="502,-9 502,-77 590,-77 590,-9 502,-9"/>
<text text-anchor="middle" x="546" y="-66.6" font-family="Times,serif" font-size="8.00">word: pleasure</text>
<polyline fill="none" stroke="black" points="502,-60 590,-60 "/>
<text text-anchor="middle" x="546" y="-49.6" font-family="Times,serif" font-size="8.00">size: 5</text>
<polyline fill="none" stroke="black" points="502,-43 590,-43 "/>
<text text-anchor="middle" x="546" y="-32.6" font-family="Times,serif" font-size="8.00">next: 0x6000007166a0</text>
<polyline fill="none" stroke="black" points="502,-26 590,-26 "/>
<text text-anchor="middle" x="546" y="-15.6" font-family="Times,serif" font-size="8.00">prev: 0x600000715110</text>
</g>
<!-- Node0x600000715110&#45;&gt;Node0x600000715d40 -->
<g id="edge4" class="edge">
<title>Node0x600000715110:n&#45;&gt;Node0x600000715d40:n</title>
<path fill="none" stroke="red" d="M466,-34C478,-34 483.25,-34 491.88,-34"/>
<polygon fill="red" stroke="red" points="492,-37.5 502,-34 492,-30.5 492,-37.5"/>
</g>
<!-- Node0x6000007166a0 -->
<g id="node6" class="node">
<title>Node0x6000007166a0</title>
<polygon fill="none" stroke="black" points="626,-9 626,-77 714,-77 714,-9 626,-9"/>
<text text-anchor="middle" x="670" y="-66.6" font-family="Times,serif" font-size="8.00">word: O</text>
<polyline fill="none" stroke="black" points="626,-60 714,-60 "/>
<text text-anchor="middle" x="670" y="-49.6" font-family="Times,serif" font-size="8.00">size: 153</text>
<polyline fill="none" stroke="black" points="626,-43 714,-43 "/>
<text text-anchor="middle" x="670" y="-32.6" font-family="Times,serif" font-size="8.00">next: 0x600000716a30</text>
<polyline fill="none" stroke="black" points="626,-26 714,-26 "/>
<text text-anchor="middle" x="670" y="-15.6" font-family="Times,serif" font-size="8.00">prev: 0x600000715d40</text>
</g>
<!-- Node0x600000715d40&#45;&gt;Node0x6000007166a0 -->
<g id="edge5" class="edge">
<title>Node0x600000715d40:n&#45;&gt;Node0x6000007166a0:n</title>
<path fill="none" stroke="red" d="M590,-34C602,-34 607.25,-34 615.88,-34"/>
<polygon fill="red" stroke="red" points="616,-37.5 626,-34 616,-30.5 616,-37.5"/>
</g>
<!-- Node0x600000716a30 -->
<g id="node7" class="node">
<title>Node0x600000716a30</title>
<polygon fill="none" stroke="black" points="750,-9 750,-77 838,-77 838,-9 750,-9"/>
<text text-anchor="middle" x="794" y="-66.6" font-family="Times,serif" font-size="8.00">word: abroad</text>
<polyline fill="none" stroke="black" points="750,-60 838,-60 "/>
<text text-anchor="middle" x="794" y="-49.6" font-family="Times,serif" font-size="8.00">size: 4</text>
<polyline fill="none" stroke="black" points="750,-43 838,-43 "/>
<text text-anchor="middle" x="794" y="-32.6" font-family="Times,serif" font-size="8.00">next: 0x600000716d60</text>
<polyline fill="none" stroke="black" points="750,-26 838,-26 "/>
<text text-anchor="middle" x="794" y="-15.6" font-family="Times,serif" font-size="8.00">prev: 0x6000007166a0</text>
</g>
<!-- Node0x6000007166a0&#45;&gt;Node0x600000716a30 -->
<g id="edge6" class="edge">
<title>Node0x6000007166a0:n&#45;&gt;Node0x600000716a30:n</title>
<path fill="none" stroke="red" d="M714,-34C726,-34 731.25,-34 739.88,-34"/>
<polygon fill="red" stroke="red" points="740,-37.5 750,-34 740,-30.5 740,-37.5"/>
</g>
<!-- Node0x600000716d60 -->
<g id="node8" class="node">
<title>Node0x600000716d60</title>
<polygon fill="none" stroke="black" points="874,-9 874,-77 962,-77 962,-9 874,-9"/>
<text text-anchor="middle" x="918" y="-66.6" font-family="Times,serif" font-size="8.00">word: measuring</text>
<polyline fill="none" stroke="black" points="874,-60 962,-60 "/>
<text text-anchor="middle" x="918" y="-49.6" font-family="Times,serif" font-size="8.00">size: 1</text>
<polyline fill="none" stroke="black" points="874,-43 962,-43 "/>
<text text-anchor="middle" x="918" y="-32.6" font-family="Times,serif" font-size="8.00">next: 0x600000717ab0</text>
<polyline fill="none" stroke="black" points="874,-26 962,-26 "/>
<text text-anchor="middle" x="918" y="-15.6" font-family="Times,serif" font-size="8.00">prev: 0x600000716a30</text>
</g>
<!-- Node0x600000716a30&#45;&gt;Node0x600000716d60 -->
<g id="edge7" class="edge">
<title>Node0x600000716a30:n&#45;&gt;Node0x600000716d60:n</title>
<path fill="none" stroke="red" d="M838,-34C850,-34 855.25,-34 863.88,-34"/>
<polygon fill="red" stroke="red" points="864,-37.5 874,-34 864,-30.5 864,-37.5"/>
</g>
<!-- Node0x600000717ab0 -->
<g id="node9" class="node">
<title>Node0x600000717ab0</title>
<polygon fill="none" stroke="black" points="998,-9 998,-77 1086,-77 1086,-9 998,-9"/>
<text text-anchor="middle" x="1042" y="-66.6" font-family="Times,serif" font-size="8.00">word: Both</text>
<polyline fill="none" stroke="black" points="998,-60 1086,-60 "/>
<text text-anchor="middle" x="1042" y="-49.6" font-family="Times,serif" font-size="8.00">size: 4</text>
<polyline fill="none" stroke="black" points="998,-43 1086,-43 "/>
<text text-anchor="middle" x="1042" y="-32.6" font-family="Times,serif" font-size="8.00">next: 0x60000071cf30</text>
<polyline fill="none" stroke="black" points="998,-26 1086,-26 "/>
<text text-anchor="middle" x="1042" y="-15.6" font-family="Times,serif" font-size="8.00">prev: 0x600000716d60</text>
</g>
<!-- Node0x600000716d60&#45;&gt;Node0x600000717ab0 -->
<g id="edge8" class="edge">
<title>Node0x600000716d60:n&#45;&gt;Node0x600000717ab0:n</title>
<path fill="none" stroke="red" d="M962,-34C974,-34 979.25,-34 987.88,-34"/>
<polygon fill="red" stroke="red" points="988,-37.5 998,-34 988,-30.5 988,-37.5"/>
</g>
<!-- Node0x60000071cf30 -->
<g id="node10" class="node">
<title>Node0x60000071cf30</title>
<polygon fill="none" stroke="black" points="1122,-9 1122,-77 1210,-77 1210,-9 1122,-9"/>
<text text-anchor="middle" x="1166" y="-66.6" font-family="Times,serif" font-size="8.00">word: Herself</text>
<polyline fill="none" stroke="black" points="1122,-60 1210,-60 "/>
<text text-anchor="middle" x="1166" y="-49.6" font-family="Times,serif" font-size="8.00">size: 1</text>
<polyline fill="none" stroke="black" points="1122,-43 1210,-43 "/>
<text text-anchor="middle" x="1166" y="-32.6" font-family="Times,serif" font-size="8.00">next: 0x60000071d800</text>
<polyline fill="none" stroke="black" points="1122,-26 1210,-26 "/>
<text text-anchor="middle" x="1166" y="-15.6" font-family="Times,serif" font-size="8.00">prev: 0x600000717ab0</text>
</g>
<!-- Node0x600000717ab0&#45;&gt;Node0x60000071cf30 -->
<g id="edge9" class="edge">
<title>Node0x600000717ab0:n&#45;&gt;Node0x60000071cf30:n</title>
<path fill="none" stroke="red" d="M1086,-34C1098,-34 1103.25,-34 1111.88,-34"/>
<polygon fill="red" stroke="red" points="1112,-37.5 1122,-34 1112,-30.5 1112,-37.5"/>
</g>
<!-- Node0x60000071d800 -->
<g id="node11" class="node">
<title>Node0x60000071d800</title>
<polygon fill="none" stroke="black" points="1246,-9 1246,-77 1333,-77 1333,-9 1246,-9"/>
<text text-anchor="middle" x="1289.5" y="-66.6" font-family="Times,serif" font-size="8.00">word: breaths</text>
<polyline fill="none" stroke="black" points="1246,-60 1333,-60 "/>
<text text-anchor="middle" x="1289.5" y="-49.6" font-family="Times,serif" font-size="8.00">size: 1</text>
<polyline fill="none" stroke="black" points="1246,-43 1333,-43 "/>
<text text-anchor="middle" x="1289.5" y="-32.6" font-family="Times,serif" font-size="8.00">next: 0x60000071de00</text>
<polyline fill="none" stroke="black" points="1246,-26 1333,-26 "/>
<text text-anchor="middle" x="1289.5" y="-15.6" font-family="Times,serif" font-size="8.00">prev: 0x60000071cf30</text>
</g>
<!-- Node0x60000071cf30&#45;&gt;Node0x60000071d800 -->
<g id="edge10" class="edge">
<title>Node0x60000071cf30:n&#45;&gt;Node0x60000071d800:n</title>
<path fill="none" stroke="red" d="M1210,-34C1222,-34 1227.25,-34 1235.88,-34"/>
<polygon fill="red" stroke="red" points="1236,-37.5 1246,-34 1236,-30.5 1236,-37.5"/>
</g>
<!-- Node0x60000071de00 -->
<g id="node12" class="node">
<title>Node0x60000071de00</title>
<polygon fill="none" stroke="black" points="1369,-9 1369,-77 1457,-77 1457,-9 1369,-9"/>
<text text-anchor="middle" x="1413" y="-66.6" font-family="Times,serif" font-size="8.00">word: thus</text>
<polyline fill="none" stroke="black" points="1369,-60 1457,-60 "/>
<text text-anchor="middle" x="1413" y="-49.6" font-family="Times,serif" font-size="8.00">size: 5</text>
<polyline fill="none" stroke="black" points="1369,-43 1457,-43 "/>
<text text-anchor="middle" x="1413" y="-32.6" font-family="Times,serif" font-size="8.00">next: 0x60000071e4c0</text>
<polyline fill="none" stroke="black" points="1369,-26 1457,-26 "/>
<text text-anchor="middle" x="1413" y="-15.6" font-family="Times,serif" font-size="8.00">prev: 0x60000071d800</text>
</g>
<!-- Node0x60000071d800&#45;&gt;Node0x60000071de00 -->
<g id="edge11" class="edge">
<title>Node0x60000071d800:n&#45;&gt;Node0x60000071de00:n</title>
<path fill="none" stroke="red" d="M1333,-34C1345,-34 1350.25,-34 1358.88,-34"/>
<polygon fill="red" stroke="red" points="1359,-37.5 1369,-34 1359,-30.5 1359,-37.5"/>
</g>
<!-- Node0x60000071e4c0 -->
<g id="node13" class="node">
<title>Node0x60000071e4c0</title>
<polygon fill="none" stroke="black" points="1493,-9 1493,-77 1581,-77 1581,-9 1493,-9"/>
<text text-anchor="middle" x="1537" y="-66.6" font-family="Times,serif" font-size="8.00">word: thence</text>
<polyline fill="none" stroke="black" points="1493,-60 1581,-60 "/>
<text text-anchor="middle" x="1537" y="-49.6" font-family="Times,serif" font-size="8.00">size: 2</text>
<polyline fill="none" stroke="black" points="1493,-43 1581,-43 "/>
<text text-anchor="middle" x="1537" y="-32.6" font-family="Times,serif" font-size="8.00">next: 0x600000702460</text>
<polyline fill="none" stroke="black" points="1493,-26 1581,-26 "/>
<text text-anchor="middle" x="1537" y="-15.6" font-family="Times,serif" font-size="8.00">prev: 0x60000071de00</text>
</g>
<!-- Node0x60000071de00&#45;&gt;Node0x60000071e4c0 -->
<g id="edge12" class="edge">
<title>Node0x60000071de00:n&#45;&gt;Node0x60000071e4c0:n</title>
<path fill="none" stroke="red" d="M1457,-34C1469,-34 1474.25,-34 1482.88,-34"/>
<polygon fill="red" stroke="red" points="1483,-37.5 1493,-34 1483,-30.5 1483,-37.5"/>
</g>
<!-- Node0x600000702460 -->
<g id="node14" class="node">
<title>Node0x600000702460</title>
<polygon fill="none" stroke="black" points="1617,-9 1617,-77 1705,-77 1705,-9 1617,-9"/>
<text text-anchor="middle" x="1661" y="-66.6" font-family="Times,serif" font-size="8.00">word: soft</text>
<polyline fill="none" stroke="black" points="1617,-60 1705,-60 "/>
<text text-anchor="middle" x="1661" y="-49.6" font-family="Times,serif" font-size="8.00">size: 4</text>
<polyline fill="none" stroke="black" points="1617,-43 1705,-43 "/>
<text text-anchor="middle" x="1661" y="-32.6" font-family="Times,serif" font-size="8.00">next: 0x600000702610</text>
<polyline fill="none" stroke="black" points="1617,-26 1705,-26 "/>
<text text-anchor="middle" x="1661" y="-15.6" font-family="Times,serif" font-size="8.00">prev: 0x60000071e4c0</text>
</g>
<!-- Node0x60000071e4c0&#45;&gt;Node0x600000702460 -->
<g id="edge13" class="edge">
<title>Node0x60000071e4c0:n&#45;&gt;Node0x600000702460:n</title>
<path fill="none" stroke="red" d="M1581,-34C1593,-34 1598.25,-34 1606.88,-34"/>
<polygon fill="red" stroke="red" points="1607,-37.5 1617,-34 1607,-30.5 1607,-37.5"/>
</g>
<!-- Node0x600000702610 -->
<g id="node15" class="node">
<title>Node0x600000702610</title>
<polygon fill="none" stroke="black" points="1741,-9 1741,-77 1829,-77 1829,-9 1741,-9"/>
<text text-anchor="middle" x="1785" y="-66.6" font-family="Times,serif" font-size="8.00">word: green</text>
<polyline fill="none" stroke="black" points="1741,-60 1829,-60 "/>
<text text-anchor="middle" x="1785" y="-49.6" font-family="Times,serif" font-size="8.00">size: 4</text>
<polyline fill="none" stroke="black" points="1741,-43 1829,-43 "/>
<text text-anchor="middle" x="1785" y="-32.6" font-family="Times,serif" font-size="8.00">next: 0x600000703840</text>
<polyline fill="none" stroke="black" points="1741,-26 1829,-26 "/>
<text text-anchor="middle" x="1785" y="-15.6" font-family="Times,serif" font-size="8.00">prev: 0x600000702460</text>
</g>
<!-- Node0x600000702460&#45;&gt;Node0x600000702610 -->
<g id="edge14" class="edge">
<title>Node0x600000702460:n&#45;&gt;Node0x600000702610:n</title>
<path fill="none" stroke="red" d="M1705,-34C1717,-34 1722.25,-34 1730.88,-34"/>
<polygon fill="red" stroke="red" points="1731,-37.5 1741,-34 1731,-30.5 1731,-37.5"/>
</g>
<!-- Node0x600000703840 -->
<g id="node16" class="node">
<title>Node0x600000703840</title>
<polygon fill="none" stroke="black" points="1865,-9 1865,-77 1953,-77 1953,-9 1865,-9"/>
<text text-anchor="middle" x="1909" y="-66.6" font-family="Times,serif" font-size="8.00">word: bepaint</text>
<polyline fill="none" stroke="black" points="1865,-60 1953,-60 "/>
<text text-anchor="middle" x="1909" y="-49.6" font-family="Times,serif" font-size="8.00">size: 1</text>
<polyline fill="none" stroke="black" points="1865,-43 1953,-43 "/>
<text text-anchor="middle" x="1909" y="-32.6" font-family="Times,serif" font-size="8.00">next: 0x600000703870</text>
<polyline fill="none" stroke="black" points="1865,-26 1953,-26 "/>
<text text-anchor="middle" x="1909" y="-15.6" font-family="Times,serif" font-size="8.00">prev: 0x600000702610</text>
</g>
<!-- Node0x600000702610&#45;&gt;Node0x600000703840 -->
<g id="edge15" class="edge">
<title>Node0x600000702610:n&#45;&gt;Node0x600000703840:n</title>
<path fill="none" stroke="red" d="M1829,-34C1841,-34 1846.25,-34 1854.88,-34"/>
<polygon fill="red" stroke="red" points="1855,-37.5 1865,-34 1855,-30.5 1855,-37.5"/>
</g>
<!-- Node0x600000703870 -->
<g id="node17" class="node">
<title>Node0x600000703870</title>
<polygon fill="none" stroke="black" points="1989,-9 1989,-77 2077,-77 2077,-9 1989,-9"/>
<text text-anchor="middle" x="2033" y="-66.6" font-family="Times,serif" font-size="8.00">word: Fain</text>
<polyline fill="none" stroke="black" points="1989,-60 2077,-60 "/>
<text text-anchor="middle" x="2033" y="-49.6" font-family="Times,serif" font-size="8.00">size: 1</text>
<polyline fill="none" stroke="black" points="1989,-43 2077,-43 "/>
<text text-anchor="middle" x="2033" y="-32.6" font-family="Times,serif" font-size="8.00">next: 0x600000731980</text>
<polyline fill="none" stroke="black" points="1989,-26 2077,-26 "/>
<text text-anchor="middle" x="2033" y="-15.6" font-family="Times,serif" font-size="8.00">prev: 0x600000703840</text>
</g>
<!-- Node0x600000703840&#45;&gt;Node0x600000703870 -->
<g id="edge16" class="edge">
<title>Node0x600000703840:n&#45;&gt;Node0x600000703870:n</title>
<path fill="none" stroke="red" d="M1953,-34C1965,-34 1970.25,-34 1978.88,-34"/>
<polygon fill="red" stroke="red" points="1979,-37.5 1989,-34 1979,-30.5 1979,-37.5"/>
</g>
<!-- Node0x600000731980 -->
<g id="node18" class="node">
<title>Node0x600000731980</title>
<polygon fill="none" stroke="black" points="2113,-9 2113,-77 2201,-77 2201,-9 2113,-9"/>
<text text-anchor="middle" x="2157" y="-66.6" font-family="Times,serif" font-size="8.00">word: aught</text>
<polyline fill="none" stroke="black" points="2113,-60 2201,-60 "/>
<text text-anchor="middle" x="2157" y="-49.6" font-family="Times,serif" font-size="8.00">size: 2</text>
<polyline fill="none" stroke="black" points="2113,-43 2201,-43 "/>
<text text-anchor="middle" x="2157" y="-32.6" font-family="Times,serif" font-size="8.00">next: 0x600000732a60</text>
<polyline fill="none" stroke="black" points="2113,-26 2201,-26 "/>
<text text-anchor="middle" x="2157" y="-15.6" font-family="Times,serif" font-size="8.00">prev: 0x600000703870</text>
</g>
<!-- Node0x600000703870&#45;&gt;Node0x600000731980 -->
<g id="edge17" class="edge">
<title>Node0x600000703870:n&#45;&gt;Node0x600000731980:n</title>
<path fill="none" stroke="red" d="M2077,-34C2089,-34 2094.25,-34 2102.88,-34"/>
<polygon fill="red" stroke="red" points="2103,-37.5 2113,-34 2103,-30.5 2103,-37.5"/>
</g>
<!-- Node0x600000732a60 -->
<g id="node19" class="node">
<title>Node0x600000732a60</title>
<polygon fill="none" stroke="black" points="2237,-9 2237,-77 2325,-77 2325,-9 2237,-9"/>
<text text-anchor="middle" x="2281" y="-66.6" font-family="Times,serif" font-size="8.00">word: stain</text>
<polyline fill="none" stroke="black" points="2237,-60 2325,-60 "/>
<text text-anchor="middle" x="2281" y="-49.6" font-family="Times,serif" font-size="8.00">size: 3</text>
<polyline fill="none" stroke="black" points="2237,-43 2325,-43 "/>
<text text-anchor="middle" x="2281" y="-32.6" font-family="Times,serif" font-size="8.00">next: 0x600000734930</text>
<polyline fill="none" stroke="black" points="2237,-26 2325,-26 "/>
<text text-anchor="middle" x="2281" y="-15.6" font-family="Times,serif" font-size="8.00">prev: 0x600000731980</text>
</g>
<!-- Node0x600000731980&#45;&gt;Node0x600000732a60 -->
<g id="edge18" class="edge">
<title>Node0x600000731980:n&#45;&gt;Node0x600000732a60:n</title>
<path fill="none" stroke="red" d="M2201,-34C2213,-34 2218.25,-34 2226.88,-34"/>
<polygon fill="red" stroke="red" points="2227,-37.5 2237,-34 2227,-30.5 2227,-37.5"/>
</g>
<!-- Node0x600000734930 -->
<g id="node20" class="node">
<title>Node0x600000734930</title>
<polygon fill="none" stroke="black" points="2361,-9 2361,-77 2449,-77 2449,-9 2361,-9"/>
<text text-anchor="middle" x="2405" y="-66.6" font-family="Times,serif" font-size="8.00">word: argument</text>
<polyline fill="none" stroke="black" points="2361,-60 2449,-60 "/>
<text text-anchor="middle" x="2405" y="-49.6" font-family="Times,serif" font-size="8.00">size: 1</text>
<polyline fill="none" stroke="black" points="2361,-43 2449,-43 "/>
<text text-anchor="middle" x="2405" y="-32.6" font-family="Times,serif" font-size="8.00">next: 0x600000734ab0</text>
<polyline fill="none" stroke="black" points="2361,-26 2449,-26 "/>
<text text-anchor="middle" x="2405" y="-15.6" font-family="Times,serif" font-size="8.00">prev: 0x600000732a60</text>
</g>
<!-- Node0x600000732a60&#45;&gt;Node0x600000734930 -->
<g id="edge19" class="edge">
<title>Node0x600000732a60:n&#45;&gt;Node0x600000734930:n</title>
<path fill="none" stroke="red" d="M2325,-34C2337,-34 2342.25,-34 2350.88,-34"/>
<polygon fill="red" stroke="red" points="2351,-37.5 2361,-34 2351,-30.5 2351,-37.5"/>
</g>
<!-- Node0x600000734ab0 -->
<g id="node21" class="node">
<title>Node0x600000734ab0</title>
<polygon fill="none" stroke="black" points="2485,-9 2485,-77 2573,-77 2573,-9 2485,-9"/>
<text text-anchor="middle" x="2529" y="-66.6" font-family="Times,serif" font-size="8.00">word: gentlewoman</text>
<polyline fill="none" stroke="black" points="2485,-60 2573,-60 "/>
<text text-anchor="middle" x="2529" y="-49.6" font-family="Times,serif" font-size="8.00">size: 4</text>
<polyline fill="none" stroke="black" points="2485,-43 2573,-43 "/>
<text text-anchor="middle" x="2529" y="-32.6" font-family="Times,serif" font-size="8.00">next: 0x600000735230</text>
<polyline fill="none" stroke="black" points="2485,-26 2573,-26 "/>
<text text-anchor="middle" x="2529" y="-15.6" font-family="Times,serif" font-size="8.00">prev: 0x600000734930</text>
</g>
<!-- Node0x600000734930&#45;&gt;Node0x600000734ab0 -->
<g id="edge20" class="edge">
<title>Node0x600000734930:n&#45;&gt;Node0x600000734ab0:n</title>
<path fill="none" stroke="red" d="M2449,-34C2461,-34 2466.25,-34 2474.88,-34"/>
<polygon fill="red" stroke="red" points="2475,-37.5 2485,-34 2475,-30.5 2475,-37.5"/>
</g>
<!-- Node0x600000735230 -->
<g id="node22" class="node">
<title>Node0x600000735230</title>
<polygon fill="none" stroke="black" points="2609,-9 2609,-77 2697,-77 2697,-9 2609,-9"/>
<text text-anchor="middle" x="2653" y="-66.6" font-family="Times,serif" font-size="8.00">word: lustier</text>
<polyline fill="none" stroke="black" points="2609,-60 2697,-60 "/>
<text text-anchor="middle" x="2653" y="-49.6" font-family="Times,serif" font-size="8.00">size: 1</text>
<polyline fill="none" stroke="black" points="2609,-43 2697,-43 "/>
<text text-anchor="middle" x="2653" y="-32.6" font-family="Times,serif" font-size="8.00">next: 0x6000007387b0</text>
<polyline fill="none" stroke="black" points="2609,-26 2697,-26 "/>
<text text-anchor="middle" x="2653" y="-15.6" font-family="Times,serif" font-size="8.00">prev: 0x600000734ab0</text>
</g>
<!-- Node0x600000734ab0&#45;&gt;Node0x600000735230 -->
<g id="edge21" class="edge">
<title>Node0x600000734ab0:n&#45;&gt;Node0x600000735230:n</title>
<path fill="none" stroke="red" d="M2573,-34C2585,-34 2590.25,-34 2598.88,-34"/>
<polygon fill="red" stroke="red" points="2599,-37.5 2609,-34 2599,-30.5 2599,-37.5"/>
</g>
<!-- Node0x6000007387b0 -->
<g id="node23" class="node">
<title>Node0x6000007387b0</title>
<polygon fill="none" stroke="black" points="2733,-9 2733,-77 2821,-77 2821,-9 2733,-9"/>
<text text-anchor="middle" x="2777" y="-66.6" font-family="Times,serif" font-size="8.00">word: arithmetic</text>
<polyline fill="none" stroke="black" points="2733,-60 2821,-60 "/>
<text text-anchor="middle" x="2777" y="-49.6" font-family="Times,serif" font-size="8.00">size: 1</text>
<polyline fill="none" stroke="black" points="2733,-43 2821,-43 "/>
<text text-anchor="middle" x="2777" y="-32.6" font-family="Times,serif" font-size="8.00">next: 0x60000073a130</text>
<polyline fill="none" stroke="black" points="2733,-26 2821,-26 "/>
<text text-anchor="middle" x="2777" y="-15.6" font-family="Times,serif" font-size="8.00">prev: 0x600000735230</text>
</g>
<!-- Node0x600000735230&#45;&gt;Node0x6000007387b0 -->
<g id="edge22" class="edge">
<title>Node0x600000735230:n&#45;&gt;Node0x6000007387b0:n</title>
<path fill="none" stroke="red" d="M2697,-34C2709,-34 2714.25,-34 2722.88,-34"/>
<polygon fill="red" stroke="red" points="2723,-37.5 2733,-34 2723,-30.5 2723,-37.5"/>
</g>
<!-- Node0x60000073a130 -->
<g id="node24" class="node">
<title>Node0x60000073a130</title>
<polygon fill="none" stroke="black" points="2857,-9 2857,-77 2945,-77 2945,-9 2857,-9"/>
<text text-anchor="middle" x="2901" y="-66.6" font-family="Times,serif" font-size="8.00">word: mantle</text>
<polyline fill="none" stroke="black" points="2857,-60 2945,-60 "/>
<text text-anchor="middle" x="2901" y="-49.6" font-family="Times,serif" font-size="8.00">size: 1</text>
<polyline fill="none" stroke="black" points="2857,-43 2945,-43 "/>
<text text-anchor="middle" x="2901" y="-32.6" font-family="Times,serif" font-size="8.00">next: 0x60000073b510</text>
<polyline fill="none" stroke="black" points="2857,-26 2945,-26 "/>
<text text-anchor="middle" x="2901" y="-15.6" font-family="Times,serif" font-size="8.00">prev: 0x6000007387b0</text>
</g>
<!-- Node0x6000007387b0&#45;&gt;Node0x60000073a130 -->
<g id="edge23" class="edge">
<title>Node0x6000007387b0:n&#45;&gt;Node0x60000073a130:n</title>
<path fill="none" stroke="red" d="M2821,-34C2833,-34 2838.25,-34 2846.88,-34"/>
<polygon fill="red" stroke="red" points="2847,-37.5 2857,-34 2847,-30.5 2847,-37.5"/>
</g>
<!-- Node0x60000073b510 -->
<g id="node25" class="node">
<title>Node0x60000073b510</title>
<polygon fill="none" stroke="black" points="2981,-9 2981,-77 3069,-77 3069,-9 2981,-9"/>
<text text-anchor="middle" x="3025" y="-66.6" font-family="Times,serif" font-size="8.00">word: Tybalts</text>
<polyline fill="none" stroke="black" points="2981,-60 3069,-60 "/>
<text text-anchor="middle" x="3025" y="-49.6" font-family="Times,serif" font-size="8.00">size: 1</text>
<polyline fill="none" stroke="black" points="2981,-43 3069,-43 "/>
<text text-anchor="middle" x="3025" y="-32.6" font-family="Times,serif" font-size="8.00">next: 0x60000073d080</text>
<polyline fill="none" stroke="black" points="2981,-26 3069,-26 "/>
<text text-anchor="middle" x="3025" y="-15.6" font-family="Times,serif" font-size="8.00">prev: 0x60000073a130</text>
</g>
<!-- Node0x60000073a130&#45;&gt;Node0x60000073b510 -->
<g id="edge24" class="edge">
<title>Node0x60000073a130:n&#45;&gt;Node0x60000073b510:n</title>
<path fill="none" stroke="red" d="M2945,-34C2957,-34 2962.25,-34 2970.88,-34"/>
<polygon fill="red" stroke="red" points="2971,-37.5 2981,-34 2971,-30.5 2971,-37.5"/>
</g>
<!-- Node0x60000073d080 -->
<g id="node26" class="node">
<title>Node0x60000073d080</title>
<polygon fill="none" stroke="black" points="3105,-9 3105,-77 3193,-77 3193,-9 3105,-9"/>
<text text-anchor="middle" x="3149" y="-66.6" font-family="Times,serif" font-size="8.00">word: defence</text>
<polyline fill="none" stroke="black" points="3105,-60 3193,-60 "/>
<text text-anchor="middle" x="3149" y="-49.6" font-family="Times,serif" font-size="8.00">size: 1</text>
<polyline fill="none" stroke="black" points="3105,-43 3193,-43 "/>
<text text-anchor="middle" x="3149" y="-32.6" font-family="Times,serif" font-size="8.00">next: 0x60000073dfb0</text>
<polyline fill="none" stroke="black" points="3105,-26 3193,-26 "/>
<text text-anchor="middle" x="3149" y="-15.6" font-family="Times,serif" font-size="8.00">prev: 0x60000073b510</text>
</g>
<!-- Node0x60000073b510&#45;&gt;Node0x60000073d080 -->
<g id="edge25" class="edge">
<title>Node0x60000073b510:n&#45;&gt;Node0x60000073d080:n</title>
<path fill="none" stroke="red" d="M3069,-34C3081,-34 3086.25,-34 3094.88,-34"/>
<polygon fill="red" stroke="red" points="3095,-37.5 3105,-34 3095,-30.5 3095,-37.5"/>
</g>
<!-- Node0x60000073dfb0 -->
<g id="node27" class="node">
<title>Node0x60000073dfb0</title>
<polygon fill="none" stroke="black" points="3229,-9 3229,-77 3317,-77 3317,-9 3229,-9"/>
<text text-anchor="middle" x="3273" y="-66.6" font-family="Times,serif" font-size="8.00">word: vaulty</text>
<polyline fill="none" stroke="black" points="3229,-60 3317,-60 "/>
<text text-anchor="middle" x="3273" y="-49.6" font-family="Times,serif" font-size="8.00">size: 1</text>
<polyline fill="none" stroke="black" points="3229,-43 3317,-43 "/>
<text text-anchor="middle" x="3273" y="-32.6" font-family="Times,serif" font-size="8.00">next: 0x60000073f030</text>
<polyline fill="none" stroke="black" points="3229,-26 3317,-26 "/>
<text text-anchor="middle" x="3273" y="-15.6" font-family="Times,serif" font-size="8.00">prev: 0x60000073d080</text>
</g>
<!-- Node0x60000073d080&#45;&gt;Node0x60000073dfb0 -->
<g id="edge26" class="edge">
<title>Node0x60000073d080:n&#45;&gt;Node0x60000073dfb0:n</title>
<path fill="none" stroke="red" d="M3193,-34C3205,-34 3210.25,-34 3218.88,-34"/>
<polygon fill="red" stroke="red" points="3219,-37.5 3229,-34 3219,-30.5 3219,-37.5"/>
</g>
<!-- Node0x60000073f030 -->
<g id="node28" class="node">
<title>Node0x60000073f030</title>
<polygon fill="none" stroke="black" points="3353,-9 3353,-77 3440,-77 3440,-9 3353,-9"/>
<text text-anchor="middle" x="3396.5" y="-66.6" font-family="Times,serif" font-size="8.00">word: thankful</text>
<polyline fill="none" stroke="black" points="3353,-60 3440,-60 "/>
<text text-anchor="middle" x="3396.5" y="-49.6" font-family="Times,serif" font-size="8.00">size: 2</text>
<polyline fill="none" stroke="black" points="3353,-43 3440,-43 "/>
<text text-anchor="middle" x="3396.5" y="-32.6" font-family="Times,serif" font-size="8.00">next: 0x60000073f510</text>
<polyline fill="none" stroke="black" points="3353,-26 3440,-26 "/>
<text text-anchor="middle" x="3396.5" y="-15.6" font-family="Times,serif" font-size="8.00">prev: 0x60000073dfb0</text>
</g>
<!-- Node0x60000073dfb0&#45;&gt;Node0x60000073f030 -->
<g id="edge27" class="edge">
<title>Node0x60000073dfb0:n&#45;&gt;Node0x60000073f030:n</title>
<path fill="none" stroke="red" d="M3317,-34C3329,-34 3334.25,-34 3342.88,-34"/>
<polygon fill="red" stroke="red" points="3343,-37.5 3353,-34 3343,-30.5 3343,-37.5"/>
</g>
<!-- Node0x60000073f510 -->
<g id="node29" class="node">
<title>Node0x60000073f510</title>
<polygon fill="none" stroke="black" points="3476,-9 3476,-77 3563,-77 3563,-9 3476,-9"/>
<text text-anchor="middle" x="3519.5" y="-66.6" font-family="Times,serif" font-size="8.00">word: Wisdom</text>
<polyline fill="none" stroke="black" points="3476,-60 3563,-60 "/>
<text text-anchor="middle" x="3519.5" y="-49.6" font-family="Times,serif" font-size="8.00">size: 1</text>
<polyline fill="none" stroke="black" points="3476,-43 3563,-43 "/>
<text text-anchor="middle" x="3519.5" y="-32.6" font-family="Times,serif" font-size="8.00">next: 0x60000073f9c0</text>
<polyline fill="none" stroke="black" points="3476,-26 3563,-26 "/>
<text text-anchor="middle" x="3519.5" y="-15.6" font-family="Times,serif" font-size="8.00">prev: 0x60000073f030</text>
</g>
<!-- Node0x60000073f030&#45;&gt;Node0x60000073f510 -->
<g id="edge28" class="edge">
<title>Node0x60000073f030:n&#45;&gt;Node0x60000073f510:n</title>
<path fill="none" stroke="red" d="M3440,-34C3452,-34 3457.25,-34 3465.88,-34"/>
<polygon fill="red" stroke="red" points="3466,-37.5 3476,-34 3466,-30.5 3466,-37.5"/>
</g>
<!-- Node0x60000073f9c0 -->
<g id="node30" class="node">
<title>Node0x60000073f9c0</title>
<polygon fill="none" stroke="black" points="3599,-9 3599,-77 3686,-77 3686,-9 3599,-9"/>
<text text-anchor="middle" x="3642.5" y="-66.6" font-family="Times,serif" font-size="8.00">word: starve</text>
<polyline fill="none" stroke="black" points="3599,-60 3686,-60 "/>
<text text-anchor="middle" x="3642.5" y="-49.6" font-family="Times,serif" font-size="8.00">size: 1</text>
<polyline fill="none" stroke="black" points="3599,-43 3686,-43 "/>
<text text-anchor="middle" x="3642.5" y="-32.6" font-family="Times,serif" font-size="8.00">next: 0x60000073fa80</text>
<polyline fill="none" stroke="black" points="3599,-26 3686,-26 "/>
<text text-anchor="middle" x="3642.5" y="-15.6" font-family="Times,serif" font-size="8.00">prev: 0x60000073f510</text>
</g>
<!-- Node0x60000073f510&#45;&gt;Node0x60000073f9c0 -->
<g id="edge29" class="edge">
<title>Node0x60000073f510:n&#45;&gt;Node0x60000073f9c0:n</title>
<path fill="none" stroke="red" d="M3563,-34C3575,-34 3580.25,-34 3588.88,-34"/>
<polygon fill="red" stroke="red" points="3589,-37.5 3599,-34 3589,-30.5 3589,-37.5"/>
</g>
<!-- Node0x60000073fa80 -->
<g id="node31" class="node">
<title>Node0x60000073fa80</title>
<polygon fill="none" stroke="black" points="3722,-9 3722,-77 3809,-77 3809,-9 3722,-9"/>
<text text-anchor="middle" x="3765.5" y="-66.6" font-family="Times,serif" font-size="8.00">word: sitting</text>
<polyline fill="none" stroke="black" points="3722,-60 3809,-60 "/>
<text text-anchor="middle" x="3765.5" y="-49.6" font-family="Times,serif" font-size="8.00">size: 1</text>
<polyline fill="none" stroke="black" points="3722,-43 3809,-43 "/>
<text text-anchor="middle" x="3765.5" y="-32.6" font-family="Times,serif" font-size="8.00">next: 0x60000073ffc0</text>
<polyline fill="none" stroke="black" points="3722,-26 3809,-26 "/>
<text text-anchor="middle" x="3765.5" y="-15.6" font-family="Times,serif" font-size="8.00">prev: 0x60000073f9c0</text>
</g>
<!-- Node0x60000073f9c0&#45;&gt;Node0x60000073fa80 -->
<g id="edge30" class="edge">
<title>Node0x60000073f9c0:n&#45;&gt;Node0x60000073fa80:n</title>
<path fill="none" stroke="red" d="M3686,-34C3698,-34 3703.25,-34 3711.88,-34"/>
<polygon fill="red" stroke="red" points="3712,-37.5 3722,-34 3712,-30.5 3712,-37.5"/>
</g>
<!-- Node0x60000073ffc0 -->
<g id="node32" class="node">
<title>Node0x60000073ffc0</title>
<polygon fill="none" stroke="black" points="3845,-9 3845,-77 3932,-77 3932,-9 3845,-9"/>
<text text-anchor="middle" x="3888.5" y="-66.6" font-family="Times,serif" font-size="8.00">word: wicked</text>
<polyline fill="none" stroke="black" points="3845,-60 3932,-60 "/>
<text text-anchor="middle" x="3888.5" y="-49.6" font-family="Times,serif" font-size="8.00">size: 1</text>
<polyline fill="none" stroke="black" points="3845,-43 3932,-43 "/>
<text text-anchor="middle" x="3888.5" y="-32.6" font-family="Times,serif" font-size="8.00">next: 0x600000720db0</text>
<polyline fill="none" stroke="black" points="3845,-26 3932,-26 "/>
<text text-anchor="middle" x="3888.5" y="-15.6" font-family="Times,serif" font-size="8.00">prev: 0x60000073fa80</text>
</g>
<!-- Node0x60000073fa80&#45;&gt;Node0x60000073ffc0 -->
<g id="edge31" class="edge">
<title>Node0x60000073fa80:n&#45;&gt;Node0x60000073ffc0:n</title>
<path fill="none" stroke="red" d="M3809,-34C3821,-34 3826.25,-34 3834.88,-34"/>
<polygon fill="red" stroke="red" points="3835,-37.5 3845,-34 3835,-30.5 3835,-37.5"/>
</g>
<!-- Node0x600000720db0 -->
<g id="node33" class="node">
<title>Node0x600000720db0</title>
<polygon fill="none" stroke="black" points="3968,-9 3968,-77 4054,-77 4054,-9 3968,-9"/>
<text text-anchor="middle" x="4011" y="-66.6" font-family="Times,serif" font-size="8.00">word: supple</text>
<polyline fill="none" stroke="black" points="3968,-60 4054,-60 "/>
<text text-anchor="middle" x="4011" y="-49.6" font-family="Times,serif" font-size="8.00">size: 1</text>
<polyline fill="none" stroke="black" points="3968,-43 4054,-43 "/>
<text text-anchor="middle" x="4011" y="-32.6" font-family="Times,serif" font-size="8.00">next: 0x600000726f70</text>
<polyline fill="none" stroke="black" points="3968,-26 4054,-26 "/>
<text text-anchor="middle" x="4011" y="-15.6" font-family="Times,serif" font-size="8.00">prev: 0x60000073ffc0</text>
</g>
<!-- Node0x60000073ffc0&#45;&gt;Node0x600000720db0 -->
<g id="edge32" class="edge">
<title>Node0x60000073ffc0:n&#45;&gt;Node0x600000720db0:n</title>
<path fill="none" stroke="red" d="M3932,-34C3944,-34 3949.25,-34 3957.88,-34"/>
<polygon fill="red" stroke="red" points="3958,-37.5 3968,-34 3958,-30.5 3958,-37.5"/>
</g>
<!-- Node0x600000726f70 -->
<g id="node34" class="node">
<title>Node0x600000726f70</title>
<polygon fill="none" stroke="black" points="4090,-9 4090,-77 4178,-77 4178,-9 4090,-9"/>
<text text-anchor="middle" x="4134" y="-66.6" font-family="Times,serif" font-size="8.00">word: clear</text>
<polyline fill="none" stroke="black" points="4090,-60 4178,-60 "/>
<text text-anchor="middle" x="4134" y="-49.6" font-family="Times,serif" font-size="8.00">size: 1</text>
<polyline fill="none" stroke="black" points="4090,-43 4178,-43 "/>
<text text-anchor="middle" x="4134" y="-32.6" font-family="Times,serif" font-size="8.00">next: 0x0</text>
<polyline fill="none" stroke="black" points="4090,-26 4178,-26 "/>
<text text-anchor="middle" x="4134" y="-15.6" font-family="Times,serif" font-size="8.00">prev: 0x600000720db0</text>
</g>
<!-- Node0x600000720db0&#45;&gt;Node0x600000726f70 -->
<g id="edge33" class="edge">
<title>Node0x600000720db0:n&#45;&gt;Node0x600000726f70:n</title>
<path fill="none" stroke="red" d="M4054,-34C4066,-34 4071.25,-34 4079.88,-34"/>
<polygon fill="red" stroke="red" points="4080,-37.5 4090,-34 4080,-30.5 4080,-37.5"/>
</g>
</g>
</svg>
