<?xml version="1.0" encoding="UTF-8" standalone="no"?>
<!DOCTYPE svg PUBLIC "-//W3C//DTD SVG 1.1//EN"
 "http://www.w3.org/Graphics/SVG/1.1/DTD/svg11.dtd">
<!-- Generated by graphviz version 2.50.0 (20211204.2007)
 -->
<!-- Title: G Pages: 1 -->
<svg width="3582pt" height="117pt"
 viewBox="0.00 0.00 3582.00 117.00" xmlns="http://www.w3.org/2000/svg" xmlns:xlink="http://www.w3.org/1999/xlink">
<g id="graph0" class="graph" transform="scale(1 1) rotate(0) translate(4 113)">
<title>G</title>
<polygon fill="white" stroke="transparent" points="-4,4 -4,-113 3578,-113 3578,4 -4,4"/>
<g id="clust3" class="cluster">
<title>cluster2366</title>
<polygon fill="none" stroke="black" points="255,-8 255,-101 343,-101 343,-8 255,-8"/>
<text text-anchor="middle" x="299" y="-85.8" font-family="Times,serif" font-size="14.00">2366</text>
</g>
<g id="clust1" class="cluster">
<title>cluster2364</title>
<polygon fill="none" stroke="black" points="8,-8 8,-101 95,-101 95,-8 8,-8"/>
<text text-anchor="middle" x="51.5" y="-85.8" font-family="Times,serif" font-size="14.00">2364</text>
</g>
<g id="clust2" class="cluster">
<title>cluster2365</title>
<polygon fill="none" stroke="black" points="131,-8 131,-101 219,-101 219,-8 131,-8"/>
<text text-anchor="middle" x="175" y="-85.8" font-family="Times,serif" font-size="14.00">2365</text>
</g>
<g id="clust4" class="cluster">
<title>cluster2367</title>
<polygon fill="none" stroke="black" points="379,-8 379,-101 467,-101 467,-8 379,-8"/>
<text text-anchor="middle" x="423" y="-85.8" font-family="Times,serif" font-size="14.00">2367</text>
</g>
<g id="clust5" class="cluster">
<title>cluster2368</title>
<polygon fill="none" stroke="black" points="503,-8 503,-101 591,-101 591,-8 503,-8"/>
<text text-anchor="middle" x="547" y="-85.8" font-family="Times,serif" font-size="14.00">2368</text>
</g>
<g id="clust6" class="cluster">
<title>cluster2369</title>
<polygon fill="none" stroke="black" points="627,-8 627,-101 715,-101 715,-8 627,-8"/>
<text text-anchor="middle" x="671" y="-85.8" font-family="Times,serif" font-size="14.00">2369</text>
</g>
<g id="clust7" class="cluster">
<title>cluster2370</title>
<polygon fill="none" stroke="black" points="751,-8 751,-101 839,-101 839,-8 751,-8"/>
<text text-anchor="middle" x="795" y="-85.8" font-family="Times,serif" font-size="14.00">2370</text>
</g>
<g id="clust8" class="cluster">
<title>cluster2371</title>
<polygon fill="none" stroke="black" points="875,-8 875,-101 963,-101 963,-8 875,-8"/>
<text text-anchor="middle" x="919" y="-85.8" font-family="Times,serif" font-size="14.00">2371</text>
</g>
<g id="clust9" class="cluster">
<title>cluster2372</title>
<polygon fill="none" stroke="black" points="999,-8 999,-101 1087,-101 1087,-8 999,-8"/>
<text text-anchor="middle" x="1043" y="-85.8" font-family="Times,serif" font-size="14.00">2372</text>
</g>
<g id="clust10" class="cluster">
<title>cluster2373</title>
<polygon fill="none" stroke="black" points="1123,-8 1123,-101 1211,-101 1211,-8 1123,-8"/>
<text text-anchor="middle" x="1167" y="-85.8" font-family="Times,serif" font-size="14.00">2373</text>
</g>
<g id="clust11" class="cluster">
<title>cluster2374</title>
<polygon fill="none" stroke="black" points="1247,-8 1247,-101 1335,-101 1335,-8 1247,-8"/>
<text text-anchor="middle" x="1291" y="-85.8" font-family="Times,serif" font-size="14.00">2374</text>
</g>
<g id="clust12" class="cluster">
<title>cluster2375</title>
<polygon fill="none" stroke="black" points="1371,-8 1371,-101 1459,-101 1459,-8 1371,-8"/>
<text text-anchor="middle" x="1415" y="-85.8" font-family="Times,serif" font-size="14.00">2375</text>
</g>
<g id="clust13" class="cluster">
<title>cluster2376</title>
<polygon fill="none" stroke="black" points="1495,-8 1495,-101 1583,-101 1583,-8 1495,-8"/>
<text text-anchor="middle" x="1539" y="-85.8" font-family="Times,serif" font-size="14.00">2376</text>
</g>
<g id="clust14" class="cluster">
<title>cluster2377</title>
<polygon fill="none" stroke="black" points="1619,-8 1619,-101 1707,-101 1707,-8 1619,-8"/>
<text text-anchor="middle" x="1663" y="-85.8" font-family="Times,serif" font-size="14.00">2377</text>
</g>
<g id="clust15" class="cluster">
<title>cluster2378</title>
<polygon fill="none" stroke="black" points="1743,-8 1743,-101 1831,-101 1831,-8 1743,-8"/>
<text text-anchor="middle" x="1787" y="-85.8" font-family="Times,serif" font-size="14.00">2378</text>
</g>
<g id="clust16" class="cluster">
<title>cluster2379</title>
<polygon fill="none" stroke="black" points="1867,-8 1867,-101 1955,-101 1955,-8 1867,-8"/>
<text text-anchor="middle" x="1911" y="-85.8" font-family="Times,serif" font-size="14.00">2379</text>
</g>
<g id="clust17" class="cluster">
<title>cluster2380</title>
<polygon fill="none" stroke="black" points="1991,-8 1991,-101 2079,-101 2079,-8 1991,-8"/>
<text text-anchor="middle" x="2035" y="-85.8" font-family="Times,serif" font-size="14.00">2380</text>
</g>
<g id="clust18" class="cluster">
<title>cluster2381</title>
<polygon fill="none" stroke="black" points="2115,-8 2115,-101 2203,-101 2203,-8 2115,-8"/>
<text text-anchor="middle" x="2159" y="-85.8" font-family="Times,serif" font-size="14.00">2381</text>
</g>
<g id="clust19" class="cluster">
<title>cluster2382</title>
<polygon fill="none" stroke="black" points="2239,-8 2239,-101 2327,-101 2327,-8 2239,-8"/>
<text text-anchor="middle" x="2283" y="-85.8" font-family="Times,serif" font-size="14.00">2382</text>
</g>
<g id="clust20" class="cluster">
<title>cluster2383</title>
<polygon fill="none" stroke="black" points="2363,-8 2363,-101 2451,-101 2451,-8 2363,-8"/>
<text text-anchor="middle" x="2407" y="-85.8" font-family="Times,serif" font-size="14.00">2383</text>
</g>
<g id="clust21" class="cluster">
<title>cluster2384</title>
<polygon fill="none" stroke="black" points="2487,-8 2487,-101 2575,-101 2575,-8 2487,-8"/>
<text text-anchor="middle" x="2531" y="-85.8" font-family="Times,serif" font-size="14.00">2384</text>
</g>
<g id="clust22" class="cluster">
<title>cluster2385</title>
<polygon fill="none" stroke="black" points="2611,-8 2611,-101 2699,-101 2699,-8 2611,-8"/>
<text text-anchor="middle" x="2655" y="-85.8" font-family="Times,serif" font-size="14.00">2385</text>
</g>
<g id="clust23" class="cluster">
<title>cluster2386</title>
<polygon fill="none" stroke="black" points="2735,-8 2735,-101 2823,-101 2823,-8 2735,-8"/>
<text text-anchor="middle" x="2779" y="-85.8" font-family="Times,serif" font-size="14.00">2386</text>
</g>
<g id="clust24" class="cluster">
<title>cluster2387</title>
<polygon fill="none" stroke="black" points="2859,-8 2859,-101 2947,-101 2947,-8 2859,-8"/>
<text text-anchor="middle" x="2903" y="-85.8" font-family="Times,serif" font-size="14.00">2387</text>
</g>
<g id="clust25" class="cluster">
<title>cluster2388</title>
<polygon fill="none" stroke="black" points="2983,-8 2983,-101 3071,-101 3071,-8 2983,-8"/>
<text text-anchor="middle" x="3027" y="-85.8" font-family="Times,serif" font-size="14.00">2388</text>
</g>
<g id="clust26" class="cluster">
<title>cluster2389</title>
<polygon fill="none" stroke="black" points="3107,-8 3107,-101 3195,-101 3195,-8 3107,-8"/>
<text text-anchor="middle" x="3151" y="-85.8" font-family="Times,serif" font-size="14.00">2389</text>
</g>
<g id="clust27" class="cluster">
<title>cluster2390</title>
<polygon fill="none" stroke="black" points="3231,-8 3231,-101 3319,-101 3319,-8 3231,-8"/>
<text text-anchor="middle" x="3275" y="-85.8" font-family="Times,serif" font-size="14.00">2390</text>
</g>
<g id="clust28" class="cluster">
<title>cluster2391</title>
<polygon fill="none" stroke="black" points="3355,-8 3355,-101 3443,-101 3443,-8 3355,-8"/>
<text text-anchor="middle" x="3399" y="-85.8" font-family="Times,serif" font-size="14.00">2391</text>
</g>
<g id="clust29" class="cluster">
<title>cluster2392</title>
<polygon fill="none" stroke="black" points="3479,-8 3479,-101 3566,-101 3566,-8 3479,-8"/>
<text text-anchor="middle" x="3522.5" y="-85.8" font-family="Times,serif" font-size="14.00">2392</text>
</g>
<!-- Node0x600001e62d30 -->
<g id="node1" class="node">
<title>Node0x600001e62d30</title>
<polygon fill="none" stroke="black" points="8,-9 8,-77 95,-77 95,-9 8,-9"/>
<text text-anchor="middle" x="51.5" y="-66.6" font-family="Times,serif" font-size="8.00">word: man</text>
<polyline fill="none" stroke="black" points="8,-60 95,-60 "/>
<text text-anchor="middle" x="51.5" y="-49.6" font-family="Times,serif" font-size="8.00">size: 71</text>
<polyline fill="none" stroke="black" points="8,-43 95,-43 "/>
<text text-anchor="middle" x="51.5" y="-32.6" font-family="Times,serif" font-size="8.00">next: 0x600001e6aa90</text>
<polyline fill="none" stroke="black" points="8,-26 95,-26 "/>
<text text-anchor="middle" x="51.5" y="-15.6" font-family="Times,serif" font-size="8.00">prev: 0x0</text>
</g>
<!-- Node0x600001e6aa90 -->
<g id="node2" class="node">
<title>Node0x600001e6aa90</title>
<polygon fill="none" stroke="black" points="131,-9 131,-77 219,-77 219,-9 131,-9"/>
<text text-anchor="middle" x="175" y="-66.6" font-family="Times,serif" font-size="8.00">word: So</text>
<polyline fill="none" stroke="black" points="131,-60 219,-60 "/>
<text text-anchor="middle" x="175" y="-49.6" font-family="Times,serif" font-size="8.00">size: 28</text>
<polyline fill="none" stroke="black" points="131,-43 219,-43 "/>
<text text-anchor="middle" x="175" y="-32.6" font-family="Times,serif" font-size="8.00">next: 0x600001e6b090</text>
<polyline fill="none" stroke="black" points="131,-26 219,-26 "/>
<text text-anchor="middle" x="175" y="-15.6" font-family="Times,serif" font-size="8.00">prev: 0x600001e62d30</text>
</g>
<!-- Node0x600001e62d30&#45;&gt;Node0x600001e6aa90 -->
<g id="edge1" class="edge">
<title>Node0x600001e62d30:n&#45;&gt;Node0x600001e6aa90:n</title>
<path fill="none" stroke="red" d="M95,-34C107,-34 112.25,-34 120.88,-34"/>
<polygon fill="red" stroke="red" points="121,-37.5 131,-34 121,-30.5 121,-37.5"/>
</g>
<!-- Node0x600001e6b090 -->
<g id="node3" class="node">
<title>Node0x600001e6b090</title>
<polygon fill="none" stroke="black" points="255,-9 255,-77 343,-77 343,-9 255,-9"/>
<text text-anchor="middle" x="299" y="-66.6" font-family="Times,serif" font-size="8.00">word: seen</text>
<polyline fill="none" stroke="black" points="255,-60 343,-60 "/>
<text text-anchor="middle" x="299" y="-49.6" font-family="Times,serif" font-size="8.00">size: 6</text>
<polyline fill="none" stroke="black" points="255,-43 343,-43 "/>
<text text-anchor="middle" x="299" y="-32.6" font-family="Times,serif" font-size="8.00">next: 0x600001e6b450</text>
<polyline fill="none" stroke="black" points="255,-26 343,-26 "/>
<text text-anchor="middle" x="299" y="-15.6" font-family="Times,serif" font-size="8.00">prev: 0x600001e6aa90</text>
</g>
<!-- Node0x600001e6aa90&#45;&gt;Node0x600001e6b090 -->
<g id="edge2" class="edge">
<title>Node0x600001e6aa90:n&#45;&gt;Node0x600001e6b090:n</title>
<path fill="none" stroke="red" d="M219,-34C231,-34 236.25,-34 244.88,-34"/>
<polygon fill="red" stroke="red" points="245,-37.5 255,-34 245,-30.5 245,-37.5"/>
</g>
<!-- Node0x600001e6b450 -->
<g id="node4" class="node">
<title>Node0x600001e6b450</title>
<polygon fill="none" stroke="black" points="379,-9 379,-77 467,-77 467,-9 379,-9"/>
<text text-anchor="middle" x="423" y="-66.6" font-family="Times,serif" font-size="8.00">word: light</text>
<polyline fill="none" stroke="black" points="379,-60 467,-60 "/>
<text text-anchor="middle" x="423" y="-49.6" font-family="Times,serif" font-size="8.00">size: 28</text>
<polyline fill="none" stroke="black" points="379,-43 467,-43 "/>
<text text-anchor="middle" x="423" y="-32.6" font-family="Times,serif" font-size="8.00">next: 0x600001e6c120</text>
<polyline fill="none" stroke="black" points="379,-26 467,-26 "/>
<text text-anchor="middle" x="423" y="-15.6" font-family="Times,serif" font-size="8.00">prev: 0x600001e6b090</text>
</g>
<!-- Node0x600001e6b090&#45;&gt;Node0x600001e6b450 -->
<g id="edge3" class="edge">
<title>Node0x600001e6b090:n&#45;&gt;Node0x600001e6b450:n</title>
<path fill="none" stroke="red" d="M343,-34C355,-34 360.25,-34 368.88,-34"/>
<polygon fill="red" stroke="red" points="369,-37.5 379,-34 369,-30.5 369,-37.5"/>
</g>
<!-- Node0x600001e6c120 -->
<g id="node5" class="node">
<title>Node0x600001e6c120</title>
<polygon fill="none" stroke="black" points="503,-9 503,-77 591,-77 591,-9 503,-9"/>
<text text-anchor="middle" x="547" y="-66.6" font-family="Times,serif" font-size="8.00">word: Good</text>
<polyline fill="none" stroke="black" points="503,-60 591,-60 "/>
<text text-anchor="middle" x="547" y="-49.6" font-family="Times,serif" font-size="8.00">size: 22</text>
<polyline fill="none" stroke="black" points="503,-43 591,-43 "/>
<text text-anchor="middle" x="547" y="-32.6" font-family="Times,serif" font-size="8.00">next: 0x600001e6d650</text>
<polyline fill="none" stroke="black" points="503,-26 591,-26 "/>
<text text-anchor="middle" x="547" y="-15.6" font-family="Times,serif" font-size="8.00">prev: 0x600001e6b450</text>
</g>
<!-- Node0x600001e6b450&#45;&gt;Node0x600001e6c120 -->
<g id="edge4" class="edge">
<title>Node0x600001e6b450:n&#45;&gt;Node0x600001e6c120:n</title>
<path fill="none" stroke="red" d="M467,-34C479,-34 484.25,-34 492.88,-34"/>
<polygon fill="red" stroke="red" points="493,-37.5 503,-34 493,-30.5 493,-37.5"/>
</g>
<!-- Node0x600001e6d650 -->
<g id="node6" class="node">
<title>Node0x600001e6d650</title>
<polygon fill="none" stroke="black" points="627,-9 627,-77 715,-77 715,-9 627,-9"/>
<text text-anchor="middle" x="671" y="-66.6" font-family="Times,serif" font-size="8.00">word: woman</text>
<polyline fill="none" stroke="black" points="627,-60 715,-60 "/>
<text text-anchor="middle" x="671" y="-49.6" font-family="Times,serif" font-size="8.00">size: 3</text>
<polyline fill="none" stroke="black" points="627,-43 715,-43 "/>
<text text-anchor="middle" x="671" y="-32.6" font-family="Times,serif" font-size="8.00">next: 0x600001e653b0</text>
<polyline fill="none" stroke="black" points="627,-26 715,-26 "/>
<text text-anchor="middle" x="671" y="-15.6" font-family="Times,serif" font-size="8.00">prev: 0x600001e6c120</text>
</g>
<!-- Node0x600001e6c120&#45;&gt;Node0x600001e6d650 -->
<g id="edge5" class="edge">
<title>Node0x600001e6c120:n&#45;&gt;Node0x600001e6d650:n</title>
<path fill="none" stroke="red" d="M591,-34C603,-34 608.25,-34 616.88,-34"/>
<polygon fill="red" stroke="red" points="617,-37.5 627,-34 617,-30.5 617,-37.5"/>
</g>
<!-- Node0x600001e653b0 -->
<g id="node7" class="node">
<title>Node0x600001e653b0</title>
<polygon fill="none" stroke="black" points="751,-9 751,-77 839,-77 839,-9 751,-9"/>
<text text-anchor="middle" x="795" y="-66.6" font-family="Times,serif" font-size="8.00">word: waddled</text>
<polyline fill="none" stroke="black" points="751,-60 839,-60 "/>
<text text-anchor="middle" x="795" y="-49.6" font-family="Times,serif" font-size="8.00">size: 1</text>
<polyline fill="none" stroke="black" points="751,-43 839,-43 "/>
<text text-anchor="middle" x="795" y="-32.6" font-family="Times,serif" font-size="8.00">next: 0x600001e665e0</text>
<polyline fill="none" stroke="black" points="751,-26 839,-26 "/>
<text text-anchor="middle" x="795" y="-15.6" font-family="Times,serif" font-size="8.00">prev: 0x600001e6d650</text>
</g>
<!-- Node0x600001e6d650&#45;&gt;Node0x600001e653b0 -->
<g id="edge6" class="edge">
<title>Node0x600001e6d650:n&#45;&gt;Node0x600001e653b0:n</title>
<path fill="none" stroke="red" d="M715,-34C727,-34 732.25,-34 740.88,-34"/>
<polygon fill="red" stroke="red" points="741,-37.5 751,-34 741,-30.5 741,-37.5"/>
</g>
<!-- Node0x600001e665e0 -->
<g id="node8" class="node">
<title>Node0x600001e665e0</title>
<polygon fill="none" stroke="black" points="875,-9 875,-77 963,-77 963,-9 875,-9"/>
<text text-anchor="middle" x="919" y="-66.6" font-family="Times,serif" font-size="8.00">word: gives</text>
<polyline fill="none" stroke="black" points="875,-60 963,-60 "/>
<text text-anchor="middle" x="919" y="-49.6" font-family="Times,serif" font-size="8.00">size: 5</text>
<polyline fill="none" stroke="black" points="875,-43 963,-43 "/>
<text text-anchor="middle" x="919" y="-32.6" font-family="Times,serif" font-size="8.00">next: 0x600001e74d80</text>
<polyline fill="none" stroke="black" points="875,-26 963,-26 "/>
<text text-anchor="middle" x="919" y="-15.6" font-family="Times,serif" font-size="8.00">prev: 0x600001e653b0</text>
</g>
<!-- Node0x600001e653b0&#45;&gt;Node0x600001e665e0 -->
<g id="edge7" class="edge">
<title>Node0x600001e653b0:n&#45;&gt;Node0x600001e665e0:n</title>
<path fill="none" stroke="red" d="M839,-34C851,-34 856.25,-34 864.88,-34"/>
<polygon fill="red" stroke="red" points="865,-37.5 875,-34 865,-30.5 865,-37.5"/>
</g>
<!-- Node0x600001e74d80 -->
<g id="node9" class="node">
<title>Node0x600001e74d80</title>
<polygon fill="none" stroke="black" points="999,-9 999,-77 1087,-77 1087,-9 999,-9"/>
<text text-anchor="middle" x="1043" y="-66.6" font-family="Times,serif" font-size="8.00">word: breaches</text>
<polyline fill="none" stroke="black" points="999,-60 1087,-60 "/>
<text text-anchor="middle" x="1043" y="-49.6" font-family="Times,serif" font-size="8.00">size: 1</text>
<polyline fill="none" stroke="black" points="999,-43 1087,-43 "/>
<text text-anchor="middle" x="1043" y="-32.6" font-family="Times,serif" font-size="8.00">next: 0x600001e75260</text>
<polyline fill="none" stroke="black" points="999,-26 1087,-26 "/>
<text text-anchor="middle" x="1043" y="-15.6" font-family="Times,serif" font-size="8.00">prev: 0x600001e665e0</text>
</g>
<!-- Node0x600001e665e0&#45;&gt;Node0x600001e74d80 -->
<g id="edge8" class="edge">
<title>Node0x600001e665e0:n&#45;&gt;Node0x600001e74d80:n</title>
<path fill="none" stroke="red" d="M963,-34C975,-34 980.25,-34 988.88,-34"/>
<polygon fill="red" stroke="red" points="989,-37.5 999,-34 989,-30.5 989,-37.5"/>
</g>
<!-- Node0x600001e75260 -->
<g id="node10" class="node">
<title>Node0x600001e75260</title>
<polygon fill="none" stroke="black" points="1123,-9 1123,-77 1211,-77 1211,-9 1123,-9"/>
<text text-anchor="middle" x="1167" y="-66.6" font-family="Times,serif" font-size="8.00">word: bodes</text>
<polyline fill="none" stroke="black" points="1123,-60 1211,-60 "/>
<text text-anchor="middle" x="1167" y="-49.6" font-family="Times,serif" font-size="8.00">size: 1</text>
<polyline fill="none" stroke="black" points="1123,-43 1211,-43 "/>
<text text-anchor="middle" x="1167" y="-32.6" font-family="Times,serif" font-size="8.00">next: 0x600001e76970</text>
<polyline fill="none" stroke="black" points="1123,-26 1211,-26 "/>
<text text-anchor="middle" x="1167" y="-15.6" font-family="Times,serif" font-size="8.00">prev: 0x600001e74d80</text>
</g>
<!-- Node0x600001e74d80&#45;&gt;Node0x600001e75260 -->
<g id="edge9" class="edge">
<title>Node0x600001e74d80:n&#45;&gt;Node0x600001e75260:n</title>
<path fill="none" stroke="red" d="M1087,-34C1099,-34 1104.25,-34 1112.88,-34"/>
<polygon fill="red" stroke="red" points="1113,-37.5 1123,-34 1113,-30.5 1113,-37.5"/>
</g>
<!-- Node0x600001e76970 -->
<g id="node11" class="node">
<title>Node0x600001e76970</title>
<polygon fill="none" stroke="black" points="1247,-9 1247,-77 1335,-77 1335,-9 1247,-9"/>
<text text-anchor="middle" x="1291" y="-66.6" font-family="Times,serif" font-size="8.00">word: jewel</text>
<polyline fill="none" stroke="black" points="1247,-60 1335,-60 "/>
<text text-anchor="middle" x="1291" y="-49.6" font-family="Times,serif" font-size="8.00">size: 1</text>
<polyline fill="none" stroke="black" points="1247,-43 1335,-43 "/>
<text text-anchor="middle" x="1291" y="-32.6" font-family="Times,serif" font-size="8.00">next: 0x600001e77030</text>
<polyline fill="none" stroke="black" points="1247,-26 1335,-26 "/>
<text text-anchor="middle" x="1291" y="-15.6" font-family="Times,serif" font-size="8.00">prev: 0x600001e75260</text>
</g>
<!-- Node0x600001e75260&#45;&gt;Node0x600001e76970 -->
<g id="edge10" class="edge">
<title>Node0x600001e75260:n&#45;&gt;Node0x600001e76970:n</title>
<path fill="none" stroke="red" d="M1211,-34C1223,-34 1228.25,-34 1236.88,-34"/>
<polygon fill="red" stroke="red" points="1237,-37.5 1247,-34 1237,-30.5 1237,-37.5"/>
</g>
<!-- Node0x600001e77030 -->
<g id="node12" class="node">
<title>Node0x600001e77030</title>
<polygon fill="none" stroke="black" points="1371,-9 1371,-77 1459,-77 1459,-9 1371,-9"/>
<text text-anchor="middle" x="1415" y="-66.6" font-family="Times,serif" font-size="8.00">word: virtuous</text>
<polyline fill="none" stroke="black" points="1371,-60 1459,-60 "/>
<text text-anchor="middle" x="1415" y="-49.6" font-family="Times,serif" font-size="8.00">size: 3</text>
<polyline fill="none" stroke="black" points="1371,-43 1459,-43 "/>
<text text-anchor="middle" x="1415" y="-32.6" font-family="Times,serif" font-size="8.00">next: 0x600001e7cc60</text>
<polyline fill="none" stroke="black" points="1371,-26 1459,-26 "/>
<text text-anchor="middle" x="1415" y="-15.6" font-family="Times,serif" font-size="8.00">prev: 0x600001e76970</text>
</g>
<!-- Node0x600001e76970&#45;&gt;Node0x600001e77030 -->
<g id="edge11" class="edge">
<title>Node0x600001e76970:n&#45;&gt;Node0x600001e77030:n</title>
<path fill="none" stroke="red" d="M1335,-34C1347,-34 1352.25,-34 1360.88,-34"/>
<polygon fill="red" stroke="red" points="1361,-37.5 1371,-34 1361,-30.5 1361,-37.5"/>
</g>
<!-- Node0x600001e7cc60 -->
<g id="node13" class="node">
<title>Node0x600001e7cc60</title>
<polygon fill="none" stroke="black" points="1495,-9 1495,-77 1583,-77 1583,-9 1495,-9"/>
<text text-anchor="middle" x="1539" y="-66.6" font-family="Times,serif" font-size="8.00">word: wear</text>
<polyline fill="none" stroke="black" points="1495,-60 1583,-60 "/>
<text text-anchor="middle" x="1539" y="-49.6" font-family="Times,serif" font-size="8.00">size: 4</text>
<polyline fill="none" stroke="black" points="1495,-43 1583,-43 "/>
<text text-anchor="middle" x="1539" y="-32.6" font-family="Times,serif" font-size="8.00">next: 0x600001e7d0e0</text>
<polyline fill="none" stroke="black" points="1495,-26 1583,-26 "/>
<text text-anchor="middle" x="1539" y="-15.6" font-family="Times,serif" font-size="8.00">prev: 0x600001e77030</text>
</g>
<!-- Node0x600001e77030&#45;&gt;Node0x600001e7cc60 -->
<g id="edge12" class="edge">
<title>Node0x600001e77030:n&#45;&gt;Node0x600001e7cc60:n</title>
<path fill="none" stroke="red" d="M1459,-34C1471,-34 1476.25,-34 1484.88,-34"/>
<polygon fill="red" stroke="red" points="1485,-37.5 1495,-34 1485,-30.5 1485,-37.5"/>
</g>
<!-- Node0x600001e7d0e0 -->
<g id="node14" class="node">
<title>Node0x600001e7d0e0</title>
<polygon fill="none" stroke="black" points="1619,-9 1619,-77 1707,-77 1707,-9 1619,-9"/>
<text text-anchor="middle" x="1663" y="-66.6" font-family="Times,serif" font-size="8.00">word: angel</text>
<polyline fill="none" stroke="black" points="1619,-60 1707,-60 "/>
<text text-anchor="middle" x="1663" y="-49.6" font-family="Times,serif" font-size="8.00">size: 1</text>
<polyline fill="none" stroke="black" points="1619,-43 1707,-43 "/>
<text text-anchor="middle" x="1663" y="-32.6" font-family="Times,serif" font-size="8.00">next: 0x600001e7d4d0</text>
<polyline fill="none" stroke="black" points="1619,-26 1707,-26 "/>
<text text-anchor="middle" x="1663" y="-15.6" font-family="Times,serif" font-size="8.00">prev: 0x600001e7cc60</text>
</g>
<!-- Node0x600001e7cc60&#45;&gt;Node0x600001e7d0e0 -->
<g id="edge13" class="edge">
<title>Node0x600001e7cc60:n&#45;&gt;Node0x600001e7d0e0:n</title>
<path fill="none" stroke="red" d="M1583,-34C1595,-34 1600.25,-34 1608.88,-34"/>
<polygon fill="red" stroke="red" points="1609,-37.5 1619,-34 1609,-30.5 1609,-37.5"/>
</g>
<!-- Node0x600001e7d4d0 -->
<g id="node15" class="node">
<title>Node0x600001e7d4d0</title>
<polygon fill="none" stroke="black" points="1743,-9 1743,-77 1831,-77 1831,-9 1743,-9"/>
<text text-anchor="middle" x="1787" y="-66.6" font-family="Times,serif" font-size="8.00">word: Retain</text>
<polyline fill="none" stroke="black" points="1743,-60 1831,-60 "/>
<text text-anchor="middle" x="1787" y="-49.6" font-family="Times,serif" font-size="8.00">size: 1</text>
<polyline fill="none" stroke="black" points="1743,-43 1831,-43 "/>
<text text-anchor="middle" x="1787" y="-32.6" font-family="Times,serif" font-size="8.00">next: 0x600001e40a50</text>
<polyline fill="none" stroke="black" points="1743,-26 1831,-26 "/>
<text text-anchor="middle" x="1787" y="-15.6" font-family="Times,serif" font-size="8.00">prev: 0x600001e7d0e0</text>
</g>
<!-- Node0x600001e7d0e0&#45;&gt;Node0x600001e7d4d0 -->
<g id="edge14" class="edge">
<title>Node0x600001e7d0e0:n&#45;&gt;Node0x600001e7d4d0:n</title>
<path fill="none" stroke="red" d="M1707,-34C1719,-34 1724.25,-34 1732.88,-34"/>
<polygon fill="red" stroke="red" points="1733,-37.5 1743,-34 1733,-30.5 1733,-37.5"/>
</g>
<!-- Node0x600001e40a50 -->
<g id="node16" class="node">
<title>Node0x600001e40a50</title>
<polygon fill="none" stroke="black" points="1867,-9 1867,-77 1955,-77 1955,-9 1867,-9"/>
<text text-anchor="middle" x="1911" y="-66.6" font-family="Times,serif" font-size="8.00">word: lo</text>
<polyline fill="none" stroke="black" points="1867,-60 1955,-60 "/>
<text text-anchor="middle" x="1911" y="-49.6" font-family="Times,serif" font-size="8.00">size: 2</text>
<polyline fill="none" stroke="black" points="1867,-43 1955,-43 "/>
<text text-anchor="middle" x="1911" y="-32.6" font-family="Times,serif" font-size="8.00">next: 0x600001e43e40</text>
<polyline fill="none" stroke="black" points="1867,-26 1955,-26 "/>
<text text-anchor="middle" x="1911" y="-15.6" font-family="Times,serif" font-size="8.00">prev: 0x600001e7d4d0</text>
</g>
<!-- Node0x600001e7d4d0&#45;&gt;Node0x600001e40a50 -->
<g id="edge15" class="edge">
<title>Node0x600001e7d4d0:n&#45;&gt;Node0x600001e40a50:n</title>
<path fill="none" stroke="red" d="M1831,-34C1843,-34 1848.25,-34 1856.88,-34"/>
<polygon fill="red" stroke="red" points="1857,-37.5 1867,-34 1857,-30.5 1857,-37.5"/>
</g>
<!-- Node0x600001e43e40 -->
<g id="node17" class="node">
<title>Node0x600001e43e40</title>
<polygon fill="none" stroke="black" points="1991,-9 1991,-77 2079,-77 2079,-9 1991,-9"/>
<text text-anchor="middle" x="2035" y="-66.6" font-family="Times,serif" font-size="8.00">word: cords</text>
<polyline fill="none" stroke="black" points="1991,-60 2079,-60 "/>
<text text-anchor="middle" x="2035" y="-49.6" font-family="Times,serif" font-size="8.00">size: 6</text>
<polyline fill="none" stroke="black" points="1991,-43 2079,-43 "/>
<text text-anchor="middle" x="2035" y="-32.6" font-family="Times,serif" font-size="8.00">next: 0x600001e45500</text>
<polyline fill="none" stroke="black" points="1991,-26 2079,-26 "/>
<text text-anchor="middle" x="2035" y="-15.6" font-family="Times,serif" font-size="8.00">prev: 0x600001e40a50</text>
</g>
<!-- Node0x600001e40a50&#45;&gt;Node0x600001e43e40 -->
<g id="edge16" class="edge">
<title>Node0x600001e40a50:n&#45;&gt;Node0x600001e43e40:n</title>
<path fill="none" stroke="red" d="M1955,-34C1967,-34 1972.25,-34 1980.88,-34"/>
<polygon fill="red" stroke="red" points="1981,-37.5 1991,-34 1981,-30.5 1981,-37.5"/>
</g>
<!-- Node0x600001e45500 -->
<g id="node18" class="node">
<title>Node0x600001e45500</title>
<polygon fill="none" stroke="black" points="2115,-9 2115,-77 2203,-77 2203,-9 2115,-9"/>
<text text-anchor="middle" x="2159" y="-66.6" font-family="Times,serif" font-size="8.00">word: confounds</text>
<polyline fill="none" stroke="black" points="2115,-60 2203,-60 "/>
<text text-anchor="middle" x="2159" y="-49.6" font-family="Times,serif" font-size="8.00">size: 1</text>
<polyline fill="none" stroke="black" points="2115,-43 2203,-43 "/>
<text text-anchor="middle" x="2159" y="-32.6" font-family="Times,serif" font-size="8.00">next: 0x600001e46d60</text>
<polyline fill="none" stroke="black" points="2115,-26 2203,-26 "/>
<text text-anchor="middle" x="2159" y="-15.6" font-family="Times,serif" font-size="8.00">prev: 0x600001e43e40</text>
</g>
<!-- Node0x600001e43e40&#45;&gt;Node0x600001e45500 -->
<g id="edge17" class="edge">
<title>Node0x600001e43e40:n&#45;&gt;Node0x600001e45500:n</title>
<path fill="none" stroke="red" d="M2079,-34C2091,-34 2096.25,-34 2104.88,-34"/>
<polygon fill="red" stroke="red" points="2105,-37.5 2115,-34 2105,-30.5 2105,-37.5"/>
</g>
<!-- Node0x600001e46d60 -->
<g id="node19" class="node">
<title>Node0x600001e46d60</title>
<polygon fill="none" stroke="black" points="2239,-9 2239,-77 2327,-77 2327,-9 2239,-9"/>
<text text-anchor="middle" x="2283" y="-66.6" font-family="Times,serif" font-size="8.00">word: braggart</text>
<polyline fill="none" stroke="black" points="2239,-60 2327,-60 "/>
<text text-anchor="middle" x="2283" y="-49.6" font-family="Times,serif" font-size="8.00">size: 1</text>
<polyline fill="none" stroke="black" points="2239,-43 2327,-43 "/>
<text text-anchor="middle" x="2283" y="-32.6" font-family="Times,serif" font-size="8.00">next: 0x600001e471e0</text>
<polyline fill="none" stroke="black" points="2239,-26 2327,-26 "/>
<text text-anchor="middle" x="2283" y="-15.6" font-family="Times,serif" font-size="8.00">prev: 0x600001e45500</text>
</g>
<!-- Node0x600001e45500&#45;&gt;Node0x600001e46d60 -->
<g id="edge18" class="edge">
<title>Node0x600001e45500:n&#45;&gt;Node0x600001e46d60:n</title>
<path fill="none" stroke="red" d="M2203,-34C2215,-34 2220.25,-34 2228.88,-34"/>
<polygon fill="red" stroke="red" points="2229,-37.5 2239,-34 2229,-30.5 2229,-37.5"/>
</g>
<!-- Node0x600001e471e0 -->
<g id="node20" class="node">
<title>Node0x600001e471e0</title>
<polygon fill="none" stroke="black" points="2363,-9 2363,-77 2451,-77 2451,-9 2363,-9"/>
<text text-anchor="middle" x="2407" y="-66.6" font-family="Times,serif" font-size="8.00">word: slain</text>
<polyline fill="none" stroke="black" points="2363,-60 2451,-60 "/>
<text text-anchor="middle" x="2407" y="-49.6" font-family="Times,serif" font-size="8.00">size: 17</text>
<polyline fill="none" stroke="black" points="2363,-43 2451,-43 "/>
<text text-anchor="middle" x="2407" y="-32.6" font-family="Times,serif" font-size="8.00">next: 0x600001e47510</text>
<polyline fill="none" stroke="black" points="2363,-26 2451,-26 "/>
<text text-anchor="middle" x="2407" y="-15.6" font-family="Times,serif" font-size="8.00">prev: 0x600001e46d60</text>
</g>
<!-- Node0x600001e46d60&#45;&gt;Node0x600001e471e0 -->
<g id="edge19" class="edge">
<title>Node0x600001e46d60:n&#45;&gt;Node0x600001e471e0:n</title>
<path fill="none" stroke="red" d="M2327,-34C2339,-34 2344.25,-34 2352.88,-34"/>
<polygon fill="red" stroke="red" points="2353,-37.5 2363,-34 2353,-30.5 2353,-37.5"/>
</g>
<!-- Node0x600001e47510 -->
<g id="node21" class="node">
<title>Node0x600001e47510</title>
<polygon fill="none" stroke="black" points="2487,-9 2487,-77 2575,-77 2575,-9 2487,-9"/>
<text text-anchor="middle" x="2531" y="-66.6" font-family="Times,serif" font-size="8.00">word: charge</text>
<polyline fill="none" stroke="black" points="2487,-60 2575,-60 "/>
<text text-anchor="middle" x="2531" y="-49.6" font-family="Times,serif" font-size="8.00">size: 3</text>
<polyline fill="none" stroke="black" points="2487,-43 2575,-43 "/>
<text text-anchor="middle" x="2531" y="-32.6" font-family="Times,serif" font-size="8.00">next: 0x600001e47570</text>
<polyline fill="none" stroke="black" points="2487,-26 2575,-26 "/>
<text text-anchor="middle" x="2531" y="-15.6" font-family="Times,serif" font-size="8.00">prev: 0x600001e471e0</text>
</g>
<!-- Node0x600001e471e0&#45;&gt;Node0x600001e47510 -->
<g id="edge20" class="edge">
<title>Node0x600001e471e0:n&#45;&gt;Node0x600001e47510:n</title>
<path fill="none" stroke="red" d="M2451,-34C2463,-34 2468.25,-34 2476.88,-34"/>
<polygon fill="red" stroke="red" points="2477,-37.5 2487,-34 2477,-30.5 2477,-37.5"/>
</g>
<!-- Node0x600001e47570 -->
<g id="node22" class="node">
<title>Node0x600001e47570</title>
<polygon fill="none" stroke="black" points="2611,-9 2611,-77 2699,-77 2699,-9 2611,-9"/>
<text text-anchor="middle" x="2655" y="-66.6" font-family="Times,serif" font-size="8.00">word: PRINCE</text>
<polyline fill="none" stroke="black" points="2611,-60 2699,-60 "/>
<text text-anchor="middle" x="2655" y="-49.6" font-family="Times,serif" font-size="8.00">size: 2</text>
<polyline fill="none" stroke="black" points="2611,-43 2699,-43 "/>
<text text-anchor="middle" x="2655" y="-32.6" font-family="Times,serif" font-size="8.00">next: 0x600001e4c120</text>
<polyline fill="none" stroke="black" points="2611,-26 2699,-26 "/>
<text text-anchor="middle" x="2655" y="-15.6" font-family="Times,serif" font-size="8.00">prev: 0x600001e47510</text>
</g>
<!-- Node0x600001e47510&#45;&gt;Node0x600001e47570 -->
<g id="edge21" class="edge">
<title>Node0x600001e47510:n&#45;&gt;Node0x600001e47570:n</title>
<path fill="none" stroke="red" d="M2575,-34C2587,-34 2592.25,-34 2600.88,-34"/>
<polygon fill="red" stroke="red" points="2601,-37.5 2611,-34 2601,-30.5 2601,-37.5"/>
</g>
<!-- Node0x600001e4c120 -->
<g id="node23" class="node">
<title>Node0x600001e4c120</title>
<polygon fill="none" stroke="black" points="2735,-9 2735,-77 2823,-77 2823,-9 2735,-9"/>
<text text-anchor="middle" x="2779" y="-66.6" font-family="Times,serif" font-size="8.00">word: affray</text>
<polyline fill="none" stroke="black" points="2735,-60 2823,-60 "/>
<text text-anchor="middle" x="2779" y="-49.6" font-family="Times,serif" font-size="8.00">size: 1</text>
<polyline fill="none" stroke="black" points="2735,-43 2823,-43 "/>
<text text-anchor="middle" x="2779" y="-32.6" font-family="Times,serif" font-size="8.00">next: 0x600001e718c0</text>
<polyline fill="none" stroke="black" points="2735,-26 2823,-26 "/>
<text text-anchor="middle" x="2779" y="-15.6" font-family="Times,serif" font-size="8.00">prev: 0x600001e47570</text>
</g>
<!-- Node0x600001e47570&#45;&gt;Node0x600001e4c120 -->
<g id="edge22" class="edge">
<title>Node0x600001e47570:n&#45;&gt;Node0x600001e4c120:n</title>
<path fill="none" stroke="red" d="M2699,-34C2711,-34 2716.25,-34 2724.88,-34"/>
<polygon fill="red" stroke="red" points="2725,-37.5 2735,-34 2725,-30.5 2725,-37.5"/>
</g>
<!-- Node0x600001e718c0 -->
<g id="node24" class="node">
<title>Node0x600001e718c0</title>
<polygon fill="none" stroke="black" points="2859,-9 2859,-77 2947,-77 2947,-9 2859,-9"/>
<text text-anchor="middle" x="2903" y="-66.6" font-family="Times,serif" font-size="8.00">word: wed</text>
<polyline fill="none" stroke="black" points="2859,-60 2947,-60 "/>
<text text-anchor="middle" x="2903" y="-49.6" font-family="Times,serif" font-size="8.00">size: 3</text>
<polyline fill="none" stroke="black" points="2859,-43 2947,-43 "/>
<text text-anchor="middle" x="2903" y="-32.6" font-family="Times,serif" font-size="8.00">next: 0x600001e71ad0</text>
<polyline fill="none" stroke="black" points="2859,-26 2947,-26 "/>
<text text-anchor="middle" x="2903" y="-15.6" font-family="Times,serif" font-size="8.00">prev: 0x600001e4c120</text>
</g>
<!-- Node0x600001e4c120&#45;&gt;Node0x600001e718c0 -->
<g id="edge23" class="edge">
<title>Node0x600001e4c120:n&#45;&gt;Node0x600001e718c0:n</title>
<path fill="none" stroke="red" d="M2823,-34C2835,-34 2840.25,-34 2848.88,-34"/>
<polygon fill="red" stroke="red" points="2849,-37.5 2859,-34 2849,-30.5 2849,-37.5"/>
</g>
<!-- Node0x600001e71ad0 -->
<g id="node25" class="node">
<title>Node0x600001e71ad0</title>
<polygon fill="none" stroke="black" points="2983,-9 2983,-77 3071,-77 3071,-9 2983,-9"/>
<text text-anchor="middle" x="3027" y="-66.6" font-family="Times,serif" font-size="8.00">word: Sailing</text>
<polyline fill="none" stroke="black" points="2983,-60 3071,-60 "/>
<text text-anchor="middle" x="3027" y="-49.6" font-family="Times,serif" font-size="8.00">size: 1</text>
<polyline fill="none" stroke="black" points="2983,-43 3071,-43 "/>
<text text-anchor="middle" x="3027" y="-32.6" font-family="Times,serif" font-size="8.00">next: 0x600001e79410</text>
<polyline fill="none" stroke="black" points="2983,-26 3071,-26 "/>
<text text-anchor="middle" x="3027" y="-15.6" font-family="Times,serif" font-size="8.00">prev: 0x600001e718c0</text>
</g>
<!-- Node0x600001e718c0&#45;&gt;Node0x600001e71ad0 -->
<g id="edge24" class="edge">
<title>Node0x600001e718c0:n&#45;&gt;Node0x600001e71ad0:n</title>
<path fill="none" stroke="red" d="M2947,-34C2959,-34 2964.25,-34 2972.88,-34"/>
<polygon fill="red" stroke="red" points="2973,-37.5 2983,-34 2973,-30.5 2973,-37.5"/>
</g>
<!-- Node0x600001e79410 -->
<g id="node26" class="node">
<title>Node0x600001e79410</title>
<polygon fill="none" stroke="black" points="3107,-9 3107,-77 3195,-77 3195,-9 3107,-9"/>
<text text-anchor="middle" x="3151" y="-66.6" font-family="Times,serif" font-size="8.00">word: chain</text>
<polyline fill="none" stroke="black" points="3107,-60 3195,-60 "/>
<text text-anchor="middle" x="3151" y="-49.6" font-family="Times,serif" font-size="8.00">size: 1</text>
<polyline fill="none" stroke="black" points="3107,-43 3195,-43 "/>
<text text-anchor="middle" x="3151" y="-32.6" font-family="Times,serif" font-size="8.00">next: 0x600001e7a340</text>
<polyline fill="none" stroke="black" points="3107,-26 3195,-26 "/>
<text text-anchor="middle" x="3151" y="-15.6" font-family="Times,serif" font-size="8.00">prev: 0x600001e71ad0</text>
</g>
<!-- Node0x600001e71ad0&#45;&gt;Node0x600001e79410 -->
<g id="edge25" class="edge">
<title>Node0x600001e71ad0:n&#45;&gt;Node0x600001e79410:n</title>
<path fill="none" stroke="red" d="M3071,-34C3083,-34 3088.25,-34 3096.88,-34"/>
<polygon fill="red" stroke="red" points="3097,-37.5 3107,-34 3097,-30.5 3097,-37.5"/>
</g>
<!-- Node0x600001e7a340 -->
<g id="node27" class="node">
<title>Node0x600001e7a340</title>
<polygon fill="none" stroke="black" points="3231,-9 3231,-77 3319,-77 3319,-9 3231,-9"/>
<text text-anchor="middle" x="3275" y="-66.6" font-family="Times,serif" font-size="8.00">word: sort</text>
<polyline fill="none" stroke="black" points="3231,-60 3319,-60 "/>
<text text-anchor="middle" x="3275" y="-49.6" font-family="Times,serif" font-size="8.00">size: 1</text>
<polyline fill="none" stroke="black" points="3231,-43 3319,-43 "/>
<text text-anchor="middle" x="3275" y="-32.6" font-family="Times,serif" font-size="8.00">next: 0x600001e54fc0</text>
<polyline fill="none" stroke="black" points="3231,-26 3319,-26 "/>
<text text-anchor="middle" x="3275" y="-15.6" font-family="Times,serif" font-size="8.00">prev: 0x600001e79410</text>
</g>
<!-- Node0x600001e79410&#45;&gt;Node0x600001e7a340 -->
<g id="edge26" class="edge">
<title>Node0x600001e79410:n&#45;&gt;Node0x600001e7a340:n</title>
<path fill="none" stroke="red" d="M3195,-34C3207,-34 3212.25,-34 3220.88,-34"/>
<polygon fill="red" stroke="red" points="3221,-37.5 3231,-34 3221,-30.5 3221,-37.5"/>
</g>
<!-- Node0x600001e54fc0 -->
<g id="node28" class="node">
<title>Node0x600001e54fc0</title>
<polygon fill="none" stroke="black" points="3355,-9 3355,-77 3443,-77 3443,-9 3355,-9"/>
<text text-anchor="middle" x="3399" y="-66.6" font-family="Times,serif" font-size="8.00">word: lantern</text>
<polyline fill="none" stroke="black" points="3355,-60 3443,-60 "/>
<text text-anchor="middle" x="3399" y="-49.6" font-family="Times,serif" font-size="8.00">size: 1</text>
<polyline fill="none" stroke="black" points="3355,-43 3443,-43 "/>
<text text-anchor="middle" x="3399" y="-32.6" font-family="Times,serif" font-size="8.00">next: 0x600001e55d40</text>
<polyline fill="none" stroke="black" points="3355,-26 3443,-26 "/>
<text text-anchor="middle" x="3399" y="-15.6" font-family="Times,serif" font-size="8.00">prev: 0x600001e7a340</text>
</g>
<!-- Node0x600001e7a340&#45;&gt;Node0x600001e54fc0 -->
<g id="edge27" class="edge">
<title>Node0x600001e7a340:n&#45;&gt;Node0x600001e54fc0:n</title>
<path fill="none" stroke="red" d="M3319,-34C3331,-34 3336.25,-34 3344.88,-34"/>
<polygon fill="red" stroke="red" points="3345,-37.5 3355,-34 3345,-30.5 3345,-37.5"/>
</g>
<!-- Node0x600001e55d40 -->
<g id="node29" class="node">
<title>Node0x600001e55d40</title>
<polygon fill="none" stroke="black" points="3479,-9 3479,-77 3566,-77 3566,-9 3479,-9"/>
<text text-anchor="middle" x="3522.5" y="-66.6" font-family="Times,serif" font-size="8.00">word: stopp</text>
<polyline fill="none" stroke="black" points="3479,-60 3566,-60 "/>
<text text-anchor="middle" x="3522.5" y="-49.6" font-family="Times,serif" font-size="8.00">size: 1</text>
<polyline fill="none" stroke="black" points="3479,-43 3566,-43 "/>
<text text-anchor="middle" x="3522.5" y="-32.6" font-family="Times,serif" font-size="8.00">next: 0x0</text>
<polyline fill="none" stroke="black" points="3479,-26 3566,-26 "/>
<text text-anchor="middle" x="3522.5" y="-15.6" font-family="Times,serif" font-size="8.00">prev: 0x600001e54fc0</text>
</g>
<!-- Node0x600001e54fc0&#45;&gt;Node0x600001e55d40 -->
<g id="edge28" class="edge">
<title>Node0x600001e54fc0:n&#45;&gt;Node0x600001e55d40:n</title>
<path fill="none" stroke="red" d="M3443,-34C3455,-34 3460.25,-34 3468.88,-34"/>
<polygon fill="red" stroke="red" points="3469,-37.5 3479,-34 3469,-30.5 3469,-37.5"/>
</g>
</g>
</svg>
