<?xml version="1.0" encoding="UTF-8" standalone="no"?>
<!DOCTYPE svg PUBLIC "-//W3C//DTD SVG 1.1//EN"
 "http://www.w3.org/Graphics/SVG/1.1/DTD/svg11.dtd">
<!-- Generated by graphviz version 2.50.0 (20211204.2007)
 -->
<!-- Title: G Pages: 1 -->
<svg width="4196pt" height="117pt"
 viewBox="0.00 0.00 4196.00 117.00" xmlns="http://www.w3.org/2000/svg" xmlns:xlink="http://www.w3.org/1999/xlink">
<g id="graph0" class="graph" transform="scale(1 1) rotate(0) translate(4 113)">
<title>G</title>
<polygon fill="white" stroke="transparent" points="-4,4 -4,-113 4192,-113 4192,4 -4,4"/>
<g id="clust1" class="cluster">
<title>cluster685</title>
<polygon fill="none" stroke="black" points="8,-8 8,-101 95,-101 95,-8 8,-8"/>
<text text-anchor="middle" x="51.5" y="-85.8" font-family="Times,serif" font-size="14.00">685</text>
</g>
<g id="clust2" class="cluster">
<title>cluster686</title>
<polygon fill="none" stroke="black" points="131,-8 131,-101 219,-101 219,-8 131,-8"/>
<text text-anchor="middle" x="175" y="-85.8" font-family="Times,serif" font-size="14.00">686</text>
</g>
<g id="clust3" class="cluster">
<title>cluster687</title>
<polygon fill="none" stroke="black" points="255,-8 255,-101 343,-101 343,-8 255,-8"/>
<text text-anchor="middle" x="299" y="-85.8" font-family="Times,serif" font-size="14.00">687</text>
</g>
<g id="clust4" class="cluster">
<title>cluster688</title>
<polygon fill="none" stroke="black" points="379,-8 379,-101 467,-101 467,-8 379,-8"/>
<text text-anchor="middle" x="423" y="-85.8" font-family="Times,serif" font-size="14.00">688</text>
</g>
<g id="clust5" class="cluster">
<title>cluster689</title>
<polygon fill="none" stroke="black" points="503,-8 503,-101 591,-101 591,-8 503,-8"/>
<text text-anchor="middle" x="547" y="-85.8" font-family="Times,serif" font-size="14.00">689</text>
</g>
<g id="clust6" class="cluster">
<title>cluster690</title>
<polygon fill="none" stroke="black" points="627,-8 627,-101 715,-101 715,-8 627,-8"/>
<text text-anchor="middle" x="671" y="-85.8" font-family="Times,serif" font-size="14.00">690</text>
</g>
<g id="clust7" class="cluster">
<title>cluster691</title>
<polygon fill="none" stroke="black" points="751,-8 751,-101 839,-101 839,-8 751,-8"/>
<text text-anchor="middle" x="795" y="-85.8" font-family="Times,serif" font-size="14.00">691</text>
</g>
<g id="clust8" class="cluster">
<title>cluster692</title>
<polygon fill="none" stroke="black" points="875,-8 875,-101 963,-101 963,-8 875,-8"/>
<text text-anchor="middle" x="919" y="-85.8" font-family="Times,serif" font-size="14.00">692</text>
</g>
<g id="clust9" class="cluster">
<title>cluster693</title>
<polygon fill="none" stroke="black" points="999,-8 999,-101 1087,-101 1087,-8 999,-8"/>
<text text-anchor="middle" x="1043" y="-85.8" font-family="Times,serif" font-size="14.00">693</text>
</g>
<g id="clust10" class="cluster">
<title>cluster694</title>
<polygon fill="none" stroke="black" points="1123,-8 1123,-101 1210,-101 1210,-8 1123,-8"/>
<text text-anchor="middle" x="1166.5" y="-85.8" font-family="Times,serif" font-size="14.00">694</text>
</g>
<g id="clust11" class="cluster">
<title>cluster695</title>
<polygon fill="none" stroke="black" points="1246,-8 1246,-101 1334,-101 1334,-8 1246,-8"/>
<text text-anchor="middle" x="1290" y="-85.8" font-family="Times,serif" font-size="14.00">695</text>
</g>
<g id="clust12" class="cluster">
<title>cluster696</title>
<polygon fill="none" stroke="black" points="1370,-8 1370,-101 1458,-101 1458,-8 1370,-8"/>
<text text-anchor="middle" x="1414" y="-85.8" font-family="Times,serif" font-size="14.00">696</text>
</g>
<g id="clust13" class="cluster">
<title>cluster697</title>
<polygon fill="none" stroke="black" points="1494,-8 1494,-101 1581,-101 1581,-8 1494,-8"/>
<text text-anchor="middle" x="1537.5" y="-85.8" font-family="Times,serif" font-size="14.00">697</text>
</g>
<g id="clust14" class="cluster">
<title>cluster698</title>
<polygon fill="none" stroke="black" points="1617,-8 1617,-101 1705,-101 1705,-8 1617,-8"/>
<text text-anchor="middle" x="1661" y="-85.8" font-family="Times,serif" font-size="14.00">698</text>
</g>
<g id="clust15" class="cluster">
<title>cluster699</title>
<polygon fill="none" stroke="black" points="1741,-8 1741,-101 1829,-101 1829,-8 1741,-8"/>
<text text-anchor="middle" x="1785" y="-85.8" font-family="Times,serif" font-size="14.00">699</text>
</g>
<g id="clust16" class="cluster">
<title>cluster700</title>
<polygon fill="none" stroke="black" points="1865,-8 1865,-101 1953,-101 1953,-8 1865,-8"/>
<text text-anchor="middle" x="1909" y="-85.8" font-family="Times,serif" font-size="14.00">700</text>
</g>
<g id="clust17" class="cluster">
<title>cluster701</title>
<polygon fill="none" stroke="black" points="1989,-8 1989,-101 2077,-101 2077,-8 1989,-8"/>
<text text-anchor="middle" x="2033" y="-85.8" font-family="Times,serif" font-size="14.00">701</text>
</g>
<g id="clust18" class="cluster">
<title>cluster702</title>
<polygon fill="none" stroke="black" points="2113,-8 2113,-101 2200,-101 2200,-8 2113,-8"/>
<text text-anchor="middle" x="2156.5" y="-85.8" font-family="Times,serif" font-size="14.00">702</text>
</g>
<g id="clust19" class="cluster">
<title>cluster703</title>
<polygon fill="none" stroke="black" points="2236,-8 2236,-101 2324,-101 2324,-8 2236,-8"/>
<text text-anchor="middle" x="2280" y="-85.8" font-family="Times,serif" font-size="14.00">703</text>
</g>
<g id="clust20" class="cluster">
<title>cluster704</title>
<polygon fill="none" stroke="black" points="2360,-8 2360,-101 2448,-101 2448,-8 2360,-8"/>
<text text-anchor="middle" x="2404" y="-85.8" font-family="Times,serif" font-size="14.00">704</text>
</g>
<g id="clust21" class="cluster">
<title>cluster705</title>
<polygon fill="none" stroke="black" points="2484,-8 2484,-101 2571,-101 2571,-8 2484,-8"/>
<text text-anchor="middle" x="2527.5" y="-85.8" font-family="Times,serif" font-size="14.00">705</text>
</g>
<g id="clust22" class="cluster">
<title>cluster706</title>
<polygon fill="none" stroke="black" points="2607,-8 2607,-101 2695,-101 2695,-8 2607,-8"/>
<text text-anchor="middle" x="2651" y="-85.8" font-family="Times,serif" font-size="14.00">706</text>
</g>
<g id="clust23" class="cluster">
<title>cluster707</title>
<polygon fill="none" stroke="black" points="2731,-8 2731,-101 2818,-101 2818,-8 2731,-8"/>
<text text-anchor="middle" x="2774.5" y="-85.8" font-family="Times,serif" font-size="14.00">707</text>
</g>
<g id="clust24" class="cluster">
<title>cluster708</title>
<polygon fill="none" stroke="black" points="2854,-8 2854,-101 2942,-101 2942,-8 2854,-8"/>
<text text-anchor="middle" x="2898" y="-85.8" font-family="Times,serif" font-size="14.00">708</text>
</g>
<g id="clust25" class="cluster">
<title>cluster709</title>
<polygon fill="none" stroke="black" points="2978,-8 2978,-101 3066,-101 3066,-8 2978,-8"/>
<text text-anchor="middle" x="3022" y="-85.8" font-family="Times,serif" font-size="14.00">709</text>
</g>
<g id="clust26" class="cluster">
<title>cluster710</title>
<polygon fill="none" stroke="black" points="3102,-8 3102,-101 3190,-101 3190,-8 3102,-8"/>
<text text-anchor="middle" x="3146" y="-85.8" font-family="Times,serif" font-size="14.00">710</text>
</g>
<g id="clust27" class="cluster">
<title>cluster711</title>
<polygon fill="none" stroke="black" points="3226,-8 3226,-101 3314,-101 3314,-8 3226,-8"/>
<text text-anchor="middle" x="3270" y="-85.8" font-family="Times,serif" font-size="14.00">711</text>
</g>
<g id="clust28" class="cluster">
<title>cluster712</title>
<polygon fill="none" stroke="black" points="3350,-8 3350,-101 3438,-101 3438,-8 3350,-8"/>
<text text-anchor="middle" x="3394" y="-85.8" font-family="Times,serif" font-size="14.00">712</text>
</g>
<g id="clust29" class="cluster">
<title>cluster713</title>
<polygon fill="none" stroke="black" points="3474,-8 3474,-101 3561,-101 3561,-8 3474,-8"/>
<text text-anchor="middle" x="3517.5" y="-85.8" font-family="Times,serif" font-size="14.00">713</text>
</g>
<g id="clust30" class="cluster">
<title>cluster714</title>
<polygon fill="none" stroke="black" points="3597,-8 3597,-101 3685,-101 3685,-8 3597,-8"/>
<text text-anchor="middle" x="3641" y="-85.8" font-family="Times,serif" font-size="14.00">714</text>
</g>
<g id="clust31" class="cluster">
<title>cluster715</title>
<polygon fill="none" stroke="black" points="3721,-8 3721,-101 3809,-101 3809,-8 3721,-8"/>
<text text-anchor="middle" x="3765" y="-85.8" font-family="Times,serif" font-size="14.00">715</text>
</g>
<g id="clust32" class="cluster">
<title>cluster716</title>
<polygon fill="none" stroke="black" points="3845,-8 3845,-101 3932,-101 3932,-8 3845,-8"/>
<text text-anchor="middle" x="3888.5" y="-85.8" font-family="Times,serif" font-size="14.00">716</text>
</g>
<g id="clust33" class="cluster">
<title>cluster717</title>
<polygon fill="none" stroke="black" points="3968,-8 3968,-101 4056,-101 4056,-8 3968,-8"/>
<text text-anchor="middle" x="4012" y="-85.8" font-family="Times,serif" font-size="14.00">717</text>
</g>
<g id="clust34" class="cluster">
<title>cluster718</title>
<polygon fill="none" stroke="black" points="4092,-8 4092,-101 4180,-101 4180,-8 4092,-8"/>
<text text-anchor="middle" x="4136" y="-85.8" font-family="Times,serif" font-size="14.00">718</text>
</g>
<!-- Node0x600000710540 -->
<g id="node1" class="node">
<title>Node0x600000710540</title>
<polygon fill="none" stroke="black" points="8,-9 8,-77 95,-77 95,-9 8,-9"/>
<text text-anchor="middle" x="51.5" y="-66.6" font-family="Times,serif" font-size="8.00">word: the</text>
<polyline fill="none" stroke="black" points="8,-60 95,-60 "/>
<text text-anchor="middle" x="51.5" y="-49.6" font-family="Times,serif" font-size="8.00">size: 607</text>
<polyline fill="none" stroke="black" points="8,-43 95,-43 "/>
<text text-anchor="middle" x="51.5" y="-32.6" font-family="Times,serif" font-size="8.00">next: 0x6000007106c0</text>
<polyline fill="none" stroke="black" points="8,-26 95,-26 "/>
<text text-anchor="middle" x="51.5" y="-15.6" font-family="Times,serif" font-size="8.00">prev: 0x0</text>
</g>
<!-- Node0x6000007106c0 -->
<g id="node2" class="node">
<title>Node0x6000007106c0</title>
<polygon fill="none" stroke="black" points="131,-9 131,-77 219,-77 219,-9 131,-9"/>
<text text-anchor="middle" x="175" y="-66.6" font-family="Times,serif" font-size="8.00">word: with</text>
<polyline fill="none" stroke="black" points="131,-60 219,-60 "/>
<text text-anchor="middle" x="175" y="-49.6" font-family="Times,serif" font-size="8.00">size: 232</text>
<polyline fill="none" stroke="black" points="131,-43 219,-43 "/>
<text text-anchor="middle" x="175" y="-32.6" font-family="Times,serif" font-size="8.00">next: 0x600000710bd0</text>
<polyline fill="none" stroke="black" points="131,-26 219,-26 "/>
<text text-anchor="middle" x="175" y="-15.6" font-family="Times,serif" font-size="8.00">prev: 0x600000710540</text>
</g>
<!-- Node0x600000710540&#45;&gt;Node0x6000007106c0 -->
<g id="edge1" class="edge">
<title>Node0x600000710540:n&#45;&gt;Node0x6000007106c0:n</title>
<path fill="none" stroke="red" d="M95,-34C107,-34 112.25,-34 120.88,-34"/>
<polygon fill="red" stroke="red" points="121,-37.5 131,-34 121,-30.5 121,-37.5"/>
</g>
<!-- Node0x600000710bd0 -->
<g id="node3" class="node">
<title>Node0x600000710bd0</title>
<polygon fill="none" stroke="black" points="255,-9 255,-77 343,-77 343,-9 255,-9"/>
<text text-anchor="middle" x="299" y="-66.6" font-family="Times,serif" font-size="8.00">word: SAMSON</text>
<polyline fill="none" stroke="black" points="255,-60 343,-60 "/>
<text text-anchor="middle" x="299" y="-49.6" font-family="Times,serif" font-size="8.00">size: 3</text>
<polyline fill="none" stroke="black" points="255,-43 343,-43 "/>
<text text-anchor="middle" x="299" y="-32.6" font-family="Times,serif" font-size="8.00">next: 0x600000713450</text>
<polyline fill="none" stroke="black" points="255,-26 343,-26 "/>
<text text-anchor="middle" x="299" y="-15.6" font-family="Times,serif" font-size="8.00">prev: 0x6000007106c0</text>
</g>
<!-- Node0x6000007106c0&#45;&gt;Node0x600000710bd0 -->
<g id="edge2" class="edge">
<title>Node0x6000007106c0:n&#45;&gt;Node0x600000710bd0:n</title>
<path fill="none" stroke="red" d="M219,-34C231,-34 236.25,-34 244.88,-34"/>
<polygon fill="red" stroke="red" points="245,-37.5 255,-34 245,-30.5 245,-37.5"/>
</g>
<!-- Node0x600000713450 -->
<g id="node4" class="node">
<title>Node0x600000713450</title>
<polygon fill="none" stroke="black" points="379,-9 379,-77 467,-77 467,-9 379,-9"/>
<text text-anchor="middle" x="423" y="-66.6" font-family="Times,serif" font-size="8.00">word: off</text>
<polyline fill="none" stroke="black" points="379,-60 467,-60 "/>
<text text-anchor="middle" x="423" y="-49.6" font-family="Times,serif" font-size="8.00">size: 11</text>
<polyline fill="none" stroke="black" points="379,-43 467,-43 "/>
<text text-anchor="middle" x="423" y="-32.6" font-family="Times,serif" font-size="8.00">next: 0x600000715830</text>
<polyline fill="none" stroke="black" points="379,-26 467,-26 "/>
<text text-anchor="middle" x="423" y="-15.6" font-family="Times,serif" font-size="8.00">prev: 0x600000710bd0</text>
</g>
<!-- Node0x600000710bd0&#45;&gt;Node0x600000713450 -->
<g id="edge3" class="edge">
<title>Node0x600000710bd0:n&#45;&gt;Node0x600000713450:n</title>
<path fill="none" stroke="red" d="M343,-34C355,-34 360.25,-34 368.88,-34"/>
<polygon fill="red" stroke="red" points="369,-37.5 379,-34 369,-30.5 369,-37.5"/>
</g>
<!-- Node0x600000715830 -->
<g id="node5" class="node">
<title>Node0x600000715830</title>
<polygon fill="none" stroke="black" points="503,-9 503,-77 591,-77 591,-9 503,-9"/>
<text text-anchor="middle" x="547" y="-66.6" font-family="Times,serif" font-size="8.00">word: By</text>
<polyline fill="none" stroke="black" points="503,-60 591,-60 "/>
<text text-anchor="middle" x="547" y="-49.6" font-family="Times,serif" font-size="8.00">size: 32</text>
<polyline fill="none" stroke="black" points="503,-43 591,-43 "/>
<text text-anchor="middle" x="547" y="-32.6" font-family="Times,serif" font-size="8.00">next: 0x600000715950</text>
<polyline fill="none" stroke="black" points="503,-26 591,-26 "/>
<text text-anchor="middle" x="547" y="-15.6" font-family="Times,serif" font-size="8.00">prev: 0x600000713450</text>
</g>
<!-- Node0x600000713450&#45;&gt;Node0x600000715830 -->
<g id="edge4" class="edge">
<title>Node0x600000713450:n&#45;&gt;Node0x600000715830:n</title>
<path fill="none" stroke="red" d="M467,-34C479,-34 484.25,-34 492.88,-34"/>
<polygon fill="red" stroke="red" points="493,-37.5 503,-34 493,-30.5 493,-37.5"/>
</g>
<!-- Node0x600000715950 -->
<g id="node6" class="node">
<title>Node0x600000715950</title>
<polygon fill="none" stroke="black" points="627,-9 627,-77 715,-77 715,-9 627,-9"/>
<text text-anchor="middle" x="671" y="-66.6" font-family="Times,serif" font-size="8.00">word: citizens</text>
<polyline fill="none" stroke="black" points="627,-60 715,-60 "/>
<text text-anchor="middle" x="671" y="-49.6" font-family="Times,serif" font-size="8.00">size: 2</text>
<polyline fill="none" stroke="black" points="627,-43 715,-43 "/>
<text text-anchor="middle" x="671" y="-32.6" font-family="Times,serif" font-size="8.00">next: 0x600000715a40</text>
<polyline fill="none" stroke="black" points="627,-26 715,-26 "/>
<text text-anchor="middle" x="671" y="-15.6" font-family="Times,serif" font-size="8.00">prev: 0x600000715830</text>
</g>
<!-- Node0x600000715830&#45;&gt;Node0x600000715950 -->
<g id="edge5" class="edge">
<title>Node0x600000715830:n&#45;&gt;Node0x600000715950:n</title>
<path fill="none" stroke="red" d="M591,-34C603,-34 608.25,-34 616.88,-34"/>
<polygon fill="red" stroke="red" points="617,-37.5 627,-34 617,-30.5 617,-37.5"/>
</g>
<!-- Node0x600000715a40 -->
<g id="node7" class="node">
<title>Node0x600000715a40</title>
<polygon fill="none" stroke="black" points="751,-9 751,-77 839,-77 839,-9 751,-9"/>
<text text-anchor="middle" x="795" y="-66.6" font-family="Times,serif" font-size="8.00">word: wield</text>
<polyline fill="none" stroke="black" points="751,-60 839,-60 "/>
<text text-anchor="middle" x="795" y="-49.6" font-family="Times,serif" font-size="8.00">size: 1</text>
<polyline fill="none" stroke="black" points="751,-43 839,-43 "/>
<text text-anchor="middle" x="795" y="-32.6" font-family="Times,serif" font-size="8.00">next: 0x600000715c50</text>
<polyline fill="none" stroke="black" points="751,-26 839,-26 "/>
<text text-anchor="middle" x="795" y="-15.6" font-family="Times,serif" font-size="8.00">prev: 0x600000715950</text>
</g>
<!-- Node0x600000715950&#45;&gt;Node0x600000715a40 -->
<g id="edge6" class="edge">
<title>Node0x600000715950:n&#45;&gt;Node0x600000715a40:n</title>
<path fill="none" stroke="red" d="M715,-34C727,-34 732.25,-34 740.88,-34"/>
<polygon fill="red" stroke="red" points="741,-37.5 751,-34 741,-30.5 741,-37.5"/>
</g>
<!-- Node0x600000715c50 -->
<g id="node8" class="node">
<title>Node0x600000715c50</title>
<polygon fill="none" stroke="black" points="875,-9 875,-77 963,-77 963,-9 875,-9"/>
<text text-anchor="middle" x="919" y="-66.6" font-family="Times,serif" font-size="8.00">word: rest</text>
<polyline fill="none" stroke="black" points="875,-60 963,-60 "/>
<text text-anchor="middle" x="919" y="-49.6" font-family="Times,serif" font-size="8.00">size: 14</text>
<polyline fill="none" stroke="black" points="875,-43 963,-43 "/>
<text text-anchor="middle" x="919" y="-32.6" font-family="Times,serif" font-size="8.00">next: 0x600000718f30</text>
<polyline fill="none" stroke="black" points="875,-26 963,-26 "/>
<text text-anchor="middle" x="919" y="-15.6" font-family="Times,serif" font-size="8.00">prev: 0x600000715a40</text>
</g>
<!-- Node0x600000715a40&#45;&gt;Node0x600000715c50 -->
<g id="edge7" class="edge">
<title>Node0x600000715a40:n&#45;&gt;Node0x600000715c50:n</title>
<path fill="none" stroke="red" d="M839,-34C851,-34 856.25,-34 864.88,-34"/>
<polygon fill="red" stroke="red" points="865,-37.5 875,-34 865,-30.5 865,-37.5"/>
</g>
<!-- Node0x600000718f30 -->
<g id="node9" class="node">
<title>Node0x600000718f30</title>
<polygon fill="none" stroke="black" points="999,-9 999,-77 1087,-77 1087,-9 999,-9"/>
<text text-anchor="middle" x="1043" y="-66.6" font-family="Times,serif" font-size="8.00">word: such</text>
<polyline fill="none" stroke="black" points="999,-60 1087,-60 "/>
<text text-anchor="middle" x="1043" y="-49.6" font-family="Times,serif" font-size="8.00">size: 41</text>
<polyline fill="none" stroke="black" points="999,-43 1087,-43 "/>
<text text-anchor="middle" x="1043" y="-32.6" font-family="Times,serif" font-size="8.00">next: 0x60000071a1c0</text>
<polyline fill="none" stroke="black" points="999,-26 1087,-26 "/>
<text text-anchor="middle" x="1043" y="-15.6" font-family="Times,serif" font-size="8.00">prev: 0x600000715c50</text>
</g>
<!-- Node0x600000715c50&#45;&gt;Node0x600000718f30 -->
<g id="edge8" class="edge">
<title>Node0x600000715c50:n&#45;&gt;Node0x600000718f30:n</title>
<path fill="none" stroke="red" d="M963,-34C975,-34 980.25,-34 988.88,-34"/>
<polygon fill="red" stroke="red" points="989,-37.5 999,-34 989,-30.5 989,-37.5"/>
</g>
<!-- Node0x60000071a1c0 -->
<g id="node10" class="node">
<title>Node0x60000071a1c0</title>
<polygon fill="none" stroke="black" points="1123,-9 1123,-77 1210,-77 1210,-9 1123,-9"/>
<text text-anchor="middle" x="1166.5" y="-66.6" font-family="Times,serif" font-size="8.00">word: dead</text>
<polyline fill="none" stroke="black" points="1123,-60 1210,-60 "/>
<text text-anchor="middle" x="1166.5" y="-49.6" font-family="Times,serif" font-size="8.00">size: 48</text>
<polyline fill="none" stroke="black" points="1123,-43 1210,-43 "/>
<text text-anchor="middle" x="1166.5" y="-32.6" font-family="Times,serif" font-size="8.00">next: 0x60000071c360</text>
<polyline fill="none" stroke="black" points="1123,-26 1210,-26 "/>
<text text-anchor="middle" x="1166.5" y="-15.6" font-family="Times,serif" font-size="8.00">prev: 0x600000718f30</text>
</g>
<!-- Node0x600000718f30&#45;&gt;Node0x60000071a1c0 -->
<g id="edge9" class="edge">
<title>Node0x600000718f30:n&#45;&gt;Node0x60000071a1c0:n</title>
<path fill="none" stroke="red" d="M1087,-34C1099,-34 1104.25,-34 1112.88,-34"/>
<polygon fill="red" stroke="red" points="1113,-37.5 1123,-34 1113,-30.5 1113,-37.5"/>
</g>
<!-- Node0x60000071c360 -->
<g id="node11" class="node">
<title>Node0x60000071c360</title>
<polygon fill="none" stroke="black" points="1246,-9 1246,-77 1334,-77 1334,-9 1246,-9"/>
<text text-anchor="middle" x="1290" y="-66.6" font-family="Times,serif" font-size="8.00">word: feast</text>
<polyline fill="none" stroke="black" points="1246,-60 1334,-60 "/>
<text text-anchor="middle" x="1290" y="-49.6" font-family="Times,serif" font-size="8.00">size: 6</text>
<polyline fill="none" stroke="black" points="1246,-43 1334,-43 "/>
<text text-anchor="middle" x="1290" y="-32.6" font-family="Times,serif" font-size="8.00">next: 0x60000071b9f0</text>
<polyline fill="none" stroke="black" points="1246,-26 1334,-26 "/>
<text text-anchor="middle" x="1290" y="-15.6" font-family="Times,serif" font-size="8.00">prev: 0x60000071a1c0</text>
</g>
<!-- Node0x60000071a1c0&#45;&gt;Node0x60000071c360 -->
<g id="edge10" class="edge">
<title>Node0x60000071a1c0:n&#45;&gt;Node0x60000071c360:n</title>
<path fill="none" stroke="red" d="M1210,-34C1222,-34 1227.25,-34 1235.88,-34"/>
<polygon fill="red" stroke="red" points="1236,-37.5 1246,-34 1236,-30.5 1236,-37.5"/>
</g>
<!-- Node0x60000071b9f0 -->
<g id="node12" class="node">
<title>Node0x60000071b9f0</title>
<polygon fill="none" stroke="black" points="1370,-9 1370,-77 1458,-77 1458,-9 1370,-9"/>
<text text-anchor="middle" x="1414" y="-66.6" font-family="Times,serif" font-size="8.00">word: desperate</text>
<polyline fill="none" stroke="black" points="1370,-60 1458,-60 "/>
<text text-anchor="middle" x="1414" y="-49.6" font-family="Times,serif" font-size="8.00">size: 8</text>
<polyline fill="none" stroke="black" points="1370,-43 1458,-43 "/>
<text text-anchor="middle" x="1414" y="-32.6" font-family="Times,serif" font-size="8.00">next: 0x60000071e9d0</text>
<polyline fill="none" stroke="black" points="1370,-26 1458,-26 "/>
<text text-anchor="middle" x="1414" y="-15.6" font-family="Times,serif" font-size="8.00">prev: 0x60000071c360</text>
</g>
<!-- Node0x60000071c360&#45;&gt;Node0x60000071b9f0 -->
<g id="edge11" class="edge">
<title>Node0x60000071c360:n&#45;&gt;Node0x60000071b9f0:n</title>
<path fill="none" stroke="red" d="M1334,-34C1346,-34 1351.25,-34 1359.88,-34"/>
<polygon fill="red" stroke="red" points="1360,-37.5 1370,-34 1360,-30.5 1360,-37.5"/>
</g>
<!-- Node0x60000071e9d0 -->
<g id="node13" class="node">
<title>Node0x60000071e9d0</title>
<polygon fill="none" stroke="black" points="1494,-9 1494,-77 1581,-77 1581,-9 1494,-9"/>
<text text-anchor="middle" x="1537.5" y="-66.6" font-family="Times,serif" font-size="8.00">word: hall</text>
<polyline fill="none" stroke="black" points="1494,-60 1581,-60 "/>
<text text-anchor="middle" x="1537.5" y="-49.6" font-family="Times,serif" font-size="8.00">size: 3</text>
<polyline fill="none" stroke="black" points="1494,-43 1581,-43 "/>
<text text-anchor="middle" x="1537.5" y="-32.6" font-family="Times,serif" font-size="8.00">next: 0x600000700060</text>
<polyline fill="none" stroke="black" points="1494,-26 1581,-26 "/>
<text text-anchor="middle" x="1537.5" y="-15.6" font-family="Times,serif" font-size="8.00">prev: 0x60000071b9f0</text>
</g>
<!-- Node0x60000071b9f0&#45;&gt;Node0x60000071e9d0 -->
<g id="edge12" class="edge">
<title>Node0x60000071b9f0:n&#45;&gt;Node0x60000071e9d0:n</title>
<path fill="none" stroke="red" d="M1458,-34C1470,-34 1475.25,-34 1483.88,-34"/>
<polygon fill="red" stroke="red" points="1484,-37.5 1494,-34 1484,-30.5 1484,-37.5"/>
</g>
<!-- Node0x600000700060 -->
<g id="node14" class="node">
<title>Node0x600000700060</title>
<polygon fill="none" stroke="black" points="1617,-9 1617,-77 1705,-77 1705,-9 1617,-9"/>
<text text-anchor="middle" x="1661" y="-66.6" font-family="Times,serif" font-size="8.00">word: town</text>
<polyline fill="none" stroke="black" points="1617,-60 1705,-60 "/>
<text text-anchor="middle" x="1661" y="-49.6" font-family="Times,serif" font-size="8.00">size: 4</text>
<polyline fill="none" stroke="black" points="1617,-43 1705,-43 "/>
<text text-anchor="middle" x="1661" y="-32.6" font-family="Times,serif" font-size="8.00">next: 0x6000007007e0</text>
<polyline fill="none" stroke="black" points="1617,-26 1705,-26 "/>
<text text-anchor="middle" x="1661" y="-15.6" font-family="Times,serif" font-size="8.00">prev: 0x60000071e9d0</text>
</g>
<!-- Node0x60000071e9d0&#45;&gt;Node0x600000700060 -->
<g id="edge13" class="edge">
<title>Node0x60000071e9d0:n&#45;&gt;Node0x600000700060:n</title>
<path fill="none" stroke="red" d="M1581,-34C1593,-34 1598.25,-34 1606.88,-34"/>
<polygon fill="red" stroke="red" points="1607,-37.5 1617,-34 1607,-30.5 1607,-37.5"/>
</g>
<!-- Node0x6000007007e0 -->
<g id="node15" class="node">
<title>Node0x6000007007e0</title>
<polygon fill="none" stroke="black" points="1741,-9 1741,-77 1829,-77 1829,-9 1741,-9"/>
<text text-anchor="middle" x="1785" y="-66.6" font-family="Times,serif" font-size="8.00">word: touch</text>
<polyline fill="none" stroke="black" points="1741,-60 1829,-60 "/>
<text text-anchor="middle" x="1785" y="-49.6" font-family="Times,serif" font-size="8.00">size: 3</text>
<polyline fill="none" stroke="black" points="1741,-43 1829,-43 "/>
<text text-anchor="middle" x="1785" y="-32.6" font-family="Times,serif" font-size="8.00">next: 0x600000701920</text>
<polyline fill="none" stroke="black" points="1741,-26 1829,-26 "/>
<text text-anchor="middle" x="1785" y="-15.6" font-family="Times,serif" font-size="8.00">prev: 0x600000700060</text>
</g>
<!-- Node0x600000700060&#45;&gt;Node0x6000007007e0 -->
<g id="edge14" class="edge">
<title>Node0x600000700060:n&#45;&gt;Node0x6000007007e0:n</title>
<path fill="none" stroke="red" d="M1705,-34C1717,-34 1722.25,-34 1730.88,-34"/>
<polygon fill="red" stroke="red" points="1731,-37.5 1741,-34 1731,-30.5 1731,-37.5"/>
</g>
<!-- Node0x600000701920 -->
<g id="node16" class="node">
<title>Node0x600000701920</title>
<polygon fill="none" stroke="black" points="1865,-9 1865,-77 1953,-77 1953,-9 1865,-9"/>
<text text-anchor="middle" x="1909" y="-66.6" font-family="Times,serif" font-size="8.00">word: likeness</text>
<polyline fill="none" stroke="black" points="1865,-60 1953,-60 "/>
<text text-anchor="middle" x="1909" y="-49.6" font-family="Times,serif" font-size="8.00">size: 3</text>
<polyline fill="none" stroke="black" points="1865,-43 1953,-43 "/>
<text text-anchor="middle" x="1909" y="-32.6" font-family="Times,serif" font-size="8.00">next: 0x600000702fa0</text>
<polyline fill="none" stroke="black" points="1865,-26 1953,-26 "/>
<text text-anchor="middle" x="1909" y="-15.6" font-family="Times,serif" font-size="8.00">prev: 0x6000007007e0</text>
</g>
<!-- Node0x6000007007e0&#45;&gt;Node0x600000701920 -->
<g id="edge15" class="edge">
<title>Node0x6000007007e0:n&#45;&gt;Node0x600000701920:n</title>
<path fill="none" stroke="red" d="M1829,-34C1841,-34 1846.25,-34 1854.88,-34"/>
<polygon fill="red" stroke="red" points="1855,-37.5 1865,-34 1855,-30.5 1855,-37.5"/>
</g>
<!-- Node0x600000702fa0 -->
<g id="node17" class="node">
<title>Node0x600000702fa0</title>
<polygon fill="none" stroke="black" points="1989,-9 1989,-77 2077,-77 2077,-9 1989,-9"/>
<text text-anchor="middle" x="2033" y="-66.6" font-family="Times,serif" font-size="8.00">word: doff</text>
<polyline fill="none" stroke="black" points="1989,-60 2077,-60 "/>
<text text-anchor="middle" x="2033" y="-49.6" font-family="Times,serif" font-size="8.00">size: 1</text>
<polyline fill="none" stroke="black" points="1989,-43 2077,-43 "/>
<text text-anchor="middle" x="2033" y="-32.6" font-family="Times,serif" font-size="8.00">next: 0x600000730150</text>
<polyline fill="none" stroke="black" points="1989,-26 2077,-26 "/>
<text text-anchor="middle" x="2033" y="-15.6" font-family="Times,serif" font-size="8.00">prev: 0x600000701920</text>
</g>
<!-- Node0x600000701920&#45;&gt;Node0x600000702fa0 -->
<g id="edge16" class="edge">
<title>Node0x600000701920:n&#45;&gt;Node0x600000702fa0:n</title>
<path fill="none" stroke="red" d="M1953,-34C1965,-34 1970.25,-34 1978.88,-34"/>
<polygon fill="red" stroke="red" points="1979,-37.5 1989,-34 1979,-30.5 1979,-37.5"/>
</g>
<!-- Node0x600000730150 -->
<g id="node18" class="node">
<title>Node0x600000730150</title>
<polygon fill="none" stroke="black" points="2113,-9 2113,-77 2200,-77 2200,-9 2113,-9"/>
<text text-anchor="middle" x="2156.5" y="-66.6" font-family="Times,serif" font-size="8.00">word: Sweet</text>
<polyline fill="none" stroke="black" points="2113,-60 2200,-60 "/>
<text text-anchor="middle" x="2156.5" y="-49.6" font-family="Times,serif" font-size="8.00">size: 6</text>
<polyline fill="none" stroke="black" points="2113,-43 2200,-43 "/>
<text text-anchor="middle" x="2156.5" y="-32.6" font-family="Times,serif" font-size="8.00">next: 0x600000730240</text>
<polyline fill="none" stroke="black" points="2113,-26 2200,-26 "/>
<text text-anchor="middle" x="2156.5" y="-15.6" font-family="Times,serif" font-size="8.00">prev: 0x600000702fa0</text>
</g>
<!-- Node0x600000702fa0&#45;&gt;Node0x600000730150 -->
<g id="edge17" class="edge">
<title>Node0x600000702fa0:n&#45;&gt;Node0x600000730150:n</title>
<path fill="none" stroke="red" d="M2077,-34C2089,-34 2094.25,-34 2102.88,-34"/>
<polygon fill="red" stroke="red" points="2103,-37.5 2113,-34 2103,-30.5 2103,-37.5"/>
</g>
<!-- Node0x600000730240 -->
<g id="node19" class="node">
<title>Node0x600000730240</title>
<polygon fill="none" stroke="black" points="2236,-9 2236,-77 2324,-77 2324,-9 2236,-9"/>
<text text-anchor="middle" x="2280" y="-66.6" font-family="Times,serif" font-size="8.00">word: unsatisfied</text>
<polyline fill="none" stroke="black" points="2236,-60 2324,-60 "/>
<text text-anchor="middle" x="2280" y="-49.6" font-family="Times,serif" font-size="8.00">size: 1</text>
<polyline fill="none" stroke="black" points="2236,-43 2324,-43 "/>
<text text-anchor="middle" x="2280" y="-32.6" font-family="Times,serif" font-size="8.00">next: 0x600000730fc0</text>
<polyline fill="none" stroke="black" points="2236,-26 2324,-26 "/>
<text text-anchor="middle" x="2280" y="-15.6" font-family="Times,serif" font-size="8.00">prev: 0x600000730150</text>
</g>
<!-- Node0x600000730150&#45;&gt;Node0x600000730240 -->
<g id="edge18" class="edge">
<title>Node0x600000730150:n&#45;&gt;Node0x600000730240:n</title>
<path fill="none" stroke="red" d="M2200,-34C2212,-34 2217.25,-34 2225.88,-34"/>
<polygon fill="red" stroke="red" points="2226,-37.5 2236,-34 2226,-30.5 2226,-37.5"/>
</g>
<!-- Node0x600000730fc0 -->
<g id="node20" class="node">
<title>Node0x600000730fc0</title>
<polygon fill="none" stroke="black" points="2360,-9 2360,-77 2448,-77 2448,-9 2360,-9"/>
<text text-anchor="middle" x="2404" y="-66.6" font-family="Times,serif" font-size="8.00">word: Sleep</text>
<polyline fill="none" stroke="black" points="2360,-60 2448,-60 "/>
<text text-anchor="middle" x="2404" y="-49.6" font-family="Times,serif" font-size="8.00">size: 2</text>
<polyline fill="none" stroke="black" points="2360,-43 2448,-43 "/>
<text text-anchor="middle" x="2404" y="-32.6" font-family="Times,serif" font-size="8.00">next: 0x600000733ea0</text>
<polyline fill="none" stroke="black" points="2360,-26 2448,-26 "/>
<text text-anchor="middle" x="2404" y="-15.6" font-family="Times,serif" font-size="8.00">prev: 0x600000730240</text>
</g>
<!-- Node0x600000730240&#45;&gt;Node0x600000730fc0 -->
<g id="edge19" class="edge">
<title>Node0x600000730240:n&#45;&gt;Node0x600000730fc0:n</title>
<path fill="none" stroke="red" d="M2324,-34C2336,-34 2341.25,-34 2349.88,-34"/>
<polygon fill="red" stroke="red" points="2350,-37.5 2360,-34 2350,-30.5 2350,-37.5"/>
</g>
<!-- Node0x600000733ea0 -->
<g id="node21" class="node">
<title>Node0x600000733ea0</title>
<polygon fill="none" stroke="black" points="2484,-9 2484,-77 2571,-77 2571,-9 2484,-9"/>
<text text-anchor="middle" x="2527.5" y="-66.6" font-family="Times,serif" font-size="8.00">word: cursy</text>
<polyline fill="none" stroke="black" points="2484,-60 2571,-60 "/>
<text text-anchor="middle" x="2527.5" y="-49.6" font-family="Times,serif" font-size="8.00">size: 1</text>
<polyline fill="none" stroke="black" points="2484,-43 2571,-43 "/>
<text text-anchor="middle" x="2527.5" y="-32.6" font-family="Times,serif" font-size="8.00">next: 0x600000734f00</text>
<polyline fill="none" stroke="black" points="2484,-26 2571,-26 "/>
<text text-anchor="middle" x="2527.5" y="-15.6" font-family="Times,serif" font-size="8.00">prev: 0x600000730fc0</text>
</g>
<!-- Node0x600000730fc0&#45;&gt;Node0x600000733ea0 -->
<g id="edge20" class="edge">
<title>Node0x600000730fc0:n&#45;&gt;Node0x600000733ea0:n</title>
<path fill="none" stroke="red" d="M2448,-34C2460,-34 2465.25,-34 2473.88,-34"/>
<polygon fill="red" stroke="red" points="2474,-37.5 2484,-34 2474,-30.5 2474,-37.5"/>
</g>
<!-- Node0x600000734f00 -->
<g id="node22" class="node">
<title>Node0x600000734f00</title>
<polygon fill="none" stroke="black" points="2607,-9 2607,-77 2695,-77 2695,-9 2607,-9"/>
<text text-anchor="middle" x="2651" y="-66.6" font-family="Times,serif" font-size="8.00">word: hoar</text>
<polyline fill="none" stroke="black" points="2607,-60 2695,-60 "/>
<text text-anchor="middle" x="2651" y="-49.6" font-family="Times,serif" font-size="8.00">size: 4</text>
<polyline fill="none" stroke="black" points="2607,-43 2695,-43 "/>
<text text-anchor="middle" x="2651" y="-32.6" font-family="Times,serif" font-size="8.00">next: 0x6000007363a0</text>
<polyline fill="none" stroke="black" points="2607,-26 2695,-26 "/>
<text text-anchor="middle" x="2651" y="-15.6" font-family="Times,serif" font-size="8.00">prev: 0x600000733ea0</text>
</g>
<!-- Node0x600000733ea0&#45;&gt;Node0x600000734f00 -->
<g id="edge21" class="edge">
<title>Node0x600000733ea0:n&#45;&gt;Node0x600000734f00:n</title>
<path fill="none" stroke="red" d="M2571,-34C2583,-34 2588.25,-34 2596.88,-34"/>
<polygon fill="red" stroke="red" points="2597,-37.5 2607,-34 2597,-30.5 2597,-37.5"/>
</g>
<!-- Node0x6000007363a0 -->
<g id="node23" class="node">
<title>Node0x6000007363a0</title>
<polygon fill="none" stroke="black" points="2731,-9 2731,-77 2818,-77 2818,-9 2731,-9"/>
<text text-anchor="middle" x="2774.5" y="-66.6" font-family="Times,serif" font-size="8.00">word: Though</text>
<polyline fill="none" stroke="black" points="2731,-60 2818,-60 "/>
<text text-anchor="middle" x="2774.5" y="-49.6" font-family="Times,serif" font-size="8.00">size: 3</text>
<polyline fill="none" stroke="black" points="2731,-43 2818,-43 "/>
<text text-anchor="middle" x="2774.5" y="-32.6" font-family="Times,serif" font-size="8.00">next: 0x600000736a90</text>
<polyline fill="none" stroke="black" points="2731,-26 2818,-26 "/>
<text text-anchor="middle" x="2774.5" y="-15.6" font-family="Times,serif" font-size="8.00">prev: 0x600000734f00</text>
</g>
<!-- Node0x600000734f00&#45;&gt;Node0x6000007363a0 -->
<g id="edge22" class="edge">
<title>Node0x600000734f00:n&#45;&gt;Node0x6000007363a0:n</title>
<path fill="none" stroke="red" d="M2695,-34C2707,-34 2712.25,-34 2720.88,-34"/>
<polygon fill="red" stroke="red" points="2721,-37.5 2731,-34 2721,-30.5 2721,-37.5"/>
</g>
<!-- Node0x600000736a90 -->
<g id="node24" class="node">
<title>Node0x600000736a90</title>
<polygon fill="none" stroke="black" points="2854,-9 2854,-77 2942,-77 2942,-9 2854,-9"/>
<text text-anchor="middle" x="2898" y="-66.6" font-family="Times,serif" font-size="8.00">word: Hie</text>
<polyline fill="none" stroke="black" points="2854,-60 2942,-60 "/>
<text text-anchor="middle" x="2898" y="-49.6" font-family="Times,serif" font-size="8.00">size: 6</text>
<polyline fill="none" stroke="black" points="2854,-43 2942,-43 "/>
<text text-anchor="middle" x="2898" y="-32.6" font-family="Times,serif" font-size="8.00">next: 0x600000736dc0</text>
<polyline fill="none" stroke="black" points="2854,-26 2942,-26 "/>
<text text-anchor="middle" x="2898" y="-15.6" font-family="Times,serif" font-size="8.00">prev: 0x6000007363a0</text>
</g>
<!-- Node0x6000007363a0&#45;&gt;Node0x600000736a90 -->
<g id="edge23" class="edge">
<title>Node0x6000007363a0:n&#45;&gt;Node0x600000736a90:n</title>
<path fill="none" stroke="red" d="M2818,-34C2830,-34 2835.25,-34 2843.88,-34"/>
<polygon fill="red" stroke="red" points="2844,-37.5 2854,-34 2844,-30.5 2844,-37.5"/>
</g>
<!-- Node0x600000736dc0 -->
<g id="node25" class="node">
<title>Node0x600000736dc0</title>
<polygon fill="none" stroke="black" points="2978,-9 2978,-77 3066,-77 3066,-9 2978,-9"/>
<text text-anchor="middle" x="3022" y="-66.6" font-family="Times,serif" font-size="8.00">word: ends</text>
<polyline fill="none" stroke="black" points="2978,-60 3066,-60 "/>
<text text-anchor="middle" x="3022" y="-49.6" font-family="Times,serif" font-size="8.00">size: 1</text>
<polyline fill="none" stroke="black" points="2978,-43 3066,-43 "/>
<text text-anchor="middle" x="3022" y="-32.6" font-family="Times,serif" font-size="8.00">next: 0x600000739380</text>
<polyline fill="none" stroke="black" points="2978,-26 3066,-26 "/>
<text text-anchor="middle" x="3022" y="-15.6" font-family="Times,serif" font-size="8.00">prev: 0x600000736a90</text>
</g>
<!-- Node0x600000736a90&#45;&gt;Node0x600000736dc0 -->
<g id="edge24" class="edge">
<title>Node0x600000736a90:n&#45;&gt;Node0x600000736dc0:n</title>
<path fill="none" stroke="red" d="M2942,-34C2954,-34 2959.25,-34 2967.88,-34"/>
<polygon fill="red" stroke="red" points="2968,-37.5 2978,-34 2968,-30.5 2968,-37.5"/>
</g>
<!-- Node0x600000739380 -->
<g id="node26" class="node">
<title>Node0x600000739380</title>
<polygon fill="none" stroke="black" points="3102,-9 3102,-77 3190,-77 3190,-9 3102,-9"/>
<text text-anchor="middle" x="3146" y="-66.6" font-family="Times,serif" font-size="8.00">word: point</text>
<polyline fill="none" stroke="black" points="3102,-60 3190,-60 "/>
<text text-anchor="middle" x="3146" y="-49.6" font-family="Times,serif" font-size="8.00">size: 5</text>
<polyline fill="none" stroke="black" points="3102,-43 3190,-43 "/>
<text text-anchor="middle" x="3146" y="-32.6" font-family="Times,serif" font-size="8.00">next: 0x60000073aee0</text>
<polyline fill="none" stroke="black" points="3102,-26 3190,-26 "/>
<text text-anchor="middle" x="3146" y="-15.6" font-family="Times,serif" font-size="8.00">prev: 0x600000736dc0</text>
</g>
<!-- Node0x600000736dc0&#45;&gt;Node0x600000739380 -->
<g id="edge25" class="edge">
<title>Node0x600000736dc0:n&#45;&gt;Node0x600000739380:n</title>
<path fill="none" stroke="red" d="M3066,-34C3078,-34 3083.25,-34 3091.88,-34"/>
<polygon fill="red" stroke="red" points="3092,-37.5 3102,-34 3092,-30.5 3092,-37.5"/>
</g>
<!-- Node0x60000073aee0 -->
<g id="node27" class="node">
<title>Node0x60000073aee0</title>
<polygon fill="none" stroke="black" points="3226,-9 3226,-77 3314,-77 3314,-9 3226,-9"/>
<text text-anchor="middle" x="3270" y="-66.6" font-family="Times,serif" font-size="8.00">word: gorgeous</text>
<polyline fill="none" stroke="black" points="3226,-60 3314,-60 "/>
<text text-anchor="middle" x="3270" y="-49.6" font-family="Times,serif" font-size="8.00">size: 1</text>
<polyline fill="none" stroke="black" points="3226,-43 3314,-43 "/>
<text text-anchor="middle" x="3270" y="-32.6" font-family="Times,serif" font-size="8.00">next: 0x60000070c3f0</text>
<polyline fill="none" stroke="black" points="3226,-26 3314,-26 "/>
<text text-anchor="middle" x="3270" y="-15.6" font-family="Times,serif" font-size="8.00">prev: 0x600000739380</text>
</g>
<!-- Node0x600000739380&#45;&gt;Node0x60000073aee0 -->
<g id="edge26" class="edge">
<title>Node0x600000739380:n&#45;&gt;Node0x60000073aee0:n</title>
<path fill="none" stroke="red" d="M3190,-34C3202,-34 3207.25,-34 3215.88,-34"/>
<polygon fill="red" stroke="red" points="3216,-37.5 3226,-34 3216,-30.5 3216,-37.5"/>
</g>
<!-- Node0x60000070c3f0 -->
<g id="node28" class="node">
<title>Node0x60000070c3f0</title>
<polygon fill="none" stroke="black" points="3350,-9 3350,-77 3438,-77 3438,-9 3350,-9"/>
<text text-anchor="middle" x="3394" y="-66.6" font-family="Times,serif" font-size="8.00">word: pulse</text>
<polyline fill="none" stroke="black" points="3350,-60 3438,-60 "/>
<text text-anchor="middle" x="3394" y="-49.6" font-family="Times,serif" font-size="8.00">size: 1</text>
<polyline fill="none" stroke="black" points="3350,-43 3438,-43 "/>
<text text-anchor="middle" x="3394" y="-32.6" font-family="Times,serif" font-size="8.00">next: 0x600000721080</text>
<polyline fill="none" stroke="black" points="3350,-26 3438,-26 "/>
<text text-anchor="middle" x="3394" y="-15.6" font-family="Times,serif" font-size="8.00">prev: 0x60000073aee0</text>
</g>
<!-- Node0x60000073aee0&#45;&gt;Node0x60000070c3f0 -->
<g id="edge27" class="edge">
<title>Node0x60000073aee0:n&#45;&gt;Node0x60000070c3f0:n</title>
<path fill="none" stroke="red" d="M3314,-34C3326,-34 3331.25,-34 3339.88,-34"/>
<polygon fill="red" stroke="red" points="3340,-37.5 3350,-34 3340,-30.5 3340,-37.5"/>
</g>
<!-- Node0x600000721080 -->
<g id="node29" class="node">
<title>Node0x600000721080</title>
<polygon fill="none" stroke="black" points="3474,-9 3474,-77 3561,-77 3561,-9 3474,-9"/>
<text text-anchor="middle" x="3517.5" y="-66.6" font-family="Times,serif" font-size="8.00">word: kindred</text>
<polyline fill="none" stroke="black" points="3474,-60 3561,-60 "/>
<text text-anchor="middle" x="3517.5" y="-49.6" font-family="Times,serif" font-size="8.00">size: 3</text>
<polyline fill="none" stroke="black" points="3474,-43 3561,-43 "/>
<text text-anchor="middle" x="3517.5" y="-32.6" font-family="Times,serif" font-size="8.00">next: 0x600000721800</text>
<polyline fill="none" stroke="black" points="3474,-26 3561,-26 "/>
<text text-anchor="middle" x="3517.5" y="-15.6" font-family="Times,serif" font-size="8.00">prev: 0x60000070c3f0</text>
</g>
<!-- Node0x60000070c3f0&#45;&gt;Node0x600000721080 -->
<g id="edge28" class="edge">
<title>Node0x60000070c3f0:n&#45;&gt;Node0x600000721080:n</title>
<path fill="none" stroke="red" d="M3438,-34C3450,-34 3455.25,-34 3463.88,-34"/>
<polygon fill="red" stroke="red" points="3464,-37.5 3474,-34 3464,-30.5 3464,-37.5"/>
</g>
<!-- Node0x600000721800 -->
<g id="node30" class="node">
<title>Node0x600000721800</title>
<polygon fill="none" stroke="black" points="3597,-9 3597,-77 3685,-77 3685,-9 3597,-9"/>
<text text-anchor="middle" x="3641" y="-66.6" font-family="Times,serif" font-size="8.00">word: mouth</text>
<polyline fill="none" stroke="black" points="3597,-60 3685,-60 "/>
<text text-anchor="middle" x="3641" y="-49.6" font-family="Times,serif" font-size="8.00">size: 2</text>
<polyline fill="none" stroke="black" points="3597,-43 3685,-43 "/>
<text text-anchor="middle" x="3641" y="-32.6" font-family="Times,serif" font-size="8.00">next: 0x60000070c6f0</text>
<polyline fill="none" stroke="black" points="3597,-26 3685,-26 "/>
<text text-anchor="middle" x="3641" y="-15.6" font-family="Times,serif" font-size="8.00">prev: 0x600000721080</text>
</g>
<!-- Node0x600000721080&#45;&gt;Node0x600000721800 -->
<g id="edge29" class="edge">
<title>Node0x600000721080:n&#45;&gt;Node0x600000721800:n</title>
<path fill="none" stroke="red" d="M3561,-34C3573,-34 3578.25,-34 3586.88,-34"/>
<polygon fill="red" stroke="red" points="3587,-37.5 3597,-34 3587,-30.5 3587,-37.5"/>
</g>
<!-- Node0x60000070c6f0 -->
<g id="node31" class="node">
<title>Node0x60000070c6f0</title>
<polygon fill="none" stroke="black" points="3721,-9 3721,-77 3809,-77 3809,-9 3721,-9"/>
<text text-anchor="middle" x="3765" y="-66.6" font-family="Times,serif" font-size="8.00">word: lesser</text>
<polyline fill="none" stroke="black" points="3721,-60 3809,-60 "/>
<text text-anchor="middle" x="3765" y="-49.6" font-family="Times,serif" font-size="8.00">size: 1</text>
<polyline fill="none" stroke="black" points="3721,-43 3809,-43 "/>
<text text-anchor="middle" x="3765" y="-32.6" font-family="Times,serif" font-size="8.00">next: 0x600000725a70</text>
<polyline fill="none" stroke="black" points="3721,-26 3809,-26 "/>
<text text-anchor="middle" x="3765" y="-15.6" font-family="Times,serif" font-size="8.00">prev: 0x600000721800</text>
</g>
<!-- Node0x600000721800&#45;&gt;Node0x60000070c6f0 -->
<g id="edge30" class="edge">
<title>Node0x600000721800:n&#45;&gt;Node0x60000070c6f0:n</title>
<path fill="none" stroke="red" d="M3685,-34C3697,-34 3702.25,-34 3710.88,-34"/>
<polygon fill="red" stroke="red" points="3711,-37.5 3721,-34 3711,-30.5 3711,-37.5"/>
</g>
<!-- Node0x600000725a70 -->
<g id="node32" class="node">
<title>Node0x600000725a70</title>
<polygon fill="none" stroke="black" points="3845,-9 3845,-77 3932,-77 3932,-9 3845,-9"/>
<text text-anchor="middle" x="3888.5" y="-66.6" font-family="Times,serif" font-size="8.00">word: triumphant</text>
<polyline fill="none" stroke="black" points="3845,-60 3932,-60 "/>
<text text-anchor="middle" x="3888.5" y="-49.6" font-family="Times,serif" font-size="8.00">size: 1</text>
<polyline fill="none" stroke="black" points="3845,-43 3932,-43 "/>
<text text-anchor="middle" x="3888.5" y="-32.6" font-family="Times,serif" font-size="8.00">next: 0x600000725ec0</text>
<polyline fill="none" stroke="black" points="3845,-26 3932,-26 "/>
<text text-anchor="middle" x="3888.5" y="-15.6" font-family="Times,serif" font-size="8.00">prev: 0x60000070c6f0</text>
</g>
<!-- Node0x60000070c6f0&#45;&gt;Node0x600000725a70 -->
<g id="edge31" class="edge">
<title>Node0x60000070c6f0:n&#45;&gt;Node0x600000725a70:n</title>
<path fill="none" stroke="red" d="M3809,-34C3821,-34 3826.25,-34 3834.88,-34"/>
<polygon fill="red" stroke="red" points="3835,-37.5 3845,-34 3835,-30.5 3835,-37.5"/>
</g>
<!-- Node0x600000725ec0 -->
<g id="node33" class="node">
<title>Node0x600000725ec0</title>
<polygon fill="none" stroke="black" points="3968,-9 3968,-77 4056,-77 4056,-9 3968,-9"/>
<text text-anchor="middle" x="4012" y="-66.6" font-family="Times,serif" font-size="8.00">word: inauspicious</text>
<polyline fill="none" stroke="black" points="3968,-60 4056,-60 "/>
<text text-anchor="middle" x="4012" y="-49.6" font-family="Times,serif" font-size="8.00">size: 1</text>
<polyline fill="none" stroke="black" points="3968,-43 4056,-43 "/>
<text text-anchor="middle" x="4012" y="-32.6" font-family="Times,serif" font-size="8.00">next: 0x600000727210</text>
<polyline fill="none" stroke="black" points="3968,-26 4056,-26 "/>
<text text-anchor="middle" x="4012" y="-15.6" font-family="Times,serif" font-size="8.00">prev: 0x600000725a70</text>
</g>
<!-- Node0x600000725a70&#45;&gt;Node0x600000725ec0 -->
<g id="edge32" class="edge">
<title>Node0x600000725a70:n&#45;&gt;Node0x600000725ec0:n</title>
<path fill="none" stroke="red" d="M3932,-34C3944,-34 3949.25,-34 3957.88,-34"/>
<polygon fill="red" stroke="red" points="3958,-37.5 3968,-34 3958,-30.5 3958,-37.5"/>
</g>
<!-- Node0x600000727210 -->
<g id="node34" class="node">
<title>Node0x600000727210</title>
<polygon fill="none" stroke="black" points="4092,-9 4092,-77 4180,-77 4180,-9 4092,-9"/>
<text text-anchor="middle" x="4136" y="-66.6" font-family="Times,serif" font-size="8.00">word: condemned</text>
<polyline fill="none" stroke="black" points="4092,-60 4180,-60 "/>
<text text-anchor="middle" x="4136" y="-49.6" font-family="Times,serif" font-size="8.00">size: 1</text>
<polyline fill="none" stroke="black" points="4092,-43 4180,-43 "/>
<text text-anchor="middle" x="4136" y="-32.6" font-family="Times,serif" font-size="8.00">next: 0x0</text>
<polyline fill="none" stroke="black" points="4092,-26 4180,-26 "/>
<text text-anchor="middle" x="4136" y="-15.6" font-family="Times,serif" font-size="8.00">prev: 0x600000725ec0</text>
</g>
<!-- Node0x600000725ec0&#45;&gt;Node0x600000727210 -->
<g id="edge33" class="edge">
<title>Node0x600000725ec0:n&#45;&gt;Node0x600000727210:n</title>
<path fill="none" stroke="red" d="M4056,-34C4068,-34 4073.25,-34 4081.88,-34"/>
<polygon fill="red" stroke="red" points="4082,-37.5 4092,-34 4082,-30.5 4082,-37.5"/>
</g>
</g>
</svg>
