<?xml version="1.0" encoding="UTF-8" standalone="no"?>
<!DOCTYPE svg PUBLIC "-//W3C//DTD SVG 1.1//EN"
 "http://www.w3.org/Graphics/SVG/1.1/DTD/svg11.dtd">
<!-- Generated by graphviz version 2.50.0 (20211204.2007)
 -->
<!-- Title: G Pages: 1 -->
<svg width="4197pt" height="117pt"
 viewBox="0.00 0.00 4197.00 117.00" xmlns="http://www.w3.org/2000/svg" xmlns:xlink="http://www.w3.org/1999/xlink">
<g id="graph0" class="graph" transform="scale(1 1) rotate(0) translate(4 113)">
<title>G</title>
<polygon fill="white" stroke="transparent" points="-4,4 -4,-113 4193,-113 4193,4 -4,4"/>
<g id="clust1" class="cluster">
<title>cluster285</title>
<polygon fill="none" stroke="black" points="8,-8 8,-101 95,-101 95,-8 8,-8"/>
<text text-anchor="middle" x="51.5" y="-85.8" font-family="Times,serif" font-size="14.00">285</text>
</g>
<g id="clust2" class="cluster">
<title>cluster286</title>
<polygon fill="none" stroke="black" points="131,-8 131,-101 219,-101 219,-8 131,-8"/>
<text text-anchor="middle" x="175" y="-85.8" font-family="Times,serif" font-size="14.00">286</text>
</g>
<g id="clust3" class="cluster">
<title>cluster287</title>
<polygon fill="none" stroke="black" points="255,-8 255,-101 343,-101 343,-8 255,-8"/>
<text text-anchor="middle" x="299" y="-85.8" font-family="Times,serif" font-size="14.00">287</text>
</g>
<g id="clust4" class="cluster">
<title>cluster288</title>
<polygon fill="none" stroke="black" points="379,-8 379,-101 466,-101 466,-8 379,-8"/>
<text text-anchor="middle" x="422.5" y="-85.8" font-family="Times,serif" font-size="14.00">288</text>
</g>
<g id="clust5" class="cluster">
<title>cluster289</title>
<polygon fill="none" stroke="black" points="502,-8 502,-101 590,-101 590,-8 502,-8"/>
<text text-anchor="middle" x="546" y="-85.8" font-family="Times,serif" font-size="14.00">289</text>
</g>
<g id="clust6" class="cluster">
<title>cluster290</title>
<polygon fill="none" stroke="black" points="626,-8 626,-101 714,-101 714,-8 626,-8"/>
<text text-anchor="middle" x="670" y="-85.8" font-family="Times,serif" font-size="14.00">290</text>
</g>
<g id="clust7" class="cluster">
<title>cluster291</title>
<polygon fill="none" stroke="black" points="750,-8 750,-101 838,-101 838,-8 750,-8"/>
<text text-anchor="middle" x="794" y="-85.8" font-family="Times,serif" font-size="14.00">291</text>
</g>
<g id="clust8" class="cluster">
<title>cluster292</title>
<polygon fill="none" stroke="black" points="874,-8 874,-101 961,-101 961,-8 874,-8"/>
<text text-anchor="middle" x="917.5" y="-85.8" font-family="Times,serif" font-size="14.00">292</text>
</g>
<g id="clust9" class="cluster">
<title>cluster293</title>
<polygon fill="none" stroke="black" points="997,-8 997,-101 1085,-101 1085,-8 997,-8"/>
<text text-anchor="middle" x="1041" y="-85.8" font-family="Times,serif" font-size="14.00">293</text>
</g>
<g id="clust10" class="cluster">
<title>cluster294</title>
<polygon fill="none" stroke="black" points="1121,-8 1121,-101 1209,-101 1209,-8 1121,-8"/>
<text text-anchor="middle" x="1165" y="-85.8" font-family="Times,serif" font-size="14.00">294</text>
</g>
<g id="clust11" class="cluster">
<title>cluster295</title>
<polygon fill="none" stroke="black" points="1245,-8 1245,-101 1333,-101 1333,-8 1245,-8"/>
<text text-anchor="middle" x="1289" y="-85.8" font-family="Times,serif" font-size="14.00">295</text>
</g>
<g id="clust12" class="cluster">
<title>cluster296</title>
<polygon fill="none" stroke="black" points="1369,-8 1369,-101 1457,-101 1457,-8 1369,-8"/>
<text text-anchor="middle" x="1413" y="-85.8" font-family="Times,serif" font-size="14.00">296</text>
</g>
<g id="clust13" class="cluster">
<title>cluster297</title>
<polygon fill="none" stroke="black" points="1493,-8 1493,-101 1581,-101 1581,-8 1493,-8"/>
<text text-anchor="middle" x="1537" y="-85.8" font-family="Times,serif" font-size="14.00">297</text>
</g>
<g id="clust14" class="cluster">
<title>cluster298</title>
<polygon fill="none" stroke="black" points="1617,-8 1617,-101 1704,-101 1704,-8 1617,-8"/>
<text text-anchor="middle" x="1660.5" y="-85.8" font-family="Times,serif" font-size="14.00">298</text>
</g>
<g id="clust15" class="cluster">
<title>cluster299</title>
<polygon fill="none" stroke="black" points="1740,-8 1740,-101 1828,-101 1828,-8 1740,-8"/>
<text text-anchor="middle" x="1784" y="-85.8" font-family="Times,serif" font-size="14.00">299</text>
</g>
<g id="clust16" class="cluster">
<title>cluster300</title>
<polygon fill="none" stroke="black" points="1864,-8 1864,-101 1952,-101 1952,-8 1864,-8"/>
<text text-anchor="middle" x="1908" y="-85.8" font-family="Times,serif" font-size="14.00">300</text>
</g>
<g id="clust17" class="cluster">
<title>cluster301</title>
<polygon fill="none" stroke="black" points="1988,-8 1988,-101 2075,-101 2075,-8 1988,-8"/>
<text text-anchor="middle" x="2031.5" y="-85.8" font-family="Times,serif" font-size="14.00">301</text>
</g>
<g id="clust18" class="cluster">
<title>cluster302</title>
<polygon fill="none" stroke="black" points="2111,-8 2111,-101 2198,-101 2198,-8 2111,-8"/>
<text text-anchor="middle" x="2154.5" y="-85.8" font-family="Times,serif" font-size="14.00">302</text>
</g>
<g id="clust19" class="cluster">
<title>cluster303</title>
<polygon fill="none" stroke="black" points="2234,-8 2234,-101 2322,-101 2322,-8 2234,-8"/>
<text text-anchor="middle" x="2278" y="-85.8" font-family="Times,serif" font-size="14.00">303</text>
</g>
<g id="clust20" class="cluster">
<title>cluster304</title>
<polygon fill="none" stroke="black" points="2358,-8 2358,-101 2445,-101 2445,-8 2358,-8"/>
<text text-anchor="middle" x="2401.5" y="-85.8" font-family="Times,serif" font-size="14.00">304</text>
</g>
<g id="clust21" class="cluster">
<title>cluster305</title>
<polygon fill="none" stroke="black" points="2481,-8 2481,-101 2569,-101 2569,-8 2481,-8"/>
<text text-anchor="middle" x="2525" y="-85.8" font-family="Times,serif" font-size="14.00">305</text>
</g>
<g id="clust22" class="cluster">
<title>cluster306</title>
<polygon fill="none" stroke="black" points="2605,-8 2605,-101 2693,-101 2693,-8 2605,-8"/>
<text text-anchor="middle" x="2649" y="-85.8" font-family="Times,serif" font-size="14.00">306</text>
</g>
<g id="clust23" class="cluster">
<title>cluster307</title>
<polygon fill="none" stroke="black" points="2729,-8 2729,-101 2817,-101 2817,-8 2729,-8"/>
<text text-anchor="middle" x="2773" y="-85.8" font-family="Times,serif" font-size="14.00">307</text>
</g>
<g id="clust24" class="cluster">
<title>cluster308</title>
<polygon fill="none" stroke="black" points="2853,-8 2853,-101 2941,-101 2941,-8 2853,-8"/>
<text text-anchor="middle" x="2897" y="-85.8" font-family="Times,serif" font-size="14.00">308</text>
</g>
<g id="clust25" class="cluster">
<title>cluster309</title>
<polygon fill="none" stroke="black" points="2977,-8 2977,-101 3065,-101 3065,-8 2977,-8"/>
<text text-anchor="middle" x="3021" y="-85.8" font-family="Times,serif" font-size="14.00">309</text>
</g>
<g id="clust26" class="cluster">
<title>cluster310</title>
<polygon fill="none" stroke="black" points="3101,-8 3101,-101 3189,-101 3189,-8 3101,-8"/>
<text text-anchor="middle" x="3145" y="-85.8" font-family="Times,serif" font-size="14.00">310</text>
</g>
<g id="clust27" class="cluster">
<title>cluster311</title>
<polygon fill="none" stroke="black" points="3225,-8 3225,-101 3313,-101 3313,-8 3225,-8"/>
<text text-anchor="middle" x="3269" y="-85.8" font-family="Times,serif" font-size="14.00">311</text>
</g>
<g id="clust28" class="cluster">
<title>cluster312</title>
<polygon fill="none" stroke="black" points="3349,-8 3349,-101 3437,-101 3437,-8 3349,-8"/>
<text text-anchor="middle" x="3393" y="-85.8" font-family="Times,serif" font-size="14.00">312</text>
</g>
<g id="clust29" class="cluster">
<title>cluster313</title>
<polygon fill="none" stroke="black" points="3473,-8 3473,-101 3561,-101 3561,-8 3473,-8"/>
<text text-anchor="middle" x="3517" y="-85.8" font-family="Times,serif" font-size="14.00">313</text>
</g>
<g id="clust30" class="cluster">
<title>cluster314</title>
<polygon fill="none" stroke="black" points="3597,-8 3597,-101 3685,-101 3685,-8 3597,-8"/>
<text text-anchor="middle" x="3641" y="-85.8" font-family="Times,serif" font-size="14.00">314</text>
</g>
<g id="clust31" class="cluster">
<title>cluster315</title>
<polygon fill="none" stroke="black" points="3721,-8 3721,-101 3809,-101 3809,-8 3721,-8"/>
<text text-anchor="middle" x="3765" y="-85.8" font-family="Times,serif" font-size="14.00">315</text>
</g>
<g id="clust32" class="cluster">
<title>cluster316</title>
<polygon fill="none" stroke="black" points="3845,-8 3845,-101 3933,-101 3933,-8 3845,-8"/>
<text text-anchor="middle" x="3889" y="-85.8" font-family="Times,serif" font-size="14.00">316</text>
</g>
<g id="clust33" class="cluster">
<title>cluster317</title>
<polygon fill="none" stroke="black" points="3969,-8 3969,-101 4057,-101 4057,-8 3969,-8"/>
<text text-anchor="middle" x="4013" y="-85.8" font-family="Times,serif" font-size="14.00">317</text>
</g>
<g id="clust34" class="cluster">
<title>cluster318</title>
<polygon fill="none" stroke="black" points="4093,-8 4093,-101 4181,-101 4181,-8 4093,-8"/>
<text text-anchor="middle" x="4137" y="-85.8" font-family="Times,serif" font-size="14.00">318</text>
</g>
<!-- Node0x600001e60510 -->
<g id="node1" class="node">
<title>Node0x600001e60510</title>
<polygon fill="none" stroke="black" points="8,-9 8,-77 95,-77 95,-9 8,-9"/>
<text text-anchor="middle" x="51.5" y="-66.6" font-family="Times,serif" font-size="8.00">word: to</text>
<polyline fill="none" stroke="black" points="8,-60 95,-60 "/>
<text text-anchor="middle" x="51.5" y="-49.6" font-family="Times,serif" font-size="8.00">size: 489</text>
<polyline fill="none" stroke="black" points="8,-43 95,-43 "/>
<text text-anchor="middle" x="51.5" y="-32.6" font-family="Times,serif" font-size="8.00">next: 0x600001e68390</text>
<polyline fill="none" stroke="black" points="8,-26 95,-26 "/>
<text text-anchor="middle" x="51.5" y="-15.6" font-family="Times,serif" font-size="8.00">prev: 0x0</text>
</g>
<!-- Node0x600001e68390 -->
<g id="node2" class="node">
<title>Node0x600001e68390</title>
<polygon fill="none" stroke="black" points="131,-9 131,-77 219,-77 219,-9 131,-9"/>
<text text-anchor="middle" x="175" y="-66.6" font-family="Times,serif" font-size="8.00">word: fight</text>
<polyline fill="none" stroke="black" points="131,-60 219,-60 "/>
<text text-anchor="middle" x="175" y="-49.6" font-family="Times,serif" font-size="8.00">size: 6</text>
<polyline fill="none" stroke="black" points="131,-43 219,-43 "/>
<text text-anchor="middle" x="175" y="-32.6" font-family="Times,serif" font-size="8.00">next: 0x600001e68ff0</text>
<polyline fill="none" stroke="black" points="131,-26 219,-26 "/>
<text text-anchor="middle" x="175" y="-15.6" font-family="Times,serif" font-size="8.00">prev: 0x600001e60510</text>
</g>
<!-- Node0x600001e60510&#45;&gt;Node0x600001e68390 -->
<g id="edge1" class="edge">
<title>Node0x600001e60510:n&#45;&gt;Node0x600001e68390:n</title>
<path fill="none" stroke="red" d="M95,-34C107,-34 112.25,-34 120.88,-34"/>
<polygon fill="red" stroke="red" points="121,-37.5 131,-34 121,-30.5 121,-37.5"/>
</g>
<!-- Node0x600001e68ff0 -->
<g id="node3" class="node">
<title>Node0x600001e68ff0</title>
<polygon fill="none" stroke="black" points="255,-9 255,-77 343,-77 343,-9 255,-9"/>
<text text-anchor="middle" x="299" y="-66.6" font-family="Times,serif" font-size="8.00">word: Hold</text>
<polyline fill="none" stroke="black" points="255,-60 343,-60 "/>
<text text-anchor="middle" x="299" y="-49.6" font-family="Times,serif" font-size="8.00">size: 12</text>
<polyline fill="none" stroke="black" points="255,-43 343,-43 "/>
<text text-anchor="middle" x="299" y="-32.6" font-family="Times,serif" font-size="8.00">next: 0x600001e6a2e0</text>
<polyline fill="none" stroke="black" points="255,-26 343,-26 "/>
<text text-anchor="middle" x="299" y="-15.6" font-family="Times,serif" font-size="8.00">prev: 0x600001e68390</text>
</g>
<!-- Node0x600001e68390&#45;&gt;Node0x600001e68ff0 -->
<g id="edge2" class="edge">
<title>Node0x600001e68390:n&#45;&gt;Node0x600001e68ff0:n</title>
<path fill="none" stroke="red" d="M219,-34C231,-34 236.25,-34 244.88,-34"/>
<polygon fill="red" stroke="red" points="245,-37.5 255,-34 245,-30.5 245,-37.5"/>
</g>
<!-- Node0x600001e6a2e0 -->
<g id="node4" class="node">
<title>Node0x600001e6a2e0</title>
<polygon fill="none" stroke="black" points="379,-9 379,-77 466,-77 466,-9 379,-9"/>
<text text-anchor="middle" x="422.5" y="-66.6" font-family="Times,serif" font-size="8.00">word: winds</text>
<polyline fill="none" stroke="black" points="379,-60 466,-60 "/>
<text text-anchor="middle" x="422.5" y="-49.6" font-family="Times,serif" font-size="8.00">size: 2</text>
<polyline fill="none" stroke="black" points="379,-43 466,-43 "/>
<text text-anchor="middle" x="422.5" y="-32.6" font-family="Times,serif" font-size="8.00">next: 0x600001e6ab50</text>
<polyline fill="none" stroke="black" points="379,-26 466,-26 "/>
<text text-anchor="middle" x="422.5" y="-15.6" font-family="Times,serif" font-size="8.00">prev: 0x600001e68ff0</text>
</g>
<!-- Node0x600001e68ff0&#45;&gt;Node0x600001e6a2e0 -->
<g id="edge3" class="edge">
<title>Node0x600001e68ff0:n&#45;&gt;Node0x600001e6a2e0:n</title>
<path fill="none" stroke="red" d="M343,-34C355,-34 360.25,-34 368.88,-34"/>
<polygon fill="red" stroke="red" points="369,-37.5 379,-34 369,-30.5 369,-37.5"/>
</g>
<!-- Node0x600001e6ab50 -->
<g id="node5" class="node">
<title>Node0x600001e6ab50</title>
<polygon fill="none" stroke="black" points="502,-9 502,-77 590,-77 590,-9 502,-9"/>
<text text-anchor="middle" x="546" y="-66.6" font-family="Times,serif" font-size="8.00">word: Towards</text>
<polyline fill="none" stroke="black" points="502,-60 590,-60 "/>
<text text-anchor="middle" x="546" y="-49.6" font-family="Times,serif" font-size="8.00">size: 2</text>
<polyline fill="none" stroke="black" points="502,-43 590,-43 "/>
<text text-anchor="middle" x="546" y="-32.6" font-family="Times,serif" font-size="8.00">next: 0x600001e6c300</text>
<polyline fill="none" stroke="black" points="502,-26 590,-26 "/>
<text text-anchor="middle" x="546" y="-15.6" font-family="Times,serif" font-size="8.00">prev: 0x600001e6a2e0</text>
</g>
<!-- Node0x600001e6a2e0&#45;&gt;Node0x600001e6ab50 -->
<g id="edge4" class="edge">
<title>Node0x600001e6a2e0:n&#45;&gt;Node0x600001e6ab50:n</title>
<path fill="none" stroke="red" d="M466,-34C478,-34 483.25,-34 491.88,-34"/>
<polygon fill="red" stroke="red" points="492,-37.5 502,-34 492,-30.5 492,-37.5"/>
</g>
<!-- Node0x600001e6c300 -->
<g id="node6" class="node">
<title>Node0x600001e6c300</title>
<polygon fill="none" stroke="black" points="626,-9 626,-77 714,-77 714,-9 626,-9"/>
<text text-anchor="middle" x="670" y="-66.6" font-family="Times,serif" font-size="8.00">word: hence</text>
<polyline fill="none" stroke="black" points="626,-60 714,-60 "/>
<text text-anchor="middle" x="670" y="-49.6" font-family="Times,serif" font-size="8.00">size: 22</text>
<polyline fill="none" stroke="black" points="626,-43 714,-43 "/>
<text text-anchor="middle" x="670" y="-32.6" font-family="Times,serif" font-size="8.00">next: 0x600001e6f6c0</text>
<polyline fill="none" stroke="black" points="626,-26 714,-26 "/>
<text text-anchor="middle" x="670" y="-15.6" font-family="Times,serif" font-size="8.00">prev: 0x600001e6ab50</text>
</g>
<!-- Node0x600001e6ab50&#45;&gt;Node0x600001e6c300 -->
<g id="edge5" class="edge">
<title>Node0x600001e6ab50:n&#45;&gt;Node0x600001e6c300:n</title>
<path fill="none" stroke="red" d="M590,-34C602,-34 607.25,-34 615.88,-34"/>
<polygon fill="red" stroke="red" points="616,-37.5 626,-34 616,-30.5 616,-37.5"/>
</g>
<!-- Node0x600001e6f6c0 -->
<g id="node7" class="node">
<title>Node0x600001e6f6c0</title>
<polygon fill="none" stroke="black" points="750,-9 750,-77 838,-77 838,-9 750,-9"/>
<text text-anchor="middle" x="794" y="-66.6" font-family="Times,serif" font-size="8.00">word: Inherit</text>
<polyline fill="none" stroke="black" points="750,-60 838,-60 "/>
<text text-anchor="middle" x="794" y="-49.6" font-family="Times,serif" font-size="8.00">size: 1</text>
<polyline fill="none" stroke="black" points="750,-43 838,-43 "/>
<text text-anchor="middle" x="794" y="-32.6" font-family="Times,serif" font-size="8.00">next: 0x600001e705a0</text>
<polyline fill="none" stroke="black" points="750,-26 838,-26 "/>
<text text-anchor="middle" x="794" y="-15.6" font-family="Times,serif" font-size="8.00">prev: 0x600001e6c300</text>
</g>
<!-- Node0x600001e6c300&#45;&gt;Node0x600001e6f6c0 -->
<g id="edge6" class="edge">
<title>Node0x600001e6c300:n&#45;&gt;Node0x600001e6f6c0:n</title>
<path fill="none" stroke="red" d="M714,-34C726,-34 731.25,-34 739.88,-34"/>
<polygon fill="red" stroke="red" points="740,-37.5 750,-34 740,-30.5 740,-37.5"/>
</g>
<!-- Node0x600001e705a0 -->
<g id="node8" class="node">
<title>Node0x600001e705a0</title>
<polygon fill="none" stroke="black" points="874,-9 874,-77 961,-77 961,-9 874,-9"/>
<text text-anchor="middle" x="917.5" y="-66.6" font-family="Times,serif" font-size="8.00">word: God</text>
<polyline fill="none" stroke="black" points="874,-60 961,-60 "/>
<text text-anchor="middle" x="917.5" y="-49.6" font-family="Times,serif" font-size="8.00">size: 33</text>
<polyline fill="none" stroke="black" points="874,-43 961,-43 "/>
<text text-anchor="middle" x="917.5" y="-32.6" font-family="Times,serif" font-size="8.00">next: 0x600001e642a0</text>
<polyline fill="none" stroke="black" points="874,-26 961,-26 "/>
<text text-anchor="middle" x="917.5" y="-15.6" font-family="Times,serif" font-size="8.00">prev: 0x600001e6f6c0</text>
</g>
<!-- Node0x600001e6f6c0&#45;&gt;Node0x600001e705a0 -->
<g id="edge7" class="edge">
<title>Node0x600001e6f6c0:n&#45;&gt;Node0x600001e705a0:n</title>
<path fill="none" stroke="red" d="M838,-34C850,-34 855.25,-34 863.88,-34"/>
<polygon fill="red" stroke="red" points="864,-37.5 874,-34 864,-30.5 864,-37.5"/>
</g>
<!-- Node0x600001e642a0 -->
<g id="node9" class="node">
<title>Node0x600001e642a0</title>
<polygon fill="none" stroke="black" points="997,-9 997,-77 1085,-77 1085,-9 997,-9"/>
<text text-anchor="middle" x="1041" y="-66.6" font-family="Times,serif" font-size="8.00">word: falsehood</text>
<polyline fill="none" stroke="black" points="997,-60 1085,-60 "/>
<text text-anchor="middle" x="1041" y="-49.6" font-family="Times,serif" font-size="8.00">size: 1</text>
<polyline fill="none" stroke="black" points="997,-43 1085,-43 "/>
<text text-anchor="middle" x="1041" y="-32.6" font-family="Times,serif" font-size="8.00">next: 0x600001e64cc0</text>
<polyline fill="none" stroke="black" points="997,-26 1085,-26 "/>
<text text-anchor="middle" x="1041" y="-15.6" font-family="Times,serif" font-size="8.00">prev: 0x600001e705a0</text>
</g>
<!-- Node0x600001e705a0&#45;&gt;Node0x600001e642a0 -->
<g id="edge8" class="edge">
<title>Node0x600001e705a0:n&#45;&gt;Node0x600001e642a0:n</title>
<path fill="none" stroke="red" d="M961,-34C973,-34 978.25,-34 986.88,-34"/>
<polygon fill="red" stroke="red" points="987,-37.5 997,-34 987,-30.5 987,-37.5"/>
</g>
<!-- Node0x600001e64cc0 -->
<g id="node10" class="node">
<title>Node0x600001e64cc0</title>
<polygon fill="none" stroke="black" points="1121,-9 1121,-77 1209,-77 1209,-9 1121,-9"/>
<text text-anchor="middle" x="1165" y="-66.6" font-family="Times,serif" font-size="8.00">word: odd</text>
<polyline fill="none" stroke="black" points="1121,-60 1209,-60 "/>
<text text-anchor="middle" x="1165" y="-49.6" font-family="Times,serif" font-size="8.00">size: 2</text>
<polyline fill="none" stroke="black" points="1121,-43 1209,-43 "/>
<text text-anchor="middle" x="1165" y="-32.6" font-family="Times,serif" font-size="8.00">next: 0x600001e66c40</text>
<polyline fill="none" stroke="black" points="1121,-26 1209,-26 "/>
<text text-anchor="middle" x="1165" y="-15.6" font-family="Times,serif" font-size="8.00">prev: 0x600001e642a0</text>
</g>
<!-- Node0x600001e642a0&#45;&gt;Node0x600001e64cc0 -->
<g id="edge9" class="edge">
<title>Node0x600001e642a0:n&#45;&gt;Node0x600001e64cc0:n</title>
<path fill="none" stroke="red" d="M1085,-34C1097,-34 1102.25,-34 1110.88,-34"/>
<polygon fill="red" stroke="red" points="1111,-37.5 1121,-34 1111,-30.5 1111,-37.5"/>
</g>
<!-- Node0x600001e66c40 -->
<g id="node11" class="node">
<title>Node0x600001e66c40</title>
<polygon fill="none" stroke="black" points="1245,-9 1245,-77 1333,-77 1333,-9 1245,-9"/>
<text text-anchor="middle" x="1289" y="-66.6" font-family="Times,serif" font-size="8.00">word: prologue</text>
<polyline fill="none" stroke="black" points="1245,-60 1333,-60 "/>
<text text-anchor="middle" x="1289" y="-49.6" font-family="Times,serif" font-size="8.00">size: 1</text>
<polyline fill="none" stroke="black" points="1245,-43 1333,-43 "/>
<text text-anchor="middle" x="1289" y="-32.6" font-family="Times,serif" font-size="8.00">next: 0x600001e67d80</text>
<polyline fill="none" stroke="black" points="1245,-26 1333,-26 "/>
<text text-anchor="middle" x="1289" y="-15.6" font-family="Times,serif" font-size="8.00">prev: 0x600001e64cc0</text>
</g>
<!-- Node0x600001e64cc0&#45;&gt;Node0x600001e66c40 -->
<g id="edge10" class="edge">
<title>Node0x600001e64cc0:n&#45;&gt;Node0x600001e66c40:n</title>
<path fill="none" stroke="red" d="M1209,-34C1221,-34 1226.25,-34 1234.88,-34"/>
<polygon fill="red" stroke="red" points="1235,-37.5 1245,-34 1235,-30.5 1235,-37.5"/>
</g>
<!-- Node0x600001e67d80 -->
<g id="node12" class="node">
<title>Node0x600001e67d80</title>
<polygon fill="none" stroke="black" points="1369,-9 1369,-77 1457,-77 1457,-9 1369,-9"/>
<text text-anchor="middle" x="1413" y="-66.6" font-family="Times,serif" font-size="8.00">word: midwife</text>
<polyline fill="none" stroke="black" points="1369,-60 1457,-60 "/>
<text text-anchor="middle" x="1413" y="-49.6" font-family="Times,serif" font-size="8.00">size: 1</text>
<polyline fill="none" stroke="black" points="1369,-43 1457,-43 "/>
<text text-anchor="middle" x="1413" y="-32.6" font-family="Times,serif" font-size="8.00">next: 0x600001e74cf0</text>
<polyline fill="none" stroke="black" points="1369,-26 1457,-26 "/>
<text text-anchor="middle" x="1413" y="-15.6" font-family="Times,serif" font-size="8.00">prev: 0x600001e66c40</text>
</g>
<!-- Node0x600001e66c40&#45;&gt;Node0x600001e67d80 -->
<g id="edge11" class="edge">
<title>Node0x600001e66c40:n&#45;&gt;Node0x600001e67d80:n</title>
<path fill="none" stroke="red" d="M1333,-34C1345,-34 1350.25,-34 1358.88,-34"/>
<polygon fill="red" stroke="red" points="1359,-37.5 1369,-34 1359,-30.5 1359,-37.5"/>
</g>
<!-- Node0x600001e74cf0 -->
<g id="node13" class="node">
<title>Node0x600001e74cf0</title>
<polygon fill="none" stroke="black" points="1493,-9 1493,-77 1581,-77 1581,-9 1493,-9"/>
<text text-anchor="middle" x="1537" y="-66.6" font-family="Times,serif" font-size="8.00">word: cutting</text>
<polyline fill="none" stroke="black" points="1493,-60 1581,-60 "/>
<text text-anchor="middle" x="1537" y="-49.6" font-family="Times,serif" font-size="8.00">size: 1</text>
<polyline fill="none" stroke="black" points="1493,-43 1581,-43 "/>
<text text-anchor="middle" x="1537" y="-32.6" font-family="Times,serif" font-size="8.00">next: 0x600001e75170</text>
<polyline fill="none" stroke="black" points="1493,-26 1581,-26 "/>
<text text-anchor="middle" x="1537" y="-15.6" font-family="Times,serif" font-size="8.00">prev: 0x600001e67d80</text>
</g>
<!-- Node0x600001e67d80&#45;&gt;Node0x600001e74cf0 -->
<g id="edge12" class="edge">
<title>Node0x600001e67d80:n&#45;&gt;Node0x600001e74cf0:n</title>
<path fill="none" stroke="red" d="M1457,-34C1469,-34 1474.25,-34 1482.88,-34"/>
<polygon fill="red" stroke="red" points="1483,-37.5 1493,-34 1483,-30.5 1483,-37.5"/>
</g>
<!-- Node0x600001e75170 -->
<g id="node14" class="node">
<title>Node0x600001e75170</title>
<polygon fill="none" stroke="black" points="1617,-9 1617,-77 1704,-77 1704,-9 1617,-9"/>
<text text-anchor="middle" x="1660.5" y="-66.6" font-family="Times,serif" font-size="8.00">word: foul</text>
<polyline fill="none" stroke="black" points="1617,-60 1704,-60 "/>
<text text-anchor="middle" x="1660.5" y="-49.6" font-family="Times,serif" font-size="8.00">size: 4</text>
<polyline fill="none" stroke="black" points="1617,-43 1704,-43 "/>
<text text-anchor="middle" x="1660.5" y="-32.6" font-family="Times,serif" font-size="8.00">next: 0x600001e772d0</text>
<polyline fill="none" stroke="black" points="1617,-26 1704,-26 "/>
<text text-anchor="middle" x="1660.5" y="-15.6" font-family="Times,serif" font-size="8.00">prev: 0x600001e74cf0</text>
</g>
<!-- Node0x600001e74cf0&#45;&gt;Node0x600001e75170 -->
<g id="edge13" class="edge">
<title>Node0x600001e74cf0:n&#45;&gt;Node0x600001e75170:n</title>
<path fill="none" stroke="red" d="M1581,-34C1593,-34 1598.25,-34 1606.88,-34"/>
<polygon fill="red" stroke="red" points="1607,-37.5 1617,-34 1607,-30.5 1607,-37.5"/>
</g>
<!-- Node0x600001e772d0 -->
<g id="node15" class="node">
<title>Node0x600001e772d0</title>
<polygon fill="none" stroke="black" points="1740,-9 1740,-77 1828,-77 1828,-9 1740,-9"/>
<text text-anchor="middle" x="1784" y="-66.6" font-family="Times,serif" font-size="8.00">word: hoop</text>
<polyline fill="none" stroke="black" points="1740,-60 1828,-60 "/>
<text text-anchor="middle" x="1784" y="-49.6" font-family="Times,serif" font-size="8.00">size: 1</text>
<polyline fill="none" stroke="black" points="1740,-43 1828,-43 "/>
<text text-anchor="middle" x="1784" y="-32.6" font-family="Times,serif" font-size="8.00">next: 0x600001e77f00</text>
<polyline fill="none" stroke="black" points="1740,-26 1828,-26 "/>
<text text-anchor="middle" x="1784" y="-15.6" font-family="Times,serif" font-size="8.00">prev: 0x600001e75170</text>
</g>
<!-- Node0x600001e75170&#45;&gt;Node0x600001e772d0 -->
<g id="edge14" class="edge">
<title>Node0x600001e75170:n&#45;&gt;Node0x600001e772d0:n</title>
<path fill="none" stroke="red" d="M1704,-34C1716,-34 1721.25,-34 1729.88,-34"/>
<polygon fill="red" stroke="red" points="1730,-37.5 1740,-34 1730,-30.5 1730,-37.5"/>
</g>
<!-- Node0x600001e77f00 -->
<g id="node16" class="node">
<title>Node0x600001e77f00</title>
<polygon fill="none" stroke="black" points="1864,-9 1864,-77 1952,-77 1952,-9 1864,-9"/>
<text text-anchor="middle" x="1908" y="-66.6" font-family="Times,serif" font-size="8.00">word: yond</text>
<polyline fill="none" stroke="black" points="1864,-60 1952,-60 "/>
<text text-anchor="middle" x="1908" y="-49.6" font-family="Times,serif" font-size="8.00">size: 4</text>
<polyline fill="none" stroke="black" points="1864,-43 1952,-43 "/>
<text text-anchor="middle" x="1908" y="-32.6" font-family="Times,serif" font-size="8.00">next: 0x600001e7dbf0</text>
<polyline fill="none" stroke="black" points="1864,-26 1952,-26 "/>
<text text-anchor="middle" x="1908" y="-15.6" font-family="Times,serif" font-size="8.00">prev: 0x600001e772d0</text>
</g>
<!-- Node0x600001e772d0&#45;&gt;Node0x600001e77f00 -->
<g id="edge15" class="edge">
<title>Node0x600001e772d0:n&#45;&gt;Node0x600001e77f00:n</title>
<path fill="none" stroke="red" d="M1828,-34C1840,-34 1845.25,-34 1853.88,-34"/>
<polygon fill="red" stroke="red" points="1854,-37.5 1864,-34 1854,-30.5 1854,-37.5"/>
</g>
<!-- Node0x600001e7dbf0 -->
<g id="node17" class="node">
<title>Node0x600001e7dbf0</title>
<polygon fill="none" stroke="black" points="1988,-9 1988,-77 2075,-77 2075,-9 1988,-9"/>
<text text-anchor="middle" x="2031.5" y="-66.6" font-family="Times,serif" font-size="8.00">word: wanting</text>
<polyline fill="none" stroke="black" points="1988,-60 2075,-60 "/>
<text text-anchor="middle" x="2031.5" y="-49.6" font-family="Times,serif" font-size="8.00">size: 2</text>
<polyline fill="none" stroke="black" points="1988,-43 2075,-43 "/>
<text text-anchor="middle" x="2031.5" y="-32.6" font-family="Times,serif" font-size="8.00">next: 0x600001e7e4c0</text>
<polyline fill="none" stroke="black" points="1988,-26 2075,-26 "/>
<text text-anchor="middle" x="2031.5" y="-15.6" font-family="Times,serif" font-size="8.00">prev: 0x600001e77f00</text>
</g>
<!-- Node0x600001e77f00&#45;&gt;Node0x600001e7dbf0 -->
<g id="edge16" class="edge">
<title>Node0x600001e77f00:n&#45;&gt;Node0x600001e7dbf0:n</title>
<path fill="none" stroke="red" d="M1952,-34C1964,-34 1969.25,-34 1977.88,-34"/>
<polygon fill="red" stroke="red" points="1978,-37.5 1988,-34 1978,-30.5 1978,-37.5"/>
</g>
<!-- Node0x600001e7e4c0 -->
<g id="node18" class="node">
<title>Node0x600001e7e4c0</title>
<polygon fill="none" stroke="black" points="2111,-9 2111,-77 2198,-77 2198,-9 2111,-9"/>
<text text-anchor="middle" x="2154.5" y="-66.6" font-family="Times,serif" font-size="8.00">word: likewise</text>
<polyline fill="none" stroke="black" points="2111,-60 2198,-60 "/>
<text text-anchor="middle" x="2154.5" y="-49.6" font-family="Times,serif" font-size="8.00">size: 2</text>
<polyline fill="none" stroke="black" points="2111,-43 2198,-43 "/>
<text text-anchor="middle" x="2154.5" y="-32.6" font-family="Times,serif" font-size="8.00">next: 0x600001e7f450</text>
<polyline fill="none" stroke="black" points="2111,-26 2198,-26 "/>
<text text-anchor="middle" x="2154.5" y="-15.6" font-family="Times,serif" font-size="8.00">prev: 0x600001e7dbf0</text>
</g>
<!-- Node0x600001e7dbf0&#45;&gt;Node0x600001e7e4c0 -->
<g id="edge17" class="edge">
<title>Node0x600001e7dbf0:n&#45;&gt;Node0x600001e7e4c0:n</title>
<path fill="none" stroke="red" d="M2075,-34C2087,-34 2092.25,-34 2100.88,-34"/>
<polygon fill="red" stroke="red" points="2101,-37.5 2111,-34 2101,-30.5 2101,-37.5"/>
</g>
<!-- Node0x600001e7f450 -->
<g id="node19" class="node">
<title>Node0x600001e7f450</title>
<polygon fill="none" stroke="black" points="2234,-9 2234,-77 2322,-77 2322,-9 2234,-9"/>
<text text-anchor="middle" x="2278" y="-66.6" font-family="Times,serif" font-size="8.00">word: gyves</text>
<polyline fill="none" stroke="black" points="2234,-60 2322,-60 "/>
<text text-anchor="middle" x="2278" y="-49.6" font-family="Times,serif" font-size="8.00">size: 1</text>
<polyline fill="none" stroke="black" points="2234,-43 2322,-43 "/>
<text text-anchor="middle" x="2278" y="-32.6" font-family="Times,serif" font-size="8.00">next: 0x600001e419e0</text>
<polyline fill="none" stroke="black" points="2234,-26 2322,-26 "/>
<text text-anchor="middle" x="2278" y="-15.6" font-family="Times,serif" font-size="8.00">prev: 0x600001e7e4c0</text>
</g>
<!-- Node0x600001e7e4c0&#45;&gt;Node0x600001e7f450 -->
<g id="edge18" class="edge">
<title>Node0x600001e7e4c0:n&#45;&gt;Node0x600001e7f450:n</title>
<path fill="none" stroke="red" d="M2198,-34C2210,-34 2215.25,-34 2223.88,-34"/>
<polygon fill="red" stroke="red" points="2224,-37.5 2234,-34 2224,-30.5 2224,-37.5"/>
</g>
<!-- Node0x600001e419e0 -->
<g id="node20" class="node">
<title>Node0x600001e419e0</title>
<polygon fill="none" stroke="black" points="2358,-9 2358,-77 2445,-77 2445,-9 2358,-9"/>
<text text-anchor="middle" x="2401.5" y="-66.6" font-family="Times,serif" font-size="8.00">word: immortal</text>
<polyline fill="none" stroke="black" points="2358,-60 2445,-60 "/>
<text text-anchor="middle" x="2401.5" y="-49.6" font-family="Times,serif" font-size="8.00">size: 3</text>
<polyline fill="none" stroke="black" points="2358,-43 2445,-43 "/>
<text text-anchor="middle" x="2401.5" y="-32.6" font-family="Times,serif" font-size="8.00">next: 0x600001e45830</text>
<polyline fill="none" stroke="black" points="2358,-26 2445,-26 "/>
<text text-anchor="middle" x="2401.5" y="-15.6" font-family="Times,serif" font-size="8.00">prev: 0x600001e7f450</text>
</g>
<!-- Node0x600001e7f450&#45;&gt;Node0x600001e419e0 -->
<g id="edge19" class="edge">
<title>Node0x600001e7f450:n&#45;&gt;Node0x600001e419e0:n</title>
<path fill="none" stroke="red" d="M2322,-34C2334,-34 2339.25,-34 2347.88,-34"/>
<polygon fill="red" stroke="red" points="2348,-37.5 2358,-34 2348,-30.5 2348,-37.5"/>
</g>
<!-- Node0x600001e45830 -->
<g id="node21" class="node">
<title>Node0x600001e45830</title>
<polygon fill="none" stroke="black" points="2481,-9 2481,-77 2569,-77 2569,-9 2481,-9"/>
<text text-anchor="middle" x="2525" y="-66.6" font-family="Times,serif" font-size="8.00">word: sweeten</text>
<polyline fill="none" stroke="black" points="2481,-60 2569,-60 "/>
<text text-anchor="middle" x="2525" y="-49.6" font-family="Times,serif" font-size="8.00">size: 1</text>
<polyline fill="none" stroke="black" points="2481,-43 2569,-43 "/>
<text text-anchor="middle" x="2525" y="-32.6" font-family="Times,serif" font-size="8.00">next: 0x600001e46280</text>
<polyline fill="none" stroke="black" points="2481,-26 2569,-26 "/>
<text text-anchor="middle" x="2525" y="-15.6" font-family="Times,serif" font-size="8.00">prev: 0x600001e419e0</text>
</g>
<!-- Node0x600001e419e0&#45;&gt;Node0x600001e45830 -->
<g id="edge20" class="edge">
<title>Node0x600001e419e0:n&#45;&gt;Node0x600001e45830:n</title>
<path fill="none" stroke="red" d="M2445,-34C2457,-34 2462.25,-34 2470.88,-34"/>
<polygon fill="red" stroke="red" points="2471,-37.5 2481,-34 2471,-30.5 2471,-37.5"/>
</g>
<!-- Node0x600001e46280 -->
<g id="node22" class="node">
<title>Node0x600001e46280</title>
<polygon fill="none" stroke="black" points="2605,-9 2605,-77 2693,-77 2693,-9 2605,-9"/>
<text text-anchor="middle" x="2649" y="-66.6" font-family="Times,serif" font-size="8.00">word: buy</text>
<polyline fill="none" stroke="black" points="2605,-60 2693,-60 "/>
<text text-anchor="middle" x="2649" y="-49.6" font-family="Times,serif" font-size="8.00">size: 2</text>
<polyline fill="none" stroke="black" points="2605,-43 2693,-43 "/>
<text text-anchor="middle" x="2649" y="-32.6" font-family="Times,serif" font-size="8.00">next: 0x600001e47540</text>
<polyline fill="none" stroke="black" points="2605,-26 2693,-26 "/>
<text text-anchor="middle" x="2649" y="-15.6" font-family="Times,serif" font-size="8.00">prev: 0x600001e45830</text>
</g>
<!-- Node0x600001e45830&#45;&gt;Node0x600001e46280 -->
<g id="edge21" class="edge">
<title>Node0x600001e45830:n&#45;&gt;Node0x600001e46280:n</title>
<path fill="none" stroke="red" d="M2569,-34C2581,-34 2586.25,-34 2594.88,-34"/>
<polygon fill="red" stroke="red" points="2595,-37.5 2605,-34 2595,-30.5 2595,-37.5"/>
</g>
<!-- Node0x600001e47540 -->
<g id="node23" class="node">
<title>Node0x600001e47540</title>
<polygon fill="none" stroke="black" points="2729,-9 2729,-77 2817,-77 2817,-9 2729,-9"/>
<text text-anchor="middle" x="2773" y="-66.6" font-family="Times,serif" font-size="8.00">word: obey</text>
<polyline fill="none" stroke="black" points="2729,-60 2817,-60 "/>
<text text-anchor="middle" x="2773" y="-49.6" font-family="Times,serif" font-size="8.00">size: 1</text>
<polyline fill="none" stroke="black" points="2729,-43 2817,-43 "/>
<text text-anchor="middle" x="2773" y="-32.6" font-family="Times,serif" font-size="8.00">next: 0x600001e47600</text>
<polyline fill="none" stroke="black" points="2729,-26 2817,-26 "/>
<text text-anchor="middle" x="2773" y="-15.6" font-family="Times,serif" font-size="8.00">prev: 0x600001e46280</text>
</g>
<!-- Node0x600001e46280&#45;&gt;Node0x600001e47540 -->
<g id="edge22" class="edge">
<title>Node0x600001e46280:n&#45;&gt;Node0x600001e47540:n</title>
<path fill="none" stroke="red" d="M2693,-34C2705,-34 2710.25,-34 2718.88,-34"/>
<polygon fill="red" stroke="red" points="2719,-37.5 2729,-34 2719,-30.5 2719,-37.5"/>
</g>
<!-- Node0x600001e47600 -->
<g id="node24" class="node">
<title>Node0x600001e47600</title>
<polygon fill="none" stroke="black" points="2853,-9 2853,-77 2941,-77 2941,-9 2853,-9"/>
<text text-anchor="middle" x="2897" y="-66.6" font-family="Times,serif" font-size="8.00">word: beginners</text>
<polyline fill="none" stroke="black" points="2853,-60 2941,-60 "/>
<text text-anchor="middle" x="2897" y="-49.6" font-family="Times,serif" font-size="8.00">size: 1</text>
<polyline fill="none" stroke="black" points="2853,-43 2941,-43 "/>
<text text-anchor="middle" x="2897" y="-32.6" font-family="Times,serif" font-size="8.00">next: 0x600001e47b10</text>
<polyline fill="none" stroke="black" points="2853,-26 2941,-26 "/>
<text text-anchor="middle" x="2897" y="-15.6" font-family="Times,serif" font-size="8.00">prev: 0x600001e47540</text>
</g>
<!-- Node0x600001e47540&#45;&gt;Node0x600001e47600 -->
<g id="edge23" class="edge">
<title>Node0x600001e47540:n&#45;&gt;Node0x600001e47600:n</title>
<path fill="none" stroke="red" d="M2817,-34C2829,-34 2834.25,-34 2842.88,-34"/>
<polygon fill="red" stroke="red" points="2843,-37.5 2853,-34 2843,-30.5 2843,-37.5"/>
</g>
<!-- Node0x600001e47b10 -->
<g id="node25" class="node">
<title>Node0x600001e47b10</title>
<polygon fill="none" stroke="black" points="2977,-9 2977,-77 3065,-77 3065,-9 2977,-9"/>
<text text-anchor="middle" x="3021" y="-66.6" font-family="Times,serif" font-size="8.00">word: swifter</text>
<polyline fill="none" stroke="black" points="2977,-60 3065,-60 "/>
<text text-anchor="middle" x="3021" y="-49.6" font-family="Times,serif" font-size="8.00">size: 1</text>
<polyline fill="none" stroke="black" points="2977,-43 3065,-43 "/>
<text text-anchor="middle" x="3021" y="-32.6" font-family="Times,serif" font-size="8.00">next: 0x600001e48e70</text>
<polyline fill="none" stroke="black" points="2977,-26 3065,-26 "/>
<text text-anchor="middle" x="3021" y="-15.6" font-family="Times,serif" font-size="8.00">prev: 0x600001e47600</text>
</g>
<!-- Node0x600001e47600&#45;&gt;Node0x600001e47b10 -->
<g id="edge24" class="edge">
<title>Node0x600001e47600:n&#45;&gt;Node0x600001e47b10:n</title>
<path fill="none" stroke="red" d="M2941,-34C2953,-34 2958.25,-34 2966.88,-34"/>
<polygon fill="red" stroke="red" points="2967,-37.5 2977,-34 2967,-30.5 2967,-37.5"/>
</g>
<!-- Node0x600001e48e70 -->
<g id="node26" class="node">
<title>Node0x600001e48e70</title>
<polygon fill="none" stroke="black" points="3101,-9 3101,-77 3189,-77 3189,-9 3101,-9"/>
<text text-anchor="middle" x="3145" y="-66.6" font-family="Times,serif" font-size="8.00">word: bedaub</text>
<polyline fill="none" stroke="black" points="3101,-60 3189,-60 "/>
<text text-anchor="middle" x="3145" y="-49.6" font-family="Times,serif" font-size="8.00">size: 1</text>
<polyline fill="none" stroke="black" points="3101,-43 3189,-43 "/>
<text text-anchor="middle" x="3145" y="-32.6" font-family="Times,serif" font-size="8.00">next: 0x600001e49410</text>
<polyline fill="none" stroke="black" points="3101,-26 3189,-26 "/>
<text text-anchor="middle" x="3145" y="-15.6" font-family="Times,serif" font-size="8.00">prev: 0x600001e47b10</text>
</g>
<!-- Node0x600001e47b10&#45;&gt;Node0x600001e48e70 -->
<g id="edge25" class="edge">
<title>Node0x600001e47b10:n&#45;&gt;Node0x600001e48e70:n</title>
<path fill="none" stroke="red" d="M3065,-34C3077,-34 3082.25,-34 3090.88,-34"/>
<polygon fill="red" stroke="red" points="3091,-37.5 3101,-34 3091,-30.5 3091,-37.5"/>
</g>
<!-- Node0x600001e49410 -->
<g id="node27" class="node">
<title>Node0x600001e49410</title>
<polygon fill="none" stroke="black" points="3225,-9 3225,-77 3313,-77 3313,-9 3225,-9"/>
<text text-anchor="middle" x="3269" y="-66.6" font-family="Times,serif" font-size="8.00">word: justly</text>
<polyline fill="none" stroke="black" points="3225,-60 3313,-60 "/>
<text text-anchor="middle" x="3269" y="-49.6" font-family="Times,serif" font-size="8.00">size: 1</text>
<polyline fill="none" stroke="black" points="3225,-43 3313,-43 "/>
<text text-anchor="middle" x="3269" y="-32.6" font-family="Times,serif" font-size="8.00">next: 0x600001e4a010</text>
<polyline fill="none" stroke="black" points="3225,-26 3313,-26 "/>
<text text-anchor="middle" x="3269" y="-15.6" font-family="Times,serif" font-size="8.00">prev: 0x600001e48e70</text>
</g>
<!-- Node0x600001e48e70&#45;&gt;Node0x600001e49410 -->
<g id="edge26" class="edge">
<title>Node0x600001e48e70:n&#45;&gt;Node0x600001e49410:n</title>
<path fill="none" stroke="red" d="M3189,-34C3201,-34 3206.25,-34 3214.88,-34"/>
<polygon fill="red" stroke="red" points="3215,-37.5 3225,-34 3215,-30.5 3215,-37.5"/>
</g>
<!-- Node0x600001e4a010 -->
<g id="node28" class="node">
<title>Node0x600001e4a010</title>
<polygon fill="none" stroke="black" points="3349,-9 3349,-77 3437,-77 3437,-9 3349,-9"/>
<text text-anchor="middle" x="3393" y="-66.6" font-family="Times,serif" font-size="8.00">word: calamity</text>
<polyline fill="none" stroke="black" points="3349,-60 3437,-60 "/>
<text text-anchor="middle" x="3393" y="-49.6" font-family="Times,serif" font-size="8.00">size: 1</text>
<polyline fill="none" stroke="black" points="3349,-43 3437,-43 "/>
<text text-anchor="middle" x="3393" y="-32.6" font-family="Times,serif" font-size="8.00">next: 0x600001e71860</text>
<polyline fill="none" stroke="black" points="3349,-26 3437,-26 "/>
<text text-anchor="middle" x="3393" y="-15.6" font-family="Times,serif" font-size="8.00">prev: 0x600001e49410</text>
</g>
<!-- Node0x600001e49410&#45;&gt;Node0x600001e4a010 -->
<g id="edge27" class="edge">
<title>Node0x600001e49410:n&#45;&gt;Node0x600001e4a010:n</title>
<path fill="none" stroke="red" d="M3313,-34C3325,-34 3330.25,-34 3338.88,-34"/>
<polygon fill="red" stroke="red" points="3339,-37.5 3349,-34 3339,-30.5 3339,-37.5"/>
</g>
<!-- Node0x600001e71860 -->
<g id="node29" class="node">
<title>Node0x600001e71860</title>
<polygon fill="none" stroke="black" points="3473,-9 3473,-77 3561,-77 3561,-9 3473,-9"/>
<text text-anchor="middle" x="3517" y="-66.6" font-family="Times,serif" font-size="8.00">word: infold</text>
<polyline fill="none" stroke="black" points="3473,-60 3561,-60 "/>
<text text-anchor="middle" x="3517" y="-49.6" font-family="Times,serif" font-size="8.00">size: 1</text>
<polyline fill="none" stroke="black" points="3473,-43 3561,-43 "/>
<text text-anchor="middle" x="3517" y="-32.6" font-family="Times,serif" font-size="8.00">next: 0x600001e4c360</text>
<polyline fill="none" stroke="black" points="3473,-26 3561,-26 "/>
<text text-anchor="middle" x="3517" y="-15.6" font-family="Times,serif" font-size="8.00">prev: 0x600001e4a010</text>
</g>
<!-- Node0x600001e4a010&#45;&gt;Node0x600001e71860 -->
<g id="edge28" class="edge">
<title>Node0x600001e4a010:n&#45;&gt;Node0x600001e71860:n</title>
<path fill="none" stroke="red" d="M3437,-34C3449,-34 3454.25,-34 3462.88,-34"/>
<polygon fill="red" stroke="red" points="3463,-37.5 3473,-34 3463,-30.5 3463,-37.5"/>
</g>
<!-- Node0x600001e4c360 -->
<g id="node30" class="node">
<title>Node0x600001e4c360</title>
<polygon fill="none" stroke="black" points="3597,-9 3597,-77 3685,-77 3685,-9 3597,-9"/>
<text text-anchor="middle" x="3641" y="-66.6" font-family="Times,serif" font-size="8.00">word: below</text>
<polyline fill="none" stroke="black" points="3597,-60 3685,-60 "/>
<text text-anchor="middle" x="3641" y="-49.6" font-family="Times,serif" font-size="8.00">size: 1</text>
<polyline fill="none" stroke="black" points="3597,-43 3685,-43 "/>
<text text-anchor="middle" x="3641" y="-32.6" font-family="Times,serif" font-size="8.00">next: 0x600001e4c810</text>
<polyline fill="none" stroke="black" points="3597,-26 3685,-26 "/>
<text text-anchor="middle" x="3641" y="-15.6" font-family="Times,serif" font-size="8.00">prev: 0x600001e71860</text>
</g>
<!-- Node0x600001e71860&#45;&gt;Node0x600001e4c360 -->
<g id="edge29" class="edge">
<title>Node0x600001e71860:n&#45;&gt;Node0x600001e4c360:n</title>
<path fill="none" stroke="red" d="M3561,-34C3573,-34 3578.25,-34 3586.88,-34"/>
<polygon fill="red" stroke="red" points="3587,-37.5 3597,-34 3587,-30.5 3587,-37.5"/>
</g>
<!-- Node0x600001e4c810 -->
<g id="node31" class="node">
<title>Node0x600001e4c810</title>
<polygon fill="none" stroke="black" points="3721,-9 3721,-77 3809,-77 3809,-9 3721,-9"/>
<text text-anchor="middle" x="3765" y="-66.6" font-family="Times,serif" font-size="8.00">word: venge</text>
<polyline fill="none" stroke="black" points="3721,-60 3809,-60 "/>
<text text-anchor="middle" x="3765" y="-49.6" font-family="Times,serif" font-size="8.00">size: 1</text>
<polyline fill="none" stroke="black" points="3721,-43 3809,-43 "/>
<text text-anchor="middle" x="3765" y="-32.6" font-family="Times,serif" font-size="8.00">next: 0x600001e7a3d0</text>
<polyline fill="none" stroke="black" points="3721,-26 3809,-26 "/>
<text text-anchor="middle" x="3765" y="-15.6" font-family="Times,serif" font-size="8.00">prev: 0x600001e4c360</text>
</g>
<!-- Node0x600001e4c360&#45;&gt;Node0x600001e4c810 -->
<g id="edge30" class="edge">
<title>Node0x600001e4c360:n&#45;&gt;Node0x600001e4c810:n</title>
<path fill="none" stroke="red" d="M3685,-34C3697,-34 3702.25,-34 3710.88,-34"/>
<polygon fill="red" stroke="red" points="3711,-37.5 3721,-34 3711,-30.5 3711,-37.5"/>
</g>
<!-- Node0x600001e7a3d0 -->
<g id="node32" class="node">
<title>Node0x600001e7a3d0</title>
<polygon fill="none" stroke="black" points="3845,-9 3845,-77 3933,-77 3933,-9 3845,-9"/>
<text text-anchor="middle" x="3889" y="-66.6" font-family="Times,serif" font-size="8.00">word: furnish</text>
<polyline fill="none" stroke="black" points="3845,-60 3933,-60 "/>
<text text-anchor="middle" x="3889" y="-49.6" font-family="Times,serif" font-size="8.00">size: 1</text>
<polyline fill="none" stroke="black" points="3845,-43 3933,-43 "/>
<text text-anchor="middle" x="3889" y="-32.6" font-family="Times,serif" font-size="8.00">next: 0x600001e4cd50</text>
<polyline fill="none" stroke="black" points="3845,-26 3933,-26 "/>
<text text-anchor="middle" x="3889" y="-15.6" font-family="Times,serif" font-size="8.00">prev: 0x600001e4c810</text>
</g>
<!-- Node0x600001e4c810&#45;&gt;Node0x600001e7a3d0 -->
<g id="edge31" class="edge">
<title>Node0x600001e4c810:n&#45;&gt;Node0x600001e7a3d0:n</title>
<path fill="none" stroke="red" d="M3809,-34C3821,-34 3826.25,-34 3834.88,-34"/>
<polygon fill="red" stroke="red" points="3835,-37.5 3845,-34 3835,-30.5 3835,-37.5"/>
</g>
<!-- Node0x600001e4cd50 -->
<g id="node33" class="node">
<title>Node0x600001e4cd50</title>
<polygon fill="none" stroke="black" points="3969,-9 3969,-77 4057,-77 4057,-9 3969,-9"/>
<text text-anchor="middle" x="4013" y="-66.6" font-family="Times,serif" font-size="8.00">word: searchers</text>
<polyline fill="none" stroke="black" points="3969,-60 4057,-60 "/>
<text text-anchor="middle" x="4013" y="-49.6" font-family="Times,serif" font-size="8.00">size: 1</text>
<polyline fill="none" stroke="black" points="3969,-43 4057,-43 "/>
<text text-anchor="middle" x="4013" y="-32.6" font-family="Times,serif" font-size="8.00">next: 0x600001e4cde0</text>
<polyline fill="none" stroke="black" points="3969,-26 4057,-26 "/>
<text text-anchor="middle" x="4013" y="-15.6" font-family="Times,serif" font-size="8.00">prev: 0x600001e7a3d0</text>
</g>
<!-- Node0x600001e7a3d0&#45;&gt;Node0x600001e4cd50 -->
<g id="edge32" class="edge">
<title>Node0x600001e7a3d0:n&#45;&gt;Node0x600001e4cd50:n</title>
<path fill="none" stroke="red" d="M3933,-34C3945,-34 3950.25,-34 3958.88,-34"/>
<polygon fill="red" stroke="red" points="3959,-37.5 3969,-34 3959,-30.5 3959,-37.5"/>
</g>
<!-- Node0x600001e4cde0 -->
<g id="node34" class="node">
<title>Node0x600001e4cde0</title>
<polygon fill="none" stroke="black" points="4093,-9 4093,-77 4181,-77 4181,-9 4093,-9"/>
<text text-anchor="middle" x="4137" y="-66.6" font-family="Times,serif" font-size="8.00">word: pestilence</text>
<polyline fill="none" stroke="black" points="4093,-60 4181,-60 "/>
<text text-anchor="middle" x="4137" y="-49.6" font-family="Times,serif" font-size="8.00">size: 1</text>
<polyline fill="none" stroke="black" points="4093,-43 4181,-43 "/>
<text text-anchor="middle" x="4137" y="-32.6" font-family="Times,serif" font-size="8.00">next: 0x0</text>
<polyline fill="none" stroke="black" points="4093,-26 4181,-26 "/>
<text text-anchor="middle" x="4137" y="-15.6" font-family="Times,serif" font-size="8.00">prev: 0x600001e4cd50</text>
</g>
<!-- Node0x600001e4cd50&#45;&gt;Node0x600001e4cde0 -->
<g id="edge33" class="edge">
<title>Node0x600001e4cd50:n&#45;&gt;Node0x600001e4cde0:n</title>
<path fill="none" stroke="red" d="M4057,-34C4069,-34 4074.25,-34 4082.88,-34"/>
<polygon fill="red" stroke="red" points="4083,-37.5 4093,-34 4083,-30.5 4083,-37.5"/>
</g>
</g>
</svg>
