<?xml version="1.0" encoding="UTF-8" standalone="no"?>
<!DOCTYPE svg PUBLIC "-//W3C//DTD SVG 1.1//EN"
 "http://www.w3.org/Graphics/SVG/1.1/DTD/svg11.dtd">
<!-- Generated by graphviz version 2.50.0 (20211204.2007)
 -->
<!-- Title: G Pages: 1 -->
<svg width="3704pt" height="117pt"
 viewBox="0.00 0.00 3704.00 117.00" xmlns="http://www.w3.org/2000/svg" xmlns:xlink="http://www.w3.org/1999/xlink">
<g id="graph0" class="graph" transform="scale(1 1) rotate(0) translate(4 113)">
<title>G</title>
<polygon fill="white" stroke="transparent" points="-4,4 -4,-113 3700,-113 3700,4 -4,4"/>
<g id="clust1" class="cluster">
<title>cluster1528</title>
<polygon fill="none" stroke="black" points="8,-8 8,-101 95,-101 95,-8 8,-8"/>
<text text-anchor="middle" x="51.5" y="-85.8" font-family="Times,serif" font-size="14.00">1528</text>
</g>
<g id="clust2" class="cluster">
<title>cluster1529</title>
<polygon fill="none" stroke="black" points="131,-8 131,-101 219,-101 219,-8 131,-8"/>
<text text-anchor="middle" x="175" y="-85.8" font-family="Times,serif" font-size="14.00">1529</text>
</g>
<g id="clust3" class="cluster">
<title>cluster1530</title>
<polygon fill="none" stroke="black" points="255,-8 255,-101 343,-101 343,-8 255,-8"/>
<text text-anchor="middle" x="299" y="-85.8" font-family="Times,serif" font-size="14.00">1530</text>
</g>
<g id="clust4" class="cluster">
<title>cluster1531</title>
<polygon fill="none" stroke="black" points="379,-8 379,-101 467,-101 467,-8 379,-8"/>
<text text-anchor="middle" x="423" y="-85.8" font-family="Times,serif" font-size="14.00">1531</text>
</g>
<g id="clust5" class="cluster">
<title>cluster1532</title>
<polygon fill="none" stroke="black" points="503,-8 503,-101 591,-101 591,-8 503,-8"/>
<text text-anchor="middle" x="547" y="-85.8" font-family="Times,serif" font-size="14.00">1532</text>
</g>
<g id="clust6" class="cluster">
<title>cluster1533</title>
<polygon fill="none" stroke="black" points="627,-8 627,-101 715,-101 715,-8 627,-8"/>
<text text-anchor="middle" x="671" y="-85.8" font-family="Times,serif" font-size="14.00">1533</text>
</g>
<g id="clust7" class="cluster">
<title>cluster1534</title>
<polygon fill="none" stroke="black" points="751,-8 751,-101 839,-101 839,-8 751,-8"/>
<text text-anchor="middle" x="795" y="-85.8" font-family="Times,serif" font-size="14.00">1534</text>
</g>
<g id="clust8" class="cluster">
<title>cluster1535</title>
<polygon fill="none" stroke="black" points="875,-8 875,-101 963,-101 963,-8 875,-8"/>
<text text-anchor="middle" x="919" y="-85.8" font-family="Times,serif" font-size="14.00">1535</text>
</g>
<g id="clust9" class="cluster">
<title>cluster1536</title>
<polygon fill="none" stroke="black" points="999,-8 999,-101 1087,-101 1087,-8 999,-8"/>
<text text-anchor="middle" x="1043" y="-85.8" font-family="Times,serif" font-size="14.00">1536</text>
</g>
<g id="clust10" class="cluster">
<title>cluster1537</title>
<polygon fill="none" stroke="black" points="1123,-8 1123,-101 1211,-101 1211,-8 1123,-8"/>
<text text-anchor="middle" x="1167" y="-85.8" font-family="Times,serif" font-size="14.00">1537</text>
</g>
<g id="clust11" class="cluster">
<title>cluster1538</title>
<polygon fill="none" stroke="black" points="1247,-8 1247,-101 1335,-101 1335,-8 1247,-8"/>
<text text-anchor="middle" x="1291" y="-85.8" font-family="Times,serif" font-size="14.00">1538</text>
</g>
<g id="clust12" class="cluster">
<title>cluster1539</title>
<polygon fill="none" stroke="black" points="1371,-8 1371,-101 1458,-101 1458,-8 1371,-8"/>
<text text-anchor="middle" x="1414.5" y="-85.8" font-family="Times,serif" font-size="14.00">1539</text>
</g>
<g id="clust13" class="cluster">
<title>cluster1540</title>
<polygon fill="none" stroke="black" points="1494,-8 1494,-101 1582,-101 1582,-8 1494,-8"/>
<text text-anchor="middle" x="1538" y="-85.8" font-family="Times,serif" font-size="14.00">1540</text>
</g>
<g id="clust14" class="cluster">
<title>cluster1541</title>
<polygon fill="none" stroke="black" points="1618,-8 1618,-101 1706,-101 1706,-8 1618,-8"/>
<text text-anchor="middle" x="1662" y="-85.8" font-family="Times,serif" font-size="14.00">1541</text>
</g>
<g id="clust15" class="cluster">
<title>cluster1542</title>
<polygon fill="none" stroke="black" points="1742,-8 1742,-101 1829,-101 1829,-8 1742,-8"/>
<text text-anchor="middle" x="1785.5" y="-85.8" font-family="Times,serif" font-size="14.00">1542</text>
</g>
<g id="clust16" class="cluster">
<title>cluster1543</title>
<polygon fill="none" stroke="black" points="1865,-8 1865,-101 1953,-101 1953,-8 1865,-8"/>
<text text-anchor="middle" x="1909" y="-85.8" font-family="Times,serif" font-size="14.00">1543</text>
</g>
<g id="clust17" class="cluster">
<title>cluster1544</title>
<polygon fill="none" stroke="black" points="1989,-8 1989,-101 2077,-101 2077,-8 1989,-8"/>
<text text-anchor="middle" x="2033" y="-85.8" font-family="Times,serif" font-size="14.00">1544</text>
</g>
<g id="clust18" class="cluster">
<title>cluster1545</title>
<polygon fill="none" stroke="black" points="2113,-8 2113,-101 2201,-101 2201,-8 2113,-8"/>
<text text-anchor="middle" x="2157" y="-85.8" font-family="Times,serif" font-size="14.00">1545</text>
</g>
<g id="clust19" class="cluster">
<title>cluster1546</title>
<polygon fill="none" stroke="black" points="2237,-8 2237,-101 2325,-101 2325,-8 2237,-8"/>
<text text-anchor="middle" x="2281" y="-85.8" font-family="Times,serif" font-size="14.00">1546</text>
</g>
<g id="clust20" class="cluster">
<title>cluster1547</title>
<polygon fill="none" stroke="black" points="2361,-8 2361,-101 2449,-101 2449,-8 2361,-8"/>
<text text-anchor="middle" x="2405" y="-85.8" font-family="Times,serif" font-size="14.00">1547</text>
</g>
<g id="clust21" class="cluster">
<title>cluster1548</title>
<polygon fill="none" stroke="black" points="2485,-8 2485,-101 2573,-101 2573,-8 2485,-8"/>
<text text-anchor="middle" x="2529" y="-85.8" font-family="Times,serif" font-size="14.00">1548</text>
</g>
<g id="clust22" class="cluster">
<title>cluster1549</title>
<polygon fill="none" stroke="black" points="2609,-8 2609,-101 2697,-101 2697,-8 2609,-8"/>
<text text-anchor="middle" x="2653" y="-85.8" font-family="Times,serif" font-size="14.00">1549</text>
</g>
<g id="clust23" class="cluster">
<title>cluster1550</title>
<polygon fill="none" stroke="black" points="2733,-8 2733,-101 2821,-101 2821,-8 2733,-8"/>
<text text-anchor="middle" x="2777" y="-85.8" font-family="Times,serif" font-size="14.00">1550</text>
</g>
<g id="clust24" class="cluster">
<title>cluster1551</title>
<polygon fill="none" stroke="black" points="2857,-8 2857,-101 2945,-101 2945,-8 2857,-8"/>
<text text-anchor="middle" x="2901" y="-85.8" font-family="Times,serif" font-size="14.00">1551</text>
</g>
<g id="clust25" class="cluster">
<title>cluster1552</title>
<polygon fill="none" stroke="black" points="2981,-8 2981,-101 3069,-101 3069,-8 2981,-8"/>
<text text-anchor="middle" x="3025" y="-85.8" font-family="Times,serif" font-size="14.00">1552</text>
</g>
<g id="clust26" class="cluster">
<title>cluster1553</title>
<polygon fill="none" stroke="black" points="3105,-8 3105,-101 3193,-101 3193,-8 3105,-8"/>
<text text-anchor="middle" x="3149" y="-85.8" font-family="Times,serif" font-size="14.00">1553</text>
</g>
<g id="clust27" class="cluster">
<title>cluster1554</title>
<polygon fill="none" stroke="black" points="3229,-8 3229,-101 3316,-101 3316,-8 3229,-8"/>
<text text-anchor="middle" x="3272.5" y="-85.8" font-family="Times,serif" font-size="14.00">1554</text>
</g>
<g id="clust28" class="cluster">
<title>cluster1555</title>
<polygon fill="none" stroke="black" points="3352,-8 3352,-101 3440,-101 3440,-8 3352,-8"/>
<text text-anchor="middle" x="3396" y="-85.8" font-family="Times,serif" font-size="14.00">1555</text>
</g>
<g id="clust29" class="cluster">
<title>cluster1556</title>
<polygon fill="none" stroke="black" points="3476,-8 3476,-101 3564,-101 3564,-8 3476,-8"/>
<text text-anchor="middle" x="3520" y="-85.8" font-family="Times,serif" font-size="14.00">1556</text>
</g>
<g id="clust30" class="cluster">
<title>cluster1557</title>
<polygon fill="none" stroke="black" points="3600,-8 3600,-101 3688,-101 3688,-8 3600,-8"/>
<text text-anchor="middle" x="3644" y="-85.8" font-family="Times,serif" font-size="14.00">1557</text>
</g>
<!-- Node0x600000711d40 -->
<g id="node1" class="node">
<title>Node0x600000711d40</title>
<polygon fill="none" stroke="black" points="8,-9 8,-77 95,-77 95,-9 8,-9"/>
<text text-anchor="middle" x="51.5" y="-66.6" font-family="Times,serif" font-size="8.00">word: love</text>
<polyline fill="none" stroke="black" points="8,-60 95,-60 "/>
<text text-anchor="middle" x="51.5" y="-49.6" font-family="Times,serif" font-size="8.00">size: 145</text>
<polyline fill="none" stroke="black" points="8,-43 95,-43 "/>
<text text-anchor="middle" x="51.5" y="-32.6" font-family="Times,serif" font-size="8.00">next: 0x600000714870</text>
<polyline fill="none" stroke="black" points="8,-26 95,-26 "/>
<text text-anchor="middle" x="51.5" y="-15.6" font-family="Times,serif" font-size="8.00">prev: 0x0</text>
</g>
<!-- Node0x600000714870 -->
<g id="node2" class="node">
<title>Node0x600000714870</title>
<polygon fill="none" stroke="black" points="131,-9 131,-77 219,-77 219,-9 131,-9"/>
<text text-anchor="middle" x="175" y="-66.6" font-family="Times,serif" font-size="8.00">word: Or</text>
<polyline fill="none" stroke="black" points="131,-60 219,-60 "/>
<text text-anchor="middle" x="175" y="-49.6" font-family="Times,serif" font-size="8.00">size: 28</text>
<polyline fill="none" stroke="black" points="131,-43 219,-43 "/>
<text text-anchor="middle" x="175" y="-32.6" font-family="Times,serif" font-size="8.00">next: 0x600000718810</text>
<polyline fill="none" stroke="black" points="131,-26 219,-26 "/>
<text text-anchor="middle" x="175" y="-15.6" font-family="Times,serif" font-size="8.00">prev: 0x600000711d40</text>
</g>
<!-- Node0x600000711d40&#45;&gt;Node0x600000714870 -->
<g id="edge1" class="edge">
<title>Node0x600000711d40:n&#45;&gt;Node0x600000714870:n</title>
<path fill="none" stroke="red" d="M95,-34C107,-34 112.25,-34 120.88,-34"/>
<polygon fill="red" stroke="red" points="121,-37.5 131,-34 121,-30.5 121,-37.5"/>
</g>
<!-- Node0x600000718810 -->
<g id="node3" class="node">
<title>Node0x600000718810</title>
<polygon fill="none" stroke="black" points="255,-9 255,-77 343,-77 343,-9 255,-9"/>
<text text-anchor="middle" x="299" y="-66.6" font-family="Times,serif" font-size="8.00">word: eyes</text>
<polyline fill="none" stroke="black" points="255,-60 343,-60 "/>
<text text-anchor="middle" x="299" y="-49.6" font-family="Times,serif" font-size="8.00">size: 27</text>
<polyline fill="none" stroke="black" points="255,-43 343,-43 "/>
<text text-anchor="middle" x="299" y="-32.6" font-family="Times,serif" font-size="8.00">next: 0x600000704840</text>
<polyline fill="none" stroke="black" points="255,-26 343,-26 "/>
<text text-anchor="middle" x="299" y="-15.6" font-family="Times,serif" font-size="8.00">prev: 0x600000714870</text>
</g>
<!-- Node0x600000714870&#45;&gt;Node0x600000718810 -->
<g id="edge2" class="edge">
<title>Node0x600000714870:n&#45;&gt;Node0x600000718810:n</title>
<path fill="none" stroke="red" d="M219,-34C231,-34 236.25,-34 244.88,-34"/>
<polygon fill="red" stroke="red" points="245,-37.5 255,-34 245,-30.5 245,-37.5"/>
</g>
<!-- Node0x600000704840 -->
<g id="node4" class="node">
<title>Node0x600000704840</title>
<polygon fill="none" stroke="black" points="379,-9 379,-77 467,-77 467,-9 379,-9"/>
<text text-anchor="middle" x="423" y="-66.6" font-family="Times,serif" font-size="8.00">word: spoke</text>
<polyline fill="none" stroke="black" points="379,-60 467,-60 "/>
<text text-anchor="middle" x="423" y="-49.6" font-family="Times,serif" font-size="8.00">size: 6</text>
<polyline fill="none" stroke="black" points="379,-43 467,-43 "/>
<text text-anchor="middle" x="423" y="-32.6" font-family="Times,serif" font-size="8.00">next: 0x600000709da0</text>
<polyline fill="none" stroke="black" points="379,-26 467,-26 "/>
<text text-anchor="middle" x="423" y="-15.6" font-family="Times,serif" font-size="8.00">prev: 0x600000718810</text>
</g>
<!-- Node0x600000718810&#45;&gt;Node0x600000704840 -->
<g id="edge3" class="edge">
<title>Node0x600000718810:n&#45;&gt;Node0x600000704840:n</title>
<path fill="none" stroke="red" d="M343,-34C355,-34 360.25,-34 368.88,-34"/>
<polygon fill="red" stroke="red" points="369,-37.5 379,-34 369,-30.5 369,-37.5"/>
</g>
<!-- Node0x600000709da0 -->
<g id="node5" class="node">
<title>Node0x600000709da0</title>
<polygon fill="none" stroke="black" points="503,-9 503,-77 591,-77 591,-9 503,-9"/>
<text text-anchor="middle" x="547" y="-66.6" font-family="Times,serif" font-size="8.00">word: gnat</text>
<polyline fill="none" stroke="black" points="503,-60 591,-60 "/>
<text text-anchor="middle" x="547" y="-49.6" font-family="Times,serif" font-size="8.00">size: 1</text>
<polyline fill="none" stroke="black" points="503,-43 591,-43 "/>
<text text-anchor="middle" x="547" y="-32.6" font-family="Times,serif" font-size="8.00">next: 0x60000071d650</text>
<polyline fill="none" stroke="black" points="503,-26 591,-26 "/>
<text text-anchor="middle" x="547" y="-15.6" font-family="Times,serif" font-size="8.00">prev: 0x600000704840</text>
</g>
<!-- Node0x600000704840&#45;&gt;Node0x600000709da0 -->
<g id="edge4" class="edge">
<title>Node0x600000704840:n&#45;&gt;Node0x600000709da0:n</title>
<path fill="none" stroke="red" d="M467,-34C479,-34 484.25,-34 492.88,-34"/>
<polygon fill="red" stroke="red" points="493,-37.5 503,-34 493,-30.5 493,-37.5"/>
</g>
<!-- Node0x60000071d650 -->
<g id="node6" class="node">
<title>Node0x60000071d650</title>
<polygon fill="none" stroke="black" points="627,-9 627,-77 715,-77 715,-9 627,-9"/>
<text text-anchor="middle" x="671" y="-66.6" font-family="Times,serif" font-size="8.00">word: brains</text>
<polyline fill="none" stroke="black" points="627,-60 715,-60 "/>
<text text-anchor="middle" x="671" y="-49.6" font-family="Times,serif" font-size="8.00">size: 2</text>
<polyline fill="none" stroke="black" points="627,-43 715,-43 "/>
<text text-anchor="middle" x="671" y="-32.6" font-family="Times,serif" font-size="8.00">next: 0x60000071dbc0</text>
<polyline fill="none" stroke="black" points="627,-26 715,-26 "/>
<text text-anchor="middle" x="671" y="-15.6" font-family="Times,serif" font-size="8.00">prev: 0x600000709da0</text>
</g>
<!-- Node0x600000709da0&#45;&gt;Node0x60000071d650 -->
<g id="edge5" class="edge">
<title>Node0x600000709da0:n&#45;&gt;Node0x60000071d650:n</title>
<path fill="none" stroke="red" d="M591,-34C603,-34 608.25,-34 616.88,-34"/>
<polygon fill="red" stroke="red" points="617,-37.5 627,-34 617,-30.5 617,-37.5"/>
</g>
<!-- Node0x60000071dbc0 -->
<g id="node7" class="node">
<title>Node0x60000071dbc0</title>
<polygon fill="none" stroke="black" points="751,-9 751,-77 839,-77 839,-9 751,-9"/>
<text text-anchor="middle" x="795" y="-66.6" font-family="Times,serif" font-size="8.00">word: throats</text>
<polyline fill="none" stroke="black" points="751,-60 839,-60 "/>
<text text-anchor="middle" x="795" y="-49.6" font-family="Times,serif" font-size="8.00">size: 1</text>
<polyline fill="none" stroke="black" points="751,-43 839,-43 "/>
<text text-anchor="middle" x="795" y="-32.6" font-family="Times,serif" font-size="8.00">next: 0x60000071dd40</text>
<polyline fill="none" stroke="black" points="751,-26 839,-26 "/>
<text text-anchor="middle" x="795" y="-15.6" font-family="Times,serif" font-size="8.00">prev: 0x60000071d650</text>
</g>
<!-- Node0x60000071d650&#45;&gt;Node0x60000071dbc0 -->
<g id="edge6" class="edge">
<title>Node0x60000071d650:n&#45;&gt;Node0x60000071dbc0:n</title>
<path fill="none" stroke="red" d="M715,-34C727,-34 732.25,-34 740.88,-34"/>
<polygon fill="red" stroke="red" points="741,-37.5 751,-34 741,-30.5 741,-37.5"/>
</g>
<!-- Node0x60000071dd40 -->
<g id="node8" class="node">
<title>Node0x60000071dd40</title>
<polygon fill="none" stroke="black" points="875,-9 875,-77 963,-77 963,-9 875,-9"/>
<text text-anchor="middle" x="919" y="-66.6" font-family="Times,serif" font-size="8.00">word: Drums</text>
<polyline fill="none" stroke="black" points="875,-60 963,-60 "/>
<text text-anchor="middle" x="919" y="-49.6" font-family="Times,serif" font-size="8.00">size: 1</text>
<polyline fill="none" stroke="black" points="875,-43 963,-43 "/>
<text text-anchor="middle" x="919" y="-32.6" font-family="Times,serif" font-size="8.00">next: 0x60000071e700</text>
<polyline fill="none" stroke="black" points="875,-26 963,-26 "/>
<text text-anchor="middle" x="919" y="-15.6" font-family="Times,serif" font-size="8.00">prev: 0x60000071dbc0</text>
</g>
<!-- Node0x60000071dbc0&#45;&gt;Node0x60000071dd40 -->
<g id="edge7" class="edge">
<title>Node0x60000071dbc0:n&#45;&gt;Node0x60000071dd40:n</title>
<path fill="none" stroke="red" d="M839,-34C851,-34 856.25,-34 864.88,-34"/>
<polygon fill="red" stroke="red" points="865,-37.5 875,-34 865,-30.5 865,-37.5"/>
</g>
<!-- Node0x60000071e700 -->
<g id="node9" class="node">
<title>Node0x60000071e700</title>
<polygon fill="none" stroke="black" points="999,-9 999,-77 1087,-77 1087,-9 999,-9"/>
<text text-anchor="middle" x="1043" y="-66.6" font-family="Times,serif" font-size="8.00">word: revels</text>
<polyline fill="none" stroke="black" points="999,-60 1087,-60 "/>
<text text-anchor="middle" x="1043" y="-49.6" font-family="Times,serif" font-size="8.00">size: 1</text>
<polyline fill="none" stroke="black" points="999,-43 1087,-43 "/>
<text text-anchor="middle" x="1043" y="-32.6" font-family="Times,serif" font-size="8.00">next: 0x600000703b10</text>
<polyline fill="none" stroke="black" points="999,-26 1087,-26 "/>
<text text-anchor="middle" x="1043" y="-15.6" font-family="Times,serif" font-size="8.00">prev: 0x60000071dd40</text>
</g>
<!-- Node0x60000071dd40&#45;&gt;Node0x60000071e700 -->
<g id="edge8" class="edge">
<title>Node0x60000071dd40:n&#45;&gt;Node0x60000071e700:n</title>
<path fill="none" stroke="red" d="M963,-34C975,-34 980.25,-34 988.88,-34"/>
<polygon fill="red" stroke="red" points="989,-37.5 999,-34 989,-30.5 989,-37.5"/>
</g>
<!-- Node0x600000703b10 -->
<g id="node10" class="node">
<title>Node0x600000703b10</title>
<polygon fill="none" stroke="black" points="1123,-9 1123,-77 1211,-77 1211,-9 1123,-9"/>
<text text-anchor="middle" x="1167" y="-66.6" font-family="Times,serif" font-size="8.00">word: perverse</text>
<polyline fill="none" stroke="black" points="1123,-60 1211,-60 "/>
<text text-anchor="middle" x="1167" y="-49.6" font-family="Times,serif" font-size="8.00">size: 1</text>
<polyline fill="none" stroke="black" points="1123,-43 1211,-43 "/>
<text text-anchor="middle" x="1167" y="-32.6" font-family="Times,serif" font-size="8.00">next: 0x600000730f00</text>
<polyline fill="none" stroke="black" points="1123,-26 1211,-26 "/>
<text text-anchor="middle" x="1167" y="-15.6" font-family="Times,serif" font-size="8.00">prev: 0x60000071e700</text>
</g>
<!-- Node0x60000071e700&#45;&gt;Node0x600000703b10 -->
<g id="edge9" class="edge">
<title>Node0x60000071e700:n&#45;&gt;Node0x600000703b10:n</title>
<path fill="none" stroke="red" d="M1087,-34C1099,-34 1104.25,-34 1112.88,-34"/>
<polygon fill="red" stroke="red" points="1113,-37.5 1123,-34 1113,-30.5 1113,-37.5"/>
</g>
<!-- Node0x600000730f00 -->
<g id="node11" class="node">
<title>Node0x600000730f00</title>
<polygon fill="none" stroke="black" points="1247,-9 1247,-77 1335,-77 1335,-9 1247,-9"/>
<text text-anchor="middle" x="1291" y="-66.6" font-family="Times,serif" font-size="8.00">word: jealous</text>
<polyline fill="none" stroke="black" points="1247,-60 1335,-60 "/>
<text text-anchor="middle" x="1291" y="-49.6" font-family="Times,serif" font-size="8.00">size: 4</text>
<polyline fill="none" stroke="black" points="1247,-43 1335,-43 "/>
<text text-anchor="middle" x="1291" y="-32.6" font-family="Times,serif" font-size="8.00">next: 0x600000732070</text>
<polyline fill="none" stroke="black" points="1247,-26 1335,-26 "/>
<text text-anchor="middle" x="1291" y="-15.6" font-family="Times,serif" font-size="8.00">prev: 0x600000703b10</text>
</g>
<!-- Node0x600000703b10&#45;&gt;Node0x600000730f00 -->
<g id="edge10" class="edge">
<title>Node0x600000703b10:n&#45;&gt;Node0x600000730f00:n</title>
<path fill="none" stroke="red" d="M1211,-34C1223,-34 1228.25,-34 1236.88,-34"/>
<polygon fill="red" stroke="red" points="1237,-37.5 1247,-34 1237,-30.5 1237,-37.5"/>
</g>
<!-- Node0x600000732070 -->
<g id="node12" class="node">
<title>Node0x600000732070</title>
<polygon fill="none" stroke="black" points="1371,-9 1371,-77 1458,-77 1458,-9 1371,-9"/>
<text text-anchor="middle" x="1414.5" y="-66.6" font-family="Times,serif" font-size="8.00">word: keeps</text>
<polyline fill="none" stroke="black" points="1371,-60 1458,-60 "/>
<text text-anchor="middle" x="1414.5" y="-49.6" font-family="Times,serif" font-size="8.00">size: 4</text>
<polyline fill="none" stroke="black" points="1371,-43 1458,-43 "/>
<text text-anchor="middle" x="1414.5" y="-32.6" font-family="Times,serif" font-size="8.00">next: 0x600000733570</text>
<polyline fill="none" stroke="black" points="1371,-26 1458,-26 "/>
<text text-anchor="middle" x="1414.5" y="-15.6" font-family="Times,serif" font-size="8.00">prev: 0x600000730f00</text>
</g>
<!-- Node0x600000730f00&#45;&gt;Node0x600000732070 -->
<g id="edge11" class="edge">
<title>Node0x600000730f00:n&#45;&gt;Node0x600000732070:n</title>
<path fill="none" stroke="red" d="M1335,-34C1347,-34 1352.25,-34 1360.88,-34"/>
<polygon fill="red" stroke="red" points="1361,-37.5 1371,-34 1361,-30.5 1361,-37.5"/>
</g>
<!-- Node0x600000733570 -->
<g id="node13" class="node">
<title>Node0x600000733570</title>
<polygon fill="none" stroke="black" points="1494,-9 1494,-77 1582,-77 1582,-9 1494,-9"/>
<text text-anchor="middle" x="1538" y="-66.6" font-family="Times,serif" font-size="8.00">word: tuners</text>
<polyline fill="none" stroke="black" points="1494,-60 1582,-60 "/>
<text text-anchor="middle" x="1538" y="-49.6" font-family="Times,serif" font-size="8.00">size: 1</text>
<polyline fill="none" stroke="black" points="1494,-43 1582,-43 "/>
<text text-anchor="middle" x="1538" y="-32.6" font-family="Times,serif" font-size="8.00">next: 0x6000007339f0</text>
<polyline fill="none" stroke="black" points="1494,-26 1582,-26 "/>
<text text-anchor="middle" x="1538" y="-15.6" font-family="Times,serif" font-size="8.00">prev: 0x600000732070</text>
</g>
<!-- Node0x600000732070&#45;&gt;Node0x600000733570 -->
<g id="edge12" class="edge">
<title>Node0x600000732070:n&#45;&gt;Node0x600000733570:n</title>
<path fill="none" stroke="red" d="M1458,-34C1470,-34 1475.25,-34 1483.88,-34"/>
<polygon fill="red" stroke="red" points="1484,-37.5 1494,-34 1484,-30.5 1484,-37.5"/>
</g>
<!-- Node0x6000007339f0 -->
<g id="node14" class="node">
<title>Node0x6000007339f0</title>
<polygon fill="none" stroke="black" points="1618,-9 1618,-77 1706,-77 1706,-9 1618,-9"/>
<text text-anchor="middle" x="1662" y="-66.6" font-family="Times,serif" font-size="8.00">word: berhyme</text>
<polyline fill="none" stroke="black" points="1618,-60 1706,-60 "/>
<text text-anchor="middle" x="1662" y="-49.6" font-family="Times,serif" font-size="8.00">size: 1</text>
<polyline fill="none" stroke="black" points="1618,-43 1706,-43 "/>
<text text-anchor="middle" x="1662" y="-32.6" font-family="Times,serif" font-size="8.00">next: 0x600000735680</text>
<polyline fill="none" stroke="black" points="1618,-26 1706,-26 "/>
<text text-anchor="middle" x="1662" y="-15.6" font-family="Times,serif" font-size="8.00">prev: 0x600000733570</text>
</g>
<!-- Node0x600000733570&#45;&gt;Node0x6000007339f0 -->
<g id="edge13" class="edge">
<title>Node0x600000733570:n&#45;&gt;Node0x6000007339f0:n</title>
<path fill="none" stroke="red" d="M1582,-34C1594,-34 1599.25,-34 1607.88,-34"/>
<polygon fill="red" stroke="red" points="1608,-37.5 1618,-34 1608,-30.5 1608,-37.5"/>
</g>
<!-- Node0x600000735680 -->
<g id="node15" class="node">
<title>Node0x600000735680</title>
<polygon fill="none" stroke="black" points="1742,-9 1742,-77 1829,-77 1829,-9 1742,-9"/>
<text text-anchor="middle" x="1785.5" y="-66.6" font-family="Times,serif" font-size="8.00">word: gentlemanlike</text>
<polyline fill="none" stroke="black" points="1742,-60 1829,-60 "/>
<text text-anchor="middle" x="1785.5" y="-49.6" font-family="Times,serif" font-size="8.00">size: 1</text>
<polyline fill="none" stroke="black" points="1742,-43 1829,-43 "/>
<text text-anchor="middle" x="1785.5" y="-32.6" font-family="Times,serif" font-size="8.00">next: 0x600000735da0</text>
<polyline fill="none" stroke="black" points="1742,-26 1829,-26 "/>
<text text-anchor="middle" x="1785.5" y="-15.6" font-family="Times,serif" font-size="8.00">prev: 0x6000007339f0</text>
</g>
<!-- Node0x6000007339f0&#45;&gt;Node0x600000735680 -->
<g id="edge14" class="edge">
<title>Node0x6000007339f0:n&#45;&gt;Node0x600000735680:n</title>
<path fill="none" stroke="red" d="M1706,-34C1718,-34 1723.25,-34 1731.88,-34"/>
<polygon fill="red" stroke="red" points="1732,-37.5 1742,-34 1732,-30.5 1732,-37.5"/>
</g>
<!-- Node0x600000735da0 -->
<g id="node16" class="node">
<title>Node0x600000735da0</title>
<polygon fill="none" stroke="black" points="1865,-9 1865,-77 1953,-77 1953,-9 1865,-9"/>
<text text-anchor="middle" x="1909" y="-66.6" font-family="Times,serif" font-size="8.00">word: promis</text>
<polyline fill="none" stroke="black" points="1865,-60 1953,-60 "/>
<text text-anchor="middle" x="1909" y="-49.6" font-family="Times,serif" font-size="8.00">size: 1</text>
<polyline fill="none" stroke="black" points="1865,-43 1953,-43 "/>
<text text-anchor="middle" x="1909" y="-32.6" font-family="Times,serif" font-size="8.00">next: 0x600000737720</text>
<polyline fill="none" stroke="black" points="1865,-26 1953,-26 "/>
<text text-anchor="middle" x="1909" y="-15.6" font-family="Times,serif" font-size="8.00">prev: 0x600000735680</text>
</g>
<!-- Node0x600000735680&#45;&gt;Node0x600000735da0 -->
<g id="edge15" class="edge">
<title>Node0x600000735680:n&#45;&gt;Node0x600000735da0:n</title>
<path fill="none" stroke="red" d="M1829,-34C1841,-34 1846.25,-34 1854.88,-34"/>
<polygon fill="red" stroke="red" points="1855,-37.5 1865,-34 1855,-30.5 1855,-37.5"/>
</g>
<!-- Node0x600000737720 -->
<g id="node17" class="node">
<title>Node0x600000737720</title>
<polygon fill="none" stroke="black" points="1989,-9 1989,-77 2077,-77 2077,-9 1989,-9"/>
<text text-anchor="middle" x="2033" y="-66.6" font-family="Times,serif" font-size="8.00">word: jack</text>
<polyline fill="none" stroke="black" points="1989,-60 2077,-60 "/>
<text text-anchor="middle" x="2033" y="-49.6" font-family="Times,serif" font-size="8.00">size: 1</text>
<polyline fill="none" stroke="black" points="1989,-43 2077,-43 "/>
<text text-anchor="middle" x="2033" y="-32.6" font-family="Times,serif" font-size="8.00">next: 0x600000737d80</text>
<polyline fill="none" stroke="black" points="1989,-26 2077,-26 "/>
<text text-anchor="middle" x="2033" y="-15.6" font-family="Times,serif" font-size="8.00">prev: 0x600000735da0</text>
</g>
<!-- Node0x600000735da0&#45;&gt;Node0x600000737720 -->
<g id="edge16" class="edge">
<title>Node0x600000735da0:n&#45;&gt;Node0x600000737720:n</title>
<path fill="none" stroke="red" d="M1953,-34C1965,-34 1970.25,-34 1978.88,-34"/>
<polygon fill="red" stroke="red" points="1979,-37.5 1989,-34 1979,-30.5 1979,-37.5"/>
</g>
<!-- Node0x600000737d80 -->
<g id="node18" class="node">
<title>Node0x600000737d80</title>
<polygon fill="none" stroke="black" points="2113,-9 2113,-77 2201,-77 2201,-9 2113,-9"/>
<text text-anchor="middle" x="2157" y="-66.6" font-family="Times,serif" font-size="8.00">word: Consort</text>
<polyline fill="none" stroke="black" points="2113,-60 2201,-60 "/>
<text text-anchor="middle" x="2157" y="-49.6" font-family="Times,serif" font-size="8.00">size: 1</text>
<polyline fill="none" stroke="black" points="2113,-43 2201,-43 "/>
<text text-anchor="middle" x="2157" y="-32.6" font-family="Times,serif" font-size="8.00">next: 0x600000739710</text>
<polyline fill="none" stroke="black" points="2113,-26 2201,-26 "/>
<text text-anchor="middle" x="2157" y="-15.6" font-family="Times,serif" font-size="8.00">prev: 0x600000737720</text>
</g>
<!-- Node0x600000737720&#45;&gt;Node0x600000737d80 -->
<g id="edge17" class="edge">
<title>Node0x600000737720:n&#45;&gt;Node0x600000737d80:n</title>
<path fill="none" stroke="red" d="M2077,-34C2089,-34 2094.25,-34 2102.88,-34"/>
<polygon fill="red" stroke="red" points="2103,-37.5 2113,-34 2103,-30.5 2103,-37.5"/>
</g>
<!-- Node0x600000739710 -->
<g id="node19" class="node">
<title>Node0x600000739710</title>
<polygon fill="none" stroke="black" points="2237,-9 2237,-77 2325,-77 2325,-9 2237,-9"/>
<text text-anchor="middle" x="2281" y="-66.6" font-family="Times,serif" font-size="8.00">word: justice</text>
<polyline fill="none" stroke="black" points="2237,-60 2325,-60 "/>
<text text-anchor="middle" x="2281" y="-49.6" font-family="Times,serif" font-size="8.00">size: 1</text>
<polyline fill="none" stroke="black" points="2237,-43 2325,-43 "/>
<text text-anchor="middle" x="2281" y="-32.6" font-family="Times,serif" font-size="8.00">next: 0x600000739b30</text>
<polyline fill="none" stroke="black" points="2237,-26 2325,-26 "/>
<text text-anchor="middle" x="2281" y="-15.6" font-family="Times,serif" font-size="8.00">prev: 0x600000737d80</text>
</g>
<!-- Node0x600000737d80&#45;&gt;Node0x600000739710 -->
<g id="edge18" class="edge">
<title>Node0x600000737d80:n&#45;&gt;Node0x600000739710:n</title>
<path fill="none" stroke="red" d="M2201,-34C2213,-34 2218.25,-34 2226.88,-34"/>
<polygon fill="red" stroke="red" points="2227,-37.5 2237,-34 2227,-30.5 2227,-37.5"/>
</g>
<!-- Node0x600000739b30 -->
<g id="node20" class="node">
<title>Node0x600000739b30</title>
<polygon fill="none" stroke="black" points="2361,-9 2361,-77 2449,-77 2449,-9 2361,-9"/>
<text text-anchor="middle" x="2405" y="-66.6" font-family="Times,serif" font-size="8.00">word: footed</text>
<polyline fill="none" stroke="black" points="2361,-60 2449,-60 "/>
<text text-anchor="middle" x="2405" y="-49.6" font-family="Times,serif" font-size="8.00">size: 1</text>
<polyline fill="none" stroke="black" points="2361,-43 2449,-43 "/>
<text text-anchor="middle" x="2405" y="-32.6" font-family="Times,serif" font-size="8.00">next: 0x60000073be70</text>
<polyline fill="none" stroke="black" points="2361,-26 2449,-26 "/>
<text text-anchor="middle" x="2405" y="-15.6" font-family="Times,serif" font-size="8.00">prev: 0x600000739710</text>
</g>
<!-- Node0x600000739710&#45;&gt;Node0x600000739b30 -->
<g id="edge19" class="edge">
<title>Node0x600000739710:n&#45;&gt;Node0x600000739b30:n</title>
<path fill="none" stroke="red" d="M2325,-34C2337,-34 2342.25,-34 2350.88,-34"/>
<polygon fill="red" stroke="red" points="2351,-37.5 2361,-34 2351,-30.5 2351,-37.5"/>
</g>
<!-- Node0x60000073be70 -->
<g id="node21" class="node">
<title>Node0x60000073be70</title>
<polygon fill="none" stroke="black" points="2485,-9 2485,-77 2573,-77 2573,-9 2485,-9"/>
<text text-anchor="middle" x="2529" y="-66.6" font-family="Times,serif" font-size="8.00">word: Heaven</text>
<polyline fill="none" stroke="black" points="2485,-60 2573,-60 "/>
<text text-anchor="middle" x="2529" y="-49.6" font-family="Times,serif" font-size="8.00">size: 2</text>
<polyline fill="none" stroke="black" points="2485,-43 2573,-43 "/>
<text text-anchor="middle" x="2529" y="-32.6" font-family="Times,serif" font-size="8.00">next: 0x60000073ca50</text>
<polyline fill="none" stroke="black" points="2485,-26 2573,-26 "/>
<text text-anchor="middle" x="2529" y="-15.6" font-family="Times,serif" font-size="8.00">prev: 0x600000739b30</text>
</g>
<!-- Node0x600000739b30&#45;&gt;Node0x60000073be70 -->
<g id="edge20" class="edge">
<title>Node0x600000739b30:n&#45;&gt;Node0x60000073be70:n</title>
<path fill="none" stroke="red" d="M2449,-34C2461,-34 2466.25,-34 2474.88,-34"/>
<polygon fill="red" stroke="red" points="2475,-37.5 2485,-34 2475,-30.5 2475,-37.5"/>
</g>
<!-- Node0x60000073ca50 -->
<g id="node22" class="node">
<title>Node0x60000073ca50</title>
<polygon fill="none" stroke="black" points="2609,-9 2609,-77 2697,-77 2697,-9 2609,-9"/>
<text text-anchor="middle" x="2653" y="-66.6" font-family="Times,serif" font-size="8.00">word: weeps</text>
<polyline fill="none" stroke="black" points="2609,-60 2697,-60 "/>
<text text-anchor="middle" x="2653" y="-49.6" font-family="Times,serif" font-size="8.00">size: 4</text>
<polyline fill="none" stroke="black" points="2609,-43 2697,-43 "/>
<text text-anchor="middle" x="2653" y="-32.6" font-family="Times,serif" font-size="8.00">next: 0x60000073cd20</text>
<polyline fill="none" stroke="black" points="2609,-26 2697,-26 "/>
<text text-anchor="middle" x="2653" y="-15.6" font-family="Times,serif" font-size="8.00">prev: 0x60000073be70</text>
</g>
<!-- Node0x60000073be70&#45;&gt;Node0x60000073ca50 -->
<g id="edge21" class="edge">
<title>Node0x60000073be70:n&#45;&gt;Node0x60000073ca50:n</title>
<path fill="none" stroke="red" d="M2573,-34C2585,-34 2590.25,-34 2598.88,-34"/>
<polygon fill="red" stroke="red" points="2599,-37.5 2609,-34 2599,-30.5 2599,-37.5"/>
</g>
<!-- Node0x60000073cd20 -->
<g id="node23" class="node">
<title>Node0x60000073cd20</title>
<polygon fill="none" stroke="black" points="2733,-9 2733,-77 2821,-77 2821,-9 2733,-9"/>
<text text-anchor="middle" x="2777" y="-66.6" font-family="Times,serif" font-size="8.00">word: doing</text>
<polyline fill="none" stroke="black" points="2733,-60 2821,-60 "/>
<text text-anchor="middle" x="2777" y="-49.6" font-family="Times,serif" font-size="8.00">size: 1</text>
<polyline fill="none" stroke="black" points="2733,-43 2821,-43 "/>
<text text-anchor="middle" x="2777" y="-32.6" font-family="Times,serif" font-size="8.00">next: 0x60000073e550</text>
<polyline fill="none" stroke="black" points="2733,-26 2821,-26 "/>
<text text-anchor="middle" x="2777" y="-15.6" font-family="Times,serif" font-size="8.00">prev: 0x60000073ca50</text>
</g>
<!-- Node0x60000073ca50&#45;&gt;Node0x60000073cd20 -->
<g id="edge22" class="edge">
<title>Node0x60000073ca50:n&#45;&gt;Node0x60000073cd20:n</title>
<path fill="none" stroke="red" d="M2697,-34C2709,-34 2714.25,-34 2722.88,-34"/>
<polygon fill="red" stroke="red" points="2723,-37.5 2733,-34 2723,-30.5 2723,-37.5"/>
</g>
<!-- Node0x60000073e550 -->
<g id="node24" class="node">
<title>Node0x60000073e550</title>
<polygon fill="none" stroke="black" points="2857,-9 2857,-77 2945,-77 2945,-9 2857,-9"/>
<text text-anchor="middle" x="2901" y="-66.6" font-family="Times,serif" font-size="8.00">word: hope</text>
<polyline fill="none" stroke="black" points="2857,-60 2945,-60 "/>
<text text-anchor="middle" x="2901" y="-49.6" font-family="Times,serif" font-size="8.00">size: 4</text>
<polyline fill="none" stroke="black" points="2857,-43 2945,-43 "/>
<text text-anchor="middle" x="2901" y="-32.6" font-family="Times,serif" font-size="8.00">next: 0x60000073ea00</text>
<polyline fill="none" stroke="black" points="2857,-26 2945,-26 "/>
<text text-anchor="middle" x="2901" y="-15.6" font-family="Times,serif" font-size="8.00">prev: 0x60000073cd20</text>
</g>
<!-- Node0x60000073cd20&#45;&gt;Node0x60000073e550 -->
<g id="edge23" class="edge">
<title>Node0x60000073cd20:n&#45;&gt;Node0x60000073e550:n</title>
<path fill="none" stroke="red" d="M2821,-34C2833,-34 2838.25,-34 2846.88,-34"/>
<polygon fill="red" stroke="red" points="2847,-37.5 2857,-34 2847,-30.5 2847,-37.5"/>
</g>
<!-- Node0x60000073ea00 -->
<g id="node25" class="node">
<title>Node0x60000073ea00</title>
<polygon fill="none" stroke="black" points="2981,-9 2981,-77 3069,-77 3069,-9 2981,-9"/>
<text text-anchor="middle" x="3025" y="-66.6" font-family="Times,serif" font-size="8.00">word: wreak</text>
<polyline fill="none" stroke="black" points="2981,-60 3069,-60 "/>
<text text-anchor="middle" x="3025" y="-49.6" font-family="Times,serif" font-size="8.00">size: 1</text>
<polyline fill="none" stroke="black" points="2981,-43 3069,-43 "/>
<text text-anchor="middle" x="3025" y="-32.6" font-family="Times,serif" font-size="8.00">next: 0x60000073f180</text>
<polyline fill="none" stroke="black" points="2981,-26 3069,-26 "/>
<text text-anchor="middle" x="3025" y="-15.6" font-family="Times,serif" font-size="8.00">prev: 0x60000073e550</text>
</g>
<!-- Node0x60000073e550&#45;&gt;Node0x60000073ea00 -->
<g id="edge24" class="edge">
<title>Node0x60000073e550:n&#45;&gt;Node0x60000073ea00:n</title>
<path fill="none" stroke="red" d="M2945,-34C2957,-34 2962.25,-34 2970.88,-34"/>
<polygon fill="red" stroke="red" points="2971,-37.5 2981,-34 2971,-30.5 2971,-37.5"/>
</g>
<!-- Node0x60000073f180 -->
<g id="node26" class="node">
<title>Node0x60000073f180</title>
<polygon fill="none" stroke="black" points="3105,-9 3105,-77 3193,-77 3193,-9 3105,-9"/>
<text text-anchor="middle" x="3149" y="-66.6" font-family="Times,serif" font-size="8.00">word: prouds</text>
<polyline fill="none" stroke="black" points="3105,-60 3193,-60 "/>
<text text-anchor="middle" x="3149" y="-49.6" font-family="Times,serif" font-size="8.00">size: 1</text>
<polyline fill="none" stroke="black" points="3105,-43 3193,-43 "/>
<text text-anchor="middle" x="3149" y="-32.6" font-family="Times,serif" font-size="8.00">next: 0x6000007204b0</text>
<polyline fill="none" stroke="black" points="3105,-26 3193,-26 "/>
<text text-anchor="middle" x="3149" y="-15.6" font-family="Times,serif" font-size="8.00">prev: 0x60000073ea00</text>
</g>
<!-- Node0x60000073ea00&#45;&gt;Node0x60000073f180 -->
<g id="edge25" class="edge">
<title>Node0x60000073ea00:n&#45;&gt;Node0x60000073f180:n</title>
<path fill="none" stroke="red" d="M3069,-34C3081,-34 3086.25,-34 3094.88,-34"/>
<polygon fill="red" stroke="red" points="3095,-37.5 3105,-34 3095,-30.5 3095,-37.5"/>
</g>
<!-- Node0x6000007204b0 -->
<g id="node27" class="node">
<title>Node0x6000007204b0</title>
<polygon fill="none" stroke="black" points="3229,-9 3229,-77 3316,-77 3316,-9 3229,-9"/>
<text text-anchor="middle" x="3272.5" y="-66.6" font-family="Times,serif" font-size="8.00">word: mass</text>
<polyline fill="none" stroke="black" points="3229,-60 3316,-60 "/>
<text text-anchor="middle" x="3272.5" y="-49.6" font-family="Times,serif" font-size="8.00">size: 1</text>
<polyline fill="none" stroke="black" points="3229,-43 3316,-43 "/>
<text text-anchor="middle" x="3272.5" y="-32.6" font-family="Times,serif" font-size="8.00">next: 0x60000070a8b0</text>
<polyline fill="none" stroke="black" points="3229,-26 3316,-26 "/>
<text text-anchor="middle" x="3272.5" y="-15.6" font-family="Times,serif" font-size="8.00">prev: 0x60000073f180</text>
</g>
<!-- Node0x60000073f180&#45;&gt;Node0x6000007204b0 -->
<g id="edge26" class="edge">
<title>Node0x60000073f180:n&#45;&gt;Node0x6000007204b0:n</title>
<path fill="none" stroke="red" d="M3193,-34C3205,-34 3210.25,-34 3218.88,-34"/>
<polygon fill="red" stroke="red" points="3219,-37.5 3229,-34 3219,-30.5 3219,-37.5"/>
</g>
<!-- Node0x60000070a8b0 -->
<g id="node28" class="node">
<title>Node0x60000070a8b0</title>
<polygon fill="none" stroke="black" points="3352,-9 3352,-77 3440,-77 3440,-9 3352,-9"/>
<text text-anchor="middle" x="3396" y="-66.6" font-family="Times,serif" font-size="8.00">word: wronged</text>
<polyline fill="none" stroke="black" points="3352,-60 3440,-60 "/>
<text text-anchor="middle" x="3396" y="-49.6" font-family="Times,serif" font-size="8.00">size: 1</text>
<polyline fill="none" stroke="black" points="3352,-43 3440,-43 "/>
<text text-anchor="middle" x="3396" y="-32.6" font-family="Times,serif" font-size="8.00">next: 0x60000070b960</text>
<polyline fill="none" stroke="black" points="3352,-26 3440,-26 "/>
<text text-anchor="middle" x="3396" y="-15.6" font-family="Times,serif" font-size="8.00">prev: 0x6000007204b0</text>
</g>
<!-- Node0x6000007204b0&#45;&gt;Node0x60000070a8b0 -->
<g id="edge27" class="edge">
<title>Node0x6000007204b0:n&#45;&gt;Node0x60000070a8b0:n</title>
<path fill="none" stroke="red" d="M3316,-34C3328,-34 3333.25,-34 3341.88,-34"/>
<polygon fill="red" stroke="red" points="3342,-37.5 3352,-34 3342,-30.5 3342,-37.5"/>
</g>
<!-- Node0x60000070b960 -->
<g id="node29" class="node">
<title>Node0x60000070b960</title>
<polygon fill="none" stroke="black" points="3476,-9 3476,-77 3564,-77 3564,-9 3476,-9"/>
<text text-anchor="middle" x="3520" y="-66.6" font-family="Times,serif" font-size="8.00">word: posthorses</text>
<polyline fill="none" stroke="black" points="3476,-60 3564,-60 "/>
<text text-anchor="middle" x="3520" y="-49.6" font-family="Times,serif" font-size="8.00">size: 1</text>
<polyline fill="none" stroke="black" points="3476,-43 3564,-43 "/>
<text text-anchor="middle" x="3520" y="-32.6" font-family="Times,serif" font-size="8.00">next: 0x600000726730</text>
<polyline fill="none" stroke="black" points="3476,-26 3564,-26 "/>
<text text-anchor="middle" x="3520" y="-15.6" font-family="Times,serif" font-size="8.00">prev: 0x60000070a8b0</text>
</g>
<!-- Node0x60000070a8b0&#45;&gt;Node0x60000070b960 -->
<g id="edge28" class="edge">
<title>Node0x60000070a8b0:n&#45;&gt;Node0x60000070b960:n</title>
<path fill="none" stroke="red" d="M3440,-34C3452,-34 3457.25,-34 3465.88,-34"/>
<polygon fill="red" stroke="red" points="3466,-37.5 3476,-34 3466,-30.5 3466,-37.5"/>
</g>
<!-- Node0x600000726730 -->
<g id="node30" class="node">
<title>Node0x600000726730</title>
<polygon fill="none" stroke="black" points="3600,-9 3600,-77 3688,-77 3688,-9 3600,-9"/>
<text text-anchor="middle" x="3644" y="-66.6" font-family="Times,serif" font-size="8.00">word: nuns</text>
<polyline fill="none" stroke="black" points="3600,-60 3688,-60 "/>
<text text-anchor="middle" x="3644" y="-49.6" font-family="Times,serif" font-size="8.00">size: 1</text>
<polyline fill="none" stroke="black" points="3600,-43 3688,-43 "/>
<text text-anchor="middle" x="3644" y="-32.6" font-family="Times,serif" font-size="8.00">next: 0x0</text>
<polyline fill="none" stroke="black" points="3600,-26 3688,-26 "/>
<text text-anchor="middle" x="3644" y="-15.6" font-family="Times,serif" font-size="8.00">prev: 0x60000070b960</text>
</g>
<!-- Node0x60000070b960&#45;&gt;Node0x600000726730 -->
<g id="edge29" class="edge">
<title>Node0x60000070b960:n&#45;&gt;Node0x600000726730:n</title>
<path fill="none" stroke="red" d="M3564,-34C3576,-34 3581.25,-34 3589.88,-34"/>
<polygon fill="red" stroke="red" points="3590,-37.5 3600,-34 3590,-30.5 3590,-37.5"/>
</g>
</g>
</svg>
