<?xml version="1.0" encoding="UTF-8" standalone="no"?>
<!DOCTYPE svg PUBLIC "-//W3C//DTD SVG 1.1//EN"
 "http://www.w3.org/Graphics/SVG/1.1/DTD/svg11.dtd">
<!-- Generated by graphviz version 2.50.0 (20211204.2007)
 -->
<!-- Title: G Pages: 1 -->
<svg width="4195pt" height="117pt"
 viewBox="0.00 0.00 4195.00 117.00" xmlns="http://www.w3.org/2000/svg" xmlns:xlink="http://www.w3.org/1999/xlink">
<g id="graph0" class="graph" transform="scale(1 1) rotate(0) translate(4 113)">
<title>G</title>
<polygon fill="white" stroke="transparent" points="-4,4 -4,-113 4191,-113 4191,4 -4,4"/>
<g id="clust1" class="cluster">
<title>cluster408</title>
<polygon fill="none" stroke="black" points="8,-8 8,-101 95,-101 95,-8 8,-8"/>
<text text-anchor="middle" x="51.5" y="-85.8" font-family="Times,serif" font-size="14.00">408</text>
</g>
<g id="clust2" class="cluster">
<title>cluster409</title>
<polygon fill="none" stroke="black" points="131,-8 131,-101 218,-101 218,-8 131,-8"/>
<text text-anchor="middle" x="174.5" y="-85.8" font-family="Times,serif" font-size="14.00">409</text>
</g>
<g id="clust3" class="cluster">
<title>cluster410</title>
<polygon fill="none" stroke="black" points="254,-8 254,-101 342,-101 342,-8 254,-8"/>
<text text-anchor="middle" x="298" y="-85.8" font-family="Times,serif" font-size="14.00">410</text>
</g>
<g id="clust4" class="cluster">
<title>cluster411</title>
<polygon fill="none" stroke="black" points="378,-8 378,-101 466,-101 466,-8 378,-8"/>
<text text-anchor="middle" x="422" y="-85.8" font-family="Times,serif" font-size="14.00">411</text>
</g>
<g id="clust5" class="cluster">
<title>cluster412</title>
<polygon fill="none" stroke="black" points="502,-8 502,-101 590,-101 590,-8 502,-8"/>
<text text-anchor="middle" x="546" y="-85.8" font-family="Times,serif" font-size="14.00">412</text>
</g>
<g id="clust6" class="cluster">
<title>cluster413</title>
<polygon fill="none" stroke="black" points="626,-8 626,-101 714,-101 714,-8 626,-8"/>
<text text-anchor="middle" x="670" y="-85.8" font-family="Times,serif" font-size="14.00">413</text>
</g>
<g id="clust7" class="cluster">
<title>cluster414</title>
<polygon fill="none" stroke="black" points="750,-8 750,-101 838,-101 838,-8 750,-8"/>
<text text-anchor="middle" x="794" y="-85.8" font-family="Times,serif" font-size="14.00">414</text>
</g>
<g id="clust8" class="cluster">
<title>cluster415</title>
<polygon fill="none" stroke="black" points="874,-8 874,-101 962,-101 962,-8 874,-8"/>
<text text-anchor="middle" x="918" y="-85.8" font-family="Times,serif" font-size="14.00">415</text>
</g>
<g id="clust9" class="cluster">
<title>cluster416</title>
<polygon fill="none" stroke="black" points="998,-8 998,-101 1085,-101 1085,-8 998,-8"/>
<text text-anchor="middle" x="1041.5" y="-85.8" font-family="Times,serif" font-size="14.00">416</text>
</g>
<g id="clust10" class="cluster">
<title>cluster417</title>
<polygon fill="none" stroke="black" points="1121,-8 1121,-101 1209,-101 1209,-8 1121,-8"/>
<text text-anchor="middle" x="1165" y="-85.8" font-family="Times,serif" font-size="14.00">417</text>
</g>
<g id="clust11" class="cluster">
<title>cluster418</title>
<polygon fill="none" stroke="black" points="1245,-8 1245,-101 1333,-101 1333,-8 1245,-8"/>
<text text-anchor="middle" x="1289" y="-85.8" font-family="Times,serif" font-size="14.00">418</text>
</g>
<g id="clust12" class="cluster">
<title>cluster419</title>
<polygon fill="none" stroke="black" points="1369,-8 1369,-101 1457,-101 1457,-8 1369,-8"/>
<text text-anchor="middle" x="1413" y="-85.8" font-family="Times,serif" font-size="14.00">419</text>
</g>
<g id="clust13" class="cluster">
<title>cluster420</title>
<polygon fill="none" stroke="black" points="1493,-8 1493,-101 1580,-101 1580,-8 1493,-8"/>
<text text-anchor="middle" x="1536.5" y="-85.8" font-family="Times,serif" font-size="14.00">420</text>
</g>
<g id="clust14" class="cluster">
<title>cluster421</title>
<polygon fill="none" stroke="black" points="1616,-8 1616,-101 1704,-101 1704,-8 1616,-8"/>
<text text-anchor="middle" x="1660" y="-85.8" font-family="Times,serif" font-size="14.00">421</text>
</g>
<g id="clust15" class="cluster">
<title>cluster422</title>
<polygon fill="none" stroke="black" points="1740,-8 1740,-101 1828,-101 1828,-8 1740,-8"/>
<text text-anchor="middle" x="1784" y="-85.8" font-family="Times,serif" font-size="14.00">422</text>
</g>
<g id="clust16" class="cluster">
<title>cluster423</title>
<polygon fill="none" stroke="black" points="1864,-8 1864,-101 1952,-101 1952,-8 1864,-8"/>
<text text-anchor="middle" x="1908" y="-85.8" font-family="Times,serif" font-size="14.00">423</text>
</g>
<g id="clust17" class="cluster">
<title>cluster424</title>
<polygon fill="none" stroke="black" points="1988,-8 1988,-101 2076,-101 2076,-8 1988,-8"/>
<text text-anchor="middle" x="2032" y="-85.8" font-family="Times,serif" font-size="14.00">424</text>
</g>
<g id="clust18" class="cluster">
<title>cluster425</title>
<polygon fill="none" stroke="black" points="2112,-8 2112,-101 2199,-101 2199,-8 2112,-8"/>
<text text-anchor="middle" x="2155.5" y="-85.8" font-family="Times,serif" font-size="14.00">425</text>
</g>
<g id="clust19" class="cluster">
<title>cluster426</title>
<polygon fill="none" stroke="black" points="2235,-8 2235,-101 2323,-101 2323,-8 2235,-8"/>
<text text-anchor="middle" x="2279" y="-85.8" font-family="Times,serif" font-size="14.00">426</text>
</g>
<g id="clust20" class="cluster">
<title>cluster427</title>
<polygon fill="none" stroke="black" points="2359,-8 2359,-101 2447,-101 2447,-8 2359,-8"/>
<text text-anchor="middle" x="2403" y="-85.8" font-family="Times,serif" font-size="14.00">427</text>
</g>
<g id="clust21" class="cluster">
<title>cluster428</title>
<polygon fill="none" stroke="black" points="2483,-8 2483,-101 2571,-101 2571,-8 2483,-8"/>
<text text-anchor="middle" x="2527" y="-85.8" font-family="Times,serif" font-size="14.00">428</text>
</g>
<g id="clust22" class="cluster">
<title>cluster429</title>
<polygon fill="none" stroke="black" points="2607,-8 2607,-101 2694,-101 2694,-8 2607,-8"/>
<text text-anchor="middle" x="2650.5" y="-85.8" font-family="Times,serif" font-size="14.00">429</text>
</g>
<g id="clust23" class="cluster">
<title>cluster430</title>
<polygon fill="none" stroke="black" points="2730,-8 2730,-101 2818,-101 2818,-8 2730,-8"/>
<text text-anchor="middle" x="2774" y="-85.8" font-family="Times,serif" font-size="14.00">430</text>
</g>
<g id="clust24" class="cluster">
<title>cluster431</title>
<polygon fill="none" stroke="black" points="2854,-8 2854,-101 2942,-101 2942,-8 2854,-8"/>
<text text-anchor="middle" x="2898" y="-85.8" font-family="Times,serif" font-size="14.00">431</text>
</g>
<g id="clust25" class="cluster">
<title>cluster432</title>
<polygon fill="none" stroke="black" points="2978,-8 2978,-101 3066,-101 3066,-8 2978,-8"/>
<text text-anchor="middle" x="3022" y="-85.8" font-family="Times,serif" font-size="14.00">432</text>
</g>
<g id="clust26" class="cluster">
<title>cluster433</title>
<polygon fill="none" stroke="black" points="3102,-8 3102,-101 3190,-101 3190,-8 3102,-8"/>
<text text-anchor="middle" x="3146" y="-85.8" font-family="Times,serif" font-size="14.00">433</text>
</g>
<g id="clust27" class="cluster">
<title>cluster434</title>
<polygon fill="none" stroke="black" points="3226,-8 3226,-101 3313,-101 3313,-8 3226,-8"/>
<text text-anchor="middle" x="3269.5" y="-85.8" font-family="Times,serif" font-size="14.00">434</text>
</g>
<g id="clust28" class="cluster">
<title>cluster435</title>
<polygon fill="none" stroke="black" points="3349,-8 3349,-101 3437,-101 3437,-8 3349,-8"/>
<text text-anchor="middle" x="3393" y="-85.8" font-family="Times,serif" font-size="14.00">435</text>
</g>
<g id="clust29" class="cluster">
<title>cluster436</title>
<polygon fill="none" stroke="black" points="3473,-8 3473,-101 3560,-101 3560,-8 3473,-8"/>
<text text-anchor="middle" x="3516.5" y="-85.8" font-family="Times,serif" font-size="14.00">436</text>
</g>
<g id="clust30" class="cluster">
<title>cluster437</title>
<polygon fill="none" stroke="black" points="3596,-8 3596,-101 3683,-101 3683,-8 3596,-8"/>
<text text-anchor="middle" x="3639.5" y="-85.8" font-family="Times,serif" font-size="14.00">437</text>
</g>
<g id="clust31" class="cluster">
<title>cluster438</title>
<polygon fill="none" stroke="black" points="3719,-8 3719,-101 3807,-101 3807,-8 3719,-8"/>
<text text-anchor="middle" x="3763" y="-85.8" font-family="Times,serif" font-size="14.00">438</text>
</g>
<g id="clust32" class="cluster">
<title>cluster439</title>
<polygon fill="none" stroke="black" points="3843,-8 3843,-101 3931,-101 3931,-8 3843,-8"/>
<text text-anchor="middle" x="3887" y="-85.8" font-family="Times,serif" font-size="14.00">439</text>
</g>
<g id="clust33" class="cluster">
<title>cluster440</title>
<polygon fill="none" stroke="black" points="3967,-8 3967,-101 4055,-101 4055,-8 3967,-8"/>
<text text-anchor="middle" x="4011" y="-85.8" font-family="Times,serif" font-size="14.00">440</text>
</g>
<g id="clust34" class="cluster">
<title>cluster441</title>
<polygon fill="none" stroke="black" points="4091,-8 4091,-101 4179,-101 4179,-8 4091,-8"/>
<text text-anchor="middle" x="4135" y="-85.8" font-family="Times,serif" font-size="14.00">441</text>
</g>
<!-- Node0x600000711f20 -->
<g id="node1" class="node">
<title>Node0x600000711f20</title>
<polygon fill="none" stroke="black" points="8,-9 8,-77 95,-77 95,-9 8,-9"/>
<text text-anchor="middle" x="51.5" y="-66.6" font-family="Times,serif" font-size="8.00">word: remove</text>
<polyline fill="none" stroke="black" points="8,-60 95,-60 "/>
<text text-anchor="middle" x="51.5" y="-49.6" font-family="Times,serif" font-size="8.00">size: 4</text>
<polyline fill="none" stroke="black" points="8,-43 95,-43 "/>
<text text-anchor="middle" x="51.5" y="-32.6" font-family="Times,serif" font-size="8.00">next: 0x60000071b1e0</text>
<polyline fill="none" stroke="black" points="8,-26 95,-26 "/>
<text text-anchor="middle" x="51.5" y="-15.6" font-family="Times,serif" font-size="8.00">prev: 0x0</text>
</g>
<!-- Node0x60000071b1e0 -->
<g id="node2" class="node">
<title>Node0x60000071b1e0</title>
<polygon fill="none" stroke="black" points="131,-9 131,-77 218,-77 218,-9 131,-9"/>
<text text-anchor="middle" x="174.5" y="-66.6" font-family="Times,serif" font-size="8.00">word: buds</text>
<polyline fill="none" stroke="black" points="131,-60 218,-60 "/>
<text text-anchor="middle" x="174.5" y="-49.6" font-family="Times,serif" font-size="8.00">size: 1</text>
<polyline fill="none" stroke="black" points="131,-43 218,-43 "/>
<text text-anchor="middle" x="174.5" y="-32.6" font-family="Times,serif" font-size="8.00">next: 0x60000071b300</text>
<polyline fill="none" stroke="black" points="131,-26 218,-26 "/>
<text text-anchor="middle" x="174.5" y="-15.6" font-family="Times,serif" font-size="8.00">prev: 0x600000711f20</text>
</g>
<!-- Node0x600000711f20&#45;&gt;Node0x60000071b1e0 -->
<g id="edge1" class="edge">
<title>Node0x600000711f20:n&#45;&gt;Node0x60000071b1e0:n</title>
<path fill="none" stroke="red" d="M95,-34C107,-34 112.25,-34 120.88,-34"/>
<polygon fill="red" stroke="red" points="121,-37.5 131,-34 121,-30.5 121,-37.5"/>
</g>
<!-- Node0x60000071b300 -->
<g id="node3" class="node">
<title>Node0x60000071b300</title>
<polygon fill="none" stroke="black" points="254,-9 254,-77 342,-77 342,-9 254,-9"/>
<text text-anchor="middle" x="298" y="-66.6" font-family="Times,serif" font-size="8.00">word: reck</text>
<polyline fill="none" stroke="black" points="254,-60 342,-60 "/>
<text text-anchor="middle" x="298" y="-49.6" font-family="Times,serif" font-size="8.00">size: 1</text>
<polyline fill="none" stroke="black" points="254,-43 342,-43 "/>
<text text-anchor="middle" x="298" y="-32.6" font-family="Times,serif" font-size="8.00">next: 0x6000007040c0</text>
<polyline fill="none" stroke="black" points="254,-26 342,-26 "/>
<text text-anchor="middle" x="298" y="-15.6" font-family="Times,serif" font-size="8.00">prev: 0x60000071b1e0</text>
</g>
<!-- Node0x60000071b1e0&#45;&gt;Node0x60000071b300 -->
<g id="edge2" class="edge">
<title>Node0x60000071b1e0:n&#45;&gt;Node0x60000071b300:n</title>
<path fill="none" stroke="red" d="M218,-34C230,-34 235.25,-34 243.88,-34"/>
<polygon fill="red" stroke="red" points="244,-37.5 254,-34 244,-30.5 244,-37.5"/>
</g>
<!-- Node0x6000007040c0 -->
<g id="node4" class="node">
<title>Node0x6000007040c0</title>
<polygon fill="none" stroke="black" points="378,-9 378,-77 466,-77 466,-9 378,-9"/>
<text text-anchor="middle" x="422" y="-66.6" font-family="Times,serif" font-size="8.00">word: reads</text>
<polyline fill="none" stroke="black" points="378,-60 466,-60 "/>
<text text-anchor="middle" x="422" y="-49.6" font-family="Times,serif" font-size="8.00">size: 1</text>
<polyline fill="none" stroke="black" points="378,-43 466,-43 "/>
<text text-anchor="middle" x="422" y="-32.6" font-family="Times,serif" font-size="8.00">next: 0x600000709020</text>
<polyline fill="none" stroke="black" points="378,-26 466,-26 "/>
<text text-anchor="middle" x="422" y="-15.6" font-family="Times,serif" font-size="8.00">prev: 0x60000071b300</text>
</g>
<!-- Node0x60000071b300&#45;&gt;Node0x6000007040c0 -->
<g id="edge3" class="edge">
<title>Node0x60000071b300:n&#45;&gt;Node0x6000007040c0:n</title>
<path fill="none" stroke="red" d="M342,-34C354,-34 359.25,-34 367.88,-34"/>
<polygon fill="red" stroke="red" points="368,-37.5 378,-34 368,-30.5 368,-37.5"/>
</g>
<!-- Node0x600000709020 -->
<g id="node5" class="node">
<title>Node0x600000709020</title>
<polygon fill="none" stroke="black" points="502,-9 502,-77 590,-77 590,-9 502,-9"/>
<text text-anchor="middle" x="546" y="-66.6" font-family="Times,serif" font-size="8.00">word: thousand</text>
<polyline fill="none" stroke="black" points="502,-60 590,-60 "/>
<text text-anchor="middle" x="546" y="-49.6" font-family="Times,serif" font-size="8.00">size: 7</text>
<polyline fill="none" stroke="black" points="502,-43 590,-43 "/>
<text text-anchor="middle" x="546" y="-32.6" font-family="Times,serif" font-size="8.00">next: 0x600000709b90</text>
<polyline fill="none" stroke="black" points="502,-26 590,-26 "/>
<text text-anchor="middle" x="546" y="-15.6" font-family="Times,serif" font-size="8.00">prev: 0x6000007040c0</text>
</g>
<!-- Node0x6000007040c0&#45;&gt;Node0x600000709020 -->
<g id="edge4" class="edge">
<title>Node0x6000007040c0:n&#45;&gt;Node0x600000709020:n</title>
<path fill="none" stroke="red" d="M466,-34C478,-34 483.25,-34 491.88,-34"/>
<polygon fill="red" stroke="red" points="492,-37.5 502,-34 492,-30.5 492,-37.5"/>
</g>
<!-- Node0x600000709b90 -->
<g id="node6" class="node">
<title>Node0x600000709b90</title>
<polygon fill="none" stroke="black" points="626,-9 626,-77 714,-77 714,-9 626,-9"/>
<text text-anchor="middle" x="670" y="-66.6" font-family="Times,serif" font-size="8.00">word: margent</text>
<polyline fill="none" stroke="black" points="626,-60 714,-60 "/>
<text text-anchor="middle" x="670" y="-49.6" font-family="Times,serif" font-size="8.00">size: 1</text>
<polyline fill="none" stroke="black" points="626,-43 714,-43 "/>
<text text-anchor="middle" x="670" y="-32.6" font-family="Times,serif" font-size="8.00">next: 0x60000071e310</text>
<polyline fill="none" stroke="black" points="626,-26 714,-26 "/>
<text text-anchor="middle" x="670" y="-15.6" font-family="Times,serif" font-size="8.00">prev: 0x600000709020</text>
</g>
<!-- Node0x600000709020&#45;&gt;Node0x600000709b90 -->
<g id="edge5" class="edge">
<title>Node0x600000709020:n&#45;&gt;Node0x600000709b90:n</title>
<path fill="none" stroke="red" d="M590,-34C602,-34 607.25,-34 615.88,-34"/>
<polygon fill="red" stroke="red" points="616,-37.5 626,-34 616,-30.5 616,-37.5"/>
</g>
<!-- Node0x60000071e310 -->
<g id="node7" class="node">
<title>Node0x60000071e310</title>
<polygon fill="none" stroke="black" points="750,-9 750,-77 838,-77 838,-9 750,-9"/>
<text text-anchor="middle" x="794" y="-66.6" font-family="Times,serif" font-size="8.00">word: substance</text>
<polyline fill="none" stroke="black" points="750,-60 838,-60 "/>
<text text-anchor="middle" x="794" y="-49.6" font-family="Times,serif" font-size="8.00">size: 3</text>
<polyline fill="none" stroke="black" points="750,-43 838,-43 "/>
<text text-anchor="middle" x="794" y="-32.6" font-family="Times,serif" font-size="8.00">next: 0x60000071ff90</text>
<polyline fill="none" stroke="black" points="750,-26 838,-26 "/>
<text text-anchor="middle" x="794" y="-15.6" font-family="Times,serif" font-size="8.00">prev: 0x600000709b90</text>
</g>
<!-- Node0x600000709b90&#45;&gt;Node0x60000071e310 -->
<g id="edge6" class="edge">
<title>Node0x600000709b90:n&#45;&gt;Node0x60000071e310:n</title>
<path fill="none" stroke="red" d="M714,-34C726,-34 731.25,-34 739.88,-34"/>
<polygon fill="red" stroke="red" points="740,-37.5 750,-34 740,-30.5 740,-37.5"/>
</g>
<!-- Node0x60000071ff90 -->
<g id="node8" class="node">
<title>Node0x60000071ff90</title>
<polygon fill="none" stroke="black" points="874,-9 874,-77 962,-77 962,-9 874,-9"/>
<text text-anchor="middle" x="918" y="-66.6" font-family="Times,serif" font-size="8.00">word: Young</text>
<polyline fill="none" stroke="black" points="874,-60 962,-60 "/>
<text text-anchor="middle" x="918" y="-49.6" font-family="Times,serif" font-size="8.00">size: 4</text>
<polyline fill="none" stroke="black" points="874,-43 962,-43 "/>
<text text-anchor="middle" x="918" y="-32.6" font-family="Times,serif" font-size="8.00">next: 0x60000070c180</text>
<polyline fill="none" stroke="black" points="874,-26 962,-26 "/>
<text text-anchor="middle" x="918" y="-15.6" font-family="Times,serif" font-size="8.00">prev: 0x60000071e310</text>
</g>
<!-- Node0x60000071e310&#45;&gt;Node0x60000071ff90 -->
<g id="edge7" class="edge">
<title>Node0x60000071e310:n&#45;&gt;Node0x60000071ff90:n</title>
<path fill="none" stroke="red" d="M838,-34C850,-34 855.25,-34 863.88,-34"/>
<polygon fill="red" stroke="red" points="864,-37.5 874,-34 864,-30.5 864,-37.5"/>
</g>
<!-- Node0x60000070c180 -->
<g id="node9" class="node">
<title>Node0x60000070c180</title>
<polygon fill="none" stroke="black" points="998,-9 998,-77 1085,-77 1085,-9 998,-9"/>
<text text-anchor="middle" x="1041.5" y="-66.6" font-family="Times,serif" font-size="8.00">word: wealth</text>
<polyline fill="none" stroke="black" points="998,-60 1085,-60 "/>
<text text-anchor="middle" x="1041.5" y="-49.6" font-family="Times,serif" font-size="8.00">size: 2</text>
<polyline fill="none" stroke="black" points="998,-43 1085,-43 "/>
<text text-anchor="middle" x="1041.5" y="-32.6" font-family="Times,serif" font-size="8.00">next: 0x600000701800</text>
<polyline fill="none" stroke="black" points="998,-26 1085,-26 "/>
<text text-anchor="middle" x="1041.5" y="-15.6" font-family="Times,serif" font-size="8.00">prev: 0x60000071ff90</text>
</g>
<!-- Node0x60000071ff90&#45;&gt;Node0x60000070c180 -->
<g id="edge8" class="edge">
<title>Node0x60000071ff90:n&#45;&gt;Node0x60000070c180:n</title>
<path fill="none" stroke="red" d="M962,-34C974,-34 979.25,-34 987.88,-34"/>
<polygon fill="red" stroke="red" points="988,-37.5 998,-34 988,-30.5 988,-37.5"/>
</g>
<!-- Node0x600000701800 -->
<g id="node10" class="node">
<title>Node0x600000701800</title>
<polygon fill="none" stroke="black" points="1121,-9 1121,-77 1209,-77 1209,-9 1121,-9"/>
<text text-anchor="middle" x="1165" y="-66.6" font-family="Times,serif" font-size="8.00">word: n</text>
<polyline fill="none" stroke="black" points="1121,-60 1209,-60 "/>
<text text-anchor="middle" x="1165" y="-49.6" font-family="Times,serif" font-size="8.00">size: 3</text>
<polyline fill="none" stroke="black" points="1121,-43 1209,-43 "/>
<text text-anchor="middle" x="1165" y="-32.6" font-family="Times,serif" font-size="8.00">next: 0x600000702a30</text>
<polyline fill="none" stroke="black" points="1121,-26 1209,-26 "/>
<text text-anchor="middle" x="1165" y="-15.6" font-family="Times,serif" font-size="8.00">prev: 0x60000070c180</text>
</g>
<!-- Node0x60000070c180&#45;&gt;Node0x600000701800 -->
<g id="edge9" class="edge">
<title>Node0x60000070c180:n&#45;&gt;Node0x600000701800:n</title>
<path fill="none" stroke="red" d="M1085,-34C1097,-34 1102.25,-34 1110.88,-34"/>
<polygon fill="red" stroke="red" points="1111,-37.5 1121,-34 1111,-30.5 1111,-37.5"/>
</g>
<!-- Node0x600000702a30 -->
<g id="node11" class="node">
<title>Node0x600000702a30</title>
<polygon fill="none" stroke="black" points="1245,-9 1245,-77 1333,-77 1333,-9 1245,-9"/>
<text text-anchor="middle" x="1289" y="-66.6" font-family="Times,serif" font-size="8.00">word: leans</text>
<polyline fill="none" stroke="black" points="1245,-60 1333,-60 "/>
<text text-anchor="middle" x="1289" y="-49.6" font-family="Times,serif" font-size="8.00">size: 1</text>
<polyline fill="none" stroke="black" points="1245,-43 1333,-43 "/>
<text text-anchor="middle" x="1289" y="-32.6" font-family="Times,serif" font-size="8.00">next: 0x600000702f40</text>
<polyline fill="none" stroke="black" points="1245,-26 1333,-26 "/>
<text text-anchor="middle" x="1289" y="-15.6" font-family="Times,serif" font-size="8.00">prev: 0x600000701800</text>
</g>
<!-- Node0x600000701800&#45;&gt;Node0x600000702a30 -->
<g id="edge10" class="edge">
<title>Node0x600000701800:n&#45;&gt;Node0x600000702a30:n</title>
<path fill="none" stroke="red" d="M1209,-34C1221,-34 1226.25,-34 1234.88,-34"/>
<polygon fill="red" stroke="red" points="1235,-37.5 1245,-34 1235,-30.5 1235,-37.5"/>
</g>
<!-- Node0x600000702f40 -->
<g id="node12" class="node">
<title>Node0x600000702f40</title>
<polygon fill="none" stroke="black" points="1369,-9 1369,-77 1457,-77 1457,-9 1369,-9"/>
<text text-anchor="middle" x="1413" y="-66.6" font-family="Times,serif" font-size="8.00">word: Without</text>
<polyline fill="none" stroke="black" points="1369,-60 1457,-60 "/>
<text text-anchor="middle" x="1413" y="-49.6" font-family="Times,serif" font-size="8.00">size: 3</text>
<polyline fill="none" stroke="black" points="1369,-43 1457,-43 "/>
<text text-anchor="middle" x="1413" y="-32.6" font-family="Times,serif" font-size="8.00">next: 0x6000007032d0</text>
<polyline fill="none" stroke="black" points="1369,-26 1457,-26 "/>
<text text-anchor="middle" x="1413" y="-15.6" font-family="Times,serif" font-size="8.00">prev: 0x600000702a30</text>
</g>
<!-- Node0x600000702a30&#45;&gt;Node0x600000702f40 -->
<g id="edge11" class="edge">
<title>Node0x600000702a30:n&#45;&gt;Node0x600000702f40:n</title>
<path fill="none" stroke="red" d="M1333,-34C1345,-34 1350.25,-34 1358.88,-34"/>
<polygon fill="red" stroke="red" points="1359,-37.5 1369,-34 1359,-30.5 1359,-37.5"/>
</g>
<!-- Node0x6000007032d0 -->
<g id="node13" class="node">
<title>Node0x6000007032d0</title>
<polygon fill="none" stroke="black" points="1493,-9 1493,-77 1580,-77 1580,-9 1493,-9"/>
<text text-anchor="middle" x="1536.5" y="-66.6" font-family="Times,serif" font-size="8.00">word: cam</text>
<polyline fill="none" stroke="black" points="1493,-60 1580,-60 "/>
<text text-anchor="middle" x="1536.5" y="-49.6" font-family="Times,serif" font-size="8.00">size: 2</text>
<polyline fill="none" stroke="black" points="1493,-43 1580,-43 "/>
<text text-anchor="middle" x="1536.5" y="-32.6" font-family="Times,serif" font-size="8.00">next: 0x600000703d50</text>
<polyline fill="none" stroke="black" points="1493,-26 1580,-26 "/>
<text text-anchor="middle" x="1536.5" y="-15.6" font-family="Times,serif" font-size="8.00">prev: 0x600000702f40</text>
</g>
<!-- Node0x600000702f40&#45;&gt;Node0x6000007032d0 -->
<g id="edge12" class="edge">
<title>Node0x600000702f40:n&#45;&gt;Node0x6000007032d0:n</title>
<path fill="none" stroke="red" d="M1457,-34C1469,-34 1474.25,-34 1482.88,-34"/>
<polygon fill="red" stroke="red" points="1483,-37.5 1493,-34 1483,-30.5 1483,-37.5"/>
</g>
<!-- Node0x600000703d50 -->
<g id="node14" class="node">
<title>Node0x600000703d50</title>
<polygon fill="none" stroke="black" points="1616,-9 1616,-77 1704,-77 1704,-9 1616,-9"/>
<text text-anchor="middle" x="1660" y="-66.6" font-family="Times,serif" font-size="8.00">word: silver</text>
<polyline fill="none" stroke="black" points="1616,-60 1704,-60 "/>
<text text-anchor="middle" x="1660" y="-49.6" font-family="Times,serif" font-size="8.00">size: 10</text>
<polyline fill="none" stroke="black" points="1616,-43 1704,-43 "/>
<text text-anchor="middle" x="1660" y="-32.6" font-family="Times,serif" font-size="8.00">next: 0x600000730060</text>
<polyline fill="none" stroke="black" points="1616,-26 1704,-26 "/>
<text text-anchor="middle" x="1660" y="-15.6" font-family="Times,serif" font-size="8.00">prev: 0x6000007032d0</text>
</g>
<!-- Node0x6000007032d0&#45;&gt;Node0x600000703d50 -->
<g id="edge13" class="edge">
<title>Node0x6000007032d0:n&#45;&gt;Node0x600000703d50:n</title>
<path fill="none" stroke="red" d="M1580,-34C1592,-34 1597.25,-34 1605.88,-34"/>
<polygon fill="red" stroke="red" points="1606,-37.5 1616,-34 1606,-30.5 1606,-37.5"/>
</g>
<!-- Node0x600000730060 -->
<g id="node15" class="node">
<title>Node0x600000730060</title>
<polygon fill="none" stroke="black" points="1740,-9 1740,-77 1828,-77 1828,-9 1740,-9"/>
<text text-anchor="middle" x="1784" y="-66.6" font-family="Times,serif" font-size="8.00">word: unadvis</text>
<polyline fill="none" stroke="black" points="1740,-60 1828,-60 "/>
<text text-anchor="middle" x="1784" y="-49.6" font-family="Times,serif" font-size="8.00">size: 1</text>
<polyline fill="none" stroke="black" points="1740,-43 1828,-43 "/>
<text text-anchor="middle" x="1784" y="-32.6" font-family="Times,serif" font-size="8.00">next: 0x600000731a10</text>
<polyline fill="none" stroke="black" points="1740,-26 1828,-26 "/>
<text text-anchor="middle" x="1784" y="-15.6" font-family="Times,serif" font-size="8.00">prev: 0x600000703d50</text>
</g>
<!-- Node0x600000703d50&#45;&gt;Node0x600000730060 -->
<g id="edge14" class="edge">
<title>Node0x600000703d50:n&#45;&gt;Node0x600000730060:n</title>
<path fill="none" stroke="red" d="M1704,-34C1716,-34 1721.25,-34 1729.88,-34"/>
<polygon fill="red" stroke="red" points="1730,-37.5 1740,-34 1730,-30.5 1730,-37.5"/>
</g>
<!-- Node0x600000731a10 -->
<g id="node16" class="node">
<title>Node0x600000731a10</title>
<polygon fill="none" stroke="black" points="1864,-9 1864,-77 1952,-77 1952,-9 1864,-9"/>
<text text-anchor="middle" x="1908" y="-66.6" font-family="Times,serif" font-size="8.00">word: stumbling</text>
<polyline fill="none" stroke="black" points="1864,-60 1952,-60 "/>
<text text-anchor="middle" x="1908" y="-49.6" font-family="Times,serif" font-size="8.00">size: 1</text>
<polyline fill="none" stroke="black" points="1864,-43 1952,-43 "/>
<text text-anchor="middle" x="1908" y="-32.6" font-family="Times,serif" font-size="8.00">next: 0x600000732df0</text>
<polyline fill="none" stroke="black" points="1864,-26 1952,-26 "/>
<text text-anchor="middle" x="1908" y="-15.6" font-family="Times,serif" font-size="8.00">prev: 0x600000730060</text>
</g>
<!-- Node0x600000730060&#45;&gt;Node0x600000731a10 -->
<g id="edge15" class="edge">
<title>Node0x600000730060:n&#45;&gt;Node0x600000731a10:n</title>
<path fill="none" stroke="red" d="M1828,-34C1840,-34 1845.25,-34 1853.88,-34"/>
<polygon fill="red" stroke="red" points="1854,-37.5 1864,-34 1854,-30.5 1854,-37.5"/>
</g>
<!-- Node0x600000732df0 -->
<g id="node17" class="node">
<title>Node0x600000732df0</title>
<polygon fill="none" stroke="black" points="1988,-9 1988,-77 2076,-77 2076,-9 1988,-9"/>
<text text-anchor="middle" x="2032" y="-66.6" font-family="Times,serif" font-size="8.00">word: stumble</text>
<polyline fill="none" stroke="black" points="1988,-60 2076,-60 "/>
<text text-anchor="middle" x="2032" y="-49.6" font-family="Times,serif" font-size="8.00">size: 1</text>
<polyline fill="none" stroke="black" points="1988,-43 2076,-43 "/>
<text text-anchor="middle" x="2032" y="-32.6" font-family="Times,serif" font-size="8.00">next: 0x6000007337e0</text>
<polyline fill="none" stroke="black" points="1988,-26 2076,-26 "/>
<text text-anchor="middle" x="2032" y="-15.6" font-family="Times,serif" font-size="8.00">prev: 0x600000731a10</text>
</g>
<!-- Node0x600000731a10&#45;&gt;Node0x600000732df0 -->
<g id="edge16" class="edge">
<title>Node0x600000731a10:n&#45;&gt;Node0x600000732df0:n</title>
<path fill="none" stroke="red" d="M1952,-34C1964,-34 1969.25,-34 1977.88,-34"/>
<polygon fill="red" stroke="red" points="1978,-37.5 1988,-34 1978,-30.5 1978,-37.5"/>
</g>
<!-- Node0x6000007337e0 -->
<g id="node18" class="node">
<title>Node0x6000007337e0</title>
<polygon fill="none" stroke="black" points="2112,-9 2112,-77 2199,-77 2199,-9 2112,-9"/>
<text text-anchor="middle" x="2155.5" y="-66.6" font-family="Times,serif" font-size="8.00">word: bench</text>
<polyline fill="none" stroke="black" points="2112,-60 2199,-60 "/>
<text text-anchor="middle" x="2155.5" y="-49.6" font-family="Times,serif" font-size="8.00">size: 1</text>
<polyline fill="none" stroke="black" points="2112,-43 2199,-43 "/>
<text text-anchor="middle" x="2155.5" y="-32.6" font-family="Times,serif" font-size="8.00">next: 0x600000736610</text>
<polyline fill="none" stroke="black" points="2112,-26 2199,-26 "/>
<text text-anchor="middle" x="2155.5" y="-15.6" font-family="Times,serif" font-size="8.00">prev: 0x600000732df0</text>
</g>
<!-- Node0x600000732df0&#45;&gt;Node0x6000007337e0 -->
<g id="edge17" class="edge">
<title>Node0x600000732df0:n&#45;&gt;Node0x6000007337e0:n</title>
<path fill="none" stroke="red" d="M2076,-34C2088,-34 2093.25,-34 2101.88,-34"/>
<polygon fill="red" stroke="red" points="2102,-37.5 2112,-34 2102,-30.5 2102,-37.5"/>
</g>
<!-- Node0x600000736610 -->
<g id="node19" class="node">
<title>Node0x600000736610</title>
<polygon fill="none" stroke="black" points="2235,-9 2235,-77 2323,-77 2323,-9 2235,-9"/>
<text text-anchor="middle" x="2279" y="-66.6" font-family="Times,serif" font-size="8.00">word: body</text>
<polyline fill="none" stroke="black" points="2235,-60 2323,-60 "/>
<text text-anchor="middle" x="2279" y="-49.6" font-family="Times,serif" font-size="8.00">size: 10</text>
<polyline fill="none" stroke="black" points="2235,-43 2323,-43 "/>
<text text-anchor="middle" x="2279" y="-32.6" font-family="Times,serif" font-size="8.00">next: 0x600000738120</text>
<polyline fill="none" stroke="black" points="2235,-26 2323,-26 "/>
<text text-anchor="middle" x="2279" y="-15.6" font-family="Times,serif" font-size="8.00">prev: 0x6000007337e0</text>
</g>
<!-- Node0x6000007337e0&#45;&gt;Node0x600000736610 -->
<g id="edge18" class="edge">
<title>Node0x6000007337e0:n&#45;&gt;Node0x600000736610:n</title>
<path fill="none" stroke="red" d="M2199,-34C2211,-34 2216.25,-34 2224.88,-34"/>
<polygon fill="red" stroke="red" points="2225,-37.5 2235,-34 2225,-30.5 2225,-37.5"/>
</g>
<!-- Node0x600000738120 -->
<g id="node20" class="node">
<title>Node0x600000738120</title>
<polygon fill="none" stroke="black" points="2359,-9 2359,-77 2447,-77 2447,-9 2359,-9"/>
<text text-anchor="middle" x="2403" y="-66.6" font-family="Times,serif" font-size="8.00">word: injur</text>
<polyline fill="none" stroke="black" points="2359,-60 2447,-60 "/>
<text text-anchor="middle" x="2403" y="-49.6" font-family="Times,serif" font-size="8.00">size: 1</text>
<polyline fill="none" stroke="black" points="2359,-43 2447,-43 "/>
<text text-anchor="middle" x="2403" y="-32.6" font-family="Times,serif" font-size="8.00">next: 0x6000007395f0</text>
<polyline fill="none" stroke="black" points="2359,-26 2447,-26 "/>
<text text-anchor="middle" x="2403" y="-15.6" font-family="Times,serif" font-size="8.00">prev: 0x600000736610</text>
</g>
<!-- Node0x600000736610&#45;&gt;Node0x600000738120 -->
<g id="edge19" class="edge">
<title>Node0x600000736610:n&#45;&gt;Node0x600000738120:n</title>
<path fill="none" stroke="red" d="M2323,-34C2335,-34 2340.25,-34 2348.88,-34"/>
<polygon fill="red" stroke="red" points="2349,-37.5 2359,-34 2349,-30.5 2349,-37.5"/>
</g>
<!-- Node0x6000007395f0 -->
<g id="node21" class="node">
<title>Node0x6000007395f0</title>
<polygon fill="none" stroke="black" points="2483,-9 2483,-77 2571,-77 2571,-9 2483,-9"/>
<text text-anchor="middle" x="2527" y="-66.6" font-family="Times,serif" font-size="8.00">word: newly</text>
<polyline fill="none" stroke="black" points="2483,-60 2571,-60 "/>
<text text-anchor="middle" x="2527" y="-49.6" font-family="Times,serif" font-size="8.00">size: 2</text>
<polyline fill="none" stroke="black" points="2483,-43 2571,-43 "/>
<text text-anchor="middle" x="2527" y="-32.6" font-family="Times,serif" font-size="8.00">next: 0x60000073b030</text>
<polyline fill="none" stroke="black" points="2483,-26 2571,-26 "/>
<text text-anchor="middle" x="2527" y="-15.6" font-family="Times,serif" font-size="8.00">prev: 0x600000738120</text>
</g>
<!-- Node0x600000738120&#45;&gt;Node0x6000007395f0 -->
<g id="edge20" class="edge">
<title>Node0x600000738120:n&#45;&gt;Node0x6000007395f0:n</title>
<path fill="none" stroke="red" d="M2447,-34C2459,-34 2464.25,-34 2472.88,-34"/>
<polygon fill="red" stroke="red" points="2473,-37.5 2483,-34 2473,-30.5 2473,-37.5"/>
</g>
<!-- Node0x60000073b030 -->
<g id="node22" class="node">
<title>Node0x60000073b030</title>
<polygon fill="none" stroke="black" points="2607,-9 2607,-77 2694,-77 2694,-9 2607,-9"/>
<text text-anchor="middle" x="2650.5" y="-66.6" font-family="Times,serif" font-size="8.00">word: griefs</text>
<polyline fill="none" stroke="black" points="2607,-60 2694,-60 "/>
<text text-anchor="middle" x="2650.5" y="-49.6" font-family="Times,serif" font-size="8.00">size: 2</text>
<polyline fill="none" stroke="black" points="2607,-43 2694,-43 "/>
<text text-anchor="middle" x="2650.5" y="-32.6" font-family="Times,serif" font-size="8.00">next: 0x60000073b1b0</text>
<polyline fill="none" stroke="black" points="2607,-26 2694,-26 "/>
<text text-anchor="middle" x="2650.5" y="-15.6" font-family="Times,serif" font-size="8.00">prev: 0x6000007395f0</text>
</g>
<!-- Node0x6000007395f0&#45;&gt;Node0x60000073b030 -->
<g id="edge21" class="edge">
<title>Node0x6000007395f0:n&#45;&gt;Node0x60000073b030:n</title>
<path fill="none" stroke="red" d="M2571,-34C2583,-34 2588.25,-34 2596.88,-34"/>
<polygon fill="red" stroke="red" points="2597,-37.5 2607,-34 2597,-30.5 2597,-37.5"/>
</g>
<!-- Node0x60000073b1b0 -->
<g id="node23" class="node">
<title>Node0x60000073b1b0</title>
<polygon fill="none" stroke="black" points="2730,-9 2730,-77 2818,-77 2818,-9 2730,-9"/>
<text text-anchor="middle" x="2774" y="-66.6" font-family="Times,serif" font-size="8.00">word: Sole</text>
<polyline fill="none" stroke="black" points="2730,-60 2818,-60 "/>
<text text-anchor="middle" x="2774" y="-49.6" font-family="Times,serif" font-size="8.00">size: 1</text>
<polyline fill="none" stroke="black" points="2730,-43 2818,-43 "/>
<text text-anchor="middle" x="2774" y="-32.6" font-family="Times,serif" font-size="8.00">next: 0x60000073b420</text>
<polyline fill="none" stroke="black" points="2730,-26 2818,-26 "/>
<text text-anchor="middle" x="2774" y="-15.6" font-family="Times,serif" font-size="8.00">prev: 0x60000073b030</text>
</g>
<!-- Node0x60000073b030&#45;&gt;Node0x60000073b1b0 -->
<g id="edge22" class="edge">
<title>Node0x60000073b030:n&#45;&gt;Node0x60000073b1b0:n</title>
<path fill="none" stroke="red" d="M2694,-34C2706,-34 2711.25,-34 2719.88,-34"/>
<polygon fill="red" stroke="red" points="2720,-37.5 2730,-34 2720,-30.5 2720,-37.5"/>
</g>
<!-- Node0x60000073b420 -->
<g id="node24" class="node">
<title>Node0x60000073b420</title>
<polygon fill="none" stroke="black" points="2854,-9 2854,-77 2942,-77 2942,-9 2854,-9"/>
<text text-anchor="middle" x="2898" y="-66.6" font-family="Times,serif" font-size="8.00">word: memory</text>
<polyline fill="none" stroke="black" points="2854,-60 2942,-60 "/>
<text text-anchor="middle" x="2898" y="-49.6" font-family="Times,serif" font-size="8.00">size: 1</text>
<polyline fill="none" stroke="black" points="2854,-43 2942,-43 "/>
<text text-anchor="middle" x="2898" y="-32.6" font-family="Times,serif" font-size="8.00">next: 0x60000073c330</text>
<polyline fill="none" stroke="black" points="2854,-26 2942,-26 "/>
<text text-anchor="middle" x="2898" y="-15.6" font-family="Times,serif" font-size="8.00">prev: 0x60000073b1b0</text>
</g>
<!-- Node0x60000073b1b0&#45;&gt;Node0x60000073b420 -->
<g id="edge23" class="edge">
<title>Node0x60000073b1b0:n&#45;&gt;Node0x60000073b420:n</title>
<path fill="none" stroke="red" d="M2818,-34C2830,-34 2835.25,-34 2843.88,-34"/>
<polygon fill="red" stroke="red" points="2844,-37.5 2854,-34 2844,-30.5 2844,-37.5"/>
</g>
<!-- Node0x60000073c330 -->
<g id="node25" class="node">
<title>Node0x60000073c330</title>
<polygon fill="none" stroke="black" points="2978,-9 2978,-77 3066,-77 3066,-9 2978,-9"/>
<text text-anchor="middle" x="3022" y="-66.6" font-family="Times,serif" font-size="8.00">word: Hang</text>
<polyline fill="none" stroke="black" points="2978,-60 3066,-60 "/>
<text text-anchor="middle" x="3022" y="-49.6" font-family="Times,serif" font-size="8.00">size: 3</text>
<polyline fill="none" stroke="black" points="2978,-43 3066,-43 "/>
<text text-anchor="middle" x="3022" y="-32.6" font-family="Times,serif" font-size="8.00">next: 0x60000073df50</text>
<polyline fill="none" stroke="black" points="2978,-26 3066,-26 "/>
<text text-anchor="middle" x="3022" y="-15.6" font-family="Times,serif" font-size="8.00">prev: 0x60000073b420</text>
</g>
<!-- Node0x60000073b420&#45;&gt;Node0x60000073c330 -->
<g id="edge24" class="edge">
<title>Node0x60000073b420:n&#45;&gt;Node0x60000073c330:n</title>
<path fill="none" stroke="red" d="M2942,-34C2954,-34 2959.25,-34 2967.88,-34"/>
<polygon fill="red" stroke="red" points="2968,-37.5 2978,-34 2968,-30.5 2968,-37.5"/>
</g>
<!-- Node0x60000073df50 -->
<g id="node26" class="node">
<title>Node0x60000073df50</title>
<polygon fill="none" stroke="black" points="3102,-9 3102,-77 3190,-77 3190,-9 3102,-9"/>
<text text-anchor="middle" x="3146" y="-66.6" font-family="Times,serif" font-size="8.00">word: Cynthia</text>
<polyline fill="none" stroke="black" points="3102,-60 3190,-60 "/>
<text text-anchor="middle" x="3146" y="-49.6" font-family="Times,serif" font-size="8.00">size: 1</text>
<polyline fill="none" stroke="black" points="3102,-43 3190,-43 "/>
<text text-anchor="middle" x="3146" y="-32.6" font-family="Times,serif" font-size="8.00">next: 0x60000073e8b0</text>
<polyline fill="none" stroke="black" points="3102,-26 3190,-26 "/>
<text text-anchor="middle" x="3146" y="-15.6" font-family="Times,serif" font-size="8.00">prev: 0x60000073c330</text>
</g>
<!-- Node0x60000073c330&#45;&gt;Node0x60000073df50 -->
<g id="edge25" class="edge">
<title>Node0x60000073c330:n&#45;&gt;Node0x60000073df50:n</title>
<path fill="none" stroke="red" d="M3066,-34C3078,-34 3083.25,-34 3091.88,-34"/>
<polygon fill="red" stroke="red" points="3092,-37.5 3102,-34 3092,-30.5 3092,-37.5"/>
</g>
<!-- Node0x60000073e8b0 -->
<g id="node27" class="node">
<title>Node0x60000073e8b0</title>
<polygon fill="none" stroke="black" points="3226,-9 3226,-77 3313,-77 3313,-9 3226,-9"/>
<text text-anchor="middle" x="3269.5" y="-66.6" font-family="Times,serif" font-size="8.00">word: runagate</text>
<polyline fill="none" stroke="black" points="3226,-60 3313,-60 "/>
<text text-anchor="middle" x="3269.5" y="-49.6" font-family="Times,serif" font-size="8.00">size: 1</text>
<polyline fill="none" stroke="black" points="3226,-43 3313,-43 "/>
<text text-anchor="middle" x="3269.5" y="-32.6" font-family="Times,serif" font-size="8.00">next: 0x60000073f090</text>
<polyline fill="none" stroke="black" points="3226,-26 3313,-26 "/>
<text text-anchor="middle" x="3269.5" y="-15.6" font-family="Times,serif" font-size="8.00">prev: 0x60000073df50</text>
</g>
<!-- Node0x60000073df50&#45;&gt;Node0x60000073e8b0 -->
<g id="edge26" class="edge">
<title>Node0x60000073df50:n&#45;&gt;Node0x60000073e8b0:n</title>
<path fill="none" stroke="red" d="M3190,-34C3202,-34 3207.25,-34 3215.88,-34"/>
<polygon fill="red" stroke="red" points="3216,-37.5 3226,-34 3216,-30.5 3216,-37.5"/>
</g>
<!-- Node0x60000073f090 -->
<g id="node28" class="node">
<title>Node0x60000073f090</title>
<polygon fill="none" stroke="black" points="3349,-9 3349,-77 3437,-77 3437,-9 3349,-9"/>
<text text-anchor="middle" x="3393" y="-66.6" font-family="Times,serif" font-size="8.00">word: choplogic</text>
<polyline fill="none" stroke="black" points="3349,-60 3437,-60 "/>
<text text-anchor="middle" x="3393" y="-49.6" font-family="Times,serif" font-size="8.00">size: 1</text>
<polyline fill="none" stroke="black" points="3349,-43 3437,-43 "/>
<text text-anchor="middle" x="3393" y="-32.6" font-family="Times,serif" font-size="8.00">next: 0x60000073f2d0</text>
<polyline fill="none" stroke="black" points="3349,-26 3437,-26 "/>
<text text-anchor="middle" x="3393" y="-15.6" font-family="Times,serif" font-size="8.00">prev: 0x60000073e8b0</text>
</g>
<!-- Node0x60000073e8b0&#45;&gt;Node0x60000073f090 -->
<g id="edge27" class="edge">
<title>Node0x60000073e8b0:n&#45;&gt;Node0x60000073f090:n</title>
<path fill="none" stroke="red" d="M3313,-34C3325,-34 3330.25,-34 3338.88,-34"/>
<polygon fill="red" stroke="red" points="3339,-37.5 3349,-34 3339,-30.5 3339,-37.5"/>
</g>
<!-- Node0x60000073f2d0 -->
<g id="node29" class="node">
<title>Node0x60000073f2d0</title>
<polygon fill="none" stroke="black" points="3473,-9 3473,-77 3560,-77 3560,-9 3473,-9"/>
<text text-anchor="middle" x="3516.5" y="-66.6" font-family="Times,serif" font-size="8.00">word: baggage</text>
<polyline fill="none" stroke="black" points="3473,-60 3560,-60 "/>
<text text-anchor="middle" x="3516.5" y="-49.6" font-family="Times,serif" font-size="8.00">size: 2</text>
<polyline fill="none" stroke="black" points="3473,-43 3560,-43 "/>
<text text-anchor="middle" x="3516.5" y="-32.6" font-family="Times,serif" font-size="8.00">next: 0x600000724150</text>
<polyline fill="none" stroke="black" points="3473,-26 3560,-26 "/>
<text text-anchor="middle" x="3516.5" y="-15.6" font-family="Times,serif" font-size="8.00">prev: 0x60000073f090</text>
</g>
<!-- Node0x60000073f090&#45;&gt;Node0x60000073f2d0 -->
<g id="edge28" class="edge">
<title>Node0x60000073f090:n&#45;&gt;Node0x60000073f2d0:n</title>
<path fill="none" stroke="red" d="M3437,-34C3449,-34 3454.25,-34 3462.88,-34"/>
<polygon fill="red" stroke="red" points="3463,-37.5 3473,-34 3463,-30.5 3463,-37.5"/>
</g>
<!-- Node0x600000724150 -->
<g id="node30" class="node">
<title>Node0x600000724150</title>
<polygon fill="none" stroke="black" points="3596,-9 3596,-77 3683,-77 3683,-9 3596,-9"/>
<text text-anchor="middle" x="3639.5" y="-66.6" font-family="Times,serif" font-size="8.00">word: forerun</text>
<polyline fill="none" stroke="black" points="3596,-60 3683,-60 "/>
<text text-anchor="middle" x="3639.5" y="-49.6" font-family="Times,serif" font-size="8.00">size: 1</text>
<polyline fill="none" stroke="black" points="3596,-43 3683,-43 "/>
<text text-anchor="middle" x="3639.5" y="-32.6" font-family="Times,serif" font-size="8.00">next: 0x6000007264c0</text>
<polyline fill="none" stroke="black" points="3596,-26 3683,-26 "/>
<text text-anchor="middle" x="3639.5" y="-15.6" font-family="Times,serif" font-size="8.00">prev: 0x60000073f2d0</text>
</g>
<!-- Node0x60000073f2d0&#45;&gt;Node0x600000724150 -->
<g id="edge29" class="edge">
<title>Node0x60000073f2d0:n&#45;&gt;Node0x600000724150:n</title>
<path fill="none" stroke="red" d="M3560,-34C3572,-34 3577.25,-34 3585.88,-34"/>
<polygon fill="red" stroke="red" points="3586,-37.5 3596,-34 3586,-30.5 3586,-37.5"/>
</g>
<!-- Node0x6000007264c0 -->
<g id="node31" class="node">
<title>Node0x6000007264c0</title>
<polygon fill="none" stroke="black" points="3719,-9 3719,-77 3807,-77 3807,-9 3719,-9"/>
<text text-anchor="middle" x="3763" y="-66.6" font-family="Times,serif" font-size="8.00">word: gory</text>
<polyline fill="none" stroke="black" points="3719,-60 3807,-60 "/>
<text text-anchor="middle" x="3763" y="-49.6" font-family="Times,serif" font-size="8.00">size: 1</text>
<polyline fill="none" stroke="black" points="3719,-43 3807,-43 "/>
<text text-anchor="middle" x="3763" y="-32.6" font-family="Times,serif" font-size="8.00">next: 0x6000007266a0</text>
<polyline fill="none" stroke="black" points="3719,-26 3807,-26 "/>
<text text-anchor="middle" x="3763" y="-15.6" font-family="Times,serif" font-size="8.00">prev: 0x600000724150</text>
</g>
<!-- Node0x600000724150&#45;&gt;Node0x6000007264c0 -->
<g id="edge30" class="edge">
<title>Node0x600000724150:n&#45;&gt;Node0x6000007264c0:n</title>
<path fill="none" stroke="red" d="M3683,-34C3695,-34 3700.25,-34 3708.88,-34"/>
<polygon fill="red" stroke="red" points="3709,-37.5 3719,-34 3709,-30.5 3709,-37.5"/>
</g>
<!-- Node0x6000007266a0 -->
<g id="node32" class="node">
<title>Node0x6000007266a0</title>
<polygon fill="none" stroke="black" points="3843,-9 3843,-77 3931,-77 3931,-9 3843,-9"/>
<text text-anchor="middle" x="3887" y="-66.6" font-family="Times,serif" font-size="8.00">word: thwarted</text>
<polyline fill="none" stroke="black" points="3843,-60 3931,-60 "/>
<text text-anchor="middle" x="3887" y="-49.6" font-family="Times,serif" font-size="8.00">size: 1</text>
<polyline fill="none" stroke="black" points="3843,-43 3931,-43 "/>
<text text-anchor="middle" x="3887" y="-32.6" font-family="Times,serif" font-size="8.00">next: 0x6000007266d0</text>
<polyline fill="none" stroke="black" points="3843,-26 3931,-26 "/>
<text text-anchor="middle" x="3887" y="-15.6" font-family="Times,serif" font-size="8.00">prev: 0x6000007264c0</text>
</g>
<!-- Node0x6000007264c0&#45;&gt;Node0x6000007266a0 -->
<g id="edge31" class="edge">
<title>Node0x6000007264c0:n&#45;&gt;Node0x6000007266a0:n</title>
<path fill="none" stroke="red" d="M3807,-34C3819,-34 3824.25,-34 3832.88,-34"/>
<polygon fill="red" stroke="red" points="3833,-37.5 3843,-34 3833,-30.5 3833,-37.5"/>
</g>
<!-- Node0x6000007266d0 -->
<g id="node33" class="node">
<title>Node0x6000007266d0</title>
<polygon fill="none" stroke="black" points="3967,-9 3967,-77 4055,-77 4055,-9 3967,-9"/>
<text text-anchor="middle" x="4011" y="-66.6" font-family="Times,serif" font-size="8.00">word: dispose</text>
<polyline fill="none" stroke="black" points="3967,-60 4055,-60 "/>
<text text-anchor="middle" x="4011" y="-49.6" font-family="Times,serif" font-size="8.00">size: 1</text>
<polyline fill="none" stroke="black" points="3967,-43 4055,-43 "/>
<text text-anchor="middle" x="4011" y="-32.6" font-family="Times,serif" font-size="8.00">next: 0x600000726d90</text>
<polyline fill="none" stroke="black" points="3967,-26 4055,-26 "/>
<text text-anchor="middle" x="4011" y="-15.6" font-family="Times,serif" font-size="8.00">prev: 0x6000007266a0</text>
</g>
<!-- Node0x6000007266a0&#45;&gt;Node0x6000007266d0 -->
<g id="edge32" class="edge">
<title>Node0x6000007266a0:n&#45;&gt;Node0x6000007266d0:n</title>
<path fill="none" stroke="red" d="M3931,-34C3943,-34 3948.25,-34 3956.88,-34"/>
<polygon fill="red" stroke="red" points="3957,-37.5 3967,-34 3957,-30.5 3957,-37.5"/>
</g>
<!-- Node0x600000726d90 -->
<g id="node34" class="node">
<title>Node0x600000726d90</title>
<polygon fill="none" stroke="black" points="4091,-9 4091,-77 4179,-77 4179,-9 4091,-9"/>
<text text-anchor="middle" x="4135" y="-66.6" font-family="Times,serif" font-size="8.00">word: mista</text>
<polyline fill="none" stroke="black" points="4091,-60 4179,-60 "/>
<text text-anchor="middle" x="4135" y="-49.6" font-family="Times,serif" font-size="8.00">size: 1</text>
<polyline fill="none" stroke="black" points="4091,-43 4179,-43 "/>
<text text-anchor="middle" x="4135" y="-32.6" font-family="Times,serif" font-size="8.00">next: 0x0</text>
<polyline fill="none" stroke="black" points="4091,-26 4179,-26 "/>
<text text-anchor="middle" x="4135" y="-15.6" font-family="Times,serif" font-size="8.00">prev: 0x6000007266d0</text>
</g>
<!-- Node0x6000007266d0&#45;&gt;Node0x600000726d90 -->
<g id="edge33" class="edge">
<title>Node0x6000007266d0:n&#45;&gt;Node0x600000726d90:n</title>
<path fill="none" stroke="red" d="M4055,-34C4067,-34 4072.25,-34 4080.88,-34"/>
<polygon fill="red" stroke="red" points="4081,-37.5 4091,-34 4081,-30.5 4081,-37.5"/>
</g>
</g>
</svg>
