<?xml version="1.0" encoding="UTF-8" standalone="no"?>
<!DOCTYPE svg PUBLIC "-//W3C//DTD SVG 1.1//EN"
 "http://www.w3.org/Graphics/SVG/1.1/DTD/svg11.dtd">
<!-- Generated by graphviz version 2.50.0 (20211204.2007)
 -->
<!-- Title: G Pages: 1 -->
<svg width="4201pt" height="117pt"
 viewBox="0.00 0.00 4201.00 117.00" xmlns="http://www.w3.org/2000/svg" xmlns:xlink="http://www.w3.org/1999/xlink">
<g id="graph0" class="graph" transform="scale(1 1) rotate(0) translate(4 113)">
<title>G</title>
<polygon fill="white" stroke="transparent" points="-4,4 -4,-113 4197,-113 4197,4 -4,4"/>
<g id="clust22" class="cluster">
<title>cluster183</title>
<polygon fill="none" stroke="black" points="2610,-8 2610,-101 2698,-101 2698,-8 2610,-8"/>
<text text-anchor="middle" x="2654" y="-85.8" font-family="Times,serif" font-size="14.00">183</text>
</g>
<g id="clust23" class="cluster">
<title>cluster184</title>
<polygon fill="none" stroke="black" points="2734,-8 2734,-101 2822,-101 2822,-8 2734,-8"/>
<text text-anchor="middle" x="2778" y="-85.8" font-family="Times,serif" font-size="14.00">184</text>
</g>
<g id="clust24" class="cluster">
<title>cluster185</title>
<polygon fill="none" stroke="black" points="2858,-8 2858,-101 2946,-101 2946,-8 2858,-8"/>
<text text-anchor="middle" x="2902" y="-85.8" font-family="Times,serif" font-size="14.00">185</text>
</g>
<g id="clust25" class="cluster">
<title>cluster186</title>
<polygon fill="none" stroke="black" points="2982,-8 2982,-101 3070,-101 3070,-8 2982,-8"/>
<text text-anchor="middle" x="3026" y="-85.8" font-family="Times,serif" font-size="14.00">186</text>
</g>
<g id="clust26" class="cluster">
<title>cluster187</title>
<polygon fill="none" stroke="black" points="3106,-8 3106,-101 3194,-101 3194,-8 3106,-8"/>
<text text-anchor="middle" x="3150" y="-85.8" font-family="Times,serif" font-size="14.00">187</text>
</g>
<g id="clust27" class="cluster">
<title>cluster188</title>
<polygon fill="none" stroke="black" points="3230,-8 3230,-101 3318,-101 3318,-8 3230,-8"/>
<text text-anchor="middle" x="3274" y="-85.8" font-family="Times,serif" font-size="14.00">188</text>
</g>
<g id="clust28" class="cluster">
<title>cluster189</title>
<polygon fill="none" stroke="black" points="3354,-8 3354,-101 3442,-101 3442,-8 3354,-8"/>
<text text-anchor="middle" x="3398" y="-85.8" font-family="Times,serif" font-size="14.00">189</text>
</g>
<g id="clust29" class="cluster">
<title>cluster190</title>
<polygon fill="none" stroke="black" points="3478,-8 3478,-101 3566,-101 3566,-8 3478,-8"/>
<text text-anchor="middle" x="3522" y="-85.8" font-family="Times,serif" font-size="14.00">190</text>
</g>
<g id="clust30" class="cluster">
<title>cluster191</title>
<polygon fill="none" stroke="black" points="3602,-8 3602,-101 3689,-101 3689,-8 3602,-8"/>
<text text-anchor="middle" x="3645.5" y="-85.8" font-family="Times,serif" font-size="14.00">191</text>
</g>
<g id="clust31" class="cluster">
<title>cluster192</title>
<polygon fill="none" stroke="black" points="3725,-8 3725,-101 3813,-101 3813,-8 3725,-8"/>
<text text-anchor="middle" x="3769" y="-85.8" font-family="Times,serif" font-size="14.00">192</text>
</g>
<g id="clust32" class="cluster">
<title>cluster193</title>
<polygon fill="none" stroke="black" points="3849,-8 3849,-101 3937,-101 3937,-8 3849,-8"/>
<text text-anchor="middle" x="3893" y="-85.8" font-family="Times,serif" font-size="14.00">193</text>
</g>
<g id="clust33" class="cluster">
<title>cluster194</title>
<polygon fill="none" stroke="black" points="3973,-8 3973,-101 4061,-101 4061,-8 3973,-8"/>
<text text-anchor="middle" x="4017" y="-85.8" font-family="Times,serif" font-size="14.00">194</text>
</g>
<g id="clust34" class="cluster">
<title>cluster195</title>
<polygon fill="none" stroke="black" points="4097,-8 4097,-101 4185,-101 4185,-8 4097,-8"/>
<text text-anchor="middle" x="4141" y="-85.8" font-family="Times,serif" font-size="14.00">195</text>
</g>
<g id="clust2" class="cluster">
<title>cluster163</title>
<polygon fill="none" stroke="black" points="131,-8 131,-101 219,-101 219,-8 131,-8"/>
<text text-anchor="middle" x="175" y="-85.8" font-family="Times,serif" font-size="14.00">163</text>
</g>
<g id="clust1" class="cluster">
<title>cluster162</title>
<polygon fill="none" stroke="black" points="8,-8 8,-101 95,-101 95,-8 8,-8"/>
<text text-anchor="middle" x="51.5" y="-85.8" font-family="Times,serif" font-size="14.00">162</text>
</g>
<g id="clust3" class="cluster">
<title>cluster164</title>
<polygon fill="none" stroke="black" points="255,-8 255,-101 343,-101 343,-8 255,-8"/>
<text text-anchor="middle" x="299" y="-85.8" font-family="Times,serif" font-size="14.00">164</text>
</g>
<g id="clust4" class="cluster">
<title>cluster165</title>
<polygon fill="none" stroke="black" points="379,-8 379,-101 466,-101 466,-8 379,-8"/>
<text text-anchor="middle" x="422.5" y="-85.8" font-family="Times,serif" font-size="14.00">165</text>
</g>
<g id="clust5" class="cluster">
<title>cluster166</title>
<polygon fill="none" stroke="black" points="502,-8 502,-101 590,-101 590,-8 502,-8"/>
<text text-anchor="middle" x="546" y="-85.8" font-family="Times,serif" font-size="14.00">166</text>
</g>
<g id="clust6" class="cluster">
<title>cluster167</title>
<polygon fill="none" stroke="black" points="626,-8 626,-101 714,-101 714,-8 626,-8"/>
<text text-anchor="middle" x="670" y="-85.8" font-family="Times,serif" font-size="14.00">167</text>
</g>
<g id="clust7" class="cluster">
<title>cluster168</title>
<polygon fill="none" stroke="black" points="750,-8 750,-101 838,-101 838,-8 750,-8"/>
<text text-anchor="middle" x="794" y="-85.8" font-family="Times,serif" font-size="14.00">168</text>
</g>
<g id="clust8" class="cluster">
<title>cluster169</title>
<polygon fill="none" stroke="black" points="874,-8 874,-101 962,-101 962,-8 874,-8"/>
<text text-anchor="middle" x="918" y="-85.8" font-family="Times,serif" font-size="14.00">169</text>
</g>
<g id="clust9" class="cluster">
<title>cluster170</title>
<polygon fill="none" stroke="black" points="998,-8 998,-101 1086,-101 1086,-8 998,-8"/>
<text text-anchor="middle" x="1042" y="-85.8" font-family="Times,serif" font-size="14.00">170</text>
</g>
<g id="clust10" class="cluster">
<title>cluster171</title>
<polygon fill="none" stroke="black" points="1122,-8 1122,-101 1210,-101 1210,-8 1122,-8"/>
<text text-anchor="middle" x="1166" y="-85.8" font-family="Times,serif" font-size="14.00">171</text>
</g>
<g id="clust11" class="cluster">
<title>cluster172</title>
<polygon fill="none" stroke="black" points="1246,-8 1246,-101 1334,-101 1334,-8 1246,-8"/>
<text text-anchor="middle" x="1290" y="-85.8" font-family="Times,serif" font-size="14.00">172</text>
</g>
<g id="clust12" class="cluster">
<title>cluster173</title>
<polygon fill="none" stroke="black" points="1370,-8 1370,-101 1458,-101 1458,-8 1370,-8"/>
<text text-anchor="middle" x="1414" y="-85.8" font-family="Times,serif" font-size="14.00">173</text>
</g>
<g id="clust13" class="cluster">
<title>cluster174</title>
<polygon fill="none" stroke="black" points="1494,-8 1494,-101 1582,-101 1582,-8 1494,-8"/>
<text text-anchor="middle" x="1538" y="-85.8" font-family="Times,serif" font-size="14.00">174</text>
</g>
<g id="clust14" class="cluster">
<title>cluster175</title>
<polygon fill="none" stroke="black" points="1618,-8 1618,-101 1706,-101 1706,-8 1618,-8"/>
<text text-anchor="middle" x="1662" y="-85.8" font-family="Times,serif" font-size="14.00">175</text>
</g>
<g id="clust15" class="cluster">
<title>cluster176</title>
<polygon fill="none" stroke="black" points="1742,-8 1742,-101 1830,-101 1830,-8 1742,-8"/>
<text text-anchor="middle" x="1786" y="-85.8" font-family="Times,serif" font-size="14.00">176</text>
</g>
<g id="clust16" class="cluster">
<title>cluster177</title>
<polygon fill="none" stroke="black" points="1866,-8 1866,-101 1954,-101 1954,-8 1866,-8"/>
<text text-anchor="middle" x="1910" y="-85.8" font-family="Times,serif" font-size="14.00">177</text>
</g>
<g id="clust17" class="cluster">
<title>cluster178</title>
<polygon fill="none" stroke="black" points="1990,-8 1990,-101 2078,-101 2078,-8 1990,-8"/>
<text text-anchor="middle" x="2034" y="-85.8" font-family="Times,serif" font-size="14.00">178</text>
</g>
<g id="clust18" class="cluster">
<title>cluster179</title>
<polygon fill="none" stroke="black" points="2114,-8 2114,-101 2202,-101 2202,-8 2114,-8"/>
<text text-anchor="middle" x="2158" y="-85.8" font-family="Times,serif" font-size="14.00">179</text>
</g>
<g id="clust19" class="cluster">
<title>cluster180</title>
<polygon fill="none" stroke="black" points="2238,-8 2238,-101 2326,-101 2326,-8 2238,-8"/>
<text text-anchor="middle" x="2282" y="-85.8" font-family="Times,serif" font-size="14.00">180</text>
</g>
<g id="clust20" class="cluster">
<title>cluster181</title>
<polygon fill="none" stroke="black" points="2362,-8 2362,-101 2450,-101 2450,-8 2362,-8"/>
<text text-anchor="middle" x="2406" y="-85.8" font-family="Times,serif" font-size="14.00">181</text>
</g>
<g id="clust21" class="cluster">
<title>cluster182</title>
<polygon fill="none" stroke="black" points="2486,-8 2486,-101 2574,-101 2574,-8 2486,-8"/>
<text text-anchor="middle" x="2530" y="-85.8" font-family="Times,serif" font-size="14.00">182</text>
</g>
<!-- Node0x600001e60e40 -->
<g id="node1" class="node">
<title>Node0x600001e60e40</title>
<polygon fill="none" stroke="black" points="8,-9 8,-77 95,-77 95,-9 8,-9"/>
<text text-anchor="middle" x="51.5" y="-66.6" font-family="Times,serif" font-size="8.00">word: OFFICER</text>
<polyline fill="none" stroke="black" points="8,-60 95,-60 "/>
<text text-anchor="middle" x="51.5" y="-49.6" font-family="Times,serif" font-size="8.00">size: 1</text>
<polyline fill="none" stroke="black" points="8,-43 95,-43 "/>
<text text-anchor="middle" x="51.5" y="-32.6" font-family="Times,serif" font-size="8.00">next: 0x600001e615c0</text>
<polyline fill="none" stroke="black" points="8,-26 95,-26 "/>
<text text-anchor="middle" x="51.5" y="-15.6" font-family="Times,serif" font-size="8.00">prev: 0x0</text>
</g>
<!-- Node0x600001e615c0 -->
<g id="node2" class="node">
<title>Node0x600001e615c0</title>
<polygon fill="none" stroke="black" points="131,-9 131,-77 219,-77 219,-9 131,-9"/>
<text text-anchor="middle" x="175" y="-66.6" font-family="Times,serif" font-size="8.00">word: scene</text>
<polyline fill="none" stroke="black" points="131,-60 219,-60 "/>
<text text-anchor="middle" x="175" y="-49.6" font-family="Times,serif" font-size="8.00">size: 2</text>
<polyline fill="none" stroke="black" points="131,-43 219,-43 "/>
<text text-anchor="middle" x="175" y="-32.6" font-family="Times,serif" font-size="8.00">next: 0x600001e62df0</text>
<polyline fill="none" stroke="black" points="131,-26 219,-26 "/>
<text text-anchor="middle" x="175" y="-15.6" font-family="Times,serif" font-size="8.00">prev: 0x600001e60e40</text>
</g>
<!-- Node0x600001e60e40&#45;&gt;Node0x600001e615c0 -->
<g id="edge1" class="edge">
<title>Node0x600001e60e40:n&#45;&gt;Node0x600001e615c0:n</title>
<path fill="none" stroke="red" d="M95,-34C107,-34 112.25,-34 120.88,-34"/>
<polygon fill="red" stroke="red" points="121,-37.5 131,-34 121,-30.5 121,-37.5"/>
</g>
<!-- Node0x600001e62df0 -->
<g id="node3" class="node">
<title>Node0x600001e62df0</title>
<polygon fill="none" stroke="black" points="255,-9 255,-77 343,-77 343,-9 255,-9"/>
<text text-anchor="middle" x="299" y="-66.6" font-family="Times,serif" font-size="8.00">word: shows</text>
<polyline fill="none" stroke="black" points="255,-60 343,-60 "/>
<text text-anchor="middle" x="299" y="-49.6" font-family="Times,serif" font-size="8.00">size: 6</text>
<polyline fill="none" stroke="black" points="255,-43 343,-43 "/>
<text text-anchor="middle" x="299" y="-32.6" font-family="Times,serif" font-size="8.00">next: 0x600001e6b8d0</text>
<polyline fill="none" stroke="black" points="255,-26 343,-26 "/>
<text text-anchor="middle" x="299" y="-15.6" font-family="Times,serif" font-size="8.00">prev: 0x600001e615c0</text>
</g>
<!-- Node0x600001e615c0&#45;&gt;Node0x600001e62df0 -->
<g id="edge2" class="edge">
<title>Node0x600001e615c0:n&#45;&gt;Node0x600001e62df0:n</title>
<path fill="none" stroke="red" d="M219,-34C231,-34 236.25,-34 244.88,-34"/>
<polygon fill="red" stroke="red" points="245,-37.5 255,-34 245,-30.5 245,-37.5"/>
</g>
<!-- Node0x600001e6b8d0 -->
<g id="node4" class="node">
<title>Node0x600001e6b8d0</title>
<polygon fill="none" stroke="black" points="379,-9 379,-77 466,-77 466,-9 379,-9"/>
<text text-anchor="middle" x="422.5" y="-66.6" font-family="Times,serif" font-size="8.00">word: nor</text>
<polyline fill="none" stroke="black" points="379,-60 466,-60 "/>
<text text-anchor="middle" x="422.5" y="-49.6" font-family="Times,serif" font-size="8.00">size: 11</text>
<polyline fill="none" stroke="black" points="379,-43 466,-43 "/>
<text text-anchor="middle" x="422.5" y="-32.6" font-family="Times,serif" font-size="8.00">next: 0x600001e6c360</text>
<polyline fill="none" stroke="black" points="379,-26 466,-26 "/>
<text text-anchor="middle" x="422.5" y="-15.6" font-family="Times,serif" font-size="8.00">prev: 0x600001e62df0</text>
</g>
<!-- Node0x600001e62df0&#45;&gt;Node0x600001e6b8d0 -->
<g id="edge3" class="edge">
<title>Node0x600001e62df0:n&#45;&gt;Node0x600001e6b8d0:n</title>
<path fill="none" stroke="red" d="M343,-34C355,-34 360.25,-34 368.88,-34"/>
<polygon fill="red" stroke="red" points="369,-37.5 379,-34 369,-30.5 369,-37.5"/>
</g>
<!-- Node0x600001e6c360 -->
<g id="node5" class="node">
<title>Node0x600001e6c360</title>
<polygon fill="none" stroke="black" points="502,-9 502,-77 590,-77 590,-9 502,-9"/>
<text text-anchor="middle" x="546" y="-66.6" font-family="Times,serif" font-size="8.00">word: It</text>
<polyline fill="none" stroke="black" points="502,-60 590,-60 "/>
<text text-anchor="middle" x="546" y="-49.6" font-family="Times,serif" font-size="8.00">size: 38</text>
<polyline fill="none" stroke="black" points="502,-43 590,-43 "/>
<text text-anchor="middle" x="546" y="-32.6" font-family="Times,serif" font-size="8.00">next: 0x600001e6cd50</text>
<polyline fill="none" stroke="black" points="502,-26 590,-26 "/>
<text text-anchor="middle" x="546" y="-15.6" font-family="Times,serif" font-size="8.00">prev: 0x600001e6b8d0</text>
</g>
<!-- Node0x600001e6b8d0&#45;&gt;Node0x600001e6c360 -->
<g id="edge4" class="edge">
<title>Node0x600001e6b8d0:n&#45;&gt;Node0x600001e6c360:n</title>
<path fill="none" stroke="red" d="M466,-34C478,-34 483.25,-34 491.88,-34"/>
<polygon fill="red" stroke="red" points="492,-37.5 502,-34 492,-30.5 492,-37.5"/>
</g>
<!-- Node0x600001e6cd50 -->
<g id="node6" class="node">
<title>Node0x600001e6cd50</title>
<polygon fill="none" stroke="black" points="626,-9 626,-77 714,-77 714,-9 626,-9"/>
<text text-anchor="middle" x="670" y="-66.6" font-family="Times,serif" font-size="8.00">word: rather</text>
<polyline fill="none" stroke="black" points="626,-60 714,-60 "/>
<text text-anchor="middle" x="670" y="-49.6" font-family="Times,serif" font-size="8.00">size: 3</text>
<polyline fill="none" stroke="black" points="626,-43 714,-43 "/>
<text text-anchor="middle" x="670" y="-32.6" font-family="Times,serif" font-size="8.00">next: 0x600001e6e070</text>
<polyline fill="none" stroke="black" points="626,-26 714,-26 "/>
<text text-anchor="middle" x="670" y="-15.6" font-family="Times,serif" font-size="8.00">prev: 0x600001e6c360</text>
</g>
<!-- Node0x600001e6c360&#45;&gt;Node0x600001e6cd50 -->
<g id="edge5" class="edge">
<title>Node0x600001e6c360:n&#45;&gt;Node0x600001e6cd50:n</title>
<path fill="none" stroke="red" d="M590,-34C602,-34 607.25,-34 615.88,-34"/>
<polygon fill="red" stroke="red" points="616,-37.5 626,-34 616,-30.5 616,-37.5"/>
</g>
<!-- Node0x600001e6e070 -->
<g id="node7" class="node">
<title>Node0x600001e6e070</title>
<polygon fill="none" stroke="black" points="750,-9 750,-77 838,-77 838,-9 750,-9"/>
<text text-anchor="middle" x="794" y="-66.6" font-family="Times,serif" font-size="8.00">word: forsworn</text>
<polyline fill="none" stroke="black" points="750,-60 838,-60 "/>
<text text-anchor="middle" x="794" y="-49.6" font-family="Times,serif" font-size="8.00">size: 4</text>
<polyline fill="none" stroke="black" points="750,-43 838,-43 "/>
<text text-anchor="middle" x="794" y="-32.6" font-family="Times,serif" font-size="8.00">next: 0x600001e65230</text>
<polyline fill="none" stroke="black" points="750,-26 838,-26 "/>
<text text-anchor="middle" x="794" y="-15.6" font-family="Times,serif" font-size="8.00">prev: 0x600001e6cd50</text>
</g>
<!-- Node0x600001e6cd50&#45;&gt;Node0x600001e6e070 -->
<g id="edge6" class="edge">
<title>Node0x600001e6cd50:n&#45;&gt;Node0x600001e6e070:n</title>
<path fill="none" stroke="red" d="M714,-34C726,-34 731.25,-34 739.88,-34"/>
<polygon fill="red" stroke="red" points="740,-37.5 750,-34 740,-30.5 740,-37.5"/>
</g>
<!-- Node0x600001e65230 -->
<g id="node8" class="node">
<title>Node0x600001e65230</title>
<polygon fill="none" stroke="black" points="874,-9 874,-77 962,-77 962,-9 874,-9"/>
<text text-anchor="middle" x="918" y="-66.6" font-family="Times,serif" font-size="8.00">word: Twas</text>
<polyline fill="none" stroke="black" points="874,-60 962,-60 "/>
<text text-anchor="middle" x="918" y="-49.6" font-family="Times,serif" font-size="8.00">size: 1</text>
<polyline fill="none" stroke="black" points="874,-43 962,-43 "/>
<text text-anchor="middle" x="918" y="-32.6" font-family="Times,serif" font-size="8.00">next: 0x600001e75680</text>
<polyline fill="none" stroke="black" points="874,-26 962,-26 "/>
<text text-anchor="middle" x="918" y="-15.6" font-family="Times,serif" font-size="8.00">prev: 0x600001e6e070</text>
</g>
<!-- Node0x600001e6e070&#45;&gt;Node0x600001e65230 -->
<g id="edge7" class="edge">
<title>Node0x600001e6e070:n&#45;&gt;Node0x600001e65230:n</title>
<path fill="none" stroke="red" d="M838,-34C850,-34 855.25,-34 863.88,-34"/>
<polygon fill="red" stroke="red" points="864,-37.5 874,-34 864,-30.5 864,-37.5"/>
</g>
<!-- Node0x600001e75680 -->
<g id="node9" class="node">
<title>Node0x600001e75680</title>
<polygon fill="none" stroke="black" points="998,-9 998,-77 1086,-77 1086,-9 998,-9"/>
<text text-anchor="middle" x="1042" y="-66.6" font-family="Times,serif" font-size="8.00">word: expire</text>
<polyline fill="none" stroke="black" points="998,-60 1086,-60 "/>
<text text-anchor="middle" x="1042" y="-49.6" font-family="Times,serif" font-size="8.00">size: 1</text>
<polyline fill="none" stroke="black" points="998,-43 1086,-43 "/>
<text text-anchor="middle" x="1042" y="-32.6" font-family="Times,serif" font-size="8.00">next: 0x600001e75980</text>
<polyline fill="none" stroke="black" points="998,-26 1086,-26 "/>
<text text-anchor="middle" x="1042" y="-15.6" font-family="Times,serif" font-size="8.00">prev: 0x600001e65230</text>
</g>
<!-- Node0x600001e65230&#45;&gt;Node0x600001e75680 -->
<g id="edge8" class="edge">
<title>Node0x600001e65230:n&#45;&gt;Node0x600001e75680:n</title>
<path fill="none" stroke="red" d="M962,-34C974,-34 979.25,-34 987.88,-34"/>
<polygon fill="red" stroke="red" points="988,-37.5 998,-34 988,-30.5 988,-37.5"/>
</g>
<!-- Node0x600001e75980 -->
<g id="node10" class="node">
<title>Node0x600001e75980</title>
<polygon fill="none" stroke="black" points="1122,-9 1122,-77 1210,-77 1210,-9 1122,-9"/>
<text text-anchor="middle" x="1166" y="-66.6" font-family="Times,serif" font-size="8.00">word: napkins</text>
<polyline fill="none" stroke="black" points="1122,-60 1210,-60 "/>
<text text-anchor="middle" x="1166" y="-49.6" font-family="Times,serif" font-size="8.00">size: 1</text>
<polyline fill="none" stroke="black" points="1122,-43 1210,-43 "/>
<text text-anchor="middle" x="1166" y="-32.6" font-family="Times,serif" font-size="8.00">next: 0x600001e76760</text>
<polyline fill="none" stroke="black" points="1122,-26 1210,-26 "/>
<text text-anchor="middle" x="1166" y="-15.6" font-family="Times,serif" font-size="8.00">prev: 0x600001e75680</text>
</g>
<!-- Node0x600001e75680&#45;&gt;Node0x600001e75980 -->
<g id="edge9" class="edge">
<title>Node0x600001e75680:n&#45;&gt;Node0x600001e75980:n</title>
<path fill="none" stroke="red" d="M1086,-34C1098,-34 1103.25,-34 1111.88,-34"/>
<polygon fill="red" stroke="red" points="1112,-37.5 1122,-34 1112,-30.5 1112,-37.5"/>
</g>
<!-- Node0x600001e76760 -->
<g id="node11" class="node">
<title>Node0x600001e76760</title>
<polygon fill="none" stroke="black" points="1246,-9 1246,-77 1334,-77 1334,-9 1246,-9"/>
<text text-anchor="middle" x="1290" y="-66.6" font-family="Times,serif" font-size="8.00">word: elder</text>
<polyline fill="none" stroke="black" points="1246,-60 1334,-60 "/>
<text text-anchor="middle" x="1290" y="-49.6" font-family="Times,serif" font-size="8.00">size: 1</text>
<polyline fill="none" stroke="black" points="1246,-43 1334,-43 "/>
<text text-anchor="middle" x="1290" y="-32.6" font-family="Times,serif" font-size="8.00">next: 0x600001e769d0</text>
<polyline fill="none" stroke="black" points="1246,-26 1334,-26 "/>
<text text-anchor="middle" x="1290" y="-15.6" font-family="Times,serif" font-size="8.00">prev: 0x600001e75980</text>
</g>
<!-- Node0x600001e75980&#45;&gt;Node0x600001e76760 -->
<g id="edge10" class="edge">
<title>Node0x600001e75980:n&#45;&gt;Node0x600001e76760:n</title>
<path fill="none" stroke="red" d="M1210,-34C1222,-34 1227.25,-34 1235.88,-34"/>
<polygon fill="red" stroke="red" points="1236,-37.5 1246,-34 1236,-30.5 1236,-37.5"/>
</g>
<!-- Node0x600001e769d0 -->
<g id="node12" class="node">
<title>Node0x600001e769d0</title>
<polygon fill="none" stroke="black" points="1370,-9 1370,-77 1458,-77 1458,-9 1370,-9"/>
<text text-anchor="middle" x="1414" y="-66.6" font-family="Times,serif" font-size="8.00">word: Beauty</text>
<polyline fill="none" stroke="black" points="1370,-60 1458,-60 "/>
<text text-anchor="middle" x="1414" y="-49.6" font-family="Times,serif" font-size="8.00">size: 2</text>
<polyline fill="none" stroke="black" points="1370,-43 1458,-43 "/>
<text text-anchor="middle" x="1414" y="-32.6" font-family="Times,serif" font-size="8.00">next: 0x600001e77cc0</text>
<polyline fill="none" stroke="black" points="1370,-26 1458,-26 "/>
<text text-anchor="middle" x="1414" y="-15.6" font-family="Times,serif" font-size="8.00">prev: 0x600001e76760</text>
</g>
<!-- Node0x600001e76760&#45;&gt;Node0x600001e769d0 -->
<g id="edge11" class="edge">
<title>Node0x600001e76760:n&#45;&gt;Node0x600001e769d0:n</title>
<path fill="none" stroke="red" d="M1334,-34C1346,-34 1351.25,-34 1359.88,-34"/>
<polygon fill="red" stroke="red" points="1360,-37.5 1370,-34 1360,-30.5 1360,-37.5"/>
</g>
<!-- Node0x600001e77cc0 -->
<g id="node13" class="node">
<title>Node0x600001e77cc0</title>
<polygon fill="none" stroke="black" points="1494,-9 1494,-77 1582,-77 1582,-9 1494,-9"/>
<text text-anchor="middle" x="1538" y="-66.6" font-family="Times,serif" font-size="8.00">word: prepare</text>
<polyline fill="none" stroke="black" points="1494,-60 1582,-60 "/>
<text text-anchor="middle" x="1538" y="-49.6" font-family="Times,serif" font-size="8.00">size: 4</text>
<polyline fill="none" stroke="black" points="1494,-43 1582,-43 "/>
<text text-anchor="middle" x="1538" y="-32.6" font-family="Times,serif" font-size="8.00">next: 0x600001e7ddd0</text>
<polyline fill="none" stroke="black" points="1494,-26 1582,-26 "/>
<text text-anchor="middle" x="1538" y="-15.6" font-family="Times,serif" font-size="8.00">prev: 0x600001e769d0</text>
</g>
<!-- Node0x600001e769d0&#45;&gt;Node0x600001e77cc0 -->
<g id="edge12" class="edge">
<title>Node0x600001e769d0:n&#45;&gt;Node0x600001e77cc0:n</title>
<path fill="none" stroke="red" d="M1458,-34C1470,-34 1475.25,-34 1483.88,-34"/>
<polygon fill="red" stroke="red" points="1484,-37.5 1494,-34 1484,-30.5 1484,-37.5"/>
</g>
<!-- Node0x600001e7ddd0 -->
<g id="node14" class="node">
<title>Node0x600001e7ddd0</title>
<polygon fill="none" stroke="black" points="1618,-9 1618,-77 1706,-77 1706,-9 1618,-9"/>
<text text-anchor="middle" x="1662" y="-66.6" font-family="Times,serif" font-size="8.00">word: merchandise</text>
<polyline fill="none" stroke="black" points="1618,-60 1706,-60 "/>
<text text-anchor="middle" x="1662" y="-49.6" font-family="Times,serif" font-size="8.00">size: 1</text>
<polyline fill="none" stroke="black" points="1618,-43 1706,-43 "/>
<text text-anchor="middle" x="1662" y="-32.6" font-family="Times,serif" font-size="8.00">next: 0x600001e40840</text>
<polyline fill="none" stroke="black" points="1618,-26 1706,-26 "/>
<text text-anchor="middle" x="1662" y="-15.6" font-family="Times,serif" font-size="8.00">prev: 0x600001e77cc0</text>
</g>
<!-- Node0x600001e77cc0&#45;&gt;Node0x600001e7ddd0 -->
<g id="edge13" class="edge">
<title>Node0x600001e77cc0:n&#45;&gt;Node0x600001e7ddd0:n</title>
<path fill="none" stroke="red" d="M1582,-34C1594,-34 1599.25,-34 1607.88,-34"/>
<polygon fill="red" stroke="red" points="1608,-37.5 1618,-34 1608,-30.5 1608,-37.5"/>
</g>
<!-- Node0x600001e40840 -->
<g id="node15" class="node">
<title>Node0x600001e40840</title>
<polygon fill="none" stroke="black" points="1742,-9 1742,-77 1830,-77 1830,-9 1742,-9"/>
<text text-anchor="middle" x="1786" y="-66.6" font-family="Times,serif" font-size="8.00">word: uprous</text>
<polyline fill="none" stroke="black" points="1742,-60 1830,-60 "/>
<text text-anchor="middle" x="1786" y="-49.6" font-family="Times,serif" font-size="8.00">size: 1</text>
<polyline fill="none" stroke="black" points="1742,-43 1830,-43 "/>
<text text-anchor="middle" x="1786" y="-32.6" font-family="Times,serif" font-size="8.00">next: 0x600001e41350</text>
<polyline fill="none" stroke="black" points="1742,-26 1830,-26 "/>
<text text-anchor="middle" x="1786" y="-15.6" font-family="Times,serif" font-size="8.00">prev: 0x600001e7ddd0</text>
</g>
<!-- Node0x600001e7ddd0&#45;&gt;Node0x600001e40840 -->
<g id="edge14" class="edge">
<title>Node0x600001e7ddd0:n&#45;&gt;Node0x600001e40840:n</title>
<path fill="none" stroke="red" d="M1706,-34C1718,-34 1723.25,-34 1731.88,-34"/>
<polygon fill="red" stroke="red" points="1732,-37.5 1742,-34 1732,-30.5 1732,-37.5"/>
</g>
<!-- Node0x600001e41350 -->
<g id="node16" class="node">
<title>Node0x600001e41350</title>
<polygon fill="none" stroke="black" points="1866,-9 1866,-77 1954,-77 1954,-9 1866,-9"/>
<text text-anchor="middle" x="1910" y="-66.6" font-family="Times,serif" font-size="8.00">word: pure</text>
<polyline fill="none" stroke="black" points="1866,-60 1954,-60 "/>
<text text-anchor="middle" x="1910" y="-49.6" font-family="Times,serif" font-size="8.00">size: 3</text>
<polyline fill="none" stroke="black" points="1866,-43 1954,-43 "/>
<text text-anchor="middle" x="1910" y="-32.6" font-family="Times,serif" font-size="8.00">next: 0x600001e41b60</text>
<polyline fill="none" stroke="black" points="1866,-26 1954,-26 "/>
<text text-anchor="middle" x="1910" y="-15.6" font-family="Times,serif" font-size="8.00">prev: 0x600001e40840</text>
</g>
<!-- Node0x600001e40840&#45;&gt;Node0x600001e41350 -->
<g id="edge15" class="edge">
<title>Node0x600001e40840:n&#45;&gt;Node0x600001e41350:n</title>
<path fill="none" stroke="red" d="M1830,-34C1842,-34 1847.25,-34 1855.88,-34"/>
<polygon fill="red" stroke="red" points="1856,-37.5 1866,-34 1856,-30.5 1856,-37.5"/>
</g>
<!-- Node0x600001e41b60 -->
<g id="node17" class="node">
<title>Node0x600001e41b60</title>
<polygon fill="none" stroke="black" points="1990,-9 1990,-77 2078,-77 2078,-9 1990,-9"/>
<text text-anchor="middle" x="2034" y="-66.6" font-family="Times,serif" font-size="8.00">word: fantasticoes</text>
<polyline fill="none" stroke="black" points="1990,-60 2078,-60 "/>
<text text-anchor="middle" x="2034" y="-49.6" font-family="Times,serif" font-size="8.00">size: 1</text>
<polyline fill="none" stroke="black" points="1990,-43 2078,-43 "/>
<text text-anchor="middle" x="2034" y="-32.6" font-family="Times,serif" font-size="8.00">next: 0x600001e42730</text>
<polyline fill="none" stroke="black" points="1990,-26 2078,-26 "/>
<text text-anchor="middle" x="2034" y="-15.6" font-family="Times,serif" font-size="8.00">prev: 0x600001e41350</text>
</g>
<!-- Node0x600001e41350&#45;&gt;Node0x600001e41b60 -->
<g id="edge16" class="edge">
<title>Node0x600001e41350:n&#45;&gt;Node0x600001e41b60:n</title>
<path fill="none" stroke="red" d="M1954,-34C1966,-34 1971.25,-34 1979.88,-34"/>
<polygon fill="red" stroke="red" points="1980,-37.5 1990,-34 1980,-30.5 1980,-37.5"/>
</g>
<!-- Node0x600001e42730 -->
<g id="node18" class="node">
<title>Node0x600001e42730</title>
<polygon fill="none" stroke="black" points="2114,-9 2114,-77 2202,-77 2202,-9 2114,-9"/>
<text text-anchor="middle" x="2158" y="-66.6" font-family="Times,serif" font-size="8.00">word: solely</text>
<polyline fill="none" stroke="black" points="2114,-60 2202,-60 "/>
<text text-anchor="middle" x="2158" y="-49.6" font-family="Times,serif" font-size="8.00">size: 2</text>
<polyline fill="none" stroke="black" points="2114,-43 2202,-43 "/>
<text text-anchor="middle" x="2158" y="-32.6" font-family="Times,serif" font-size="8.00">next: 0x600001e42940</text>
<polyline fill="none" stroke="black" points="2114,-26 2202,-26 "/>
<text text-anchor="middle" x="2158" y="-15.6" font-family="Times,serif" font-size="8.00">prev: 0x600001e41b60</text>
</g>
<!-- Node0x600001e41b60&#45;&gt;Node0x600001e42730 -->
<g id="edge17" class="edge">
<title>Node0x600001e41b60:n&#45;&gt;Node0x600001e42730:n</title>
<path fill="none" stroke="red" d="M2078,-34C2090,-34 2095.25,-34 2103.88,-34"/>
<polygon fill="red" stroke="red" points="2104,-37.5 2114,-34 2104,-30.5 2104,-37.5"/>
</g>
<!-- Node0x600001e42940 -->
<g id="node19" class="node">
<title>Node0x600001e42940</title>
<polygon fill="none" stroke="black" points="2238,-9 2238,-77 2326,-77 2326,-9 2238,-9"/>
<text text-anchor="middle" x="2282" y="-66.6" font-family="Times,serif" font-size="8.00">word: chase</text>
<polyline fill="none" stroke="black" points="2238,-60 2326,-60 "/>
<text text-anchor="middle" x="2282" y="-49.6" font-family="Times,serif" font-size="8.00">size: 1</text>
<polyline fill="none" stroke="black" points="2238,-43 2326,-43 "/>
<text text-anchor="middle" x="2282" y="-32.6" font-family="Times,serif" font-size="8.00">next: 0x600001e445a0</text>
<polyline fill="none" stroke="black" points="2238,-26 2326,-26 "/>
<text text-anchor="middle" x="2282" y="-15.6" font-family="Times,serif" font-size="8.00">prev: 0x600001e42730</text>
</g>
<!-- Node0x600001e42730&#45;&gt;Node0x600001e42940 -->
<g id="edge18" class="edge">
<title>Node0x600001e42730:n&#45;&gt;Node0x600001e42940:n</title>
<path fill="none" stroke="red" d="M2202,-34C2214,-34 2219.25,-34 2227.88,-34"/>
<polygon fill="red" stroke="red" points="2228,-37.5 2238,-34 2228,-30.5 2228,-37.5"/>
</g>
<!-- Node0x600001e445a0 -->
<g id="node20" class="node">
<title>Node0x600001e445a0</title>
<polygon fill="none" stroke="black" points="2362,-9 2362,-77 2450,-77 2450,-9 2362,-9"/>
<text text-anchor="middle" x="2406" y="-66.6" font-family="Times,serif" font-size="8.00">word: over</text>
<polyline fill="none" stroke="black" points="2362,-60 2450,-60 "/>
<text text-anchor="middle" x="2406" y="-49.6" font-family="Times,serif" font-size="8.00">size: 2</text>
<polyline fill="none" stroke="black" points="2362,-43 2450,-43 "/>
<text text-anchor="middle" x="2406" y="-32.6" font-family="Times,serif" font-size="8.00">next: 0x600001e47060</text>
<polyline fill="none" stroke="black" points="2362,-26 2450,-26 "/>
<text text-anchor="middle" x="2406" y="-15.6" font-family="Times,serif" font-size="8.00">prev: 0x600001e42940</text>
</g>
<!-- Node0x600001e42940&#45;&gt;Node0x600001e445a0 -->
<g id="edge19" class="edge">
<title>Node0x600001e42940:n&#45;&gt;Node0x600001e445a0:n</title>
<path fill="none" stroke="red" d="M2326,-34C2338,-34 2343.25,-34 2351.88,-34"/>
<polygon fill="red" stroke="red" points="2352,-37.5 2362,-34 2352,-30.5 2352,-37.5"/>
</g>
<!-- Node0x600001e47060 -->
<g id="node21" class="node">
<title>Node0x600001e47060</title>
<polygon fill="none" stroke="black" points="2486,-9 2486,-77 2574,-77 2574,-9 2486,-9"/>
<text text-anchor="middle" x="2530" y="-66.6" font-family="Times,serif" font-size="8.00">word: brave</text>
<polyline fill="none" stroke="black" points="2486,-60 2574,-60 "/>
<text text-anchor="middle" x="2530" y="-49.6" font-family="Times,serif" font-size="8.00">size: 2</text>
<polyline fill="none" stroke="black" points="2486,-43 2574,-43 "/>
<text text-anchor="middle" x="2530" y="-32.6" font-family="Times,serif" font-size="8.00">next: 0x600001e471b0</text>
<polyline fill="none" stroke="black" points="2486,-26 2574,-26 "/>
<text text-anchor="middle" x="2530" y="-15.6" font-family="Times,serif" font-size="8.00">prev: 0x600001e445a0</text>
</g>
<!-- Node0x600001e445a0&#45;&gt;Node0x600001e47060 -->
<g id="edge20" class="edge">
<title>Node0x600001e445a0:n&#45;&gt;Node0x600001e47060:n</title>
<path fill="none" stroke="red" d="M2450,-34C2462,-34 2467.25,-34 2475.88,-34"/>
<polygon fill="red" stroke="red" points="2476,-37.5 2486,-34 2476,-30.5 2476,-37.5"/>
</g>
<!-- Node0x600001e471b0 -->
<g id="node22" class="node">
<title>Node0x600001e471b0</title>
<polygon fill="none" stroke="black" points="2610,-9 2610,-77 2698,-77 2698,-9 2610,-9"/>
<text text-anchor="middle" x="2654" y="-66.6" font-family="Times,serif" font-size="8.00">word: Alive</text>
<polyline fill="none" stroke="black" points="2610,-60 2698,-60 "/>
<text text-anchor="middle" x="2654" y="-49.6" font-family="Times,serif" font-size="8.00">size: 1</text>
<polyline fill="none" stroke="black" points="2610,-43 2698,-43 "/>
<text text-anchor="middle" x="2654" y="-32.6" font-family="Times,serif" font-size="8.00">next: 0x600001e472a0</text>
<polyline fill="none" stroke="black" points="2610,-26 2698,-26 "/>
<text text-anchor="middle" x="2654" y="-15.6" font-family="Times,serif" font-size="8.00">prev: 0x600001e47060</text>
</g>
<!-- Node0x600001e47060&#45;&gt;Node0x600001e471b0 -->
<g id="edge21" class="edge">
<title>Node0x600001e47060:n&#45;&gt;Node0x600001e471b0:n</title>
<path fill="none" stroke="red" d="M2574,-34C2586,-34 2591.25,-34 2599.88,-34"/>
<polygon fill="red" stroke="red" points="2600,-37.5 2610,-34 2600,-30.5 2600,-37.5"/>
</g>
<!-- Node0x600001e472a0 -->
<g id="node23" class="node">
<title>Node0x600001e472a0</title>
<polygon fill="none" stroke="black" points="2734,-9 2734,-77 2822,-77 2822,-9 2734,-9"/>
<text text-anchor="middle" x="2778" y="-66.6" font-family="Times,serif" font-size="8.00">word: conduct</text>
<polyline fill="none" stroke="black" points="2734,-60 2822,-60 "/>
<text text-anchor="middle" x="2778" y="-49.6" font-family="Times,serif" font-size="8.00">size: 3</text>
<polyline fill="none" stroke="black" points="2734,-43 2822,-43 "/>
<text text-anchor="middle" x="2778" y="-32.6" font-family="Times,serif" font-size="8.00">next: 0x600001e47870</text>
<polyline fill="none" stroke="black" points="2734,-26 2822,-26 "/>
<text text-anchor="middle" x="2778" y="-15.6" font-family="Times,serif" font-size="8.00">prev: 0x600001e471b0</text>
</g>
<!-- Node0x600001e471b0&#45;&gt;Node0x600001e472a0 -->
<g id="edge22" class="edge">
<title>Node0x600001e471b0:n&#45;&gt;Node0x600001e472a0:n</title>
<path fill="none" stroke="red" d="M2698,-34C2710,-34 2715.25,-34 2723.88,-34"/>
<polygon fill="red" stroke="red" points="2724,-37.5 2734,-34 2724,-30.5 2724,-37.5"/>
</g>
<!-- Node0x600001e47870 -->
<g id="node24" class="node">
<title>Node0x600001e47870</title>
<polygon fill="none" stroke="black" points="2858,-9 2858,-77 2946,-77 2946,-9 2858,-9"/>
<text text-anchor="middle" x="2902" y="-66.6" font-family="Times,serif" font-size="8.00">word: unruly</text>
<polyline fill="none" stroke="black" points="2858,-60 2946,-60 "/>
<text text-anchor="middle" x="2902" y="-49.6" font-family="Times,serif" font-size="8.00">size: 1</text>
<polyline fill="none" stroke="black" points="2858,-43 2946,-43 "/>
<text text-anchor="middle" x="2902" y="-32.6" font-family="Times,serif" font-size="8.00">next: 0x600001e48030</text>
<polyline fill="none" stroke="black" points="2858,-26 2946,-26 "/>
<text text-anchor="middle" x="2902" y="-15.6" font-family="Times,serif" font-size="8.00">prev: 0x600001e472a0</text>
</g>
<!-- Node0x600001e472a0&#45;&gt;Node0x600001e47870 -->
<g id="edge23" class="edge">
<title>Node0x600001e472a0:n&#45;&gt;Node0x600001e47870:n</title>
<path fill="none" stroke="red" d="M2822,-34C2834,-34 2839.25,-34 2847.88,-34"/>
<polygon fill="red" stroke="red" points="2848,-37.5 2858,-34 2848,-30.5 2848,-37.5"/>
</g>
<!-- Node0x600001e48030 -->
<g id="node25" class="node">
<title>Node0x600001e48030</title>
<polygon fill="none" stroke="black" points="2982,-9 2982,-77 3070,-77 3070,-9 2982,-9"/>
<text text-anchor="middle" x="3026" y="-66.6" font-family="Times,serif" font-size="8.00">word: abuses</text>
<polyline fill="none" stroke="black" points="2982,-60 3070,-60 "/>
<text text-anchor="middle" x="3026" y="-49.6" font-family="Times,serif" font-size="8.00">size: 1</text>
<polyline fill="none" stroke="black" points="2982,-43 3070,-43 "/>
<text text-anchor="middle" x="3026" y="-32.6" font-family="Times,serif" font-size="8.00">next: 0x600001e49260</text>
<polyline fill="none" stroke="black" points="2982,-26 3070,-26 "/>
<text text-anchor="middle" x="3026" y="-15.6" font-family="Times,serif" font-size="8.00">prev: 0x600001e47870</text>
</g>
<!-- Node0x600001e47870&#45;&gt;Node0x600001e48030 -->
<g id="edge24" class="edge">
<title>Node0x600001e47870:n&#45;&gt;Node0x600001e48030:n</title>
<path fill="none" stroke="red" d="M2946,-34C2958,-34 2963.25,-34 2971.88,-34"/>
<polygon fill="red" stroke="red" points="2972,-37.5 2982,-34 2972,-30.5 2972,-37.5"/>
</g>
<!-- Node0x600001e49260 -->
<g id="node26" class="node">
<title>Node0x600001e49260</title>
<polygon fill="none" stroke="black" points="3106,-9 3106,-77 3194,-77 3194,-9 3106,-9"/>
<text text-anchor="middle" x="3150" y="-66.6" font-family="Times,serif" font-size="8.00">word: angelical</text>
<polyline fill="none" stroke="black" points="3106,-60 3194,-60 "/>
<text text-anchor="middle" x="3150" y="-49.6" font-family="Times,serif" font-size="8.00">size: 1</text>
<polyline fill="none" stroke="black" points="3106,-43 3194,-43 "/>
<text text-anchor="middle" x="3150" y="-32.6" font-family="Times,serif" font-size="8.00">next: 0x600001e4b660</text>
<polyline fill="none" stroke="black" points="3106,-26 3194,-26 "/>
<text text-anchor="middle" x="3150" y="-15.6" font-family="Times,serif" font-size="8.00">prev: 0x600001e48030</text>
</g>
<!-- Node0x600001e48030&#45;&gt;Node0x600001e49260 -->
<g id="edge25" class="edge">
<title>Node0x600001e48030:n&#45;&gt;Node0x600001e49260:n</title>
<path fill="none" stroke="red" d="M3070,-34C3082,-34 3087.25,-34 3095.88,-34"/>
<polygon fill="red" stroke="red" points="3096,-37.5 3106,-34 3096,-30.5 3096,-37.5"/>
</g>
<!-- Node0x600001e4b660 -->
<g id="node27" class="node">
<title>Node0x600001e4b660</title>
<polygon fill="none" stroke="black" points="3230,-9 3230,-77 3318,-77 3318,-9 3230,-9"/>
<text text-anchor="middle" x="3274" y="-66.6" font-family="Times,serif" font-size="8.00">word: promise</text>
<polyline fill="none" stroke="black" points="3230,-60 3318,-60 "/>
<text text-anchor="middle" x="3274" y="-49.6" font-family="Times,serif" font-size="8.00">size: 1</text>
<polyline fill="none" stroke="black" points="3230,-43 3318,-43 "/>
<text text-anchor="middle" x="3274" y="-32.6" font-family="Times,serif" font-size="8.00">next: 0x600001e4ca20</text>
<polyline fill="none" stroke="black" points="3230,-26 3318,-26 "/>
<text text-anchor="middle" x="3274" y="-15.6" font-family="Times,serif" font-size="8.00">prev: 0x600001e49260</text>
</g>
<!-- Node0x600001e49260&#45;&gt;Node0x600001e4b660 -->
<g id="edge26" class="edge">
<title>Node0x600001e49260:n&#45;&gt;Node0x600001e4b660:n</title>
<path fill="none" stroke="red" d="M3194,-34C3206,-34 3211.25,-34 3219.88,-34"/>
<polygon fill="red" stroke="red" points="3220,-37.5 3230,-34 3220,-30.5 3220,-37.5"/>
</g>
<!-- Node0x600001e4ca20 -->
<g id="node28" class="node">
<title>Node0x600001e4ca20</title>
<polygon fill="none" stroke="black" points="3354,-9 3354,-77 3442,-77 3442,-9 3354,-9"/>
<text text-anchor="middle" x="3398" y="-66.6" font-family="Times,serif" font-size="8.00">word: needy</text>
<polyline fill="none" stroke="black" points="3354,-60 3442,-60 "/>
<text text-anchor="middle" x="3398" y="-49.6" font-family="Times,serif" font-size="8.00">size: 3</text>
<polyline fill="none" stroke="black" points="3354,-43 3442,-43 "/>
<text text-anchor="middle" x="3398" y="-32.6" font-family="Times,serif" font-size="8.00">next: 0x600001e721f0</text>
<polyline fill="none" stroke="black" points="3354,-26 3442,-26 "/>
<text text-anchor="middle" x="3398" y="-15.6" font-family="Times,serif" font-size="8.00">prev: 0x600001e4b660</text>
</g>
<!-- Node0x600001e4b660&#45;&gt;Node0x600001e4ca20 -->
<g id="edge27" class="edge">
<title>Node0x600001e4b660:n&#45;&gt;Node0x600001e4ca20:n</title>
<path fill="none" stroke="red" d="M3318,-34C3330,-34 3335.25,-34 3343.88,-34"/>
<polygon fill="red" stroke="red" points="3344,-37.5 3354,-34 3344,-30.5 3344,-37.5"/>
</g>
<!-- Node0x600001e721f0 -->
<g id="node29" class="node">
<title>Node0x600001e721f0</title>
<polygon fill="none" stroke="black" points="3478,-9 3478,-77 3566,-77 3566,-9 3478,-9"/>
<text text-anchor="middle" x="3522" y="-66.6" font-family="Times,serif" font-size="8.00">word: blame</text>
<polyline fill="none" stroke="black" points="3478,-60 3566,-60 "/>
<text text-anchor="middle" x="3522" y="-49.6" font-family="Times,serif" font-size="8.00">size: 1</text>
<polyline fill="none" stroke="black" points="3478,-43 3566,-43 "/>
<text text-anchor="middle" x="3522" y="-32.6" font-family="Times,serif" font-size="8.00">next: 0x600001e72790</text>
<polyline fill="none" stroke="black" points="3478,-26 3566,-26 "/>
<text text-anchor="middle" x="3522" y="-15.6" font-family="Times,serif" font-size="8.00">prev: 0x600001e4ca20</text>
</g>
<!-- Node0x600001e4ca20&#45;&gt;Node0x600001e721f0 -->
<g id="edge28" class="edge">
<title>Node0x600001e4ca20:n&#45;&gt;Node0x600001e721f0:n</title>
<path fill="none" stroke="red" d="M3442,-34C3454,-34 3459.25,-34 3467.88,-34"/>
<polygon fill="red" stroke="red" points="3468,-37.5 3478,-34 3468,-30.5 3468,-37.5"/>
</g>
<!-- Node0x600001e72790 -->
<g id="node30" class="node">
<title>Node0x600001e72790</title>
<polygon fill="none" stroke="black" points="3602,-9 3602,-77 3689,-77 3689,-9 3602,-9"/>
<text text-anchor="middle" x="3645.5" y="-66.6" font-family="Times,serif" font-size="8.00">word: Bethink</text>
<polyline fill="none" stroke="black" points="3602,-60 3689,-60 "/>
<text text-anchor="middle" x="3645.5" y="-49.6" font-family="Times,serif" font-size="8.00">size: 1</text>
<polyline fill="none" stroke="black" points="3602,-43 3689,-43 "/>
<text text-anchor="middle" x="3645.5" y="-32.6" font-family="Times,serif" font-size="8.00">next: 0x600001e7a8b0</text>
<polyline fill="none" stroke="black" points="3602,-26 3689,-26 "/>
<text text-anchor="middle" x="3645.5" y="-15.6" font-family="Times,serif" font-size="8.00">prev: 0x600001e721f0</text>
</g>
<!-- Node0x600001e721f0&#45;&gt;Node0x600001e72790 -->
<g id="edge29" class="edge">
<title>Node0x600001e721f0:n&#45;&gt;Node0x600001e72790:n</title>
<path fill="none" stroke="red" d="M3566,-34C3578,-34 3583.25,-34 3591.88,-34"/>
<polygon fill="red" stroke="red" points="3592,-37.5 3602,-34 3592,-30.5 3592,-37.5"/>
</g>
<!-- Node0x600001e7a8b0 -->
<g id="node31" class="node">
<title>Node0x600001e7a8b0</title>
<polygon fill="none" stroke="black" points="3725,-9 3725,-77 3813,-77 3813,-9 3725,-9"/>
<text text-anchor="middle" x="3769" y="-66.6" font-family="Times,serif" font-size="8.00">word: dishonour</text>
<polyline fill="none" stroke="black" points="3725,-60 3813,-60 "/>
<text text-anchor="middle" x="3769" y="-49.6" font-family="Times,serif" font-size="8.00">size: 1</text>
<polyline fill="none" stroke="black" points="3725,-43 3813,-43 "/>
<text text-anchor="middle" x="3769" y="-32.6" font-family="Times,serif" font-size="8.00">next: 0x600001e73ae0</text>
<polyline fill="none" stroke="black" points="3725,-26 3813,-26 "/>
<text text-anchor="middle" x="3769" y="-15.6" font-family="Times,serif" font-size="8.00">prev: 0x600001e72790</text>
</g>
<!-- Node0x600001e72790&#45;&gt;Node0x600001e7a8b0 -->
<g id="edge30" class="edge">
<title>Node0x600001e72790:n&#45;&gt;Node0x600001e7a8b0:n</title>
<path fill="none" stroke="red" d="M3689,-34C3701,-34 3706.25,-34 3714.88,-34"/>
<polygon fill="red" stroke="red" points="3715,-37.5 3725,-34 3715,-30.5 3715,-37.5"/>
</g>
<!-- Node0x600001e73ae0 -->
<g id="node32" class="node">
<title>Node0x600001e73ae0</title>
<polygon fill="none" stroke="black" points="3849,-9 3849,-77 3937,-77 3937,-9 3849,-9"/>
<text text-anchor="middle" x="3893" y="-66.6" font-family="Times,serif" font-size="8.00">word: noted</text>
<polyline fill="none" stroke="black" points="3849,-60 3937,-60 "/>
<text text-anchor="middle" x="3893" y="-49.6" font-family="Times,serif" font-size="8.00">size: 1</text>
<polyline fill="none" stroke="black" points="3849,-43 3937,-43 "/>
<text text-anchor="middle" x="3893" y="-32.6" font-family="Times,serif" font-size="8.00">next: 0x600001e73db0</text>
<polyline fill="none" stroke="black" points="3849,-26 3937,-26 "/>
<text text-anchor="middle" x="3893" y="-15.6" font-family="Times,serif" font-size="8.00">prev: 0x600001e7a8b0</text>
</g>
<!-- Node0x600001e7a8b0&#45;&gt;Node0x600001e73ae0 -->
<g id="edge31" class="edge">
<title>Node0x600001e7a8b0:n&#45;&gt;Node0x600001e73ae0:n</title>
<path fill="none" stroke="red" d="M3813,-34C3825,-34 3830.25,-34 3838.88,-34"/>
<polygon fill="red" stroke="red" points="3839,-37.5 3849,-34 3839,-30.5 3839,-37.5"/>
</g>
<!-- Node0x600001e73db0 -->
<g id="node33" class="node">
<title>Node0x600001e73db0</title>
<polygon fill="none" stroke="black" points="3973,-9 3973,-77 4061,-77 4061,-9 3973,-9"/>
<text text-anchor="middle" x="4017" y="-66.6" font-family="Times,serif" font-size="8.00">word: shelves</text>
<polyline fill="none" stroke="black" points="3973,-60 4061,-60 "/>
<text text-anchor="middle" x="4017" y="-49.6" font-family="Times,serif" font-size="8.00">size: 1</text>
<polyline fill="none" stroke="black" points="3973,-43 4061,-43 "/>
<text text-anchor="middle" x="4017" y="-32.6" font-family="Times,serif" font-size="8.00">next: 0x600001e55410</text>
<polyline fill="none" stroke="black" points="3973,-26 4061,-26 "/>
<text text-anchor="middle" x="4017" y="-15.6" font-family="Times,serif" font-size="8.00">prev: 0x600001e73ae0</text>
</g>
<!-- Node0x600001e73ae0&#45;&gt;Node0x600001e73db0 -->
<g id="edge32" class="edge">
<title>Node0x600001e73ae0:n&#45;&gt;Node0x600001e73db0:n</title>
<path fill="none" stroke="red" d="M3937,-34C3949,-34 3954.25,-34 3962.88,-34"/>
<polygon fill="red" stroke="red" points="3963,-37.5 3973,-34 3963,-30.5 3963,-37.5"/>
</g>
<!-- Node0x600001e55410 -->
<g id="node34" class="node">
<title>Node0x600001e55410</title>
<polygon fill="none" stroke="black" points="4097,-9 4097,-77 4185,-77 4185,-9 4097,-9"/>
<text text-anchor="middle" x="4141" y="-66.6" font-family="Times,serif" font-size="8.00">word: comfortable</text>
<polyline fill="none" stroke="black" points="4097,-60 4185,-60 "/>
<text text-anchor="middle" x="4141" y="-49.6" font-family="Times,serif" font-size="8.00">size: 1</text>
<polyline fill="none" stroke="black" points="4097,-43 4185,-43 "/>
<text text-anchor="middle" x="4141" y="-32.6" font-family="Times,serif" font-size="8.00">next: 0x0</text>
<polyline fill="none" stroke="black" points="4097,-26 4185,-26 "/>
<text text-anchor="middle" x="4141" y="-15.6" font-family="Times,serif" font-size="8.00">prev: 0x600001e73db0</text>
</g>
<!-- Node0x600001e73db0&#45;&gt;Node0x600001e55410 -->
<g id="edge33" class="edge">
<title>Node0x600001e73db0:n&#45;&gt;Node0x600001e55410:n</title>
<path fill="none" stroke="red" d="M4061,-34C4073,-34 4078.25,-34 4086.88,-34"/>
<polygon fill="red" stroke="red" points="4087,-37.5 4097,-34 4087,-30.5 4087,-37.5"/>
</g>
</g>
</svg>
