<?xml version="1.0" encoding="UTF-8" standalone="no"?>
<!DOCTYPE svg PUBLIC "-//W3C//DTD SVG 1.1//EN"
 "http://www.w3.org/Graphics/SVG/1.1/DTD/svg11.dtd">
<!-- Generated by graphviz version 2.50.0 (20211204.2007)
 -->
<!-- Title: G Pages: 1 -->
<svg width="3704pt" height="117pt"
 viewBox="0.00 0.00 3704.00 117.00" xmlns="http://www.w3.org/2000/svg" xmlns:xlink="http://www.w3.org/1999/xlink">
<g id="graph0" class="graph" transform="scale(1 1) rotate(0) translate(4 113)">
<title>G</title>
<polygon fill="white" stroke="transparent" points="-4,4 -4,-113 3700,-113 3700,4 -4,4"/>
<g id="clust1" class="cluster">
<title>cluster1528</title>
<polygon fill="none" stroke="black" points="8,-8 8,-101 95,-101 95,-8 8,-8"/>
<text text-anchor="middle" x="51.5" y="-85.8" font-family="Times,serif" font-size="14.00">1528</text>
</g>
<g id="clust2" class="cluster">
<title>cluster1529</title>
<polygon fill="none" stroke="black" points="131,-8 131,-101 219,-101 219,-8 131,-8"/>
<text text-anchor="middle" x="175" y="-85.8" font-family="Times,serif" font-size="14.00">1529</text>
</g>
<g id="clust3" class="cluster">
<title>cluster1530</title>
<polygon fill="none" stroke="black" points="255,-8 255,-101 343,-101 343,-8 255,-8"/>
<text text-anchor="middle" x="299" y="-85.8" font-family="Times,serif" font-size="14.00">1530</text>
</g>
<g id="clust4" class="cluster">
<title>cluster1531</title>
<polygon fill="none" stroke="black" points="379,-8 379,-101 467,-101 467,-8 379,-8"/>
<text text-anchor="middle" x="423" y="-85.8" font-family="Times,serif" font-size="14.00">1531</text>
</g>
<g id="clust5" class="cluster">
<title>cluster1532</title>
<polygon fill="none" stroke="black" points="503,-8 503,-101 591,-101 591,-8 503,-8"/>
<text text-anchor="middle" x="547" y="-85.8" font-family="Times,serif" font-size="14.00">1532</text>
</g>
<g id="clust6" class="cluster">
<title>cluster1533</title>
<polygon fill="none" stroke="black" points="627,-8 627,-101 714,-101 714,-8 627,-8"/>
<text text-anchor="middle" x="670.5" y="-85.8" font-family="Times,serif" font-size="14.00">1533</text>
</g>
<g id="clust7" class="cluster">
<title>cluster1534</title>
<polygon fill="none" stroke="black" points="750,-8 750,-101 837,-101 837,-8 750,-8"/>
<text text-anchor="middle" x="793.5" y="-85.8" font-family="Times,serif" font-size="14.00">1534</text>
</g>
<g id="clust8" class="cluster">
<title>cluster1535</title>
<polygon fill="none" stroke="black" points="873,-8 873,-101 961,-101 961,-8 873,-8"/>
<text text-anchor="middle" x="917" y="-85.8" font-family="Times,serif" font-size="14.00">1535</text>
</g>
<g id="clust9" class="cluster">
<title>cluster1536</title>
<polygon fill="none" stroke="black" points="997,-8 997,-101 1085,-101 1085,-8 997,-8"/>
<text text-anchor="middle" x="1041" y="-85.8" font-family="Times,serif" font-size="14.00">1536</text>
</g>
<g id="clust10" class="cluster">
<title>cluster1537</title>
<polygon fill="none" stroke="black" points="1121,-8 1121,-101 1209,-101 1209,-8 1121,-8"/>
<text text-anchor="middle" x="1165" y="-85.8" font-family="Times,serif" font-size="14.00">1537</text>
</g>
<g id="clust11" class="cluster">
<title>cluster1538</title>
<polygon fill="none" stroke="black" points="1245,-8 1245,-101 1333,-101 1333,-8 1245,-8"/>
<text text-anchor="middle" x="1289" y="-85.8" font-family="Times,serif" font-size="14.00">1538</text>
</g>
<g id="clust12" class="cluster">
<title>cluster1539</title>
<polygon fill="none" stroke="black" points="1369,-8 1369,-101 1456,-101 1456,-8 1369,-8"/>
<text text-anchor="middle" x="1412.5" y="-85.8" font-family="Times,serif" font-size="14.00">1539</text>
</g>
<g id="clust13" class="cluster">
<title>cluster1540</title>
<polygon fill="none" stroke="black" points="1492,-8 1492,-101 1580,-101 1580,-8 1492,-8"/>
<text text-anchor="middle" x="1536" y="-85.8" font-family="Times,serif" font-size="14.00">1540</text>
</g>
<g id="clust14" class="cluster">
<title>cluster1541</title>
<polygon fill="none" stroke="black" points="1616,-8 1616,-101 1704,-101 1704,-8 1616,-8"/>
<text text-anchor="middle" x="1660" y="-85.8" font-family="Times,serif" font-size="14.00">1541</text>
</g>
<g id="clust15" class="cluster">
<title>cluster1542</title>
<polygon fill="none" stroke="black" points="1740,-8 1740,-101 1828,-101 1828,-8 1740,-8"/>
<text text-anchor="middle" x="1784" y="-85.8" font-family="Times,serif" font-size="14.00">1542</text>
</g>
<g id="clust16" class="cluster">
<title>cluster1543</title>
<polygon fill="none" stroke="black" points="1864,-8 1864,-101 1952,-101 1952,-8 1864,-8"/>
<text text-anchor="middle" x="1908" y="-85.8" font-family="Times,serif" font-size="14.00">1543</text>
</g>
<g id="clust17" class="cluster">
<title>cluster1544</title>
<polygon fill="none" stroke="black" points="1988,-8 1988,-101 2076,-101 2076,-8 1988,-8"/>
<text text-anchor="middle" x="2032" y="-85.8" font-family="Times,serif" font-size="14.00">1544</text>
</g>
<g id="clust18" class="cluster">
<title>cluster1545</title>
<polygon fill="none" stroke="black" points="2112,-8 2112,-101 2200,-101 2200,-8 2112,-8"/>
<text text-anchor="middle" x="2156" y="-85.8" font-family="Times,serif" font-size="14.00">1545</text>
</g>
<g id="clust19" class="cluster">
<title>cluster1546</title>
<polygon fill="none" stroke="black" points="2236,-8 2236,-101 2324,-101 2324,-8 2236,-8"/>
<text text-anchor="middle" x="2280" y="-85.8" font-family="Times,serif" font-size="14.00">1546</text>
</g>
<g id="clust20" class="cluster">
<title>cluster1547</title>
<polygon fill="none" stroke="black" points="2360,-8 2360,-101 2448,-101 2448,-8 2360,-8"/>
<text text-anchor="middle" x="2404" y="-85.8" font-family="Times,serif" font-size="14.00">1547</text>
</g>
<g id="clust21" class="cluster">
<title>cluster1548</title>
<polygon fill="none" stroke="black" points="2484,-8 2484,-101 2572,-101 2572,-8 2484,-8"/>
<text text-anchor="middle" x="2528" y="-85.8" font-family="Times,serif" font-size="14.00">1548</text>
</g>
<g id="clust22" class="cluster">
<title>cluster1549</title>
<polygon fill="none" stroke="black" points="2608,-8 2608,-101 2696,-101 2696,-8 2608,-8"/>
<text text-anchor="middle" x="2652" y="-85.8" font-family="Times,serif" font-size="14.00">1549</text>
</g>
<g id="clust23" class="cluster">
<title>cluster1550</title>
<polygon fill="none" stroke="black" points="2732,-8 2732,-101 2820,-101 2820,-8 2732,-8"/>
<text text-anchor="middle" x="2776" y="-85.8" font-family="Times,serif" font-size="14.00">1550</text>
</g>
<g id="clust24" class="cluster">
<title>cluster1551</title>
<polygon fill="none" stroke="black" points="2856,-8 2856,-101 2944,-101 2944,-8 2856,-8"/>
<text text-anchor="middle" x="2900" y="-85.8" font-family="Times,serif" font-size="14.00">1551</text>
</g>
<g id="clust25" class="cluster">
<title>cluster1552</title>
<polygon fill="none" stroke="black" points="2980,-8 2980,-101 3068,-101 3068,-8 2980,-8"/>
<text text-anchor="middle" x="3024" y="-85.8" font-family="Times,serif" font-size="14.00">1552</text>
</g>
<g id="clust26" class="cluster">
<title>cluster1553</title>
<polygon fill="none" stroke="black" points="3104,-8 3104,-101 3192,-101 3192,-8 3104,-8"/>
<text text-anchor="middle" x="3148" y="-85.8" font-family="Times,serif" font-size="14.00">1553</text>
</g>
<g id="clust27" class="cluster">
<title>cluster1554</title>
<polygon fill="none" stroke="black" points="3228,-8 3228,-101 3316,-101 3316,-8 3228,-8"/>
<text text-anchor="middle" x="3272" y="-85.8" font-family="Times,serif" font-size="14.00">1554</text>
</g>
<g id="clust28" class="cluster">
<title>cluster1555</title>
<polygon fill="none" stroke="black" points="3352,-8 3352,-101 3440,-101 3440,-8 3352,-8"/>
<text text-anchor="middle" x="3396" y="-85.8" font-family="Times,serif" font-size="14.00">1555</text>
</g>
<g id="clust29" class="cluster">
<title>cluster1556</title>
<polygon fill="none" stroke="black" points="3476,-8 3476,-101 3564,-101 3564,-8 3476,-8"/>
<text text-anchor="middle" x="3520" y="-85.8" font-family="Times,serif" font-size="14.00">1556</text>
</g>
<g id="clust30" class="cluster">
<title>cluster1557</title>
<polygon fill="none" stroke="black" points="3600,-8 3600,-101 3688,-101 3688,-8 3600,-8"/>
<text text-anchor="middle" x="3644" y="-85.8" font-family="Times,serif" font-size="14.00">1557</text>
</g>
<!-- Node0x600001e61d40 -->
<g id="node1" class="node">
<title>Node0x600001e61d40</title>
<polygon fill="none" stroke="black" points="8,-9 8,-77 95,-77 95,-9 8,-9"/>
<text text-anchor="middle" x="51.5" y="-66.6" font-family="Times,serif" font-size="8.00">word: love</text>
<polyline fill="none" stroke="black" points="8,-60 95,-60 "/>
<text text-anchor="middle" x="51.5" y="-49.6" font-family="Times,serif" font-size="8.00">size: 145</text>
<polyline fill="none" stroke="black" points="8,-43 95,-43 "/>
<text text-anchor="middle" x="51.5" y="-32.6" font-family="Times,serif" font-size="8.00">next: 0x600001e68780</text>
<polyline fill="none" stroke="black" points="8,-26 95,-26 "/>
<text text-anchor="middle" x="51.5" y="-15.6" font-family="Times,serif" font-size="8.00">prev: 0x0</text>
</g>
<!-- Node0x600001e68780 -->
<g id="node2" class="node">
<title>Node0x600001e68780</title>
<polygon fill="none" stroke="black" points="131,-9 131,-77 219,-77 219,-9 131,-9"/>
<text text-anchor="middle" x="175" y="-66.6" font-family="Times,serif" font-size="8.00">word: Or</text>
<polyline fill="none" stroke="black" points="131,-60 219,-60 "/>
<text text-anchor="middle" x="175" y="-49.6" font-family="Times,serif" font-size="8.00">size: 28</text>
<polyline fill="none" stroke="black" points="131,-43 219,-43 "/>
<text text-anchor="middle" x="175" y="-32.6" font-family="Times,serif" font-size="8.00">next: 0x600001e6c720</text>
<polyline fill="none" stroke="black" points="131,-26 219,-26 "/>
<text text-anchor="middle" x="175" y="-15.6" font-family="Times,serif" font-size="8.00">prev: 0x600001e61d40</text>
</g>
<!-- Node0x600001e61d40&#45;&gt;Node0x600001e68780 -->
<g id="edge1" class="edge">
<title>Node0x600001e61d40:n&#45;&gt;Node0x600001e68780:n</title>
<path fill="none" stroke="red" d="M95,-34C107,-34 112.25,-34 120.88,-34"/>
<polygon fill="red" stroke="red" points="121,-37.5 131,-34 121,-30.5 121,-37.5"/>
</g>
<!-- Node0x600001e6c720 -->
<g id="node3" class="node">
<title>Node0x600001e6c720</title>
<polygon fill="none" stroke="black" points="255,-9 255,-77 343,-77 343,-9 255,-9"/>
<text text-anchor="middle" x="299" y="-66.6" font-family="Times,serif" font-size="8.00">word: eyes</text>
<polyline fill="none" stroke="black" points="255,-60 343,-60 "/>
<text text-anchor="middle" x="299" y="-49.6" font-family="Times,serif" font-size="8.00">size: 27</text>
<polyline fill="none" stroke="black" points="255,-43 343,-43 "/>
<text text-anchor="middle" x="299" y="-32.6" font-family="Times,serif" font-size="8.00">next: 0x600001e669d0</text>
<polyline fill="none" stroke="black" points="255,-26 343,-26 "/>
<text text-anchor="middle" x="299" y="-15.6" font-family="Times,serif" font-size="8.00">prev: 0x600001e68780</text>
</g>
<!-- Node0x600001e68780&#45;&gt;Node0x600001e6c720 -->
<g id="edge2" class="edge">
<title>Node0x600001e68780:n&#45;&gt;Node0x600001e6c720:n</title>
<path fill="none" stroke="red" d="M219,-34C231,-34 236.25,-34 244.88,-34"/>
<polygon fill="red" stroke="red" points="245,-37.5 255,-34 245,-30.5 245,-37.5"/>
</g>
<!-- Node0x600001e669d0 -->
<g id="node4" class="node">
<title>Node0x600001e669d0</title>
<polygon fill="none" stroke="black" points="379,-9 379,-77 467,-77 467,-9 379,-9"/>
<text text-anchor="middle" x="423" y="-66.6" font-family="Times,serif" font-size="8.00">word: spoke</text>
<polyline fill="none" stroke="black" points="379,-60 467,-60 "/>
<text text-anchor="middle" x="423" y="-49.6" font-family="Times,serif" font-size="8.00">size: 6</text>
<polyline fill="none" stroke="black" points="379,-43 467,-43 "/>
<text text-anchor="middle" x="423" y="-32.6" font-family="Times,serif" font-size="8.00">next: 0x600001e743f0</text>
<polyline fill="none" stroke="black" points="379,-26 467,-26 "/>
<text text-anchor="middle" x="423" y="-15.6" font-family="Times,serif" font-size="8.00">prev: 0x600001e6c720</text>
</g>
<!-- Node0x600001e6c720&#45;&gt;Node0x600001e669d0 -->
<g id="edge3" class="edge">
<title>Node0x600001e6c720:n&#45;&gt;Node0x600001e669d0:n</title>
<path fill="none" stroke="red" d="M343,-34C355,-34 360.25,-34 368.88,-34"/>
<polygon fill="red" stroke="red" points="369,-37.5 379,-34 369,-30.5 369,-37.5"/>
</g>
<!-- Node0x600001e743f0 -->
<g id="node5" class="node">
<title>Node0x600001e743f0</title>
<polygon fill="none" stroke="black" points="503,-9 503,-77 591,-77 591,-9 503,-9"/>
<text text-anchor="middle" x="547" y="-66.6" font-family="Times,serif" font-size="8.00">word: gnat</text>
<polyline fill="none" stroke="black" points="503,-60 591,-60 "/>
<text text-anchor="middle" x="547" y="-49.6" font-family="Times,serif" font-size="8.00">size: 1</text>
<polyline fill="none" stroke="black" points="503,-43 591,-43 "/>
<text text-anchor="middle" x="547" y="-32.6" font-family="Times,serif" font-size="8.00">next: 0x600001e746f0</text>
<polyline fill="none" stroke="black" points="503,-26 591,-26 "/>
<text text-anchor="middle" x="547" y="-15.6" font-family="Times,serif" font-size="8.00">prev: 0x600001e669d0</text>
</g>
<!-- Node0x600001e669d0&#45;&gt;Node0x600001e743f0 -->
<g id="edge4" class="edge">
<title>Node0x600001e669d0:n&#45;&gt;Node0x600001e743f0:n</title>
<path fill="none" stroke="red" d="M467,-34C479,-34 484.25,-34 492.88,-34"/>
<polygon fill="red" stroke="red" points="493,-37.5 503,-34 493,-30.5 493,-37.5"/>
</g>
<!-- Node0x600001e746f0 -->
<g id="node6" class="node">
<title>Node0x600001e746f0</title>
<polygon fill="none" stroke="black" points="627,-9 627,-77 714,-77 714,-9 627,-9"/>
<text text-anchor="middle" x="670.5" y="-66.6" font-family="Times,serif" font-size="8.00">word: brains</text>
<polyline fill="none" stroke="black" points="627,-60 714,-60 "/>
<text text-anchor="middle" x="670.5" y="-49.6" font-family="Times,serif" font-size="8.00">size: 2</text>
<polyline fill="none" stroke="black" points="627,-43 714,-43 "/>
<text text-anchor="middle" x="670.5" y="-32.6" font-family="Times,serif" font-size="8.00">next: 0x600001e74d50</text>
<polyline fill="none" stroke="black" points="627,-26 714,-26 "/>
<text text-anchor="middle" x="670.5" y="-15.6" font-family="Times,serif" font-size="8.00">prev: 0x600001e743f0</text>
</g>
<!-- Node0x600001e743f0&#45;&gt;Node0x600001e746f0 -->
<g id="edge5" class="edge">
<title>Node0x600001e743f0:n&#45;&gt;Node0x600001e746f0:n</title>
<path fill="none" stroke="red" d="M591,-34C603,-34 608.25,-34 616.88,-34"/>
<polygon fill="red" stroke="red" points="617,-37.5 627,-34 617,-30.5 617,-37.5"/>
</g>
<!-- Node0x600001e74d50 -->
<g id="node7" class="node">
<title>Node0x600001e74d50</title>
<polygon fill="none" stroke="black" points="750,-9 750,-77 837,-77 837,-9 750,-9"/>
<text text-anchor="middle" x="793.5" y="-66.6" font-family="Times,serif" font-size="8.00">word: throats</text>
<polyline fill="none" stroke="black" points="750,-60 837,-60 "/>
<text text-anchor="middle" x="793.5" y="-49.6" font-family="Times,serif" font-size="8.00">size: 1</text>
<polyline fill="none" stroke="black" points="750,-43 837,-43 "/>
<text text-anchor="middle" x="793.5" y="-32.6" font-family="Times,serif" font-size="8.00">next: 0x600001e74ed0</text>
<polyline fill="none" stroke="black" points="750,-26 837,-26 "/>
<text text-anchor="middle" x="793.5" y="-15.6" font-family="Times,serif" font-size="8.00">prev: 0x600001e746f0</text>
</g>
<!-- Node0x600001e746f0&#45;&gt;Node0x600001e74d50 -->
<g id="edge6" class="edge">
<title>Node0x600001e746f0:n&#45;&gt;Node0x600001e74d50:n</title>
<path fill="none" stroke="red" d="M714,-34C726,-34 731.25,-34 739.88,-34"/>
<polygon fill="red" stroke="red" points="740,-37.5 750,-34 740,-30.5 740,-37.5"/>
</g>
<!-- Node0x600001e74ed0 -->
<g id="node8" class="node">
<title>Node0x600001e74ed0</title>
<polygon fill="none" stroke="black" points="873,-9 873,-77 961,-77 961,-9 873,-9"/>
<text text-anchor="middle" x="917" y="-66.6" font-family="Times,serif" font-size="8.00">word: Drums</text>
<polyline fill="none" stroke="black" points="873,-60 961,-60 "/>
<text text-anchor="middle" x="917" y="-49.6" font-family="Times,serif" font-size="8.00">size: 1</text>
<polyline fill="none" stroke="black" points="873,-43 961,-43 "/>
<text text-anchor="middle" x="917" y="-32.6" font-family="Times,serif" font-size="8.00">next: 0x600001e75650</text>
<polyline fill="none" stroke="black" points="873,-26 961,-26 "/>
<text text-anchor="middle" x="917" y="-15.6" font-family="Times,serif" font-size="8.00">prev: 0x600001e74d50</text>
</g>
<!-- Node0x600001e74d50&#45;&gt;Node0x600001e74ed0 -->
<g id="edge7" class="edge">
<title>Node0x600001e74d50:n&#45;&gt;Node0x600001e74ed0:n</title>
<path fill="none" stroke="red" d="M837,-34C849,-34 854.25,-34 862.88,-34"/>
<polygon fill="red" stroke="red" points="863,-37.5 873,-34 863,-30.5 863,-37.5"/>
</g>
<!-- Node0x600001e75650 -->
<g id="node9" class="node">
<title>Node0x600001e75650</title>
<polygon fill="none" stroke="black" points="997,-9 997,-77 1085,-77 1085,-9 997,-9"/>
<text text-anchor="middle" x="1041" y="-66.6" font-family="Times,serif" font-size="8.00">word: revels</text>
<polyline fill="none" stroke="black" points="997,-60 1085,-60 "/>
<text text-anchor="middle" x="1041" y="-49.6" font-family="Times,serif" font-size="8.00">size: 1</text>
<polyline fill="none" stroke="black" points="997,-43 1085,-43 "/>
<text text-anchor="middle" x="1041" y="-32.6" font-family="Times,serif" font-size="8.00">next: 0x600001e7e130</text>
<polyline fill="none" stroke="black" points="997,-26 1085,-26 "/>
<text text-anchor="middle" x="1041" y="-15.6" font-family="Times,serif" font-size="8.00">prev: 0x600001e74ed0</text>
</g>
<!-- Node0x600001e74ed0&#45;&gt;Node0x600001e75650 -->
<g id="edge8" class="edge">
<title>Node0x600001e74ed0:n&#45;&gt;Node0x600001e75650:n</title>
<path fill="none" stroke="red" d="M961,-34C973,-34 978.25,-34 986.88,-34"/>
<polygon fill="red" stroke="red" points="987,-37.5 997,-34 987,-30.5 987,-37.5"/>
</g>
<!-- Node0x600001e7e130 -->
<g id="node10" class="node">
<title>Node0x600001e7e130</title>
<polygon fill="none" stroke="black" points="1121,-9 1121,-77 1209,-77 1209,-9 1121,-9"/>
<text text-anchor="middle" x="1165" y="-66.6" font-family="Times,serif" font-size="8.00">word: perverse</text>
<polyline fill="none" stroke="black" points="1121,-60 1209,-60 "/>
<text text-anchor="middle" x="1165" y="-49.6" font-family="Times,serif" font-size="8.00">size: 1</text>
<polyline fill="none" stroke="black" points="1121,-43 1209,-43 "/>
<text text-anchor="middle" x="1165" y="-32.6" font-family="Times,serif" font-size="8.00">next: 0x600001e7f510</text>
<polyline fill="none" stroke="black" points="1121,-26 1209,-26 "/>
<text text-anchor="middle" x="1165" y="-15.6" font-family="Times,serif" font-size="8.00">prev: 0x600001e75650</text>
</g>
<!-- Node0x600001e75650&#45;&gt;Node0x600001e7e130 -->
<g id="edge9" class="edge">
<title>Node0x600001e75650:n&#45;&gt;Node0x600001e7e130:n</title>
<path fill="none" stroke="red" d="M1085,-34C1097,-34 1102.25,-34 1110.88,-34"/>
<polygon fill="red" stroke="red" points="1111,-37.5 1121,-34 1111,-30.5 1111,-37.5"/>
</g>
<!-- Node0x600001e7f510 -->
<g id="node11" class="node">
<title>Node0x600001e7f510</title>
<polygon fill="none" stroke="black" points="1245,-9 1245,-77 1333,-77 1333,-9 1245,-9"/>
<text text-anchor="middle" x="1289" y="-66.6" font-family="Times,serif" font-size="8.00">word: jealous</text>
<polyline fill="none" stroke="black" points="1245,-60 1333,-60 "/>
<text text-anchor="middle" x="1289" y="-49.6" font-family="Times,serif" font-size="8.00">size: 4</text>
<polyline fill="none" stroke="black" points="1245,-43 1333,-43 "/>
<text text-anchor="middle" x="1289" y="-32.6" font-family="Times,serif" font-size="8.00">next: 0x600001e40690</text>
<polyline fill="none" stroke="black" points="1245,-26 1333,-26 "/>
<text text-anchor="middle" x="1289" y="-15.6" font-family="Times,serif" font-size="8.00">prev: 0x600001e7e130</text>
</g>
<!-- Node0x600001e7e130&#45;&gt;Node0x600001e7f510 -->
<g id="edge10" class="edge">
<title>Node0x600001e7e130:n&#45;&gt;Node0x600001e7f510:n</title>
<path fill="none" stroke="red" d="M1209,-34C1221,-34 1226.25,-34 1234.88,-34"/>
<polygon fill="red" stroke="red" points="1235,-37.5 1245,-34 1235,-30.5 1235,-37.5"/>
</g>
<!-- Node0x600001e40690 -->
<g id="node12" class="node">
<title>Node0x600001e40690</title>
<polygon fill="none" stroke="black" points="1369,-9 1369,-77 1456,-77 1456,-9 1369,-9"/>
<text text-anchor="middle" x="1412.5" y="-66.6" font-family="Times,serif" font-size="8.00">word: keeps</text>
<polyline fill="none" stroke="black" points="1369,-60 1456,-60 "/>
<text text-anchor="middle" x="1412.5" y="-49.6" font-family="Times,serif" font-size="8.00">size: 4</text>
<polyline fill="none" stroke="black" points="1369,-43 1456,-43 "/>
<text text-anchor="middle" x="1412.5" y="-32.6" font-family="Times,serif" font-size="8.00">next: 0x600001e41b90</text>
<polyline fill="none" stroke="black" points="1369,-26 1456,-26 "/>
<text text-anchor="middle" x="1412.5" y="-15.6" font-family="Times,serif" font-size="8.00">prev: 0x600001e7f510</text>
</g>
<!-- Node0x600001e7f510&#45;&gt;Node0x600001e40690 -->
<g id="edge11" class="edge">
<title>Node0x600001e7f510:n&#45;&gt;Node0x600001e40690:n</title>
<path fill="none" stroke="red" d="M1333,-34C1345,-34 1350.25,-34 1358.88,-34"/>
<polygon fill="red" stroke="red" points="1359,-37.5 1369,-34 1359,-30.5 1359,-37.5"/>
</g>
<!-- Node0x600001e41b90 -->
<g id="node13" class="node">
<title>Node0x600001e41b90</title>
<polygon fill="none" stroke="black" points="1492,-9 1492,-77 1580,-77 1580,-9 1492,-9"/>
<text text-anchor="middle" x="1536" y="-66.6" font-family="Times,serif" font-size="8.00">word: tuners</text>
<polyline fill="none" stroke="black" points="1492,-60 1580,-60 "/>
<text text-anchor="middle" x="1536" y="-49.6" font-family="Times,serif" font-size="8.00">size: 1</text>
<polyline fill="none" stroke="black" points="1492,-43 1580,-43 "/>
<text text-anchor="middle" x="1536" y="-32.6" font-family="Times,serif" font-size="8.00">next: 0x600001e42010</text>
<polyline fill="none" stroke="black" points="1492,-26 1580,-26 "/>
<text text-anchor="middle" x="1536" y="-15.6" font-family="Times,serif" font-size="8.00">prev: 0x600001e40690</text>
</g>
<!-- Node0x600001e40690&#45;&gt;Node0x600001e41b90 -->
<g id="edge12" class="edge">
<title>Node0x600001e40690:n&#45;&gt;Node0x600001e41b90:n</title>
<path fill="none" stroke="red" d="M1456,-34C1468,-34 1473.25,-34 1481.88,-34"/>
<polygon fill="red" stroke="red" points="1482,-37.5 1492,-34 1482,-30.5 1482,-37.5"/>
</g>
<!-- Node0x600001e42010 -->
<g id="node14" class="node">
<title>Node0x600001e42010</title>
<polygon fill="none" stroke="black" points="1616,-9 1616,-77 1704,-77 1704,-9 1616,-9"/>
<text text-anchor="middle" x="1660" y="-66.6" font-family="Times,serif" font-size="8.00">word: berhyme</text>
<polyline fill="none" stroke="black" points="1616,-60 1704,-60 "/>
<text text-anchor="middle" x="1660" y="-49.6" font-family="Times,serif" font-size="8.00">size: 1</text>
<polyline fill="none" stroke="black" points="1616,-43 1704,-43 "/>
<text text-anchor="middle" x="1660" y="-32.6" font-family="Times,serif" font-size="8.00">next: 0x600001e43c90</text>
<polyline fill="none" stroke="black" points="1616,-26 1704,-26 "/>
<text text-anchor="middle" x="1660" y="-15.6" font-family="Times,serif" font-size="8.00">prev: 0x600001e41b90</text>
</g>
<!-- Node0x600001e41b90&#45;&gt;Node0x600001e42010 -->
<g id="edge13" class="edge">
<title>Node0x600001e41b90:n&#45;&gt;Node0x600001e42010:n</title>
<path fill="none" stroke="red" d="M1580,-34C1592,-34 1597.25,-34 1605.88,-34"/>
<polygon fill="red" stroke="red" points="1606,-37.5 1616,-34 1606,-30.5 1606,-37.5"/>
</g>
<!-- Node0x600001e43c90 -->
<g id="node15" class="node">
<title>Node0x600001e43c90</title>
<polygon fill="none" stroke="black" points="1740,-9 1740,-77 1828,-77 1828,-9 1740,-9"/>
<text text-anchor="middle" x="1784" y="-66.6" font-family="Times,serif" font-size="8.00">word: gentlemanlike</text>
<polyline fill="none" stroke="black" points="1740,-60 1828,-60 "/>
<text text-anchor="middle" x="1784" y="-49.6" font-family="Times,serif" font-size="8.00">size: 1</text>
<polyline fill="none" stroke="black" points="1740,-43 1828,-43 "/>
<text text-anchor="middle" x="1784" y="-32.6" font-family="Times,serif" font-size="8.00">next: 0x600001e443c0</text>
<polyline fill="none" stroke="black" points="1740,-26 1828,-26 "/>
<text text-anchor="middle" x="1784" y="-15.6" font-family="Times,serif" font-size="8.00">prev: 0x600001e42010</text>
</g>
<!-- Node0x600001e42010&#45;&gt;Node0x600001e43c90 -->
<g id="edge14" class="edge">
<title>Node0x600001e42010:n&#45;&gt;Node0x600001e43c90:n</title>
<path fill="none" stroke="red" d="M1704,-34C1716,-34 1721.25,-34 1729.88,-34"/>
<polygon fill="red" stroke="red" points="1730,-37.5 1740,-34 1730,-30.5 1730,-37.5"/>
</g>
<!-- Node0x600001e443c0 -->
<g id="node16" class="node">
<title>Node0x600001e443c0</title>
<polygon fill="none" stroke="black" points="1864,-9 1864,-77 1952,-77 1952,-9 1864,-9"/>
<text text-anchor="middle" x="1908" y="-66.6" font-family="Times,serif" font-size="8.00">word: promis</text>
<polyline fill="none" stroke="black" points="1864,-60 1952,-60 "/>
<text text-anchor="middle" x="1908" y="-49.6" font-family="Times,serif" font-size="8.00">size: 1</text>
<polyline fill="none" stroke="black" points="1864,-43 1952,-43 "/>
<text text-anchor="middle" x="1908" y="-32.6" font-family="Times,serif" font-size="8.00">next: 0x600001e45d40</text>
<polyline fill="none" stroke="black" points="1864,-26 1952,-26 "/>
<text text-anchor="middle" x="1908" y="-15.6" font-family="Times,serif" font-size="8.00">prev: 0x600001e43c90</text>
</g>
<!-- Node0x600001e43c90&#45;&gt;Node0x600001e443c0 -->
<g id="edge15" class="edge">
<title>Node0x600001e43c90:n&#45;&gt;Node0x600001e443c0:n</title>
<path fill="none" stroke="red" d="M1828,-34C1840,-34 1845.25,-34 1853.88,-34"/>
<polygon fill="red" stroke="red" points="1854,-37.5 1864,-34 1854,-30.5 1854,-37.5"/>
</g>
<!-- Node0x600001e45d40 -->
<g id="node17" class="node">
<title>Node0x600001e45d40</title>
<polygon fill="none" stroke="black" points="1988,-9 1988,-77 2076,-77 2076,-9 1988,-9"/>
<text text-anchor="middle" x="2032" y="-66.6" font-family="Times,serif" font-size="8.00">word: jack</text>
<polyline fill="none" stroke="black" points="1988,-60 2076,-60 "/>
<text text-anchor="middle" x="2032" y="-49.6" font-family="Times,serif" font-size="8.00">size: 1</text>
<polyline fill="none" stroke="black" points="1988,-43 2076,-43 "/>
<text text-anchor="middle" x="2032" y="-32.6" font-family="Times,serif" font-size="8.00">next: 0x600001e463a0</text>
<polyline fill="none" stroke="black" points="1988,-26 2076,-26 "/>
<text text-anchor="middle" x="2032" y="-15.6" font-family="Times,serif" font-size="8.00">prev: 0x600001e443c0</text>
</g>
<!-- Node0x600001e443c0&#45;&gt;Node0x600001e45d40 -->
<g id="edge16" class="edge">
<title>Node0x600001e443c0:n&#45;&gt;Node0x600001e45d40:n</title>
<path fill="none" stroke="red" d="M1952,-34C1964,-34 1969.25,-34 1977.88,-34"/>
<polygon fill="red" stroke="red" points="1978,-37.5 1988,-34 1978,-30.5 1978,-37.5"/>
</g>
<!-- Node0x600001e463a0 -->
<g id="node18" class="node">
<title>Node0x600001e463a0</title>
<polygon fill="none" stroke="black" points="2112,-9 2112,-77 2200,-77 2200,-9 2112,-9"/>
<text text-anchor="middle" x="2156" y="-66.6" font-family="Times,serif" font-size="8.00">word: Consort</text>
<polyline fill="none" stroke="black" points="2112,-60 2200,-60 "/>
<text text-anchor="middle" x="2156" y="-49.6" font-family="Times,serif" font-size="8.00">size: 1</text>
<polyline fill="none" stroke="black" points="2112,-43 2200,-43 "/>
<text text-anchor="middle" x="2156" y="-32.6" font-family="Times,serif" font-size="8.00">next: 0x600001e47d20</text>
<polyline fill="none" stroke="black" points="2112,-26 2200,-26 "/>
<text text-anchor="middle" x="2156" y="-15.6" font-family="Times,serif" font-size="8.00">prev: 0x600001e45d40</text>
</g>
<!-- Node0x600001e45d40&#45;&gt;Node0x600001e463a0 -->
<g id="edge17" class="edge">
<title>Node0x600001e45d40:n&#45;&gt;Node0x600001e463a0:n</title>
<path fill="none" stroke="red" d="M2076,-34C2088,-34 2093.25,-34 2101.88,-34"/>
<polygon fill="red" stroke="red" points="2102,-37.5 2112,-34 2102,-30.5 2102,-37.5"/>
</g>
<!-- Node0x600001e47d20 -->
<g id="node19" class="node">
<title>Node0x600001e47d20</title>
<polygon fill="none" stroke="black" points="2236,-9 2236,-77 2324,-77 2324,-9 2236,-9"/>
<text text-anchor="middle" x="2280" y="-66.6" font-family="Times,serif" font-size="8.00">word: justice</text>
<polyline fill="none" stroke="black" points="2236,-60 2324,-60 "/>
<text text-anchor="middle" x="2280" y="-49.6" font-family="Times,serif" font-size="8.00">size: 1</text>
<polyline fill="none" stroke="black" points="2236,-43 2324,-43 "/>
<text text-anchor="middle" x="2280" y="-32.6" font-family="Times,serif" font-size="8.00">next: 0x600001e48150</text>
<polyline fill="none" stroke="black" points="2236,-26 2324,-26 "/>
<text text-anchor="middle" x="2280" y="-15.6" font-family="Times,serif" font-size="8.00">prev: 0x600001e463a0</text>
</g>
<!-- Node0x600001e463a0&#45;&gt;Node0x600001e47d20 -->
<g id="edge18" class="edge">
<title>Node0x600001e463a0:n&#45;&gt;Node0x600001e47d20:n</title>
<path fill="none" stroke="red" d="M2200,-34C2212,-34 2217.25,-34 2225.88,-34"/>
<polygon fill="red" stroke="red" points="2226,-37.5 2236,-34 2226,-30.5 2226,-37.5"/>
</g>
<!-- Node0x600001e48150 -->
<g id="node20" class="node">
<title>Node0x600001e48150</title>
<polygon fill="none" stroke="black" points="2360,-9 2360,-77 2448,-77 2448,-9 2360,-9"/>
<text text-anchor="middle" x="2404" y="-66.6" font-family="Times,serif" font-size="8.00">word: footed</text>
<polyline fill="none" stroke="black" points="2360,-60 2448,-60 "/>
<text text-anchor="middle" x="2404" y="-49.6" font-family="Times,serif" font-size="8.00">size: 1</text>
<polyline fill="none" stroke="black" points="2360,-43 2448,-43 "/>
<text text-anchor="middle" x="2404" y="-32.6" font-family="Times,serif" font-size="8.00">next: 0x600001e4a490</text>
<polyline fill="none" stroke="black" points="2360,-26 2448,-26 "/>
<text text-anchor="middle" x="2404" y="-15.6" font-family="Times,serif" font-size="8.00">prev: 0x600001e47d20</text>
</g>
<!-- Node0x600001e47d20&#45;&gt;Node0x600001e48150 -->
<g id="edge19" class="edge">
<title>Node0x600001e47d20:n&#45;&gt;Node0x600001e48150:n</title>
<path fill="none" stroke="red" d="M2324,-34C2336,-34 2341.25,-34 2349.88,-34"/>
<polygon fill="red" stroke="red" points="2350,-37.5 2360,-34 2350,-30.5 2350,-37.5"/>
</g>
<!-- Node0x600001e4a490 -->
<g id="node21" class="node">
<title>Node0x600001e4a490</title>
<polygon fill="none" stroke="black" points="2484,-9 2484,-77 2572,-77 2572,-9 2484,-9"/>
<text text-anchor="middle" x="2528" y="-66.6" font-family="Times,serif" font-size="8.00">word: Heaven</text>
<polyline fill="none" stroke="black" points="2484,-60 2572,-60 "/>
<text text-anchor="middle" x="2528" y="-49.6" font-family="Times,serif" font-size="8.00">size: 2</text>
<polyline fill="none" stroke="black" points="2484,-43 2572,-43 "/>
<text text-anchor="middle" x="2528" y="-32.6" font-family="Times,serif" font-size="8.00">next: 0x600001e4aa00</text>
<polyline fill="none" stroke="black" points="2484,-26 2572,-26 "/>
<text text-anchor="middle" x="2528" y="-15.6" font-family="Times,serif" font-size="8.00">prev: 0x600001e48150</text>
</g>
<!-- Node0x600001e48150&#45;&gt;Node0x600001e4a490 -->
<g id="edge20" class="edge">
<title>Node0x600001e48150:n&#45;&gt;Node0x600001e4a490:n</title>
<path fill="none" stroke="red" d="M2448,-34C2460,-34 2465.25,-34 2473.88,-34"/>
<polygon fill="red" stroke="red" points="2474,-37.5 2484,-34 2474,-30.5 2474,-37.5"/>
</g>
<!-- Node0x600001e4aa00 -->
<g id="node22" class="node">
<title>Node0x600001e4aa00</title>
<polygon fill="none" stroke="black" points="2608,-9 2608,-77 2696,-77 2696,-9 2608,-9"/>
<text text-anchor="middle" x="2652" y="-66.6" font-family="Times,serif" font-size="8.00">word: weeps</text>
<polyline fill="none" stroke="black" points="2608,-60 2696,-60 "/>
<text text-anchor="middle" x="2652" y="-49.6" font-family="Times,serif" font-size="8.00">size: 4</text>
<polyline fill="none" stroke="black" points="2608,-43 2696,-43 "/>
<text text-anchor="middle" x="2652" y="-32.6" font-family="Times,serif" font-size="8.00">next: 0x600001e4acd0</text>
<polyline fill="none" stroke="black" points="2608,-26 2696,-26 "/>
<text text-anchor="middle" x="2652" y="-15.6" font-family="Times,serif" font-size="8.00">prev: 0x600001e4a490</text>
</g>
<!-- Node0x600001e4a490&#45;&gt;Node0x600001e4aa00 -->
<g id="edge21" class="edge">
<title>Node0x600001e4a490:n&#45;&gt;Node0x600001e4aa00:n</title>
<path fill="none" stroke="red" d="M2572,-34C2584,-34 2589.25,-34 2597.88,-34"/>
<polygon fill="red" stroke="red" points="2598,-37.5 2608,-34 2598,-30.5 2598,-37.5"/>
</g>
<!-- Node0x600001e4acd0 -->
<g id="node23" class="node">
<title>Node0x600001e4acd0</title>
<polygon fill="none" stroke="black" points="2732,-9 2732,-77 2820,-77 2820,-9 2732,-9"/>
<text text-anchor="middle" x="2776" y="-66.6" font-family="Times,serif" font-size="8.00">word: doing</text>
<polyline fill="none" stroke="black" points="2732,-60 2820,-60 "/>
<text text-anchor="middle" x="2776" y="-49.6" font-family="Times,serif" font-size="8.00">size: 1</text>
<polyline fill="none" stroke="black" points="2732,-43 2820,-43 "/>
<text text-anchor="middle" x="2776" y="-32.6" font-family="Times,serif" font-size="8.00">next: 0x600001e4c510</text>
<polyline fill="none" stroke="black" points="2732,-26 2820,-26 "/>
<text text-anchor="middle" x="2776" y="-15.6" font-family="Times,serif" font-size="8.00">prev: 0x600001e4aa00</text>
</g>
<!-- Node0x600001e4aa00&#45;&gt;Node0x600001e4acd0 -->
<g id="edge22" class="edge">
<title>Node0x600001e4aa00:n&#45;&gt;Node0x600001e4acd0:n</title>
<path fill="none" stroke="red" d="M2696,-34C2708,-34 2713.25,-34 2721.88,-34"/>
<polygon fill="red" stroke="red" points="2722,-37.5 2732,-34 2722,-30.5 2722,-37.5"/>
</g>
<!-- Node0x600001e4c510 -->
<g id="node24" class="node">
<title>Node0x600001e4c510</title>
<polygon fill="none" stroke="black" points="2856,-9 2856,-77 2944,-77 2944,-9 2856,-9"/>
<text text-anchor="middle" x="2900" y="-66.6" font-family="Times,serif" font-size="8.00">word: hope</text>
<polyline fill="none" stroke="black" points="2856,-60 2944,-60 "/>
<text text-anchor="middle" x="2900" y="-49.6" font-family="Times,serif" font-size="8.00">size: 4</text>
<polyline fill="none" stroke="black" points="2856,-43 2944,-43 "/>
<text text-anchor="middle" x="2900" y="-32.6" font-family="Times,serif" font-size="8.00">next: 0x600001e4c9c0</text>
<polyline fill="none" stroke="black" points="2856,-26 2944,-26 "/>
<text text-anchor="middle" x="2900" y="-15.6" font-family="Times,serif" font-size="8.00">prev: 0x600001e4acd0</text>
</g>
<!-- Node0x600001e4acd0&#45;&gt;Node0x600001e4c510 -->
<g id="edge23" class="edge">
<title>Node0x600001e4acd0:n&#45;&gt;Node0x600001e4c510:n</title>
<path fill="none" stroke="red" d="M2820,-34C2832,-34 2837.25,-34 2845.88,-34"/>
<polygon fill="red" stroke="red" points="2846,-37.5 2856,-34 2846,-30.5 2846,-37.5"/>
</g>
<!-- Node0x600001e4c9c0 -->
<g id="node25" class="node">
<title>Node0x600001e4c9c0</title>
<polygon fill="none" stroke="black" points="2980,-9 2980,-77 3068,-77 3068,-9 2980,-9"/>
<text text-anchor="middle" x="3024" y="-66.6" font-family="Times,serif" font-size="8.00">word: wreak</text>
<polyline fill="none" stroke="black" points="2980,-60 3068,-60 "/>
<text text-anchor="middle" x="3024" y="-49.6" font-family="Times,serif" font-size="8.00">size: 1</text>
<polyline fill="none" stroke="black" points="2980,-43 3068,-43 "/>
<text text-anchor="middle" x="3024" y="-32.6" font-family="Times,serif" font-size="8.00">next: 0x600001e71ec0</text>
<polyline fill="none" stroke="black" points="2980,-26 3068,-26 "/>
<text text-anchor="middle" x="3024" y="-15.6" font-family="Times,serif" font-size="8.00">prev: 0x600001e4c510</text>
</g>
<!-- Node0x600001e4c510&#45;&gt;Node0x600001e4c9c0 -->
<g id="edge24" class="edge">
<title>Node0x600001e4c510:n&#45;&gt;Node0x600001e4c9c0:n</title>
<path fill="none" stroke="red" d="M2944,-34C2956,-34 2961.25,-34 2969.88,-34"/>
<polygon fill="red" stroke="red" points="2970,-37.5 2980,-34 2970,-30.5 2970,-37.5"/>
</g>
<!-- Node0x600001e71ec0 -->
<g id="node26" class="node">
<title>Node0x600001e71ec0</title>
<polygon fill="none" stroke="black" points="3104,-9 3104,-77 3192,-77 3192,-9 3104,-9"/>
<text text-anchor="middle" x="3148" y="-66.6" font-family="Times,serif" font-size="8.00">word: prouds</text>
<polyline fill="none" stroke="black" points="3104,-60 3192,-60 "/>
<text text-anchor="middle" x="3148" y="-49.6" font-family="Times,serif" font-size="8.00">size: 1</text>
<polyline fill="none" stroke="black" points="3104,-43 3192,-43 "/>
<text text-anchor="middle" x="3148" y="-32.6" font-family="Times,serif" font-size="8.00">next: 0x600001e78db0</text>
<polyline fill="none" stroke="black" points="3104,-26 3192,-26 "/>
<text text-anchor="middle" x="3148" y="-15.6" font-family="Times,serif" font-size="8.00">prev: 0x600001e4c9c0</text>
</g>
<!-- Node0x600001e4c9c0&#45;&gt;Node0x600001e71ec0 -->
<g id="edge25" class="edge">
<title>Node0x600001e4c9c0:n&#45;&gt;Node0x600001e71ec0:n</title>
<path fill="none" stroke="red" d="M3068,-34C3080,-34 3085.25,-34 3093.88,-34"/>
<polygon fill="red" stroke="red" points="3094,-37.5 3104,-34 3094,-30.5 3094,-37.5"/>
</g>
<!-- Node0x600001e78db0 -->
<g id="node27" class="node">
<title>Node0x600001e78db0</title>
<polygon fill="none" stroke="black" points="3228,-9 3228,-77 3316,-77 3316,-9 3228,-9"/>
<text text-anchor="middle" x="3272" y="-66.6" font-family="Times,serif" font-size="8.00">word: mass</text>
<polyline fill="none" stroke="black" points="3228,-60 3316,-60 "/>
<text text-anchor="middle" x="3272" y="-49.6" font-family="Times,serif" font-size="8.00">size: 1</text>
<polyline fill="none" stroke="black" points="3228,-43 3316,-43 "/>
<text text-anchor="middle" x="3272" y="-32.6" font-family="Times,serif" font-size="8.00">next: 0x600001e7bae0</text>
<polyline fill="none" stroke="black" points="3228,-26 3316,-26 "/>
<text text-anchor="middle" x="3272" y="-15.6" font-family="Times,serif" font-size="8.00">prev: 0x600001e71ec0</text>
</g>
<!-- Node0x600001e71ec0&#45;&gt;Node0x600001e78db0 -->
<g id="edge26" class="edge">
<title>Node0x600001e71ec0:n&#45;&gt;Node0x600001e78db0:n</title>
<path fill="none" stroke="red" d="M3192,-34C3204,-34 3209.25,-34 3217.88,-34"/>
<polygon fill="red" stroke="red" points="3218,-37.5 3228,-34 3218,-30.5 3218,-37.5"/>
</g>
<!-- Node0x600001e7bae0 -->
<g id="node28" class="node">
<title>Node0x600001e7bae0</title>
<polygon fill="none" stroke="black" points="3352,-9 3352,-77 3440,-77 3440,-9 3352,-9"/>
<text text-anchor="middle" x="3396" y="-66.6" font-family="Times,serif" font-size="8.00">word: wronged</text>
<polyline fill="none" stroke="black" points="3352,-60 3440,-60 "/>
<text text-anchor="middle" x="3396" y="-49.6" font-family="Times,serif" font-size="8.00">size: 1</text>
<polyline fill="none" stroke="black" points="3352,-43 3440,-43 "/>
<text text-anchor="middle" x="3396" y="-32.6" font-family="Times,serif" font-size="8.00">next: 0x600001e73960</text>
<polyline fill="none" stroke="black" points="3352,-26 3440,-26 "/>
<text text-anchor="middle" x="3396" y="-15.6" font-family="Times,serif" font-size="8.00">prev: 0x600001e78db0</text>
</g>
<!-- Node0x600001e78db0&#45;&gt;Node0x600001e7bae0 -->
<g id="edge27" class="edge">
<title>Node0x600001e78db0:n&#45;&gt;Node0x600001e7bae0:n</title>
<path fill="none" stroke="red" d="M3316,-34C3328,-34 3333.25,-34 3341.88,-34"/>
<polygon fill="red" stroke="red" points="3342,-37.5 3352,-34 3342,-30.5 3342,-37.5"/>
</g>
<!-- Node0x600001e73960 -->
<g id="node29" class="node">
<title>Node0x600001e73960</title>
<polygon fill="none" stroke="black" points="3476,-9 3476,-77 3564,-77 3564,-9 3476,-9"/>
<text text-anchor="middle" x="3520" y="-66.6" font-family="Times,serif" font-size="8.00">word: posthorses</text>
<polyline fill="none" stroke="black" points="3476,-60 3564,-60 "/>
<text text-anchor="middle" x="3520" y="-49.6" font-family="Times,serif" font-size="8.00">size: 1</text>
<polyline fill="none" stroke="black" points="3476,-43 3564,-43 "/>
<text text-anchor="middle" x="3520" y="-32.6" font-family="Times,serif" font-size="8.00">next: 0x600001e55590</text>
<polyline fill="none" stroke="black" points="3476,-26 3564,-26 "/>
<text text-anchor="middle" x="3520" y="-15.6" font-family="Times,serif" font-size="8.00">prev: 0x600001e7bae0</text>
</g>
<!-- Node0x600001e7bae0&#45;&gt;Node0x600001e73960 -->
<g id="edge28" class="edge">
<title>Node0x600001e7bae0:n&#45;&gt;Node0x600001e73960:n</title>
<path fill="none" stroke="red" d="M3440,-34C3452,-34 3457.25,-34 3465.88,-34"/>
<polygon fill="red" stroke="red" points="3466,-37.5 3476,-34 3466,-30.5 3466,-37.5"/>
</g>
<!-- Node0x600001e55590 -->
<g id="node30" class="node">
<title>Node0x600001e55590</title>
<polygon fill="none" stroke="black" points="3600,-9 3600,-77 3688,-77 3688,-9 3600,-9"/>
<text text-anchor="middle" x="3644" y="-66.6" font-family="Times,serif" font-size="8.00">word: nuns</text>
<polyline fill="none" stroke="black" points="3600,-60 3688,-60 "/>
<text text-anchor="middle" x="3644" y="-49.6" font-family="Times,serif" font-size="8.00">size: 1</text>
<polyline fill="none" stroke="black" points="3600,-43 3688,-43 "/>
<text text-anchor="middle" x="3644" y="-32.6" font-family="Times,serif" font-size="8.00">next: 0x0</text>
<polyline fill="none" stroke="black" points="3600,-26 3688,-26 "/>
<text text-anchor="middle" x="3644" y="-15.6" font-family="Times,serif" font-size="8.00">prev: 0x600001e73960</text>
</g>
<!-- Node0x600001e73960&#45;&gt;Node0x600001e55590 -->
<g id="edge29" class="edge">
<title>Node0x600001e73960:n&#45;&gt;Node0x600001e55590:n</title>
<path fill="none" stroke="red" d="M3564,-34C3576,-34 3581.25,-34 3589.88,-34"/>
<polygon fill="red" stroke="red" points="3590,-37.5 3600,-34 3590,-30.5 3590,-37.5"/>
</g>
</g>
</svg>
