<?xml version="1.0" encoding="UTF-8" standalone="no"?>
<!DOCTYPE svg PUBLIC "-//W3C//DTD SVG 1.1//EN"
 "http://www.w3.org/Graphics/SVG/1.1/DTD/svg11.dtd">
<!-- Generated by graphviz version 2.50.0 (20211204.2007)
 -->
<!-- Title: G Pages: 1 -->
<svg width="4196pt" height="117pt"
 viewBox="0.00 0.00 4196.00 117.00" xmlns="http://www.w3.org/2000/svg" xmlns:xlink="http://www.w3.org/1999/xlink">
<g id="graph0" class="graph" transform="scale(1 1) rotate(0) translate(4 113)">
<title>G</title>
<polygon fill="white" stroke="transparent" points="-4,4 -4,-113 4192,-113 4192,4 -4,4"/>
<g id="clust1" class="cluster">
<title>cluster2883</title>
<polygon fill="none" stroke="black" points="8,-8 8,-101 94,-101 94,-8 8,-8"/>
<text text-anchor="middle" x="51" y="-85.8" font-family="Times,serif" font-size="14.00">2883</text>
</g>
<g id="clust2" class="cluster">
<title>cluster2884</title>
<polygon fill="none" stroke="black" points="130,-8 130,-101 218,-101 218,-8 130,-8"/>
<text text-anchor="middle" x="174" y="-85.8" font-family="Times,serif" font-size="14.00">2884</text>
</g>
<g id="clust3" class="cluster">
<title>cluster2885</title>
<polygon fill="none" stroke="black" points="254,-8 254,-101 341,-101 341,-8 254,-8"/>
<text text-anchor="middle" x="297.5" y="-85.8" font-family="Times,serif" font-size="14.00">2885</text>
</g>
<g id="clust4" class="cluster">
<title>cluster2886</title>
<polygon fill="none" stroke="black" points="377,-8 377,-101 465,-101 465,-8 377,-8"/>
<text text-anchor="middle" x="421" y="-85.8" font-family="Times,serif" font-size="14.00">2886</text>
</g>
<g id="clust5" class="cluster">
<title>cluster2887</title>
<polygon fill="none" stroke="black" points="501,-8 501,-101 589,-101 589,-8 501,-8"/>
<text text-anchor="middle" x="545" y="-85.8" font-family="Times,serif" font-size="14.00">2887</text>
</g>
<g id="clust6" class="cluster">
<title>cluster2888</title>
<polygon fill="none" stroke="black" points="625,-8 625,-101 713,-101 713,-8 625,-8"/>
<text text-anchor="middle" x="669" y="-85.8" font-family="Times,serif" font-size="14.00">2888</text>
</g>
<g id="clust7" class="cluster">
<title>cluster2889</title>
<polygon fill="none" stroke="black" points="749,-8 749,-101 837,-101 837,-8 749,-8"/>
<text text-anchor="middle" x="793" y="-85.8" font-family="Times,serif" font-size="14.00">2889</text>
</g>
<g id="clust8" class="cluster">
<title>cluster2890</title>
<polygon fill="none" stroke="black" points="873,-8 873,-101 961,-101 961,-8 873,-8"/>
<text text-anchor="middle" x="917" y="-85.8" font-family="Times,serif" font-size="14.00">2890</text>
</g>
<g id="clust9" class="cluster">
<title>cluster2891</title>
<polygon fill="none" stroke="black" points="997,-8 997,-101 1085,-101 1085,-8 997,-8"/>
<text text-anchor="middle" x="1041" y="-85.8" font-family="Times,serif" font-size="14.00">2891</text>
</g>
<g id="clust10" class="cluster">
<title>cluster2892</title>
<polygon fill="none" stroke="black" points="1121,-8 1121,-101 1209,-101 1209,-8 1121,-8"/>
<text text-anchor="middle" x="1165" y="-85.8" font-family="Times,serif" font-size="14.00">2892</text>
</g>
<g id="clust11" class="cluster">
<title>cluster2893</title>
<polygon fill="none" stroke="black" points="1245,-8 1245,-101 1333,-101 1333,-8 1245,-8"/>
<text text-anchor="middle" x="1289" y="-85.8" font-family="Times,serif" font-size="14.00">2893</text>
</g>
<g id="clust12" class="cluster">
<title>cluster2894</title>
<polygon fill="none" stroke="black" points="1369,-8 1369,-101 1457,-101 1457,-8 1369,-8"/>
<text text-anchor="middle" x="1413" y="-85.8" font-family="Times,serif" font-size="14.00">2894</text>
</g>
<g id="clust13" class="cluster">
<title>cluster2895</title>
<polygon fill="none" stroke="black" points="1493,-8 1493,-101 1581,-101 1581,-8 1493,-8"/>
<text text-anchor="middle" x="1537" y="-85.8" font-family="Times,serif" font-size="14.00">2895</text>
</g>
<g id="clust14" class="cluster">
<title>cluster2896</title>
<polygon fill="none" stroke="black" points="1617,-8 1617,-101 1705,-101 1705,-8 1617,-8"/>
<text text-anchor="middle" x="1661" y="-85.8" font-family="Times,serif" font-size="14.00">2896</text>
</g>
<g id="clust15" class="cluster">
<title>cluster2897</title>
<polygon fill="none" stroke="black" points="1741,-8 1741,-101 1829,-101 1829,-8 1741,-8"/>
<text text-anchor="middle" x="1785" y="-85.8" font-family="Times,serif" font-size="14.00">2897</text>
</g>
<g id="clust16" class="cluster">
<title>cluster2898</title>
<polygon fill="none" stroke="black" points="1865,-8 1865,-101 1953,-101 1953,-8 1865,-8"/>
<text text-anchor="middle" x="1909" y="-85.8" font-family="Times,serif" font-size="14.00">2898</text>
</g>
<g id="clust17" class="cluster">
<title>cluster2899</title>
<polygon fill="none" stroke="black" points="1989,-8 1989,-101 2077,-101 2077,-8 1989,-8"/>
<text text-anchor="middle" x="2033" y="-85.8" font-family="Times,serif" font-size="14.00">2899</text>
</g>
<g id="clust18" class="cluster">
<title>cluster2900</title>
<polygon fill="none" stroke="black" points="2113,-8 2113,-101 2201,-101 2201,-8 2113,-8"/>
<text text-anchor="middle" x="2157" y="-85.8" font-family="Times,serif" font-size="14.00">2900</text>
</g>
<g id="clust19" class="cluster">
<title>cluster2901</title>
<polygon fill="none" stroke="black" points="2237,-8 2237,-101 2325,-101 2325,-8 2237,-8"/>
<text text-anchor="middle" x="2281" y="-85.8" font-family="Times,serif" font-size="14.00">2901</text>
</g>
<g id="clust20" class="cluster">
<title>cluster2902</title>
<polygon fill="none" stroke="black" points="2361,-8 2361,-101 2449,-101 2449,-8 2361,-8"/>
<text text-anchor="middle" x="2405" y="-85.8" font-family="Times,serif" font-size="14.00">2902</text>
</g>
<g id="clust21" class="cluster">
<title>cluster2903</title>
<polygon fill="none" stroke="black" points="2485,-8 2485,-101 2572,-101 2572,-8 2485,-8"/>
<text text-anchor="middle" x="2528.5" y="-85.8" font-family="Times,serif" font-size="14.00">2903</text>
</g>
<g id="clust22" class="cluster">
<title>cluster2904</title>
<polygon fill="none" stroke="black" points="2608,-8 2608,-101 2695,-101 2695,-8 2608,-8"/>
<text text-anchor="middle" x="2651.5" y="-85.8" font-family="Times,serif" font-size="14.00">2904</text>
</g>
<g id="clust23" class="cluster">
<title>cluster2905</title>
<polygon fill="none" stroke="black" points="2731,-8 2731,-101 2818,-101 2818,-8 2731,-8"/>
<text text-anchor="middle" x="2774.5" y="-85.8" font-family="Times,serif" font-size="14.00">2905</text>
</g>
<g id="clust24" class="cluster">
<title>cluster2906</title>
<polygon fill="none" stroke="black" points="2854,-8 2854,-101 2942,-101 2942,-8 2854,-8"/>
<text text-anchor="middle" x="2898" y="-85.8" font-family="Times,serif" font-size="14.00">2906</text>
</g>
<g id="clust25" class="cluster">
<title>cluster2907</title>
<polygon fill="none" stroke="black" points="2978,-8 2978,-101 3066,-101 3066,-8 2978,-8"/>
<text text-anchor="middle" x="3022" y="-85.8" font-family="Times,serif" font-size="14.00">2907</text>
</g>
<g id="clust26" class="cluster">
<title>cluster2908</title>
<polygon fill="none" stroke="black" points="3102,-8 3102,-101 3190,-101 3190,-8 3102,-8"/>
<text text-anchor="middle" x="3146" y="-85.8" font-family="Times,serif" font-size="14.00">2908</text>
</g>
<g id="clust27" class="cluster">
<title>cluster2909</title>
<polygon fill="none" stroke="black" points="3226,-8 3226,-101 3313,-101 3313,-8 3226,-8"/>
<text text-anchor="middle" x="3269.5" y="-85.8" font-family="Times,serif" font-size="14.00">2909</text>
</g>
<g id="clust28" class="cluster">
<title>cluster2910</title>
<polygon fill="none" stroke="black" points="3349,-8 3349,-101 3437,-101 3437,-8 3349,-8"/>
<text text-anchor="middle" x="3393" y="-85.8" font-family="Times,serif" font-size="14.00">2910</text>
</g>
<g id="clust29" class="cluster">
<title>cluster2911</title>
<polygon fill="none" stroke="black" points="3473,-8 3473,-101 3561,-101 3561,-8 3473,-8"/>
<text text-anchor="middle" x="3517" y="-85.8" font-family="Times,serif" font-size="14.00">2911</text>
</g>
<g id="clust30" class="cluster">
<title>cluster2912</title>
<polygon fill="none" stroke="black" points="3597,-8 3597,-101 3685,-101 3685,-8 3597,-8"/>
<text text-anchor="middle" x="3641" y="-85.8" font-family="Times,serif" font-size="14.00">2912</text>
</g>
<g id="clust31" class="cluster">
<title>cluster2913</title>
<polygon fill="none" stroke="black" points="3721,-8 3721,-101 3809,-101 3809,-8 3721,-8"/>
<text text-anchor="middle" x="3765" y="-85.8" font-family="Times,serif" font-size="14.00">2913</text>
</g>
<g id="clust32" class="cluster">
<title>cluster2914</title>
<polygon fill="none" stroke="black" points="3845,-8 3845,-101 3933,-101 3933,-8 3845,-8"/>
<text text-anchor="middle" x="3889" y="-85.8" font-family="Times,serif" font-size="14.00">2914</text>
</g>
<g id="clust33" class="cluster">
<title>cluster2915</title>
<polygon fill="none" stroke="black" points="3969,-8 3969,-101 4057,-101 4057,-8 3969,-8"/>
<text text-anchor="middle" x="4013" y="-85.8" font-family="Times,serif" font-size="14.00">2915</text>
</g>
<g id="clust34" class="cluster">
<title>cluster2916</title>
<polygon fill="none" stroke="black" points="4093,-8 4093,-101 4180,-101 4180,-8 4093,-8"/>
<text text-anchor="middle" x="4136.5" y="-85.8" font-family="Times,serif" font-size="14.00">2916</text>
</g>
<!-- Node0x600000710d20 -->
<g id="node1" class="node">
<title>Node0x600000710d20</title>
<polygon fill="none" stroke="black" points="8,-9 8,-77 94,-77 94,-9 8,-9"/>
<text text-anchor="middle" x="51" y="-66.6" font-family="Times,serif" font-size="8.00">word: THREE</text>
<polyline fill="none" stroke="black" points="8,-60 94,-60 "/>
<text text-anchor="middle" x="51" y="-49.6" font-family="Times,serif" font-size="8.00">size: 1</text>
<polyline fill="none" stroke="black" points="8,-43 94,-43 "/>
<text text-anchor="middle" x="51" y="-32.6" font-family="Times,serif" font-size="8.00">next: 0x6000007115f0</text>
<polyline fill="none" stroke="black" points="8,-26 94,-26 "/>
<text text-anchor="middle" x="51" y="-15.6" font-family="Times,serif" font-size="8.00">prev: 0x0</text>
</g>
<!-- Node0x6000007115f0 -->
<g id="node2" class="node">
<title>Node0x6000007115f0</title>
<polygon fill="none" stroke="black" points="130,-9 130,-77 218,-77 218,-9 130,-9"/>
<text text-anchor="middle" x="174" y="-66.6" font-family="Times,serif" font-size="8.00">word: From</text>
<polyline fill="none" stroke="black" points="130,-60 218,-60 "/>
<text text-anchor="middle" x="174" y="-49.6" font-family="Times,serif" font-size="8.00">size: 6</text>
<polyline fill="none" stroke="black" points="130,-43 218,-43 "/>
<text text-anchor="middle" x="174" y="-32.6" font-family="Times,serif" font-size="8.00">next: 0x600000713ba0</text>
<polyline fill="none" stroke="black" points="130,-26 218,-26 "/>
<text text-anchor="middle" x="174" y="-15.6" font-family="Times,serif" font-size="8.00">prev: 0x600000710d20</text>
</g>
<!-- Node0x600000710d20&#45;&gt;Node0x6000007115f0 -->
<g id="edge1" class="edge">
<title>Node0x600000710d20:n&#45;&gt;Node0x6000007115f0:n</title>
<path fill="none" stroke="red" d="M94,-34C106,-34 111.25,-34 119.88,-34"/>
<polygon fill="red" stroke="red" points="120,-37.5 130,-34 120,-30.5 120,-37.5"/>
</g>
<!-- Node0x600000713ba0 -->
<g id="node3" class="node">
<title>Node0x600000713ba0</title>
<polygon fill="none" stroke="black" points="254,-9 254,-77 341,-77 341,-9 254,-9"/>
<text text-anchor="middle" x="297.5" y="-66.6" font-family="Times,serif" font-size="8.00">word: How</text>
<polyline fill="none" stroke="black" points="254,-60 341,-60 "/>
<text text-anchor="middle" x="297.5" y="-49.6" font-family="Times,serif" font-size="8.00">size: 30</text>
<polyline fill="none" stroke="black" points="254,-43 341,-43 "/>
<text text-anchor="middle" x="297.5" y="-32.6" font-family="Times,serif" font-size="8.00">next: 0x6000007141e0</text>
<polyline fill="none" stroke="black" points="254,-26 341,-26 "/>
<text text-anchor="middle" x="297.5" y="-15.6" font-family="Times,serif" font-size="8.00">prev: 0x6000007115f0</text>
</g>
<!-- Node0x6000007115f0&#45;&gt;Node0x600000713ba0 -->
<g id="edge2" class="edge">
<title>Node0x6000007115f0:n&#45;&gt;Node0x600000713ba0:n</title>
<path fill="none" stroke="red" d="M218,-34C230,-34 235.25,-34 243.88,-34"/>
<polygon fill="red" stroke="red" points="244,-37.5 254,-34 244,-30.5 244,-37.5"/>
</g>
<!-- Node0x6000007141e0 -->
<g id="node4" class="node">
<title>Node0x6000007141e0</title>
<polygon fill="none" stroke="black" points="377,-9 377,-77 465,-77 465,-9 377,-9"/>
<text text-anchor="middle" x="421" y="-66.6" font-family="Times,serif" font-size="8.00">word: good</text>
<polyline fill="none" stroke="black" points="377,-60 465,-60 "/>
<text text-anchor="middle" x="421" y="-49.6" font-family="Times,serif" font-size="8.00">size: 62</text>
<polyline fill="none" stroke="black" points="377,-43 465,-43 "/>
<text text-anchor="middle" x="421" y="-32.6" font-family="Times,serif" font-size="8.00">next: 0x600000715170</text>
<polyline fill="none" stroke="black" points="377,-26 465,-26 "/>
<text text-anchor="middle" x="421" y="-15.6" font-family="Times,serif" font-size="8.00">prev: 0x600000713ba0</text>
</g>
<!-- Node0x600000713ba0&#45;&gt;Node0x6000007141e0 -->
<g id="edge3" class="edge">
<title>Node0x600000713ba0:n&#45;&gt;Node0x6000007141e0:n</title>
<path fill="none" stroke="red" d="M341,-34C353,-34 358.25,-34 366.88,-34"/>
<polygon fill="red" stroke="red" points="367,-37.5 377,-34 367,-30.5 367,-37.5"/>
</g>
<!-- Node0x600000715170 -->
<g id="node5" class="node">
<title>Node0x600000715170</title>
<polygon fill="none" stroke="black" points="501,-9 501,-77 589,-77 589,-9 501,-9"/>
<text text-anchor="middle" x="545" y="-66.6" font-family="Times,serif" font-size="8.00">word: foot</text>
<polyline fill="none" stroke="black" points="501,-60 589,-60 "/>
<text text-anchor="middle" x="545" y="-49.6" font-family="Times,serif" font-size="8.00">size: 9</text>
<polyline fill="none" stroke="black" points="501,-43 589,-43 "/>
<text text-anchor="middle" x="545" y="-32.6" font-family="Times,serif" font-size="8.00">next: 0x6000007155c0</text>
<polyline fill="none" stroke="black" points="501,-26 589,-26 "/>
<text text-anchor="middle" x="545" y="-15.6" font-family="Times,serif" font-size="8.00">prev: 0x6000007141e0</text>
</g>
<!-- Node0x6000007141e0&#45;&gt;Node0x600000715170 -->
<g id="edge4" class="edge">
<title>Node0x6000007141e0:n&#45;&gt;Node0x600000715170:n</title>
<path fill="none" stroke="red" d="M465,-34C477,-34 482.25,-34 490.88,-34"/>
<polygon fill="red" stroke="red" points="491,-37.5 501,-34 491,-30.5 491,-37.5"/>
</g>
<!-- Node0x6000007155c0 -->
<g id="node6" class="node">
<title>Node0x6000007155c0</title>
<polygon fill="none" stroke="black" points="625,-9 625,-77 713,-77 713,-9 625,-9"/>
<text text-anchor="middle" x="669" y="-66.6" font-family="Times,serif" font-size="8.00">word: pain</text>
<polyline fill="none" stroke="black" points="625,-60 713,-60 "/>
<text text-anchor="middle" x="669" y="-49.6" font-family="Times,serif" font-size="8.00">size: 3</text>
<polyline fill="none" stroke="black" points="625,-43 713,-43 "/>
<text text-anchor="middle" x="669" y="-32.6" font-family="Times,serif" font-size="8.00">next: 0x6000007163a0</text>
<polyline fill="none" stroke="black" points="625,-26 713,-26 "/>
<text text-anchor="middle" x="669" y="-15.6" font-family="Times,serif" font-size="8.00">prev: 0x600000715170</text>
</g>
<!-- Node0x600000715170&#45;&gt;Node0x6000007155c0 -->
<g id="edge5" class="edge">
<title>Node0x600000715170:n&#45;&gt;Node0x6000007155c0:n</title>
<path fill="none" stroke="red" d="M589,-34C601,-34 606.25,-34 614.88,-34"/>
<polygon fill="red" stroke="red" points="615,-37.5 625,-34 615,-30.5 615,-37.5"/>
</g>
<!-- Node0x6000007163a0 -->
<g id="node7" class="node">
<title>Node0x6000007163a0</title>
<polygon fill="none" stroke="black" points="749,-9 749,-77 837,-77 837,-9 749,-9"/>
<text text-anchor="middle" x="793" y="-66.6" font-family="Times,serif" font-size="8.00">word: about</text>
<polyline fill="none" stroke="black" points="749,-60 837,-60 "/>
<text text-anchor="middle" x="793" y="-49.6" font-family="Times,serif" font-size="8.00">size: 12</text>
<polyline fill="none" stroke="black" points="749,-43 837,-43 "/>
<text text-anchor="middle" x="793" y="-32.6" font-family="Times,serif" font-size="8.00">next: 0x600000717420</text>
<polyline fill="none" stroke="black" points="749,-26 837,-26 "/>
<text text-anchor="middle" x="793" y="-15.6" font-family="Times,serif" font-size="8.00">prev: 0x6000007155c0</text>
</g>
<!-- Node0x6000007155c0&#45;&gt;Node0x6000007163a0 -->
<g id="edge6" class="edge">
<title>Node0x6000007155c0:n&#45;&gt;Node0x6000007163a0:n</title>
<path fill="none" stroke="red" d="M713,-34C725,-34 730.25,-34 738.88,-34"/>
<polygon fill="red" stroke="red" points="739,-37.5 749,-34 739,-30.5 739,-37.5"/>
</g>
<!-- Node0x600000717420 -->
<g id="node8" class="node">
<title>Node0x600000717420</title>
<polygon fill="none" stroke="black" points="873,-9 873,-77 961,-77 961,-9 873,-9"/>
<text text-anchor="middle" x="917" y="-66.6" font-family="Times,serif" font-size="8.00">word: bean</text>
<polyline fill="none" stroke="black" points="873,-60 961,-60 "/>
<text text-anchor="middle" x="917" y="-49.6" font-family="Times,serif" font-size="8.00">size: 1</text>
<polyline fill="none" stroke="black" points="873,-43 961,-43 "/>
<text text-anchor="middle" x="917" y="-32.6" font-family="Times,serif" font-size="8.00">next: 0x600000718d80</text>
<polyline fill="none" stroke="black" points="873,-26 961,-26 "/>
<text text-anchor="middle" x="917" y="-15.6" font-family="Times,serif" font-size="8.00">prev: 0x6000007163a0</text>
</g>
<!-- Node0x6000007163a0&#45;&gt;Node0x600000717420 -->
<g id="edge7" class="edge">
<title>Node0x6000007163a0:n&#45;&gt;Node0x600000717420:n</title>
<path fill="none" stroke="red" d="M837,-34C849,-34 854.25,-34 862.88,-34"/>
<polygon fill="red" stroke="red" points="863,-37.5 873,-34 863,-30.5 863,-37.5"/>
</g>
<!-- Node0x600000718d80 -->
<g id="node9" class="node">
<title>Node0x600000718d80</title>
<polygon fill="none" stroke="black" points="997,-9 997,-77 1085,-77 1085,-9 997,-9"/>
<text text-anchor="middle" x="1041" y="-66.6" font-family="Times,serif" font-size="8.00">word: no</text>
<polyline fill="none" stroke="black" points="997,-60 1085,-60 "/>
<text text-anchor="middle" x="1041" y="-49.6" font-family="Times,serif" font-size="8.00">size: 73</text>
<polyline fill="none" stroke="black" points="997,-43 1085,-43 "/>
<text text-anchor="middle" x="1041" y="-32.6" font-family="Times,serif" font-size="8.00">next: 0x60000071ba20</text>
<polyline fill="none" stroke="black" points="997,-26 1085,-26 "/>
<text text-anchor="middle" x="1041" y="-15.6" font-family="Times,serif" font-size="8.00">prev: 0x600000717420</text>
</g>
<!-- Node0x600000717420&#45;&gt;Node0x600000718d80 -->
<g id="edge8" class="edge">
<title>Node0x600000717420:n&#45;&gt;Node0x600000718d80:n</title>
<path fill="none" stroke="red" d="M961,-34C973,-34 978.25,-34 986.88,-34"/>
<polygon fill="red" stroke="red" points="987,-37.5 997,-34 987,-30.5 987,-37.5"/>
</g>
<!-- Node0x60000071ba20 -->
<g id="node10" class="node">
<title>Node0x60000071ba20</title>
<polygon fill="none" stroke="black" points="1121,-9 1121,-77 1209,-77 1209,-9 1121,-9"/>
<text text-anchor="middle" x="1165" y="-66.6" font-family="Times,serif" font-size="8.00">word: cures</text>
<polyline fill="none" stroke="black" points="1121,-60 1209,-60 "/>
<text text-anchor="middle" x="1165" y="-49.6" font-family="Times,serif" font-size="8.00">size: 1</text>
<polyline fill="none" stroke="black" points="1121,-43 1209,-43 "/>
<text text-anchor="middle" x="1165" y="-32.6" font-family="Times,serif" font-size="8.00">next: 0x6000007045d0</text>
<polyline fill="none" stroke="black" points="1121,-26 1209,-26 "/>
<text text-anchor="middle" x="1165" y="-15.6" font-family="Times,serif" font-size="8.00">prev: 0x600000718d80</text>
</g>
<!-- Node0x600000718d80&#45;&gt;Node0x60000071ba20 -->
<g id="edge9" class="edge">
<title>Node0x600000718d80:n&#45;&gt;Node0x60000071ba20:n</title>
<path fill="none" stroke="red" d="M1085,-34C1097,-34 1102.25,-34 1110.88,-34"/>
<polygon fill="red" stroke="red" points="1111,-37.5 1121,-34 1111,-30.5 1111,-37.5"/>
</g>
<!-- Node0x6000007045d0 -->
<g id="node11" class="node">
<title>Node0x6000007045d0</title>
<polygon fill="none" stroke="black" points="1245,-9 1245,-77 1333,-77 1333,-9 1245,-9"/>
<text text-anchor="middle" x="1289" y="-66.6" font-family="Times,serif" font-size="8.00">word: pantry</text>
<polyline fill="none" stroke="black" points="1245,-60 1333,-60 "/>
<text text-anchor="middle" x="1289" y="-49.6" font-family="Times,serif" font-size="8.00">size: 1</text>
<polyline fill="none" stroke="black" points="1245,-43 1333,-43 "/>
<text text-anchor="middle" x="1289" y="-32.6" font-family="Times,serif" font-size="8.00">next: 0x60000071e280</text>
<polyline fill="none" stroke="black" points="1245,-26 1333,-26 "/>
<text text-anchor="middle" x="1289" y="-15.6" font-family="Times,serif" font-size="8.00">prev: 0x60000071ba20</text>
</g>
<!-- Node0x60000071ba20&#45;&gt;Node0x6000007045d0 -->
<g id="edge10" class="edge">
<title>Node0x60000071ba20:n&#45;&gt;Node0x6000007045d0:n</title>
<path fill="none" stroke="red" d="M1209,-34C1221,-34 1226.25,-34 1234.88,-34"/>
<polygon fill="red" stroke="red" points="1235,-37.5 1245,-34 1235,-30.5 1235,-37.5"/>
</g>
<!-- Node0x60000071e280 -->
<g id="node12" class="node">
<title>Node0x60000071e280</title>
<polygon fill="none" stroke="black" points="1369,-9 1369,-77 1457,-77 1457,-9 1369,-9"/>
<text text-anchor="middle" x="1413" y="-66.6" font-family="Times,serif" font-size="8.00">word: Begot</text>
<polyline fill="none" stroke="black" points="1369,-60 1457,-60 "/>
<text text-anchor="middle" x="1413" y="-49.6" font-family="Times,serif" font-size="8.00">size: 1</text>
<polyline fill="none" stroke="black" points="1369,-43 1457,-43 "/>
<text text-anchor="middle" x="1413" y="-32.6" font-family="Times,serif" font-size="8.00">next: 0x60000071ee20</text>
<polyline fill="none" stroke="black" points="1369,-26 1457,-26 "/>
<text text-anchor="middle" x="1413" y="-15.6" font-family="Times,serif" font-size="8.00">prev: 0x6000007045d0</text>
</g>
<!-- Node0x6000007045d0&#45;&gt;Node0x60000071e280 -->
<g id="edge11" class="edge">
<title>Node0x6000007045d0:n&#45;&gt;Node0x60000071e280:n</title>
<path fill="none" stroke="red" d="M1333,-34C1345,-34 1350.25,-34 1358.88,-34"/>
<polygon fill="red" stroke="red" points="1359,-37.5 1369,-34 1359,-30.5 1359,-37.5"/>
</g>
<!-- Node0x60000071ee20 -->
<g id="node13" class="node">
<title>Node0x60000071ee20</title>
<polygon fill="none" stroke="black" points="1493,-9 1493,-77 1581,-77 1581,-9 1493,-9"/>
<text text-anchor="middle" x="1537" y="-66.6" font-family="Times,serif" font-size="8.00">word: boy</text>
<polyline fill="none" stroke="black" points="1493,-60 1581,-60 "/>
<text text-anchor="middle" x="1537" y="-49.6" font-family="Times,serif" font-size="8.00">size: 11</text>
<polyline fill="none" stroke="black" points="1493,-43 1581,-43 "/>
<text text-anchor="middle" x="1537" y="-32.6" font-family="Times,serif" font-size="8.00">next: 0x600000700cc0</text>
<polyline fill="none" stroke="black" points="1493,-26 1581,-26 "/>
<text text-anchor="middle" x="1537" y="-15.6" font-family="Times,serif" font-size="8.00">prev: 0x60000071e280</text>
</g>
<!-- Node0x60000071e280&#45;&gt;Node0x60000071ee20 -->
<g id="edge12" class="edge">
<title>Node0x60000071e280:n&#45;&gt;Node0x60000071ee20:n</title>
<path fill="none" stroke="red" d="M1457,-34C1469,-34 1474.25,-34 1482.88,-34"/>
<polygon fill="red" stroke="red" points="1483,-37.5 1493,-34 1483,-30.5 1483,-37.5"/>
</g>
<!-- Node0x600000700cc0 -->
<g id="node14" class="node">
<title>Node0x600000700cc0</title>
<polygon fill="none" stroke="black" points="1617,-9 1617,-77 1705,-77 1705,-9 1617,-9"/>
<text text-anchor="middle" x="1661" y="-66.6" font-family="Times,serif" font-size="8.00">word: banquet</text>
<polyline fill="none" stroke="black" points="1617,-60 1705,-60 "/>
<text text-anchor="middle" x="1661" y="-49.6" font-family="Times,serif" font-size="8.00">size: 1</text>
<polyline fill="none" stroke="black" points="1617,-43 1705,-43 "/>
<text text-anchor="middle" x="1661" y="-32.6" font-family="Times,serif" font-size="8.00">next: 0x600000703e10</text>
<polyline fill="none" stroke="black" points="1617,-26 1705,-26 "/>
<text text-anchor="middle" x="1661" y="-15.6" font-family="Times,serif" font-size="8.00">prev: 0x60000071ee20</text>
</g>
<!-- Node0x60000071ee20&#45;&gt;Node0x600000700cc0 -->
<g id="edge13" class="edge">
<title>Node0x60000071ee20:n&#45;&gt;Node0x600000700cc0:n</title>
<path fill="none" stroke="red" d="M1581,-34C1593,-34 1598.25,-34 1606.88,-34"/>
<polygon fill="red" stroke="red" points="1607,-37.5 1617,-34 1607,-30.5 1607,-37.5"/>
</g>
<!-- Node0x600000703e10 -->
<g id="node15" class="node">
<title>Node0x600000703e10</title>
<polygon fill="none" stroke="black" points="1741,-9 1741,-77 1829,-77 1829,-9 1741,-9"/>
<text text-anchor="middle" x="1785" y="-66.6" font-family="Times,serif" font-size="8.00">word: circled</text>
<polyline fill="none" stroke="black" points="1741,-60 1829,-60 "/>
<text text-anchor="middle" x="1785" y="-49.6" font-family="Times,serif" font-size="8.00">size: 1</text>
<polyline fill="none" stroke="black" points="1741,-43 1829,-43 "/>
<text text-anchor="middle" x="1785" y="-32.6" font-family="Times,serif" font-size="8.00">next: 0x600000703ed0</text>
<polyline fill="none" stroke="black" points="1741,-26 1829,-26 "/>
<text text-anchor="middle" x="1785" y="-15.6" font-family="Times,serif" font-size="8.00">prev: 0x600000700cc0</text>
</g>
<!-- Node0x600000700cc0&#45;&gt;Node0x600000703e10 -->
<g id="edge14" class="edge">
<title>Node0x600000700cc0:n&#45;&gt;Node0x600000703e10:n</title>
<path fill="none" stroke="red" d="M1705,-34C1717,-34 1722.25,-34 1730.88,-34"/>
<polygon fill="red" stroke="red" points="1731,-37.5 1741,-34 1731,-30.5 1731,-37.5"/>
</g>
<!-- Node0x600000703ed0 -->
<g id="node16" class="node">
<title>Node0x600000703ed0</title>
<polygon fill="none" stroke="black" points="1865,-9 1865,-77 1953,-77 1953,-9 1865,-9"/>
<text text-anchor="middle" x="1909" y="-66.6" font-family="Times,serif" font-size="8.00">word: variable</text>
<polyline fill="none" stroke="black" points="1865,-60 1953,-60 "/>
<text text-anchor="middle" x="1909" y="-49.6" font-family="Times,serif" font-size="8.00">size: 1</text>
<polyline fill="none" stroke="black" points="1865,-43 1953,-43 "/>
<text text-anchor="middle" x="1909" y="-32.6" font-family="Times,serif" font-size="8.00">next: 0x600000731110</text>
<polyline fill="none" stroke="black" points="1865,-26 1953,-26 "/>
<text text-anchor="middle" x="1909" y="-15.6" font-family="Times,serif" font-size="8.00">prev: 0x600000703e10</text>
</g>
<!-- Node0x600000703e10&#45;&gt;Node0x600000703ed0 -->
<g id="edge15" class="edge">
<title>Node0x600000703e10:n&#45;&gt;Node0x600000703ed0:n</title>
<path fill="none" stroke="red" d="M1829,-34C1841,-34 1846.25,-34 1854.88,-34"/>
<polygon fill="red" stroke="red" points="1855,-37.5 1865,-34 1855,-30.5 1855,-37.5"/>
</g>
<!-- Node0x600000731110 -->
<g id="node17" class="node">
<title>Node0x600000731110</title>
<polygon fill="none" stroke="black" points="1989,-9 1989,-77 2077,-77 2077,-9 1989,-9"/>
<text text-anchor="middle" x="2033" y="-66.6" font-family="Times,serif" font-size="8.00">word: basket</text>
<polyline fill="none" stroke="black" points="1989,-60 2077,-60 "/>
<text text-anchor="middle" x="2033" y="-49.6" font-family="Times,serif" font-size="8.00">size: 1</text>
<polyline fill="none" stroke="black" points="1989,-43 2077,-43 "/>
<text text-anchor="middle" x="2033" y="-32.6" font-family="Times,serif" font-size="8.00">next: 0x600000731b30</text>
<polyline fill="none" stroke="black" points="1989,-26 2077,-26 "/>
<text text-anchor="middle" x="2033" y="-15.6" font-family="Times,serif" font-size="8.00">prev: 0x600000703ed0</text>
</g>
<!-- Node0x600000703ed0&#45;&gt;Node0x600000731110 -->
<g id="edge16" class="edge">
<title>Node0x600000703ed0:n&#45;&gt;Node0x600000731110:n</title>
<path fill="none" stroke="red" d="M1953,-34C1965,-34 1970.25,-34 1978.88,-34"/>
<polygon fill="red" stroke="red" points="1979,-37.5 1989,-34 1979,-30.5 1979,-37.5"/>
</g>
<!-- Node0x600000731b30 -->
<g id="node18" class="node">
<title>Node0x600000731b30</title>
<polygon fill="none" stroke="black" points="2113,-9 2113,-77 2201,-77 2201,-9 2113,-9"/>
<text text-anchor="middle" x="2157" y="-66.6" font-family="Times,serif" font-size="8.00">word: misapplied</text>
<polyline fill="none" stroke="black" points="2113,-60 2201,-60 "/>
<text text-anchor="middle" x="2157" y="-49.6" font-family="Times,serif" font-size="8.00">size: 1</text>
<polyline fill="none" stroke="black" points="2113,-43 2201,-43 "/>
<text text-anchor="middle" x="2157" y="-32.6" font-family="Times,serif" font-size="8.00">next: 0x600000735d40</text>
<polyline fill="none" stroke="black" points="2113,-26 2201,-26 "/>
<text text-anchor="middle" x="2157" y="-15.6" font-family="Times,serif" font-size="8.00">prev: 0x600000731110</text>
</g>
<!-- Node0x600000731110&#45;&gt;Node0x600000731b30 -->
<g id="edge17" class="edge">
<title>Node0x600000731110:n&#45;&gt;Node0x600000731b30:n</title>
<path fill="none" stroke="red" d="M2077,-34C2089,-34 2094.25,-34 2102.88,-34"/>
<polygon fill="red" stroke="red" points="2103,-37.5 2113,-34 2103,-30.5 2103,-37.5"/>
</g>
<!-- Node0x600000735d40 -->
<g id="node19" class="node">
<title>Node0x600000735d40</title>
<polygon fill="none" stroke="black" points="2237,-9 2237,-77 2325,-77 2325,-9 2237,-9"/>
<text text-anchor="middle" x="2281" y="-66.6" font-family="Times,serif" font-size="8.00">word: sententious</text>
<polyline fill="none" stroke="black" points="2237,-60 2325,-60 "/>
<text text-anchor="middle" x="2281" y="-49.6" font-family="Times,serif" font-size="8.00">size: 1</text>
<polyline fill="none" stroke="black" points="2237,-43 2325,-43 "/>
<text text-anchor="middle" x="2281" y="-32.6" font-family="Times,serif" font-size="8.00">next: 0x600000736fa0</text>
<polyline fill="none" stroke="black" points="2237,-26 2325,-26 "/>
<text text-anchor="middle" x="2281" y="-15.6" font-family="Times,serif" font-size="8.00">prev: 0x600000731b30</text>
</g>
<!-- Node0x600000731b30&#45;&gt;Node0x600000735d40 -->
<g id="edge18" class="edge">
<title>Node0x600000731b30:n&#45;&gt;Node0x600000735d40:n</title>
<path fill="none" stroke="red" d="M2201,-34C2213,-34 2218.25,-34 2226.88,-34"/>
<polygon fill="red" stroke="red" points="2227,-37.5 2237,-34 2227,-30.5 2227,-37.5"/>
</g>
<!-- Node0x600000736fa0 -->
<g id="node20" class="node">
<title>Node0x600000736fa0</title>
<polygon fill="none" stroke="black" points="2361,-9 2361,-77 2449,-77 2449,-9 2361,-9"/>
<text text-anchor="middle" x="2405" y="-66.6" font-family="Times,serif" font-size="8.00">word: tardy</text>
<polyline fill="none" stroke="black" points="2361,-60 2449,-60 "/>
<text text-anchor="middle" x="2405" y="-49.6" font-family="Times,serif" font-size="8.00">size: 1</text>
<polyline fill="none" stroke="black" points="2361,-43 2449,-43 "/>
<text text-anchor="middle" x="2405" y="-32.6" font-family="Times,serif" font-size="8.00">next: 0x600000737f00</text>
<polyline fill="none" stroke="black" points="2361,-26 2449,-26 "/>
<text text-anchor="middle" x="2405" y="-15.6" font-family="Times,serif" font-size="8.00">prev: 0x600000735d40</text>
</g>
<!-- Node0x600000735d40&#45;&gt;Node0x600000736fa0 -->
<g id="edge19" class="edge">
<title>Node0x600000735d40:n&#45;&gt;Node0x600000736fa0:n</title>
<path fill="none" stroke="red" d="M2325,-34C2337,-34 2342.25,-34 2350.88,-34"/>
<polygon fill="red" stroke="red" points="2351,-37.5 2361,-34 2351,-30.5 2351,-37.5"/>
</g>
<!-- Node0x600000737f00 -->
<g id="node21" class="node">
<title>Node0x600000737f00</title>
<polygon fill="none" stroke="black" points="2485,-9 2485,-77 2572,-77 2572,-9 2485,-9"/>
<text text-anchor="middle" x="2528.5" y="-66.6" font-family="Times,serif" font-size="8.00">word: coldly</text>
<polyline fill="none" stroke="black" points="2485,-60 2572,-60 "/>
<text text-anchor="middle" x="2528.5" y="-49.6" font-family="Times,serif" font-size="8.00">size: 1</text>
<polyline fill="none" stroke="black" points="2485,-43 2572,-43 "/>
<text text-anchor="middle" x="2528.5" y="-32.6" font-family="Times,serif" font-size="8.00">next: 0x600000738cf0</text>
<polyline fill="none" stroke="black" points="2485,-26 2572,-26 "/>
<text text-anchor="middle" x="2528.5" y="-15.6" font-family="Times,serif" font-size="8.00">prev: 0x600000736fa0</text>
</g>
<!-- Node0x600000736fa0&#45;&gt;Node0x600000737f00 -->
<g id="edge20" class="edge">
<title>Node0x600000736fa0:n&#45;&gt;Node0x600000737f00:n</title>
<path fill="none" stroke="red" d="M2449,-34C2461,-34 2466.25,-34 2474.88,-34"/>
<polygon fill="red" stroke="red" points="2475,-37.5 2485,-34 2475,-30.5 2475,-37.5"/>
</g>
<!-- Node0x600000738cf0 -->
<g id="node22" class="node">
<title>Node0x600000738cf0</title>
<polygon fill="none" stroke="black" points="2608,-9 2608,-77 2695,-77 2695,-9 2608,-9"/>
<text text-anchor="middle" x="2651.5" y="-66.6" font-family="Times,serif" font-size="8.00">word: Staying</text>
<polyline fill="none" stroke="black" points="2608,-60 2695,-60 "/>
<text text-anchor="middle" x="2651.5" y="-49.6" font-family="Times,serif" font-size="8.00">size: 1</text>
<polyline fill="none" stroke="black" points="2608,-43 2695,-43 "/>
<text text-anchor="middle" x="2651.5" y="-32.6" font-family="Times,serif" font-size="8.00">next: 0x600000739a40</text>
<polyline fill="none" stroke="black" points="2608,-26 2695,-26 "/>
<text text-anchor="middle" x="2651.5" y="-15.6" font-family="Times,serif" font-size="8.00">prev: 0x600000737f00</text>
</g>
<!-- Node0x600000737f00&#45;&gt;Node0x600000738cf0 -->
<g id="edge21" class="edge">
<title>Node0x600000737f00:n&#45;&gt;Node0x600000738cf0:n</title>
<path fill="none" stroke="red" d="M2572,-34C2584,-34 2589.25,-34 2597.88,-34"/>
<polygon fill="red" stroke="red" points="2598,-37.5 2608,-34 2598,-30.5 2598,-37.5"/>
</g>
<!-- Node0x600000739a40 -->
<g id="node23" class="node">
<title>Node0x600000739a40</title>
<polygon fill="none" stroke="black" points="2731,-9 2731,-77 2818,-77 2818,-9 2731,-9"/>
<text text-anchor="middle" x="2774.5" y="-66.6" font-family="Times,serif" font-size="8.00">word: Bear</text>
<polyline fill="none" stroke="black" points="2731,-60 2818,-60 "/>
<text text-anchor="middle" x="2774.5" y="-49.6" font-family="Times,serif" font-size="8.00">size: 1</text>
<polyline fill="none" stroke="black" points="2731,-43 2818,-43 "/>
<text text-anchor="middle" x="2774.5" y="-32.6" font-family="Times,serif" font-size="8.00">next: 0x60000073c390</text>
<polyline fill="none" stroke="black" points="2731,-26 2818,-26 "/>
<text text-anchor="middle" x="2774.5" y="-15.6" font-family="Times,serif" font-size="8.00">prev: 0x600000738cf0</text>
</g>
<!-- Node0x600000738cf0&#45;&gt;Node0x600000739a40 -->
<g id="edge22" class="edge">
<title>Node0x600000738cf0:n&#45;&gt;Node0x600000739a40:n</title>
<path fill="none" stroke="red" d="M2695,-34C2707,-34 2712.25,-34 2720.88,-34"/>
<polygon fill="red" stroke="red" points="2721,-37.5 2731,-34 2721,-30.5 2721,-37.5"/>
</g>
<!-- Node0x60000073c390 -->
<g id="node24" class="node">
<title>Node0x60000073c390</title>
<polygon fill="none" stroke="black" points="2854,-9 2854,-77 2942,-77 2942,-9 2854,-9"/>
<text text-anchor="middle" x="2898" y="-66.6" font-family="Times,serif" font-size="8.00">word: prevails</text>
<polyline fill="none" stroke="black" points="2854,-60 2942,-60 "/>
<text text-anchor="middle" x="2898" y="-49.6" font-family="Times,serif" font-size="8.00">size: 1</text>
<polyline fill="none" stroke="black" points="2854,-43 2942,-43 "/>
<text text-anchor="middle" x="2898" y="-32.6" font-family="Times,serif" font-size="8.00">next: 0x60000073d050</text>
<polyline fill="none" stroke="black" points="2854,-26 2942,-26 "/>
<text text-anchor="middle" x="2898" y="-15.6" font-family="Times,serif" font-size="8.00">prev: 0x600000739a40</text>
</g>
<!-- Node0x600000739a40&#45;&gt;Node0x60000073c390 -->
<g id="edge23" class="edge">
<title>Node0x600000739a40:n&#45;&gt;Node0x60000073c390:n</title>
<path fill="none" stroke="red" d="M2818,-34C2830,-34 2835.25,-34 2843.88,-34"/>
<polygon fill="red" stroke="red" points="2844,-37.5 2854,-34 2844,-30.5 2844,-37.5"/>
</g>
<!-- Node0x60000073d050 -->
<g id="node25" class="node">
<title>Node0x60000073d050</title>
<polygon fill="none" stroke="black" points="2978,-9 2978,-77 3066,-77 3066,-9 2978,-9"/>
<text text-anchor="middle" x="3022" y="-66.6" font-family="Times,serif" font-size="8.00">word: dismemb</text>
<polyline fill="none" stroke="black" points="2978,-60 3066,-60 "/>
<text text-anchor="middle" x="3022" y="-49.6" font-family="Times,serif" font-size="8.00">size: 1</text>
<polyline fill="none" stroke="black" points="2978,-43 3066,-43 "/>
<text text-anchor="middle" x="3022" y="-32.6" font-family="Times,serif" font-size="8.00">next: 0x60000073f5a0</text>
<polyline fill="none" stroke="black" points="2978,-26 3066,-26 "/>
<text text-anchor="middle" x="3022" y="-15.6" font-family="Times,serif" font-size="8.00">prev: 0x60000073c390</text>
</g>
<!-- Node0x60000073c390&#45;&gt;Node0x60000073d050 -->
<g id="edge24" class="edge">
<title>Node0x60000073c390:n&#45;&gt;Node0x60000073d050:n</title>
<path fill="none" stroke="red" d="M2942,-34C2954,-34 2959.25,-34 2967.88,-34"/>
<polygon fill="red" stroke="red" points="2968,-37.5 2978,-34 2968,-30.5 2968,-37.5"/>
</g>
<!-- Node0x60000073f5a0 -->
<g id="node26" class="node">
<title>Node0x60000073f5a0</title>
<polygon fill="none" stroke="black" points="3102,-9 3102,-77 3190,-77 3190,-9 3102,-9"/>
<text text-anchor="middle" x="3146" y="-66.6" font-family="Times,serif" font-size="8.00">word: gossips</text>
<polyline fill="none" stroke="black" points="3102,-60 3190,-60 "/>
<text text-anchor="middle" x="3146" y="-49.6" font-family="Times,serif" font-size="8.00">size: 1</text>
<polyline fill="none" stroke="black" points="3102,-43 3190,-43 "/>
<text text-anchor="middle" x="3146" y="-32.6" font-family="Times,serif" font-size="8.00">next: 0x6000007208a0</text>
<polyline fill="none" stroke="black" points="3102,-26 3190,-26 "/>
<text text-anchor="middle" x="3146" y="-15.6" font-family="Times,serif" font-size="8.00">prev: 0x60000073d050</text>
</g>
<!-- Node0x60000073d050&#45;&gt;Node0x60000073f5a0 -->
<g id="edge25" class="edge">
<title>Node0x60000073d050:n&#45;&gt;Node0x60000073f5a0:n</title>
<path fill="none" stroke="red" d="M3066,-34C3078,-34 3083.25,-34 3091.88,-34"/>
<polygon fill="red" stroke="red" points="3092,-37.5 3102,-34 3092,-30.5 3092,-37.5"/>
</g>
<!-- Node0x6000007208a0 -->
<g id="node27" class="node">
<title>Node0x6000007208a0</title>
<polygon fill="none" stroke="black" points="3226,-9 3226,-77 3313,-77 3313,-9 3226,-9"/>
<text text-anchor="middle" x="3269.5" y="-66.6" font-family="Times,serif" font-size="8.00">word: execution</text>
<polyline fill="none" stroke="black" points="3226,-60 3313,-60 "/>
<text text-anchor="middle" x="3269.5" y="-49.6" font-family="Times,serif" font-size="8.00">size: 1</text>
<polyline fill="none" stroke="black" points="3226,-43 3313,-43 "/>
<text text-anchor="middle" x="3269.5" y="-32.6" font-family="Times,serif" font-size="8.00">next: 0x600000721260</text>
<polyline fill="none" stroke="black" points="3226,-26 3313,-26 "/>
<text text-anchor="middle" x="3269.5" y="-15.6" font-family="Times,serif" font-size="8.00">prev: 0x60000073f5a0</text>
</g>
<!-- Node0x60000073f5a0&#45;&gt;Node0x6000007208a0 -->
<g id="edge26" class="edge">
<title>Node0x60000073f5a0:n&#45;&gt;Node0x6000007208a0:n</title>
<path fill="none" stroke="red" d="M3190,-34C3202,-34 3207.25,-34 3215.88,-34"/>
<polygon fill="red" stroke="red" points="3216,-37.5 3226,-34 3216,-30.5 3216,-37.5"/>
</g>
<!-- Node0x600000721260 -->
<g id="node28" class="node">
<title>Node0x600000721260</title>
<polygon fill="none" stroke="black" points="3349,-9 3349,-77 3437,-77 3437,-9 3349,-9"/>
<text text-anchor="middle" x="3393" y="-66.6" font-family="Times,serif" font-size="8.00">word: Servingman</text>
<polyline fill="none" stroke="black" points="3349,-60 3437,-60 "/>
<text text-anchor="middle" x="3393" y="-49.6" font-family="Times,serif" font-size="8.00">size: 4</text>
<polyline fill="none" stroke="black" points="3349,-43 3437,-43 "/>
<text text-anchor="middle" x="3393" y="-32.6" font-family="Times,serif" font-size="8.00">next: 0x6000007218c0</text>
<polyline fill="none" stroke="black" points="3349,-26 3437,-26 "/>
<text text-anchor="middle" x="3393" y="-15.6" font-family="Times,serif" font-size="8.00">prev: 0x6000007208a0</text>
</g>
<!-- Node0x6000007208a0&#45;&gt;Node0x600000721260 -->
<g id="edge27" class="edge">
<title>Node0x6000007208a0:n&#45;&gt;Node0x600000721260:n</title>
<path fill="none" stroke="red" d="M3313,-34C3325,-34 3330.25,-34 3338.88,-34"/>
<polygon fill="red" stroke="red" points="3339,-37.5 3349,-34 3339,-30.5 3339,-37.5"/>
</g>
<!-- Node0x6000007218c0 -->
<g id="node29" class="node">
<title>Node0x6000007218c0</title>
<polygon fill="none" stroke="black" points="3473,-9 3473,-77 3561,-77 3561,-9 3473,-9"/>
<text text-anchor="middle" x="3517" y="-66.6" font-family="Times,serif" font-size="8.00">word: horrible</text>
<polyline fill="none" stroke="black" points="3473,-60 3561,-60 "/>
<text text-anchor="middle" x="3517" y="-49.6" font-family="Times,serif" font-size="8.00">size: 1</text>
<polyline fill="none" stroke="black" points="3473,-43 3561,-43 "/>
<text text-anchor="middle" x="3517" y="-32.6" font-family="Times,serif" font-size="8.00">next: 0x600000721e60</text>
<polyline fill="none" stroke="black" points="3473,-26 3561,-26 "/>
<text text-anchor="middle" x="3517" y="-15.6" font-family="Times,serif" font-size="8.00">prev: 0x600000721260</text>
</g>
<!-- Node0x600000721260&#45;&gt;Node0x6000007218c0 -->
<g id="edge28" class="edge">
<title>Node0x600000721260:n&#45;&gt;Node0x6000007218c0:n</title>
<path fill="none" stroke="red" d="M3437,-34C3449,-34 3454.25,-34 3462.88,-34"/>
<polygon fill="red" stroke="red" points="3463,-37.5 3473,-34 3463,-30.5 3463,-37.5"/>
</g>
<!-- Node0x600000721e60 -->
<g id="node30" class="node">
<title>Node0x600000721e60</title>
<polygon fill="none" stroke="black" points="3597,-9 3597,-77 3685,-77 3685,-9 3597,-9"/>
<text text-anchor="middle" x="3641" y="-66.6" font-family="Times,serif" font-size="8.00">word: pastry</text>
<polyline fill="none" stroke="black" points="3597,-60 3685,-60 "/>
<text text-anchor="middle" x="3641" y="-49.6" font-family="Times,serif" font-size="8.00">size: 1</text>
<polyline fill="none" stroke="black" points="3597,-43 3685,-43 "/>
<text text-anchor="middle" x="3641" y="-32.6" font-family="Times,serif" font-size="8.00">next: 0x6000007241b0</text>
<polyline fill="none" stroke="black" points="3597,-26 3685,-26 "/>
<text text-anchor="middle" x="3641" y="-15.6" font-family="Times,serif" font-size="8.00">prev: 0x6000007218c0</text>
</g>
<!-- Node0x6000007218c0&#45;&gt;Node0x600000721e60 -->
<g id="edge29" class="edge">
<title>Node0x6000007218c0:n&#45;&gt;Node0x600000721e60:n</title>
<path fill="none" stroke="red" d="M3561,-34C3573,-34 3578.25,-34 3586.88,-34"/>
<polygon fill="red" stroke="red" points="3587,-37.5 3597,-34 3587,-30.5 3587,-37.5"/>
</g>
<!-- Node0x6000007241b0 -->
<g id="node31" class="node">
<title>Node0x6000007241b0</title>
<polygon fill="none" stroke="black" points="3721,-9 3721,-77 3809,-77 3809,-9 3721,-9"/>
<text text-anchor="middle" x="3765" y="-66.6" font-family="Times,serif" font-size="8.00">word: Apoth</text>
<polyline fill="none" stroke="black" points="3721,-60 3809,-60 "/>
<text text-anchor="middle" x="3765" y="-49.6" font-family="Times,serif" font-size="8.00">size: 4</text>
<polyline fill="none" stroke="black" points="3721,-43 3809,-43 "/>
<text text-anchor="middle" x="3765" y="-32.6" font-family="Times,serif" font-size="8.00">next: 0x600000724db0</text>
<polyline fill="none" stroke="black" points="3721,-26 3809,-26 "/>
<text text-anchor="middle" x="3765" y="-15.6" font-family="Times,serif" font-size="8.00">prev: 0x600000721e60</text>
</g>
<!-- Node0x600000721e60&#45;&gt;Node0x6000007241b0 -->
<g id="edge30" class="edge">
<title>Node0x600000721e60:n&#45;&gt;Node0x6000007241b0:n</title>
<path fill="none" stroke="red" d="M3685,-34C3697,-34 3702.25,-34 3710.88,-34"/>
<polygon fill="red" stroke="red" points="3711,-37.5 3721,-34 3711,-30.5 3711,-37.5"/>
</g>
<!-- Node0x600000724db0 -->
<g id="node32" class="node">
<title>Node0x600000724db0</title>
<polygon fill="none" stroke="black" points="3845,-9 3845,-77 3933,-77 3933,-9 3845,-9"/>
<text text-anchor="middle" x="3889" y="-66.6" font-family="Times,serif" font-size="8.00">word: Retires</text>
<polyline fill="none" stroke="black" points="3845,-60 3933,-60 "/>
<text text-anchor="middle" x="3889" y="-49.6" font-family="Times,serif" font-size="8.00">size: 2</text>
<polyline fill="none" stroke="black" points="3845,-43 3933,-43 "/>
<text text-anchor="middle" x="3889" y="-32.6" font-family="Times,serif" font-size="8.00">next: 0x600000724f90</text>
<polyline fill="none" stroke="black" points="3845,-26 3933,-26 "/>
<text text-anchor="middle" x="3889" y="-15.6" font-family="Times,serif" font-size="8.00">prev: 0x6000007241b0</text>
</g>
<!-- Node0x6000007241b0&#45;&gt;Node0x600000724db0 -->
<g id="edge31" class="edge">
<title>Node0x6000007241b0:n&#45;&gt;Node0x600000724db0:n</title>
<path fill="none" stroke="red" d="M3809,-34C3821,-34 3826.25,-34 3834.88,-34"/>
<polygon fill="red" stroke="red" points="3835,-37.5 3845,-34 3835,-30.5 3835,-37.5"/>
</g>
<!-- Node0x600000724f90 -->
<g id="node33" class="node">
<title>Node0x600000724f90</title>
<polygon fill="none" stroke="black" points="3969,-9 3969,-77 4057,-77 4057,-9 3969,-9"/>
<text text-anchor="middle" x="4013" y="-66.6" font-family="Times,serif" font-size="8.00">word: wanders</text>
<polyline fill="none" stroke="black" points="3969,-60 4057,-60 "/>
<text text-anchor="middle" x="4013" y="-49.6" font-family="Times,serif" font-size="8.00">size: 1</text>
<polyline fill="none" stroke="black" points="3969,-43 4057,-43 "/>
<text text-anchor="middle" x="4013" y="-32.6" font-family="Times,serif" font-size="8.00">next: 0x6000007251d0</text>
<polyline fill="none" stroke="black" points="3969,-26 4057,-26 "/>
<text text-anchor="middle" x="4013" y="-15.6" font-family="Times,serif" font-size="8.00">prev: 0x600000724db0</text>
</g>
<!-- Node0x600000724db0&#45;&gt;Node0x600000724f90 -->
<g id="edge32" class="edge">
<title>Node0x600000724db0:n&#45;&gt;Node0x600000724f90:n</title>
<path fill="none" stroke="red" d="M3933,-34C3945,-34 3950.25,-34 3958.88,-34"/>
<polygon fill="red" stroke="red" points="3959,-37.5 3969,-34 3959,-30.5 3959,-37.5"/>
</g>
<!-- Node0x6000007251d0 -->
<g id="node34" class="node">
<title>Node0x6000007251d0</title>
<polygon fill="none" stroke="black" points="4093,-9 4093,-77 4180,-77 4180,-9 4093,-9"/>
<text text-anchor="middle" x="4136.5" y="-66.6" font-family="Times,serif" font-size="8.00">word: employment</text>
<polyline fill="none" stroke="black" points="4093,-60 4180,-60 "/>
<text text-anchor="middle" x="4136.5" y="-49.6" font-family="Times,serif" font-size="8.00">size: 1</text>
<polyline fill="none" stroke="black" points="4093,-43 4180,-43 "/>
<text text-anchor="middle" x="4136.5" y="-32.6" font-family="Times,serif" font-size="8.00">next: 0x0</text>
<polyline fill="none" stroke="black" points="4093,-26 4180,-26 "/>
<text text-anchor="middle" x="4136.5" y="-15.6" font-family="Times,serif" font-size="8.00">prev: 0x600000724f90</text>
</g>
<!-- Node0x600000724f90&#45;&gt;Node0x6000007251d0 -->
<g id="edge33" class="edge">
<title>Node0x600000724f90:n&#45;&gt;Node0x6000007251d0:n</title>
<path fill="none" stroke="red" d="M4057,-34C4069,-34 4074.25,-34 4082.88,-34"/>
<polygon fill="red" stroke="red" points="4083,-37.5 4093,-34 4083,-30.5 4083,-37.5"/>
</g>
</g>
</svg>
