<?xml version="1.0" encoding="UTF-8" standalone="no"?>
<!DOCTYPE svg PUBLIC "-//W3C//DTD SVG 1.1//EN"
 "http://www.w3.org/Graphics/SVG/1.1/DTD/svg11.dtd">
<!-- Generated by graphviz version 2.50.0 (20211204.2007)
 -->
<!-- Title: G Pages: 1 -->
<svg width="4200pt" height="117pt"
 viewBox="0.00 0.00 4200.00 117.00" xmlns="http://www.w3.org/2000/svg" xmlns:xlink="http://www.w3.org/1999/xlink">
<g id="graph0" class="graph" transform="scale(1 1) rotate(0) translate(4 113)">
<title>G</title>
<polygon fill="white" stroke="transparent" points="-4,4 -4,-113 4196,-113 4196,4 -4,4"/>
<g id="clust1" class="cluster">
<title>cluster442</title>
<polygon fill="none" stroke="black" points="8,-8 8,-101 95,-101 95,-8 8,-8"/>
<text text-anchor="middle" x="51.5" y="-85.8" font-family="Times,serif" font-size="14.00">442</text>
</g>
<g id="clust2" class="cluster">
<title>cluster443</title>
<polygon fill="none" stroke="black" points="131,-8 131,-101 219,-101 219,-8 131,-8"/>
<text text-anchor="middle" x="175" y="-85.8" font-family="Times,serif" font-size="14.00">443</text>
</g>
<g id="clust3" class="cluster">
<title>cluster444</title>
<polygon fill="none" stroke="black" points="255,-8 255,-101 343,-101 343,-8 255,-8"/>
<text text-anchor="middle" x="299" y="-85.8" font-family="Times,serif" font-size="14.00">444</text>
</g>
<g id="clust4" class="cluster">
<title>cluster445</title>
<polygon fill="none" stroke="black" points="379,-8 379,-101 467,-101 467,-8 379,-8"/>
<text text-anchor="middle" x="423" y="-85.8" font-family="Times,serif" font-size="14.00">445</text>
</g>
<g id="clust5" class="cluster">
<title>cluster446</title>
<polygon fill="none" stroke="black" points="503,-8 503,-101 591,-101 591,-8 503,-8"/>
<text text-anchor="middle" x="547" y="-85.8" font-family="Times,serif" font-size="14.00">446</text>
</g>
<g id="clust6" class="cluster">
<title>cluster447</title>
<polygon fill="none" stroke="black" points="627,-8 627,-101 715,-101 715,-8 627,-8"/>
<text text-anchor="middle" x="671" y="-85.8" font-family="Times,serif" font-size="14.00">447</text>
</g>
<g id="clust7" class="cluster">
<title>cluster448</title>
<polygon fill="none" stroke="black" points="751,-8 751,-101 839,-101 839,-8 751,-8"/>
<text text-anchor="middle" x="795" y="-85.8" font-family="Times,serif" font-size="14.00">448</text>
</g>
<g id="clust8" class="cluster">
<title>cluster449</title>
<polygon fill="none" stroke="black" points="875,-8 875,-101 963,-101 963,-8 875,-8"/>
<text text-anchor="middle" x="919" y="-85.8" font-family="Times,serif" font-size="14.00">449</text>
</g>
<g id="clust9" class="cluster">
<title>cluster450</title>
<polygon fill="none" stroke="black" points="999,-8 999,-101 1087,-101 1087,-8 999,-8"/>
<text text-anchor="middle" x="1043" y="-85.8" font-family="Times,serif" font-size="14.00">450</text>
</g>
<g id="clust10" class="cluster">
<title>cluster451</title>
<polygon fill="none" stroke="black" points="1123,-8 1123,-101 1211,-101 1211,-8 1123,-8"/>
<text text-anchor="middle" x="1167" y="-85.8" font-family="Times,serif" font-size="14.00">451</text>
</g>
<g id="clust11" class="cluster">
<title>cluster452</title>
<polygon fill="none" stroke="black" points="1247,-8 1247,-101 1335,-101 1335,-8 1247,-8"/>
<text text-anchor="middle" x="1291" y="-85.8" font-family="Times,serif" font-size="14.00">452</text>
</g>
<g id="clust12" class="cluster">
<title>cluster453</title>
<polygon fill="none" stroke="black" points="1371,-8 1371,-101 1459,-101 1459,-8 1371,-8"/>
<text text-anchor="middle" x="1415" y="-85.8" font-family="Times,serif" font-size="14.00">453</text>
</g>
<g id="clust13" class="cluster">
<title>cluster454</title>
<polygon fill="none" stroke="black" points="1495,-8 1495,-101 1582,-101 1582,-8 1495,-8"/>
<text text-anchor="middle" x="1538.5" y="-85.8" font-family="Times,serif" font-size="14.00">454</text>
</g>
<g id="clust14" class="cluster">
<title>cluster455</title>
<polygon fill="none" stroke="black" points="1618,-8 1618,-101 1706,-101 1706,-8 1618,-8"/>
<text text-anchor="middle" x="1662" y="-85.8" font-family="Times,serif" font-size="14.00">455</text>
</g>
<g id="clust15" class="cluster">
<title>cluster456</title>
<polygon fill="none" stroke="black" points="1742,-8 1742,-101 1830,-101 1830,-8 1742,-8"/>
<text text-anchor="middle" x="1786" y="-85.8" font-family="Times,serif" font-size="14.00">456</text>
</g>
<g id="clust16" class="cluster">
<title>cluster457</title>
<polygon fill="none" stroke="black" points="1866,-8 1866,-101 1954,-101 1954,-8 1866,-8"/>
<text text-anchor="middle" x="1910" y="-85.8" font-family="Times,serif" font-size="14.00">457</text>
</g>
<g id="clust17" class="cluster">
<title>cluster458</title>
<polygon fill="none" stroke="black" points="1990,-8 1990,-101 2078,-101 2078,-8 1990,-8"/>
<text text-anchor="middle" x="2034" y="-85.8" font-family="Times,serif" font-size="14.00">458</text>
</g>
<g id="clust18" class="cluster">
<title>cluster459</title>
<polygon fill="none" stroke="black" points="2114,-8 2114,-101 2202,-101 2202,-8 2114,-8"/>
<text text-anchor="middle" x="2158" y="-85.8" font-family="Times,serif" font-size="14.00">459</text>
</g>
<g id="clust19" class="cluster">
<title>cluster460</title>
<polygon fill="none" stroke="black" points="2238,-8 2238,-101 2325,-101 2325,-8 2238,-8"/>
<text text-anchor="middle" x="2281.5" y="-85.8" font-family="Times,serif" font-size="14.00">460</text>
</g>
<g id="clust20" class="cluster">
<title>cluster461</title>
<polygon fill="none" stroke="black" points="2361,-8 2361,-101 2449,-101 2449,-8 2361,-8"/>
<text text-anchor="middle" x="2405" y="-85.8" font-family="Times,serif" font-size="14.00">461</text>
</g>
<g id="clust21" class="cluster">
<title>cluster462</title>
<polygon fill="none" stroke="black" points="2485,-8 2485,-101 2573,-101 2573,-8 2485,-8"/>
<text text-anchor="middle" x="2529" y="-85.8" font-family="Times,serif" font-size="14.00">462</text>
</g>
<g id="clust22" class="cluster">
<title>cluster463</title>
<polygon fill="none" stroke="black" points="2609,-8 2609,-101 2697,-101 2697,-8 2609,-8"/>
<text text-anchor="middle" x="2653" y="-85.8" font-family="Times,serif" font-size="14.00">463</text>
</g>
<g id="clust23" class="cluster">
<title>cluster464</title>
<polygon fill="none" stroke="black" points="2733,-8 2733,-101 2821,-101 2821,-8 2733,-8"/>
<text text-anchor="middle" x="2777" y="-85.8" font-family="Times,serif" font-size="14.00">464</text>
</g>
<g id="clust24" class="cluster">
<title>cluster465</title>
<polygon fill="none" stroke="black" points="2857,-8 2857,-101 2945,-101 2945,-8 2857,-8"/>
<text text-anchor="middle" x="2901" y="-85.8" font-family="Times,serif" font-size="14.00">465</text>
</g>
<g id="clust25" class="cluster">
<title>cluster466</title>
<polygon fill="none" stroke="black" points="2981,-8 2981,-101 3069,-101 3069,-8 2981,-8"/>
<text text-anchor="middle" x="3025" y="-85.8" font-family="Times,serif" font-size="14.00">466</text>
</g>
<g id="clust26" class="cluster">
<title>cluster467</title>
<polygon fill="none" stroke="black" points="3105,-8 3105,-101 3192,-101 3192,-8 3105,-8"/>
<text text-anchor="middle" x="3148.5" y="-85.8" font-family="Times,serif" font-size="14.00">467</text>
</g>
<g id="clust27" class="cluster">
<title>cluster468</title>
<polygon fill="none" stroke="black" points="3228,-8 3228,-101 3316,-101 3316,-8 3228,-8"/>
<text text-anchor="middle" x="3272" y="-85.8" font-family="Times,serif" font-size="14.00">468</text>
</g>
<g id="clust28" class="cluster">
<title>cluster469</title>
<polygon fill="none" stroke="black" points="3352,-8 3352,-101 3440,-101 3440,-8 3352,-8"/>
<text text-anchor="middle" x="3396" y="-85.8" font-family="Times,serif" font-size="14.00">469</text>
</g>
<g id="clust29" class="cluster">
<title>cluster470</title>
<polygon fill="none" stroke="black" points="3476,-8 3476,-101 3564,-101 3564,-8 3476,-8"/>
<text text-anchor="middle" x="3520" y="-85.8" font-family="Times,serif" font-size="14.00">470</text>
</g>
<g id="clust30" class="cluster">
<title>cluster471</title>
<polygon fill="none" stroke="black" points="3600,-8 3600,-101 3688,-101 3688,-8 3600,-8"/>
<text text-anchor="middle" x="3644" y="-85.8" font-family="Times,serif" font-size="14.00">471</text>
</g>
<g id="clust31" class="cluster">
<title>cluster472</title>
<polygon fill="none" stroke="black" points="3724,-8 3724,-101 3812,-101 3812,-8 3724,-8"/>
<text text-anchor="middle" x="3768" y="-85.8" font-family="Times,serif" font-size="14.00">472</text>
</g>
<g id="clust32" class="cluster">
<title>cluster473</title>
<polygon fill="none" stroke="black" points="3848,-8 3848,-101 3936,-101 3936,-8 3848,-8"/>
<text text-anchor="middle" x="3892" y="-85.8" font-family="Times,serif" font-size="14.00">473</text>
</g>
<g id="clust33" class="cluster">
<title>cluster474</title>
<polygon fill="none" stroke="black" points="3972,-8 3972,-101 4060,-101 4060,-8 3972,-8"/>
<text text-anchor="middle" x="4016" y="-85.8" font-family="Times,serif" font-size="14.00">474</text>
</g>
<g id="clust34" class="cluster">
<title>cluster475</title>
<polygon fill="none" stroke="black" points="4096,-8 4096,-101 4184,-101 4184,-8 4096,-8"/>
<text text-anchor="middle" x="4140" y="-85.8" font-family="Times,serif" font-size="14.00">475</text>
</g>
<!-- Node0x6000007107b0 -->
<g id="node1" class="node">
<title>Node0x6000007107b0</title>
<polygon fill="none" stroke="black" points="8,-9 8,-77 95,-77 95,-9 8,-9"/>
<text text-anchor="middle" x="51.5" y="-66.6" font-family="Times,serif" font-size="8.00">word: OLD</text>
<polyline fill="none" stroke="black" points="8,-60 95,-60 "/>
<text text-anchor="middle" x="51.5" y="-49.6" font-family="Times,serif" font-size="8.00">size: 1</text>
<polyline fill="none" stroke="black" points="8,-43 95,-43 "/>
<text text-anchor="middle" x="51.5" y="-32.6" font-family="Times,serif" font-size="8.00">next: 0x6000007108d0</text>
<polyline fill="none" stroke="black" points="8,-26 95,-26 "/>
<text text-anchor="middle" x="51.5" y="-15.6" font-family="Times,serif" font-size="8.00">prev: 0x0</text>
</g>
<!-- Node0x6000007108d0 -->
<g id="node2" class="node">
<title>Node0x6000007108d0</title>
<polygon fill="none" stroke="black" points="131,-9 131,-77 219,-77 219,-9 131,-9"/>
<text text-anchor="middle" x="175" y="-66.6" font-family="Times,serif" font-size="8.00">word: Montague</text>
<polyline fill="none" stroke="black" points="131,-60 219,-60 "/>
<text text-anchor="middle" x="175" y="-49.6" font-family="Times,serif" font-size="8.00">size: 26</text>
<polyline fill="none" stroke="black" points="131,-43 219,-43 "/>
<text text-anchor="middle" x="175" y="-32.6" font-family="Times,serif" font-size="8.00">next: 0x600000710c00</text>
<polyline fill="none" stroke="black" points="131,-26 219,-26 "/>
<text text-anchor="middle" x="175" y="-15.6" font-family="Times,serif" font-size="8.00">prev: 0x6000007107b0</text>
</g>
<!-- Node0x6000007107b0&#45;&gt;Node0x6000007108d0 -->
<g id="edge1" class="edge">
<title>Node0x6000007107b0:n&#45;&gt;Node0x6000007108d0:n</title>
<path fill="none" stroke="red" d="M95,-34C107,-34 112.25,-34 120.88,-34"/>
<polygon fill="red" stroke="red" points="121,-37.5 131,-34 121,-30.5 121,-37.5"/>
</g>
<!-- Node0x600000710c00 -->
<g id="node3" class="node">
<title>Node0x600000710c00</title>
<polygon fill="none" stroke="black" points="255,-9 255,-77 343,-77 343,-9 255,-9"/>
<text text-anchor="middle" x="299" y="-66.6" font-family="Times,serif" font-size="8.00">word: GREGORY</text>
<polyline fill="none" stroke="black" points="255,-60 343,-60 "/>
<text text-anchor="middle" x="299" y="-49.6" font-family="Times,serif" font-size="8.00">size: 3</text>
<polyline fill="none" stroke="black" points="255,-43 343,-43 "/>
<text text-anchor="middle" x="299" y="-32.6" font-family="Times,serif" font-size="8.00">next: 0x600000714090</text>
<polyline fill="none" stroke="black" points="255,-26 343,-26 "/>
<text text-anchor="middle" x="299" y="-15.6" font-family="Times,serif" font-size="8.00">prev: 0x6000007108d0</text>
</g>
<!-- Node0x6000007108d0&#45;&gt;Node0x600000710c00 -->
<g id="edge2" class="edge">
<title>Node0x6000007108d0:n&#45;&gt;Node0x600000710c00:n</title>
<path fill="none" stroke="red" d="M219,-34C231,-34 236.25,-34 244.88,-34"/>
<polygon fill="red" stroke="red" points="245,-37.5 255,-34 245,-30.5 245,-37.5"/>
</g>
<!-- Node0x600000714090 -->
<g id="node4" class="node">
<title>Node0x600000714090</title>
<polygon fill="none" stroke="black" points="379,-9 379,-77 467,-77 467,-9 379,-9"/>
<text text-anchor="middle" x="423" y="-66.6" font-family="Times,serif" font-size="8.00">word: do</text>
<polyline fill="none" stroke="black" points="379,-60 467,-60 "/>
<text text-anchor="middle" x="423" y="-49.6" font-family="Times,serif" font-size="8.00">size: 72</text>
<polyline fill="none" stroke="black" points="379,-43 467,-43 "/>
<text text-anchor="middle" x="423" y="-32.6" font-family="Times,serif" font-size="8.00">next: 0x600000714840</text>
<polyline fill="none" stroke="black" points="379,-26 467,-26 "/>
<text text-anchor="middle" x="423" y="-15.6" font-family="Times,serif" font-size="8.00">prev: 0x600000710c00</text>
</g>
<!-- Node0x600000710c00&#45;&gt;Node0x600000714090 -->
<g id="edge3" class="edge">
<title>Node0x600000710c00:n&#45;&gt;Node0x600000714090:n</title>
<path fill="none" stroke="red" d="M343,-34C355,-34 360.25,-34 368.88,-34"/>
<polygon fill="red" stroke="red" points="369,-37.5 379,-34 369,-30.5 369,-37.5"/>
</g>
<!-- Node0x600000714840 -->
<g id="node5" class="node">
<title>Node0x600000714840</title>
<polygon fill="none" stroke="black" points="503,-9 503,-77 591,-77 591,-9 503,-9"/>
<text text-anchor="middle" x="547" y="-66.6" font-family="Times,serif" font-size="8.00">word: sword</text>
<polyline fill="none" stroke="black" points="503,-60 591,-60 "/>
<text text-anchor="middle" x="547" y="-49.6" font-family="Times,serif" font-size="8.00">size: 7</text>
<polyline fill="none" stroke="black" points="503,-43 591,-43 "/>
<text text-anchor="middle" x="547" y="-32.6" font-family="Times,serif" font-size="8.00">next: 0x600000714c30</text>
<polyline fill="none" stroke="black" points="503,-26 591,-26 "/>
<text text-anchor="middle" x="547" y="-15.6" font-family="Times,serif" font-size="8.00">prev: 0x600000714090</text>
</g>
<!-- Node0x600000714090&#45;&gt;Node0x600000714840 -->
<g id="edge4" class="edge">
<title>Node0x600000714090:n&#45;&gt;Node0x600000714840:n</title>
<path fill="none" stroke="red" d="M467,-34C479,-34 484.25,-34 492.88,-34"/>
<polygon fill="red" stroke="red" points="493,-37.5 503,-34 493,-30.5 493,-37.5"/>
</g>
<!-- Node0x600000714c30 -->
<g id="node6" class="node">
<title>Node0x600000714c30</title>
<polygon fill="none" stroke="black" points="627,-9 627,-77 715,-77 715,-9 627,-9"/>
<text text-anchor="middle" x="671" y="-66.6" font-family="Times,serif" font-size="8.00">word: bills</text>
<polyline fill="none" stroke="black" points="627,-60 715,-60 "/>
<text text-anchor="middle" x="671" y="-49.6" font-family="Times,serif" font-size="8.00">size: 1</text>
<polyline fill="none" stroke="black" points="627,-43 715,-43 "/>
<text text-anchor="middle" x="671" y="-32.6" font-family="Times,serif" font-size="8.00">next: 0x600000715b00</text>
<polyline fill="none" stroke="black" points="627,-26 715,-26 "/>
<text text-anchor="middle" x="671" y="-15.6" font-family="Times,serif" font-size="8.00">prev: 0x600000714840</text>
</g>
<!-- Node0x600000714840&#45;&gt;Node0x600000714c30 -->
<g id="edge5" class="edge">
<title>Node0x600000714840:n&#45;&gt;Node0x600000714c30:n</title>
<path fill="none" stroke="red" d="M591,-34C603,-34 608.25,-34 616.88,-34"/>
<polygon fill="red" stroke="red" points="617,-37.5 627,-34 617,-30.5 617,-37.5"/>
</g>
<!-- Node0x600000715b00 -->
<g id="node7" class="node">
<title>Node0x600000715b00</title>
<polygon fill="none" stroke="black" points="751,-9 751,-77 839,-77 839,-9 751,-9"/>
<text text-anchor="middle" x="795" y="-66.6" font-family="Times,serif" font-size="8.00">word: again</text>
<polyline fill="none" stroke="black" points="751,-60 839,-60 "/>
<text text-anchor="middle" x="795" y="-49.6" font-family="Times,serif" font-size="8.00">size: 27</text>
<polyline fill="none" stroke="black" points="751,-43 839,-43 "/>
<text text-anchor="middle" x="795" y="-32.6" font-family="Times,serif" font-size="8.00">next: 0x600000718240</text>
<polyline fill="none" stroke="black" points="751,-26 839,-26 "/>
<text text-anchor="middle" x="795" y="-15.6" font-family="Times,serif" font-size="8.00">prev: 0x600000714c30</text>
</g>
<!-- Node0x600000714c30&#45;&gt;Node0x600000715b00 -->
<g id="edge6" class="edge">
<title>Node0x600000714c30:n&#45;&gt;Node0x600000715b00:n</title>
<path fill="none" stroke="red" d="M715,-34C727,-34 732.25,-34 740.88,-34"/>
<polygon fill="red" stroke="red" points="741,-37.5 751,-34 741,-30.5 741,-37.5"/>
</g>
<!-- Node0x600000718240 -->
<g id="node8" class="node">
<title>Node0x600000718240</title>
<polygon fill="none" stroke="black" points="875,-9 875,-77 963,-77 963,-9 875,-9"/>
<text text-anchor="middle" x="919" y="-66.6" font-family="Times,serif" font-size="8.00">word: morrow</text>
<polyline fill="none" stroke="black" points="875,-60 963,-60 "/>
<text text-anchor="middle" x="919" y="-49.6" font-family="Times,serif" font-size="8.00">size: 16</text>
<polyline fill="none" stroke="black" points="875,-43 963,-43 "/>
<text text-anchor="middle" x="919" y="-32.6" font-family="Times,serif" font-size="8.00">next: 0x6000007192c0</text>
<polyline fill="none" stroke="black" points="875,-26 963,-26 "/>
<text text-anchor="middle" x="919" y="-15.6" font-family="Times,serif" font-size="8.00">prev: 0x600000715b00</text>
</g>
<!-- Node0x600000715b00&#45;&gt;Node0x600000718240 -->
<g id="edge7" class="edge">
<title>Node0x600000715b00:n&#45;&gt;Node0x600000718240:n</title>
<path fill="none" stroke="red" d="M839,-34C851,-34 856.25,-34 864.88,-34"/>
<polygon fill="red" stroke="red" points="865,-37.5 875,-34 865,-30.5 865,-37.5"/>
</g>
<!-- Node0x6000007192c0 -->
<g id="node9" class="node">
<title>Node0x6000007192c0</title>
<polygon fill="none" stroke="black" points="999,-9 999,-77 1087,-77 1087,-9 999,-9"/>
<text text-anchor="middle" x="1043" y="-66.6" font-family="Times,serif" font-size="8.00">word: nourish</text>
<polyline fill="none" stroke="black" points="999,-60 1087,-60 "/>
<text text-anchor="middle" x="1043" y="-49.6" font-family="Times,serif" font-size="8.00">size: 1</text>
<polyline fill="none" stroke="black" points="999,-43 1087,-43 "/>
<text text-anchor="middle" x="1043" y="-32.6" font-family="Times,serif" font-size="8.00">next: 0x60000071a730</text>
<polyline fill="none" stroke="black" points="999,-26 1087,-26 "/>
<text text-anchor="middle" x="1043" y="-15.6" font-family="Times,serif" font-size="8.00">prev: 0x600000718240</text>
</g>
<!-- Node0x600000718240&#45;&gt;Node0x6000007192c0 -->
<g id="edge8" class="edge">
<title>Node0x600000718240:n&#45;&gt;Node0x6000007192c0:n</title>
<path fill="none" stroke="red" d="M963,-34C975,-34 980.25,-34 988.88,-34"/>
<polygon fill="red" stroke="red" points="989,-37.5 999,-34 989,-30.5 989,-37.5"/>
</g>
<!-- Node0x60000071a730 -->
<g id="node10" class="node">
<title>Node0x60000071a730</title>
<polygon fill="none" stroke="black" points="1123,-9 1123,-77 1211,-77 1211,-9 1123,-9"/>
<text text-anchor="middle" x="1167" y="-66.6" font-family="Times,serif" font-size="8.00">word: Show</text>
<polyline fill="none" stroke="black" points="1123,-60 1211,-60 "/>
<text text-anchor="middle" x="1167" y="-49.6" font-family="Times,serif" font-size="8.00">size: 2</text>
<polyline fill="none" stroke="black" points="1123,-43 1211,-43 "/>
<text text-anchor="middle" x="1167" y="-32.6" font-family="Times,serif" font-size="8.00">next: 0x60000071abe0</text>
<polyline fill="none" stroke="black" points="1123,-26 1211,-26 "/>
<text text-anchor="middle" x="1167" y="-15.6" font-family="Times,serif" font-size="8.00">prev: 0x6000007192c0</text>
</g>
<!-- Node0x6000007192c0&#45;&gt;Node0x60000071a730 -->
<g id="edge9" class="edge">
<title>Node0x6000007192c0:n&#45;&gt;Node0x60000071a730:n</title>
<path fill="none" stroke="red" d="M1087,-34C1099,-34 1104.25,-34 1112.88,-34"/>
<polygon fill="red" stroke="red" points="1113,-37.5 1123,-34 1113,-30.5 1113,-37.5"/>
</g>
<!-- Node0x60000071abe0 -->
<g id="node11" class="node">
<title>Node0x60000071abe0</title>
<polygon fill="none" stroke="black" points="1247,-9 1247,-77 1335,-77 1335,-9 1247,-9"/>
<text text-anchor="middle" x="1291" y="-66.6" font-family="Times,serif" font-size="8.00">word: o</text>
<polyline fill="none" stroke="black" points="1247,-60 1335,-60 "/>
<text text-anchor="middle" x="1291" y="-49.6" font-family="Times,serif" font-size="8.00">size: 16</text>
<polyline fill="none" stroke="black" points="1247,-43 1335,-43 "/>
<text text-anchor="middle" x="1291" y="-32.6" font-family="Times,serif" font-size="8.00">next: 0x60000071cf90</text>
<polyline fill="none" stroke="black" points="1247,-26 1335,-26 "/>
<text text-anchor="middle" x="1291" y="-15.6" font-family="Times,serif" font-size="8.00">prev: 0x60000071a730</text>
</g>
<!-- Node0x60000071a730&#45;&gt;Node0x60000071abe0 -->
<g id="edge10" class="edge">
<title>Node0x60000071a730:n&#45;&gt;Node0x60000071abe0:n</title>
<path fill="none" stroke="red" d="M1211,-34C1223,-34 1228.25,-34 1236.88,-34"/>
<polygon fill="red" stroke="red" points="1237,-37.5 1247,-34 1237,-30.5 1237,-37.5"/>
</g>
<!-- Node0x60000071cf90 -->
<g id="node12" class="node">
<title>Node0x60000071cf90</title>
<polygon fill="none" stroke="black" points="1371,-9 1371,-77 1459,-77 1459,-9 1371,-9"/>
<text text-anchor="middle" x="1415" y="-66.6" font-family="Times,serif" font-size="8.00">word: herself</text>
<polyline fill="none" stroke="black" points="1371,-60 1459,-60 "/>
<text text-anchor="middle" x="1415" y="-49.6" font-family="Times,serif" font-size="8.00">size: 5</text>
<polyline fill="none" stroke="black" points="1371,-43 1459,-43 "/>
<text text-anchor="middle" x="1415" y="-32.6" font-family="Times,serif" font-size="8.00">next: 0x600000708e70</text>
<polyline fill="none" stroke="black" points="1371,-26 1459,-26 "/>
<text text-anchor="middle" x="1415" y="-15.6" font-family="Times,serif" font-size="8.00">prev: 0x60000071abe0</text>
</g>
<!-- Node0x60000071abe0&#45;&gt;Node0x60000071cf90 -->
<g id="edge11" class="edge">
<title>Node0x60000071abe0:n&#45;&gt;Node0x60000071cf90:n</title>
<path fill="none" stroke="red" d="M1335,-34C1347,-34 1352.25,-34 1360.88,-34"/>
<polygon fill="red" stroke="red" points="1361,-37.5 1371,-34 1361,-30.5 1361,-37.5"/>
</g>
<!-- Node0x600000708e70 -->
<g id="node13" class="node">
<title>Node0x600000708e70</title>
<polygon fill="none" stroke="black" points="1495,-9 1495,-77 1582,-77 1582,-9 1495,-9"/>
<text text-anchor="middle" x="1538.5" y="-66.6" font-family="Times,serif" font-size="8.00">word: dost</text>
<polyline fill="none" stroke="black" points="1495,-60 1582,-60 "/>
<text text-anchor="middle" x="1538.5" y="-49.6" font-family="Times,serif" font-size="8.00">size: 13</text>
<polyline fill="none" stroke="black" points="1495,-43 1582,-43 "/>
<text text-anchor="middle" x="1538.5" y="-32.6" font-family="Times,serif" font-size="8.00">next: 0x600000704330</text>
<polyline fill="none" stroke="black" points="1495,-26 1582,-26 "/>
<text text-anchor="middle" x="1538.5" y="-15.6" font-family="Times,serif" font-size="8.00">prev: 0x60000071cf90</text>
</g>
<!-- Node0x60000071cf90&#45;&gt;Node0x600000708e70 -->
<g id="edge12" class="edge">
<title>Node0x60000071cf90:n&#45;&gt;Node0x600000708e70:n</title>
<path fill="none" stroke="red" d="M1459,-34C1471,-34 1476.25,-34 1484.88,-34"/>
<polygon fill="red" stroke="red" points="1485,-37.5 1495,-34 1485,-30.5 1485,-37.5"/>
</g>
<!-- Node0x600000704330 -->
<g id="node14" class="node">
<title>Node0x600000704330</title>
<polygon fill="none" stroke="black" points="1618,-9 1618,-77 1706,-77 1706,-9 1618,-9"/>
<text text-anchor="middle" x="1662" y="-66.6" font-family="Times,serif" font-size="8.00">word: Women</text>
<polyline fill="none" stroke="black" points="1618,-60 1706,-60 "/>
<text text-anchor="middle" x="1662" y="-49.6" font-family="Times,serif" font-size="8.00">size: 2</text>
<polyline fill="none" stroke="black" points="1618,-43 1706,-43 "/>
<text text-anchor="middle" x="1662" y="-32.6" font-family="Times,serif" font-size="8.00">next: 0x600000704690</text>
<polyline fill="none" stroke="black" points="1618,-26 1706,-26 "/>
<text text-anchor="middle" x="1662" y="-15.6" font-family="Times,serif" font-size="8.00">prev: 0x600000708e70</text>
</g>
<!-- Node0x600000708e70&#45;&gt;Node0x600000704330 -->
<g id="edge13" class="edge">
<title>Node0x600000708e70:n&#45;&gt;Node0x600000704330:n</title>
<path fill="none" stroke="red" d="M1582,-34C1594,-34 1599.25,-34 1607.88,-34"/>
<polygon fill="red" stroke="red" points="1608,-37.5 1618,-34 1608,-30.5 1608,-37.5"/>
</g>
<!-- Node0x600000704690 -->
<g id="node15" class="node">
<title>Node0x600000704690</title>
<polygon fill="none" stroke="black" points="1742,-9 1742,-77 1830,-77 1830,-9 1742,-9"/>
<text text-anchor="middle" x="1786" y="-66.6" font-family="Times,serif" font-size="8.00">word: beseech</text>
<polyline fill="none" stroke="black" points="1742,-60 1830,-60 "/>
<text text-anchor="middle" x="1786" y="-49.6" font-family="Times,serif" font-size="8.00">size: 7</text>
<polyline fill="none" stroke="black" points="1742,-43 1830,-43 "/>
<text text-anchor="middle" x="1786" y="-32.6" font-family="Times,serif" font-size="8.00">next: 0x6000007053b0</text>
<polyline fill="none" stroke="black" points="1742,-26 1830,-26 "/>
<text text-anchor="middle" x="1786" y="-15.6" font-family="Times,serif" font-size="8.00">prev: 0x600000704330</text>
</g>
<!-- Node0x600000704330&#45;&gt;Node0x600000704690 -->
<g id="edge14" class="edge">
<title>Node0x600000704330:n&#45;&gt;Node0x600000704690:n</title>
<path fill="none" stroke="red" d="M1706,-34C1718,-34 1723.25,-34 1731.88,-34"/>
<polygon fill="red" stroke="red" points="1732,-37.5 1742,-34 1732,-30.5 1732,-37.5"/>
</g>
<!-- Node0x6000007053b0 -->
<g id="node16" class="node">
<title>Node0x6000007053b0</title>
<polygon fill="none" stroke="black" points="1866,-9 1866,-77 1954,-77 1954,-9 1866,-9"/>
<text text-anchor="middle" x="1910" y="-66.6" font-family="Times,serif" font-size="8.00">word: beetle</text>
<polyline fill="none" stroke="black" points="1866,-60 1954,-60 "/>
<text text-anchor="middle" x="1910" y="-49.6" font-family="Times,serif" font-size="8.00">size: 1</text>
<polyline fill="none" stroke="black" points="1866,-43 1954,-43 "/>
<text text-anchor="middle" x="1910" y="-32.6" font-family="Times,serif" font-size="8.00">next: 0x600000709dd0</text>
<polyline fill="none" stroke="black" points="1866,-26 1954,-26 "/>
<text text-anchor="middle" x="1910" y="-15.6" font-family="Times,serif" font-size="8.00">prev: 0x600000704690</text>
</g>
<!-- Node0x600000704690&#45;&gt;Node0x6000007053b0 -->
<g id="edge15" class="edge">
<title>Node0x600000704690:n&#45;&gt;Node0x6000007053b0:n</title>
<path fill="none" stroke="red" d="M1830,-34C1842,-34 1847.25,-34 1855.88,-34"/>
<polygon fill="red" stroke="red" points="1856,-37.5 1866,-34 1856,-30.5 1856,-37.5"/>
</g>
<!-- Node0x600000709dd0 -->
<g id="node17" class="node">
<title>Node0x600000709dd0</title>
<polygon fill="none" stroke="black" points="1990,-9 1990,-77 2078,-77 2078,-9 1990,-9"/>
<text text-anchor="middle" x="2034" y="-66.6" font-family="Times,serif" font-size="8.00">word: half</text>
<polyline fill="none" stroke="black" points="1990,-60 2078,-60 "/>
<text text-anchor="middle" x="2034" y="-49.6" font-family="Times,serif" font-size="8.00">size: 5</text>
<polyline fill="none" stroke="black" points="1990,-43 2078,-43 "/>
<text text-anchor="middle" x="2034" y="-32.6" font-family="Times,serif" font-size="8.00">next: 0x60000071fd50</text>
<polyline fill="none" stroke="black" points="1990,-26 2078,-26 "/>
<text text-anchor="middle" x="2034" y="-15.6" font-family="Times,serif" font-size="8.00">prev: 0x6000007053b0</text>
</g>
<!-- Node0x6000007053b0&#45;&gt;Node0x600000709dd0 -->
<g id="edge16" class="edge">
<title>Node0x6000007053b0:n&#45;&gt;Node0x600000709dd0:n</title>
<path fill="none" stroke="red" d="M1954,-34C1966,-34 1971.25,-34 1979.88,-34"/>
<polygon fill="red" stroke="red" points="1980,-37.5 1990,-34 1980,-30.5 1980,-37.5"/>
</g>
<!-- Node0x60000071fd50 -->
<g id="node18" class="node">
<title>Node0x60000071fd50</title>
<polygon fill="none" stroke="black" points="2114,-9 2114,-77 2202,-77 2202,-9 2114,-9"/>
<text text-anchor="middle" x="2158" y="-66.6" font-family="Times,serif" font-size="8.00">word: rapier</text>
<polyline fill="none" stroke="black" points="2114,-60 2202,-60 "/>
<text text-anchor="middle" x="2158" y="-49.6" font-family="Times,serif" font-size="8.00">size: 3</text>
<polyline fill="none" stroke="black" points="2114,-43 2202,-43 "/>
<text text-anchor="middle" x="2158" y="-32.6" font-family="Times,serif" font-size="8.00">next: 0x6000007005a0</text>
<polyline fill="none" stroke="black" points="2114,-26 2202,-26 "/>
<text text-anchor="middle" x="2158" y="-15.6" font-family="Times,serif" font-size="8.00">prev: 0x600000709dd0</text>
</g>
<!-- Node0x600000709dd0&#45;&gt;Node0x60000071fd50 -->
<g id="edge17" class="edge">
<title>Node0x600000709dd0:n&#45;&gt;Node0x60000071fd50:n</title>
<path fill="none" stroke="red" d="M2078,-34C2090,-34 2095.25,-34 2103.88,-34"/>
<polygon fill="red" stroke="red" points="2104,-37.5 2114,-34 2104,-30.5 2104,-37.5"/>
</g>
<!-- Node0x6000007005a0 -->
<g id="node19" class="node">
<title>Node0x6000007005a0</title>
<polygon fill="none" stroke="black" points="2238,-9 2238,-77 2325,-77 2325,-9 2238,-9"/>
<text text-anchor="middle" x="2281.5" y="-66.6" font-family="Times,serif" font-size="8.00">word: withdraw</text>
<polyline fill="none" stroke="black" points="2238,-60 2325,-60 "/>
<text text-anchor="middle" x="2281.5" y="-49.6" font-family="Times,serif" font-size="8.00">size: 3</text>
<polyline fill="none" stroke="black" points="2238,-43 2325,-43 "/>
<text text-anchor="middle" x="2281.5" y="-32.6" font-family="Times,serif" font-size="8.00">next: 0x600000701740</text>
<polyline fill="none" stroke="black" points="2238,-26 2325,-26 "/>
<text text-anchor="middle" x="2281.5" y="-15.6" font-family="Times,serif" font-size="8.00">prev: 0x60000071fd50</text>
</g>
<!-- Node0x60000071fd50&#45;&gt;Node0x6000007005a0 -->
<g id="edge18" class="edge">
<title>Node0x60000071fd50:n&#45;&gt;Node0x6000007005a0:n</title>
<path fill="none" stroke="red" d="M2202,-34C2214,-34 2219.25,-34 2227.88,-34"/>
<polygon fill="red" stroke="red" points="2228,-37.5 2238,-34 2228,-30.5 2228,-37.5"/>
</g>
<!-- Node0x600000701740 -->
<g id="node20" class="node">
<title>Node0x600000701740</title>
<polygon fill="none" stroke="black" points="2361,-9 2361,-77 2449,-77 2449,-9 2361,-9"/>
<text text-anchor="middle" x="2405" y="-66.6" font-family="Times,serif" font-size="8.00">word: centre</text>
<polyline fill="none" stroke="black" points="2361,-60 2449,-60 "/>
<text text-anchor="middle" x="2405" y="-49.6" font-family="Times,serif" font-size="8.00">size: 1</text>
<polyline fill="none" stroke="black" points="2361,-43 2449,-43 "/>
<text text-anchor="middle" x="2405" y="-32.6" font-family="Times,serif" font-size="8.00">next: 0x600000701b30</text>
<polyline fill="none" stroke="black" points="2361,-26 2449,-26 "/>
<text text-anchor="middle" x="2405" y="-15.6" font-family="Times,serif" font-size="8.00">prev: 0x6000007005a0</text>
</g>
<!-- Node0x6000007005a0&#45;&gt;Node0x600000701740 -->
<g id="edge19" class="edge">
<title>Node0x6000007005a0:n&#45;&gt;Node0x600000701740:n</title>
<path fill="none" stroke="red" d="M2325,-34C2337,-34 2342.25,-34 2350.88,-34"/>
<polygon fill="red" stroke="red" points="2351,-37.5 2361,-34 2351,-30.5 2351,-37.5"/>
</g>
<!-- Node0x600000701b30 -->
<g id="node21" class="node">
<title>Node0x600000701b30</title>
<polygon fill="none" stroke="black" points="2485,-9 2485,-77 2573,-77 2573,-9 2485,-9"/>
<text text-anchor="middle" x="2529" y="-66.6" font-family="Times,serif" font-size="8.00">word: trim</text>
<polyline fill="none" stroke="black" points="2485,-60 2573,-60 "/>
<text text-anchor="middle" x="2529" y="-49.6" font-family="Times,serif" font-size="8.00">size: 2</text>
<polyline fill="none" stroke="black" points="2485,-43 2573,-43 "/>
<text text-anchor="middle" x="2529" y="-32.6" font-family="Times,serif" font-size="8.00">next: 0x6000007319b0</text>
<polyline fill="none" stroke="black" points="2485,-26 2573,-26 "/>
<text text-anchor="middle" x="2529" y="-15.6" font-family="Times,serif" font-size="8.00">prev: 0x600000701740</text>
</g>
<!-- Node0x600000701740&#45;&gt;Node0x600000701b30 -->
<g id="edge20" class="edge">
<title>Node0x600000701740:n&#45;&gt;Node0x600000701b30:n</title>
<path fill="none" stroke="red" d="M2449,-34C2461,-34 2466.25,-34 2474.88,-34"/>
<polygon fill="red" stroke="red" points="2475,-37.5 2485,-34 2475,-30.5 2475,-37.5"/>
</g>
<!-- Node0x6000007319b0 -->
<g id="node22" class="node">
<title>Node0x6000007319b0</title>
<polygon fill="none" stroke="black" points="2609,-9 2609,-77 2697,-77 2697,-9 2609,-9"/>
<text text-anchor="middle" x="2653" y="-66.6" font-family="Times,serif" font-size="8.00">word: strain</text>
<polyline fill="none" stroke="black" points="2609,-60 2697,-60 "/>
<text text-anchor="middle" x="2653" y="-49.6" font-family="Times,serif" font-size="8.00">size: 2</text>
<polyline fill="none" stroke="black" points="2609,-43 2697,-43 "/>
<text text-anchor="middle" x="2653" y="-32.6" font-family="Times,serif" font-size="8.00">next: 0x600000733ab0</text>
<polyline fill="none" stroke="black" points="2609,-26 2697,-26 "/>
<text text-anchor="middle" x="2653" y="-15.6" font-family="Times,serif" font-size="8.00">prev: 0x600000701b30</text>
</g>
<!-- Node0x600000701b30&#45;&gt;Node0x6000007319b0 -->
<g id="edge21" class="edge">
<title>Node0x600000701b30:n&#45;&gt;Node0x6000007319b0:n</title>
<path fill="none" stroke="red" d="M2573,-34C2585,-34 2590.25,-34 2598.88,-34"/>
<polygon fill="red" stroke="red" points="2599,-37.5 2609,-34 2599,-30.5 2599,-37.5"/>
</g>
<!-- Node0x600000733ab0 -->
<g id="node23" class="node">
<title>Node0x600000733ab0</title>
<polygon fill="none" stroke="black" points="2733,-9 2733,-77 2821,-77 2821,-9 2733,-9"/>
<text text-anchor="middle" x="2777" y="-66.6" font-family="Times,serif" font-size="8.00">word: gypsy</text>
<polyline fill="none" stroke="black" points="2733,-60 2821,-60 "/>
<text text-anchor="middle" x="2777" y="-49.6" font-family="Times,serif" font-size="8.00">size: 1</text>
<polyline fill="none" stroke="black" points="2733,-43 2821,-43 "/>
<text text-anchor="middle" x="2777" y="-32.6" font-family="Times,serif" font-size="8.00">next: 0x600000734990</text>
<polyline fill="none" stroke="black" points="2733,-26 2821,-26 "/>
<text text-anchor="middle" x="2777" y="-15.6" font-family="Times,serif" font-size="8.00">prev: 0x6000007319b0</text>
</g>
<!-- Node0x6000007319b0&#45;&gt;Node0x600000733ab0 -->
<g id="edge22" class="edge">
<title>Node0x6000007319b0:n&#45;&gt;Node0x600000733ab0:n</title>
<path fill="none" stroke="red" d="M2697,-34C2709,-34 2714.25,-34 2722.88,-34"/>
<polygon fill="red" stroke="red" points="2723,-37.5 2733,-34 2723,-30.5 2723,-37.5"/>
</g>
<!-- Node0x600000734990 -->
<g id="node24" class="node">
<title>Node0x600000734990</title>
<polygon fill="none" stroke="black" points="2857,-9 2857,-77 2945,-77 2945,-9 2857,-9"/>
<text text-anchor="middle" x="2901" y="-66.6" font-family="Times,serif" font-size="8.00">word: gear</text>
<polyline fill="none" stroke="black" points="2857,-60 2945,-60 "/>
<text text-anchor="middle" x="2901" y="-49.6" font-family="Times,serif" font-size="8.00">size: 2</text>
<polyline fill="none" stroke="black" points="2857,-43 2945,-43 "/>
<text text-anchor="middle" x="2901" y="-32.6" font-family="Times,serif" font-size="8.00">next: 0x600000735bf0</text>
<polyline fill="none" stroke="black" points="2857,-26 2945,-26 "/>
<text text-anchor="middle" x="2901" y="-15.6" font-family="Times,serif" font-size="8.00">prev: 0x600000733ab0</text>
</g>
<!-- Node0x600000733ab0&#45;&gt;Node0x600000734990 -->
<g id="edge23" class="edge">
<title>Node0x600000733ab0:n&#45;&gt;Node0x600000734990:n</title>
<path fill="none" stroke="red" d="M2821,-34C2833,-34 2838.25,-34 2846.88,-34"/>
<polygon fill="red" stroke="red" points="2847,-37.5 2857,-34 2847,-30.5 2847,-37.5"/>
</g>
<!-- Node0x600000735bf0 -->
<g id="node25" class="node">
<title>Node0x600000735bf0</title>
<polygon fill="none" stroke="black" points="2981,-9 2981,-77 3069,-77 3069,-9 2981,-9"/>
<text text-anchor="middle" x="3025" y="-66.6" font-family="Times,serif" font-size="8.00">word: properer</text>
<polyline fill="none" stroke="black" points="2981,-60 3069,-60 "/>
<text text-anchor="middle" x="3025" y="-49.6" font-family="Times,serif" font-size="8.00">size: 1</text>
<polyline fill="none" stroke="black" points="2981,-43 3069,-43 "/>
<text text-anchor="middle" x="3025" y="-32.6" font-family="Times,serif" font-size="8.00">next: 0x600000737a80</text>
<polyline fill="none" stroke="black" points="2981,-26 3069,-26 "/>
<text text-anchor="middle" x="3025" y="-15.6" font-family="Times,serif" font-size="8.00">prev: 0x600000734990</text>
</g>
<!-- Node0x600000734990&#45;&gt;Node0x600000735bf0 -->
<g id="edge24" class="edge">
<title>Node0x600000734990:n&#45;&gt;Node0x600000735bf0:n</title>
<path fill="none" stroke="red" d="M2945,-34C2957,-34 2962.25,-34 2970.88,-34"/>
<polygon fill="red" stroke="red" points="2971,-37.5 2981,-34 2971,-30.5 2971,-37.5"/>
</g>
<!-- Node0x600000737a80 -->
<g id="node26" class="node">
<title>Node0x600000737a80</title>
<polygon fill="none" stroke="black" points="3105,-9 3105,-77 3192,-77 3192,-9 3105,-9"/>
<text text-anchor="middle" x="3148.5" y="-66.6" font-family="Times,serif" font-size="8.00">word: coughing</text>
<polyline fill="none" stroke="black" points="3105,-60 3192,-60 "/>
<text text-anchor="middle" x="3148.5" y="-49.6" font-family="Times,serif" font-size="8.00">size: 1</text>
<polyline fill="none" stroke="black" points="3105,-43 3192,-43 "/>
<text text-anchor="middle" x="3148.5" y="-32.6" font-family="Times,serif" font-size="8.00">next: 0x600000738db0</text>
<polyline fill="none" stroke="black" points="3105,-26 3192,-26 "/>
<text text-anchor="middle" x="3148.5" y="-15.6" font-family="Times,serif" font-size="8.00">prev: 0x600000735bf0</text>
</g>
<!-- Node0x600000735bf0&#45;&gt;Node0x600000737a80 -->
<g id="edge25" class="edge">
<title>Node0x600000735bf0:n&#45;&gt;Node0x600000737a80:n</title>
<path fill="none" stroke="red" d="M3069,-34C3081,-34 3086.25,-34 3094.88,-34"/>
<polygon fill="red" stroke="red" points="3095,-37.5 3105,-34 3095,-30.5 3095,-37.5"/>
</g>
<!-- Node0x600000738db0 -->
<g id="node27" class="node">
<title>Node0x600000738db0</title>
<polygon fill="none" stroke="black" points="3228,-9 3228,-77 3316,-77 3316,-9 3228,-9"/>
<text text-anchor="middle" x="3272" y="-66.6" font-family="Times,serif" font-size="8.00">word: falls</text>
<polyline fill="none" stroke="black" points="3228,-60 3316,-60 "/>
<text text-anchor="middle" x="3272" y="-49.6" font-family="Times,serif" font-size="8.00">size: 6</text>
<polyline fill="none" stroke="black" points="3228,-43 3316,-43 "/>
<text text-anchor="middle" x="3272" y="-32.6" font-family="Times,serif" font-size="8.00">next: 0x600000739290</text>
<polyline fill="none" stroke="black" points="3228,-26 3316,-26 "/>
<text text-anchor="middle" x="3272" y="-15.6" font-family="Times,serif" font-size="8.00">prev: 0x600000737a80</text>
</g>
<!-- Node0x600000737a80&#45;&gt;Node0x600000738db0 -->
<g id="edge26" class="edge">
<title>Node0x600000737a80:n&#45;&gt;Node0x600000738db0:n</title>
<path fill="none" stroke="red" d="M3192,-34C3204,-34 3209.25,-34 3217.88,-34"/>
<polygon fill="red" stroke="red" points="3218,-37.5 3228,-34 3218,-30.5 3218,-37.5"/>
</g>
<!-- Node0x600000739290 -->
<g id="node28" class="node">
<title>Node0x600000739290</title>
<polygon fill="none" stroke="black" points="3352,-9 3352,-77 3440,-77 3440,-9 3352,-9"/>
<text text-anchor="middle" x="3396" y="-66.6" font-family="Times,serif" font-size="8.00">word: spleen</text>
<polyline fill="none" stroke="black" points="3352,-60 3440,-60 "/>
<text text-anchor="middle" x="3396" y="-49.6" font-family="Times,serif" font-size="8.00">size: 1</text>
<polyline fill="none" stroke="black" points="3352,-43 3440,-43 "/>
<text text-anchor="middle" x="3396" y="-32.6" font-family="Times,serif" font-size="8.00">next: 0x600000739ec0</text>
<polyline fill="none" stroke="black" points="3352,-26 3440,-26 "/>
<text text-anchor="middle" x="3396" y="-15.6" font-family="Times,serif" font-size="8.00">prev: 0x600000738db0</text>
</g>
<!-- Node0x600000738db0&#45;&gt;Node0x600000739290 -->
<g id="edge27" class="edge">
<title>Node0x600000738db0:n&#45;&gt;Node0x600000739290:n</title>
<path fill="none" stroke="red" d="M3316,-34C3328,-34 3333.25,-34 3341.88,-34"/>
<polygon fill="red" stroke="red" points="3342,-37.5 3352,-34 3342,-30.5 3342,-37.5"/>
</g>
<!-- Node0x600000739ec0 -->
<g id="node29" class="node">
<title>Node0x600000739ec0</title>
<polygon fill="none" stroke="black" points="3476,-9 3476,-77 3564,-77 3564,-9 3476,-9"/>
<text text-anchor="middle" x="3520" y="-66.6" font-family="Times,serif" font-size="8.00">word: rites</text>
<polyline fill="none" stroke="black" points="3476,-60 3564,-60 "/>
<text text-anchor="middle" x="3520" y="-49.6" font-family="Times,serif" font-size="8.00">size: 1</text>
<polyline fill="none" stroke="black" points="3476,-43 3564,-43 "/>
<text text-anchor="middle" x="3520" y="-32.6" font-family="Times,serif" font-size="8.00">next: 0x60000073b4e0</text>
<polyline fill="none" stroke="black" points="3476,-26 3564,-26 "/>
<text text-anchor="middle" x="3520" y="-15.6" font-family="Times,serif" font-size="8.00">prev: 0x600000739290</text>
</g>
<!-- Node0x600000739290&#45;&gt;Node0x600000739ec0 -->
<g id="edge28" class="edge">
<title>Node0x600000739290:n&#45;&gt;Node0x600000739ec0:n</title>
<path fill="none" stroke="red" d="M3440,-34C3452,-34 3457.25,-34 3465.88,-34"/>
<polygon fill="red" stroke="red" points="3466,-37.5 3476,-34 3466,-30.5 3466,-37.5"/>
</g>
<!-- Node0x60000073b4e0 -->
<g id="node30" class="node">
<title>Node0x60000073b4e0</title>
<polygon fill="none" stroke="black" points="3600,-9 3600,-77 3688,-77 3688,-9 3600,-9"/>
<text text-anchor="middle" x="3644" y="-66.6" font-family="Times,serif" font-size="8.00">word: minds</text>
<polyline fill="none" stroke="black" points="3600,-60 3688,-60 "/>
<text text-anchor="middle" x="3644" y="-49.6" font-family="Times,serif" font-size="8.00">size: 1</text>
<polyline fill="none" stroke="black" points="3600,-43 3688,-43 "/>
<text text-anchor="middle" x="3644" y="-32.6" font-family="Times,serif" font-size="8.00">next: 0x60000070c1b0</text>
<polyline fill="none" stroke="black" points="3600,-26 3688,-26 "/>
<text text-anchor="middle" x="3644" y="-15.6" font-family="Times,serif" font-size="8.00">prev: 0x600000739ec0</text>
</g>
<!-- Node0x600000739ec0&#45;&gt;Node0x60000073b4e0 -->
<g id="edge29" class="edge">
<title>Node0x600000739ec0:n&#45;&gt;Node0x60000073b4e0:n</title>
<path fill="none" stroke="red" d="M3564,-34C3576,-34 3581.25,-34 3589.88,-34"/>
<polygon fill="red" stroke="red" points="3590,-37.5 3600,-34 3590,-30.5 3590,-37.5"/>
</g>
<!-- Node0x60000070c1b0 -->
<g id="node31" class="node">
<title>Node0x60000070c1b0</title>
<polygon fill="none" stroke="black" points="3724,-9 3724,-77 3812,-77 3812,-9 3724,-9"/>
<text text-anchor="middle" x="3768" y="-66.6" font-family="Times,serif" font-size="8.00">word: strains</text>
<polyline fill="none" stroke="black" points="3724,-60 3812,-60 "/>
<text text-anchor="middle" x="3768" y="-49.6" font-family="Times,serif" font-size="8.00">size: 1</text>
<polyline fill="none" stroke="black" points="3724,-43 3812,-43 "/>
<text text-anchor="middle" x="3768" y="-32.6" font-family="Times,serif" font-size="8.00">next: 0x600000721020</text>
<polyline fill="none" stroke="black" points="3724,-26 3812,-26 "/>
<text text-anchor="middle" x="3768" y="-15.6" font-family="Times,serif" font-size="8.00">prev: 0x60000073b4e0</text>
</g>
<!-- Node0x60000073b4e0&#45;&gt;Node0x60000070c1b0 -->
<g id="edge30" class="edge">
<title>Node0x60000073b4e0:n&#45;&gt;Node0x60000070c1b0:n</title>
<path fill="none" stroke="red" d="M3688,-34C3700,-34 3705.25,-34 3713.88,-34"/>
<polygon fill="red" stroke="red" points="3714,-37.5 3724,-34 3714,-30.5 3714,-37.5"/>
</g>
<!-- Node0x600000721020 -->
<g id="node32" class="node">
<title>Node0x600000721020</title>
<polygon fill="none" stroke="black" points="3848,-9 3848,-77 3936,-77 3936,-9 3848,-9"/>
<text text-anchor="middle" x="3892" y="-66.6" font-family="Times,serif" font-size="8.00">word: borne</text>
<polyline fill="none" stroke="black" points="3848,-60 3936,-60 "/>
<text text-anchor="middle" x="3892" y="-49.6" font-family="Times,serif" font-size="8.00">size: 1</text>
<polyline fill="none" stroke="black" points="3848,-43 3936,-43 "/>
<text text-anchor="middle" x="3892" y="-32.6" font-family="Times,serif" font-size="8.00">next: 0x6000007244e0</text>
<polyline fill="none" stroke="black" points="3848,-26 3936,-26 "/>
<text text-anchor="middle" x="3892" y="-15.6" font-family="Times,serif" font-size="8.00">prev: 0x60000070c1b0</text>
</g>
<!-- Node0x60000070c1b0&#45;&gt;Node0x600000721020 -->
<g id="edge31" class="edge">
<title>Node0x60000070c1b0:n&#45;&gt;Node0x600000721020:n</title>
<path fill="none" stroke="red" d="M3812,-34C3824,-34 3829.25,-34 3837.88,-34"/>
<polygon fill="red" stroke="red" points="3838,-37.5 3848,-34 3838,-30.5 3838,-37.5"/>
</g>
<!-- Node0x6000007244e0 -->
<g id="node33" class="node">
<title>Node0x6000007244e0</title>
<polygon fill="none" stroke="black" points="3972,-9 3972,-77 4060,-77 4060,-9 3972,-9"/>
<text text-anchor="middle" x="4016" y="-66.6" font-family="Times,serif" font-size="8.00">word: fearest</text>
<polyline fill="none" stroke="black" points="3972,-60 4060,-60 "/>
<text text-anchor="middle" x="4016" y="-49.6" font-family="Times,serif" font-size="8.00">size: 1</text>
<polyline fill="none" stroke="black" points="3972,-43 4060,-43 "/>
<text text-anchor="middle" x="4016" y="-32.6" font-family="Times,serif" font-size="8.00">next: 0x600000726df0</text>
<polyline fill="none" stroke="black" points="3972,-26 4060,-26 "/>
<text text-anchor="middle" x="4016" y="-15.6" font-family="Times,serif" font-size="8.00">prev: 0x600000721020</text>
</g>
<!-- Node0x600000721020&#45;&gt;Node0x6000007244e0 -->
<g id="edge32" class="edge">
<title>Node0x600000721020:n&#45;&gt;Node0x6000007244e0:n</title>
<path fill="none" stroke="red" d="M3936,-34C3948,-34 3953.25,-34 3961.88,-34"/>
<polygon fill="red" stroke="red" points="3962,-37.5 3972,-34 3962,-30.5 3962,-37.5"/>
</g>
<!-- Node0x600000726df0 -->
<g id="node34" class="node">
<title>Node0x600000726df0</title>
<polygon fill="none" stroke="black" points="4096,-9 4096,-77 4184,-77 4184,-9 4096,-9"/>
<text text-anchor="middle" x="4140" y="-66.6" font-family="Times,serif" font-size="8.00">word: warns</text>
<polyline fill="none" stroke="black" points="4096,-60 4184,-60 "/>
<text text-anchor="middle" x="4140" y="-49.6" font-family="Times,serif" font-size="8.00">size: 1</text>
<polyline fill="none" stroke="black" points="4096,-43 4184,-43 "/>
<text text-anchor="middle" x="4140" y="-32.6" font-family="Times,serif" font-size="8.00">next: 0x0</text>
<polyline fill="none" stroke="black" points="4096,-26 4184,-26 "/>
<text text-anchor="middle" x="4140" y="-15.6" font-family="Times,serif" font-size="8.00">prev: 0x6000007244e0</text>
</g>
<!-- Node0x6000007244e0&#45;&gt;Node0x600000726df0 -->
<g id="edge33" class="edge">
<title>Node0x6000007244e0:n&#45;&gt;Node0x600000726df0:n</title>
<path fill="none" stroke="red" d="M4060,-34C4072,-34 4077.25,-34 4085.88,-34"/>
<polygon fill="red" stroke="red" points="4086,-37.5 4096,-34 4086,-30.5 4086,-37.5"/>
</g>
</g>
</svg>
