<?xml version="1.0" encoding="UTF-8" standalone="no"?>
<!DOCTYPE svg PUBLIC "-//W3C//DTD SVG 1.1//EN"
 "http://www.w3.org/Graphics/SVG/1.1/DTD/svg11.dtd">
<!-- Generated by graphviz version 2.50.0 (20211204.2007)
 -->
<!-- Title: G Pages: 1 -->
<svg width="3578pt" height="117pt"
 viewBox="0.00 0.00 3578.00 117.00" xmlns="http://www.w3.org/2000/svg" xmlns:xlink="http://www.w3.org/1999/xlink">
<g id="graph0" class="graph" transform="scale(1 1) rotate(0) translate(4 113)">
<title>G</title>
<polygon fill="white" stroke="transparent" points="-4,4 -4,-113 3574,-113 3574,4 -4,4"/>
<g id="clust25" class="cluster">
<title>cluster2388</title>
<polygon fill="none" stroke="black" points="2978,-8 2978,-101 3066,-101 3066,-8 2978,-8"/>
<text text-anchor="middle" x="3022" y="-85.8" font-family="Times,serif" font-size="14.00">2388</text>
</g>
<g id="clust20" class="cluster">
<title>cluster2383</title>
<polygon fill="none" stroke="black" points="2360,-8 2360,-101 2448,-101 2448,-8 2360,-8"/>
<text text-anchor="middle" x="2404" y="-85.8" font-family="Times,serif" font-size="14.00">2383</text>
</g>
<g id="clust22" class="cluster">
<title>cluster2385</title>
<polygon fill="none" stroke="black" points="2608,-8 2608,-101 2695,-101 2695,-8 2608,-8"/>
<text text-anchor="middle" x="2651.5" y="-85.8" font-family="Times,serif" font-size="14.00">2385</text>
</g>
<g id="clust19" class="cluster">
<title>cluster2382</title>
<polygon fill="none" stroke="black" points="2236,-8 2236,-101 2324,-101 2324,-8 2236,-8"/>
<text text-anchor="middle" x="2280" y="-85.8" font-family="Times,serif" font-size="14.00">2382</text>
</g>
<g id="clust24" class="cluster">
<title>cluster2387</title>
<polygon fill="none" stroke="black" points="2854,-8 2854,-101 2942,-101 2942,-8 2854,-8"/>
<text text-anchor="middle" x="2898" y="-85.8" font-family="Times,serif" font-size="14.00">2387</text>
</g>
<g id="clust23" class="cluster">
<title>cluster2386</title>
<polygon fill="none" stroke="black" points="2731,-8 2731,-101 2818,-101 2818,-8 2731,-8"/>
<text text-anchor="middle" x="2774.5" y="-85.8" font-family="Times,serif" font-size="14.00">2386</text>
</g>
<g id="clust21" class="cluster">
<title>cluster2384</title>
<polygon fill="none" stroke="black" points="2484,-8 2484,-101 2572,-101 2572,-8 2484,-8"/>
<text text-anchor="middle" x="2528" y="-85.8" font-family="Times,serif" font-size="14.00">2384</text>
</g>
<g id="clust26" class="cluster">
<title>cluster2389</title>
<polygon fill="none" stroke="black" points="3102,-8 3102,-101 3190,-101 3190,-8 3102,-8"/>
<text text-anchor="middle" x="3146" y="-85.8" font-family="Times,serif" font-size="14.00">2389</text>
</g>
<g id="clust27" class="cluster">
<title>cluster2390</title>
<polygon fill="none" stroke="black" points="3226,-8 3226,-101 3314,-101 3314,-8 3226,-8"/>
<text text-anchor="middle" x="3270" y="-85.8" font-family="Times,serif" font-size="14.00">2390</text>
</g>
<g id="clust18" class="cluster">
<title>cluster2381</title>
<polygon fill="none" stroke="black" points="2112,-8 2112,-101 2200,-101 2200,-8 2112,-8"/>
<text text-anchor="middle" x="2156" y="-85.8" font-family="Times,serif" font-size="14.00">2381</text>
</g>
<g id="clust28" class="cluster">
<title>cluster2391</title>
<polygon fill="none" stroke="black" points="3350,-8 3350,-101 3438,-101 3438,-8 3350,-8"/>
<text text-anchor="middle" x="3394" y="-85.8" font-family="Times,serif" font-size="14.00">2391</text>
</g>
<g id="clust29" class="cluster">
<title>cluster2392</title>
<polygon fill="none" stroke="black" points="3474,-8 3474,-101 3562,-101 3562,-8 3474,-8"/>
<text text-anchor="middle" x="3518" y="-85.8" font-family="Times,serif" font-size="14.00">2392</text>
</g>
<g id="clust1" class="cluster">
<title>cluster2364</title>
<polygon fill="none" stroke="black" points="8,-8 8,-101 95,-101 95,-8 8,-8"/>
<text text-anchor="middle" x="51.5" y="-85.8" font-family="Times,serif" font-size="14.00">2364</text>
</g>
<g id="clust2" class="cluster">
<title>cluster2365</title>
<polygon fill="none" stroke="black" points="131,-8 131,-101 219,-101 219,-8 131,-8"/>
<text text-anchor="middle" x="175" y="-85.8" font-family="Times,serif" font-size="14.00">2365</text>
</g>
<g id="clust3" class="cluster">
<title>cluster2366</title>
<polygon fill="none" stroke="black" points="255,-8 255,-101 343,-101 343,-8 255,-8"/>
<text text-anchor="middle" x="299" y="-85.8" font-family="Times,serif" font-size="14.00">2366</text>
</g>
<g id="clust4" class="cluster">
<title>cluster2367</title>
<polygon fill="none" stroke="black" points="379,-8 379,-101 467,-101 467,-8 379,-8"/>
<text text-anchor="middle" x="423" y="-85.8" font-family="Times,serif" font-size="14.00">2367</text>
</g>
<g id="clust5" class="cluster">
<title>cluster2368</title>
<polygon fill="none" stroke="black" points="503,-8 503,-101 591,-101 591,-8 503,-8"/>
<text text-anchor="middle" x="547" y="-85.8" font-family="Times,serif" font-size="14.00">2368</text>
</g>
<g id="clust6" class="cluster">
<title>cluster2369</title>
<polygon fill="none" stroke="black" points="627,-8 627,-101 715,-101 715,-8 627,-8"/>
<text text-anchor="middle" x="671" y="-85.8" font-family="Times,serif" font-size="14.00">2369</text>
</g>
<g id="clust7" class="cluster">
<title>cluster2370</title>
<polygon fill="none" stroke="black" points="751,-8 751,-101 839,-101 839,-8 751,-8"/>
<text text-anchor="middle" x="795" y="-85.8" font-family="Times,serif" font-size="14.00">2370</text>
</g>
<g id="clust8" class="cluster">
<title>cluster2371</title>
<polygon fill="none" stroke="black" points="875,-8 875,-101 963,-101 963,-8 875,-8"/>
<text text-anchor="middle" x="919" y="-85.8" font-family="Times,serif" font-size="14.00">2371</text>
</g>
<g id="clust9" class="cluster">
<title>cluster2372</title>
<polygon fill="none" stroke="black" points="999,-8 999,-101 1087,-101 1087,-8 999,-8"/>
<text text-anchor="middle" x="1043" y="-85.8" font-family="Times,serif" font-size="14.00">2372</text>
</g>
<g id="clust10" class="cluster">
<title>cluster2373</title>
<polygon fill="none" stroke="black" points="1123,-8 1123,-101 1210,-101 1210,-8 1123,-8"/>
<text text-anchor="middle" x="1166.5" y="-85.8" font-family="Times,serif" font-size="14.00">2373</text>
</g>
<g id="clust11" class="cluster">
<title>cluster2374</title>
<polygon fill="none" stroke="black" points="1246,-8 1246,-101 1334,-101 1334,-8 1246,-8"/>
<text text-anchor="middle" x="1290" y="-85.8" font-family="Times,serif" font-size="14.00">2374</text>
</g>
<g id="clust12" class="cluster">
<title>cluster2375</title>
<polygon fill="none" stroke="black" points="1370,-8 1370,-101 1457,-101 1457,-8 1370,-8"/>
<text text-anchor="middle" x="1413.5" y="-85.8" font-family="Times,serif" font-size="14.00">2375</text>
</g>
<g id="clust13" class="cluster">
<title>cluster2376</title>
<polygon fill="none" stroke="black" points="1493,-8 1493,-101 1580,-101 1580,-8 1493,-8"/>
<text text-anchor="middle" x="1536.5" y="-85.8" font-family="Times,serif" font-size="14.00">2376</text>
</g>
<g id="clust14" class="cluster">
<title>cluster2377</title>
<polygon fill="none" stroke="black" points="1616,-8 1616,-101 1704,-101 1704,-8 1616,-8"/>
<text text-anchor="middle" x="1660" y="-85.8" font-family="Times,serif" font-size="14.00">2377</text>
</g>
<g id="clust15" class="cluster">
<title>cluster2378</title>
<polygon fill="none" stroke="black" points="1740,-8 1740,-101 1828,-101 1828,-8 1740,-8"/>
<text text-anchor="middle" x="1784" y="-85.8" font-family="Times,serif" font-size="14.00">2378</text>
</g>
<g id="clust16" class="cluster">
<title>cluster2379</title>
<polygon fill="none" stroke="black" points="1864,-8 1864,-101 1952,-101 1952,-8 1864,-8"/>
<text text-anchor="middle" x="1908" y="-85.8" font-family="Times,serif" font-size="14.00">2379</text>
</g>
<g id="clust17" class="cluster">
<title>cluster2380</title>
<polygon fill="none" stroke="black" points="1988,-8 1988,-101 2076,-101 2076,-8 1988,-8"/>
<text text-anchor="middle" x="2032" y="-85.8" font-family="Times,serif" font-size="14.00">2380</text>
</g>
<!-- Node0x600000712d30 -->
<g id="node1" class="node">
<title>Node0x600000712d30</title>
<polygon fill="none" stroke="black" points="8,-9 8,-77 95,-77 95,-9 8,-9"/>
<text text-anchor="middle" x="51.5" y="-66.6" font-family="Times,serif" font-size="8.00">word: man</text>
<polyline fill="none" stroke="black" points="8,-60 95,-60 "/>
<text text-anchor="middle" x="51.5" y="-49.6" font-family="Times,serif" font-size="8.00">size: 71</text>
<polyline fill="none" stroke="black" points="8,-43 95,-43 "/>
<text text-anchor="middle" x="51.5" y="-32.6" font-family="Times,serif" font-size="8.00">next: 0x600000716b80</text>
<polyline fill="none" stroke="black" points="8,-26 95,-26 "/>
<text text-anchor="middle" x="51.5" y="-15.6" font-family="Times,serif" font-size="8.00">prev: 0x0</text>
</g>
<!-- Node0x600000716b80 -->
<g id="node2" class="node">
<title>Node0x600000716b80</title>
<polygon fill="none" stroke="black" points="131,-9 131,-77 219,-77 219,-9 131,-9"/>
<text text-anchor="middle" x="175" y="-66.6" font-family="Times,serif" font-size="8.00">word: So</text>
<polyline fill="none" stroke="black" points="131,-60 219,-60 "/>
<text text-anchor="middle" x="175" y="-49.6" font-family="Times,serif" font-size="8.00">size: 28</text>
<polyline fill="none" stroke="black" points="131,-43 219,-43 "/>
<text text-anchor="middle" x="175" y="-32.6" font-family="Times,serif" font-size="8.00">next: 0x600000717180</text>
<polyline fill="none" stroke="black" points="131,-26 219,-26 "/>
<text text-anchor="middle" x="175" y="-15.6" font-family="Times,serif" font-size="8.00">prev: 0x600000712d30</text>
</g>
<!-- Node0x600000712d30&#45;&gt;Node0x600000716b80 -->
<g id="edge1" class="edge">
<title>Node0x600000712d30:n&#45;&gt;Node0x600000716b80:n</title>
<path fill="none" stroke="red" d="M95,-34C107,-34 112.25,-34 120.88,-34"/>
<polygon fill="red" stroke="red" points="121,-37.5 131,-34 121,-30.5 121,-37.5"/>
</g>
<!-- Node0x600000717180 -->
<g id="node3" class="node">
<title>Node0x600000717180</title>
<polygon fill="none" stroke="black" points="255,-9 255,-77 343,-77 343,-9 255,-9"/>
<text text-anchor="middle" x="299" y="-66.6" font-family="Times,serif" font-size="8.00">word: seen</text>
<polyline fill="none" stroke="black" points="255,-60 343,-60 "/>
<text text-anchor="middle" x="299" y="-49.6" font-family="Times,serif" font-size="8.00">size: 6</text>
<polyline fill="none" stroke="black" points="255,-43 343,-43 "/>
<text text-anchor="middle" x="299" y="-32.6" font-family="Times,serif" font-size="8.00">next: 0x600000717540</text>
<polyline fill="none" stroke="black" points="255,-26 343,-26 "/>
<text text-anchor="middle" x="299" y="-15.6" font-family="Times,serif" font-size="8.00">prev: 0x600000716b80</text>
</g>
<!-- Node0x600000716b80&#45;&gt;Node0x600000717180 -->
<g id="edge2" class="edge">
<title>Node0x600000716b80:n&#45;&gt;Node0x600000717180:n</title>
<path fill="none" stroke="red" d="M219,-34C231,-34 236.25,-34 244.88,-34"/>
<polygon fill="red" stroke="red" points="245,-37.5 255,-34 245,-30.5 245,-37.5"/>
</g>
<!-- Node0x600000717540 -->
<g id="node4" class="node">
<title>Node0x600000717540</title>
<polygon fill="none" stroke="black" points="379,-9 379,-77 467,-77 467,-9 379,-9"/>
<text text-anchor="middle" x="423" y="-66.6" font-family="Times,serif" font-size="8.00">word: light</text>
<polyline fill="none" stroke="black" points="379,-60 467,-60 "/>
<text text-anchor="middle" x="423" y="-49.6" font-family="Times,serif" font-size="8.00">size: 28</text>
<polyline fill="none" stroke="black" points="379,-43 467,-43 "/>
<text text-anchor="middle" x="423" y="-32.6" font-family="Times,serif" font-size="8.00">next: 0x600000718210</text>
<polyline fill="none" stroke="black" points="379,-26 467,-26 "/>
<text text-anchor="middle" x="423" y="-15.6" font-family="Times,serif" font-size="8.00">prev: 0x600000717180</text>
</g>
<!-- Node0x600000717180&#45;&gt;Node0x600000717540 -->
<g id="edge3" class="edge">
<title>Node0x600000717180:n&#45;&gt;Node0x600000717540:n</title>
<path fill="none" stroke="red" d="M343,-34C355,-34 360.25,-34 368.88,-34"/>
<polygon fill="red" stroke="red" points="369,-37.5 379,-34 369,-30.5 369,-37.5"/>
</g>
<!-- Node0x600000718210 -->
<g id="node5" class="node">
<title>Node0x600000718210</title>
<polygon fill="none" stroke="black" points="503,-9 503,-77 591,-77 591,-9 503,-9"/>
<text text-anchor="middle" x="547" y="-66.6" font-family="Times,serif" font-size="8.00">word: Good</text>
<polyline fill="none" stroke="black" points="503,-60 591,-60 "/>
<text text-anchor="middle" x="547" y="-49.6" font-family="Times,serif" font-size="8.00">size: 22</text>
<polyline fill="none" stroke="black" points="503,-43 591,-43 "/>
<text text-anchor="middle" x="547" y="-32.6" font-family="Times,serif" font-size="8.00">next: 0x600000719740</text>
<polyline fill="none" stroke="black" points="503,-26 591,-26 "/>
<text text-anchor="middle" x="547" y="-15.6" font-family="Times,serif" font-size="8.00">prev: 0x600000717540</text>
</g>
<!-- Node0x600000717540&#45;&gt;Node0x600000718210 -->
<g id="edge4" class="edge">
<title>Node0x600000717540:n&#45;&gt;Node0x600000718210:n</title>
<path fill="none" stroke="red" d="M467,-34C479,-34 484.25,-34 492.88,-34"/>
<polygon fill="red" stroke="red" points="493,-37.5 503,-34 493,-30.5 493,-37.5"/>
</g>
<!-- Node0x600000719740 -->
<g id="node6" class="node">
<title>Node0x600000719740</title>
<polygon fill="none" stroke="black" points="627,-9 627,-77 715,-77 715,-9 627,-9"/>
<text text-anchor="middle" x="671" y="-66.6" font-family="Times,serif" font-size="8.00">word: woman</text>
<polyline fill="none" stroke="black" points="627,-60 715,-60 "/>
<text text-anchor="middle" x="671" y="-49.6" font-family="Times,serif" font-size="8.00">size: 3</text>
<polyline fill="none" stroke="black" points="627,-43 715,-43 "/>
<text text-anchor="middle" x="671" y="-32.6" font-family="Times,serif" font-size="8.00">next: 0x600000708d20</text>
<polyline fill="none" stroke="black" points="627,-26 715,-26 "/>
<text text-anchor="middle" x="671" y="-15.6" font-family="Times,serif" font-size="8.00">prev: 0x600000718210</text>
</g>
<!-- Node0x600000718210&#45;&gt;Node0x600000719740 -->
<g id="edge5" class="edge">
<title>Node0x600000718210:n&#45;&gt;Node0x600000719740:n</title>
<path fill="none" stroke="red" d="M591,-34C603,-34 608.25,-34 616.88,-34"/>
<polygon fill="red" stroke="red" points="617,-37.5 627,-34 617,-30.5 617,-37.5"/>
</g>
<!-- Node0x600000708d20 -->
<g id="node7" class="node">
<title>Node0x600000708d20</title>
<polygon fill="none" stroke="black" points="751,-9 751,-77 839,-77 839,-9 751,-9"/>
<text text-anchor="middle" x="795" y="-66.6" font-family="Times,serif" font-size="8.00">word: waddled</text>
<polyline fill="none" stroke="black" points="751,-60 839,-60 "/>
<text text-anchor="middle" x="795" y="-49.6" font-family="Times,serif" font-size="8.00">size: 1</text>
<polyline fill="none" stroke="black" points="751,-43 839,-43 "/>
<text text-anchor="middle" x="795" y="-32.6" font-family="Times,serif" font-size="8.00">next: 0x600000704450</text>
<polyline fill="none" stroke="black" points="751,-26 839,-26 "/>
<text text-anchor="middle" x="795" y="-15.6" font-family="Times,serif" font-size="8.00">prev: 0x600000719740</text>
</g>
<!-- Node0x600000719740&#45;&gt;Node0x600000708d20 -->
<g id="edge6" class="edge">
<title>Node0x600000719740:n&#45;&gt;Node0x600000708d20:n</title>
<path fill="none" stroke="red" d="M715,-34C727,-34 732.25,-34 740.88,-34"/>
<polygon fill="red" stroke="red" points="741,-37.5 751,-34 741,-30.5 741,-37.5"/>
</g>
<!-- Node0x600000704450 -->
<g id="node8" class="node">
<title>Node0x600000704450</title>
<polygon fill="none" stroke="black" points="875,-9 875,-77 963,-77 963,-9 875,-9"/>
<text text-anchor="middle" x="919" y="-66.6" font-family="Times,serif" font-size="8.00">word: gives</text>
<polyline fill="none" stroke="black" points="875,-60 963,-60 "/>
<text text-anchor="middle" x="919" y="-49.6" font-family="Times,serif" font-size="8.00">size: 5</text>
<polyline fill="none" stroke="black" points="875,-43 963,-43 "/>
<text text-anchor="middle" x="919" y="-32.6" font-family="Times,serif" font-size="8.00">next: 0x60000071dbf0</text>
<polyline fill="none" stroke="black" points="875,-26 963,-26 "/>
<text text-anchor="middle" x="919" y="-15.6" font-family="Times,serif" font-size="8.00">prev: 0x600000708d20</text>
</g>
<!-- Node0x600000708d20&#45;&gt;Node0x600000704450 -->
<g id="edge7" class="edge">
<title>Node0x600000708d20:n&#45;&gt;Node0x600000704450:n</title>
<path fill="none" stroke="red" d="M839,-34C851,-34 856.25,-34 864.88,-34"/>
<polygon fill="red" stroke="red" points="865,-37.5 875,-34 865,-30.5 865,-37.5"/>
</g>
<!-- Node0x60000071dbf0 -->
<g id="node9" class="node">
<title>Node0x60000071dbf0</title>
<polygon fill="none" stroke="black" points="999,-9 999,-77 1087,-77 1087,-9 999,-9"/>
<text text-anchor="middle" x="1043" y="-66.6" font-family="Times,serif" font-size="8.00">word: breaches</text>
<polyline fill="none" stroke="black" points="999,-60 1087,-60 "/>
<text text-anchor="middle" x="1043" y="-49.6" font-family="Times,serif" font-size="8.00">size: 1</text>
<polyline fill="none" stroke="black" points="999,-43 1087,-43 "/>
<text text-anchor="middle" x="1043" y="-32.6" font-family="Times,serif" font-size="8.00">next: 0x60000071e0d0</text>
<polyline fill="none" stroke="black" points="999,-26 1087,-26 "/>
<text text-anchor="middle" x="1043" y="-15.6" font-family="Times,serif" font-size="8.00">prev: 0x600000704450</text>
</g>
<!-- Node0x600000704450&#45;&gt;Node0x60000071dbf0 -->
<g id="edge8" class="edge">
<title>Node0x600000704450:n&#45;&gt;Node0x60000071dbf0:n</title>
<path fill="none" stroke="red" d="M963,-34C975,-34 980.25,-34 988.88,-34"/>
<polygon fill="red" stroke="red" points="989,-37.5 999,-34 989,-30.5 989,-37.5"/>
</g>
<!-- Node0x60000071e0d0 -->
<g id="node10" class="node">
<title>Node0x60000071e0d0</title>
<polygon fill="none" stroke="black" points="1123,-9 1123,-77 1210,-77 1210,-9 1123,-9"/>
<text text-anchor="middle" x="1166.5" y="-66.6" font-family="Times,serif" font-size="8.00">word: bodes</text>
<polyline fill="none" stroke="black" points="1123,-60 1210,-60 "/>
<text text-anchor="middle" x="1166.5" y="-49.6" font-family="Times,serif" font-size="8.00">size: 1</text>
<polyline fill="none" stroke="black" points="1123,-43 1210,-43 "/>
<text text-anchor="middle" x="1166.5" y="-32.6" font-family="Times,serif" font-size="8.00">next: 0x60000071fa20</text>
<polyline fill="none" stroke="black" points="1123,-26 1210,-26 "/>
<text text-anchor="middle" x="1166.5" y="-15.6" font-family="Times,serif" font-size="8.00">prev: 0x60000071dbf0</text>
</g>
<!-- Node0x60000071dbf0&#45;&gt;Node0x60000071e0d0 -->
<g id="edge9" class="edge">
<title>Node0x60000071dbf0:n&#45;&gt;Node0x60000071e0d0:n</title>
<path fill="none" stroke="red" d="M1087,-34C1099,-34 1104.25,-34 1112.88,-34"/>
<polygon fill="red" stroke="red" points="1113,-37.5 1123,-34 1113,-30.5 1113,-37.5"/>
</g>
<!-- Node0x60000071fa20 -->
<g id="node11" class="node">
<title>Node0x60000071fa20</title>
<polygon fill="none" stroke="black" points="1246,-9 1246,-77 1334,-77 1334,-9 1246,-9"/>
<text text-anchor="middle" x="1290" y="-66.6" font-family="Times,serif" font-size="8.00">word: jewel</text>
<polyline fill="none" stroke="black" points="1246,-60 1334,-60 "/>
<text text-anchor="middle" x="1290" y="-49.6" font-family="Times,serif" font-size="8.00">size: 1</text>
<polyline fill="none" stroke="black" points="1246,-43 1334,-43 "/>
<text text-anchor="middle" x="1290" y="-32.6" font-family="Times,serif" font-size="8.00">next: 0x60000070c0f0</text>
<polyline fill="none" stroke="black" points="1246,-26 1334,-26 "/>
<text text-anchor="middle" x="1290" y="-15.6" font-family="Times,serif" font-size="8.00">prev: 0x60000071e0d0</text>
</g>
<!-- Node0x60000071e0d0&#45;&gt;Node0x60000071fa20 -->
<g id="edge10" class="edge">
<title>Node0x60000071e0d0:n&#45;&gt;Node0x60000071fa20:n</title>
<path fill="none" stroke="red" d="M1210,-34C1222,-34 1227.25,-34 1235.88,-34"/>
<polygon fill="red" stroke="red" points="1236,-37.5 1246,-34 1236,-30.5 1236,-37.5"/>
</g>
<!-- Node0x60000070c0f0 -->
<g id="node12" class="node">
<title>Node0x60000070c0f0</title>
<polygon fill="none" stroke="black" points="1370,-9 1370,-77 1457,-77 1457,-9 1370,-9"/>
<text text-anchor="middle" x="1413.5" y="-66.6" font-family="Times,serif" font-size="8.00">word: virtuous</text>
<polyline fill="none" stroke="black" points="1370,-60 1457,-60 "/>
<text text-anchor="middle" x="1413.5" y="-49.6" font-family="Times,serif" font-size="8.00">size: 3</text>
<polyline fill="none" stroke="black" points="1370,-43 1457,-43 "/>
<text text-anchor="middle" x="1413.5" y="-32.6" font-family="Times,serif" font-size="8.00">next: 0x600000702640</text>
<polyline fill="none" stroke="black" points="1370,-26 1457,-26 "/>
<text text-anchor="middle" x="1413.5" y="-15.6" font-family="Times,serif" font-size="8.00">prev: 0x60000071fa20</text>
</g>
<!-- Node0x60000071fa20&#45;&gt;Node0x60000070c0f0 -->
<g id="edge11" class="edge">
<title>Node0x60000071fa20:n&#45;&gt;Node0x60000070c0f0:n</title>
<path fill="none" stroke="red" d="M1334,-34C1346,-34 1351.25,-34 1359.88,-34"/>
<polygon fill="red" stroke="red" points="1360,-37.5 1370,-34 1360,-30.5 1360,-37.5"/>
</g>
<!-- Node0x600000702640 -->
<g id="node13" class="node">
<title>Node0x600000702640</title>
<polygon fill="none" stroke="black" points="1493,-9 1493,-77 1580,-77 1580,-9 1493,-9"/>
<text text-anchor="middle" x="1536.5" y="-66.6" font-family="Times,serif" font-size="8.00">word: wear</text>
<polyline fill="none" stroke="black" points="1493,-60 1580,-60 "/>
<text text-anchor="middle" x="1536.5" y="-49.6" font-family="Times,serif" font-size="8.00">size: 4</text>
<polyline fill="none" stroke="black" points="1493,-43 1580,-43 "/>
<text text-anchor="middle" x="1536.5" y="-32.6" font-family="Times,serif" font-size="8.00">next: 0x600000702ac0</text>
<polyline fill="none" stroke="black" points="1493,-26 1580,-26 "/>
<text text-anchor="middle" x="1536.5" y="-15.6" font-family="Times,serif" font-size="8.00">prev: 0x60000070c0f0</text>
</g>
<!-- Node0x60000070c0f0&#45;&gt;Node0x600000702640 -->
<g id="edge12" class="edge">
<title>Node0x60000070c0f0:n&#45;&gt;Node0x600000702640:n</title>
<path fill="none" stroke="red" d="M1457,-34C1469,-34 1474.25,-34 1482.88,-34"/>
<polygon fill="red" stroke="red" points="1483,-37.5 1493,-34 1483,-30.5 1483,-37.5"/>
</g>
<!-- Node0x600000702ac0 -->
<g id="node14" class="node">
<title>Node0x600000702ac0</title>
<polygon fill="none" stroke="black" points="1616,-9 1616,-77 1704,-77 1704,-9 1616,-9"/>
<text text-anchor="middle" x="1660" y="-66.6" font-family="Times,serif" font-size="8.00">word: angel</text>
<polyline fill="none" stroke="black" points="1616,-60 1704,-60 "/>
<text text-anchor="middle" x="1660" y="-49.6" font-family="Times,serif" font-size="8.00">size: 1</text>
<polyline fill="none" stroke="black" points="1616,-43 1704,-43 "/>
<text text-anchor="middle" x="1660" y="-32.6" font-family="Times,serif" font-size="8.00">next: 0x600000702eb0</text>
<polyline fill="none" stroke="black" points="1616,-26 1704,-26 "/>
<text text-anchor="middle" x="1660" y="-15.6" font-family="Times,serif" font-size="8.00">prev: 0x600000702640</text>
</g>
<!-- Node0x600000702640&#45;&gt;Node0x600000702ac0 -->
<g id="edge13" class="edge">
<title>Node0x600000702640:n&#45;&gt;Node0x600000702ac0:n</title>
<path fill="none" stroke="red" d="M1580,-34C1592,-34 1597.25,-34 1605.88,-34"/>
<polygon fill="red" stroke="red" points="1606,-37.5 1616,-34 1606,-30.5 1606,-37.5"/>
</g>
<!-- Node0x600000702eb0 -->
<g id="node15" class="node">
<title>Node0x600000702eb0</title>
<polygon fill="none" stroke="black" points="1740,-9 1740,-77 1828,-77 1828,-9 1740,-9"/>
<text text-anchor="middle" x="1784" y="-66.6" font-family="Times,serif" font-size="8.00">word: Retain</text>
<polyline fill="none" stroke="black" points="1740,-60 1828,-60 "/>
<text text-anchor="middle" x="1784" y="-49.6" font-family="Times,serif" font-size="8.00">size: 1</text>
<polyline fill="none" stroke="black" points="1740,-43 1828,-43 "/>
<text text-anchor="middle" x="1784" y="-32.6" font-family="Times,serif" font-size="8.00">next: 0x600000732430</text>
<polyline fill="none" stroke="black" points="1740,-26 1828,-26 "/>
<text text-anchor="middle" x="1784" y="-15.6" font-family="Times,serif" font-size="8.00">prev: 0x600000702ac0</text>
</g>
<!-- Node0x600000702ac0&#45;&gt;Node0x600000702eb0 -->
<g id="edge14" class="edge">
<title>Node0x600000702ac0:n&#45;&gt;Node0x600000702eb0:n</title>
<path fill="none" stroke="red" d="M1704,-34C1716,-34 1721.25,-34 1729.88,-34"/>
<polygon fill="red" stroke="red" points="1730,-37.5 1740,-34 1730,-30.5 1730,-37.5"/>
</g>
<!-- Node0x600000732430 -->
<g id="node16" class="node">
<title>Node0x600000732430</title>
<polygon fill="none" stroke="black" points="1864,-9 1864,-77 1952,-77 1952,-9 1864,-9"/>
<text text-anchor="middle" x="1908" y="-66.6" font-family="Times,serif" font-size="8.00">word: lo</text>
<polyline fill="none" stroke="black" points="1864,-60 1952,-60 "/>
<text text-anchor="middle" x="1908" y="-49.6" font-family="Times,serif" font-size="8.00">size: 2</text>
<polyline fill="none" stroke="black" points="1864,-43 1952,-43 "/>
<text text-anchor="middle" x="1908" y="-32.6" font-family="Times,serif" font-size="8.00">next: 0x600000735830</text>
<polyline fill="none" stroke="black" points="1864,-26 1952,-26 "/>
<text text-anchor="middle" x="1908" y="-15.6" font-family="Times,serif" font-size="8.00">prev: 0x600000702eb0</text>
</g>
<!-- Node0x600000702eb0&#45;&gt;Node0x600000732430 -->
<g id="edge15" class="edge">
<title>Node0x600000702eb0:n&#45;&gt;Node0x600000732430:n</title>
<path fill="none" stroke="red" d="M1828,-34C1840,-34 1845.25,-34 1853.88,-34"/>
<polygon fill="red" stroke="red" points="1854,-37.5 1864,-34 1854,-30.5 1854,-37.5"/>
</g>
<!-- Node0x600000735830 -->
<g id="node17" class="node">
<title>Node0x600000735830</title>
<polygon fill="none" stroke="black" points="1988,-9 1988,-77 2076,-77 2076,-9 1988,-9"/>
<text text-anchor="middle" x="2032" y="-66.6" font-family="Times,serif" font-size="8.00">word: cords</text>
<polyline fill="none" stroke="black" points="1988,-60 2076,-60 "/>
<text text-anchor="middle" x="2032" y="-49.6" font-family="Times,serif" font-size="8.00">size: 6</text>
<polyline fill="none" stroke="black" points="1988,-43 2076,-43 "/>
<text text-anchor="middle" x="2032" y="-32.6" font-family="Times,serif" font-size="8.00">next: 0x600000736ee0</text>
<polyline fill="none" stroke="black" points="1988,-26 2076,-26 "/>
<text text-anchor="middle" x="2032" y="-15.6" font-family="Times,serif" font-size="8.00">prev: 0x600000732430</text>
</g>
<!-- Node0x600000732430&#45;&gt;Node0x600000735830 -->
<g id="edge16" class="edge">
<title>Node0x600000732430:n&#45;&gt;Node0x600000735830:n</title>
<path fill="none" stroke="red" d="M1952,-34C1964,-34 1969.25,-34 1977.88,-34"/>
<polygon fill="red" stroke="red" points="1978,-37.5 1988,-34 1978,-30.5 1978,-37.5"/>
</g>
<!-- Node0x600000736ee0 -->
<g id="node18" class="node">
<title>Node0x600000736ee0</title>
<polygon fill="none" stroke="black" points="2112,-9 2112,-77 2200,-77 2200,-9 2112,-9"/>
<text text-anchor="middle" x="2156" y="-66.6" font-family="Times,serif" font-size="8.00">word: confounds</text>
<polyline fill="none" stroke="black" points="2112,-60 2200,-60 "/>
<text text-anchor="middle" x="2156" y="-49.6" font-family="Times,serif" font-size="8.00">size: 1</text>
<polyline fill="none" stroke="black" points="2112,-43 2200,-43 "/>
<text text-anchor="middle" x="2156" y="-32.6" font-family="Times,serif" font-size="8.00">next: 0x600000738750</text>
<polyline fill="none" stroke="black" points="2112,-26 2200,-26 "/>
<text text-anchor="middle" x="2156" y="-15.6" font-family="Times,serif" font-size="8.00">prev: 0x600000735830</text>
</g>
<!-- Node0x600000735830&#45;&gt;Node0x600000736ee0 -->
<g id="edge17" class="edge">
<title>Node0x600000735830:n&#45;&gt;Node0x600000736ee0:n</title>
<path fill="none" stroke="red" d="M2076,-34C2088,-34 2093.25,-34 2101.88,-34"/>
<polygon fill="red" stroke="red" points="2102,-37.5 2112,-34 2102,-30.5 2102,-37.5"/>
</g>
<!-- Node0x600000738750 -->
<g id="node19" class="node">
<title>Node0x600000738750</title>
<polygon fill="none" stroke="black" points="2236,-9 2236,-77 2324,-77 2324,-9 2236,-9"/>
<text text-anchor="middle" x="2280" y="-66.6" font-family="Times,serif" font-size="8.00">word: braggart</text>
<polyline fill="none" stroke="black" points="2236,-60 2324,-60 "/>
<text text-anchor="middle" x="2280" y="-49.6" font-family="Times,serif" font-size="8.00">size: 1</text>
<polyline fill="none" stroke="black" points="2236,-43 2324,-43 "/>
<text text-anchor="middle" x="2280" y="-32.6" font-family="Times,serif" font-size="8.00">next: 0x600000738bd0</text>
<polyline fill="none" stroke="black" points="2236,-26 2324,-26 "/>
<text text-anchor="middle" x="2280" y="-15.6" font-family="Times,serif" font-size="8.00">prev: 0x600000736ee0</text>
</g>
<!-- Node0x600000736ee0&#45;&gt;Node0x600000738750 -->
<g id="edge18" class="edge">
<title>Node0x600000736ee0:n&#45;&gt;Node0x600000738750:n</title>
<path fill="none" stroke="red" d="M2200,-34C2212,-34 2217.25,-34 2225.88,-34"/>
<polygon fill="red" stroke="red" points="2226,-37.5 2236,-34 2226,-30.5 2226,-37.5"/>
</g>
<!-- Node0x600000738bd0 -->
<g id="node20" class="node">
<title>Node0x600000738bd0</title>
<polygon fill="none" stroke="black" points="2360,-9 2360,-77 2448,-77 2448,-9 2360,-9"/>
<text text-anchor="middle" x="2404" y="-66.6" font-family="Times,serif" font-size="8.00">word: slain</text>
<polyline fill="none" stroke="black" points="2360,-60 2448,-60 "/>
<text text-anchor="middle" x="2404" y="-49.6" font-family="Times,serif" font-size="8.00">size: 17</text>
<polyline fill="none" stroke="black" points="2360,-43 2448,-43 "/>
<text text-anchor="middle" x="2404" y="-32.6" font-family="Times,serif" font-size="8.00">next: 0x600000738f00</text>
<polyline fill="none" stroke="black" points="2360,-26 2448,-26 "/>
<text text-anchor="middle" x="2404" y="-15.6" font-family="Times,serif" font-size="8.00">prev: 0x600000738750</text>
</g>
<!-- Node0x600000738750&#45;&gt;Node0x600000738bd0 -->
<g id="edge19" class="edge">
<title>Node0x600000738750:n&#45;&gt;Node0x600000738bd0:n</title>
<path fill="none" stroke="red" d="M2324,-34C2336,-34 2341.25,-34 2349.88,-34"/>
<polygon fill="red" stroke="red" points="2350,-37.5 2360,-34 2350,-30.5 2350,-37.5"/>
</g>
<!-- Node0x600000738f00 -->
<g id="node21" class="node">
<title>Node0x600000738f00</title>
<polygon fill="none" stroke="black" points="2484,-9 2484,-77 2572,-77 2572,-9 2484,-9"/>
<text text-anchor="middle" x="2528" y="-66.6" font-family="Times,serif" font-size="8.00">word: charge</text>
<polyline fill="none" stroke="black" points="2484,-60 2572,-60 "/>
<text text-anchor="middle" x="2528" y="-49.6" font-family="Times,serif" font-size="8.00">size: 3</text>
<polyline fill="none" stroke="black" points="2484,-43 2572,-43 "/>
<text text-anchor="middle" x="2528" y="-32.6" font-family="Times,serif" font-size="8.00">next: 0x600000738f60</text>
<polyline fill="none" stroke="black" points="2484,-26 2572,-26 "/>
<text text-anchor="middle" x="2528" y="-15.6" font-family="Times,serif" font-size="8.00">prev: 0x600000738bd0</text>
</g>
<!-- Node0x600000738bd0&#45;&gt;Node0x600000738f00 -->
<g id="edge20" class="edge">
<title>Node0x600000738bd0:n&#45;&gt;Node0x600000738f00:n</title>
<path fill="none" stroke="red" d="M2448,-34C2460,-34 2465.25,-34 2473.88,-34"/>
<polygon fill="red" stroke="red" points="2474,-37.5 2484,-34 2474,-30.5 2474,-37.5"/>
</g>
<!-- Node0x600000738f60 -->
<g id="node22" class="node">
<title>Node0x600000738f60</title>
<polygon fill="none" stroke="black" points="2608,-9 2608,-77 2695,-77 2695,-9 2608,-9"/>
<text text-anchor="middle" x="2651.5" y="-66.6" font-family="Times,serif" font-size="8.00">word: PRINCE</text>
<polyline fill="none" stroke="black" points="2608,-60 2695,-60 "/>
<text text-anchor="middle" x="2651.5" y="-49.6" font-family="Times,serif" font-size="8.00">size: 2</text>
<polyline fill="none" stroke="black" points="2608,-43 2695,-43 "/>
<text text-anchor="middle" x="2651.5" y="-32.6" font-family="Times,serif" font-size="8.00">next: 0x60000073e160</text>
<polyline fill="none" stroke="black" points="2608,-26 2695,-26 "/>
<text text-anchor="middle" x="2651.5" y="-15.6" font-family="Times,serif" font-size="8.00">prev: 0x600000738f00</text>
</g>
<!-- Node0x600000738f00&#45;&gt;Node0x600000738f60 -->
<g id="edge21" class="edge">
<title>Node0x600000738f00:n&#45;&gt;Node0x600000738f60:n</title>
<path fill="none" stroke="red" d="M2572,-34C2584,-34 2589.25,-34 2597.88,-34"/>
<polygon fill="red" stroke="red" points="2598,-37.5 2608,-34 2598,-30.5 2598,-37.5"/>
</g>
<!-- Node0x60000073e160 -->
<g id="node23" class="node">
<title>Node0x60000073e160</title>
<polygon fill="none" stroke="black" points="2731,-9 2731,-77 2818,-77 2818,-9 2731,-9"/>
<text text-anchor="middle" x="2774.5" y="-66.6" font-family="Times,serif" font-size="8.00">word: affray</text>
<polyline fill="none" stroke="black" points="2731,-60 2818,-60 "/>
<text text-anchor="middle" x="2774.5" y="-49.6" font-family="Times,serif" font-size="8.00">size: 1</text>
<polyline fill="none" stroke="black" points="2731,-43 2818,-43 "/>
<text text-anchor="middle" x="2774.5" y="-32.6" font-family="Times,serif" font-size="8.00">next: 0x60000073eb80</text>
<polyline fill="none" stroke="black" points="2731,-26 2818,-26 "/>
<text text-anchor="middle" x="2774.5" y="-15.6" font-family="Times,serif" font-size="8.00">prev: 0x600000738f60</text>
</g>
<!-- Node0x600000738f60&#45;&gt;Node0x60000073e160 -->
<g id="edge22" class="edge">
<title>Node0x600000738f60:n&#45;&gt;Node0x60000073e160:n</title>
<path fill="none" stroke="red" d="M2695,-34C2707,-34 2712.25,-34 2720.88,-34"/>
<polygon fill="red" stroke="red" points="2721,-37.5 2731,-34 2721,-30.5 2721,-37.5"/>
</g>
<!-- Node0x60000073eb80 -->
<g id="node24" class="node">
<title>Node0x60000073eb80</title>
<polygon fill="none" stroke="black" points="2854,-9 2854,-77 2942,-77 2942,-9 2854,-9"/>
<text text-anchor="middle" x="2898" y="-66.6" font-family="Times,serif" font-size="8.00">word: wed</text>
<polyline fill="none" stroke="black" points="2854,-60 2942,-60 "/>
<text text-anchor="middle" x="2898" y="-49.6" font-family="Times,serif" font-size="8.00">size: 3</text>
<polyline fill="none" stroke="black" points="2854,-43 2942,-43 "/>
<text text-anchor="middle" x="2898" y="-32.6" font-family="Times,serif" font-size="8.00">next: 0x60000073ed90</text>
<polyline fill="none" stroke="black" points="2854,-26 2942,-26 "/>
<text text-anchor="middle" x="2898" y="-15.6" font-family="Times,serif" font-size="8.00">prev: 0x60000073e160</text>
</g>
<!-- Node0x60000073e160&#45;&gt;Node0x60000073eb80 -->
<g id="edge23" class="edge">
<title>Node0x60000073e160:n&#45;&gt;Node0x60000073eb80:n</title>
<path fill="none" stroke="red" d="M2818,-34C2830,-34 2835.25,-34 2843.88,-34"/>
<polygon fill="red" stroke="red" points="2844,-37.5 2854,-34 2844,-30.5 2844,-37.5"/>
</g>
<!-- Node0x60000073ed90 -->
<g id="node25" class="node">
<title>Node0x60000073ed90</title>
<polygon fill="none" stroke="black" points="2978,-9 2978,-77 3066,-77 3066,-9 2978,-9"/>
<text text-anchor="middle" x="3022" y="-66.6" font-family="Times,serif" font-size="8.00">word: Sailing</text>
<polyline fill="none" stroke="black" points="2978,-60 3066,-60 "/>
<text text-anchor="middle" x="3022" y="-49.6" font-family="Times,serif" font-size="8.00">size: 1</text>
<polyline fill="none" stroke="black" points="2978,-43 3066,-43 "/>
<text text-anchor="middle" x="3022" y="-32.6" font-family="Times,serif" font-size="8.00">next: 0x600000720ab0</text>
<polyline fill="none" stroke="black" points="2978,-26 3066,-26 "/>
<text text-anchor="middle" x="3022" y="-15.6" font-family="Times,serif" font-size="8.00">prev: 0x60000073eb80</text>
</g>
<!-- Node0x60000073eb80&#45;&gt;Node0x60000073ed90 -->
<g id="edge24" class="edge">
<title>Node0x60000073eb80:n&#45;&gt;Node0x60000073ed90:n</title>
<path fill="none" stroke="red" d="M2942,-34C2954,-34 2959.25,-34 2967.88,-34"/>
<polygon fill="red" stroke="red" points="2968,-37.5 2978,-34 2968,-30.5 2968,-37.5"/>
</g>
<!-- Node0x600000720ab0 -->
<g id="node26" class="node">
<title>Node0x600000720ab0</title>
<polygon fill="none" stroke="black" points="3102,-9 3102,-77 3190,-77 3190,-9 3102,-9"/>
<text text-anchor="middle" x="3146" y="-66.6" font-family="Times,serif" font-size="8.00">word: chain</text>
<polyline fill="none" stroke="black" points="3102,-60 3190,-60 "/>
<text text-anchor="middle" x="3146" y="-49.6" font-family="Times,serif" font-size="8.00">size: 1</text>
<polyline fill="none" stroke="black" points="3102,-43 3190,-43 "/>
<text text-anchor="middle" x="3146" y="-32.6" font-family="Times,serif" font-size="8.00">next: 0x60000070c480</text>
<polyline fill="none" stroke="black" points="3102,-26 3190,-26 "/>
<text text-anchor="middle" x="3146" y="-15.6" font-family="Times,serif" font-size="8.00">prev: 0x60000073ed90</text>
</g>
<!-- Node0x60000073ed90&#45;&gt;Node0x600000720ab0 -->
<g id="edge25" class="edge">
<title>Node0x60000073ed90:n&#45;&gt;Node0x600000720ab0:n</title>
<path fill="none" stroke="red" d="M3066,-34C3078,-34 3083.25,-34 3091.88,-34"/>
<polygon fill="red" stroke="red" points="3092,-37.5 3102,-34 3092,-30.5 3092,-37.5"/>
</g>
<!-- Node0x60000070c480 -->
<g id="node27" class="node">
<title>Node0x60000070c480</title>
<polygon fill="none" stroke="black" points="3226,-9 3226,-77 3314,-77 3314,-9 3226,-9"/>
<text text-anchor="middle" x="3270" y="-66.6" font-family="Times,serif" font-size="8.00">word: sort</text>
<polyline fill="none" stroke="black" points="3226,-60 3314,-60 "/>
<text text-anchor="middle" x="3270" y="-49.6" font-family="Times,serif" font-size="8.00">size: 1</text>
<polyline fill="none" stroke="black" points="3226,-43 3314,-43 "/>
<text text-anchor="middle" x="3270" y="-32.6" font-family="Times,serif" font-size="8.00">next: 0x600000726160</text>
<polyline fill="none" stroke="black" points="3226,-26 3314,-26 "/>
<text text-anchor="middle" x="3270" y="-15.6" font-family="Times,serif" font-size="8.00">prev: 0x600000720ab0</text>
</g>
<!-- Node0x600000720ab0&#45;&gt;Node0x60000070c480 -->
<g id="edge26" class="edge">
<title>Node0x600000720ab0:n&#45;&gt;Node0x60000070c480:n</title>
<path fill="none" stroke="red" d="M3190,-34C3202,-34 3207.25,-34 3215.88,-34"/>
<polygon fill="red" stroke="red" points="3216,-37.5 3226,-34 3216,-30.5 3216,-37.5"/>
</g>
<!-- Node0x600000726160 -->
<g id="node28" class="node">
<title>Node0x600000726160</title>
<polygon fill="none" stroke="black" points="3350,-9 3350,-77 3438,-77 3438,-9 3350,-9"/>
<text text-anchor="middle" x="3394" y="-66.6" font-family="Times,serif" font-size="8.00">word: lantern</text>
<polyline fill="none" stroke="black" points="3350,-60 3438,-60 "/>
<text text-anchor="middle" x="3394" y="-49.6" font-family="Times,serif" font-size="8.00">size: 1</text>
<polyline fill="none" stroke="black" points="3350,-43 3438,-43 "/>
<text text-anchor="middle" x="3394" y="-32.6" font-family="Times,serif" font-size="8.00">next: 0x600000726ee0</text>
<polyline fill="none" stroke="black" points="3350,-26 3438,-26 "/>
<text text-anchor="middle" x="3394" y="-15.6" font-family="Times,serif" font-size="8.00">prev: 0x60000070c480</text>
</g>
<!-- Node0x60000070c480&#45;&gt;Node0x600000726160 -->
<g id="edge27" class="edge">
<title>Node0x60000070c480:n&#45;&gt;Node0x600000726160:n</title>
<path fill="none" stroke="red" d="M3314,-34C3326,-34 3331.25,-34 3339.88,-34"/>
<polygon fill="red" stroke="red" points="3340,-37.5 3350,-34 3340,-30.5 3340,-37.5"/>
</g>
<!-- Node0x600000726ee0 -->
<g id="node29" class="node">
<title>Node0x600000726ee0</title>
<polygon fill="none" stroke="black" points="3474,-9 3474,-77 3562,-77 3562,-9 3474,-9"/>
<text text-anchor="middle" x="3518" y="-66.6" font-family="Times,serif" font-size="8.00">word: stopp</text>
<polyline fill="none" stroke="black" points="3474,-60 3562,-60 "/>
<text text-anchor="middle" x="3518" y="-49.6" font-family="Times,serif" font-size="8.00">size: 1</text>
<polyline fill="none" stroke="black" points="3474,-43 3562,-43 "/>
<text text-anchor="middle" x="3518" y="-32.6" font-family="Times,serif" font-size="8.00">next: 0x0</text>
<polyline fill="none" stroke="black" points="3474,-26 3562,-26 "/>
<text text-anchor="middle" x="3518" y="-15.6" font-family="Times,serif" font-size="8.00">prev: 0x600000726160</text>
</g>
<!-- Node0x600000726160&#45;&gt;Node0x600000726ee0 -->
<g id="edge28" class="edge">
<title>Node0x600000726160:n&#45;&gt;Node0x600000726ee0:n</title>
<path fill="none" stroke="red" d="M3438,-34C3450,-34 3455.25,-34 3463.88,-34"/>
<polygon fill="red" stroke="red" points="3464,-37.5 3474,-34 3464,-30.5 3464,-37.5"/>
</g>
</g>
</svg>
