<?xml version="1.0" encoding="UTF-8" standalone="no"?>
<!DOCTYPE svg PUBLIC "-//W3C//DTD SVG 1.1//EN"
 "http://www.w3.org/Graphics/SVG/1.1/DTD/svg11.dtd">
<!-- Generated by graphviz version 2.50.0 (20211204.2007)
 -->
<!-- Title: G Pages: 1 -->
<svg width="3578pt" height="117pt"
 viewBox="0.00 0.00 3578.00 117.00" xmlns="http://www.w3.org/2000/svg" xmlns:xlink="http://www.w3.org/1999/xlink">
<g id="graph0" class="graph" transform="scale(1 1) rotate(0) translate(4 113)">
<title>G</title>
<polygon fill="white" stroke="transparent" points="-4,4 -4,-113 3574,-113 3574,4 -4,4"/>
<g id="clust1" class="cluster">
<title>cluster4071</title>
<polygon fill="none" stroke="black" points="8,-8 8,-101 95,-101 95,-8 8,-8"/>
<text text-anchor="middle" x="51.5" y="-85.8" font-family="Times,serif" font-size="14.00">4071</text>
</g>
<g id="clust2" class="cluster">
<title>cluster4072</title>
<polygon fill="none" stroke="black" points="131,-8 131,-101 219,-101 219,-8 131,-8"/>
<text text-anchor="middle" x="175" y="-85.8" font-family="Times,serif" font-size="14.00">4072</text>
</g>
<g id="clust3" class="cluster">
<title>cluster4073</title>
<polygon fill="none" stroke="black" points="255,-8 255,-101 343,-101 343,-8 255,-8"/>
<text text-anchor="middle" x="299" y="-85.8" font-family="Times,serif" font-size="14.00">4073</text>
</g>
<g id="clust4" class="cluster">
<title>cluster4074</title>
<polygon fill="none" stroke="black" points="379,-8 379,-101 467,-101 467,-8 379,-8"/>
<text text-anchor="middle" x="423" y="-85.8" font-family="Times,serif" font-size="14.00">4074</text>
</g>
<g id="clust5" class="cluster">
<title>cluster4075</title>
<polygon fill="none" stroke="black" points="503,-8 503,-101 591,-101 591,-8 503,-8"/>
<text text-anchor="middle" x="547" y="-85.8" font-family="Times,serif" font-size="14.00">4075</text>
</g>
<g id="clust6" class="cluster">
<title>cluster4076</title>
<polygon fill="none" stroke="black" points="627,-8 627,-101 714,-101 714,-8 627,-8"/>
<text text-anchor="middle" x="670.5" y="-85.8" font-family="Times,serif" font-size="14.00">4076</text>
</g>
<g id="clust7" class="cluster">
<title>cluster4077</title>
<polygon fill="none" stroke="black" points="750,-8 750,-101 838,-101 838,-8 750,-8"/>
<text text-anchor="middle" x="794" y="-85.8" font-family="Times,serif" font-size="14.00">4077</text>
</g>
<g id="clust8" class="cluster">
<title>cluster4078</title>
<polygon fill="none" stroke="black" points="874,-8 874,-101 962,-101 962,-8 874,-8"/>
<text text-anchor="middle" x="918" y="-85.8" font-family="Times,serif" font-size="14.00">4078</text>
</g>
<g id="clust9" class="cluster">
<title>cluster4079</title>
<polygon fill="none" stroke="black" points="998,-8 998,-101 1085,-101 1085,-8 998,-8"/>
<text text-anchor="middle" x="1041.5" y="-85.8" font-family="Times,serif" font-size="14.00">4079</text>
</g>
<g id="clust10" class="cluster">
<title>cluster4080</title>
<polygon fill="none" stroke="black" points="1121,-8 1121,-101 1209,-101 1209,-8 1121,-8"/>
<text text-anchor="middle" x="1165" y="-85.8" font-family="Times,serif" font-size="14.00">4080</text>
</g>
<g id="clust11" class="cluster">
<title>cluster4081</title>
<polygon fill="none" stroke="black" points="1245,-8 1245,-101 1333,-101 1333,-8 1245,-8"/>
<text text-anchor="middle" x="1289" y="-85.8" font-family="Times,serif" font-size="14.00">4081</text>
</g>
<g id="clust12" class="cluster">
<title>cluster4082</title>
<polygon fill="none" stroke="black" points="1369,-8 1369,-101 1457,-101 1457,-8 1369,-8"/>
<text text-anchor="middle" x="1413" y="-85.8" font-family="Times,serif" font-size="14.00">4082</text>
</g>
<g id="clust13" class="cluster">
<title>cluster4083</title>
<polygon fill="none" stroke="black" points="1493,-8 1493,-101 1580,-101 1580,-8 1493,-8"/>
<text text-anchor="middle" x="1536.5" y="-85.8" font-family="Times,serif" font-size="14.00">4083</text>
</g>
<g id="clust14" class="cluster">
<title>cluster4084</title>
<polygon fill="none" stroke="black" points="1616,-8 1616,-101 1704,-101 1704,-8 1616,-8"/>
<text text-anchor="middle" x="1660" y="-85.8" font-family="Times,serif" font-size="14.00">4084</text>
</g>
<g id="clust15" class="cluster">
<title>cluster4085</title>
<polygon fill="none" stroke="black" points="1740,-8 1740,-101 1828,-101 1828,-8 1740,-8"/>
<text text-anchor="middle" x="1784" y="-85.8" font-family="Times,serif" font-size="14.00">4085</text>
</g>
<g id="clust16" class="cluster">
<title>cluster4086</title>
<polygon fill="none" stroke="black" points="1864,-8 1864,-101 1952,-101 1952,-8 1864,-8"/>
<text text-anchor="middle" x="1908" y="-85.8" font-family="Times,serif" font-size="14.00">4086</text>
</g>
<g id="clust17" class="cluster">
<title>cluster4087</title>
<polygon fill="none" stroke="black" points="1988,-8 1988,-101 2076,-101 2076,-8 1988,-8"/>
<text text-anchor="middle" x="2032" y="-85.8" font-family="Times,serif" font-size="14.00">4087</text>
</g>
<g id="clust18" class="cluster">
<title>cluster4088</title>
<polygon fill="none" stroke="black" points="2112,-8 2112,-101 2200,-101 2200,-8 2112,-8"/>
<text text-anchor="middle" x="2156" y="-85.8" font-family="Times,serif" font-size="14.00">4088</text>
</g>
<g id="clust19" class="cluster">
<title>cluster4089</title>
<polygon fill="none" stroke="black" points="2236,-8 2236,-101 2324,-101 2324,-8 2236,-8"/>
<text text-anchor="middle" x="2280" y="-85.8" font-family="Times,serif" font-size="14.00">4089</text>
</g>
<g id="clust20" class="cluster">
<title>cluster4090</title>
<polygon fill="none" stroke="black" points="2360,-8 2360,-101 2448,-101 2448,-8 2360,-8"/>
<text text-anchor="middle" x="2404" y="-85.8" font-family="Times,serif" font-size="14.00">4090</text>
</g>
<g id="clust21" class="cluster">
<title>cluster4091</title>
<polygon fill="none" stroke="black" points="2484,-8 2484,-101 2572,-101 2572,-8 2484,-8"/>
<text text-anchor="middle" x="2528" y="-85.8" font-family="Times,serif" font-size="14.00">4091</text>
</g>
<g id="clust22" class="cluster">
<title>cluster4092</title>
<polygon fill="none" stroke="black" points="2608,-8 2608,-101 2696,-101 2696,-8 2608,-8"/>
<text text-anchor="middle" x="2652" y="-85.8" font-family="Times,serif" font-size="14.00">4092</text>
</g>
<g id="clust23" class="cluster">
<title>cluster4093</title>
<polygon fill="none" stroke="black" points="2732,-8 2732,-101 2820,-101 2820,-8 2732,-8"/>
<text text-anchor="middle" x="2776" y="-85.8" font-family="Times,serif" font-size="14.00">4093</text>
</g>
<g id="clust24" class="cluster">
<title>cluster4094</title>
<polygon fill="none" stroke="black" points="2856,-8 2856,-101 2944,-101 2944,-8 2856,-8"/>
<text text-anchor="middle" x="2900" y="-85.8" font-family="Times,serif" font-size="14.00">4094</text>
</g>
<g id="clust25" class="cluster">
<title>cluster4095</title>
<polygon fill="none" stroke="black" points="2980,-8 2980,-101 3068,-101 3068,-8 2980,-8"/>
<text text-anchor="middle" x="3024" y="-85.8" font-family="Times,serif" font-size="14.00">4095</text>
</g>
<g id="clust26" class="cluster">
<title>cluster4096</title>
<polygon fill="none" stroke="black" points="3104,-8 3104,-101 3192,-101 3192,-8 3104,-8"/>
<text text-anchor="middle" x="3148" y="-85.8" font-family="Times,serif" font-size="14.00">4096</text>
</g>
<g id="clust27" class="cluster">
<title>cluster4097</title>
<polygon fill="none" stroke="black" points="3228,-8 3228,-101 3315,-101 3315,-8 3228,-8"/>
<text text-anchor="middle" x="3271.5" y="-85.8" font-family="Times,serif" font-size="14.00">4097</text>
</g>
<g id="clust28" class="cluster">
<title>cluster4098</title>
<polygon fill="none" stroke="black" points="3351,-8 3351,-101 3439,-101 3439,-8 3351,-8"/>
<text text-anchor="middle" x="3395" y="-85.8" font-family="Times,serif" font-size="14.00">4098</text>
</g>
<g id="clust29" class="cluster">
<title>cluster4099</title>
<polygon fill="none" stroke="black" points="3475,-8 3475,-101 3562,-101 3562,-8 3475,-8"/>
<text text-anchor="middle" x="3518.5" y="-85.8" font-family="Times,serif" font-size="14.00">4099</text>
</g>
<!-- Node0x600000713300 -->
<g id="node1" class="node">
<title>Node0x600000713300</title>
<polygon fill="none" stroke="black" points="8,-9 8,-77 95,-77 95,-9 8,-9"/>
<text text-anchor="middle" x="51.5" y="-66.6" font-family="Times,serif" font-size="8.00">word: myself</text>
<polyline fill="none" stroke="black" points="8,-60 95,-60 "/>
<text text-anchor="middle" x="51.5" y="-49.6" font-family="Times,serif" font-size="8.00">size: 14</text>
<polyline fill="none" stroke="black" points="8,-43 95,-43 "/>
<text text-anchor="middle" x="51.5" y="-32.6" font-family="Times,serif" font-size="8.00">next: 0x600000714450</text>
<polyline fill="none" stroke="black" points="8,-26 95,-26 "/>
<text text-anchor="middle" x="51.5" y="-15.6" font-family="Times,serif" font-size="8.00">prev: 0x0</text>
</g>
<!-- Node0x600000714450 -->
<g id="node2" class="node">
<title>Node0x600000714450</title>
<polygon fill="none" stroke="black" points="131,-9 131,-77 219,-77 219,-9 131,-9"/>
<text text-anchor="middle" x="175" y="-66.6" font-family="Times,serif" font-size="8.00">word: blow</text>
<polyline fill="none" stroke="black" points="131,-60 219,-60 "/>
<text text-anchor="middle" x="175" y="-49.6" font-family="Times,serif" font-size="8.00">size: 2</text>
<polyline fill="none" stroke="black" points="131,-43 219,-43 "/>
<text text-anchor="middle" x="175" y="-32.6" font-family="Times,serif" font-size="8.00">next: 0x6000007159e0</text>
<polyline fill="none" stroke="black" points="131,-26 219,-26 "/>
<text text-anchor="middle" x="175" y="-15.6" font-family="Times,serif" font-size="8.00">prev: 0x600000713300</text>
</g>
<!-- Node0x600000713300&#45;&gt;Node0x600000714450 -->
<g id="edge1" class="edge">
<title>Node0x600000713300:n&#45;&gt;Node0x600000714450:n</title>
<path fill="none" stroke="red" d="M95,-34C107,-34 112.25,-34 120.88,-34"/>
<polygon fill="red" stroke="red" points="121,-37.5 131,-34 121,-30.5 121,-37.5"/>
</g>
<!-- Node0x6000007159e0 -->
<g id="node3" class="node">
<title>Node0x6000007159e0</title>
<polygon fill="none" stroke="black" points="255,-9 255,-77 343,-77 343,-9 255,-9"/>
<text text-anchor="middle" x="299" y="-66.6" font-family="Times,serif" font-size="8.00">word: beseeming</text>
<polyline fill="none" stroke="black" points="255,-60 343,-60 "/>
<text text-anchor="middle" x="299" y="-49.6" font-family="Times,serif" font-size="8.00">size: 3</text>
<polyline fill="none" stroke="black" points="255,-43 343,-43 "/>
<text text-anchor="middle" x="299" y="-32.6" font-family="Times,serif" font-size="8.00">next: 0x600000718db0</text>
<polyline fill="none" stroke="black" points="255,-26 343,-26 "/>
<text text-anchor="middle" x="299" y="-15.6" font-family="Times,serif" font-size="8.00">prev: 0x600000714450</text>
</g>
<!-- Node0x600000714450&#45;&gt;Node0x6000007159e0 -->
<g id="edge2" class="edge">
<title>Node0x600000714450:n&#45;&gt;Node0x6000007159e0:n</title>
<path fill="none" stroke="red" d="M219,-34C231,-34 236.25,-34 244.88,-34"/>
<polygon fill="red" stroke="red" points="245,-37.5 255,-34 245,-30.5 245,-37.5"/>
</g>
<!-- Node0x600000718db0 -->
<g id="node4" class="node">
<title>Node0x600000718db0</title>
<polygon fill="none" stroke="black" points="379,-9 379,-77 467,-77 467,-9 379,-9"/>
<text text-anchor="middle" x="423" y="-66.6" font-family="Times,serif" font-size="8.00">word: Dost</text>
<polyline fill="none" stroke="black" points="379,-60 467,-60 "/>
<text text-anchor="middle" x="423" y="-49.6" font-family="Times,serif" font-size="8.00">size: 3</text>
<polyline fill="none" stroke="black" points="379,-43 467,-43 "/>
<text text-anchor="middle" x="423" y="-32.6" font-family="Times,serif" font-size="8.00">next: 0x600000719f80</text>
<polyline fill="none" stroke="black" points="379,-26 467,-26 "/>
<text text-anchor="middle" x="423" y="-15.6" font-family="Times,serif" font-size="8.00">prev: 0x6000007159e0</text>
</g>
<!-- Node0x6000007159e0&#45;&gt;Node0x600000718db0 -->
<g id="edge3" class="edge">
<title>Node0x6000007159e0:n&#45;&gt;Node0x600000718db0:n</title>
<path fill="none" stroke="red" d="M343,-34C355,-34 360.25,-34 368.88,-34"/>
<polygon fill="red" stroke="red" points="369,-37.5 379,-34 369,-30.5 369,-37.5"/>
</g>
<!-- Node0x600000719f80 -->
<g id="node5" class="node">
<title>Node0x600000719f80</title>
<polygon fill="none" stroke="black" points="503,-9 503,-77 591,-77 591,-9 503,-9"/>
<text text-anchor="middle" x="547" y="-66.6" font-family="Times,serif" font-size="8.00">word: starv</text>
<polyline fill="none" stroke="black" points="503,-60 591,-60 "/>
<text text-anchor="middle" x="547" y="-49.6" font-family="Times,serif" font-size="8.00">size: 1</text>
<polyline fill="none" stroke="black" points="503,-43 591,-43 "/>
<text text-anchor="middle" x="547" y="-32.6" font-family="Times,serif" font-size="8.00">next: 0x60000071a7c0</text>
<polyline fill="none" stroke="black" points="503,-26 591,-26 "/>
<text text-anchor="middle" x="547" y="-15.6" font-family="Times,serif" font-size="8.00">prev: 0x600000718db0</text>
</g>
<!-- Node0x600000718db0&#45;&gt;Node0x600000719f80 -->
<g id="edge4" class="edge">
<title>Node0x600000718db0:n&#45;&gt;Node0x600000719f80:n</title>
<path fill="none" stroke="red" d="M467,-34C479,-34 484.25,-34 492.88,-34"/>
<polygon fill="red" stroke="red" points="493,-37.5 503,-34 493,-30.5 493,-37.5"/>
</g>
<!-- Node0x60000071a7c0 -->
<g id="node6" class="node">
<title>Node0x60000071a7c0</title>
<polygon fill="none" stroke="black" points="627,-9 627,-77 714,-77 714,-9 627,-9"/>
<text text-anchor="middle" x="670.5" y="-66.6" font-family="Times,serif" font-size="8.00">word: doth</text>
<polyline fill="none" stroke="black" points="627,-60 714,-60 "/>
<text text-anchor="middle" x="670.5" y="-49.6" font-family="Times,serif" font-size="8.00">size: 35</text>
<polyline fill="none" stroke="black" points="627,-43 714,-43 "/>
<text text-anchor="middle" x="670.5" y="-32.6" font-family="Times,serif" font-size="8.00">next: 0x60000071cae0</text>
<polyline fill="none" stroke="black" points="627,-26 714,-26 "/>
<text text-anchor="middle" x="670.5" y="-15.6" font-family="Times,serif" font-size="8.00">prev: 0x600000719f80</text>
</g>
<!-- Node0x600000719f80&#45;&gt;Node0x60000071a7c0 -->
<g id="edge5" class="edge">
<title>Node0x600000719f80:n&#45;&gt;Node0x60000071a7c0:n</title>
<path fill="none" stroke="red" d="M591,-34C603,-34 608.25,-34 616.88,-34"/>
<polygon fill="red" stroke="red" points="617,-37.5 627,-34 617,-30.5 617,-37.5"/>
</g>
<!-- Node0x60000071cae0 -->
<g id="node7" class="node">
<title>Node0x60000071cae0</title>
<polygon fill="none" stroke="black" points="750,-9 750,-77 838,-77 838,-9 750,-9"/>
<text text-anchor="middle" x="794" y="-66.6" font-family="Times,serif" font-size="8.00">word: unattainted</text>
<polyline fill="none" stroke="black" points="750,-60 838,-60 "/>
<text text-anchor="middle" x="794" y="-49.6" font-family="Times,serif" font-size="8.00">size: 1</text>
<polyline fill="none" stroke="black" points="750,-43 838,-43 "/>
<text text-anchor="middle" x="794" y="-32.6" font-family="Times,serif" font-size="8.00">next: 0x6000007080f0</text>
<polyline fill="none" stroke="black" points="750,-26 838,-26 "/>
<text text-anchor="middle" x="794" y="-15.6" font-family="Times,serif" font-size="8.00">prev: 0x60000071a7c0</text>
</g>
<!-- Node0x60000071a7c0&#45;&gt;Node0x60000071cae0 -->
<g id="edge6" class="edge">
<title>Node0x60000071a7c0:n&#45;&gt;Node0x60000071cae0:n</title>
<path fill="none" stroke="red" d="M714,-34C726,-34 731.25,-34 739.88,-34"/>
<polygon fill="red" stroke="red" points="740,-37.5 750,-34 740,-30.5 740,-37.5"/>
</g>
<!-- Node0x6000007080f0 -->
<g id="node8" class="node">
<title>Node0x6000007080f0</title>
<polygon fill="none" stroke="black" points="874,-9 874,-77 962,-77 962,-9 874,-9"/>
<text text-anchor="middle" x="918" y="-66.6" font-family="Times,serif" font-size="8.00">word: sight</text>
<polyline fill="none" stroke="black" points="874,-60 962,-60 "/>
<text text-anchor="middle" x="918" y="-49.6" font-family="Times,serif" font-size="8.00">size: 9</text>
<polyline fill="none" stroke="black" points="874,-43 962,-43 "/>
<text text-anchor="middle" x="918" y="-32.6" font-family="Times,serif" font-size="8.00">next: 0x60000071d140</text>
<polyline fill="none" stroke="black" points="874,-26 962,-26 "/>
<text text-anchor="middle" x="918" y="-15.6" font-family="Times,serif" font-size="8.00">prev: 0x60000071cae0</text>
</g>
<!-- Node0x60000071cae0&#45;&gt;Node0x6000007080f0 -->
<g id="edge7" class="edge">
<title>Node0x60000071cae0:n&#45;&gt;Node0x6000007080f0:n</title>
<path fill="none" stroke="red" d="M838,-34C850,-34 855.25,-34 863.88,-34"/>
<polygon fill="red" stroke="red" points="864,-37.5 874,-34 864,-30.5 864,-37.5"/>
</g>
<!-- Node0x60000071d140 -->
<g id="node9" class="node">
<title>Node0x60000071d140</title>
<polygon fill="none" stroke="black" points="998,-9 998,-77 1085,-77 1085,-9 998,-9"/>
<text text-anchor="middle" x="1041.5" y="-66.6" font-family="Times,serif" font-size="8.00">word: yourself</text>
<polyline fill="none" stroke="black" points="998,-60 1085,-60 "/>
<text text-anchor="middle" x="1041.5" y="-49.6" font-family="Times,serif" font-size="8.00">size: 5</text>
<polyline fill="none" stroke="black" points="998,-43 1085,-43 "/>
<text text-anchor="middle" x="1041.5" y="-32.6" font-family="Times,serif" font-size="8.00">next: 0x600000704de0</text>
<polyline fill="none" stroke="black" points="998,-26 1085,-26 "/>
<text text-anchor="middle" x="1041.5" y="-15.6" font-family="Times,serif" font-size="8.00">prev: 0x6000007080f0</text>
</g>
<!-- Node0x6000007080f0&#45;&gt;Node0x60000071d140 -->
<g id="edge8" class="edge">
<title>Node0x6000007080f0:n&#45;&gt;Node0x60000071d140:n</title>
<path fill="none" stroke="red" d="M962,-34C974,-34 979.25,-34 987.88,-34"/>
<polygon fill="red" stroke="red" points="988,-37.5 998,-34 988,-30.5 988,-37.5"/>
</g>
<!-- Node0x600000704de0 -->
<g id="node10" class="node">
<title>Node0x600000704de0</title>
<polygon fill="none" stroke="black" points="1121,-9 1121,-77 1209,-77 1209,-9 1121,-9"/>
<text text-anchor="middle" x="1165" y="-66.6" font-family="Times,serif" font-size="8.00">word: Borrow</text>
<polyline fill="none" stroke="black" points="1121,-60 1209,-60 "/>
<text text-anchor="middle" x="1165" y="-49.6" font-family="Times,serif" font-size="8.00">size: 1</text>
<polyline fill="none" stroke="black" points="1121,-43 1209,-43 "/>
<text text-anchor="middle" x="1165" y="-32.6" font-family="Times,serif" font-size="8.00">next: 0x600000705080</text>
<polyline fill="none" stroke="black" points="1121,-26 1209,-26 "/>
<text text-anchor="middle" x="1165" y="-15.6" font-family="Times,serif" font-size="8.00">prev: 0x60000071d140</text>
</g>
<!-- Node0x60000071d140&#45;&gt;Node0x600000704de0 -->
<g id="edge9" class="edge">
<title>Node0x60000071d140:n&#45;&gt;Node0x600000704de0:n</title>
<path fill="none" stroke="red" d="M1085,-34C1097,-34 1102.25,-34 1110.88,-34"/>
<polygon fill="red" stroke="red" points="1111,-37.5 1121,-34 1111,-30.5 1111,-37.5"/>
</g>
<!-- Node0x600000705080 -->
<g id="node11" class="node">
<title>Node0x600000705080</title>
<polygon fill="none" stroke="black" points="1245,-9 1245,-77 1333,-77 1333,-9 1245,-9"/>
<text text-anchor="middle" x="1289" y="-66.6" font-family="Times,serif" font-size="8.00">word: Too</text>
<polyline fill="none" stroke="black" points="1245,-60 1333,-60 "/>
<text text-anchor="middle" x="1289" y="-49.6" font-family="Times,serif" font-size="8.00">size: 7</text>
<polyline fill="none" stroke="black" points="1245,-43 1333,-43 "/>
<text text-anchor="middle" x="1289" y="-32.6" font-family="Times,serif" font-size="8.00">next: 0x60000071f1b0</text>
<polyline fill="none" stroke="black" points="1245,-26 1333,-26 "/>
<text text-anchor="middle" x="1289" y="-15.6" font-family="Times,serif" font-size="8.00">prev: 0x600000704de0</text>
</g>
<!-- Node0x600000704de0&#45;&gt;Node0x600000705080 -->
<g id="edge10" class="edge">
<title>Node0x600000704de0:n&#45;&gt;Node0x600000705080:n</title>
<path fill="none" stroke="red" d="M1209,-34C1221,-34 1226.25,-34 1234.88,-34"/>
<polygon fill="red" stroke="red" points="1235,-37.5 1245,-34 1235,-30.5 1235,-37.5"/>
</g>
<!-- Node0x60000071f1b0 -->
<g id="node12" class="node">
<title>Node0x60000071f1b0</title>
<polygon fill="none" stroke="black" points="1369,-9 1369,-77 1457,-77 1457,-9 1369,-9"/>
<text text-anchor="middle" x="1413" y="-66.6" font-family="Times,serif" font-size="8.00">word: corns</text>
<polyline fill="none" stroke="black" points="1369,-60 1457,-60 "/>
<text text-anchor="middle" x="1413" y="-49.6" font-family="Times,serif" font-size="8.00">size: 2</text>
<polyline fill="none" stroke="black" points="1369,-43 1457,-43 "/>
<text text-anchor="middle" x="1413" y="-32.6" font-family="Times,serif" font-size="8.00">next: 0x600000700360</text>
<polyline fill="none" stroke="black" points="1369,-26 1457,-26 "/>
<text text-anchor="middle" x="1413" y="-15.6" font-family="Times,serif" font-size="8.00">prev: 0x600000705080</text>
</g>
<!-- Node0x600000705080&#45;&gt;Node0x60000071f1b0 -->
<g id="edge11" class="edge">
<title>Node0x600000705080:n&#45;&gt;Node0x60000071f1b0:n</title>
<path fill="none" stroke="red" d="M1333,-34C1345,-34 1350.25,-34 1358.88,-34"/>
<polygon fill="red" stroke="red" points="1359,-37.5 1369,-34 1359,-30.5 1359,-37.5"/>
</g>
<!-- Node0x600000700360 -->
<g id="node13" class="node">
<title>Node0x600000700360</title>
<polygon fill="none" stroke="black" points="1493,-9 1493,-77 1580,-77 1580,-9 1493,-9"/>
<text text-anchor="middle" x="1536.5" y="-66.6" font-family="Times,serif" font-size="8.00">word: scathe</text>
<polyline fill="none" stroke="black" points="1493,-60 1580,-60 "/>
<text text-anchor="middle" x="1536.5" y="-49.6" font-family="Times,serif" font-size="8.00">size: 1</text>
<polyline fill="none" stroke="black" points="1493,-43 1580,-43 "/>
<text text-anchor="middle" x="1536.5" y="-32.6" font-family="Times,serif" font-size="8.00">next: 0x600000701e30</text>
<polyline fill="none" stroke="black" points="1493,-26 1580,-26 "/>
<text text-anchor="middle" x="1536.5" y="-15.6" font-family="Times,serif" font-size="8.00">prev: 0x60000071f1b0</text>
</g>
<!-- Node0x60000071f1b0&#45;&gt;Node0x600000700360 -->
<g id="edge12" class="edge">
<title>Node0x60000071f1b0:n&#45;&gt;Node0x600000700360:n</title>
<path fill="none" stroke="red" d="M1457,-34C1469,-34 1474.25,-34 1482.88,-34"/>
<polygon fill="red" stroke="red" points="1483,-37.5 1493,-34 1483,-30.5 1483,-37.5"/>
</g>
<!-- Node0x600000701e30 -->
<g id="node14" class="node">
<title>Node0x600000701e30</title>
<polygon fill="none" stroke="black" points="1616,-9 1616,-77 1704,-77 1704,-9 1616,-9"/>
<text text-anchor="middle" x="1660" y="-66.6" font-family="Times,serif" font-size="8.00">word: appear</text>
<polyline fill="none" stroke="black" points="1616,-60 1704,-60 "/>
<text text-anchor="middle" x="1660" y="-49.6" font-family="Times,serif" font-size="8.00">size: 2</text>
<polyline fill="none" stroke="black" points="1616,-43 1704,-43 "/>
<text text-anchor="middle" x="1660" y="-32.6" font-family="Times,serif" font-size="8.00">next: 0x600000703b40</text>
<polyline fill="none" stroke="black" points="1616,-26 1704,-26 "/>
<text text-anchor="middle" x="1660" y="-15.6" font-family="Times,serif" font-size="8.00">prev: 0x600000700360</text>
</g>
<!-- Node0x600000700360&#45;&gt;Node0x600000701e30 -->
<g id="edge13" class="edge">
<title>Node0x600000700360:n&#45;&gt;Node0x600000701e30:n</title>
<path fill="none" stroke="red" d="M1580,-34C1592,-34 1597.25,-34 1605.88,-34"/>
<polygon fill="red" stroke="red" points="1606,-37.5 1616,-34 1606,-30.5 1606,-37.5"/>
</g>
<!-- Node0x600000703b40 -->
<g id="node15" class="node">
<title>Node0x600000703b40</title>
<polygon fill="none" stroke="black" points="1740,-9 1740,-77 1828,-77 1828,-9 1740,-9"/>
<text text-anchor="middle" x="1784" y="-66.6" font-family="Times,serif" font-size="8.00">word: fond</text>
<polyline fill="none" stroke="black" points="1740,-60 1828,-60 "/>
<text text-anchor="middle" x="1784" y="-49.6" font-family="Times,serif" font-size="8.00">size: 3</text>
<polyline fill="none" stroke="black" points="1740,-43 1828,-43 "/>
<text text-anchor="middle" x="1784" y="-32.6" font-family="Times,serif" font-size="8.00">next: 0x600000731b60</text>
<polyline fill="none" stroke="black" points="1740,-26 1828,-26 "/>
<text text-anchor="middle" x="1784" y="-15.6" font-family="Times,serif" font-size="8.00">prev: 0x600000701e30</text>
</g>
<!-- Node0x600000701e30&#45;&gt;Node0x600000703b40 -->
<g id="edge14" class="edge">
<title>Node0x600000701e30:n&#45;&gt;Node0x600000703b40:n</title>
<path fill="none" stroke="red" d="M1704,-34C1716,-34 1721.25,-34 1729.88,-34"/>
<polygon fill="red" stroke="red" points="1730,-37.5 1740,-34 1730,-30.5 1730,-37.5"/>
</g>
<!-- Node0x600000731b60 -->
<g id="node16" class="node">
<title>Node0x600000731b60</title>
<polygon fill="none" stroke="black" points="1864,-9 1864,-77 1952,-77 1952,-9 1864,-9"/>
<text text-anchor="middle" x="1908" y="-66.6" font-family="Times,serif" font-size="8.00">word: action</text>
<polyline fill="none" stroke="black" points="1864,-60 1952,-60 "/>
<text text-anchor="middle" x="1908" y="-49.6" font-family="Times,serif" font-size="8.00">size: 1</text>
<polyline fill="none" stroke="black" points="1864,-43 1952,-43 "/>
<text text-anchor="middle" x="1908" y="-32.6" font-family="Times,serif" font-size="8.00">next: 0x600000733e10</text>
<polyline fill="none" stroke="black" points="1864,-26 1952,-26 "/>
<text text-anchor="middle" x="1908" y="-15.6" font-family="Times,serif" font-size="8.00">prev: 0x600000703b40</text>
</g>
<!-- Node0x600000703b40&#45;&gt;Node0x600000731b60 -->
<g id="edge15" class="edge">
<title>Node0x600000703b40:n&#45;&gt;Node0x600000731b60:n</title>
<path fill="none" stroke="red" d="M1828,-34C1840,-34 1845.25,-34 1853.88,-34"/>
<polygon fill="red" stroke="red" points="1854,-37.5 1864,-34 1854,-30.5 1854,-37.5"/>
</g>
<!-- Node0x600000733e10 -->
<g id="node17" class="node">
<title>Node0x600000733e10</title>
<polygon fill="none" stroke="black" points="1988,-9 1988,-77 2076,-77 2076,-9 1988,-9"/>
<text text-anchor="middle" x="2032" y="-66.6" font-family="Times,serif" font-size="8.00">word: constrains</text>
<polyline fill="none" stroke="black" points="1988,-60 2076,-60 "/>
<text text-anchor="middle" x="2032" y="-49.6" font-family="Times,serif" font-size="8.00">size: 1</text>
<polyline fill="none" stroke="black" points="1988,-43 2076,-43 "/>
<text text-anchor="middle" x="2032" y="-32.6" font-family="Times,serif" font-size="8.00">next: 0x600000734960</text>
<polyline fill="none" stroke="black" points="1988,-26 2076,-26 "/>
<text text-anchor="middle" x="2032" y="-15.6" font-family="Times,serif" font-size="8.00">prev: 0x600000731b60</text>
</g>
<!-- Node0x600000731b60&#45;&gt;Node0x600000733e10 -->
<g id="edge16" class="edge">
<title>Node0x600000731b60:n&#45;&gt;Node0x600000733e10:n</title>
<path fill="none" stroke="red" d="M1952,-34C1964,-34 1969.25,-34 1977.88,-34"/>
<polygon fill="red" stroke="red" points="1978,-37.5 1988,-34 1978,-30.5 1978,-37.5"/>
</g>
<!-- Node0x600000734960 -->
<g id="node18" class="node">
<title>Node0x600000734960</title>
<polygon fill="none" stroke="black" points="2112,-9 2112,-77 2200,-77 2200,-9 2112,-9"/>
<text text-anchor="middle" x="2156" y="-66.6" font-family="Times,serif" font-size="8.00">word: goodly</text>
<polyline fill="none" stroke="black" points="2112,-60 2200,-60 "/>
<text text-anchor="middle" x="2156" y="-49.6" font-family="Times,serif" font-size="8.00">size: 1</text>
<polyline fill="none" stroke="black" points="2112,-43 2200,-43 "/>
<text text-anchor="middle" x="2156" y="-32.6" font-family="Times,serif" font-size="8.00">next: 0x600000738960</text>
<polyline fill="none" stroke="black" points="2112,-26 2200,-26 "/>
<text text-anchor="middle" x="2156" y="-15.6" font-family="Times,serif" font-size="8.00">prev: 0x600000733e10</text>
</g>
<!-- Node0x600000733e10&#45;&gt;Node0x600000734960 -->
<g id="edge17" class="edge">
<title>Node0x600000733e10:n&#45;&gt;Node0x600000734960:n</title>
<path fill="none" stroke="red" d="M2076,-34C2088,-34 2093.25,-34 2101.88,-34"/>
<polygon fill="red" stroke="red" points="2102,-37.5 2112,-34 2102,-30.5 2102,-37.5"/>
</g>
<!-- Node0x600000738960 -->
<g id="node19" class="node">
<title>Node0x600000738960</title>
<polygon fill="none" stroke="black" points="2236,-9 2236,-77 2324,-77 2324,-9 2236,-9"/>
<text text-anchor="middle" x="2280" y="-66.6" font-family="Times,serif" font-size="8.00">word: slander</text>
<polyline fill="none" stroke="black" points="2236,-60 2324,-60 "/>
<text text-anchor="middle" x="2280" y="-49.6" font-family="Times,serif" font-size="8.00">size: 2</text>
<polyline fill="none" stroke="black" points="2236,-43 2324,-43 "/>
<text text-anchor="middle" x="2280" y="-32.6" font-family="Times,serif" font-size="8.00">next: 0x60000073dcb0</text>
<polyline fill="none" stroke="black" points="2236,-26 2324,-26 "/>
<text text-anchor="middle" x="2280" y="-15.6" font-family="Times,serif" font-size="8.00">prev: 0x600000734960</text>
</g>
<!-- Node0x600000734960&#45;&gt;Node0x600000738960 -->
<g id="edge18" class="edge">
<title>Node0x600000734960:n&#45;&gt;Node0x600000738960:n</title>
<path fill="none" stroke="red" d="M2200,-34C2212,-34 2217.25,-34 2225.88,-34"/>
<polygon fill="red" stroke="red" points="2226,-37.5 2236,-34 2226,-30.5 2226,-37.5"/>
</g>
<!-- Node0x60000073dcb0 -->
<g id="node20" class="node">
<title>Node0x60000073dcb0</title>
<polygon fill="none" stroke="black" points="2360,-9 2360,-77 2448,-77 2448,-9 2360,-9"/>
<text text-anchor="middle" x="2404" y="-66.6" font-family="Times,serif" font-size="8.00">word: Night</text>
<polyline fill="none" stroke="black" points="2360,-60 2448,-60 "/>
<text text-anchor="middle" x="2404" y="-49.6" font-family="Times,serif" font-size="8.00">size: 1</text>
<polyline fill="none" stroke="black" points="2360,-43 2448,-43 "/>
<text text-anchor="middle" x="2404" y="-32.6" font-family="Times,serif" font-size="8.00">next: 0x60000073ddd0</text>
<polyline fill="none" stroke="black" points="2360,-26 2448,-26 "/>
<text text-anchor="middle" x="2404" y="-15.6" font-family="Times,serif" font-size="8.00">prev: 0x600000738960</text>
</g>
<!-- Node0x600000738960&#45;&gt;Node0x60000073dcb0 -->
<g id="edge19" class="edge">
<title>Node0x600000738960:n&#45;&gt;Node0x60000073dcb0:n</title>
<path fill="none" stroke="red" d="M2324,-34C2336,-34 2341.25,-34 2349.88,-34"/>
<polygon fill="red" stroke="red" points="2350,-37.5 2360,-34 2350,-30.5 2350,-37.5"/>
</g>
<!-- Node0x60000073ddd0 -->
<g id="node21" class="node">
<title>Node0x60000073ddd0</title>
<polygon fill="none" stroke="black" points="2484,-9 2484,-77 2572,-77 2572,-9 2484,-9"/>
<text text-anchor="middle" x="2528" y="-66.6" font-family="Times,serif" font-size="8.00">word: mountain</text>
<polyline fill="none" stroke="black" points="2484,-60 2572,-60 "/>
<text text-anchor="middle" x="2528" y="-49.6" font-family="Times,serif" font-size="8.00">size: 1</text>
<polyline fill="none" stroke="black" points="2484,-43 2572,-43 "/>
<text text-anchor="middle" x="2528" y="-32.6" font-family="Times,serif" font-size="8.00">next: 0x60000073e880</text>
<polyline fill="none" stroke="black" points="2484,-26 2572,-26 "/>
<text text-anchor="middle" x="2528" y="-15.6" font-family="Times,serif" font-size="8.00">prev: 0x60000073dcb0</text>
</g>
<!-- Node0x60000073dcb0&#45;&gt;Node0x60000073ddd0 -->
<g id="edge20" class="edge">
<title>Node0x60000073dcb0:n&#45;&gt;Node0x60000073ddd0:n</title>
<path fill="none" stroke="red" d="M2448,-34C2460,-34 2465.25,-34 2473.88,-34"/>
<polygon fill="red" stroke="red" points="2474,-37.5 2484,-34 2474,-30.5 2474,-37.5"/>
</g>
<!-- Node0x60000073e880 -->
<g id="node22" class="node">
<title>Node0x60000073e880</title>
<polygon fill="none" stroke="black" points="2608,-9 2608,-77 2696,-77 2696,-9 2608,-9"/>
<text text-anchor="middle" x="2652" y="-66.6" font-family="Times,serif" font-size="8.00">word: vengeance</text>
<polyline fill="none" stroke="black" points="2608,-60 2696,-60 "/>
<text text-anchor="middle" x="2652" y="-49.6" font-family="Times,serif" font-size="8.00">size: 2</text>
<polyline fill="none" stroke="black" points="2608,-43 2696,-43 "/>
<text text-anchor="middle" x="2652" y="-32.6" font-family="Times,serif" font-size="8.00">next: 0x60000073e910</text>
<polyline fill="none" stroke="black" points="2608,-26 2696,-26 "/>
<text text-anchor="middle" x="2652" y="-15.6" font-family="Times,serif" font-size="8.00">prev: 0x60000073ddd0</text>
</g>
<!-- Node0x60000073ddd0&#45;&gt;Node0x60000073e880 -->
<g id="edge21" class="edge">
<title>Node0x60000073ddd0:n&#45;&gt;Node0x60000073e880:n</title>
<path fill="none" stroke="red" d="M2572,-34C2584,-34 2589.25,-34 2597.88,-34"/>
<polygon fill="red" stroke="red" points="2598,-37.5 2608,-34 2598,-30.5 2598,-37.5"/>
</g>
<!-- Node0x60000073e910 -->
<g id="node23" class="node">
<title>Node0x60000073e910</title>
<polygon fill="none" stroke="black" points="2732,-9 2732,-77 2820,-77 2820,-9 2732,-9"/>
<text text-anchor="middle" x="2776" y="-66.6" font-family="Times,serif" font-size="8.00">word: receipt</text>
<polyline fill="none" stroke="black" points="2732,-60 2820,-60 "/>
<text text-anchor="middle" x="2776" y="-49.6" font-family="Times,serif" font-size="8.00">size: 1</text>
<polyline fill="none" stroke="black" points="2732,-43 2820,-43 "/>
<text text-anchor="middle" x="2776" y="-32.6" font-family="Times,serif" font-size="8.00">next: 0x600000720930</text>
<polyline fill="none" stroke="black" points="2732,-26 2820,-26 "/>
<text text-anchor="middle" x="2776" y="-15.6" font-family="Times,serif" font-size="8.00">prev: 0x60000073e880</text>
</g>
<!-- Node0x60000073e880&#45;&gt;Node0x60000073e910 -->
<g id="edge22" class="edge">
<title>Node0x60000073e880:n&#45;&gt;Node0x60000073e910:n</title>
<path fill="none" stroke="red" d="M2696,-34C2708,-34 2713.25,-34 2721.88,-34"/>
<polygon fill="red" stroke="red" points="2722,-37.5 2732,-34 2722,-30.5 2722,-37.5"/>
</g>
<!-- Node0x600000720930 -->
<g id="node24" class="node">
<title>Node0x600000720930</title>
<polygon fill="none" stroke="black" points="2856,-9 2856,-77 2944,-77 2944,-9 2856,-9"/>
<text text-anchor="middle" x="2900" y="-66.6" font-family="Times,serif" font-size="8.00">word: cop</text>
<polyline fill="none" stroke="black" points="2856,-60 2944,-60 "/>
<text text-anchor="middle" x="2900" y="-49.6" font-family="Times,serif" font-size="8.00">size: 1</text>
<polyline fill="none" stroke="black" points="2856,-43 2944,-43 "/>
<text text-anchor="middle" x="2900" y="-32.6" font-family="Times,serif" font-size="8.00">next: 0x600000721e30</text>
<polyline fill="none" stroke="black" points="2856,-26 2944,-26 "/>
<text text-anchor="middle" x="2900" y="-15.6" font-family="Times,serif" font-size="8.00">prev: 0x60000073e910</text>
</g>
<!-- Node0x60000073e910&#45;&gt;Node0x600000720930 -->
<g id="edge23" class="edge">
<title>Node0x60000073e910:n&#45;&gt;Node0x600000720930:n</title>
<path fill="none" stroke="red" d="M2820,-34C2832,-34 2837.25,-34 2845.88,-34"/>
<polygon fill="red" stroke="red" points="2846,-37.5 2856,-34 2846,-30.5 2846,-37.5"/>
</g>
<!-- Node0x600000721e30 -->
<g id="node25" class="node">
<title>Node0x600000721e30</title>
<polygon fill="none" stroke="black" points="2980,-9 2980,-77 3068,-77 3068,-9 2980,-9"/>
<text text-anchor="middle" x="3024" y="-66.6" font-family="Times,serif" font-size="8.00">word: quinces</text>
<polyline fill="none" stroke="black" points="2980,-60 3068,-60 "/>
<text text-anchor="middle" x="3024" y="-49.6" font-family="Times,serif" font-size="8.00">size: 1</text>
<polyline fill="none" stroke="black" points="2980,-43 3068,-43 "/>
<text text-anchor="middle" x="3024" y="-32.6" font-family="Times,serif" font-size="8.00">next: 0x60000070bf60</text>
<polyline fill="none" stroke="black" points="2980,-26 3068,-26 "/>
<text text-anchor="middle" x="3024" y="-15.6" font-family="Times,serif" font-size="8.00">prev: 0x600000720930</text>
</g>
<!-- Node0x600000720930&#45;&gt;Node0x600000721e30 -->
<g id="edge24" class="edge">
<title>Node0x600000720930:n&#45;&gt;Node0x600000721e30:n</title>
<path fill="none" stroke="red" d="M2944,-34C2956,-34 2961.25,-34 2969.88,-34"/>
<polygon fill="red" stroke="red" points="2970,-37.5 2980,-34 2970,-30.5 2970,-37.5"/>
</g>
<!-- Node0x60000070bf60 -->
<g id="node26" class="node">
<title>Node0x60000070bf60</title>
<polygon fill="none" stroke="black" points="3104,-9 3104,-77 3192,-77 3192,-9 3104,-9"/>
<text text-anchor="middle" x="3148" y="-66.6" font-family="Times,serif" font-size="8.00">word: Remnants</text>
<polyline fill="none" stroke="black" points="3104,-60 3192,-60 "/>
<text text-anchor="middle" x="3148" y="-49.6" font-family="Times,serif" font-size="8.00">size: 1</text>
<polyline fill="none" stroke="black" points="3104,-43 3192,-43 "/>
<text text-anchor="middle" x="3148" y="-32.6" font-family="Times,serif" font-size="8.00">next: 0x600000724030</text>
<polyline fill="none" stroke="black" points="3104,-26 3192,-26 "/>
<text text-anchor="middle" x="3148" y="-15.6" font-family="Times,serif" font-size="8.00">prev: 0x600000721e30</text>
</g>
<!-- Node0x600000721e30&#45;&gt;Node0x60000070bf60 -->
<g id="edge25" class="edge">
<title>Node0x600000721e30:n&#45;&gt;Node0x60000070bf60:n</title>
<path fill="none" stroke="red" d="M3068,-34C3080,-34 3085.25,-34 3093.88,-34"/>
<polygon fill="red" stroke="red" points="3094,-37.5 3104,-34 3094,-30.5 3094,-37.5"/>
</g>
<!-- Node0x600000724030 -->
<g id="node27" class="node">
<title>Node0x600000724030</title>
<polygon fill="none" stroke="black" points="3228,-9 3228,-77 3315,-77 3315,-9 3228,-9"/>
<text text-anchor="middle" x="3271.5" y="-66.6" font-family="Times,serif" font-size="8.00">word: scattered</text>
<polyline fill="none" stroke="black" points="3228,-60 3315,-60 "/>
<text text-anchor="middle" x="3271.5" y="-49.6" font-family="Times,serif" font-size="8.00">size: 1</text>
<polyline fill="none" stroke="black" points="3228,-43 3315,-43 "/>
<text text-anchor="middle" x="3271.5" y="-32.6" font-family="Times,serif" font-size="8.00">next: 0x600000725bf0</text>
<polyline fill="none" stroke="black" points="3228,-26 3315,-26 "/>
<text text-anchor="middle" x="3271.5" y="-15.6" font-family="Times,serif" font-size="8.00">prev: 0x60000070bf60</text>
</g>
<!-- Node0x60000070bf60&#45;&gt;Node0x600000724030 -->
<g id="edge26" class="edge">
<title>Node0x60000070bf60:n&#45;&gt;Node0x600000724030:n</title>
<path fill="none" stroke="red" d="M3192,-34C3204,-34 3209.25,-34 3217.88,-34"/>
<polygon fill="red" stroke="red" points="3218,-37.5 3228,-34 3218,-30.5 3218,-37.5"/>
</g>
<!-- Node0x600000725bf0 -->
<g id="node28" class="node">
<title>Node0x600000725bf0</title>
<polygon fill="none" stroke="black" points="3351,-9 3351,-77 3439,-77 3439,-9 3351,-9"/>
<text text-anchor="middle" x="3395" y="-66.6" font-family="Times,serif" font-size="8.00">word: advanced</text>
<polyline fill="none" stroke="black" points="3351,-60 3439,-60 "/>
<text text-anchor="middle" x="3395" y="-49.6" font-family="Times,serif" font-size="8.00">size: 1</text>
<polyline fill="none" stroke="black" points="3351,-43 3439,-43 "/>
<text text-anchor="middle" x="3395" y="-32.6" font-family="Times,serif" font-size="8.00">next: 0x600000726eb0</text>
<polyline fill="none" stroke="black" points="3351,-26 3439,-26 "/>
<text text-anchor="middle" x="3395" y="-15.6" font-family="Times,serif" font-size="8.00">prev: 0x600000724030</text>
</g>
<!-- Node0x600000724030&#45;&gt;Node0x600000725bf0 -->
<g id="edge27" class="edge">
<title>Node0x600000724030:n&#45;&gt;Node0x600000725bf0:n</title>
<path fill="none" stroke="red" d="M3315,-34C3327,-34 3332.25,-34 3340.88,-34"/>
<polygon fill="red" stroke="red" points="3341,-37.5 3351,-34 3341,-30.5 3341,-37.5"/>
</g>
<!-- Node0x600000726eb0 -->
<g id="node29" class="node">
<title>Node0x600000726eb0</title>
<polygon fill="none" stroke="black" points="3475,-9 3475,-77 3562,-77 3562,-9 3475,-9"/>
<text text-anchor="middle" x="3518.5" y="-66.6" font-family="Times,serif" font-size="8.00">word: Grief</text>
<polyline fill="none" stroke="black" points="3475,-60 3562,-60 "/>
<text text-anchor="middle" x="3518.5" y="-49.6" font-family="Times,serif" font-size="8.00">size: 1</text>
<polyline fill="none" stroke="black" points="3475,-43 3562,-43 "/>
<text text-anchor="middle" x="3518.5" y="-32.6" font-family="Times,serif" font-size="8.00">next: 0x0</text>
<polyline fill="none" stroke="black" points="3475,-26 3562,-26 "/>
<text text-anchor="middle" x="3518.5" y="-15.6" font-family="Times,serif" font-size="8.00">prev: 0x600000725bf0</text>
</g>
<!-- Node0x600000725bf0&#45;&gt;Node0x600000726eb0 -->
<g id="edge28" class="edge">
<title>Node0x600000725bf0:n&#45;&gt;Node0x600000726eb0:n</title>
<path fill="none" stroke="red" d="M3439,-34C3451,-34 3456.25,-34 3464.88,-34"/>
<polygon fill="red" stroke="red" points="3465,-37.5 3475,-34 3465,-30.5 3465,-37.5"/>
</g>
</g>
</svg>
