<?xml version="1.0" encoding="UTF-8" standalone="no"?>
<!DOCTYPE svg PUBLIC "-//W3C//DTD SVG 1.1//EN"
 "http://www.w3.org/Graphics/SVG/1.1/DTD/svg11.dtd">
<!-- Generated by graphviz version 2.50.0 (20211204.2007)
 -->
<!-- Title: G Pages: 1 -->
<svg width="3823pt" height="117pt"
 viewBox="0.00 0.00 3823.00 117.00" xmlns="http://www.w3.org/2000/svg" xmlns:xlink="http://www.w3.org/1999/xlink">
<g id="graph0" class="graph" transform="scale(1 1) rotate(0) translate(4 113)">
<title>G</title>
<polygon fill="white" stroke="transparent" points="-4,4 -4,-113 3819,-113 3819,4 -4,4"/>
<g id="clust1" class="cluster">
<title>cluster1558</title>
<polygon fill="none" stroke="black" points="8,-8 8,-101 95,-101 95,-8 8,-8"/>
<text text-anchor="middle" x="51.5" y="-85.8" font-family="Times,serif" font-size="14.00">1558</text>
</g>
<g id="clust2" class="cluster">
<title>cluster1559</title>
<polygon fill="none" stroke="black" points="131,-8 131,-101 219,-101 219,-8 131,-8"/>
<text text-anchor="middle" x="175" y="-85.8" font-family="Times,serif" font-size="14.00">1559</text>
</g>
<g id="clust3" class="cluster">
<title>cluster1560</title>
<polygon fill="none" stroke="black" points="255,-8 255,-101 343,-101 343,-8 255,-8"/>
<text text-anchor="middle" x="299" y="-85.8" font-family="Times,serif" font-size="14.00">1560</text>
</g>
<g id="clust4" class="cluster">
<title>cluster1561</title>
<polygon fill="none" stroke="black" points="379,-8 379,-101 467,-101 467,-8 379,-8"/>
<text text-anchor="middle" x="423" y="-85.8" font-family="Times,serif" font-size="14.00">1561</text>
</g>
<g id="clust5" class="cluster">
<title>cluster1562</title>
<polygon fill="none" stroke="black" points="503,-8 503,-101 591,-101 591,-8 503,-8"/>
<text text-anchor="middle" x="547" y="-85.8" font-family="Times,serif" font-size="14.00">1562</text>
</g>
<g id="clust6" class="cluster">
<title>cluster1563</title>
<polygon fill="none" stroke="black" points="627,-8 627,-101 715,-101 715,-8 627,-8"/>
<text text-anchor="middle" x="671" y="-85.8" font-family="Times,serif" font-size="14.00">1563</text>
</g>
<g id="clust7" class="cluster">
<title>cluster1564</title>
<polygon fill="none" stroke="black" points="751,-8 751,-101 839,-101 839,-8 751,-8"/>
<text text-anchor="middle" x="795" y="-85.8" font-family="Times,serif" font-size="14.00">1564</text>
</g>
<g id="clust8" class="cluster">
<title>cluster1565</title>
<polygon fill="none" stroke="black" points="875,-8 875,-101 962,-101 962,-8 875,-8"/>
<text text-anchor="middle" x="918.5" y="-85.8" font-family="Times,serif" font-size="14.00">1565</text>
</g>
<g id="clust9" class="cluster">
<title>cluster1566</title>
<polygon fill="none" stroke="black" points="998,-8 998,-101 1085,-101 1085,-8 998,-8"/>
<text text-anchor="middle" x="1041.5" y="-85.8" font-family="Times,serif" font-size="14.00">1566</text>
</g>
<g id="clust10" class="cluster">
<title>cluster1567</title>
<polygon fill="none" stroke="black" points="1121,-8 1121,-101 1209,-101 1209,-8 1121,-8"/>
<text text-anchor="middle" x="1165" y="-85.8" font-family="Times,serif" font-size="14.00">1567</text>
</g>
<g id="clust11" class="cluster">
<title>cluster1568</title>
<polygon fill="none" stroke="black" points="1245,-8 1245,-101 1333,-101 1333,-8 1245,-8"/>
<text text-anchor="middle" x="1289" y="-85.8" font-family="Times,serif" font-size="14.00">1568</text>
</g>
<g id="clust12" class="cluster">
<title>cluster1569</title>
<polygon fill="none" stroke="black" points="1369,-8 1369,-101 1457,-101 1457,-8 1369,-8"/>
<text text-anchor="middle" x="1413" y="-85.8" font-family="Times,serif" font-size="14.00">1569</text>
</g>
<g id="clust13" class="cluster">
<title>cluster1570</title>
<polygon fill="none" stroke="black" points="1493,-8 1493,-101 1580,-101 1580,-8 1493,-8"/>
<text text-anchor="middle" x="1536.5" y="-85.8" font-family="Times,serif" font-size="14.00">1570</text>
</g>
<g id="clust14" class="cluster">
<title>cluster1571</title>
<polygon fill="none" stroke="black" points="1616,-8 1616,-101 1704,-101 1704,-8 1616,-8"/>
<text text-anchor="middle" x="1660" y="-85.8" font-family="Times,serif" font-size="14.00">1571</text>
</g>
<g id="clust15" class="cluster">
<title>cluster1572</title>
<polygon fill="none" stroke="black" points="1740,-8 1740,-101 1828,-101 1828,-8 1740,-8"/>
<text text-anchor="middle" x="1784" y="-85.8" font-family="Times,serif" font-size="14.00">1572</text>
</g>
<g id="clust16" class="cluster">
<title>cluster1573</title>
<polygon fill="none" stroke="black" points="1864,-8 1864,-101 1952,-101 1952,-8 1864,-8"/>
<text text-anchor="middle" x="1908" y="-85.8" font-family="Times,serif" font-size="14.00">1573</text>
</g>
<g id="clust17" class="cluster">
<title>cluster1574</title>
<polygon fill="none" stroke="black" points="1988,-8 1988,-101 2076,-101 2076,-8 1988,-8"/>
<text text-anchor="middle" x="2032" y="-85.8" font-family="Times,serif" font-size="14.00">1574</text>
</g>
<g id="clust18" class="cluster">
<title>cluster1575</title>
<polygon fill="none" stroke="black" points="2112,-8 2112,-101 2200,-101 2200,-8 2112,-8"/>
<text text-anchor="middle" x="2156" y="-85.8" font-family="Times,serif" font-size="14.00">1575</text>
</g>
<g id="clust19" class="cluster">
<title>cluster1576</title>
<polygon fill="none" stroke="black" points="2236,-8 2236,-101 2323,-101 2323,-8 2236,-8"/>
<text text-anchor="middle" x="2279.5" y="-85.8" font-family="Times,serif" font-size="14.00">1576</text>
</g>
<g id="clust20" class="cluster">
<title>cluster1577</title>
<polygon fill="none" stroke="black" points="2359,-8 2359,-101 2447,-101 2447,-8 2359,-8"/>
<text text-anchor="middle" x="2403" y="-85.8" font-family="Times,serif" font-size="14.00">1577</text>
</g>
<g id="clust21" class="cluster">
<title>cluster1578</title>
<polygon fill="none" stroke="black" points="2483,-8 2483,-101 2570,-101 2570,-8 2483,-8"/>
<text text-anchor="middle" x="2526.5" y="-85.8" font-family="Times,serif" font-size="14.00">1578</text>
</g>
<g id="clust22" class="cluster">
<title>cluster1579</title>
<polygon fill="none" stroke="black" points="2606,-8 2606,-101 2694,-101 2694,-8 2606,-8"/>
<text text-anchor="middle" x="2650" y="-85.8" font-family="Times,serif" font-size="14.00">1579</text>
</g>
<g id="clust23" class="cluster">
<title>cluster1580</title>
<polygon fill="none" stroke="black" points="2730,-8 2730,-101 2817,-101 2817,-8 2730,-8"/>
<text text-anchor="middle" x="2773.5" y="-85.8" font-family="Times,serif" font-size="14.00">1580</text>
</g>
<g id="clust24" class="cluster">
<title>cluster1581</title>
<polygon fill="none" stroke="black" points="2853,-8 2853,-101 2941,-101 2941,-8 2853,-8"/>
<text text-anchor="middle" x="2897" y="-85.8" font-family="Times,serif" font-size="14.00">1581</text>
</g>
<g id="clust25" class="cluster">
<title>cluster1582</title>
<polygon fill="none" stroke="black" points="2977,-8 2977,-101 3065,-101 3065,-8 2977,-8"/>
<text text-anchor="middle" x="3021" y="-85.8" font-family="Times,serif" font-size="14.00">1582</text>
</g>
<g id="clust26" class="cluster">
<title>cluster1583</title>
<polygon fill="none" stroke="black" points="3101,-8 3101,-101 3189,-101 3189,-8 3101,-8"/>
<text text-anchor="middle" x="3145" y="-85.8" font-family="Times,serif" font-size="14.00">1583</text>
</g>
<g id="clust27" class="cluster">
<title>cluster1584</title>
<polygon fill="none" stroke="black" points="3225,-8 3225,-101 3313,-101 3313,-8 3225,-8"/>
<text text-anchor="middle" x="3269" y="-85.8" font-family="Times,serif" font-size="14.00">1584</text>
</g>
<g id="clust28" class="cluster">
<title>cluster1585</title>
<polygon fill="none" stroke="black" points="3349,-8 3349,-101 3437,-101 3437,-8 3349,-8"/>
<text text-anchor="middle" x="3393" y="-85.8" font-family="Times,serif" font-size="14.00">1585</text>
</g>
<g id="clust29" class="cluster">
<title>cluster1586</title>
<polygon fill="none" stroke="black" points="3473,-8 3473,-101 3560,-101 3560,-8 3473,-8"/>
<text text-anchor="middle" x="3516.5" y="-85.8" font-family="Times,serif" font-size="14.00">1586</text>
</g>
<g id="clust30" class="cluster">
<title>cluster1587</title>
<polygon fill="none" stroke="black" points="3596,-8 3596,-101 3684,-101 3684,-8 3596,-8"/>
<text text-anchor="middle" x="3640" y="-85.8" font-family="Times,serif" font-size="14.00">1587</text>
</g>
<g id="clust31" class="cluster">
<title>cluster1588</title>
<polygon fill="none" stroke="black" points="3720,-8 3720,-101 3807,-101 3807,-8 3720,-8"/>
<text text-anchor="middle" x="3763.5" y="-85.8" font-family="Times,serif" font-size="14.00">1588</text>
</g>
<!-- Node0x600001e60810 -->
<g id="node1" class="node">
<title>Node0x600001e60810</title>
<polygon fill="none" stroke="black" points="8,-9 8,-77 95,-77 95,-9 8,-9"/>
<text text-anchor="middle" x="51.5" y="-66.6" font-family="Times,serif" font-size="8.00">word: Capulet</text>
<polyline fill="none" stroke="black" points="8,-60 95,-60 "/>
<text text-anchor="middle" x="51.5" y="-49.6" font-family="Times,serif" font-size="8.00">size: 21</text>
<polyline fill="none" stroke="black" points="8,-43 95,-43 "/>
<text text-anchor="middle" x="51.5" y="-32.6" font-family="Times,serif" font-size="8.00">next: 0x600001e61050</text>
<polyline fill="none" stroke="black" points="8,-26 95,-26 "/>
<text text-anchor="middle" x="51.5" y="-15.6" font-family="Times,serif" font-size="8.00">prev: 0x0</text>
</g>
<!-- Node0x600001e61050 -->
<g id="node2" class="node">
<title>Node0x600001e61050</title>
<polygon fill="none" stroke="black" points="131,-9 131,-77 219,-77 219,-9 131,-9"/>
<text text-anchor="middle" x="175" y="-66.6" font-family="Times,serif" font-size="8.00">word: GUARDS</text>
<polyline fill="none" stroke="black" points="131,-60 219,-60 "/>
<text text-anchor="middle" x="175" y="-49.6" font-family="Times,serif" font-size="8.00">size: 1</text>
<polyline fill="none" stroke="black" points="131,-43 219,-43 "/>
<text text-anchor="middle" x="175" y="-32.6" font-family="Times,serif" font-size="8.00">next: 0x600001e63420</text>
<polyline fill="none" stroke="black" points="131,-26 219,-26 "/>
<text text-anchor="middle" x="175" y="-15.6" font-family="Times,serif" font-size="8.00">prev: 0x600001e60810</text>
</g>
<!-- Node0x600001e60810&#45;&gt;Node0x600001e61050 -->
<g id="edge1" class="edge">
<title>Node0x600001e60810:n&#45;&gt;Node0x600001e61050:n</title>
<path fill="none" stroke="red" d="M95,-34C107,-34 112.25,-34 120.88,-34"/>
<polygon fill="red" stroke="red" points="121,-37.5 131,-34 121,-30.5 121,-37.5"/>
</g>
<!-- Node0x600001e63420 -->
<g id="node3" class="node">
<title>Node0x600001e63420</title>
<polygon fill="none" stroke="black" points="255,-9 255,-77 343,-77 343,-9 255,-9"/>
<text text-anchor="middle" x="299" y="-66.6" font-family="Times,serif" font-size="8.00">word: cut</text>
<polyline fill="none" stroke="black" points="255,-60 343,-60 "/>
<text text-anchor="middle" x="299" y="-49.6" font-family="Times,serif" font-size="8.00">size: 5</text>
<polyline fill="none" stroke="black" points="255,-43 343,-43 "/>
<text text-anchor="middle" x="299" y="-32.6" font-family="Times,serif" font-size="8.00">next: 0x600001e6bb70</text>
<polyline fill="none" stroke="black" points="255,-26 343,-26 "/>
<text text-anchor="middle" x="299" y="-15.6" font-family="Times,serif" font-size="8.00">prev: 0x600001e61050</text>
</g>
<!-- Node0x600001e61050&#45;&gt;Node0x600001e63420 -->
<g id="edge2" class="edge">
<title>Node0x600001e61050:n&#45;&gt;Node0x600001e63420:n</title>
<path fill="none" stroke="red" d="M219,-34C231,-34 236.25,-34 244.88,-34"/>
<polygon fill="red" stroke="red" points="245,-37.5 255,-34 245,-30.5 245,-37.5"/>
</g>
<!-- Node0x600001e6bb70 -->
<g id="node4" class="node">
<title>Node0x600001e6bb70</title>
<polygon fill="none" stroke="black" points="379,-9 379,-77 467,-77 467,-9 379,-9"/>
<text text-anchor="middle" x="423" y="-66.6" font-family="Times,serif" font-size="8.00">word: envious</text>
<polyline fill="none" stroke="black" points="379,-60 467,-60 "/>
<text text-anchor="middle" x="423" y="-49.6" font-family="Times,serif" font-size="8.00">size: 6</text>
<polyline fill="none" stroke="black" points="379,-43 467,-43 "/>
<text text-anchor="middle" x="423" y="-32.6" font-family="Times,serif" font-size="8.00">next: 0x600001e6dc50</text>
<polyline fill="none" stroke="black" points="379,-26 467,-26 "/>
<text text-anchor="middle" x="423" y="-15.6" font-family="Times,serif" font-size="8.00">prev: 0x600001e63420</text>
</g>
<!-- Node0x600001e63420&#45;&gt;Node0x600001e6bb70 -->
<g id="edge3" class="edge">
<title>Node0x600001e63420:n&#45;&gt;Node0x600001e6bb70:n</title>
<path fill="none" stroke="red" d="M343,-34C355,-34 360.25,-34 368.88,-34"/>
<polygon fill="red" stroke="red" points="369,-37.5 379,-34 369,-30.5 369,-37.5"/>
</g>
<!-- Node0x600001e6dc50 -->
<g id="node5" class="node">
<title>Node0x600001e6dc50</title>
<polygon fill="none" stroke="black" points="503,-9 503,-77 591,-77 591,-9 503,-9"/>
<text text-anchor="middle" x="547" y="-66.6" font-family="Times,serif" font-size="8.00">word: gold</text>
<polyline fill="none" stroke="black" points="503,-60 591,-60 "/>
<text text-anchor="middle" x="547" y="-49.6" font-family="Times,serif" font-size="8.00">size: 5</text>
<polyline fill="none" stroke="black" points="503,-43 591,-43 "/>
<text text-anchor="middle" x="547" y="-32.6" font-family="Times,serif" font-size="8.00">next: 0x600001e6ecd0</text>
<polyline fill="none" stroke="black" points="503,-26 591,-26 "/>
<text text-anchor="middle" x="547" y="-15.6" font-family="Times,serif" font-size="8.00">prev: 0x600001e6bb70</text>
</g>
<!-- Node0x600001e6bb70&#45;&gt;Node0x600001e6dc50 -->
<g id="edge4" class="edge">
<title>Node0x600001e6bb70:n&#45;&gt;Node0x600001e6dc50:n</title>
<path fill="none" stroke="red" d="M467,-34C479,-34 484.25,-34 492.88,-34"/>
<polygon fill="red" stroke="red" points="493,-37.5 503,-34 493,-30.5 493,-37.5"/>
</g>
<!-- Node0x600001e6ecd0 -->
<g id="node6" class="node">
<title>Node0x600001e6ecd0</title>
<polygon fill="none" stroke="black" points="627,-9 627,-77 715,-77 715,-9 627,-9"/>
<text text-anchor="middle" x="671" y="-66.6" font-family="Times,serif" font-size="8.00">word: summers</text>
<polyline fill="none" stroke="black" points="627,-60 715,-60 "/>
<text text-anchor="middle" x="671" y="-49.6" font-family="Times,serif" font-size="8.00">size: 1</text>
<polyline fill="none" stroke="black" points="627,-43 715,-43 "/>
<text text-anchor="middle" x="671" y="-32.6" font-family="Times,serif" font-size="8.00">next: 0x600001e6f2d0</text>
<polyline fill="none" stroke="black" points="627,-26 715,-26 "/>
<text text-anchor="middle" x="671" y="-15.6" font-family="Times,serif" font-size="8.00">prev: 0x600001e6dc50</text>
</g>
<!-- Node0x600001e6dc50&#45;&gt;Node0x600001e6ecd0 -->
<g id="edge5" class="edge">
<title>Node0x600001e6dc50:n&#45;&gt;Node0x600001e6ecd0:n</title>
<path fill="none" stroke="red" d="M591,-34C603,-34 608.25,-34 616.88,-34"/>
<polygon fill="red" stroke="red" points="617,-37.5 627,-34 617,-30.5 617,-37.5"/>
</g>
<!-- Node0x600001e6f2d0 -->
<g id="node7" class="node">
<title>Node0x600001e6f2d0</title>
<polygon fill="none" stroke="black" points="751,-9 751,-77 839,-77 839,-9 751,-9"/>
<text text-anchor="middle" x="795" y="-66.6" font-family="Times,serif" font-size="8.00">word: welcome</text>
<polyline fill="none" stroke="black" points="751,-60 839,-60 "/>
<text text-anchor="middle" x="795" y="-49.6" font-family="Times,serif" font-size="8.00">size: 4</text>
<polyline fill="none" stroke="black" points="751,-43 839,-43 "/>
<text text-anchor="middle" x="795" y="-32.6" font-family="Times,serif" font-size="8.00">next: 0x600001e6f6f0</text>
<polyline fill="none" stroke="black" points="751,-26 839,-26 "/>
<text text-anchor="middle" x="795" y="-15.6" font-family="Times,serif" font-size="8.00">prev: 0x600001e6ecd0</text>
</g>
<!-- Node0x600001e6ecd0&#45;&gt;Node0x600001e6f2d0 -->
<g id="edge6" class="edge">
<title>Node0x600001e6ecd0:n&#45;&gt;Node0x600001e6f2d0:n</title>
<path fill="none" stroke="red" d="M715,-34C727,-34 732.25,-34 740.88,-34"/>
<polygon fill="red" stroke="red" points="741,-37.5 751,-34 741,-30.5 741,-37.5"/>
</g>
<!-- Node0x600001e6f6f0 -->
<g id="node8" class="node">
<title>Node0x600001e6f6f0</title>
<polygon fill="none" stroke="black" points="875,-9 875,-77 962,-77 962,-9 875,-9"/>
<text text-anchor="middle" x="918.5" y="-66.6" font-family="Times,serif" font-size="8.00">word: Hear</text>
<polyline fill="none" stroke="black" points="875,-60 962,-60 "/>
<text text-anchor="middle" x="918.5" y="-49.6" font-family="Times,serif" font-size="8.00">size: 2</text>
<polyline fill="none" stroke="black" points="875,-43 962,-43 "/>
<text text-anchor="middle" x="918.5" y="-32.6" font-family="Times,serif" font-size="8.00">next: 0x600001e70120</text>
<polyline fill="none" stroke="black" points="875,-26 962,-26 "/>
<text text-anchor="middle" x="918.5" y="-15.6" font-family="Times,serif" font-size="8.00">prev: 0x600001e6f2d0</text>
</g>
<!-- Node0x600001e6f2d0&#45;&gt;Node0x600001e6f6f0 -->
<g id="edge7" class="edge">
<title>Node0x600001e6f2d0:n&#45;&gt;Node0x600001e6f6f0:n</title>
<path fill="none" stroke="red" d="M839,-34C851,-34 856.25,-34 864.88,-34"/>
<polygon fill="red" stroke="red" points="865,-37.5 875,-34 865,-30.5 865,-37.5"/>
</g>
<!-- Node0x600001e70120 -->
<g id="node9" class="node">
<title>Node0x600001e70120</title>
<polygon fill="none" stroke="black" points="998,-9 998,-77 1085,-77 1085,-9 998,-9"/>
<text text-anchor="middle" x="1041.5" y="-66.6" font-family="Times,serif" font-size="8.00">word: holp</text>
<polyline fill="none" stroke="black" points="998,-60 1085,-60 "/>
<text text-anchor="middle" x="1041.5" y="-49.6" font-family="Times,serif" font-size="8.00">size: 1</text>
<polyline fill="none" stroke="black" points="998,-43 1085,-43 "/>
<text text-anchor="middle" x="1041.5" y="-32.6" font-family="Times,serif" font-size="8.00">next: 0x600001e646c0</text>
<polyline fill="none" stroke="black" points="998,-26 1085,-26 "/>
<text text-anchor="middle" x="1041.5" y="-15.6" font-family="Times,serif" font-size="8.00">prev: 0x600001e6f6f0</text>
</g>
<!-- Node0x600001e6f6f0&#45;&gt;Node0x600001e70120 -->
<g id="edge8" class="edge">
<title>Node0x600001e6f6f0:n&#45;&gt;Node0x600001e70120:n</title>
<path fill="none" stroke="red" d="M962,-34C974,-34 979.25,-34 987.88,-34"/>
<polygon fill="red" stroke="red" points="988,-37.5 998,-34 988,-30.5 988,-37.5"/>
</g>
<!-- Node0x600001e646c0 -->
<g id="node10" class="node">
<title>Node0x600001e646c0</title>
<polygon fill="none" stroke="black" points="1121,-9 1121,-77 1209,-77 1209,-9 1121,-9"/>
<text text-anchor="middle" x="1165" y="-66.6" font-family="Times,serif" font-size="8.00">word: shining</text>
<polyline fill="none" stroke="black" points="1121,-60 1209,-60 "/>
<text text-anchor="middle" x="1165" y="-49.6" font-family="Times,serif" font-size="8.00">size: 1</text>
<polyline fill="none" stroke="black" points="1121,-43 1209,-43 "/>
<text text-anchor="middle" x="1165" y="-32.6" font-family="Times,serif" font-size="8.00">next: 0x600001e65380</text>
<polyline fill="none" stroke="black" points="1121,-26 1209,-26 "/>
<text text-anchor="middle" x="1165" y="-15.6" font-family="Times,serif" font-size="8.00">prev: 0x600001e70120</text>
</g>
<!-- Node0x600001e70120&#45;&gt;Node0x600001e646c0 -->
<g id="edge9" class="edge">
<title>Node0x600001e70120:n&#45;&gt;Node0x600001e646c0:n</title>
<path fill="none" stroke="red" d="M1085,-34C1097,-34 1102.25,-34 1110.88,-34"/>
<polygon fill="red" stroke="red" points="1111,-37.5 1121,-34 1111,-30.5 1111,-37.5"/>
</g>
<!-- Node0x600001e65380 -->
<g id="node11" class="node">
<title>Node0x600001e65380</title>
<polygon fill="none" stroke="black" points="1245,-9 1245,-77 1333,-77 1333,-9 1245,-9"/>
<text text-anchor="middle" x="1289" y="-66.6" font-family="Times,serif" font-size="8.00">word: rood</text>
<polyline fill="none" stroke="black" points="1245,-60 1333,-60 "/>
<text text-anchor="middle" x="1289" y="-49.6" font-family="Times,serif" font-size="8.00">size: 1</text>
<polyline fill="none" stroke="black" points="1245,-43 1333,-43 "/>
<text text-anchor="middle" x="1289" y="-32.6" font-family="Times,serif" font-size="8.00">next: 0x600001e65f80</text>
<polyline fill="none" stroke="black" points="1245,-26 1333,-26 "/>
<text text-anchor="middle" x="1289" y="-15.6" font-family="Times,serif" font-size="8.00">prev: 0x600001e646c0</text>
</g>
<!-- Node0x600001e646c0&#45;&gt;Node0x600001e65380 -->
<g id="edge10" class="edge">
<title>Node0x600001e646c0:n&#45;&gt;Node0x600001e65380:n</title>
<path fill="none" stroke="red" d="M1209,-34C1221,-34 1226.25,-34 1234.88,-34"/>
<polygon fill="red" stroke="red" points="1235,-37.5 1245,-34 1235,-30.5 1235,-37.5"/>
</g>
<!-- Node0x600001e65f80 -->
<g id="node12" class="node">
<title>Node0x600001e65f80</title>
<polygon fill="none" stroke="black" points="1369,-9 1369,-77 1457,-77 1457,-9 1369,-9"/>
<text text-anchor="middle" x="1413" y="-66.6" font-family="Times,serif" font-size="8.00">word: summer</text>
<polyline fill="none" stroke="black" points="1369,-60 1457,-60 "/>
<text text-anchor="middle" x="1413" y="-49.6" font-family="Times,serif" font-size="8.00">size: 3</text>
<polyline fill="none" stroke="black" points="1369,-43 1457,-43 "/>
<text text-anchor="middle" x="1413" y="-32.6" font-family="Times,serif" font-size="8.00">next: 0x600001e67a80</text>
<polyline fill="none" stroke="black" points="1369,-26 1457,-26 "/>
<text text-anchor="middle" x="1413" y="-15.6" font-family="Times,serif" font-size="8.00">prev: 0x600001e65380</text>
</g>
<!-- Node0x600001e65380&#45;&gt;Node0x600001e65f80 -->
<g id="edge11" class="edge">
<title>Node0x600001e65380:n&#45;&gt;Node0x600001e65f80:n</title>
<path fill="none" stroke="red" d="M1333,-34C1345,-34 1350.25,-34 1358.88,-34"/>
<polygon fill="red" stroke="red" points="1359,-37.5 1369,-34 1359,-30.5 1359,-37.5"/>
</g>
<!-- Node0x600001e67a80 -->
<g id="node13" class="node">
<title>Node0x600001e67a80</title>
<polygon fill="none" stroke="black" points="1493,-9 1493,-77 1580,-77 1580,-9 1493,-9"/>
<text text-anchor="middle" x="1536.5" y="-66.6" font-family="Times,serif" font-size="8.00">word: vain</text>
<polyline fill="none" stroke="black" points="1493,-60 1580,-60 "/>
<text text-anchor="middle" x="1536.5" y="-49.6" font-family="Times,serif" font-size="8.00">size: 3</text>
<polyline fill="none" stroke="black" points="1493,-43 1580,-43 "/>
<text text-anchor="middle" x="1536.5" y="-32.6" font-family="Times,serif" font-size="8.00">next: 0x600001e74780</text>
<polyline fill="none" stroke="black" points="1493,-26 1580,-26 "/>
<text text-anchor="middle" x="1536.5" y="-15.6" font-family="Times,serif" font-size="8.00">prev: 0x600001e65f80</text>
</g>
<!-- Node0x600001e65f80&#45;&gt;Node0x600001e67a80 -->
<g id="edge12" class="edge">
<title>Node0x600001e65f80:n&#45;&gt;Node0x600001e67a80:n</title>
<path fill="none" stroke="red" d="M1457,-34C1469,-34 1474.25,-34 1482.88,-34"/>
<polygon fill="red" stroke="red" points="1483,-37.5 1493,-34 1483,-30.5 1483,-37.5"/>
</g>
<!-- Node0x600001e74780 -->
<g id="node14" class="node">
<title>Node0x600001e74780</title>
<polygon fill="none" stroke="black" points="1616,-9 1616,-77 1704,-77 1704,-9 1616,-9"/>
<text text-anchor="middle" x="1660" y="-66.6" font-family="Times,serif" font-size="8.00">word: cursies</text>
<polyline fill="none" stroke="black" points="1616,-60 1704,-60 "/>
<text text-anchor="middle" x="1660" y="-49.6" font-family="Times,serif" font-size="8.00">size: 1</text>
<polyline fill="none" stroke="black" points="1616,-43 1704,-43 "/>
<text text-anchor="middle" x="1660" y="-32.6" font-family="Times,serif" font-size="8.00">next: 0x600001e760d0</text>
<polyline fill="none" stroke="black" points="1616,-26 1704,-26 "/>
<text text-anchor="middle" x="1660" y="-15.6" font-family="Times,serif" font-size="8.00">prev: 0x600001e67a80</text>
</g>
<!-- Node0x600001e67a80&#45;&gt;Node0x600001e74780 -->
<g id="edge13" class="edge">
<title>Node0x600001e67a80:n&#45;&gt;Node0x600001e74780:n</title>
<path fill="none" stroke="red" d="M1580,-34C1592,-34 1597.25,-34 1605.88,-34"/>
<polygon fill="red" stroke="red" points="1606,-37.5 1616,-34 1606,-30.5 1606,-37.5"/>
</g>
<!-- Node0x600001e760d0 -->
<g id="node15" class="node">
<title>Node0x600001e760d0</title>
<polygon fill="none" stroke="black" points="1740,-9 1740,-77 1828,-77 1828,-9 1740,-9"/>
<text text-anchor="middle" x="1784" y="-66.6" font-family="Times,serif" font-size="8.00">word: Unplagu</text>
<polyline fill="none" stroke="black" points="1740,-60 1828,-60 "/>
<text text-anchor="middle" x="1784" y="-49.6" font-family="Times,serif" font-size="8.00">size: 1</text>
<polyline fill="none" stroke="black" points="1740,-43 1828,-43 "/>
<text text-anchor="middle" x="1784" y="-32.6" font-family="Times,serif" font-size="8.00">next: 0x600001e76a30</text>
<polyline fill="none" stroke="black" points="1740,-26 1828,-26 "/>
<text text-anchor="middle" x="1784" y="-15.6" font-family="Times,serif" font-size="8.00">prev: 0x600001e74780</text>
</g>
<!-- Node0x600001e74780&#45;&gt;Node0x600001e760d0 -->
<g id="edge14" class="edge">
<title>Node0x600001e74780:n&#45;&gt;Node0x600001e760d0:n</title>
<path fill="none" stroke="red" d="M1704,-34C1716,-34 1721.25,-34 1729.88,-34"/>
<polygon fill="red" stroke="red" points="1730,-37.5 1740,-34 1730,-30.5 1730,-37.5"/>
</g>
<!-- Node0x600001e76a30 -->
<g id="node16" class="node">
<title>Node0x600001e76a30</title>
<polygon fill="none" stroke="black" points="1864,-9 1864,-77 1952,-77 1952,-9 1864,-9"/>
<text text-anchor="middle" x="1908" y="-66.6" font-family="Times,serif" font-size="8.00">word: dear</text>
<polyline fill="none" stroke="black" points="1864,-60 1952,-60 "/>
<text text-anchor="middle" x="1908" y="-49.6" font-family="Times,serif" font-size="8.00">size: 26</text>
<polyline fill="none" stroke="black" points="1864,-43 1952,-43 "/>
<text text-anchor="middle" x="1908" y="-32.6" font-family="Times,serif" font-size="8.00">next: 0x600001e77d80</text>
<polyline fill="none" stroke="black" points="1864,-26 1952,-26 "/>
<text text-anchor="middle" x="1908" y="-15.6" font-family="Times,serif" font-size="8.00">prev: 0x600001e760d0</text>
</g>
<!-- Node0x600001e760d0&#45;&gt;Node0x600001e76a30 -->
<g id="edge15" class="edge">
<title>Node0x600001e760d0:n&#45;&gt;Node0x600001e76a30:n</title>
<path fill="none" stroke="red" d="M1828,-34C1840,-34 1845.25,-34 1853.88,-34"/>
<polygon fill="red" stroke="red" points="1854,-37.5 1864,-34 1854,-30.5 1854,-37.5"/>
</g>
<!-- Node0x600001e77d80 -->
<g id="node17" class="node">
<title>Node0x600001e77d80</title>
<polygon fill="none" stroke="black" points="1988,-9 1988,-77 2076,-77 2076,-9 1988,-9"/>
<text text-anchor="middle" x="2032" y="-66.6" font-family="Times,serif" font-size="8.00">word: towards</text>
<polyline fill="none" stroke="black" points="1988,-60 2076,-60 "/>
<text text-anchor="middle" x="2032" y="-49.6" font-family="Times,serif" font-size="8.00">size: 2</text>
<polyline fill="none" stroke="black" points="1988,-43 2076,-43 "/>
<text text-anchor="middle" x="2032" y="-32.6" font-family="Times,serif" font-size="8.00">next: 0x600001e7cf90</text>
<polyline fill="none" stroke="black" points="1988,-26 2076,-26 "/>
<text text-anchor="middle" x="2032" y="-15.6" font-family="Times,serif" font-size="8.00">prev: 0x600001e76a30</text>
</g>
<!-- Node0x600001e76a30&#45;&gt;Node0x600001e77d80 -->
<g id="edge16" class="edge">
<title>Node0x600001e76a30:n&#45;&gt;Node0x600001e77d80:n</title>
<path fill="none" stroke="red" d="M1952,-34C1964,-34 1969.25,-34 1977.88,-34"/>
<polygon fill="red" stroke="red" points="1978,-37.5 1988,-34 1978,-30.5 1978,-37.5"/>
</g>
<!-- Node0x600001e7cf90 -->
<g id="node18" class="node">
<title>Node0x600001e7cf90</title>
<polygon fill="none" stroke="black" points="2112,-9 2112,-77 2200,-77 2200,-9 2112,-9"/>
<text text-anchor="middle" x="2156" y="-66.6" font-family="Times,serif" font-size="8.00">word: region</text>
<polyline fill="none" stroke="black" points="2112,-60 2200,-60 "/>
<text text-anchor="middle" x="2156" y="-49.6" font-family="Times,serif" font-size="8.00">size: 1</text>
<polyline fill="none" stroke="black" points="2112,-43 2200,-43 "/>
<text text-anchor="middle" x="2156" y="-32.6" font-family="Times,serif" font-size="8.00">next: 0x600001e7d950</text>
<polyline fill="none" stroke="black" points="2112,-26 2200,-26 "/>
<text text-anchor="middle" x="2156" y="-15.6" font-family="Times,serif" font-size="8.00">prev: 0x600001e77d80</text>
</g>
<!-- Node0x600001e77d80&#45;&gt;Node0x600001e7cf90 -->
<g id="edge17" class="edge">
<title>Node0x600001e77d80:n&#45;&gt;Node0x600001e7cf90:n</title>
<path fill="none" stroke="red" d="M2076,-34C2088,-34 2093.25,-34 2101.88,-34"/>
<polygon fill="red" stroke="red" points="2102,-37.5 2112,-34 2102,-30.5 2102,-37.5"/>
</g>
<!-- Node0x600001e7d950 -->
<g id="node19" class="node">
<title>Node0x600001e7d950</title>
<polygon fill="none" stroke="black" points="2236,-9 2236,-77 2323,-77 2323,-9 2236,-9"/>
<text text-anchor="middle" x="2279.5" y="-66.6" font-family="Times,serif" font-size="8.00">word: climb</text>
<polyline fill="none" stroke="black" points="2236,-60 2323,-60 "/>
<text text-anchor="middle" x="2279.5" y="-49.6" font-family="Times,serif" font-size="8.00">size: 2</text>
<polyline fill="none" stroke="black" points="2236,-43 2323,-43 "/>
<text text-anchor="middle" x="2279.5" y="-32.6" font-family="Times,serif" font-size="8.00">next: 0x600001e7fe70</text>
<polyline fill="none" stroke="black" points="2236,-26 2323,-26 "/>
<text text-anchor="middle" x="2279.5" y="-15.6" font-family="Times,serif" font-size="8.00">prev: 0x600001e7cf90</text>
</g>
<!-- Node0x600001e7cf90&#45;&gt;Node0x600001e7d950 -->
<g id="edge18" class="edge">
<title>Node0x600001e7cf90:n&#45;&gt;Node0x600001e7d950:n</title>
<path fill="none" stroke="red" d="M2200,-34C2212,-34 2217.25,-34 2225.88,-34"/>
<polygon fill="red" stroke="red" points="2226,-37.5 2236,-34 2226,-30.5 2226,-37.5"/>
</g>
<!-- Node0x600001e7fe70 -->
<g id="node20" class="node">
<title>Node0x600001e7fe70</title>
<polygon fill="none" stroke="black" points="2359,-9 2359,-77 2447,-77 2447,-9 2359,-9"/>
<text text-anchor="middle" x="2403" y="-66.6" font-family="Times,serif" font-size="8.00">word: powerful</text>
<polyline fill="none" stroke="black" points="2359,-60 2447,-60 "/>
<text text-anchor="middle" x="2403" y="-49.6" font-family="Times,serif" font-size="8.00">size: 1</text>
<polyline fill="none" stroke="black" points="2359,-43 2447,-43 "/>
<text text-anchor="middle" x="2403" y="-32.6" font-family="Times,serif" font-size="8.00">next: 0x600001e40090</text>
<polyline fill="none" stroke="black" points="2359,-26 2447,-26 "/>
<text text-anchor="middle" x="2403" y="-15.6" font-family="Times,serif" font-size="8.00">prev: 0x600001e7d950</text>
</g>
<!-- Node0x600001e7d950&#45;&gt;Node0x600001e7fe70 -->
<g id="edge19" class="edge">
<title>Node0x600001e7d950:n&#45;&gt;Node0x600001e7fe70:n</title>
<path fill="none" stroke="red" d="M2323,-34C2335,-34 2340.25,-34 2348.88,-34"/>
<polygon fill="red" stroke="red" points="2349,-37.5 2359,-34 2349,-30.5 2349,-37.5"/>
</g>
<!-- Node0x600001e40090 -->
<g id="node21" class="node">
<title>Node0x600001e40090</title>
<polygon fill="none" stroke="black" points="2483,-9 2483,-77 2570,-77 2570,-9 2483,-9"/>
<text text-anchor="middle" x="2526.5" y="-66.6" font-family="Times,serif" font-size="8.00">word: Virtue</text>
<polyline fill="none" stroke="black" points="2483,-60 2570,-60 "/>
<text text-anchor="middle" x="2526.5" y="-49.6" font-family="Times,serif" font-size="8.00">size: 1</text>
<polyline fill="none" stroke="black" points="2483,-43 2570,-43 "/>
<text text-anchor="middle" x="2526.5" y="-32.6" font-family="Times,serif" font-size="8.00">next: 0x600001e42fd0</text>
<polyline fill="none" stroke="black" points="2483,-26 2570,-26 "/>
<text text-anchor="middle" x="2526.5" y="-15.6" font-family="Times,serif" font-size="8.00">prev: 0x600001e7fe70</text>
</g>
<!-- Node0x600001e7fe70&#45;&gt;Node0x600001e40090 -->
<g id="edge20" class="edge">
<title>Node0x600001e7fe70:n&#45;&gt;Node0x600001e40090:n</title>
<path fill="none" stroke="red" d="M2447,-34C2459,-34 2464.25,-34 2472.88,-34"/>
<polygon fill="red" stroke="red" points="2473,-37.5 2483,-34 2473,-30.5 2473,-37.5"/>
</g>
<!-- Node0x600001e42fd0 -->
<g id="node22" class="node">
<title>Node0x600001e42fd0</title>
<polygon fill="none" stroke="black" points="2606,-9 2606,-77 2694,-77 2694,-9 2606,-9"/>
<text text-anchor="middle" x="2650" y="-66.6" font-family="Times,serif" font-size="8.00">word: Man</text>
<polyline fill="none" stroke="black" points="2606,-60 2694,-60 "/>
<text text-anchor="middle" x="2650" y="-49.6" font-family="Times,serif" font-size="8.00">size: 1</text>
<polyline fill="none" stroke="black" points="2606,-43 2694,-43 "/>
<text text-anchor="middle" x="2650" y="-32.6" font-family="Times,serif" font-size="8.00">next: 0x600001e44630</text>
<polyline fill="none" stroke="black" points="2606,-26 2694,-26 "/>
<text text-anchor="middle" x="2650" y="-15.6" font-family="Times,serif" font-size="8.00">prev: 0x600001e40090</text>
</g>
<!-- Node0x600001e40090&#45;&gt;Node0x600001e42fd0 -->
<g id="edge21" class="edge">
<title>Node0x600001e40090:n&#45;&gt;Node0x600001e42fd0:n</title>
<path fill="none" stroke="red" d="M2570,-34C2582,-34 2587.25,-34 2595.88,-34"/>
<polygon fill="red" stroke="red" points="2596,-37.5 2606,-34 2596,-30.5 2596,-37.5"/>
</g>
<!-- Node0x600001e44630 -->
<g id="node23" class="node">
<title>Node0x600001e44630</title>
<polygon fill="none" stroke="black" points="2730,-9 2730,-77 2817,-77 2817,-9 2730,-9"/>
<text text-anchor="middle" x="2773.5" y="-66.6" font-family="Times,serif" font-size="8.00">word: pinion</text>
<polyline fill="none" stroke="black" points="2730,-60 2817,-60 "/>
<text text-anchor="middle" x="2773.5" y="-49.6" font-family="Times,serif" font-size="8.00">size: 1</text>
<polyline fill="none" stroke="black" points="2730,-43 2817,-43 "/>
<text text-anchor="middle" x="2773.5" y="-32.6" font-family="Times,serif" font-size="8.00">next: 0x600001e44bd0</text>
<polyline fill="none" stroke="black" points="2730,-26 2817,-26 "/>
<text text-anchor="middle" x="2773.5" y="-15.6" font-family="Times,serif" font-size="8.00">prev: 0x600001e42fd0</text>
</g>
<!-- Node0x600001e42fd0&#45;&gt;Node0x600001e44630 -->
<g id="edge22" class="edge">
<title>Node0x600001e42fd0:n&#45;&gt;Node0x600001e44630:n</title>
<path fill="none" stroke="red" d="M2694,-34C2706,-34 2711.25,-34 2719.88,-34"/>
<polygon fill="red" stroke="red" points="2720,-37.5 2730,-34 2720,-30.5 2720,-37.5"/>
</g>
<!-- Node0x600001e44bd0 -->
<g id="node24" class="node">
<title>Node0x600001e44bd0</title>
<polygon fill="none" stroke="black" points="2853,-9 2853,-77 2941,-77 2941,-9 2853,-9"/>
<text text-anchor="middle" x="2897" y="-66.6" font-family="Times,serif" font-size="8.00">word: simple</text>
<polyline fill="none" stroke="black" points="2853,-60 2941,-60 "/>
<text text-anchor="middle" x="2897" y="-49.6" font-family="Times,serif" font-size="8.00">size: 5</text>
<polyline fill="none" stroke="black" points="2853,-43 2941,-43 "/>
<text text-anchor="middle" x="2897" y="-32.6" font-family="Times,serif" font-size="8.00">next: 0x600001e48c60</text>
<polyline fill="none" stroke="black" points="2853,-26 2941,-26 "/>
<text text-anchor="middle" x="2897" y="-15.6" font-family="Times,serif" font-size="8.00">prev: 0x600001e44630</text>
</g>
<!-- Node0x600001e44630&#45;&gt;Node0x600001e44bd0 -->
<g id="edge23" class="edge">
<title>Node0x600001e44630:n&#45;&gt;Node0x600001e44bd0:n</title>
<path fill="none" stroke="red" d="M2817,-34C2829,-34 2834.25,-34 2842.88,-34"/>
<polygon fill="red" stroke="red" points="2843,-37.5 2853,-34 2843,-30.5 2843,-37.5"/>
</g>
<!-- Node0x600001e48c60 -->
<g id="node25" class="node">
<title>Node0x600001e48c60</title>
<polygon fill="none" stroke="black" points="2977,-9 2977,-77 3065,-77 3065,-9 2977,-9"/>
<text text-anchor="middle" x="3021" y="-66.6" font-family="Times,serif" font-size="8.00">word: vowel</text>
<polyline fill="none" stroke="black" points="2977,-60 3065,-60 "/>
<text text-anchor="middle" x="3021" y="-49.6" font-family="Times,serif" font-size="8.00">size: 1</text>
<polyline fill="none" stroke="black" points="2977,-43 3065,-43 "/>
<text text-anchor="middle" x="3021" y="-32.6" font-family="Times,serif" font-size="8.00">next: 0x600001e49da0</text>
<polyline fill="none" stroke="black" points="2977,-26 3065,-26 "/>
<text text-anchor="middle" x="3021" y="-15.6" font-family="Times,serif" font-size="8.00">prev: 0x600001e44bd0</text>
</g>
<!-- Node0x600001e44bd0&#45;&gt;Node0x600001e48c60 -->
<g id="edge24" class="edge">
<title>Node0x600001e44bd0:n&#45;&gt;Node0x600001e48c60:n</title>
<path fill="none" stroke="red" d="M2941,-34C2953,-34 2958.25,-34 2966.88,-34"/>
<polygon fill="red" stroke="red" points="2967,-37.5 2977,-34 2967,-30.5 2967,-37.5"/>
</g>
<!-- Node0x600001e49da0 -->
<g id="node26" class="node">
<title>Node0x600001e49da0</title>
<polygon fill="none" stroke="black" points="3101,-9 3101,-77 3189,-77 3189,-9 3101,-9"/>
<text text-anchor="middle" x="3145" y="-66.6" font-family="Times,serif" font-size="8.00">word: wounds</text>
<polyline fill="none" stroke="black" points="3101,-60 3189,-60 "/>
<text text-anchor="middle" x="3145" y="-49.6" font-family="Times,serif" font-size="8.00">size: 1</text>
<polyline fill="none" stroke="black" points="3101,-43 3189,-43 "/>
<text text-anchor="middle" x="3145" y="-32.6" font-family="Times,serif" font-size="8.00">next: 0x600001e4a670</text>
<polyline fill="none" stroke="black" points="3101,-26 3189,-26 "/>
<text text-anchor="middle" x="3145" y="-15.6" font-family="Times,serif" font-size="8.00">prev: 0x600001e48c60</text>
</g>
<!-- Node0x600001e48c60&#45;&gt;Node0x600001e49da0 -->
<g id="edge25" class="edge">
<title>Node0x600001e48c60:n&#45;&gt;Node0x600001e49da0:n</title>
<path fill="none" stroke="red" d="M3065,-34C3077,-34 3082.25,-34 3090.88,-34"/>
<polygon fill="red" stroke="red" points="3091,-37.5 3101,-34 3091,-30.5 3091,-37.5"/>
</g>
<!-- Node0x600001e4a670 -->
<g id="node27" class="node">
<title>Node0x600001e4a670</title>
<polygon fill="none" stroke="black" points="3225,-9 3225,-77 3313,-77 3313,-9 3225,-9"/>
<text text-anchor="middle" x="3269" y="-66.6" font-family="Times,serif" font-size="8.00">word: free</text>
<polyline fill="none" stroke="black" points="3225,-60 3313,-60 "/>
<text text-anchor="middle" x="3269" y="-49.6" font-family="Times,serif" font-size="8.00">size: 2</text>
<polyline fill="none" stroke="black" points="3225,-43 3313,-43 "/>
<text text-anchor="middle" x="3269" y="-32.6" font-family="Times,serif" font-size="8.00">next: 0x600001e71fb0</text>
<polyline fill="none" stroke="black" points="3225,-26 3313,-26 "/>
<text text-anchor="middle" x="3269" y="-15.6" font-family="Times,serif" font-size="8.00">prev: 0x600001e49da0</text>
</g>
<!-- Node0x600001e49da0&#45;&gt;Node0x600001e4a670 -->
<g id="edge26" class="edge">
<title>Node0x600001e49da0:n&#45;&gt;Node0x600001e4a670:n</title>
<path fill="none" stroke="red" d="M3189,-34C3201,-34 3206.25,-34 3214.88,-34"/>
<polygon fill="red" stroke="red" points="3215,-37.5 3225,-34 3215,-30.5 3215,-37.5"/>
</g>
<!-- Node0x600001e71fb0 -->
<g id="node28" class="node">
<title>Node0x600001e71fb0</title>
<polygon fill="none" stroke="black" points="3349,-9 3349,-77 3437,-77 3437,-9 3349,-9"/>
<text text-anchor="middle" x="3393" y="-66.6" font-family="Times,serif" font-size="8.00">word: hurdle</text>
<polyline fill="none" stroke="black" points="3349,-60 3437,-60 "/>
<text text-anchor="middle" x="3393" y="-49.6" font-family="Times,serif" font-size="8.00">size: 1</text>
<polyline fill="none" stroke="black" points="3349,-43 3437,-43 "/>
<text text-anchor="middle" x="3393" y="-32.6" font-family="Times,serif" font-size="8.00">next: 0x600001e78cc0</text>
<polyline fill="none" stroke="black" points="3349,-26 3437,-26 "/>
<text text-anchor="middle" x="3393" y="-15.6" font-family="Times,serif" font-size="8.00">prev: 0x600001e4a670</text>
</g>
<!-- Node0x600001e4a670&#45;&gt;Node0x600001e71fb0 -->
<g id="edge27" class="edge">
<title>Node0x600001e4a670:n&#45;&gt;Node0x600001e71fb0:n</title>
<path fill="none" stroke="red" d="M3313,-34C3325,-34 3330.25,-34 3338.88,-34"/>
<polygon fill="red" stroke="red" points="3339,-37.5 3349,-34 3339,-30.5 3339,-37.5"/>
</g>
<!-- Node0x600001e78cc0 -->
<g id="node29" class="node">
<title>Node0x600001e78cc0</title>
<polygon fill="none" stroke="black" points="3473,-9 3473,-77 3560,-77 3560,-9 3473,-9"/>
<text text-anchor="middle" x="3516.5" y="-66.6" font-family="Times,serif" font-size="8.00">word: report</text>
<polyline fill="none" stroke="black" points="3473,-60 3560,-60 "/>
<text text-anchor="middle" x="3516.5" y="-49.6" font-family="Times,serif" font-size="8.00">size: 1</text>
<polyline fill="none" stroke="black" points="3473,-43 3560,-43 "/>
<text text-anchor="middle" x="3516.5" y="-32.6" font-family="Times,serif" font-size="8.00">next: 0x600001e7af10</text>
<polyline fill="none" stroke="black" points="3473,-26 3560,-26 "/>
<text text-anchor="middle" x="3516.5" y="-15.6" font-family="Times,serif" font-size="8.00">prev: 0x600001e71fb0</text>
</g>
<!-- Node0x600001e71fb0&#45;&gt;Node0x600001e78cc0 -->
<g id="edge28" class="edge">
<title>Node0x600001e71fb0:n&#45;&gt;Node0x600001e78cc0:n</title>
<path fill="none" stroke="red" d="M3437,-34C3449,-34 3454.25,-34 3462.88,-34"/>
<polygon fill="red" stroke="red" points="3463,-37.5 3473,-34 3463,-30.5 3463,-37.5"/>
</g>
<!-- Node0x600001e7af10 -->
<g id="node30" class="node">
<title>Node0x600001e7af10</title>
<polygon fill="none" stroke="black" points="3596,-9 3596,-77 3684,-77 3684,-9 3596,-9"/>
<text text-anchor="middle" x="3640" y="-66.6" font-family="Times,serif" font-size="8.00">word: Seeking</text>
<polyline fill="none" stroke="black" points="3596,-60 3684,-60 "/>
<text text-anchor="middle" x="3640" y="-49.6" font-family="Times,serif" font-size="8.00">size: 1</text>
<polyline fill="none" stroke="black" points="3596,-43 3684,-43 "/>
<text text-anchor="middle" x="3640" y="-32.6" font-family="Times,serif" font-size="8.00">next: 0x600001e7b960</text>
<polyline fill="none" stroke="black" points="3596,-26 3684,-26 "/>
<text text-anchor="middle" x="3640" y="-15.6" font-family="Times,serif" font-size="8.00">prev: 0x600001e78cc0</text>
</g>
<!-- Node0x600001e78cc0&#45;&gt;Node0x600001e7af10 -->
<g id="edge29" class="edge">
<title>Node0x600001e78cc0:n&#45;&gt;Node0x600001e7af10:n</title>
<path fill="none" stroke="red" d="M3560,-34C3572,-34 3577.25,-34 3585.88,-34"/>
<polygon fill="red" stroke="red" points="3586,-37.5 3596,-34 3586,-30.5 3586,-37.5"/>
</g>
<!-- Node0x600001e7b960 -->
<g id="node31" class="node">
<title>Node0x600001e7b960</title>
<polygon fill="none" stroke="black" points="3720,-9 3720,-77 3807,-77 3807,-9 3720,-9"/>
<text text-anchor="middle" x="3763.5" y="-66.6" font-family="Times,serif" font-size="8.00">word: Most</text>
<polyline fill="none" stroke="black" points="3720,-60 3807,-60 "/>
<text text-anchor="middle" x="3763.5" y="-49.6" font-family="Times,serif" font-size="8.00">size: 3</text>
<polyline fill="none" stroke="black" points="3720,-43 3807,-43 "/>
<text text-anchor="middle" x="3763.5" y="-32.6" font-family="Times,serif" font-size="8.00">next: 0x0</text>
<polyline fill="none" stroke="black" points="3720,-26 3807,-26 "/>
<text text-anchor="middle" x="3763.5" y="-15.6" font-family="Times,serif" font-size="8.00">prev: 0x600001e7af10</text>
</g>
<!-- Node0x600001e7af10&#45;&gt;Node0x600001e7b960 -->
<g id="edge30" class="edge">
<title>Node0x600001e7af10:n&#45;&gt;Node0x600001e7b960:n</title>
<path fill="none" stroke="red" d="M3684,-34C3696,-34 3701.25,-34 3709.88,-34"/>
<polygon fill="red" stroke="red" points="3710,-37.5 3720,-34 3710,-30.5 3710,-37.5"/>
</g>
</g>
</svg>
