<?xml version="1.0" encoding="UTF-8" standalone="no"?>
<!DOCTYPE svg PUBLIC "-//W3C//DTD SVG 1.1//EN"
 "http://www.w3.org/Graphics/SVG/1.1/DTD/svg11.dtd">
<!-- Generated by graphviz version 2.50.0 (20211204.2007)
 -->
<!-- Title: G Pages: 1 -->
<svg width="4337pt" height="117pt"
 viewBox="0.00 0.00 4337.00 117.00" xmlns="http://www.w3.org/2000/svg" xmlns:xlink="http://www.w3.org/1999/xlink">
<g id="graph0" class="graph" transform="scale(1 1) rotate(0) translate(4 113)">
<title>G</title>
<polygon fill="white" stroke="transparent" points="-4,4 -4,-113 4333,-113 4333,4 -4,4"/>
<g id="clust2" class="cluster">
<title>cluster3582</title>
<polygon fill="none" stroke="black" points="131,-8 131,-101 219,-101 219,-8 131,-8"/>
<text text-anchor="middle" x="175" y="-85.8" font-family="Times,serif" font-size="14.00">3582</text>
</g>
<g id="clust1" class="cluster">
<title>cluster3581</title>
<polygon fill="none" stroke="black" points="8,-8 8,-101 95,-101 95,-8 8,-8"/>
<text text-anchor="middle" x="51.5" y="-85.8" font-family="Times,serif" font-size="14.00">3581</text>
</g>
<g id="clust3" class="cluster">
<title>cluster3583</title>
<polygon fill="none" stroke="black" points="255,-8 255,-101 343,-101 343,-8 255,-8"/>
<text text-anchor="middle" x="299" y="-85.8" font-family="Times,serif" font-size="14.00">3583</text>
</g>
<g id="clust4" class="cluster">
<title>cluster3584</title>
<polygon fill="none" stroke="black" points="379,-8 379,-101 467,-101 467,-8 379,-8"/>
<text text-anchor="middle" x="423" y="-85.8" font-family="Times,serif" font-size="14.00">3584</text>
</g>
<g id="clust5" class="cluster">
<title>cluster3585</title>
<polygon fill="none" stroke="black" points="503,-8 503,-101 591,-101 591,-8 503,-8"/>
<text text-anchor="middle" x="547" y="-85.8" font-family="Times,serif" font-size="14.00">3585</text>
</g>
<g id="clust6" class="cluster">
<title>cluster3586</title>
<polygon fill="none" stroke="black" points="627,-8 627,-101 718,-101 718,-8 627,-8"/>
<text text-anchor="middle" x="672.5" y="-85.8" font-family="Times,serif" font-size="14.00">3586</text>
</g>
<g id="clust7" class="cluster">
<title>cluster3587</title>
<polygon fill="none" stroke="black" points="754,-8 754,-101 842,-101 842,-8 754,-8"/>
<text text-anchor="middle" x="798" y="-85.8" font-family="Times,serif" font-size="14.00">3587</text>
</g>
<g id="clust8" class="cluster">
<title>cluster3588</title>
<polygon fill="none" stroke="black" points="878,-8 878,-101 966,-101 966,-8 878,-8"/>
<text text-anchor="middle" x="922" y="-85.8" font-family="Times,serif" font-size="14.00">3588</text>
</g>
<g id="clust9" class="cluster">
<title>cluster3589</title>
<polygon fill="none" stroke="black" points="1002,-8 1002,-101 1090,-101 1090,-8 1002,-8"/>
<text text-anchor="middle" x="1046" y="-85.8" font-family="Times,serif" font-size="14.00">3589</text>
</g>
<g id="clust10" class="cluster">
<title>cluster3590</title>
<polygon fill="none" stroke="black" points="1126,-8 1126,-101 1214,-101 1214,-8 1126,-8"/>
<text text-anchor="middle" x="1170" y="-85.8" font-family="Times,serif" font-size="14.00">3590</text>
</g>
<g id="clust11" class="cluster">
<title>cluster3591</title>
<polygon fill="none" stroke="black" points="1250,-8 1250,-101 1337,-101 1337,-8 1250,-8"/>
<text text-anchor="middle" x="1293.5" y="-85.8" font-family="Times,serif" font-size="14.00">3591</text>
</g>
<g id="clust12" class="cluster">
<title>cluster3592</title>
<polygon fill="none" stroke="black" points="1373,-8 1373,-101 1460,-101 1460,-8 1373,-8"/>
<text text-anchor="middle" x="1416.5" y="-85.8" font-family="Times,serif" font-size="14.00">3592</text>
</g>
<g id="clust13" class="cluster">
<title>cluster3593</title>
<polygon fill="none" stroke="black" points="1496,-8 1496,-101 1584,-101 1584,-8 1496,-8"/>
<text text-anchor="middle" x="1540" y="-85.8" font-family="Times,serif" font-size="14.00">3593</text>
</g>
<g id="clust14" class="cluster">
<title>cluster3594</title>
<polygon fill="none" stroke="black" points="1620,-8 1620,-101 1708,-101 1708,-8 1620,-8"/>
<text text-anchor="middle" x="1664" y="-85.8" font-family="Times,serif" font-size="14.00">3594</text>
</g>
<g id="clust15" class="cluster">
<title>cluster3595</title>
<polygon fill="none" stroke="black" points="1744,-8 1744,-101 1832,-101 1832,-8 1744,-8"/>
<text text-anchor="middle" x="1788" y="-85.8" font-family="Times,serif" font-size="14.00">3595</text>
</g>
<g id="clust16" class="cluster">
<title>cluster3596</title>
<polygon fill="none" stroke="black" points="1868,-8 1868,-101 1970,-101 1970,-8 1868,-8"/>
<text text-anchor="middle" x="1919" y="-85.8" font-family="Times,serif" font-size="14.00">3596</text>
</g>
<g id="clust17" class="cluster">
<title>cluster3597</title>
<polygon fill="none" stroke="black" points="2006,-8 2006,-101 2093,-101 2093,-8 2006,-8"/>
<text text-anchor="middle" x="2049.5" y="-85.8" font-family="Times,serif" font-size="14.00">3597</text>
</g>
<g id="clust18" class="cluster">
<title>cluster3598</title>
<polygon fill="none" stroke="black" points="2129,-8 2129,-101 2217,-101 2217,-8 2129,-8"/>
<text text-anchor="middle" x="2173" y="-85.8" font-family="Times,serif" font-size="14.00">3598</text>
</g>
<g id="clust19" class="cluster">
<title>cluster3599</title>
<polygon fill="none" stroke="black" points="2253,-8 2253,-101 2341,-101 2341,-8 2253,-8"/>
<text text-anchor="middle" x="2297" y="-85.8" font-family="Times,serif" font-size="14.00">3599</text>
</g>
<g id="clust20" class="cluster">
<title>cluster3600</title>
<polygon fill="none" stroke="black" points="2377,-8 2377,-101 2465,-101 2465,-8 2377,-8"/>
<text text-anchor="middle" x="2421" y="-85.8" font-family="Times,serif" font-size="14.00">3600</text>
</g>
<g id="clust21" class="cluster">
<title>cluster3601</title>
<polygon fill="none" stroke="black" points="2501,-8 2501,-101 2589,-101 2589,-8 2501,-8"/>
<text text-anchor="middle" x="2545" y="-85.8" font-family="Times,serif" font-size="14.00">3601</text>
</g>
<g id="clust22" class="cluster">
<title>cluster3602</title>
<polygon fill="none" stroke="black" points="2625,-8 2625,-101 2712,-101 2712,-8 2625,-8"/>
<text text-anchor="middle" x="2668.5" y="-85.8" font-family="Times,serif" font-size="14.00">3602</text>
</g>
<g id="clust23" class="cluster">
<title>cluster3603</title>
<polygon fill="none" stroke="black" points="2748,-8 2748,-101 2836,-101 2836,-8 2748,-8"/>
<text text-anchor="middle" x="2792" y="-85.8" font-family="Times,serif" font-size="14.00">3603</text>
</g>
<g id="clust24" class="cluster">
<title>cluster3604</title>
<polygon fill="none" stroke="black" points="2872,-8 2872,-101 2959,-101 2959,-8 2872,-8"/>
<text text-anchor="middle" x="2915.5" y="-85.8" font-family="Times,serif" font-size="14.00">3604</text>
</g>
<g id="clust25" class="cluster">
<title>cluster3605</title>
<polygon fill="none" stroke="black" points="2995,-8 2995,-101 3083,-101 3083,-8 2995,-8"/>
<text text-anchor="middle" x="3039" y="-85.8" font-family="Times,serif" font-size="14.00">3605</text>
</g>
<g id="clust26" class="cluster">
<title>cluster3606</title>
<polygon fill="none" stroke="black" points="3119,-8 3119,-101 3207,-101 3207,-8 3119,-8"/>
<text text-anchor="middle" x="3163" y="-85.8" font-family="Times,serif" font-size="14.00">3606</text>
</g>
<g id="clust27" class="cluster">
<title>cluster3607</title>
<polygon fill="none" stroke="black" points="3243,-8 3243,-101 3331,-101 3331,-8 3243,-8"/>
<text text-anchor="middle" x="3287" y="-85.8" font-family="Times,serif" font-size="14.00">3607</text>
</g>
<g id="clust28" class="cluster">
<title>cluster3608</title>
<polygon fill="none" stroke="black" points="3367,-8 3367,-101 3454,-101 3454,-8 3367,-8"/>
<text text-anchor="middle" x="3410.5" y="-85.8" font-family="Times,serif" font-size="14.00">3608</text>
</g>
<g id="clust29" class="cluster">
<title>cluster3609</title>
<polygon fill="none" stroke="black" points="3490,-8 3490,-101 3578,-101 3578,-8 3490,-8"/>
<text text-anchor="middle" x="3534" y="-85.8" font-family="Times,serif" font-size="14.00">3609</text>
</g>
<g id="clust30" class="cluster">
<title>cluster3610</title>
<polygon fill="none" stroke="black" points="3614,-8 3614,-101 3702,-101 3702,-8 3614,-8"/>
<text text-anchor="middle" x="3658" y="-85.8" font-family="Times,serif" font-size="14.00">3610</text>
</g>
<g id="clust31" class="cluster">
<title>cluster3611</title>
<polygon fill="none" stroke="black" points="3738,-8 3738,-101 3826,-101 3826,-8 3738,-8"/>
<text text-anchor="middle" x="3782" y="-85.8" font-family="Times,serif" font-size="14.00">3611</text>
</g>
<g id="clust32" class="cluster">
<title>cluster3612</title>
<polygon fill="none" stroke="black" points="3862,-8 3862,-101 3949,-101 3949,-8 3862,-8"/>
<text text-anchor="middle" x="3905.5" y="-85.8" font-family="Times,serif" font-size="14.00">3612</text>
</g>
<g id="clust33" class="cluster">
<title>cluster3613</title>
<polygon fill="none" stroke="black" points="3985,-8 3985,-101 4073,-101 4073,-8 3985,-8"/>
<text text-anchor="middle" x="4029" y="-85.8" font-family="Times,serif" font-size="14.00">3613</text>
</g>
<g id="clust34" class="cluster">
<title>cluster3614</title>
<polygon fill="none" stroke="black" points="4109,-8 4109,-101 4197,-101 4197,-8 4109,-8"/>
<text text-anchor="middle" x="4153" y="-85.8" font-family="Times,serif" font-size="14.00">3614</text>
</g>
<g id="clust35" class="cluster">
<title>cluster3615</title>
<polygon fill="none" stroke="black" points="4233,-8 4233,-101 4321,-101 4321,-8 4233,-8"/>
<text text-anchor="middle" x="4277" y="-85.8" font-family="Times,serif" font-size="14.00">3615</text>
</g>
<!-- Node0x600001e60690 -->
<g id="node1" class="node">
<title>Node0x600001e60690</title>
<polygon fill="none" stroke="black" points="8,-9 8,-77 95,-77 95,-9 8,-9"/>
<text text-anchor="middle" x="51.5" y="-66.6" font-family="Times,serif" font-size="8.00">word: variance</text>
<polyline fill="none" stroke="black" points="8,-60 95,-60 "/>
<text text-anchor="middle" x="51.5" y="-49.6" font-family="Times,serif" font-size="8.00">size: 2</text>
<polyline fill="none" stroke="black" points="8,-43 95,-43 "/>
<text text-anchor="middle" x="51.5" y="-32.6" font-family="Times,serif" font-size="8.00">next: 0x600001e60c90</text>
<polyline fill="none" stroke="black" points="8,-26 95,-26 "/>
<text text-anchor="middle" x="51.5" y="-15.6" font-family="Times,serif" font-size="8.00">prev: 0x0</text>
</g>
<!-- Node0x600001e60c90 -->
<g id="node2" class="node">
<title>Node0x600001e60c90</title>
<polygon fill="none" stroke="black" points="131,-9 131,-77 219,-77 219,-9 131,-9"/>
<text text-anchor="middle" x="175" y="-66.6" font-family="Times,serif" font-size="8.00">word: nurse</text>
<polyline fill="none" stroke="black" points="131,-60 219,-60 "/>
<text text-anchor="middle" x="175" y="-49.6" font-family="Times,serif" font-size="8.00">size: 29</text>
<polyline fill="none" stroke="black" points="131,-43 219,-43 "/>
<text text-anchor="middle" x="175" y="-32.6" font-family="Times,serif" font-size="8.00">next: 0x600001e61770</text>
<polyline fill="none" stroke="black" points="131,-26 219,-26 "/>
<text text-anchor="middle" x="175" y="-15.6" font-family="Times,serif" font-size="8.00">prev: 0x600001e60690</text>
</g>
<!-- Node0x600001e60690&#45;&gt;Node0x600001e60c90 -->
<g id="edge1" class="edge">
<title>Node0x600001e60690:n&#45;&gt;Node0x600001e60c90:n</title>
<path fill="none" stroke="red" d="M95,-34C107,-34 112.25,-34 120.88,-34"/>
<polygon fill="red" stroke="red" points="121,-37.5 131,-34 121,-30.5 121,-37.5"/>
</g>
<!-- Node0x600001e61770 -->
<g id="node3" class="node">
<title>Node0x600001e61770</title>
<polygon fill="none" stroke="black" points="255,-9 255,-77 343,-77 343,-9 255,-9"/>
<text text-anchor="middle" x="299" y="-66.6" font-family="Times,serif" font-size="8.00">word: blood</text>
<polyline fill="none" stroke="black" points="255,-60 343,-60 "/>
<text text-anchor="middle" x="299" y="-49.6" font-family="Times,serif" font-size="8.00">size: 19</text>
<polyline fill="none" stroke="black" points="255,-43 343,-43 "/>
<text text-anchor="middle" x="299" y="-32.6" font-family="Times,serif" font-size="8.00">next: 0x600001e61b90</text>
<polyline fill="none" stroke="black" points="255,-26 343,-26 "/>
<text text-anchor="middle" x="299" y="-15.6" font-family="Times,serif" font-size="8.00">prev: 0x600001e60c90</text>
</g>
<!-- Node0x600001e60c90&#45;&gt;Node0x600001e61770 -->
<g id="edge2" class="edge">
<title>Node0x600001e60c90:n&#45;&gt;Node0x600001e61770:n</title>
<path fill="none" stroke="red" d="M219,-34C231,-34 236.25,-34 244.88,-34"/>
<polygon fill="red" stroke="red" points="245,-37.5 255,-34 245,-30.5 245,-37.5"/>
</g>
<!-- Node0x600001e61b90 -->
<g id="node4" class="node">
<title>Node0x600001e61b90</title>
<polygon fill="none" stroke="black" points="379,-9 379,-77 467,-77 467,-9 379,-9"/>
<text text-anchor="middle" x="423" y="-66.6" font-family="Times,serif" font-size="8.00">word: Doth</text>
<polyline fill="none" stroke="black" points="379,-60 467,-60 "/>
<text text-anchor="middle" x="423" y="-49.6" font-family="Times,serif" font-size="8.00">size: 12</text>
<polyline fill="none" stroke="black" points="379,-43 467,-43 "/>
<text text-anchor="middle" x="423" y="-32.6" font-family="Times,serif" font-size="8.00">next: 0x600001e62a30</text>
<polyline fill="none" stroke="black" points="379,-26 467,-26 "/>
<text text-anchor="middle" x="423" y="-15.6" font-family="Times,serif" font-size="8.00">prev: 0x600001e61770</text>
</g>
<!-- Node0x600001e61770&#45;&gt;Node0x600001e61b90 -->
<g id="edge3" class="edge">
<title>Node0x600001e61770:n&#45;&gt;Node0x600001e61b90:n</title>
<path fill="none" stroke="red" d="M343,-34C355,-34 360.25,-34 368.88,-34"/>
<polygon fill="red" stroke="red" points="369,-37.5 379,-34 369,-30.5 369,-37.5"/>
</g>
<!-- Node0x600001e62a30 -->
<g id="node5" class="node">
<title>Node0x600001e62a30</title>
<polygon fill="none" stroke="black" points="503,-9 503,-77 591,-77 591,-9 503,-9"/>
<text text-anchor="middle" x="547" y="-66.6" font-family="Times,serif" font-size="8.00">word: moves</text>
<polyline fill="none" stroke="black" points="503,-60 591,-60 "/>
<text text-anchor="middle" x="547" y="-49.6" font-family="Times,serif" font-size="8.00">size: 1</text>
<polyline fill="none" stroke="black" points="503,-43 591,-43 "/>
<text text-anchor="middle" x="547" y="-32.6" font-family="Times,serif" font-size="8.00">next: 0x600001e63a50</text>
<polyline fill="none" stroke="black" points="503,-26 591,-26 "/>
<text text-anchor="middle" x="547" y="-15.6" font-family="Times,serif" font-size="8.00">prev: 0x600001e61b90</text>
</g>
<!-- Node0x600001e61b90&#45;&gt;Node0x600001e62a30 -->
<g id="edge4" class="edge">
<title>Node0x600001e61b90:n&#45;&gt;Node0x600001e62a30:n</title>
<path fill="none" stroke="red" d="M467,-34C479,-34 484.25,-34 492.88,-34"/>
<polygon fill="red" stroke="red" points="493,-37.5 503,-34 493,-30.5 493,-37.5"/>
</g>
<!-- Node0x600001e63a50 -->
<g id="node6" class="node">
<title>Node0x600001e63a50</title>
<polygon fill="none" stroke="black" points="627,-9 627,-77 718,-77 718,-9 627,-9"/>
<text text-anchor="middle" x="672.5" y="-66.6" font-family="Times,serif" font-size="8.00">word: SERVINGMEN</text>
<polyline fill="none" stroke="black" points="627,-60 718,-60 "/>
<text text-anchor="middle" x="672.5" y="-49.6" font-family="Times,serif" font-size="8.00">size: 4</text>
<polyline fill="none" stroke="black" points="627,-43 718,-43 "/>
<text text-anchor="middle" x="672.5" y="-32.6" font-family="Times,serif" font-size="8.00">next: 0x600001e6a7c0</text>
<polyline fill="none" stroke="black" points="627,-26 718,-26 "/>
<text text-anchor="middle" x="672.5" y="-15.6" font-family="Times,serif" font-size="8.00">prev: 0x600001e62a30</text>
</g>
<!-- Node0x600001e62a30&#45;&gt;Node0x600001e63a50 -->
<g id="edge5" class="edge">
<title>Node0x600001e62a30:n&#45;&gt;Node0x600001e63a50:n</title>
<path fill="none" stroke="red" d="M591,-34C603,-34 608.25,-34 616.88,-34"/>
<polygon fill="red" stroke="red" points="617,-37.5 627,-34 617,-30.5 617,-37.5"/>
</g>
<!-- Node0x600001e6a7c0 -->
<g id="node7" class="node">
<title>Node0x600001e6a7c0</title>
<polygon fill="none" stroke="black" points="754,-9 754,-77 842,-77 842,-9 754,-9"/>
<text text-anchor="middle" x="798" y="-66.6" font-family="Times,serif" font-size="8.00">word: Peer</text>
<polyline fill="none" stroke="black" points="754,-60 842,-60 "/>
<text text-anchor="middle" x="798" y="-49.6" font-family="Times,serif" font-size="8.00">size: 1</text>
<polyline fill="none" stroke="black" points="754,-43 842,-43 "/>
<text text-anchor="middle" x="798" y="-32.6" font-family="Times,serif" font-size="8.00">next: 0x600001e6db30</text>
<polyline fill="none" stroke="black" points="754,-26 842,-26 "/>
<text text-anchor="middle" x="798" y="-15.6" font-family="Times,serif" font-size="8.00">prev: 0x600001e63a50</text>
</g>
<!-- Node0x600001e63a50&#45;&gt;Node0x600001e6a7c0 -->
<g id="edge6" class="edge">
<title>Node0x600001e63a50:n&#45;&gt;Node0x600001e6a7c0:n</title>
<path fill="none" stroke="red" d="M718,-34C730,-34 735.25,-34 743.88,-34"/>
<polygon fill="red" stroke="red" points="744,-37.5 754,-34 744,-30.5 744,-37.5"/>
</g>
<!-- Node0x600001e6db30 -->
<g id="node8" class="node">
<title>Node0x600001e6db30</title>
<polygon fill="none" stroke="black" points="878,-9 878,-77 966,-77 966,-9 878,-9"/>
<text text-anchor="middle" x="922" y="-66.6" font-family="Times,serif" font-size="8.00">word: encounter</text>
<polyline fill="none" stroke="black" points="878,-60 966,-60 "/>
<text text-anchor="middle" x="922" y="-49.6" font-family="Times,serif" font-size="8.00">size: 3</text>
<polyline fill="none" stroke="black" points="878,-43 966,-43 "/>
<text text-anchor="middle" x="922" y="-32.6" font-family="Times,serif" font-size="8.00">next: 0x600001e6e160</text>
<polyline fill="none" stroke="black" points="878,-26 966,-26 "/>
<text text-anchor="middle" x="922" y="-15.6" font-family="Times,serif" font-size="8.00">prev: 0x600001e6a7c0</text>
</g>
<!-- Node0x600001e6a7c0&#45;&gt;Node0x600001e6db30 -->
<g id="edge7" class="edge">
<title>Node0x600001e6a7c0:n&#45;&gt;Node0x600001e6db30:n</title>
<path fill="none" stroke="red" d="M842,-34C854,-34 859.25,-34 867.88,-34"/>
<polygon fill="red" stroke="red" points="868,-37.5 878,-34 868,-30.5 868,-37.5"/>
</g>
<!-- Node0x600001e6e160 -->
<g id="node9" class="node">
<title>Node0x600001e6e160</title>
<polygon fill="none" stroke="black" points="1002,-9 1002,-77 1090,-77 1090,-9 1002,-9"/>
<text text-anchor="middle" x="1046" y="-66.6" font-family="Times,serif" font-size="8.00">word: forget</text>
<polyline fill="none" stroke="black" points="1002,-60 1090,-60 "/>
<text text-anchor="middle" x="1046" y="-49.6" font-family="Times,serif" font-size="8.00">size: 9</text>
<polyline fill="none" stroke="black" points="1002,-43 1090,-43 "/>
<text text-anchor="middle" x="1046" y="-32.6" font-family="Times,serif" font-size="8.00">next: 0x600001e6f330</text>
<polyline fill="none" stroke="black" points="1002,-26 1090,-26 "/>
<text text-anchor="middle" x="1046" y="-15.6" font-family="Times,serif" font-size="8.00">prev: 0x600001e6db30</text>
</g>
<!-- Node0x600001e6db30&#45;&gt;Node0x600001e6e160 -->
<g id="edge8" class="edge">
<title>Node0x600001e6db30:n&#45;&gt;Node0x600001e6e160:n</title>
<path fill="none" stroke="red" d="M966,-34C978,-34 983.25,-34 991.88,-34"/>
<polygon fill="red" stroke="red" points="992,-37.5 1002,-34 992,-30.5 992,-37.5"/>
</g>
<!-- Node0x600001e6f330 -->
<g id="node10" class="node">
<title>Node0x600001e6f330</title>
<polygon fill="none" stroke="black" points="1126,-9 1126,-77 1214,-77 1214,-9 1126,-9"/>
<text text-anchor="middle" x="1170" y="-66.6" font-family="Times,serif" font-size="8.00">word: behold</text>
<polyline fill="none" stroke="black" points="1126,-60 1214,-60 "/>
<text text-anchor="middle" x="1170" y="-49.6" font-family="Times,serif" font-size="8.00">size: 7</text>
<polyline fill="none" stroke="black" points="1126,-43 1214,-43 "/>
<text text-anchor="middle" x="1170" y="-32.6" font-family="Times,serif" font-size="8.00">next: 0x600001e6f870</text>
<polyline fill="none" stroke="black" points="1126,-26 1214,-26 "/>
<text text-anchor="middle" x="1170" y="-15.6" font-family="Times,serif" font-size="8.00">prev: 0x600001e6e160</text>
</g>
<!-- Node0x600001e6e160&#45;&gt;Node0x600001e6f330 -->
<g id="edge9" class="edge">
<title>Node0x600001e6e160:n&#45;&gt;Node0x600001e6f330:n</title>
<path fill="none" stroke="red" d="M1090,-34C1102,-34 1107.25,-34 1115.88,-34"/>
<polygon fill="red" stroke="red" points="1116,-37.5 1126,-34 1116,-30.5 1116,-37.5"/>
</g>
<!-- Node0x600001e6f870 -->
<g id="node11" class="node">
<title>Node0x600001e6f870</title>
<polygon fill="none" stroke="black" points="1250,-9 1250,-77 1337,-77 1337,-9 1250,-9"/>
<text text-anchor="middle" x="1293.5" y="-66.6" font-family="Times,serif" font-size="8.00">word: Go</text>
<polyline fill="none" stroke="black" points="1250,-60 1337,-60 "/>
<text text-anchor="middle" x="1293.5" y="-49.6" font-family="Times,serif" font-size="8.00">size: 30</text>
<polyline fill="none" stroke="black" points="1250,-43 1337,-43 "/>
<text text-anchor="middle" x="1293.5" y="-32.6" font-family="Times,serif" font-size="8.00">next: 0x600001e70b10</text>
<polyline fill="none" stroke="black" points="1250,-26 1337,-26 "/>
<text text-anchor="middle" x="1293.5" y="-15.6" font-family="Times,serif" font-size="8.00">prev: 0x600001e6f330</text>
</g>
<!-- Node0x600001e6f330&#45;&gt;Node0x600001e6f870 -->
<g id="edge10" class="edge">
<title>Node0x600001e6f330:n&#45;&gt;Node0x600001e6f870:n</title>
<path fill="none" stroke="red" d="M1214,-34C1226,-34 1231.25,-34 1239.88,-34"/>
<polygon fill="red" stroke="red" points="1240,-37.5 1250,-34 1240,-30.5 1240,-37.5"/>
</g>
<!-- Node0x600001e70b10 -->
<g id="node12" class="node">
<title>Node0x600001e70b10</title>
<polygon fill="none" stroke="black" points="1373,-9 1373,-77 1460,-77 1460,-9 1373,-9"/>
<text text-anchor="middle" x="1416.5" y="-66.6" font-family="Times,serif" font-size="8.00">word: Mercutio</text>
<polyline fill="none" stroke="black" points="1373,-60 1460,-60 "/>
<text text-anchor="middle" x="1416.5" y="-49.6" font-family="Times,serif" font-size="8.00">size: 20</text>
<polyline fill="none" stroke="black" points="1373,-43 1460,-43 "/>
<text text-anchor="middle" x="1416.5" y="-32.6" font-family="Times,serif" font-size="8.00">next: 0x600001e74180</text>
<polyline fill="none" stroke="black" points="1373,-26 1460,-26 "/>
<text text-anchor="middle" x="1416.5" y="-15.6" font-family="Times,serif" font-size="8.00">prev: 0x600001e6f870</text>
</g>
<!-- Node0x600001e6f870&#45;&gt;Node0x600001e70b10 -->
<g id="edge11" class="edge">
<title>Node0x600001e6f870:n&#45;&gt;Node0x600001e70b10:n</title>
<path fill="none" stroke="red" d="M1337,-34C1349,-34 1354.25,-34 1362.88,-34"/>
<polygon fill="red" stroke="red" points="1363,-37.5 1373,-34 1363,-30.5 1363,-37.5"/>
</g>
<!-- Node0x600001e74180 -->
<g id="node13" class="node">
<title>Node0x600001e74180</title>
<polygon fill="none" stroke="black" points="1496,-9 1496,-77 1584,-77 1584,-9 1496,-9"/>
<text text-anchor="middle" x="1540" y="-66.6" font-family="Times,serif" font-size="8.00">word: moonshine</text>
<polyline fill="none" stroke="black" points="1496,-60 1584,-60 "/>
<text text-anchor="middle" x="1540" y="-49.6" font-family="Times,serif" font-size="8.00">size: 1</text>
<polyline fill="none" stroke="black" points="1496,-43 1584,-43 "/>
<text text-anchor="middle" x="1540" y="-32.6" font-family="Times,serif" font-size="8.00">next: 0x600001e75020</text>
<polyline fill="none" stroke="black" points="1496,-26 1584,-26 "/>
<text text-anchor="middle" x="1540" y="-15.6" font-family="Times,serif" font-size="8.00">prev: 0x600001e70b10</text>
</g>
<!-- Node0x600001e70b10&#45;&gt;Node0x600001e74180 -->
<g id="edge12" class="edge">
<title>Node0x600001e70b10:n&#45;&gt;Node0x600001e74180:n</title>
<path fill="none" stroke="red" d="M1460,-34C1472,-34 1477.25,-34 1485.88,-34"/>
<polygon fill="red" stroke="red" points="1486,-37.5 1496,-34 1486,-30.5 1486,-37.5"/>
</g>
<!-- Node0x600001e75020 -->
<g id="node14" class="node">
<title>Node0x600001e75020</title>
<polygon fill="none" stroke="black" points="1620,-9 1620,-77 1708,-77 1708,-9 1620,-9"/>
<text text-anchor="middle" x="1664" y="-66.6" font-family="Times,serif" font-size="8.00">word: prayer</text>
<polyline fill="none" stroke="black" points="1620,-60 1708,-60 "/>
<text text-anchor="middle" x="1664" y="-49.6" font-family="Times,serif" font-size="8.00">size: 2</text>
<polyline fill="none" stroke="black" points="1620,-43 1708,-43 "/>
<text text-anchor="middle" x="1664" y="-32.6" font-family="Times,serif" font-size="8.00">next: 0x600001e75890</text>
<polyline fill="none" stroke="black" points="1620,-26 1708,-26 "/>
<text text-anchor="middle" x="1664" y="-15.6" font-family="Times,serif" font-size="8.00">prev: 0x600001e74180</text>
</g>
<!-- Node0x600001e74180&#45;&gt;Node0x600001e75020 -->
<g id="edge13" class="edge">
<title>Node0x600001e74180:n&#45;&gt;Node0x600001e75020:n</title>
<path fill="none" stroke="red" d="M1584,-34C1596,-34 1601.25,-34 1609.88,-34"/>
<polygon fill="red" stroke="red" points="1610,-37.5 1620,-34 1610,-30.5 1610,-37.5"/>
</g>
<!-- Node0x600001e75890 -->
<g id="node15" class="node">
<title>Node0x600001e75890</title>
<polygon fill="none" stroke="black" points="1744,-9 1744,-77 1832,-77 1832,-9 1744,-9"/>
<text text-anchor="middle" x="1788" y="-66.6" font-family="Times,serif" font-size="8.00">word: drum</text>
<polyline fill="none" stroke="black" points="1744,-60 1832,-60 "/>
<text text-anchor="middle" x="1788" y="-49.6" font-family="Times,serif" font-size="8.00">size: 1</text>
<polyline fill="none" stroke="black" points="1744,-43 1832,-43 "/>
<text text-anchor="middle" x="1788" y="-32.6" font-family="Times,serif" font-size="8.00">next: 0x600001e75fe0</text>
<polyline fill="none" stroke="black" points="1744,-26 1832,-26 "/>
<text text-anchor="middle" x="1788" y="-15.6" font-family="Times,serif" font-size="8.00">prev: 0x600001e75020</text>
</g>
<!-- Node0x600001e75020&#45;&gt;Node0x600001e75890 -->
<g id="edge14" class="edge">
<title>Node0x600001e75020:n&#45;&gt;Node0x600001e75890:n</title>
<path fill="none" stroke="red" d="M1708,-34C1720,-34 1725.25,-34 1733.88,-34"/>
<polygon fill="red" stroke="red" points="1734,-37.5 1744,-34 1734,-30.5 1734,-37.5"/>
</g>
<!-- Node0x600001e75fe0 -->
<g id="node16" class="node">
<title>Node0x600001e75fe0</title>
<polygon fill="none" stroke="black" points="1868,-9 1868,-77 1970,-77 1970,-9 1868,-9"/>
<text text-anchor="middle" x="1919" y="-66.6" font-family="Times,serif" font-size="8.00">word: GENTLEWOMEN</text>
<polyline fill="none" stroke="black" points="1868,-60 1970,-60 "/>
<text text-anchor="middle" x="1919" y="-49.6" font-family="Times,serif" font-size="8.00">size: 1</text>
<polyline fill="none" stroke="black" points="1868,-43 1970,-43 "/>
<text text-anchor="middle" x="1919" y="-32.6" font-family="Times,serif" font-size="8.00">next: 0x600001e768b0</text>
<polyline fill="none" stroke="black" points="1868,-26 1970,-26 "/>
<text text-anchor="middle" x="1919" y="-15.6" font-family="Times,serif" font-size="8.00">prev: 0x600001e75890</text>
</g>
<!-- Node0x600001e75890&#45;&gt;Node0x600001e75fe0 -->
<g id="edge15" class="edge">
<title>Node0x600001e75890:n&#45;&gt;Node0x600001e75fe0:n</title>
<path fill="none" stroke="red" d="M1832,-34C1844,-34 1849.25,-34 1857.88,-34"/>
<polygon fill="red" stroke="red" points="1858,-37.5 1868,-34 1858,-30.5 1858,-37.5"/>
</g>
<!-- Node0x600001e768b0 -->
<g id="node17" class="node">
<title>Node0x600001e768b0</title>
<polygon fill="none" stroke="black" points="2006,-9 2006,-77 2093,-77 2093,-9 2006,-9"/>
<text text-anchor="middle" x="2049.5" y="-66.6" font-family="Times,serif" font-size="8.00">word: torches</text>
<polyline fill="none" stroke="black" points="2006,-60 2093,-60 "/>
<text text-anchor="middle" x="2049.5" y="-49.6" font-family="Times,serif" font-size="8.00">size: 2</text>
<polyline fill="none" stroke="black" points="2006,-43 2093,-43 "/>
<text text-anchor="middle" x="2049.5" y="-32.6" font-family="Times,serif" font-size="8.00">next: 0x600001e78060</text>
<polyline fill="none" stroke="black" points="2006,-26 2093,-26 "/>
<text text-anchor="middle" x="2049.5" y="-15.6" font-family="Times,serif" font-size="8.00">prev: 0x600001e75fe0</text>
</g>
<!-- Node0x600001e75fe0&#45;&gt;Node0x600001e768b0 -->
<g id="edge16" class="edge">
<title>Node0x600001e75fe0:n&#45;&gt;Node0x600001e768b0:n</title>
<path fill="none" stroke="red" d="M1970,-34C1982,-34 1987.25,-34 1995.88,-34"/>
<polygon fill="red" stroke="red" points="1996,-37.5 2006,-34 1996,-30.5 1996,-37.5"/>
</g>
<!-- Node0x600001e78060 -->
<g id="node18" class="node">
<title>Node0x600001e78060</title>
<polygon fill="none" stroke="black" points="2129,-9 2129,-77 2217,-77 2217,-9 2129,-9"/>
<text text-anchor="middle" x="2173" y="-66.6" font-family="Times,serif" font-size="8.00">word: wedding</text>
<polyline fill="none" stroke="black" points="2129,-60 2217,-60 "/>
<text text-anchor="middle" x="2173" y="-49.6" font-family="Times,serif" font-size="8.00">size: 5</text>
<polyline fill="none" stroke="black" points="2129,-43 2217,-43 "/>
<text text-anchor="middle" x="2173" y="-32.6" font-family="Times,serif" font-size="8.00">next: 0x600001e783c0</text>
<polyline fill="none" stroke="black" points="2129,-26 2217,-26 "/>
<text text-anchor="middle" x="2173" y="-15.6" font-family="Times,serif" font-size="8.00">prev: 0x600001e768b0</text>
</g>
<!-- Node0x600001e768b0&#45;&gt;Node0x600001e78060 -->
<g id="edge17" class="edge">
<title>Node0x600001e768b0:n&#45;&gt;Node0x600001e78060:n</title>
<path fill="none" stroke="red" d="M2093,-34C2105,-34 2110.25,-34 2118.88,-34"/>
<polygon fill="red" stroke="red" points="2119,-37.5 2129,-34 2119,-30.5 2119,-37.5"/>
</g>
<!-- Node0x600001e783c0 -->
<g id="node19" class="node">
<title>Node0x600001e783c0</title>
<polygon fill="none" stroke="black" points="2253,-9 2253,-77 2341,-77 2341,-9 2253,-9"/>
<text text-anchor="middle" x="2297" y="-66.6" font-family="Times,serif" font-size="8.00">word: bewitched</text>
<polyline fill="none" stroke="black" points="2253,-60 2341,-60 "/>
<text text-anchor="middle" x="2297" y="-49.6" font-family="Times,serif" font-size="8.00">size: 1</text>
<polyline fill="none" stroke="black" points="2253,-43 2341,-43 "/>
<text text-anchor="middle" x="2297" y="-32.6" font-family="Times,serif" font-size="8.00">next: 0x600001e7d710</text>
<polyline fill="none" stroke="black" points="2253,-26 2341,-26 "/>
<text text-anchor="middle" x="2297" y="-15.6" font-family="Times,serif" font-size="8.00">prev: 0x600001e78060</text>
</g>
<!-- Node0x600001e78060&#45;&gt;Node0x600001e783c0 -->
<g id="edge18" class="edge">
<title>Node0x600001e78060:n&#45;&gt;Node0x600001e783c0:n</title>
<path fill="none" stroke="red" d="M2217,-34C2229,-34 2234.25,-34 2242.88,-34"/>
<polygon fill="red" stroke="red" points="2243,-37.5 2253,-34 2243,-30.5 2243,-37.5"/>
</g>
<!-- Node0x600001e7d710 -->
<g id="node20" class="node">
<title>Node0x600001e7d710</title>
<polygon fill="none" stroke="black" points="2377,-9 2377,-77 2465,-77 2465,-9 2377,-9"/>
<text text-anchor="middle" x="2421" y="-66.6" font-family="Times,serif" font-size="8.00">word: tear</text>
<polyline fill="none" stroke="black" points="2377,-60 2465,-60 "/>
<text text-anchor="middle" x="2421" y="-49.6" font-family="Times,serif" font-size="8.00">size: 5</text>
<polyline fill="none" stroke="black" points="2377,-43 2465,-43 "/>
<text text-anchor="middle" x="2421" y="-32.6" font-family="Times,serif" font-size="8.00">next: 0x600001e7df80</text>
<polyline fill="none" stroke="black" points="2377,-26 2465,-26 "/>
<text text-anchor="middle" x="2421" y="-15.6" font-family="Times,serif" font-size="8.00">prev: 0x600001e783c0</text>
</g>
<!-- Node0x600001e783c0&#45;&gt;Node0x600001e7d710 -->
<g id="edge19" class="edge">
<title>Node0x600001e783c0:n&#45;&gt;Node0x600001e7d710:n</title>
<path fill="none" stroke="red" d="M2341,-34C2353,-34 2358.25,-34 2366.88,-34"/>
<polygon fill="red" stroke="red" points="2367,-37.5 2377,-34 2367,-30.5 2367,-37.5"/>
</g>
<!-- Node0x600001e7df80 -->
<g id="node21" class="node">
<title>Node0x600001e7df80</title>
<polygon fill="none" stroke="black" points="2501,-9 2501,-77 2589,-77 2589,-9 2501,-9"/>
<text text-anchor="middle" x="2545" y="-66.6" font-family="Times,serif" font-size="8.00">word: compliment</text>
<polyline fill="none" stroke="black" points="2501,-60 2589,-60 "/>
<text text-anchor="middle" x="2545" y="-49.6" font-family="Times,serif" font-size="8.00">size: 1</text>
<polyline fill="none" stroke="black" points="2501,-43 2589,-43 "/>
<text text-anchor="middle" x="2545" y="-32.6" font-family="Times,serif" font-size="8.00">next: 0x600001e7e910</text>
<polyline fill="none" stroke="black" points="2501,-26 2589,-26 "/>
<text text-anchor="middle" x="2545" y="-15.6" font-family="Times,serif" font-size="8.00">prev: 0x600001e7d710</text>
</g>
<!-- Node0x600001e7d710&#45;&gt;Node0x600001e7df80 -->
<g id="edge20" class="edge">
<title>Node0x600001e7d710:n&#45;&gt;Node0x600001e7df80:n</title>
<path fill="none" stroke="red" d="M2465,-34C2477,-34 2482.25,-34 2490.88,-34"/>
<polygon fill="red" stroke="red" points="2491,-37.5 2501,-34 2491,-30.5 2491,-37.5"/>
</g>
<!-- Node0x600001e7e910 -->
<g id="node22" class="node">
<title>Node0x600001e7e910</title>
<polygon fill="none" stroke="black" points="2625,-9 2625,-77 2712,-77 2712,-9 2625,-9"/>
<text text-anchor="middle" x="2668.5" y="-66.6" font-family="Times,serif" font-size="8.00">word: faithful</text>
<polyline fill="none" stroke="black" points="2625,-60 2712,-60 "/>
<text text-anchor="middle" x="2668.5" y="-49.6" font-family="Times,serif" font-size="8.00">size: 3</text>
<polyline fill="none" stroke="black" points="2625,-43 2712,-43 "/>
<text text-anchor="middle" x="2668.5" y="-32.6" font-family="Times,serif" font-size="8.00">next: 0x600001e7f060</text>
<polyline fill="none" stroke="black" points="2625,-26 2712,-26 "/>
<text text-anchor="middle" x="2668.5" y="-15.6" font-family="Times,serif" font-size="8.00">prev: 0x600001e7df80</text>
</g>
<!-- Node0x600001e7df80&#45;&gt;Node0x600001e7e910 -->
<g id="edge21" class="edge">
<title>Node0x600001e7df80:n&#45;&gt;Node0x600001e7e910:n</title>
<path fill="none" stroke="red" d="M2589,-34C2601,-34 2606.25,-34 2614.88,-34"/>
<polygon fill="red" stroke="red" points="2615,-37.5 2625,-34 2615,-30.5 2615,-37.5"/>
</g>
<!-- Node0x600001e7f060 -->
<g id="node23" class="node">
<title>Node0x600001e7f060</title>
<polygon fill="none" stroke="black" points="2748,-9 2748,-77 2836,-77 2836,-9 2748,-9"/>
<text text-anchor="middle" x="2792" y="-66.6" font-family="Times,serif" font-size="8.00">word: aloud</text>
<polyline fill="none" stroke="black" points="2748,-60 2836,-60 "/>
<text text-anchor="middle" x="2792" y="-49.6" font-family="Times,serif" font-size="8.00">size: 2</text>
<polyline fill="none" stroke="black" points="2748,-43 2836,-43 "/>
<text text-anchor="middle" x="2792" y="-32.6" font-family="Times,serif" font-size="8.00">next: 0x600001e431b0</text>
<polyline fill="none" stroke="black" points="2748,-26 2836,-26 "/>
<text text-anchor="middle" x="2792" y="-15.6" font-family="Times,serif" font-size="8.00">prev: 0x600001e7e910</text>
</g>
<!-- Node0x600001e7e910&#45;&gt;Node0x600001e7f060 -->
<g id="edge22" class="edge">
<title>Node0x600001e7e910:n&#45;&gt;Node0x600001e7f060:n</title>
<path fill="none" stroke="red" d="M2712,-34C2724,-34 2729.25,-34 2737.88,-34"/>
<polygon fill="red" stroke="red" points="2738,-37.5 2748,-34 2738,-30.5 2738,-37.5"/>
</g>
<!-- Node0x600001e431b0 -->
<g id="node24" class="node">
<title>Node0x600001e431b0</title>
<polygon fill="none" stroke="black" points="2872,-9 2872,-77 2959,-77 2959,-9 2872,-9"/>
<text text-anchor="middle" x="2915.5" y="-66.6" font-family="Times,serif" font-size="8.00">word: mar</text>
<polyline fill="none" stroke="black" points="2872,-60 2959,-60 "/>
<text text-anchor="middle" x="2915.5" y="-49.6" font-family="Times,serif" font-size="8.00">size: 2</text>
<polyline fill="none" stroke="black" points="2872,-43 2959,-43 "/>
<text text-anchor="middle" x="2915.5" y="-32.6" font-family="Times,serif" font-size="8.00">next: 0x600001e44600</text>
<polyline fill="none" stroke="black" points="2872,-26 2959,-26 "/>
<text text-anchor="middle" x="2915.5" y="-15.6" font-family="Times,serif" font-size="8.00">prev: 0x600001e7f060</text>
</g>
<!-- Node0x600001e7f060&#45;&gt;Node0x600001e431b0 -->
<g id="edge23" class="edge">
<title>Node0x600001e7f060:n&#45;&gt;Node0x600001e431b0:n</title>
<path fill="none" stroke="red" d="M2836,-34C2848,-34 2853.25,-34 2861.88,-34"/>
<polygon fill="red" stroke="red" points="2862,-37.5 2872,-34 2862,-30.5 2862,-37.5"/>
</g>
<!-- Node0x600001e44600 -->
<g id="node25" class="node">
<title>Node0x600001e44600</title>
<polygon fill="none" stroke="black" points="2995,-9 2995,-77 3083,-77 3083,-9 2995,-9"/>
<text text-anchor="middle" x="3039" y="-66.6" font-family="Times,serif" font-size="8.00">word: hills</text>
<polyline fill="none" stroke="black" points="2995,-60 3083,-60 "/>
<text text-anchor="middle" x="3039" y="-49.6" font-family="Times,serif" font-size="8.00">size: 1</text>
<polyline fill="none" stroke="black" points="2995,-43 3083,-43 "/>
<text text-anchor="middle" x="3039" y="-32.6" font-family="Times,serif" font-size="8.00">next: 0x600001e44870</text>
<polyline fill="none" stroke="black" points="2995,-26 3083,-26 "/>
<text text-anchor="middle" x="3039" y="-15.6" font-family="Times,serif" font-size="8.00">prev: 0x600001e431b0</text>
</g>
<!-- Node0x600001e431b0&#45;&gt;Node0x600001e44600 -->
<g id="edge24" class="edge">
<title>Node0x600001e431b0:n&#45;&gt;Node0x600001e44600:n</title>
<path fill="none" stroke="red" d="M2959,-34C2971,-34 2976.25,-34 2984.88,-34"/>
<polygon fill="red" stroke="red" points="2985,-37.5 2995,-34 2985,-30.5 2985,-37.5"/>
</g>
<!-- Node0x600001e44870 -->
<g id="node26" class="node">
<title>Node0x600001e44870</title>
<polygon fill="none" stroke="black" points="3119,-9 3119,-77 3207,-77 3207,-9 3119,-9"/>
<text text-anchor="middle" x="3163" y="-66.6" font-family="Times,serif" font-size="8.00">word: feign</text>
<polyline fill="none" stroke="black" points="3119,-60 3207,-60 "/>
<text text-anchor="middle" x="3163" y="-49.6" font-family="Times,serif" font-size="8.00">size: 1</text>
<polyline fill="none" stroke="black" points="3119,-43 3207,-43 "/>
<text text-anchor="middle" x="3163" y="-32.6" font-family="Times,serif" font-size="8.00">next: 0x600001e44ff0</text>
<polyline fill="none" stroke="black" points="3119,-26 3207,-26 "/>
<text text-anchor="middle" x="3163" y="-15.6" font-family="Times,serif" font-size="8.00">prev: 0x600001e44600</text>
</g>
<!-- Node0x600001e44600&#45;&gt;Node0x600001e44870 -->
<g id="edge25" class="edge">
<title>Node0x600001e44600:n&#45;&gt;Node0x600001e44870:n</title>
<path fill="none" stroke="red" d="M3083,-34C3095,-34 3100.25,-34 3108.88,-34"/>
<polygon fill="red" stroke="red" points="3109,-37.5 3119,-34 3109,-30.5 3109,-37.5"/>
</g>
<!-- Node0x600001e44ff0 -->
<g id="node27" class="node">
<title>Node0x600001e44ff0</title>
<polygon fill="none" stroke="black" points="3243,-9 3243,-77 3331,-77 3331,-9 3243,-9"/>
<text text-anchor="middle" x="3287" y="-66.6" font-family="Times,serif" font-size="8.00">word: coil</text>
<polyline fill="none" stroke="black" points="3243,-60 3331,-60 "/>
<text text-anchor="middle" x="3287" y="-49.6" font-family="Times,serif" font-size="8.00">size: 1</text>
<polyline fill="none" stroke="black" points="3243,-43 3331,-43 "/>
<text text-anchor="middle" x="3287" y="-32.6" font-family="Times,serif" font-size="8.00">next: 0x600001e47b70</text>
<polyline fill="none" stroke="black" points="3243,-26 3331,-26 "/>
<text text-anchor="middle" x="3287" y="-15.6" font-family="Times,serif" font-size="8.00">prev: 0x600001e44870</text>
</g>
<!-- Node0x600001e44870&#45;&gt;Node0x600001e44ff0 -->
<g id="edge26" class="edge">
<title>Node0x600001e44870:n&#45;&gt;Node0x600001e44ff0:n</title>
<path fill="none" stroke="red" d="M3207,-34C3219,-34 3224.25,-34 3232.88,-34"/>
<polygon fill="red" stroke="red" points="3233,-37.5 3243,-34 3233,-30.5 3233,-37.5"/>
</g>
<!-- Node0x600001e47b70 -->
<g id="node28" class="node">
<title>Node0x600001e47b70</title>
<polygon fill="none" stroke="black" points="3367,-9 3367,-77 3454,-77 3454,-9 3367,-9"/>
<text text-anchor="middle" x="3410.5" y="-66.6" font-family="Times,serif" font-size="8.00">word: points</text>
<polyline fill="none" stroke="black" points="3367,-60 3454,-60 "/>
<text text-anchor="middle" x="3410.5" y="-49.6" font-family="Times,serif" font-size="8.00">size: 1</text>
<polyline fill="none" stroke="black" points="3367,-43 3454,-43 "/>
<text text-anchor="middle" x="3410.5" y="-32.6" font-family="Times,serif" font-size="8.00">next: 0x600001e47bd0</text>
<polyline fill="none" stroke="black" points="3367,-26 3454,-26 "/>
<text text-anchor="middle" x="3410.5" y="-15.6" font-family="Times,serif" font-size="8.00">prev: 0x600001e44ff0</text>
</g>
<!-- Node0x600001e44ff0&#45;&gt;Node0x600001e47b70 -->
<g id="edge27" class="edge">
<title>Node0x600001e44ff0:n&#45;&gt;Node0x600001e47b70:n</title>
<path fill="none" stroke="red" d="M3331,-34C3343,-34 3348.25,-34 3356.88,-34"/>
<polygon fill="red" stroke="red" points="3357,-37.5 3367,-34 3357,-30.5 3357,-37.5"/>
</g>
<!-- Node0x600001e47bd0 -->
<g id="node29" class="node">
<title>Node0x600001e47bd0</title>
<polygon fill="none" stroke="black" points="3490,-9 3490,-77 3578,-77 3578,-9 3490,-9"/>
<text text-anchor="middle" x="3534" y="-66.6" font-family="Times,serif" font-size="8.00">word: stout</text>
<polyline fill="none" stroke="black" points="3490,-60 3578,-60 "/>
<text text-anchor="middle" x="3534" y="-49.6" font-family="Times,serif" font-size="8.00">size: 2</text>
<polyline fill="none" stroke="black" points="3490,-43 3578,-43 "/>
<text text-anchor="middle" x="3534" y="-32.6" font-family="Times,serif" font-size="8.00">next: 0x600001e4c330</text>
<polyline fill="none" stroke="black" points="3490,-26 3578,-26 "/>
<text text-anchor="middle" x="3534" y="-15.6" font-family="Times,serif" font-size="8.00">prev: 0x600001e47b70</text>
</g>
<!-- Node0x600001e47b70&#45;&gt;Node0x600001e47bd0 -->
<g id="edge28" class="edge">
<title>Node0x600001e47b70:n&#45;&gt;Node0x600001e47bd0:n</title>
<path fill="none" stroke="red" d="M3454,-34C3466,-34 3471.25,-34 3479.88,-34"/>
<polygon fill="red" stroke="red" points="3480,-37.5 3490,-34 3480,-30.5 3480,-37.5"/>
</g>
<!-- Node0x600001e4c330 -->
<g id="node30" class="node">
<title>Node0x600001e4c330</title>
<polygon fill="none" stroke="black" points="3614,-9 3614,-77 3702,-77 3702,-9 3614,-9"/>
<text text-anchor="middle" x="3658" y="-66.6" font-family="Times,serif" font-size="8.00">word: Methinks</text>
<polyline fill="none" stroke="black" points="3614,-60 3702,-60 "/>
<text text-anchor="middle" x="3658" y="-49.6" font-family="Times,serif" font-size="8.00">size: 1</text>
<polyline fill="none" stroke="black" points="3614,-43 3702,-43 "/>
<text text-anchor="middle" x="3658" y="-32.6" font-family="Times,serif" font-size="8.00">next: 0x600001e71ef0</text>
<polyline fill="none" stroke="black" points="3614,-26 3702,-26 "/>
<text text-anchor="middle" x="3658" y="-15.6" font-family="Times,serif" font-size="8.00">prev: 0x600001e47bd0</text>
</g>
<!-- Node0x600001e47bd0&#45;&gt;Node0x600001e4c330 -->
<g id="edge29" class="edge">
<title>Node0x600001e47bd0:n&#45;&gt;Node0x600001e4c330:n</title>
<path fill="none" stroke="red" d="M3578,-34C3590,-34 3595.25,-34 3603.88,-34"/>
<polygon fill="red" stroke="red" points="3604,-37.5 3614,-34 3604,-30.5 3604,-37.5"/>
</g>
<!-- Node0x600001e71ef0 -->
<g id="node31" class="node">
<title>Node0x600001e71ef0</title>
<polygon fill="none" stroke="black" points="3738,-9 3738,-77 3826,-77 3826,-9 3738,-9"/>
<text text-anchor="middle" x="3782" y="-66.6" font-family="Times,serif" font-size="8.00">word: fettle</text>
<polyline fill="none" stroke="black" points="3738,-60 3826,-60 "/>
<text text-anchor="middle" x="3782" y="-49.6" font-family="Times,serif" font-size="8.00">size: 1</text>
<polyline fill="none" stroke="black" points="3738,-43 3826,-43 "/>
<text text-anchor="middle" x="3782" y="-32.6" font-family="Times,serif" font-size="8.00">next: 0x600001e7ac10</text>
<polyline fill="none" stroke="black" points="3738,-26 3826,-26 "/>
<text text-anchor="middle" x="3782" y="-15.6" font-family="Times,serif" font-size="8.00">prev: 0x600001e4c330</text>
</g>
<!-- Node0x600001e4c330&#45;&gt;Node0x600001e71ef0 -->
<g id="edge30" class="edge">
<title>Node0x600001e4c330:n&#45;&gt;Node0x600001e71ef0:n</title>
<path fill="none" stroke="red" d="M3702,-34C3714,-34 3719.25,-34 3727.88,-34"/>
<polygon fill="red" stroke="red" points="3728,-37.5 3738,-34 3728,-30.5 3728,-37.5"/>
</g>
<!-- Node0x600001e7ac10 -->
<g id="node32" class="node">
<title>Node0x600001e7ac10</title>
<polygon fill="none" stroke="black" points="3862,-9 3862,-77 3949,-77 3949,-9 3862,-9"/>
<text text-anchor="middle" x="3905.5" y="-66.6" font-family="Times,serif" font-size="8.00">word: resort</text>
<polyline fill="none" stroke="black" points="3862,-60 3949,-60 "/>
<text text-anchor="middle" x="3905.5" y="-49.6" font-family="Times,serif" font-size="8.00">size: 1</text>
<polyline fill="none" stroke="black" points="3862,-43 3949,-43 "/>
<text text-anchor="middle" x="3905.5" y="-32.6" font-family="Times,serif" font-size="8.00">next: 0x600001e7b2d0</text>
<polyline fill="none" stroke="black" points="3862,-26 3949,-26 "/>
<text text-anchor="middle" x="3905.5" y="-15.6" font-family="Times,serif" font-size="8.00">prev: 0x600001e71ef0</text>
</g>
<!-- Node0x600001e71ef0&#45;&gt;Node0x600001e7ac10 -->
<g id="edge31" class="edge">
<title>Node0x600001e71ef0:n&#45;&gt;Node0x600001e7ac10:n</title>
<path fill="none" stroke="red" d="M3826,-34C3838,-34 3843.25,-34 3851.88,-34"/>
<polygon fill="red" stroke="red" points="3852,-37.5 3862,-34 3852,-30.5 3852,-37.5"/>
</g>
<!-- Node0x600001e7b2d0 -->
<g id="node33" class="node">
<title>Node0x600001e7b2d0</title>
<polygon fill="none" stroke="black" points="3985,-9 3985,-77 4073,-77 4073,-9 3985,-9"/>
<text text-anchor="middle" x="4029" y="-66.6" font-family="Times,serif" font-size="8.00">word: hood</text>
<polyline fill="none" stroke="black" points="3985,-60 4073,-60 "/>
<text text-anchor="middle" x="4029" y="-49.6" font-family="Times,serif" font-size="8.00">size: 2</text>
<polyline fill="none" stroke="black" points="3985,-43 4073,-43 "/>
<text text-anchor="middle" x="4029" y="-32.6" font-family="Times,serif" font-size="8.00">next: 0x600001e4cba0</text>
<polyline fill="none" stroke="black" points="3985,-26 4073,-26 "/>
<text text-anchor="middle" x="4029" y="-15.6" font-family="Times,serif" font-size="8.00">prev: 0x600001e7ac10</text>
</g>
<!-- Node0x600001e7ac10&#45;&gt;Node0x600001e7b2d0 -->
<g id="edge32" class="edge">
<title>Node0x600001e7ac10:n&#45;&gt;Node0x600001e7b2d0:n</title>
<path fill="none" stroke="red" d="M3949,-34C3961,-34 3966.25,-34 3974.88,-34"/>
<polygon fill="red" stroke="red" points="3975,-37.5 3985,-34 3975,-30.5 3975,-37.5"/>
</g>
<!-- Node0x600001e4cba0 -->
<g id="node34" class="node">
<title>Node0x600001e4cba0</title>
<polygon fill="none" stroke="black" points="4109,-9 4109,-77 4197,-77 4197,-9 4109,-9"/>
<text text-anchor="middle" x="4153" y="-66.6" font-family="Times,serif" font-size="8.00">word: Buy</text>
<polyline fill="none" stroke="black" points="4109,-60 4197,-60 "/>
<text text-anchor="middle" x="4153" y="-49.6" font-family="Times,serif" font-size="8.00">size: 1</text>
<polyline fill="none" stroke="black" points="4109,-43 4197,-43 "/>
<text text-anchor="middle" x="4153" y="-32.6" font-family="Times,serif" font-size="8.00">next: 0x600001e7be70</text>
<polyline fill="none" stroke="black" points="4109,-26 4197,-26 "/>
<text text-anchor="middle" x="4153" y="-15.6" font-family="Times,serif" font-size="8.00">prev: 0x600001e7b2d0</text>
</g>
<!-- Node0x600001e7b2d0&#45;&gt;Node0x600001e4cba0 -->
<g id="edge33" class="edge">
<title>Node0x600001e7b2d0:n&#45;&gt;Node0x600001e4cba0:n</title>
<path fill="none" stroke="red" d="M4073,-34C4085,-34 4090.25,-34 4098.88,-34"/>
<polygon fill="red" stroke="red" points="4099,-37.5 4109,-34 4099,-30.5 4099,-37.5"/>
</g>
<!-- Node0x600001e7be70 -->
<g id="node35" class="node">
<title>Node0x600001e7be70</title>
<polygon fill="none" stroke="black" points="4233,-9 4233,-77 4321,-77 4321,-9 4233,-9"/>
<text text-anchor="middle" x="4277" y="-66.6" font-family="Times,serif" font-size="8.00">word: mattock</text>
<polyline fill="none" stroke="black" points="4233,-60 4321,-60 "/>
<text text-anchor="middle" x="4277" y="-49.6" font-family="Times,serif" font-size="8.00">size: 3</text>
<polyline fill="none" stroke="black" points="4233,-43 4321,-43 "/>
<text text-anchor="middle" x="4277" y="-32.6" font-family="Times,serif" font-size="8.00">next: 0x0</text>
<polyline fill="none" stroke="black" points="4233,-26 4321,-26 "/>
<text text-anchor="middle" x="4277" y="-15.6" font-family="Times,serif" font-size="8.00">prev: 0x600001e4cba0</text>
</g>
<!-- Node0x600001e4cba0&#45;&gt;Node0x600001e7be70 -->
<g id="edge34" class="edge">
<title>Node0x600001e4cba0:n&#45;&gt;Node0x600001e7be70:n</title>
<path fill="none" stroke="red" d="M4197,-34C4209,-34 4214.25,-34 4222.88,-34"/>
<polygon fill="red" stroke="red" points="4223,-37.5 4233,-34 4223,-30.5 4223,-37.5"/>
</g>
</g>
</svg>
